<?xml version="1.0" encoding="utf-8"?>
<!-- Generator: Adobe Illustrator 16.0.0, SVG Export Plug-In . SVG Version: 6.00 Build 0)  -->
<!DOCTYPE svg PUBLIC "-//W3C//DTD SVG 1.1//EN" "http://www.w3.org/Graphics/SVG/1.1/DTD/svg11.dtd">
<svg version="1.1" id="traits" xmlns="http://www.w3.org/2000/svg" xmlns:xlink="http://www.w3.org/1999/xlink" x="0px" y="0px"
	 width="640px" height="640px" viewBox="0 0 640 640" enable-background="new 0 0 640 640" xml:space="preserve">
<rect y="0" fill="#B3DFEF" width="640" height="640"/>
<path fill="#FFFFFF" d="M402.93,441.893l-2-47l35.5-86.5c0,0,30.5,31,51.5,30.5c16.12-0.384,26-8.5,26-8.5s25.5,7,25,12.5
	s-46,37.5-65.5,49.5s-33,22.5-33,24s3.5,10.5,3.5,10.5L402.93,441.893z"/>
<path opacity="0.6" fill="#D1E2A8" enable-background="new    " d="M402.93,441.893l-2-47l35.5-86.5c0,0,30.5,31,51.5,30.5
	c16.12-0.384,26-8.5,26-8.5s25.5,7,25,12.5s-46,37.5-65.5,49.5s-33,22.5-33,24s3.5,10.5,3.5,10.5L402.93,441.893z"/>
<path fill="#AACD72" d="M359.93,262.393c0,0-2.438-35.448,6.5-36.5c17-2,13.5,36.5,13.5,36.5H359.93z"/>
<polygon fill="#EEF4DE" points="349.93,292.393 352.93,261.393 385.93,258.393 391.43,291.393 "/>
<path fill="#C1DA98" d="M387.43,279.893"/>
<path fill="#AACD72" d="M376.43,242.393c0,0,14.5-10,37.5-7s33,16,33,16l-4,13c0,0-12.5-16.5-33-18s-34,7-34,7L376.43,242.393z"/>
<path fill="#AACD72" d="M446.43,312.893c0,0-25-33-2.5-59s67,1,73.5,29.5s2.986,51.419-21.5,55.5
	C474.93,342.393,461.43,337.393,446.43,312.893z"/>
<g>
	<g>
		<g>
			<path fill="#FFFFFF" d="M354.43,235.893c-0.476-2.428-0.933-3.878-2.646-5.091c-1.858-1.314-11.32-7.668-11.32-7.668
				s-9.41-6.43-11.32-7.669c-1.764-1.146-3.277-1.03-5.711-0.571c0.478,2.429,0.935,3.878,2.648,5.092
				c1.857,1.314,11.32,7.668,11.32,7.668s9.408,6.433,11.318,7.669C350.482,236.465,351.998,236.352,354.43,235.893z"/>
		</g>
	</g>
</g>
<path fill="#AACD72" d="M70.43,330.893c0,0-33-81,14-167s108-110,146-107s45,15,40,35s-38,61-44,62s-25-9-48,0s-87,31-95,96
	s5,74,5,74S70.43,320.893,70.43,330.893z"/>
<path fill="#AACD72" d="M142.43,416.893c0,0,19.257,63.334,45.334,63.334c29.333,0,30.666-21.667,30.666-21.667l13-41
	c0,0,14-29.667,35,9.333s-3,99-26,107s-21-2-21-2s-2,23-53,20s-79-77-78-89S128.43,412.893,142.43,416.893z"/>
<path fill="#C1DA98" d="M205.43,640l80-147.107c0,0,16,16,33,16s37-5,37-5l7,80l-24,2l-2,54.107H205.43z"/>
<polygon fill="#C1DA98" points="393.43,640 398.43,444.893 449.43,425.893 509.43,485.893 479.43,496.893 513.43,640 "/>
<path fill="#C1DA98" d="M0,550.893l88.43-88c0,0,23,92,73,91s66-21,66-21s34-16,39-23s19-17,19-17L205.43,640H0V550.893z"/>
<path fill="#AACD72" d="M329.43,407.893c0,0-26.806-76.884-6-101c22-25.5,96-35,105,24c9.334,61.189-22,67.5-22,67.5l-60.5,42
	C345.93,440.393,335.93,429.393,329.43,407.893z"/>
<path opacity="0.6" fill="#AACD72" enable-background="new    " d="M98.43,446.893c0,0,25.469,65.164,64,68.667
	c44,4,41.333-7.334,41.333-7.334l18,25.334c0,0-35.332,32.666-72.666,17.333s-60.667-88-60.667-88S88.43,438.226,98.43,446.893z"/>
<path opacity="0.6" fill="#AACD72" enable-background="new    " d="M213.097,509.56c0,0,15.999,2,32.666-12s30-28.667,28.667-26.667
	s-8.667,53.333-28.667,61.333S214.431,514.227,213.097,509.56z"/>
<path opacity="0.6" fill="#AACD72" enable-background="new    " d="M208.43,633.559c0,0,30-22,76-27.333
	c31.3-3.629,52-2.667,52-2.667l1.333-20.666l-92-18.667L208.43,633.559z"/>
<path opacity="0.6" fill="#AACD72" enable-background="new    " d="M397.763,516.893c0,0,80-18.667,80-16.667
	s29.334,105.333,29.334,105.333s-28-41.333-74.667-54c-22.802-6.189-36-6-36-6L397.763,516.893z"/>
<path opacity="0.5" fill="#AACD72" enable-background="new    " d="M99.101,204.893c0,0,25.409-48.153,34.666-66.667
	c12-24,26.667-44.667,46-44.667c10.154,0,20,25.333,41.334,12.667c11.607-6.892,22-39.333,30-27.333s-0.668,64-15.334,70.667
	s-50.666,4-50.666,4S120.435,167.559,99.101,204.893z"/>
<path opacity="0.5" fill="#AACD72" enable-background="new    " d="M458.93,294.893c0,0,11,0.5,14.5,13.5s-2,28-2,28s-17-7-22.5-19
	S458.93,294.893,458.93,294.893z"/>
<path opacity="0.5" fill="#AACD72" enable-background="new    " d="M493.93,268.893c0,0-8.5,15.5,1,22.5s8.5,10.5,6.5,18.5
	s-12,25.5-5.5,29c0,0,20.5-0.5,24-25.5S510.93,252.393,493.93,268.893z"/>
<path opacity="0.4" fill="#AACD72" enable-background="new    " d="M320.43,356.393c0,0,10.5,2.5,12,15.5s-5.5,26-5.5,26
	S311.43,362.893,320.43,356.393z"/>
<path opacity="0.4" fill="#AACD72" enable-background="new    " d="M334.93,421.393l-6.5-16.5c0,0,20.354-0.357,42.5-20
	c26.5-23.5,22.146-47.197,45.5-50c12.5-1.5,15,13.5,15,13.5S370.93,432.893,334.93,421.393z"/>
<g display="none">
	<g display="inline">
		<g>
			<path fill="#FFFFFF" d="M-428.159,250.297c0.574-0.479,1.23-0.503,1.806-0.414c0.593,0.106,1.151,0.321,1.699,0.548
				c1.095,0.474,2.146,1.043,3.25,1.596c2.208,1.119,4.618,2.248,7.886,3.322c0.741,0.244,1.802,0.579,3.108,0.958
				c0.656,0.182,1.368,0.389,2.139,0.581c0.385,0.097,0.783,0.196,1.191,0.299c0.303,0.069,0.611,0.141,0.922,0.209
				c0.43,0.104,0.869,0.194,1.314,0.281c3.55,0.734,7.522,1.201,11.659,1.165c4.154-0.037,8.382-0.639,12.463-1.581
				c8.187-1.881,15.68-5.274,21.521-7.955c1.462-0.664,2.828-1.278,4.062-1.771c0.613-0.243,1.201-0.468,1.728-0.625
				c0.27-0.092,0.515-0.154,0.744-0.207c0.121-0.034,0.229-0.058,0.322-0.067l0.193-0.034c-0.004,0-0.005-0.002-0.005-0.004
				l-0.001-0.014c-0.001-0.002-0.001-0.021-0.002-0.008c0,0.057,0,0.11,0,0.166c-0.033,0.262-0.062,0.489-0.087,0.685
				c-0.233,1.285-0.634,2.544-1.05,3.635c-0.405,1.101-0.833,2.062-1.215,2.902c-0.794,1.677-1.438,2.878-1.927,3.732
				c-0.473,0.865-0.81,1.378-0.989,1.692c-0.187,0.312-0.246,0.412-0.246,0.412s-0.363,0.564-1.022,1.594
				c-0.69,1.006-1.675,2.484-3.054,4.195c-2.729,3.391-6.938,8.013-12.793,11.194c-1.46,0.772-3.003,1.481-4.633,1.972
				c-0.805,0.289-1.645,0.446-2.479,0.649c-0.854,0.125-1.675,0.298-2.579,0.354c-3.555,0.321-7.219-0.006-10.719-0.853
				c-7.031-1.704-13.241-5.506-17.801-9.266c-3.824-3.166-5.836-5.519-6.9-6.705c-2.119-2.449-3.726-4.395-5.239-6.266
				c-0.745-0.941-1.473-1.865-2.134-2.874c-0.327-0.506-0.641-1.033-0.892-1.606C-428.149,251.623-428.396,250.989-428.159,250.297
				c-0.561,0.509-0.692,1.352-0.739,2.049c-0.04,0.724,0.024,1.422,0.126,2.095c0.213,1.349,0.597,2.6,1.085,3.833
				c0.999,2.458,2.441,4.856,4.708,7.529c1.141,1.298,3.298,3.837,7.421,7.256c4.921,4.053,11.662,8.222,19.56,10.146
				c3.927,0.948,8.095,1.321,12.143,0.956c1-0.065,2.049-0.268,3.057-0.425c0.997-0.236,2.002-0.438,2.95-0.772
				c1.93-0.585,3.723-1.407,5.396-2.298c3.334-1.82,6.16-4.002,8.476-6.182c2.327-2.173,4.191-4.312,5.665-6.158
				c1.481-1.844,2.535-3.426,3.274-4.507c0.706-1.103,1.094-1.709,1.094-1.709s0.064-0.105,0.265-0.44
				c0.194-0.339,0.554-0.888,1.062-1.816c0.525-0.921,1.221-2.212,2.085-4.04c0.42-0.923,0.889-1.974,1.349-3.219
				c0.467-1.243,0.939-2.654,1.267-4.443c0.047-0.299,0.088-0.669,0.136-1.083c0.004-0.117,0.007-0.235,0.011-0.36
				c0.005-0.167,0.004-0.371-0.004-0.563c0.008-0.406-0.124-0.766-0.218-1.164c-0.091-0.392-0.242-0.812-0.474-1.171
				c-0.302-0.317-0.553-0.71-0.977-0.948c-0.188-0.149-0.421-0.227-0.646-0.329c-0.222-0.108-0.46-0.188-0.72-0.229
				c-0.504-0.137-1.063-0.082-1.629-0.089c-0.133,0.009-0.255,0.027-0.382,0.047l-0.287,0.046c-0.199,0.029-0.384,0.068-0.556,0.114
				c-0.363,0.083-0.721,0.179-1.058,0.291c-0.698,0.212-1.366,0.468-2.056,0.737c-1.369,0.549-2.773,1.182-4.25,1.85
				c-5.866,2.688-13.021,5.9-20.699,7.663c-3.824,0.882-7.748,1.434-11.509,1.466c-3.775,0.032-7.427-0.39-10.738-1.074
				c-0.415-0.08-0.824-0.166-1.227-0.261c-0.292-0.066-0.579-0.131-0.863-0.195c-0.384-0.095-0.758-0.188-1.12-0.276
				c-0.725-0.181-1.4-0.374-2.022-0.544c-1.24-0.355-2.256-0.671-2.972-0.897c-3.148-0.999-5.679-1.749-8.224-2.203
				c-1.275-0.22-2.552-0.387-3.93-0.368c-0.689,0.021-1.407,0.081-2.127,0.296C-427.169,249.114-427.896,249.605-428.159,250.297z"
				/>
		</g>
	</g>
</g>
<g display="none">
	<g display="inline" opacity="0.6">
		<g>
			<g>
				<path fill="#FCCD8C" d="M70.429,141.894c1.487,4.431,3.186,7.989,5.49,11.108c2.322,3.107,5.298,5.804,9.732,8.219
					c2.394,1.311,7.281,3.828,13.738,6.135c6.46,2.229,14.653,4.256,23.115,3.833c4.197-0.187,8.379-0.946,12.112-2.213
					c0.928-0.328,1.819-0.709,2.694-1.058c0.434-0.186,0.873-0.341,1.284-0.545c0.408-0.211,0.812-0.418,1.207-0.623
					c0.788-0.417,1.563-0.808,2.283-1.224c0.695-0.454,1.364-0.892,2.005-1.311c1.312-0.81,2.344-1.718,3.297-2.48
					c0.471-0.388,0.914-0.736,1.312-1.088c0.386-0.381,0.738-0.729,1.057-1.046c1.266-1.269,1.962-1.997,1.962-1.998
					c0,0,0.638-0.799,1.77-2.219c0.273-0.362,0.602-0.745,0.909-1.201c0.292-0.469,0.608-0.977,0.947-1.521
					c0.332-0.55,0.688-1.135,1.062-1.751c0.324-0.644,0.64-1.333,0.977-2.054c1.388-2.861,2.433-6.451,3.019-10.303
					c0.63-3.874,0.581-7.975,0.195-12.009c-0.168-2.034-0.532-4.006-0.875-5.987c-0.423-1.938-0.841-3.88-1.382-5.722
					c-1.032-3.713-2.257-7.191-3.526-10.281c-2.508-6.206-5.044-10.965-6.353-13.31c-2.414-4.34-5.041-7.292-8.094-9.636
					c-3.067-2.321-6.565-4.079-10.935-5.727c0.378,4.631,0.566,8.365,1.302,11.911c0.712,3.552,1.93,6.908,3.996,10.856
					c1.124,2.135,3.366,6.43,5.512,11.776c1.093,2.668,2.117,5.604,2.957,8.62c0.449,1.51,0.767,3.034,1.111,4.559
					c0.254,1.517,0.552,3.038,0.665,4.509c0.677,5.95-0.28,11.077-1.817,14.241c-0.184,0.404-0.358,0.79-0.524,1.156
					c-0.211,0.339-0.411,0.66-0.599,0.961c-0.181,0.305-0.349,0.59-0.505,0.854c-0.167,0.256-0.366,0.463-0.519,0.667
					c-0.622,0.807-0.973,1.262-0.973,1.262s-0.419,0.412-1.163,1.144c-0.183,0.188-0.385,0.395-0.606,0.618
					c-0.247,0.213-0.541,0.433-0.84,0.673c-0.608,0.475-1.258,1.08-2.074,1.551c-0.395,0.26-0.806,0.529-1.233,0.812
					c-0.443,0.249-0.92,0.47-1.398,0.728c-0.239,0.128-0.483,0.257-0.729,0.388c-0.249,0.127-0.522,0.208-0.786,0.317
					c-0.537,0.203-1.072,0.444-1.639,0.647c-2.288,0.758-4.917,1.238-7.733,1.362c-5.639,0.311-11.992-1.163-17.255-2.979
					c-5.28-1.875-9.527-4.006-11.628-5.093c-3.893-1.991-7.187-3.217-10.695-3.965C78.748,142.698,75.041,142.441,70.429,141.894z"
					/>
			</g>
		</g>
	</g>
	<g display="inline" opacity="0.6">
		<g>
			<g>
				<path fill="#FCCD8C" d="M608.267,273.01c-2.968-3.609-5.822-6.328-9.089-8.421c-3.276-2.077-7.02-3.533-12.021-4.209
					c-2.703-0.371-8.168-0.98-15.022-0.833c-6.831,0.22-15.209,1.248-22.963,4.66c-3.854,1.671-7.491,3.871-10.528,6.386
					c-0.748,0.637-1.444,1.311-2.14,1.949c-0.339,0.326-0.694,0.63-1.005,0.967c-0.307,0.342-0.608,0.68-0.906,1.012
					c-0.588,0.67-1.173,1.312-1.697,1.956c-0.485,0.672-0.955,1.319-1.404,1.939c-0.938,1.223-1.577,2.439-2.195,3.49
					c-0.301,0.531-0.591,1.018-0.838,1.485c-0.225,0.494-0.429,0.946-0.613,1.354c-0.729,1.637-1.121,2.564-1.121,2.564
					s-0.311,0.977-0.86,2.704c-0.126,0.438-0.297,0.91-0.422,1.446c-0.104,0.542-0.222,1.129-0.344,1.758
					c-0.113,0.631-0.235,1.303-0.366,2.014c-0.073,0.718-0.122,1.475-0.182,2.267c-0.275,3.17,0.027,6.894,0.854,10.703
					c0.793,3.843,2.3,7.655,4.1,11.288c0.882,1.842,1.926,3.554,2.951,5.28c1.087,1.66,2.17,3.326,3.332,4.854
					c2.287,3.102,4.672,5.914,6.96,8.349c4.556,4.903,8.621,8.446,10.681,10.17c3.802,3.192,7.312,5.019,10.996,6.114
					c3.694,1.078,7.589,1.472,12.259,1.452c-2.005-4.192-3.512-7.613-5.463-10.663c-1.932-3.065-4.268-5.768-7.604-8.721
					c-1.812-1.594-5.438-4.807-9.35-9.037c-1.973-2.104-3.977-4.48-5.836-7c-0.958-1.25-1.799-2.562-2.664-3.862
					c-0.777-1.325-1.599-2.642-2.229-3.975c-2.753-5.318-3.688-10.45-3.379-13.954c0.025-0.443,0.053-0.866,0.075-1.269
					c0.076-0.392,0.148-0.764,0.219-1.109c0.06-0.352,0.114-0.678,0.168-0.979c0.062-0.299,0.177-0.562,0.246-0.808
					c0.294-0.978,0.46-1.526,0.46-1.526s0.242-0.534,0.678-1.481c0.104-0.239,0.22-0.505,0.347-0.795
					c0.155-0.287,0.354-0.597,0.545-0.93c0.399-0.657,0.789-1.457,1.388-2.186c0.273-0.385,0.562-0.784,0.859-1.2
					c0.326-0.391,0.692-0.769,1.048-1.178c0.181-0.204,0.36-0.412,0.544-0.622c0.188-0.207,0.414-0.381,0.621-0.579
					c0.431-0.38,0.844-0.797,1.3-1.188c1.867-1.522,4.152-2.909,6.74-4.028c5.156-2.303,11.618-3.19,17.184-3.369
					c5.602-0.131,10.328,0.346,12.68,0.611c4.347,0.473,7.861,0.442,11.406-0.108C600.207,275.225,603.764,274.144,608.267,273.01z"
					/>
			</g>
		</g>
	</g>
	<g display="inline" opacity="0.6">
		<g>
			<g>
				<path fill="#FCCD8C" d="M178.429,48.894c1.95,4.788,4.21,9.06,6.68,13.037c2.482,3.976,5.211,7.669,8.419,11.165
					c3.211,3.49,6.887,6.811,11.381,9.867c4.495,3.037,9.833,5.845,16.405,7.797c2.225,0.646,5.212,1.404,9.688,1.961
					c1.127,0.092,2.343,0.191,3.656,0.298c1.322,0.024,2.747,0.019,4.279,0.013c1.53-0.093,3.174-0.229,4.928-0.412
					c0.87-0.148,1.77-0.303,2.699-0.461c0.465-0.08,0.937-0.163,1.417-0.25c0.479-0.09,0.95-0.233,1.438-0.354
					c0.27-0.021,0.855-0.271,0.855-0.271s0.222-0.023,0.461-0.069l0.18-0.039c0.165-0.045,0.325-0.088,0.472-0.128
					c0.556-0.158,1.123-0.28,1.659-0.469c0.535-0.191,1.067-0.383,1.596-0.569c1.05-0.393,2.113-0.733,3.109-1.163
					c0.985-0.452,1.956-0.898,2.912-1.337c0.477-0.226,0.948-0.446,1.417-0.666c0.445-0.248,0.888-0.493,1.327-0.737
					c0.875-0.491,1.736-0.974,2.582-1.448c0.841-0.484,1.631-1.055,2.423-1.563c0.781-0.537,1.573-1.007,2.295-1.575
					c0.723-0.563,1.43-1.118,2.119-1.658c5.494-4.401,9.069-9.125,11.079-12.397c0.238-0.376,0.476-0.75,0.712-1.122
					c0.225-0.378,0.418-0.771,0.625-1.152c0.399-0.77,0.794-1.528,1.184-2.278c0.353-0.766,0.66-1.537,0.978-2.296
					c0.316-0.758,0.627-1.506,0.853-2.27c0.24-0.758,0.477-1.507,0.711-2.249c0.231-0.741,0.371-1.49,0.55-2.222
					c0.371-1.467,0.576-2.912,0.772-4.327c0.744-5.67,0.329-10.841-0.606-15.623c-0.956-4.788-2.495-9.216-4.533-13.499
					c-2.035-4.273-4.525-8.459-7.718-12.529c0.907,5.067,1.2,9.709,1.3,14.103c0.098,4.389-0.071,8.539-0.474,12.635
					c-0.418,4.088-1.023,8.145-2.179,12.219c-0.297,1.015-0.567,2.052-0.953,3.062c-0.187,0.506-0.326,1.036-0.541,1.541
					c-0.207,0.505-0.416,1.016-0.628,1.53c-0.188,0.527-0.444,1.025-0.693,1.534c-0.244,0.509-0.491,1.025-0.741,1.548
					c-0.284,0.501-0.572,1.01-0.864,1.524c-0.146,0.256-0.277,0.522-0.436,0.777c-0.166,0.249-0.334,0.499-0.503,0.752
					c-1.395,2.218-3.793,5.396-7.756,8.554c-0.499,0.391-1.011,0.791-1.534,1.2c-0.517,0.416-1.13,0.758-1.706,1.154
					c-0.597,0.378-1.166,0.808-1.812,1.173c-0.65,0.36-1.312,0.729-1.985,1.103c-0.336,0.188-0.675,0.379-1.016,0.571
					c-0.349,0.158-0.7,0.319-1.054,0.481c-0.707,0.326-1.424,0.657-2.151,0.992c-0.731,0.317-1.497,0.544-2.257,0.833
					c-0.381,0.139-0.765,0.279-1.15,0.42c-0.386,0.142-0.788,0.213-1.184,0.326c-0.105,0.027-0.22,0.056-0.337,0.086l-0.124,0.041
					c-0.163,0.06-0.307,0.132-0.307,0.132s-0.455,0.024-0.625,0.122c-0.346,0.086-0.681,0.201-1.019,0.261
					c-0.339,0.059-0.671,0.113-0.999,0.168c-0.653,0.116-1.285,0.229-1.896,0.335c-1.233,0.119-2.385,0.221-3.46,0.3
					c-1.082,0-2.086,0-3.02,0c-0.938-0.075-1.805-0.146-2.608-0.208c-3.218-0.397-5.431-0.927-7.104-1.399
					c-4.94-1.414-9.311-3.285-13.36-5.258c-4.049-1.984-7.782-4.077-11.442-6.238c-3.659-2.167-7.235-4.424-10.927-6.899
					C186.201,54.878,182.382,52.197,178.429,48.894z"/>
			</g>
		</g>
	</g>
	<g display="inline" opacity="0.6">
		<g>
			<g>
				<path fill="#FCCD8C" d="M49.43,210.894c4.588,2.341,8.586,4.771,12.398,7.11c3.805,2.35,7.396,4.662,11.018,7.022
					c3.618,2.366,7.272,4.777,11.129,7.429c3.855,2.648,7.894,5.567,12.156,9.047c1.418,1.201,3.304,2.762,5.807,5.225
					c2.445,2.495,5.637,5.828,8.939,10.907c0.466,0.777,1.073,1.655,1.641,2.666c0.546,1.021,1.14,2.131,1.756,3.285
					c0.529,1.188,1.077,2.425,1.625,3.657c0.449,1.267,0.898,2.529,1.329,3.74c0.689,2.478,1.327,4.738,1.559,6.44
					c0.155,0.842,0.281,1.522,0.368,1.997c0.051,0.233,0.07,0.421,0.079,0.549c0.012,0.127,0.018,0.194,0.018,0.194
					s0.078,0.894,0.205,2.357c0.204,1.458,0.165,3.515,0.198,5.812c0.02,1.148-0.146,2.346-0.205,3.572
					c-0.057,0.609-0.047,1.234-0.154,1.844c-0.093,0.609-0.186,1.222-0.277,1.828c-0.088,0.605-0.176,1.209-0.263,1.801
					c-0.092,0.592-0.258,1.159-0.377,1.72c-0.276,1.114-0.45,2.192-0.75,3.138c-2.239,7.708-5.49,13.532-8.465,17.881
					c-2.999,4.353-5.695,7.27-7.494,9.293c-3.752,4.024-7.387,7.436-10.844,10.58c-3.464,3.143-6.762,6.019-10.033,8.841
					c-3.275,2.817-6.53,5.581-9.994,8.405c-3.474,2.814-7.12,5.741-11.368,8.653c5.138-0.583,9.85-1.562,14.353-2.758
					c4.504-1.21,8.798-2.696,13.07-4.592c4.27-1.898,8.526-4.201,12.885-7.158c4.349-2.964,8.819-6.578,13.292-11.28
					c2.161-2.372,5.367-5.803,9.053-11.115c3.644-5.303,7.795-12.592,10.674-22.52c0.381-1.215,0.636-2.601,0.983-4.039
					c0.153-0.724,0.353-1.458,0.476-2.219c0.113-0.764,0.229-1.539,0.344-2.32c0.113-0.782,0.227-1.57,0.34-2.355
					c0.125-0.787,0.129-1.582,0.196-2.365c0.08-1.569,0.253-3.114,0.23-4.573c-0.038-2.919-0.046-5.521-0.3-7.389
					c-0.185-1.868-0.297-3.008-0.297-3.008s-0.008-0.086-0.022-0.248c-0.012-0.162-0.036-0.4-0.095-0.706
					c-0.104-0.611-0.256-1.493-0.441-2.581c-0.302-2.188-1.07-5.145-1.974-8.357c-0.552-1.577-1.128-3.222-1.706-4.872
					c-0.704-1.597-1.41-3.199-2.091-4.743c-0.793-1.481-1.556-2.909-2.258-4.223c-0.734-1.291-1.497-2.405-2.108-3.384
					c-4.208-6.438-8.125-10.492-11.104-13.504c-3.036-2.967-5.276-4.797-6.973-6.199c-5.066-4.05-9.961-7.062-14.67-9.408
					c-4.713-2.345-9.234-4.058-13.716-5.375c-4.484-1.312-8.934-2.221-13.555-2.833C59.398,211.17,54.6,210.812,49.43,210.894z"/>
			</g>
		</g>
	</g>
	<g display="inline" opacity="0.6">
		<g>
			<g>
				<path fill="#FCCD8C" d="M347.429,14.893c-1.979,4.781-3.235,9.482-4.083,14.126c-0.843,4.653-1.174,9.292-0.977,14.103
					c0.214,4.805,0.978,9.798,2.675,15.047c1.698,5.233,4.296,10.767,8.343,16.265c0.717,0.907,1.534,1.966,2.549,3.203
					c0.536,0.595,1.116,1.238,1.747,1.938c0.318,0.349,0.649,0.709,0.994,1.086c0.366,0.354,0.746,0.726,1.144,1.109
					c3.14,3.081,7.597,6.907,14.345,10.649c1.227,0.677,2.861,1.614,4.728,2.396c1.855,0.812,3.803,1.776,5.737,2.369
					c0.952,0.327,1.863,0.64,2.694,0.925c0.416,0.143,0.812,0.275,1.182,0.4c0.377,0.107,0.736,0.188,1.062,0.272
					c1.302,0.324,2.11,0.525,2.11,0.525s0.679,0.175,1.787,0.462c0.277,0.071,0.582,0.148,0.909,0.232
					c0.335,0.058,0.692,0.12,1.07,0.185c0.756,0.128,1.592,0.271,2.475,0.418c0.887,0.127,1.812,0.344,2.771,0.406
					c0.96,0.076,1.936,0.154,2.896,0.229c1.922,0.204,3.788,0.157,5.341,0.137c2.602,0.057,5.035-0.285,7.367-0.47
					c1.16-0.127,2.271-0.353,3.361-0.521c1.083-0.201,2.163-0.315,3.164-0.587c4.062-0.903,7.591-1.973,10.614-3.085
					c6.082-2.191,10.192-4.442,13.024-5.933c5.676-3.117,10.296-6.508,14.273-9.933c3.977-3.435,7.31-6.926,10.267-10.533
					c2.946-3.618,5.511-7.358,7.888-11.363c2.361-4.012,4.571-8.282,6.544-13.062c-3.968,3.285-7.77,6.011-11.421,8.603
					c-3.66,2.576-7.188,4.988-10.774,7.413c-3.6,2.412-7.249,4.845-11.191,7.384c-3.944,2.529-8.182,5.186-13.045,7.792
					c-2.417,1.232-5.928,3.134-10.909,4.898c-2.479,0.908-5.329,1.754-8.555,2.474c-0.802,0.228-1.644,0.293-2.494,0.453
					c-0.856,0.129-1.732,0.316-2.635,0.411c-1.81,0.118-3.706,0.417-5.697,0.352c-1.193,0.004-2.628,0.059-4.095-0.107
					c-0.736-0.051-1.482-0.104-2.218-0.155c-0.735-0.029-1.441-0.211-2.122-0.299c-0.68-0.104-1.318-0.204-1.899-0.294
					c-0.29-0.043-0.565-0.084-0.823-0.123c-0.253-0.062-0.485-0.123-0.702-0.177c-0.855-0.212-1.381-0.342-1.381-0.342
					s-0.623-0.163-1.624-0.423c-0.25-0.067-0.524-0.128-0.815-0.218c-0.287-0.104-0.596-0.215-0.915-0.331
					c-0.646-0.229-1.354-0.481-2.093-0.745c-1.502-0.452-3.037-1.265-4.507-1.896c-1.487-0.609-2.76-1.351-3.731-1.859
					c-5.279-2.917-8.628-5.8-11.015-8.119c-0.302-0.288-0.592-0.564-0.868-0.831c-0.263-0.284-0.512-0.559-0.75-0.82
					c-0.48-0.524-0.925-1.006-1.332-1.452c-0.762-0.939-1.396-1.727-1.945-2.407c-3.104-4.135-5.408-8.208-7.359-12.182
					c-1.947-3.979-3.49-7.884-4.88-11.828c-1.374-3.948-2.62-7.942-3.679-12.218S347.92,20.018,347.429,14.893z"/>
			</g>
		</g>
	</g>
	<g display="inline" opacity="0.6">
		<g>
			<g>
				<path fill="#FCCD8C" d="M519.429,82.892c-4.777,1.992-8.968,4.479-12.831,7.196c-3.859,2.734-7.346,5.817-10.562,9.39
					c-3.205,3.577-6.136,7.667-8.642,12.535c-2.493,4.864-4.569,10.531-5.729,17.157c-0.098,0.561-0.221,1.163-0.317,1.824
					c-0.078,0.663-0.162,1.383-0.254,2.167c-0.083,0.782-0.203,1.63-0.271,2.555c-0.046,0.927-0.095,1.928-0.148,3.014
					c-0.118,4.329-0.032,10.091,1.493,17.564c0.715,3.853,2.57,10.141,4.647,15.25c1.127,2.511,2.093,4.799,2.941,6.439
					c0.876,1.638,1.422,2.655,1.422,2.655s0.452,0.855,1.194,2.256c0.852,1.35,2.009,3.238,3.378,5.315
					c2.896,4.061,6.847,8.739,10.128,11.618c0.907,0.915,1.883,1.703,2.832,2.479c0.952,0.771,1.856,1.554,2.787,2.25
					c0.949,0.669,1.874,1.322,2.773,1.958c0.451,0.315,0.897,0.627,1.339,0.934c0.458,0.277,0.907,0.552,1.354,0.82
					c0.894,0.536,1.759,1.06,2.604,1.565c0.837,0.519,1.702,0.905,2.518,1.344c0.82,0.421,1.617,0.83,2.39,1.226
					c0.78,0.375,1.555,0.692,2.292,1.022c5.934,2.604,10.479,3.898,13.587,4.698c6.308,1.622,12.036,2.309,17.312,2.492
					c5.281,0.172,10.12-0.21,14.749-0.922c4.627-0.723,9.048-1.809,13.487-3.249c4.432-1.45,8.917-3.211,13.526-5.552
					c-5.147-0.093-9.801-0.549-14.241-1.017c-4.438-0.481-8.664-1.033-12.937-1.628c-8.521-1.233-17.318-2.427-27.926-5.213
					c-2.614-0.695-6.406-1.808-11.215-3.94c-0.601-0.271-1.231-0.525-1.86-0.83c-0.618-0.321-1.257-0.653-1.914-0.994
					c-0.648-0.354-1.357-0.658-2.017-1.077c-0.669-0.403-1.355-0.82-2.062-1.25c-0.354-0.213-0.713-0.429-1.077-0.646
					c-0.345-0.244-0.692-0.492-1.049-0.743c-0.71-0.5-1.438-1.013-2.188-1.54c-0.729-0.547-1.43-1.169-2.177-1.77
					c-0.743-0.604-1.514-1.217-2.213-1.939c-2.555-2.251-5.634-5.907-7.963-9.081c-1.074-1.659-2.033-3.138-2.723-4.202
					c-0.604-1.126-0.975-1.812-0.975-1.812s-0.434-0.825-1.129-2.15c-0.683-1.336-1.484-3.317-2.427-5.42
					c-1.694-4.283-3.188-9.412-3.805-12.49c-1.234-5.998-1.292-10.497-1.221-13.893c0.036-0.851,0.069-1.634,0.103-2.359
					c0.049-0.724,0.146-1.385,0.207-1.999c0.062-0.611,0.125-1.176,0.18-1.694c0.072-0.521,0.17-0.99,0.241-1.432
					c0.854-5.192,2.147-9.756,3.604-13.978c1.465-4.221,3.095-8.104,4.862-11.901c1.782-3.79,3.688-7.512,5.922-11.305
					C513.685,90.805,516.16,86.869,519.429,82.892z"/>
			</g>
		</g>
	</g>
</g>
<path fill="#FFFFFF" d="M507.93,250.893c0,0-21,11-13,25s28-9.5,28-9.5S520.43,250.893,507.93,250.893z"/>
<path fill="#FFFFFF" d="M540.93,275.393c-4-3-33.5-4-31.5,13s31.5,3.5,31.5,3.5S544.93,278.393,540.93,275.393z"/>
<path fill="#FFFFFF" d="M545.43,297.393c0,0-31.5-4-34,9s32,13,32,13s7-3.5,7.5-11.5S547.93,296.393,545.43,297.393z"/>
<path fill="#FFFFFF" d="M540.43,326.893c0,0-28-12-32.5,1s24,18.5,27,18s7.5-2,9.5-6.5S540.43,326.893,540.43,326.893z"/>
<g>
	<g>
		<g>
			<path d="M113.097,332.893c-3.587-3.725-7.042-6.51-11.092-8.856c-2.037-1.161-4.238-2.203-6.78-3.046
				c-2.544-0.824-5.425-1.506-8.856-1.602c-1.163-0.012-2.701-0.057-4.991,0.316c-2.244,0.379-5.421,1.122-8.959,3.663
				c-1.947,1.446-3.916,3.543-5.445,6.094c-0.349,0.646-0.705,1.307-1.068,1.979c-0.318,0.685-0.591,1.389-0.89,2.102
				c-0.32,0.688-0.514,1.503-0.748,2.288c-0.111,0.396-0.224,0.795-0.336,1.194c-0.104,0.403-0.142,0.82-0.214,1.233
				c-0.101,0.829-0.309,1.668-0.303,2.511c-0.021,0.843-0.057,1.696-0.048,2.545c0.075,0.839,0.15,1.682,0.227,2.523
				c0.09,0.84,0.298,1.644,0.448,2.466c0.742,3.232,1.898,6.287,3.324,8.964c2.809,5.402,6.307,9.543,8.924,12.403
				c1.304,1.442,2.447,2.516,3.221,3.278c0.768,0.771,1.23,1.15,1.23,1.15s0.373,0.337,1.053,0.949
				c0.667,0.628,1.688,1.471,2.957,2.517c2.555,2.064,6.222,4.792,10.635,7.398c4.413,2.597,9.528,5.151,14.875,6.884
				c0.67,0.213,1.337,0.425,2,0.635c0.666,0.203,1.35,0.359,2.018,0.538c1.325,0.378,2.693,0.602,4.006,0.862
				c2.669,0.409,5.258,0.667,7.694,0.533c1.3-0.003,2.569-0.199,3.771-0.369c0.3-0.036,0.597-0.085,0.892-0.167
				c0.226-0.056,0.448-0.11,0.668-0.165c0.009-0.005,0.027-0.013,0.026-0.015c-0.006-0.004-0.003-0.003,0.013,0.006
				c0.262,0.15,0.613,0.337,0.901,0.521c0.601,0.364,1.164,0.742,1.674,1.124c2.062,1.507,3.41,2.896,4.289,3.865
				c1.8,1.96,3.23,3.893,4.492,5.765c1.266,1.869,2.317,3.598,3.157,5.402c0.852,1.797,1.541,3.64,1.96,5.688
				c0.208,1.023,0.346,2.104,0.354,3.236c0.008,1.134-0.062,2.342-0.41,3.58c0.896-0.938,1.569-2.047,2.123-3.176
				c0.56-1.135,0.959-2.322,1.235-3.527c0.554-2.415,0.607-4.901,0.24-7.381c-0.348-2.484-1.182-4.965-2.372-7.397
				c-1.183-2.438-2.773-4.954-5.004-7.436c-1.096-1.227-2.766-2.977-5.438-4.946c-0.664-0.497-1.399-0.996-2.22-1.494
				c-0.414-0.263-0.817-0.483-1.324-0.765c-0.389-0.193-0.782-0.392-1.183-0.592c-0.414-0.174-0.834-0.351-1.261-0.529l-0.322-0.13
				c-0.107-0.046-0.224,0.029-0.336,0.038l-0.683,0.148c-0.459,0.1-0.924,0.198-1.395,0.302l-0.346,0.075l-0.146,0.036l-0.293,0.074
				c-0.191,0.062-0.4,0.094-0.617,0.114c-0.856,0.108-1.744,0.268-2.741,0.259c-1.811,0.109-3.899-0.104-6.097-0.435
				c-1.102-0.229-2.235-0.398-3.382-0.73c-0.573-0.152-1.155-0.282-1.734-0.459c-0.579-0.185-1.161-0.369-1.746-0.555
				c-4.681-1.505-9.336-3.815-13.352-6.171c-4.022-2.365-7.38-4.854-9.708-6.728c-1.155-0.947-2.088-1.71-2.689-2.276
				c-0.617-0.554-0.956-0.856-0.956-0.856s-0.421-0.348-1.107-1.042c-0.692-0.688-1.726-1.657-2.881-2.945
				c-2.325-2.543-5.4-6.24-7.701-10.704c-2.29-4.428-3.746-9.666-2.865-14.094c0.048-0.274,0.061-0.561,0.134-0.826l0.233-0.794
				c0.164-0.525,0.254-1.048,0.509-1.568c0.223-0.518,0.418-1.043,0.643-1.531c0.25-0.464,0.495-0.918,0.735-1.363
				c1.033-1.707,2.226-2.943,3.364-3.812c2.069-1.483,4.018-1.985,5.551-2.243c1.537-0.266,2.687-0.242,3.549-0.243
				c2.566,0.037,4.971,0.405,7.225,0.803c2.259,0.407,4.382,0.884,6.479,1.361C104.079,330.346,108.203,331.291,113.097,332.893z"/>
		</g>
	</g>
</g>
<g>
	<g>
		<g>
			<path d="M221.097,402.226c2.433-0.841,4.714-1.35,6.894-1.94c2.197-0.566,4.308-1.148,6.454-1.834
				c4.287-1.374,8.713-3.148,14.084-6.028c1.805-1.006,4.797-2.534,10.762-6.232c5.089-3.169,11.798-7.706,18.465-13.402
				c6.688-5.659,13.315-12.466,18.627-19.373c1.28-1.764,2.553-3.474,3.743-5.154c1.125-1.729,2.213-3.397,3.25-4.989
				c0.949-1.646,1.854-3.215,2.699-4.683c0.862-1.46,1.503-2.91,2.174-4.189c1.352-2.557,2.221-4.733,2.874-6.219
				c0.644-1.488,1.001-2.312,1.001-2.312s0.085-0.171,0.203-0.51c0.124-0.337,0.308-0.834,0.544-1.477
				c0.456-1.289,1.195-3.135,1.967-5.475c0.357-1.18,0.749-2.473,1.171-3.863c0.21-0.696,0.429-1.417,0.652-2.16
				c0.202-0.749,0.374-1.529,0.57-2.326c0.383-1.596,0.786-3.273,1.204-5.021c0.318-1.767,0.65-3.599,0.992-5.48
				c1.236-7.525,2.027-16.051,2.051-24.141c0.153-4.058-0.014-8.064-0.041-11.871c-0.065-1.904-0.188-3.76-0.271-5.549
				c-0.047-0.896-0.093-1.773-0.138-2.635c-0.059-0.857-0.146-1.698-0.216-2.52c-0.229-2.328-0.354-4.438-0.617-6.33
				c-0.244-1.895-0.462-3.578-0.653-5.065c-0.468-2.968-0.854-5.146-1.114-6.644c-1.199-6.035-2.759-10.662-4.733-14.832
				c-0.52-1.037-1.034-2.051-1.591-3.048c-0.589-0.989-1.172-1.972-1.812-2.943c-1.305-1.93-2.738-3.882-4.525-5.753
				c0.698,2.479,1.071,4.778,1.457,6.979c0.345,2.197,0.676,4.317,1.015,6.488c0.649,4.332,1.442,8.812,2.524,14.546
				c0.231,1.428,0.568,3.506,1.026,6.329c0.181,1.424,0.384,3.034,0.613,4.846c0.251,1.807,0.363,3.841,0.585,6.071
				c0.063,0.788,0.149,1.595,0.206,2.42c0.043,0.829,0.086,1.677,0.13,2.537c0.082,1.727,0.196,3.512,0.262,5.35
				c0.024,3.682,0.191,7.547,0.04,11.483c-0.019,7.909-0.766,15.846-1.923,22.985c-0.318,1.775-0.629,3.501-0.927,5.165
				c-0.395,1.641-0.771,3.218-1.128,4.717c-0.186,0.749-0.345,1.483-0.531,2.188c-0.21,0.694-0.414,1.372-0.61,2.021
				c-0.393,1.305-0.757,2.519-1.09,3.621c-0.719,2.189-1.41,3.913-1.832,5.12c-0.22,0.601-0.39,1.066-0.505,1.382
				c-0.109,0.317-0.188,0.477-0.188,0.477s-0.336,0.77-0.938,2.155c-0.612,1.383-1.422,3.418-2.689,5.797
				c-0.629,1.19-1.222,2.547-2.028,3.903c-0.791,1.368-1.634,2.828-2.521,4.362c-0.97,1.481-1.985,3.039-3.037,4.647
				c-1.132,1.557-2.302,3.163-3.498,4.809c-4.969,6.444-11.183,12.821-17.498,18.166c-6.292,5.377-12.675,9.702-17.54,12.746
				c-5.704,3.548-8.599,5.043-10.33,6.029c-5.164,2.837-9.178,5.194-12.878,7.742c-1.85,1.271-3.627,2.589-5.423,4.023
				C224.721,398.794,222.863,400.332,221.097,402.226z"/>
		</g>
	</g>
</g>
<g>
	<g>
		<g>
			<path d="M242.431,140.894c2.153,3.566,3.544,5.69,7.003,7.472c1.866,0.963,7.487,3.899,12.209,7.142
				c1.207,0.776,2.302,1.627,3.352,2.372c1.021,0.772,1.925,1.516,2.711,2.129c1.483,1.3,2.44,2.138,2.44,2.138
				s0.89,0.896,2.27,2.277c0.68,0.76,1.48,1.655,2.353,2.629c0.876,0.97,1.827,2.017,2.725,3.161
				c3.777,4.411,7.365,9.67,8.604,11.377c2.201,3.227,4.518,4.309,8.335,5.97c0.499-4.152,0.339-6.884-1.875-10.343
				c-1.249-1.84-5.021-7.364-9.033-12.03c-0.953-1.203-1.967-2.314-2.903-3.346c-0.934-1.032-1.79-1.98-2.518-2.785
				c-1.573-1.595-2.633-2.613-2.633-2.613s-1.081-0.958-2.756-2.439c-0.868-0.688-1.878-1.522-3.005-2.382
				c-1.146-0.823-2.359-1.767-3.661-2.611c-5.134-3.539-11.093-6.646-13.107-7.61C249.223,139.62,246.477,139.849,242.431,140.894z"
				/>
		</g>
	</g>
</g>
<g>
	<g>
		<g>
			<path d="M270.431,209.56c4.382-2.719,8.049-4.935,11.71-7.469c3.671-2.514,7.328-5.372,11.884-8.986
				c0.773-0.605,1.79-1.408,3.285-2.5c1.488-1.066,3.493-2.527,6.149-3.931c0.465-0.227,1.233-0.603,1.835-0.832
				c0.613-0.246,1.011-0.339,1.011-0.339c-0.017,0,0.135-0.03,0.167-0.03c-0.029,0.007-0.021,0.011-0.023,0.015
				c-0.005,0.013-0.015,0.011-0.021,0.01c-0.001-0.011-0.005-0.025-0.006-0.016c0.074,0.525,0.036,1.296-0.048,2.025
				c-0.176,1.494-0.544,2.975-0.905,4.267c-0.742,2.604-1.492,4.556-1.988,5.88c-2.079,5.385-3.782,9.695-5.149,13.918
				c-1.394,4.223-2.496,8.358-3.898,13.319c3.569-3.729,6.401-7.027,9.016-10.752c2.591-3.743,5.008-7.889,7.308-13.667
				c0.555-1.44,1.376-3.521,2.254-6.56c0.429-1.531,0.891-3.28,1.161-5.496c0.119-1.123,0.229-2.334,0.049-3.873
				c-0.22-2.048-1.125-4.187-2.892-5.548c-0.487-0.418-1.187-0.769-1.931-1.032c-0.759-0.244-1.579-0.372-2.336-0.368
				c-0.755-0.005-1.422,0.083-1.932,0.18c-0.448,0.083-0.587,0.125-0.603,0.13c0,0-0.996,0.217-1.992,0.597
				c-1.018,0.369-2.07,0.877-2.675,1.2c-3.417,1.816-5.52,3.398-7.173,4.587c-1.631,1.198-2.705,2.058-3.521,2.713
				c-4.796,3.886-8.083,7.364-10.932,10.904C275.402,201.462,273.031,205.099,270.431,209.56z"/>
		</g>
	</g>
</g>
<g>
	<g>
		<g>
			<path d="M181.097,218.227c0.013,2.071,0.269,3.801,0.86,5.374c0.603,1.57,1.558,3.007,3.192,4.411
				c0.879,0.762,2.701,2.245,5.219,3.75c2.503,1.505,5.807,2.964,9.312,3.569c1.746,0.309,3.52,0.362,5.148,0.271
				c0.813-0.085,1.599-0.141,2.32-0.304c0.362-0.071,0.714-0.143,1.053-0.208c0.331-0.094,0.65-0.186,0.955-0.271
				c0.305-0.089,0.596-0.174,0.871-0.255c0.267-0.102,0.519-0.198,0.755-0.288c0.469-0.187,0.888-0.332,1.208-0.485
				c0.639-0.312,0.999-0.488,0.999-0.488s0.09-0.044,0.26-0.127c0.171-0.082,0.422-0.202,0.723-0.388
				c0.611-0.356,1.493-0.859,2.501-1.621c1.014-0.741,2.139-1.746,3.233-2.973c1.086-1.235,2.087-2.729,2.901-4.341
				c1.632-3.246,2.297-6.899,2.417-9.862c0.133-2.979-0.18-5.336-0.349-6.5c-0.332-2.15-1.049-3.735-2.084-5.072
				c-1.039-1.331-2.389-2.451-4.161-3.523c-0.55,1.98-1.095,3.508-1.369,4.996c-0.283,1.486-0.329,2.919-0.114,4.666
				c0.109,0.942,0.338,2.847,0.229,5.069c-0.094,2.221-0.589,4.722-1.603,6.742c-0.998,2.028-2.474,3.586-3.791,4.539
				c-0.64,0.495-1.237,0.837-1.646,1.08c-0.2,0.133-0.368,0.209-0.48,0.264c-0.113,0.055-0.173,0.084-0.173,0.084
				s-0.239,0.117-0.665,0.322c-0.212,0.105-0.481,0.187-0.784,0.309c-0.152,0.059-0.314,0.122-0.485,0.188
				c-0.175,0.05-0.359,0.101-0.552,0.152c-0.192,0.055-0.393,0.113-0.601,0.173c-0.212,0.039-0.432,0.079-0.657,0.12
				c-0.448,0.111-0.938,0.125-1.441,0.188c-1.017,0.044-2.127,0.02-3.274-0.188c-2.296-0.401-4.704-1.426-6.653-2.595
				c-1.955-1.161-3.473-2.364-4.218-2.978c-1.389-1.118-2.635-1.85-4.061-2.383C184.671,219.098,183.078,218.77,181.097,218.227z"/>
		</g>
	</g>
</g>
<g>
	<g>
		<g>
			<path d="M246.431,191.56c0.232,3.326,1.058,5.453,3.675,6.823c0.709,0.374,2.181,1.045,4.076,1.675
				c1.911,0.582,4.237,1.189,6.597,1.274c0.579,0.064,1.164,0.053,1.734,0.036c0.57-0.02,1.126-0.021,1.66-0.06
				c1.065-0.156,2.054-0.254,2.871-0.45c0.812-0.223,1.481-0.405,1.946-0.535c0.469-0.117,0.713-0.234,0.713-0.234
				s1.009-0.394,2.544-1.072c0.743-0.431,1.621-0.914,2.553-1.52c0.896-0.752,1.925-1.426,2.779-2.518
				c0.92-0.966,1.663-2.227,2.243-3.472c0.244-0.647,0.514-1.288,0.681-1.923c0.137-0.641,0.258-1.267,0.361-1.864
				c0.24-2.389-0.084-4.218-0.275-5.087c-0.354-1.629-1.12-2.718-2.152-3.505c-1.026-0.783-2.367-1.291-4.006-1.572
				c-0.484,1.589-0.992,2.737-1.282,3.763c-0.29,1.02-0.363,1.886-0.211,2.837c0.1,0.52,0.227,1.541,0.127,2.625
				c-0.135,1.074-0.577,2.119-1.403,3.041c-0.324,0.5-0.96,0.859-1.388,1.278c-0.574,0.346-1.102,0.665-1.55,0.937
				c-0.999,0.429-1.643,0.703-1.643,0.703c0.012,0.041-0.672,0.188-1.71,0.48c-0.525,0.126-1.168,0.161-1.853,0.28
				c-0.35,0.021-0.719,0.011-1.094,0.021c-0.375,0.014-0.76,0.029-1.157-0.026c-1.578-0.045-3.256-0.5-4.663-0.913
				c-1.406-0.466-2.546-0.959-3.107-1.229c-1.047-0.467-1.998-0.604-3.096-0.517C249.297,190.929,248.06,191.263,246.431,191.56z"/>
		</g>
	</g>
</g>
<g>
	<g>
		<g>
			<path d="M215.097,280.893c-3.146,4.107-5.212,8.154-6.379,12.86c-0.562,2.357-0.858,4.922-0.608,7.778
				c0.255,2.835,1.042,6.046,3.019,9.162c0.167,0.264,0.347,0.545,0.543,0.854c0.222,0.291,0.461,0.604,0.722,0.947
				c0.503,0.701,1.212,1.408,2.03,2.259c1.698,1.617,4.2,3.493,7.835,5.007c0.349,0.146,0.947,0.368,1.459,0.551
				c0.511,0.186,0.941,0.319,0.941,0.319s0.617,0.188,1.297,0.395c0.393,0.109,0.804,0.227,1.151,0.321
				c2.293,0.459,4.571,0.732,6.753,0.544c2.166-0.164,4.194-0.611,5.912-1.294c3.479-1.321,5.778-3.153,7.189-4.372
				c2.615-2.299,4.404-4.728,5.778-7.056c1.367-2.339,2.312-4.609,3.034-6.855c1.404-4.498,2.004-8.917,1.99-14.088
				c-2.399,4.554-4.748,8.063-7.147,11.605c-1.214,1.76-2.464,3.516-3.87,5.291c-1.408,1.767-2.978,3.562-4.888,5.2
				c-1.03,0.882-2.646,2.118-4.84,2.936c-2.175,0.871-4.973,1.117-8.158,0.431c-0.25-0.07-0.544-0.153-0.825-0.231
				c-0.495-0.125-0.945-0.238-0.945-0.238s-0.315-0.123-0.699-0.278c-0.384-0.155-0.836-0.33-1.111-0.418
				c-2.716-1.134-4.344-2.396-5.453-3.431c-0.514-0.554-0.989-0.987-1.297-1.438c-0.169-0.213-0.324-0.41-0.467-0.591
				c-0.124-0.195-0.238-0.374-0.344-0.54c-1.271-1.94-1.967-4.005-2.456-6.051c-0.486-2.05-0.725-4.099-0.848-6.162
				C214.204,290.176,214.245,285.964,215.097,280.893z"/>
		</g>
	</g>
</g>
<g>
	<g>
		<g>
			<path d="M71.765,328.893c-1.062-4.247-1.656-8.164-2.218-11.922c-0.547-3.76-0.973-7.375-1.47-11.036
				c-0.889-7.352-1.959-14.933-3.079-24.646c-0.127-1.318-0.285-2.969-0.471-4.899c-0.154-1.936-0.263-4.162-0.421-6.622
				c-0.028-1.232-0.059-2.526-0.091-3.873c-0.039-1.347-0.073-2.747-0.03-4.197c0.013-0.871,0.025-1.75,0.038-2.636
				c0.019-1.077,0.012-2.164,0.091-3.257c0.138-2.186,0.199-4.409,0.398-6.656c0.229-2.244,0.402-4.522,0.678-6.822
				c0.319-2.296,0.644-4.617,0.971-6.969c2.965-18.765,9.542-38.689,19.135-57.903c4.82-9.604,10.476-18.965,16.547-28.092
				c6.143-9.125,12.815-17.867,19.834-26.11c14.015-16.506,30.034-30.5,46.522-40.435c8.254-4.939,16.607-8.847,24.722-11.725
				c8.107-2.917,16.01-4.645,23.279-5.577c3.639-0.434,7.122-0.643,10.396-0.663c3.261-0.018,6.364,0.182,9,0.576
				c0.337,0.045,0.652,0.096,0.93,0.155c0.294,0.054,0.603,0.108,0.746,0.152l0.14,0.032l0.07,0.015l-0.093-0.023
				c0.033-0.231,0.133-0.644,0.209-0.95c0.337-1.328,0.817-2.614,1.433-3.838c-0.879,2.2,2.627-6.217-1.829,4.712l0.065,0.026
				l0.131,0.051c0.231,0.104,1.528,0.539,1.676,0.572c1.456,0.439,2.656,0.81,3.843,1.216c2.346,0.797,4.393,1.647,6.172,2.493
				c3.535,1.718,5.951,3.391,7.408,4.623c1.455,1.236,2.092,1.96,2.093,1.959c0,0,0.17,0.175,0.501,0.514
				c0.281,0.364,0.752,0.878,1.269,1.59c1.056,1.419,2.328,3.601,2.913,6.771c0.666,3.135,0.322,7.466-1.415,12.581
				c-0.194,0.639-0.505,1.283-0.754,1.942c-0.284,0.656-0.485,1.334-0.842,2.005c-0.684,1.345-1.266,2.753-2.118,4.152
				c-0.398,0.706-0.803,1.421-1.212,2.145c-0.424,0.723-0.915,1.435-1.377,2.165c-0.474,0.732-0.954,1.476-1.439,2.227
				c-0.536,0.775-1.078,1.562-1.626,2.357c-2.19,3.184-4.521,6.461-6.984,9.796c-2.463,3.338-5.079,6.721-7.872,10.012
				c-1.402,1.629-2.84,3.26-4.335,4.776c-1.485,1.549-3.035,2.971-4.589,4.197c-1.55,1.222-3.12,2.195-4.472,2.713
				c-1.371,0.478-2.352,0.604-3.882,0.35c-1.509-0.229-3.624-1.018-6.067-1.917l-1.899-0.688l-0.996-0.343
				c-0.13-0.052-0.406-0.126-0.662-0.194l-0.766-0.195l-0.77-0.186c-0.264-0.062-0.518-0.117-0.719-0.136l-1.302-0.165
				c-0.904-0.13-1.661-0.137-2.457-0.17c-3.139-0.088-6.023,0.113-8.862,0.461c-2.854,0.315-5.631,0.81-8.413,1.344
				c-11.076,2.225-21.933,5.772-32.562,10.287c-5.314,2.252-10.543,4.805-15.648,7.638c-5.102,2.836-10.117,5.896-14.893,9.346
				c-4.774,3.44-9.417,7.104-13.713,11.175c-4.285,4.075-8.342,8.4-11.953,13.083c-3.568,4.711-6.82,9.647-9.49,14.868
				c-0.702,1.281-1.257,2.643-1.887,3.956l-0.913,1.982c-0.288,0.659-0.512,1.31-0.771,1.961c-0.998,2.609-1.99,5.202-2.975,7.776
				c-0.53,1.272-0.875,2.607-1.295,3.911c-0.403,1.309-0.806,2.61-1.206,3.91c-0.396,1.299-0.791,2.593-1.185,3.882
				c-0.314,1.311-0.628,2.613-0.94,3.915c-0.311,1.299-0.62,2.593-0.929,3.88l-0.459,1.927c-0.137,0.645-0.235,1.294-0.354,1.939
				c-0.426,2.429-0.848,4.833-1.265,7.21c-2.128,13.896-1.887,25.491-1.562,31.225c0.044,0.878,0.087,1.741,0.129,2.588
				c0.051,0.847,0.16,1.677,0.242,2.494c0.179,1.633,0.364,3.21,0.568,4.737c0.543,3.044,1.036,5.896,1.799,8.593
				c0.682,2.702,1.547,5.252,2.477,7.719c1.16,3.211,1.521,2.935,2.485,4.417c0.045,0.047,0.04,0.075,0.018,0.099l-0.041,0.077
				l-0.091,0.162l-0.215,0.35c-0.157,0.24-0.344,0.506-0.564,0.793l-0.355,0.447l-0.198,0.238l-0.356,0.333
				c-0.485,0.454-0.975,0.911-1.468,1.372C75.902,324.874,73.887,326.82,71.765,328.893c2.846-0.837,5.529-1.643,8.108-2.452
				c2.117-0.562,6.16-2.217,9.91-3.954c-0.645-3.277-1.637-8.316-1.604-9.981c-0.166-2.423-0.378-4.869-0.524-7.435
				c-0.227-2.545-0.301-5.221-0.546-8.027c-0.055-1.415-0.123-2.869-0.215-4.37c-0.038-0.751-0.111-1.511-0.135-2.29
				c-0.022-0.778-0.046-1.57-0.069-2.376c-0.248-5.253-0.445-15.896,1.521-28.656c0.385-2.183,0.773-4.392,1.166-6.622
				c0.108-0.592,0.196-1.188,0.322-1.782l0.427-1.77c0.283-1.183,0.568-2.372,0.855-3.565c0.285-1.192,0.571-2.394,0.859-3.599
				c0.363-1.185,0.729-2.375,1.096-3.569c0.368-1.192,0.737-2.393,1.108-3.597c0.387-1.199,0.695-2.428,1.189-3.601
				c0.908-2.372,1.822-4.762,2.742-7.163c0.234-0.597,0.448-1.22,0.7-1.792l0.782-1.688c0.541-1.118,0.998-2.276,1.604-3.373
				c2.277-4.455,5.083-8.707,8.177-12.805c3.141-4.074,6.716-7.886,10.521-11.511c3.815-3.622,8-6.92,12.323-10.042
				c4.324-3.131,8.918-5.93,13.604-8.537c4.689-2.605,9.52-4.969,14.438-7.054c9.816-4.18,19.964-7.481,29.916-9.479
				c2.479-0.476,4.953-0.916,7.356-1.18c2.406-0.308,4.779-0.441,6.845-0.385c0.505,0.021,1.051,0.021,1.429,0.095l0.627,0.069
				c0.123,0.008,0.184,0.026,0.232,0.046l0.171,0.049l0.175,0.031c0.059,0.011,0.097,0.003,0.268,0.068l0.83,0.286l1.72,0.62
				c1.165,0.427,2.435,0.902,3.816,1.357c1.376,0.455,2.91,0.903,4.634,1.188c1.71,0.287,3.588,0.4,5.464,0.228
				c1.873-0.189,3.671-0.644,5.31-1.247c3.242-1.252,5.783-2.974,8.003-4.701c2.209-1.747,4.143-3.556,5.896-5.374
				c1.781-1.814,3.392-3.646,4.948-5.457c3.08-3.635,5.846-7.224,8.424-10.719c2.581-3.491,4.985-6.886,7.235-10.154
				c0.562-0.817,1.118-1.625,1.668-2.427c0.555-0.854,1.103-1.7,1.645-2.535c0.536-0.851,1.089-1.661,1.59-2.513
				c0.487-0.86,0.97-1.713,1.445-2.552c0.987-1.644,1.757-3.424,2.579-5.078c0.423-0.815,0.723-1.723,1.078-2.562
				c0.329-0.86,0.7-1.67,0.974-2.536c0.53-1.742,1.123-3.371,1.446-5.097c0.177-0.853,0.392-1.664,0.516-2.506
				c0.106-0.848,0.212-1.679,0.314-2.492c0.126-0.806,0.119-1.64,0.146-2.44c0.003-0.808,0.072-1.583,0.007-2.366
				c-0.118-1.562-0.198-3.049-0.519-4.462c-0.471-2.834-1.438-5.271-2.345-7.305c-0.489-1-1.009-1.89-1.463-2.712
				c-0.498-0.788-0.985-1.478-1.411-2.103c-0.883-1.214-1.641-2.058-2.126-2.649c-0.521-0.544-0.789-0.825-0.789-0.825
				s-0.27-0.279-0.794-0.82c-0.526-0.538-1.354-1.26-2.436-2.202c-2.184-1.842-5.587-4.174-10.128-6.371
				c-2.27-1.082-4.825-2.139-7.618-3.09c-1.381-0.475-2.884-0.936-4.237-1.347l-0.24-0.073c-0.001-0.001-0.003,0-0.005,0.002
				l-0.008,0.014c-0.002,0.003,0.009,0.013-0.052-0.015l-0.065-0.023c0.002-0.003-0.361,0.738-0.525,1.071l-1.243,2.602
				l-0.623,1.302c5.014-9.8,1.26-2.775,2.319-4.988c-0.306-0.133-0.619-0.255-0.937-0.362l-0.466-0.15l-0.206-0.053l-0.413-0.104
				c-0.592-0.151-1.039-0.231-1.507-0.322c-0.48-0.097-0.937-0.171-1.38-0.231c-3.595-0.538-7.218-0.748-11.057-0.737
				c-3.827,0.021-7.824,0.261-11.964,0.753c-8.257,1.049-17.111,3-26.1,6.225c-8.999,3.183-18.175,7.479-27.156,12.854
				c-17.945,10.797-35.03,25.795-49.789,43.158c-7.394,8.675-14.377,17.832-20.774,27.33c-6.365,9.557-12.322,19.414-17.422,29.571
				c-10.156,20.321-17.2,41.605-20.383,61.783c-0.352,2.528-0.699,5.027-1.042,7.497c-0.296,2.477-0.487,4.935-0.728,7.353
				c-0.213,2.421-0.284,4.819-0.428,7.179c-0.082,1.179-0.077,2.354-0.097,3.516c-0.013,0.957-0.025,1.905-0.038,2.848
				c-0.042,1.563-0.004,3.08,0.041,4.536c0.038,1.456,0.075,2.853,0.111,4.187c0.174,2.663,0.304,5.069,0.482,7.164
				c0.216,2.091,0.4,3.875,0.548,5.302c1.315,10.52,3.726,18.577,6.896,25.792c1.64,3.598,3.441,6.994,5.569,10.342
				C66.426,322.285,68.822,325.625,71.765,328.893z"/>
		</g>
	</g>
</g>
<g>
	<g>
		<g>
			<path d="M209.097,150.227c4.505-0.554,7.414-1.419,10.749-4.66c0.896-0.886,2.662-2.69,4.732-4.973
				c2.049-2.302,4.414-5.07,6.526-7.854c1.07-1.379,2.051-2.783,2.98-4.062c0.88-1.32,1.702-2.521,2.372-3.562
				c0.647-1.06,1.18-1.932,1.55-2.538c0.371-0.605,0.572-0.953,0.572-0.953s0.779-1.409,1.986-3.595
				c0.546-1.15,1.205-2.502,1.883-3.989c0.298-0.766,0.608-1.562,0.926-2.375c0.158-0.409,0.317-0.822,0.479-1.24
				c0.134-0.428,0.268-0.86,0.403-1.294c1.167-3.449,1.875-7.224,2.229-10.438c0.384-3.218,0.299-5.892,0.264-7.218
				c-0.136-2.456-0.672-4.36-1.627-6.029c-0.94-1.657-2.234-3.142-4.024-4.551c-0.583,2.181-1.237,3.824-1.623,5.48
				c-0.38,1.646-0.585,3.285-0.521,5.354c-0.006,1.122,0.059,3.379-0.278,6.114c-0.308,2.729-0.896,5.942-1.897,8.902
				c-0.113,0.373-0.227,0.742-0.339,1.109c-0.139,0.359-0.276,0.715-0.412,1.067c-0.271,0.704-0.534,1.39-0.787,2.049
				c-0.6,1.284-1.15,2.463-1.617,3.465c-1.088,1.989-1.79,3.272-1.79,3.272s-0.186,0.314-0.529,0.87
				c-0.343,0.556-0.834,1.354-1.432,2.321c-0.638,0.949-1.389,2.067-2.206,3.285c-0.872,1.188-1.784,2.49-2.789,3.777
				c-1.979,2.597-4.21,5.202-6.138,7.377c-1.951,2.157-3.609,3.877-4.435,4.738C211.22,143.233,210.365,145.882,209.097,150.227z"/>
		</g>
	</g>
</g>
<g>
	<g>
		<g>
			<path d="M182.431,151.56c4.258-0.419,7.004-1.169,10.021-4.207c1.648-1.633,6.383-6.78,10.096-12.121
				c0.967-1.298,1.785-2.684,2.594-3.916c0.785-1.253,1.423-2.476,2.004-3.479c0.563-1.02,0.945-1.921,1.247-2.521
				c0.29-0.606,0.454-0.951,0.454-0.951s0.041-0.085,0.119-0.245c0.083-0.158,0.189-0.4,0.31-0.725
				c0.248-0.638,0.604-1.555,1.039-2.669c0.43-1.115,0.758-2.537,1.194-4.032c0.193-0.749,0.306-1.504,0.469-2.292
				c0.149-0.783,0.319-1.586,0.409-2.416c0.529-3.281,0.639-6.802,0.521-9.777c-0.039-1.49-0.209-2.848-0.328-3.981
				c-0.167-1.133-0.318-2.045-0.434-2.649c-0.463-2.235-1.297-3.9-2.44-5.278c-1.178-1.358-2.649-2.501-4.609-3.407
				c-0.229,2.107-0.669,3.708-0.81,5.25c-0.184,1.553-0.137,3.028,0.192,4.873c0.074,0.503,0.186,1.259,0.324,2.196
				c0.087,0.946,0.229,2.072,0.255,3.33c0.09,2.503,0.014,5.488-0.441,8.33c-0.071,0.713-0.222,1.409-0.35,2.093
				c-0.139,0.675-0.236,1.366-0.394,1.971c-0.361,1.188-0.584,2.287-0.939,3.208c-0.354,0.922-0.645,1.68-0.847,2.208
				c-0.095,0.265-0.183,0.47-0.255,0.607c-0.066,0.138-0.102,0.211-0.102,0.211s-0.143,0.292-0.396,0.81
				c-0.266,0.515-0.581,1.272-1.08,2.16c-0.521,0.88-1.072,1.941-1.778,3.056c-0.735,1.104-1.455,2.33-2.346,3.517
				c-3.38,4.839-7.813,9.677-9.314,11.249C184.062,144.895,183.393,147.402,182.431,151.56z"/>
		</g>
	</g>
</g>
<g>
	<g>
		<g>
			<path d="M150.431,161.56c3.81-0.702,6.189-1.596,8.343-4.555c1.16-1.611,4.51-6.554,7.009-11.5
				c0.629-1.233,1.246-2.438,1.745-3.596c0.525-1.145,0.996-2.199,1.339-3.134c0.358-0.923,0.652-1.682,0.857-2.211
				c0.177-0.544,0.276-0.852,0.276-0.852s0.102-0.308,0.281-0.852c0.163-0.553,0.473-1.307,0.709-2.296
				c0.236-0.987,0.576-2.125,0.822-3.417c0.107-0.65,0.221-1.331,0.336-2.025c0.056-0.35,0.113-0.701,0.171-1.059
				c0.033-0.344,0.067-0.689,0.102-1.041c0.321-2.771,0.383-5.754,0.289-8.312c-0.123-2.568-0.491-4.729-0.747-5.809
				c-0.471-1.991-1.316-3.509-2.599-4.654c-0.635-0.571-1.363-1.048-2.186-1.415c-0.83-0.354-1.765-0.641-2.748-0.608
				c0.19,0.94,0.089,1.756,0.022,2.477c-0.094,0.703-0.181,1.354-0.265,1.989c-0.135,1.226-0.151,2.381,0.146,3.844
				c0.158,0.792,0.43,2.433,0.528,4.547c0.065,2.117,0.031,4.673-0.251,7.154c-0.029,0.31-0.058,0.615-0.086,0.918
				c-0.047,0.287-0.094,0.57-0.141,0.853c-0.09,0.562-0.177,1.107-0.261,1.635c-0.193,1.053-0.486,2.023-0.671,2.847
				c-0.186,0.826-0.464,1.495-0.597,1.968c-0.151,0.47-0.237,0.732-0.237,0.732s-0.086,0.266-0.24,0.733
				c-0.184,0.464-0.447,1.131-0.769,1.94c-0.302,0.815-0.729,1.76-1.207,2.783c-0.447,1.033-1.016,2.125-1.59,3.246
				c-2.283,4.494-5.414,9.121-6.442,10.656C150.448,155.385,150.39,157.695,150.431,161.56z"/>
		</g>
	</g>
</g>
<g>
	<g>
		<g>
			<path d="M0,550.893c8.612-5.684,14.238-9.715,22.465-18.399c1.4-1.464,3.678-3.847,8.41-8.797
				c1.907-1.948,5.031-5.351,7.791-8.103c2.745-2.773,5.012-5.062,5.012-5.062s1.908-1.906,4.345-4.341
				c1.218-1.218,2.568-2.567,3.878-3.877c1.356-1.272,2.672-2.507,3.767-3.534c6.659-6.264,10.781-10.141,12.934-12.166
				c8.649-8.258,12.776-13.783,18.496-22.388c-9.062,4.908-15.046,8.477-23.821,16.688c-2.169,2.028-6.322,5.912-13.033,12.188
				c-1.101,1.031-2.423,2.271-3.786,3.55c-1.323,1.331-2.687,2.703-3.916,3.941c-2.455,2.479-4.378,4.423-4.378,4.423
				s-2.31,2.308-5.107,5.102c-2.814,2.784-5.94,6.172-7.846,8.154c-4.738,4.993-7.018,7.395-8.419,8.871
				C8.619,535.943,4.946,541.835,0,550.893z"/>
		</g>
	</g>
</g>
<g>
	<g>
		<g>
			<path d="M196.43,480.14c-4.151-1.379-7.67-3.157-10.895-4.979c-3.219-1.835-6.11-3.803-8.854-5.924
				c-2.729-2.146-5.315-4.443-7.771-7.144c-1.221-1.354-2.441-2.779-3.577-4.378c-1.148-1.586-2.281-3.292-3.305-5.212
				c-0.36-0.603-0.774-1.479-1.271-2.48c-0.483-1.011-1.118-2.159-1.713-3.581c-0.627-1.409-1.365-3.033-2.087-4.975
				c-0.189-0.482-0.386-0.982-0.588-1.5c-0.181-0.523-0.367-1.066-0.561-1.628c-0.389-1.122-0.806-2.32-1.165-3.621
				c-0.941-3.108-1.807-6.729-2.349-10.41l-0.178-1.379l-0.144-1.286c-0.066-0.521-0.108-1.048-0.122-1.577
				c-0.049-1.056-0.098-2.107-0.146-3.16l-0.036-0.785l0.028-0.852l0.067-1.704c0.094-2.295,0.186-4.565,0.276-6.8
				c0.045-1.091,0.089-2.172,0.133-3.241l0.032-0.778c0.048-0.204-0.09-0.075-0.177-0.042l-0.279,0.139
				c-0.372,0.184-0.741,0.366-1.109,0.549c-4.183,2.086-8.345,4.028-12.699,6.339c-1.081,0.583-2.166,1.167-3.252,1.752
				l-2.789,1.545c-1.102,0.632-2.207,1.264-3.312,1.896c-4.408,2.562-8.778,5.263-13.002,8.086
				c-8.439,5.652-16.332,11.736-22.592,18.379c-3.119,3.326-5.836,6.812-7.853,10.535c-2.018,3.693-3.275,7.757-3.36,11.499
				c-0.043,1.859,0.155,3.576,0.496,5.039c0.165,0.717,0.393,1.417,0.562,1.971c0.137,0.396,0.261,0.759,0.373,1.083
				c0.449,1.301,0.692,2.003,0.692,2.003s0.334,0.962,0.941,2.711c0.609,1.751,1.521,4.297,2.697,7.453
				c2.384,6.303,5.877,15.063,10.82,24.544c4.933,9.459,11.397,19.661,19.55,28.34c4.061,4.334,8.534,8.267,13.223,11.499
				c4.681,3.244,9.57,5.764,14.219,7.543c4.042,1.623,7.91,2.494,11.377,3.204c1.746,0.29,3.406,0.488,4.968,0.707
				c1.494,0.1,2.899,0.193,4.217,0.281c1.317,0.084,2.547,0.163,3.692,0.233c1.139,0.11,2.229,0.019,3.216,0.032
				c1.983-0.023,3.637-0.046,4.982-0.062c10.923-0.478,19.653-3.308,26.722-7.774c0.877-0.577,1.75-1.125,2.583-1.734
				c0.814-0.652,1.612-1.312,2.396-1.974c0.8-0.632,1.519-1.391,2.235-2.132c0.712-0.748,1.44-1.457,2.068-2.302
				c1.316-1.603,2.507-3.328,3.529-5.193c0.246-0.468,0.494-0.939,0.743-1.415c0.231-0.484,0.438-0.988,0.653-1.481
				c0.418-0.991,0.775-2.037,1.026-3.104c-0.724,0.826-1.488,1.547-2.28,2.206c-0.401,0.325-0.782,0.651-1.178,0.954
				c-0.407,0.29-0.811,0.577-1.211,0.861c-1.605,1.108-3.229,2.031-4.852,2.834c-0.774,0.439-1.633,0.757-2.438,1.109
				c-0.811,0.35-1.586,0.714-2.433,0.971l-2.437,0.865c-0.826,0.254-1.677,0.461-2.502,0.705c-1.62,0.545-3.388,0.815-5.106,1.243
				c-0.849,0.239-1.769,0.344-2.681,0.494c-0.913,0.146-1.834,0.31-2.767,0.482c-1.901,0.253-3.902,0.432-5.965,0.729
				c-2.125,0.079-4.32,0.292-6.671,0.404c-1.173,0.005-2.613,0.011-4.341,0.018c-0.867-0.021-1.793,0.072-2.816-0.037
				c-1.02-0.07-2.113-0.146-3.285-0.227c-1.171-0.079-2.419-0.163-3.746-0.253c-1.237-0.188-2.558-0.345-3.941-0.569
				c-2.737-0.582-5.786-1.245-8.979-2.545c-3.675-1.415-7.574-3.414-11.402-6.067c-3.833-2.643-7.589-5.924-11.085-9.649
				c-7.02-7.45-12.917-16.638-17.48-25.371c-4.579-8.748-7.909-17.033-10.196-23.051c-2.259-6.035-3.535-9.818-3.535-9.818
				s-0.238-0.693-0.68-1.979c-0.11-0.32-0.233-0.682-0.368-1.074c-0.062-0.25-0.127-0.418-0.184-0.659
				c-0.104-0.458-0.162-0.996-0.154-1.651c0.028-1.298,0.5-3.221,1.781-5.568c1.265-2.344,3.287-5.021,5.858-7.742
				c5.153-5.478,12.392-11.125,20.302-16.397c3.961-2.643,8.106-5.2,12.301-7.636c1.054-0.602,2.104-1.202,3.153-1.801l0.396-0.224
				c0.095-0.053,0.063-0.034,0.067-0.036l-0.003,0.002l-0.007,0.004l-0.012,0.008l-0.049,0.023
				c-0.002-0.009,0.001-0.025-0.001-0.042l-0.001-0.021l-0.003-0.022c0.004,0.026-0.021-0.165,0.031,0.244l0.22,1.668
				c0.655,4.415,1.678,8.646,2.775,12.246c0.424,1.512,0.901,2.893,1.352,4.184c0.225,0.646,0.441,1.271,0.651,1.872
				c0.232,0.593,0.456,1.163,0.673,1.717c0.837,2.223,1.677,4.063,2.396,5.663c0.688,1.613,1.4,2.903,1.956,4.045
				c0.574,1.134,1.019,2.06,1.543,2.94c2.848,5.106,6.396,9.104,10.097,12.148c3.711,3.059,7.595,5.177,11.482,6.687
				c3.905,1.484,7.834,2.368,11.874,2.757C187.919,480.905,192.09,480.872,196.43,480.14z"/>
		</g>
	</g>
</g>
<g>
	<g>
		<g>
			<path d="M198.431,480.228c2.11-0.618,4.095-1.474,5.959-2.422c0.945-0.465,1.835-0.987,2.736-1.497
				c0.863-0.548,1.754-1.072,2.58-1.659c3.337-2.317,6.375-4.972,9.04-8.116c2.661-3.142,5.07-6.704,7.082-10.87
				c0.512-1.035,0.937-2.132,1.407-3.239c0.228-0.562,0.467-1.114,0.685-1.701c0.2-0.604,0.403-1.213,0.608-1.83
				c0.427-1.234,0.712-2.525,1.055-3.844c0.268-1.324,0.569-2.688,0.747-4.089c0.299-1.899,0.557-4.397,0.694-7.975
				c0.139-3.559,0.012-8.242-0.422-14.112c-0.119-1.787-0.261-3.688-0.334-5.563c-0.024-0.479-0.034-0.938-0.037-1.393l-0.01-0.69
				l0.018-0.643c0-0.454,0.038-0.827,0.069-1.205l0.02-0.279l0.003-0.02l0.006-0.039c-0.001,0.017-0.013,0.034-0.032,0.035
				c-0.012,0.019-0.11-0.052,0.731,0.125c0.834,0.147,1.843,0.438,2.87,0.765c2.154,0.675,4.109,1.553,6.131,2.617
				c2.004,1.044,3.932,2.347,5.782,3.763c3.714,2.833,7.003,6.326,9.795,9.965c2.76,3.677,5.016,7.516,6.756,11.171
				c1.729,3.664,2.977,7.127,3.821,10.093c0.831,2.972,1.378,5.416,1.648,7.125c0.318,1.701,0.414,2.656,0.414,2.656
				s0.025,0.199,0.074,0.579c0.038,0.382,0.144,0.939,0.191,1.668c0.054,0.729,0.146,1.617,0.211,2.655
				c0.019,1.038,0.13,2.223,0.098,3.534c0.044,2.625-0.163,5.758-0.641,9.216c-0.487,3.482-1.332,7.146-2.624,11.249
				c-2.513,8.087-6.387,16.816-11.198,24.472c-2.394,3.829-5.054,7.347-7.785,10.337c-2.721,3.004-5.585,5.394-8.187,6.9
				c-2.603,1.571-4.835,2.037-6.464,2.017c-1.637-0.017-2.896-0.65-4.142-1.516c-0.298-0.255-0.593-0.49-0.886-0.712
				c-0.281-0.269-0.544-0.567-0.809-0.826c-0.134-0.132-0.264-0.261-0.393-0.388c-0.119-0.154-0.236-0.309-0.352-0.455
				c-0.233-0.293-0.459-0.576-0.675-0.849l-0.163-0.197l-0.177-0.261c-0.118-0.173-0.233-0.342-0.346-0.508
				c-0.226-0.33-0.44-0.646-0.646-0.947c-0.412-0.602-0.785-1.146-1.119-1.633c-2.621-4.013-4.915-7.646-6.942-11.119
				c-2.084-3.438-3.94-6.688-5.81-9.869c-1.857-3.188-3.654-6.343-5.514-9.661C202.121,487.709,200.227,484.221,198.431,480.228
				c-0.287,4.382-0.181,8.479,0.146,12.422c0.35,3.941,0.919,7.759,1.839,11.607c0.93,3.844,2.136,7.751,3.876,11.823
				c1.682,4.102,3.941,8.35,6.849,12.892c0.372,0.554,0.787,1.172,1.246,1.854c0.229,0.341,0.471,0.698,0.724,1.073
				c0.126,0.188,0.255,0.378,0.387,0.573c0.119,0.187,0.278,0.4,0.467,0.639c0.358,0.458,0.731,0.937,1.12,1.431
				c0.196,0.247,0.396,0.498,0.601,0.756c0.236,0.247,0.478,0.5,0.723,0.757c0.499,0.51,0.995,1.044,1.562,1.573
				c0.611,0.513,1.253,1.034,1.923,1.565c0.677,0.527,1.507,0.99,2.307,1.489c0.796,0.509,1.782,0.867,2.725,1.294
				c0.963,0.402,2.05,0.644,3.129,0.94c1.102,0.169,2.264,0.375,3.429,0.396c4.719,0.141,9.539-1.354,13.61-3.798
				c4.175-2.43,7.939-5.697,11.326-9.412c3.397-3.716,6.502-7.864,9.25-12.261c5.511-8.789,9.785-18.491,12.617-27.629
				c1.418-4.5,2.508-9.175,3.073-13.341c0.574-4.189,0.804-7.979,0.751-11.14c0.028-1.583-0.094-3.005-0.128-4.255
				c-0.078-1.247-0.188-2.315-0.259-3.188c-0.064-0.875-0.185-1.546-0.233-2.003c-0.059-0.454-0.09-0.692-0.09-0.692
				s-0.116-1.146-0.488-3.187c-0.326-2.047-0.965-4.977-1.957-8.527c-1.006-3.548-2.484-7.69-4.554-12.091
				c-2.08-4.395-4.785-9.028-8.159-13.528c-3.412-4.468-7.482-8.819-12.271-12.489c-4.722-3.688-10.284-6.702-15.94-8.516
				c-1.433-0.455-2.887-0.884-4.541-1.19l-0.602-0.119c-0.206-0.038-0.53-0.07-0.79-0.104c-0.551-0.062-1.102-0.11-1.649-0.146
				l-0.41-0.023l-0.461,0.026l-0.921,0.054c-0.608,0.056-1.236,0.017-1.815,0.18c-0.588,0.126-1.171,0.271-1.741,0.434
				c-0.541,0.234-1.081,0.472-1.618,0.704c-1.04,0.536-2,1.213-2.784,2.061c-0.432,0.386-0.732,0.882-1.081,1.333
				c-0.165,0.229-0.348,0.451-0.498,0.69l-0.403,0.757c-0.574,0.986-0.833,2.123-1.203,3.188c-0.128,0.54-0.231,1.085-0.323,1.629
				l-0.123,0.814l-0.05,0.558c-0.064,0.736-0.119,1.463-0.122,2.101c-0.008,0.327-0.016,0.654-0.022,0.979
				c0.004,0.306,0.008,0.609,0.012,0.911c0.006,0.609,0.021,1.194,0.049,1.742c0.092,2.238,0.246,4.193,0.368,5.962
				c0.431,5.769,0.53,9.736,0.428,12.766c-0.107,3.009-0.301,5.031-0.526,6.543c-0.128,1.129-0.346,2.19-0.509,3.244
				c-0.233,1.025-0.388,2.055-0.653,3.014c-0.119,0.486-0.236,0.967-0.352,1.44c-0.145,0.483-0.288,0.965-0.429,1.438
				c-0.294,0.948-0.525,1.903-0.826,2.812c-1.164,3.646-2.458,6.953-3.852,10.19c-1.398,3.239-3.012,6.334-4.914,9.506
				c-0.468,0.802-0.997,1.562-1.507,2.378c-0.543,0.772-1.082,1.593-1.681,2.377C201.299,477.098,199.998,478.698,198.431,480.228z"
				/>
		</g>
	</g>
</g>
<g>
	<g>
		<g>
			<path d="M338.43,582.893c-2.612,2.562-4.046,4.316-4.256,7.518c-0.227,3.47-0.974,20.854-0.974,20.854s-0.876,17.38-0.976,20.854
				c-0.09,3.208,1.175,5.089,3.537,7.884c2.613-2.562,4.045-4.315,4.256-7.52c0.229-3.468,0.976-20.854,0.976-20.854
				s0.877-17.381,0.974-20.854C342.056,587.567,340.793,585.687,338.43,582.893z"/>
		</g>
	</g>
</g>
<g>
	<g>
		<g>
			<path d="M393.764,640c2.729-9.952,4.239-16.72,4.585-28.698c0.312-12.821,1.168-48.336,1.984-82.146
				c0.51-21.557,1.007-42.568,1.398-59.15c0.193-8.292,0.362-15.477,0.493-21.064c0.018-0.681,0.031-1.338,0.047-1.97v0.004
				l-0.006,0.001c1.76-0.649,3.102-1.146,3.971-1.465c22.029-8.119,24.407-8.996,24.407-8.996s0.812-0.298,4.78-1.76
				c1.985-0.731,4.759-1.755,8.616-3.176c0.964-0.354,1.996-0.733,3.101-1.142c0.275-0.102,0.559-0.205,0.844-0.31
				c0.205-0.076,0.136-0.053,0.146-0.057l0,0h-0.001h-0.001c0.471,0.461,0.956,0.938,1.456,1.425
				c1.074,1.054,2.212,2.165,3.414,3.344c3.127,3.062,11.842,11.596,23.514,23.023c5.837,5.714,12.412,12.151,19.398,18.99
				c1.746,1.71,3.519,3.444,5.312,5.199c0.793,0.774,1.593,1.558,2.395,2.342l-0.021-0.017c-0.023-0.017,0.012-0.017,0.021-0.021
				c-2.08,0.615-4.173,1.234-6.271,1.855c-10.022,2.956-20.171,5.9-29.992,8.697c-4.916,1.387-9.746,2.747-14.438,4.069
				c-2.601,0.719-5.124,1.416-7.54,2.084c-6.121,1.648-11.152,3.003-13.85,3.729c-2.886,0.779-5.438,1.522-7.785,2.283
				c-2.352,0.777-4.495,1.562-6.569,2.369c-2.076,0.83-4.075,1.708-6.144,2.604c-1.034,0.442-2.088,0.967-3.177,1.414
				c-1.104,0.46-2.238,0.934-3.425,1.428c1.29,0.104,2.527,0.208,3.729,0.307c1.222,0.089,2.373,0.07,3.528,0.089
				c2.314,0.031,4.529-0.064,6.783-0.265c2.267-0.18,4.562-0.48,7.021-0.927c2.465-0.433,5.095-0.996,8.005-1.753
				c2.729-0.688,7.799-2.034,13.953-3.702c2.426-0.67,4.961-1.369,7.57-2.09c4.709-1.326,9.557-2.691,14.485-4.08
				c9.853-2.808,20.021-5.759,30.063-8.726c2.919-0.863,5.827-1.729,8.723-2.588c2.49-0.745,4.974-1.486,7.448-2.229l1.854-0.558
				l0.926-0.276c0.143-0.008-0.023-0.092-0.054-0.142l-0.173-0.169l-0.345-0.338c-0.919-0.9-1.837-1.8-2.753-2.697
				c-4.695-4.597-9.312-9.113-13.798-13.506c-6.988-6.836-13.567-13.27-19.407-18.979c-11.683-11.42-20.402-19.948-23.53-23.007
				c-2.997-2.935-5.668-5.547-8.047-7.873c-0.12-0.113-0.236-0.24-0.358-0.341l-0.465,0.171c-0.309,0.113-0.615,0.227-0.919,0.339
				c-0.605,0.224-1.206,0.442-1.795,0.661c-0.837,0.309-1.646,0.605-2.433,0.896c-1.104,0.407-2.138,0.787-3.103,1.143
				c-3.854,1.424-6.631,2.444-8.615,3.178c-3.969,1.463-4.777,1.762-4.777,1.762s-2.379,0.876-24.412,8.991
				c-0.928,0.342-2.36,0.868-4.238,1.559c-0.91,0.335-1.873,0.69-2.89,1.064c-0.509,0.187-1.028,0.379-1.562,0.574
				c-0.386,0.015-0.229,0.418-0.271,0.684c-0.007,0.291-0.016,0.585-0.021,0.883c-0.043,1.778-0.09,3.717-0.141,5.805
				c-0.135,5.591-0.311,12.771-0.509,21.062c-0.398,16.582-0.904,37.596-1.424,59.152c-0.796,33.812-1.63,69.324-1.932,82.146
				C390.325,623.1,391.511,629.929,393.764,640z"/>
		</g>
	</g>
</g>
<g>
	<g>
		<g>
			<path d="M477.762,496.226c0.467,10.312,1.086,17.192,4.294,28.716c0.542,1.952,1.423,5.129,3.254,11.729
				c1.272,4.518,3.272,12.147,5.014,18.642c1.632,6.503,2.979,11.873,2.979,11.873s0.069,0.281,0.194,0.793
				c0.112,0.512,0.275,1.253,0.478,2.175c0.405,1.842,0.97,4.402,1.602,7.273c1.278,5.825,2.837,12.914,3.946,17.971
				c1.99,8.977,3.224,14.53,3.864,17.431c0.667,2.933,1.315,5.533,2.05,7.914c0.747,2.377,1.525,4.549,2.363,6.64
				c1.676,4.183,3.589,8.05,5.963,12.62c0.045-5.168,0-9.478-0.396-13.949c-0.198-2.236-0.484-4.514-0.893-6.96
				c-0.392-2.448-0.85-5.076-1.482-7.996c-0.63-2.886-1.838-8.411-3.788-17.338c-1.113-5.038-2.672-12.104-3.953-17.906
				c-0.657-2.938-1.242-5.562-1.663-7.449c-0.211-0.941-0.381-1.703-0.498-2.227c-0.129-0.52-0.2-0.802-0.2-0.802
				s-1.346-5.438-2.976-12.022c-1.734-6.542-3.74-14.237-5.041-18.765c-1.837-6.633-2.735-9.82-3.312-11.771
				C486.225,511.278,483.004,505.113,477.762,496.226z"/>
		</g>
	</g>
</g>
<g>
	<circle fill="#AACD72" cx="371.999" cy="324.892" r="29.5"/>
	<g>
		<g>
			<ellipse fill="#FFFFFF" cx="366.053" cy="317.521" rx="1.426" ry="3.232"/>
			<ellipse fill="#FFFFFF" cx="379.396" cy="317.661" rx="1.427" ry="3.233"/>
		</g>
		<g>
			<g>
				<path fill="#FFFFFF" d="M356.137,326.872c3.379,7.511,10.752,12.562,19.064,11.595c6.767-0.788,12.406-6.45,14.273-12.854
					c0.592-2.019-2.55-2.875-3.137-0.863c-1.661,5.686-6.536,9.928-12.412,10.611c-6.659,0.775-12.401-4.4-14.98-10.133
					C358.086,323.319,355.283,324.974,356.137,326.872L356.137,326.872z"/>
			</g>
		</g>
	</g>
	<path opacity="0.9" fill="#D1E2A8" enable-background="new    " d="M352.044,324.892c0-14.668,10.704-26.83,24.728-29.111
		c-1.555-0.253-3.146-0.39-4.771-0.39c-16.293,0-29.501,13.208-29.501,29.501c0,16.292,13.208,29.501,29.501,29.501
		c1.625,0,3.218-0.137,4.771-0.391C362.748,351.72,352.044,339.559,352.044,324.892z"/>
</g>
<g>
	<circle fill="#FFFFFF" cx="101.999" cy="542.559" r="35.334"/>
	<g>
		<g>
			
				<ellipse transform="matrix(-0.91 -0.4145 0.4145 -0.91 -30.9624 1056.4258)" fill="#D1E2A8" cx="99.147" cy="531.573" rx="1.708" ry="3.872"/>
			
				<ellipse transform="matrix(-0.91 -0.4146 0.4146 -0.91 -6.1486 1075.3535)" fill="#D1E2A8" cx="113.625" cy="538.344" rx="1.708" ry="3.873"/>
		</g>
		<g>
			<g>
				<path fill="#D1E2A8" d="M83.717,536.645c-0.054,8.124,3.703,16.305,10.749,20.547c8.441,5.082,19.874,2.19,26.109-5.042
					c1.632-1.894-1.112-4.662-2.756-2.756c-5.371,6.229-14.005,8.141-21.387,4.433c-6.002-3.015-8.861-10.781-8.819-17.182
					C87.63,534.131,83.733,534.133,83.717,536.645L83.717,536.645z"/>
			</g>
		</g>
	</g>
	<path opacity="0.5" fill="#D1E2A8" enable-background="new    " d="M80.247,532.654c7.28-15.987,24.985-23.932,41.403-19.458
		c-1.568-1.047-3.236-1.986-5.008-2.793c-17.76-8.088-38.713-0.247-46.801,17.514c-8.087,17.76-0.246,38.714,17.514,46.802
		c1.771,0.807,3.576,1.446,5.395,1.94C78.599,567.21,72.967,548.641,80.247,532.654z"/>
</g>
<g>
	<circle fill="#FFFFFF" cx="160.814" cy="349.248" r="29.91"/>
	<g>
		<g>
			
				<ellipse transform="matrix(-0.91 -0.4146 0.4146 -0.91 161.6566 715.0206)" fill="#D1E2A8" cx="158.441" cy="339.963" rx="1.446" ry="3.277"/>
			
				<ellipse transform="matrix(-0.9098 -0.415 0.415 -0.9098 182.5085 731.0317)" fill="#D1E2A8" cx="170.677" cy="345.687" rx="1.446" ry="3.277"/>
		</g>
		<g>
			<g>
				<path fill="#D1E2A8" d="M145.339,344.242c-0.034,6.853,3.088,13.627,8.943,17.305c7.13,4.478,16.954,1.939,22.257-4.183
					c1.386-1.6-0.938-3.941-2.332-2.33c-4.623,5.337-11.946,6.885-18.26,3.662c-4.992-2.547-7.336-9.127-7.31-14.454
					C148.648,342.114,145.35,342.115,145.339,344.242L145.339,344.242z"/>
			</g>
		</g>
	</g>
	<path opacity="0.5" fill="#D1E2A8" enable-background="new    " d="M142.402,340.863c6.162-13.532,21.149-20.258,35.047-16.471
		c-1.327-0.887-2.739-1.682-4.239-2.364c-15.033-6.847-32.77-0.209-39.616,14.824c-6.846,15.032-0.208,32.771,14.825,39.616
		c1.5,0.683,3.027,1.226,4.566,1.645C141.007,370.115,136.239,354.396,142.402,340.863z"/>
</g>
<g>
	<circle fill="#FFFFFF" cx="477.814" cy="130.248" r="29.91"/>
	<g>
		<g>
			
				<ellipse transform="matrix(-0.9767 0.2144 -0.2144 -0.9767 956.3141 144.7925)" fill="#D1E2A8" cx="470.305" cy="124.256" rx="1.446" ry="3.277"/>
			
				<ellipse transform="matrix(-0.9767 0.2146 -0.2146 -0.9767 981.9049 136.3462)" fill="#D1E2A8" cx="483.552" cy="121.466" rx="1.447" ry="3.277"/>
		</g>
		<g>
			<g>
				<path fill="#D1E2A8" d="M462.327,135.375c5.098,6.851,13.419,10.456,21.698,7.597c6.543-2.259,10.8-9.183,11.256-15.9
					c0.145-2.125-3.155-2.108-3.299,0c-0.355,5.232-3.526,9.945-8.094,12.391c-6.572,3.521-14.587-0.202-18.716-5.75
					C463.921,132.024,461.055,133.666,462.327,135.375L462.327,135.375z"/>
			</g>
		</g>
	</g>
	<path opacity="0.5" fill="#D1E2A8" enable-background="new    " d="M458.055,134.592c-3.192-14.524,4.758-28.897,18.147-34.209
		c-1.594,0.087-3.2,0.299-4.812,0.653c-16.134,3.546-26.336,19.5-22.79,35.634c3.549,16.133,19.503,26.336,35.637,22.79
		c1.608-0.354,3.155-0.837,4.64-1.428C474.495,158.827,461.247,149.115,458.055,134.592z"/>
</g>
<g>
	<circle fill="#FFFFFF" cx="549.914" cy="72.556" r="22.44"/>
	<g>
		<g>
			
				<ellipse transform="matrix(-0.9769 0.2138 -0.2138 -0.9769 1090.5171 18.1242)" fill="#D1E2A8" cx="544.278" cy="68.041" rx="1.085" ry="2.459"/>
			
				<ellipse transform="matrix(-0.9767 0.2146 -0.2146 -0.9767 1109.6226 11.4639)" fill="#D1E2A8" cx="554.189" cy="65.964" rx="1.085" ry="2.46"/>
		</g>
		<g>
			<g>
				<path fill="#D1E2A8" d="M538.295,76.402c3.936,5.26,10.281,7.903,16.597,5.57c4.75-1.755,7.781-6.897,8.126-11.8
					c0.112-1.594-2.361-1.583-2.475,0c-0.264,3.75-2.452,7.155-5.634,9.071c-4.993,3.006-11.271,0.192-14.479-4.093
					C539.487,73.891,537.338,75.123,538.295,76.402L538.295,76.402z"/>
			</g>
		</g>
	</g>
	<path opacity="0.5" fill="#D1E2A8" enable-background="new    " d="M535.09,75.814c-2.396-10.896,3.569-21.679,13.614-25.665
		c-1.195,0.066-2.4,0.227-3.608,0.49c-12.104,2.661-19.759,14.63-17.099,26.734c2.661,12.104,14.632,19.758,26.734,17.098
		c1.208-0.266,2.367-0.628,3.479-1.07C547.424,93.997,537.484,86.711,535.09,75.814z"/>
</g>
<g>
	<circle fill="#FFFFFF" cx="227.173" cy="402.241" r="22.44"/>
	<g>
		<g>
			
				<ellipse transform="matrix(-0.9768 0.2142 -0.2142 -0.9768 523.2007 738.7631)" fill="#D1E2A8" cx="221.573" cy="397.73" rx="1.085" ry="2.458"/>
			
				<ellipse transform="matrix(-0.9768 0.2143 -0.2143 -0.9768 542.4218 732.4951)" fill="#D1E2A8" cx="231.514" cy="395.644" rx="1.085" ry="2.46"/>
		</g>
		<g>
			<g>
				<path fill="#D1E2A8" d="M215.555,406.086c3.936,5.259,10.281,7.902,16.597,5.568c4.75-1.755,7.781-6.896,8.126-11.799
					c0.112-1.594-2.363-1.583-2.475,0c-0.264,3.75-2.452,7.154-5.634,9.07c-4.993,3.006-11.271,0.194-14.478-4.09
					C216.747,403.577,214.598,404.807,215.555,406.086L215.555,406.086z"/>
			</g>
		</g>
	</g>
	<path opacity="0.5" fill="#D1E2A8" enable-background="new    " d="M212.35,405.5c-2.396-10.896,3.569-21.681,13.614-25.665
		c-1.195,0.064-2.4,0.225-3.608,0.488c-12.104,2.661-19.759,14.633-17.099,26.734c2.661,12.104,14.632,19.758,26.734,17.098
		c1.208-0.266,2.369-0.627,3.481-1.067C224.684,423.682,214.744,416.396,212.35,405.5z"/>
</g>
<g>
	<circle fill="#FFFFFF" cx="55.585" cy="414.071" r="22.44"/>
	<g>
		<g>
			
				<ellipse transform="matrix(-0.8854 -0.4649 0.4649 -0.8854 -87.0629 792.4905)" fill="#D1E2A8" cx="54.166" cy="406.978" rx="1.085" ry="2.459"/>
			<path fill="#D1E2A8" d="M64.084,412.317c-0.632,1.201-1.572,1.951-2.103,1.675c-0.53-0.279-0.45-1.479,0.182-2.683
				c0.629-1.204,1.569-1.952,2.101-1.674C64.796,409.913,64.715,411.113,64.084,412.317z"/>
		</g>
		<g>
			<g>
				<path fill="#D1E2A8" d="M44.2,409.747c-0.324,5.492,2.074,10.954,6.862,13.78c5.133,3.032,12.005,1.358,16.014-2.769
					c1.112-1.146-0.637-2.896-1.75-1.75c-3.753,3.862-9.323,4.562-13.95,1.829c-3.571-2.11-4.932-7.189-4.701-11.093
					C46.77,408.152,44.294,408.161,44.2,409.747L44.2,409.747z"/>
			</g>
		</g>
	</g>
	<path opacity="0.5" fill="#D1E2A8" enable-background="new    " d="M42.143,407.025c5.178-9.881,16.684-14.295,26.938-10.881
		c-0.958-0.719-1.981-1.373-3.077-1.947c-10.978-5.754-24.539-1.519-30.293,9.457c-5.753,10.979-1.517,24.539,9.458,30.292
		c1.096,0.574,2.217,1.045,3.353,1.422C39.88,428.879,36.962,416.906,42.143,407.025z"/>
</g>
<g>
	<circle fill="#FFFFFF" cx="325.073" cy="106.74" r="34.832"/>
	<g>
		<g>
			
				<ellipse transform="matrix(-0.9768 0.2143 -0.2143 -0.9768 646.7246 129.373)" fill="#D1E2A8" cx="316.351" cy="99.735" rx="1.684" ry="3.816"/>
			
				<ellipse transform="matrix(-0.9767 0.2146 -0.2146 -0.9767 676.493 119.5918)" fill="#D1E2A8" cx="331.755" cy="96.517" rx="1.684" ry="3.817"/>
		</g>
		<g>
			<g>
				<path fill="#D1E2A8" d="M307.038,112.711c6.056,8.165,16.219,12.449,25.964,8.558c7.225-2.883,11.91-10.616,12.412-18.228
					c0.163-2.477-3.68-2.459-3.842,0c-0.389,5.877-3.905,11.344-8.979,14.204c-7.756,4.374-17.301,0.185-22.239-6.475
					C308.896,108.807,305.56,110.719,307.038,112.711L307.038,112.711z"/>
			</g>
		</g>
	</g>
	<path opacity="0.5" fill="#D1E2A8" enable-background="new    " d="M302.062,111.8c-3.722-16.914,5.538-33.651,21.133-39.837
		c-1.855,0.102-3.729,0.349-5.604,0.761c-18.788,4.13-30.669,22.709-26.54,41.498c4.131,18.787,22.711,30.669,41.498,26.54
		c1.876-0.413,3.679-0.975,5.403-1.661C321.208,140.022,305.78,128.714,302.062,111.8z"/>
</g>
<g>
	<circle fill="#FFFFFF" cx="421.681" cy="62.034" r="34.832"/>
	<g>
		<g>
			
				<ellipse transform="matrix(-0.577 -0.8167 0.8167 -0.577 627.9422 427.7415)" fill="#D1E2A8" cx="424.731" cy="51.271" rx="1.685" ry="3.816"/>
			<path fill="#D1E2A8" d="M434.668,65.613c-1.723,1.218-3.553,1.587-4.089,0.829c-0.537-0.761,0.423-2.359,2.146-3.579
				c1.721-1.217,3.55-1.587,4.086-0.826C437.347,62.794,436.389,64.396,434.668,65.613z"/>
		</g>
		<g>
			<g>
				<path fill="#D1E2A8" d="M409.052,47.918c-5.058,8.591-4.854,19.078,1.861,26.627c5.205,5.851,14.628,7.36,21.845,4.876
					c2.328-0.801,1.327-4.515-1.021-3.704c-5.777,1.99-12.387,0.978-17.104-2.919c-6.874-5.679-6.462-15.812-2.266-22.942
					C413.628,47.717,410.307,45.785,409.052,47.918L409.052,47.918z"/>
			</g>
		</g>
	</g>
	<path opacity="0.5" fill="#D1E2A8" enable-background="new    " d="M408.079,42.797c14.14-10,33.16-7.971,44.919,3.994
		c-0.814-1.67-1.77-3.298-2.878-4.866c-11.105-15.708-32.841-19.438-48.549-8.331c-15.706,11.104-19.438,32.843-8.331,48.549
		c1.107,1.568,2.326,3.009,3.63,4.333C389.513,71.404,393.938,52.794,408.079,42.797z"/>
</g>
<g>
	<circle fill="#FFFFFF" cx="68.788" cy="64.558" r="44.463"/>
	<g>
		<g>
			
				<ellipse transform="matrix(-0.91 -0.4147 0.4147 -0.91 103.5678 123.9628)" fill="#D1E2A8" cx="65.241" cy="50.739" rx="2.15" ry="4.872"/>
			
				<ellipse transform="matrix(-0.91 -0.4147 0.4147 -0.91 134.8272 147.7922)" fill="#D1E2A8" cx="83.457" cy="59.26" rx="2.149" ry="4.873"/>
		</g>
		<g>
			<g>
				<path fill="#D1E2A8" d="M45.782,57.115c-0.087,10.271,4.75,20.831,13.809,26.008c10.644,6.082,24.77,2.604,32.572-6.496
					c2.047-2.389-1.405-5.872-3.467-3.47c-6.633,7.735-17.445,10.258-26.631,5.729c-7.707-3.798-11.449-13.562-11.379-21.772
					C50.713,53.953,45.81,53.956,45.782,57.115L45.782,57.115z"/>
			</g>
		</g>
	</g>
	<path opacity="0.5" fill="#D1E2A8" enable-background="new    " d="M41.418,52.094c9.16-20.12,31.439-30.114,52.099-24.485
		c-1.973-1.316-4.072-2.5-6.302-3.514c-22.348-10.178-48.714-0.311-58.892,22.037c-10.177,22.346-0.31,48.713,22.038,58.892
		c2.23,1.017,4.501,1.822,6.788,2.444C39.343,95.579,32.256,72.212,41.418,52.094z"/>
</g>
<g>
	<circle fill="#FFFFFF" cx="568.988" cy="442.151" r="43.331"/>
	<g>
		<g>
			<path fill="#D1E2A8" d="M558.341,435.231c1.127,2.367,1.195,4.689,0.149,5.188c-1.043,0.498-2.806-1.019-3.935-3.388
				c-1.128-2.368-1.191-4.688-0.148-5.186C555.453,431.345,557.214,432.862,558.341,435.231z"/>
			
				<ellipse transform="matrix(-0.9029 0.4298 -0.4298 -0.9029 1276.5435 567.4388)" fill="#D1E2A8" cx="574.193" cy="427.874" rx="2.094" ry="4.749"/>
		</g>
		<g>
			<g>
				<path fill="#D1E2A8" d="M548.859,454.505c9.788,8.334,23.768,10.545,34.416,2.579c7.575-5.666,10.812-16.063,9.3-25.23
					c-0.502-3.035-5.106-1.744-4.609,1.27c0.987,5.979-1.16,13.716-5.737,18.562c-8.128,8.605-21.639,6.552-29.988-0.559
					C549.906,449.141,546.509,452.504,548.859,454.505L548.859,454.505z"/>
			</g>
		</g>
	</g>
	<path opacity="0.5" fill="#D1E2A8" enable-background="new    " d="M542.526,454.75c-9.264-19.449-2.746-42.337,14.407-54.22
		c-2.221,0.646-4.418,1.472-6.571,2.497c-21.606,10.287-30.783,36.145-20.496,57.749c10.289,21.605,36.145,30.781,57.752,20.495
		c2.155-1.027,4.182-2.215,6.08-3.531C573.661,483.569,551.787,474.2,542.526,454.75z"/>
</g>
<g>
	<circle fill="#FFFFFF" cx="572.99" cy="191.152" r="43.331"/>
	<g>
		<g>
			<path fill="#D1E2A8" d="M573.29,178.457c-1.423,2.2-3.364,3.479-4.337,2.851c-0.971-0.627-0.604-2.921,0.818-5.126
				c1.425-2.203,3.363-3.477,4.336-2.85C575.082,173.959,574.715,176.253,573.29,178.457z"/>
			
				<ellipse transform="matrix(-0.8399 -0.5428 0.5428 -0.8399 979.5329 665.262)" fill="#D1E2A8" cx="587.901" cy="188.137" rx="2.094" ry="4.749"/>
		</g>
		<g>
			<g>
				<path fill="#D1E2A8" d="M551.928,180.42c-1.533,9.848,1.306,20.754,9.298,27.102c9.676,7.683,23.765,6.236,32.852-1.639
					c2.333-2.021-1.062-5.387-3.379-3.379c-8.032,6.96-20.144,7.136-28.062-0.03c-5.479-4.958-7.038-14.747-6.098-20.783
					C557.006,178.677,552.401,177.382,551.928,180.42L551.928,180.42z"/>
			</g>
		</g>
	</g>
	<path opacity="0.5" fill="#D1E2A8" enable-background="new    " d="M548.374,175.244c11.692-18.096,34.594-24.562,53.712-16.198
		c-1.717-1.551-3.57-2.989-5.576-4.284c-20.098-12.99-46.922-7.229-59.912,12.87c-12.986,20.099-7.225,46.922,12.873,59.914
		c2.006,1.295,4.08,2.396,6.197,3.319C540.19,216.871,536.681,193.336,548.374,175.244z"/>
</g>
<g>
	<g>
		<g>
			<path fill="#FFFFFF" d="M362.43,214.893c-1.713-7.018-3.121-11.667-7.024-19.1c-0.67-1.255-1.725-3.314-4.021-7.546
				c-0.249-0.495-0.9-1.636-0.9-1.636s-0.215-0.407-0.446-0.857c-2.572-4.733-5.378-9.896-6.312-11.614
				c-4.099-7.351-7.36-11.039-12.295-16.248c1.944,7.008,3.507,11.527,7.507,18.874c0.929,1.716,3.713,6.871,6.265,11.596
				c0.249,0.44,0.476,0.842,0.476,0.842s0.596,1.164,0.873,1.644c2.271,4.229,3.365,6.265,4.037,7.516
				C354.559,205.744,357.628,209.496,362.43,214.893z"/>
		</g>
	</g>
</g>
<g>
	<g>
		<g>
			<path fill="#FFFFFF" d="M389.43,196.893c3.545-6.292,5.767-10.576,8.225-18.569c0.421-1.353,1.104-3.552,2.528-8.125
				c0.702-2.168,1.888-5.82,2.895-8.933c1.038-3.099,1.894-5.657,1.894-5.657s0.752-2.127,1.713-4.844
				c0.967-2.715,2.188-5.997,3.079-8.326c2.271-5.942,3.854-9.521,4.661-11.395c1.658-3.782,2.881-6.742,3.979-9.591
				c0.269-0.721,0.535-1.427,0.822-2.117c0.277-0.703,0.541-1.424,0.861-2.115c0.152-0.355,0.307-0.715,0.464-1.081
				c0.164-0.359,0.355-0.698,0.539-1.065c0.347-0.76,0.829-1.412,1.343-2.182c-0.774,0.417-1.604,0.828-2.266,1.365
				c-0.345,0.257-0.705,0.507-1.028,0.777c-0.312,0.28-0.623,0.559-0.928,0.83c-0.632,0.553-1.178,1.141-1.722,1.735
				c-0.562,0.592-1.071,1.209-1.562,1.854c-1.99,2.561-3.738,5.477-5.49,9.36c-0.854,1.924-2.494,5.61-4.809,11.653
				c-0.915,2.368-2.146,5.702-3.113,8.453c-0.958,2.754-1.708,4.91-1.708,4.91s-0.877,2.58-1.938,5.705
				c-1.052,3.127-2.231,6.812-2.919,9.007c-1.419,4.609-2.103,6.829-2.521,8.191C390.034,184.808,389.612,189.67,389.43,196.893z"/>
		</g>
	</g>
</g>
<g>
	<g>
		<g>
			<path fill="#FFFFFF" d="M341.43,245.893c-2.772-1.882-4.67-2.921-8.091-3.131c-3.708-0.183-22.273-1.096-22.273-1.096
				s-18.567-0.913-22.275-1.097c-3.425-0.127-5.413,0.723-8.358,2.322c2.774,1.883,4.669,2.921,8.091,3.132
				c3.708,0.185,22.275,1.098,22.275,1.098s18.567,0.913,22.275,1.095C336.496,248.341,338.484,247.494,341.43,245.893z"/>
		</g>
	</g>
</g>
<g>
	<g>
		<g>
			<path fill="#FFFFFF" d="M343.43,262.893c-7.16-0.959-11.994-1.372-20.338-0.487c-1.413,0.154-3.712,0.406-8.49,0.93
				c-0.318,0.018-1.069,0.134-1.069,0.134s-0.268,0.021-0.561,0.045c-5.219,0.587-10.911,1.227-12.807,1.44
				c-8.335,0.968-12.961,2.432-19.735,4.938c7.159,0.959,11.993,1.372,20.336,0.488c1.896-0.208,7.593-0.833,12.812-1.406
				c0.29-0.041,0.555-0.079,0.555-0.079s0.758-0.051,1.074-0.104c4.776-0.54,7.074-0.8,8.487-0.958
				C332.029,266.864,336.655,265.4,343.43,262.893z"/>
		</g>
	</g>
</g>
<g>
	<g>
		<g>
			<path fill="#FFFFFF" d="M334.43,282.893c-6.699,2.701-11.106,4.729-17.927,9.617c-1.153,0.832-3.028,2.185-6.926,4.998
				c-7.49,5.433-25.236,18.303-25.236,18.303s-14.866,10.755-23.108,16.718c-5.189,3.771-8.401,6.106-10.079,7.325
				c-6.771,4.957-10.07,8.516-14.724,14.039c6.699-2.7,11.107-4.729,17.928-9.617c1.681-1.214,4.9-3.538,10.102-7.295
				c8.233-5.974,23.085-16.748,23.085-16.748s17.759-12.853,25.255-18.276c3.888-2.827,5.758-4.188,6.907-5.023
				C326.476,291.975,329.776,288.418,334.43,282.893z"/>
		</g>
	</g>
</g>
<path fill="#FFFFFF" d="M287.43,493.893c0,0,3-1.5,4.5-24s2.5-48,9-62c6.5-14,14-42.5,15.5-51.5s12.5,7.5,9,25s-10.5,41-3.5,42
	s46.5-18.5,55.5-27.5s33.5-46,41-45.5s7.5,0.5,7.5,0.5s10-15,16.5-7.5c0,0-8.5,14-7,14s8.5-8,12.5-3l-11,23c0,0,4-1.5,6.5,2.5
	l-41,52.5c0,0-49,43.5-60.5,51l4.5,22.5C346.43,505.893,314.93,515.893,287.43,493.893z"/>
<g>
	<g>
		<g>
			<path d="M202.431,640c7.063-7.523,11.561-12.801,17.464-23.229c5.082-9.075,18.027-32.191,30.862-55.112
				c8.634-15.438,17.229-30.812,24.448-43.722c3.608-6.455,6.873-12.295,9.625-17.219c0.344-0.615,0.68-1.218,1.008-1.804
				l0.244-0.438l0.061-0.108c0.006-0.01,0.001-0.003,0.003-0.005l-0.001,0.001l-0.002,0.002l-0.006,0.009l-0.006-0.009
				c0.075,0.062,0.147,0.12,0.216,0.179c0.286,0.22,0.558,0.429,0.815,0.628c8.54,6.506,16.771,9.722,23.539,11.441
				c1.7,0.41,3.32,0.72,4.839,0.994c1.527,0.188,2.977,0.421,4.293,0.527c2.61,0.146,4.852,0.271,6.767,0.379
				c3.835,0.051,6.368-0.068,7.939-0.071c1.568-0.125,2.181-0.173,2.181-0.173s0.203-0.017,0.919-0.074
				c0.717-0.073,1.95-0.119,4-0.364c1.023-0.146,2.252-0.318,3.727-0.526c1.476-0.176,3.178-0.591,5.17-0.961
				c0.498-0.092,1.012-0.241,1.544-0.366l0.271-0.066l0.002-0.002c0.004-0.001-0.001,0,0,0l-0.001-0.002
				c0.139,1.343,0.28,2.762,0.435,4.263c0.418,4.124,1.622,16.003,3.241,31.989c0.811,7.994,1.727,17.019,2.697,26.609
				c0.228,2.221,0.454,4.477,0.688,6.756c-0.007-0.02-0.003-0.03,0.02-0.022c-2.222-0.089-4.462-0.178-6.715-0.267
				c-2.546-0.125-5.104-0.251-7.674-0.378c-10.271-0.552-20.644-1.303-30.639-2.272c-4.999-0.479-9.899-1.029-14.646-1.626
				c-6.062-0.774-6.038-0.826-7.94-1.076c-6.284-0.91-11.382-1.883-14.102-2.403c-5.776-1.135-10.287-1.9-14.6-2.564
				c-2.153-0.342-4.274-0.627-6.45-1.029c-2.204-0.363-4.425-0.874-6.9-1.657c1.794,1.831,3.687,3.422,5.632,4.709
				c1.938,1.337,3.924,2.436,6.009,3.439c4.18,1.998,8.795,3.516,14.769,4.752c2.812,0.566,8.077,1.587,14.497,2.523
				c1.939,0.259,1.925,0.312,8.1,1.104c4.831,0.607,9.81,1.17,14.873,1.653c10.132,0.982,20.607,1.739,30.979,2.297
				c2.593,0.127,5.179,0.253,7.75,0.379c2.866,0.105,5.717,0.215,8.543,0.319c1.263,0.034,2.521,0.069,3.779,0.104l1.878,0.045
				l0.938,0.021l0.469,0.013c0.038,0,0.08,0.004,0.115,0l-0.012-0.116l-0.023-0.233c-0.245-2.487-0.487-4.966-0.73-7.429
				c-0.271-2.644-0.533-5.256-0.795-7.831c-0.979-9.593-1.897-18.612-2.712-26.605c-1.635-15.987-2.847-27.865-3.269-31.989
				c-0.48-4.75-0.913-8.979-1.296-12.743c-0.032-0.312-0.062-0.622-0.095-0.93l-0.006-0.058l-0.059,0.021l-0.111,0.037l-0.228,0.075
				l-0.449,0.148c-0.605,0.202-1.205,0.401-1.793,0.598c-1.173,0.37-2.341,0.829-3.411,1.088c-0.986,0.27-1.941,0.526-2.867,0.777
				c-0.479,0.112-0.93,0.247-1.386,0.33c-1.817,0.331-3.354,0.717-4.718,0.875c-1.354,0.192-2.483,0.354-3.425,0.485
				c-1.888,0.229-3.032,0.266-3.691,0.337c-0.662,0.054-0.85,0.067-0.85,0.067s-0.564,0.046-2.014,0.162
				c-1.456-0.003-3.803,0.105-7.354,0.062c-1.774-0.102-3.852-0.217-6.271-0.354c-1.193-0.097-2.409-0.303-3.745-0.46
				c-1.316-0.241-2.724-0.509-4.2-0.864c-5.864-1.491-13.143-4.329-20.653-10.057c-0.146-0.111-0.3-0.229-0.455-0.35l-0.266-0.209
				c-0.148-0.126-0.299-0.254-0.451-0.383c-0.609-0.522-1.249-1.069-1.917-1.643c-0.73-0.722-1.492-1.474-2.284-2.255
				c-0.398-0.405-0.807-0.817-1.221-1.237c-0.205-0.208-0.412-0.418-0.621-0.629l-0.314-0.316l-0.157-0.159
				c-0.05-0.044-0.07,0.089-0.106,0.125c-1.812,3.239-3.871,6.916-6.141,10.972c-2.756,4.922-6.023,10.759-9.636,17.212
				c-7.224,12.907-15.825,28.277-24.463,43.713c-12.815,22.935-25.739,46.062-30.812,55.143
				C207.288,623.45,205.146,630.044,202.431,640z"/>
		</g>
	</g>
</g>
<path fill="#FFFFFF" d="M432.43,307.893c0,0,18.5-22.5,27.5-14.5s-11.5,36-18.5,35S429.93,317.893,432.43,307.893z"/>
</svg>
