<?xml version="1.0" encoding="utf-8"?>
<!-- Generator: Adobe Illustrator 16.0.0, SVG Export Plug-In . SVG Version: 6.00 Build 0)  -->
<!DOCTYPE svg PUBLIC "-//W3C//DTD SVG 1.1//EN" "http://www.w3.org/Graphics/SVG/1.1/DTD/svg11.dtd">
<svg version="1.1" xmlns="http://www.w3.org/2000/svg" xmlns:xlink="http://www.w3.org/1999/xlink" x="0px" y="0px" width="640px"
	 height="640px" viewBox="0 0 640 640" enable-background="new 0 0 640 640" xml:space="preserve">
<g id="pull">
</g>
<g id="couleurs">
</g>
<g id="traits">
	<g>
		<path fill="#B3DFEF" d="M127.097,330.893c0.003,0.039,0.01,0.086,0.021,0.142C127.112,330.992,127.104,330.936,127.097,330.893
			 M127.004,330.292C99.924,154.719,168.43,75.56,168.43,75.56s85.282-24.282,117.414-24.282c1.96,0,3.72,0.09,5.253,0.282
			c26.666,3.333,118,16,121.333,35.333s-0.667,27.333-0.667,27.333L398.43,127.56c0,0,5.333-14-6.667-14s-22.666,2-22.666,2
			l-17.334,1.333c0,0-32.666,13.333-44.666,13.333s-42-7.333-42-7.333s-65.334,47.334-53.334,114.667s71.333,86.667,82,138.667
			c4.299,20.953,3.833,39.853,1.746,54.948c0.603,0.111,1.211,0.224,1.808,0.334l0.009-0.06c0.787-6.796,1.831-14.544,3.035-20.377
			l1.069-7.179l0.752,0.451c0.575-1.446,1.172-2.284,1.781-2.284c0.155,0,0.312,0.054,0.468,0.166c0,0,28.276,17.353,33.09,17.353
			c0.089,0,0.171-0.006,0.243-0.019c4-0.667,8-6.667,8-6.667l-6-16.667c0,0-1.954-28.012,1.864-28.012
			c0.045,0,0.09,0.004,0.136,0.012l0,0c0,0-1.333-40,26.667-60.667c25.32-18.689,40.829-32.471,46.029-32.473
			c0.551,0,0.984,0.154,1.304,0.473c0,0,12.667,46,14.667,58s8,40.666,8,40.666s-6.012,18.615-12.596,34.198
			c3.524-0.733,6.847-1.145,9.855-1.145c2.073,0,3.993,0.194,5.739,0.613l0,0c0,0,22,3,30,7c1.449,0.725,4.177,2.892,7.673,5.956
			c18.523,7.998,35.409,17.873,38.327,26.044c0.835,2.337,2.032,7.407,3.442,14.364c3.429,3.462,5.558,5.636,5.558,5.636v25.009
			c0.478,2.86,0.959,5.794,1.439,8.778l6.561-0.787l7,93c0,0-0.771,0.128-2.127,0.139c0.162,3.46,0.21,6.447,0.127,8.861
			c-1,29-2,38.107-2,38.107h-437c0,0,0-0.002-0.001-0.004c0,0.001,0,0.003,0,0.004c-4.532-9.281-7.904-17.263-10.772-25.85
			c-1.412-4.3-2.628-8.767-3.791-13.643c-1.132-4.88-2.066-10.19-2.991-16.163c-0.471-2.95-0.983-7.276-1.763-13.145
			c-0.828-5.859-1.587-13.312-2.569-22.512c-0.146-1.466-0.381-3.205-0.503-5.038c-0.123-1.831-0.25-3.719-0.365-5.421
			c-0.22-3.406-0.393-6.072-0.393-6.072s-0.242-3.184-0.536-7.038c-0.205-3.853-0.309-8.37-0.383-11.055
			c-0.104-3.479-0.196-6.506-0.276-9.154c-0.044-2.646-0.009-4.911-0.017-6.871c0.01-3.92,0.018-6.618,0.022-8.672
			c0.019-1.515,0.037-2.988,0.055-4.426c0.072-1.434,0.144-2.831,0.213-4.196c0.161-2.729,0.358-5.326,0.593-7.823
			c0.337-3.931,0.874-7.608,1.5-11.163c-0.968-22.134,2.472-47.13,23.978-55.866c2.83-1.149,5.621-1.674,8.357-1.674
			c3.475,0,6.863,0.846,10.132,2.327c6.436-4.907,12.454-8.351,16.671-8.351c1.07,0,2.024,0.222,2.84,0.697
			c0.571,0.333,1.574,0.732,2.965,1.19C127.647,350.425,126.801,330.811,127.004,330.292 M640,0H0v640h640V0"/>
		<path fill="#E5CFA2" d="M251.127,587.122c6.505,8.122,12.389,15.174,17.214,20.502c-3.574-4.303-7.801-9.459-12.508-15.32
			C254.323,590.665,252.75,588.935,251.127,587.122 M339.243,507.555c-0.049,0.008-0.1,0.016-0.148,0.024
			c-0.159,0.048-0.318,0.096-0.478,0.142C338.827,507.667,339.035,507.612,339.243,507.555 M308.632,504.729
			c5.541,2.28,12.512,4.222,20.185,4.222c0.754,0,1.515-0.019,2.28-0.058c-4.561,0-9.392-0.921-13.969-2.237
			C313.908,506.095,311.092,505.444,308.632,504.729 M367.097,490.226c0,0-1.103,1.029-2.999,2.605
			c-0.314,0.389-0.638,0.774-0.969,1.158C365.661,491.779,367.097,490.226,367.097,490.226 M285.763,467.559L285.763,467.559
			c0,0,0.269,0.896,0.702,2.424c0.01-0.061,0.021-0.122,0.031-0.186L285.763,467.559 M160.468,465.05
			c-2.209,8.04-9.446,23.975-33.038,36.843c-7.615,4.154-14.166,5.752-19.736,5.752c-6.679,0-11.95-2.296-15.963-5.236
			c0.004,0.72,0.012,1.471,0.027,2.255c0.083,2.577,0.177,5.522,0.286,8.906c0.088,2.61,0.236,7.007,0.363,10.75
			c0.241,3.726,0.44,6.801,0.44,6.801s0.197,2.572,0.45,5.857c0.121,1.644,0.256,3.464,0.387,5.231
			c0.124,1.767,0.357,3.495,0.489,4.928c0.957,9.027,1.688,16.339,2.486,22.104c0.749,5.77,1.229,10.022,1.662,12.929
			c0.852,5.882,1.395,11.16,1.828,16.073c0.464,4.909,0.675,9.477,0.784,13.945c0.265,8.932-0.161,17.506-0.506,27.809
			c0.001,0.002,0.001,0.004,0.001,0.004h437c0,0,1-9.107,2-38.107c0.083-2.414,0.035-5.401-0.127-8.861c-0.054,0-0.109,0-0.165,0
			c-7.292,0-30.208-3.473-42.708-45.139c-12.501-41.669,4.862-45.139,10.995-45.139c1.227,0,2.005,0.139,2.005,0.139l18.439-2.213
			c-0.48-2.984-0.962-5.918-1.439-8.778v5.991c0,0-1.514,0.189-4.078,0.189c-5.769,0-16.846-0.959-27.922-7.189
			c-6.345-3.569-21-25-21-25s1,17-13,20c-1.131,0.242-2.301,0.348-3.479,0.348c-7.587,0-15.521-4.348-15.521-4.348
			c-0.41-1.231-0.909-2.505-1.478-3.802c5.467,15.497,8.299,31.968,9.737,45.817c1.481,6.108,1.762,13.103,1.323,20.229
			c0.062,2.305,0.084,4.35,0.084,6.089c0,11.72-8.24,35.286-10.235,40.818l2.568,6.849l-12,29c0,0-7-18-20-48s-39-64-39-64
			s-17,11-41,17c-3.601,0.9-6.997,1.282-10.173,1.282c-17.989,0-28.827-12.282-28.827-12.282l3.244-22.701
			c-3.909-3.687-3.895-7.347-3.563-9.147c-0.689-1.687-1.411-3.501-2.1-5.324c0.646,2.804,1.26,5.716,1.752,8.506
			c2,11.333,0,34,0,34s14.666,39.333,14,60c-0.294,9.134-1.111,21.396-4.002,29.7c4.26-5.987,5.669-14.033,5.669-14.033
			c4.042,18.658,7,38.107,7,38.107h-84c0,0-15.843-25.183-21-34.107C184.041,561.951,161.512,469.376,160.468,465.05
			 M295.509,431.174c-3.093,22.366-9.746,36.385-9.746,36.385l4.924-9.468c1.479-3.463,3.011-6.801,3.999-8.917l2.631-17.666
			C296.72,431.398,296.111,431.286,295.509,431.174 M479.103,420.849c11.7,10.254,32.005,30.551,41.77,40.408
			c-1.41-6.957-2.607-12.027-3.442-14.364C514.512,438.722,497.626,428.847,479.103,420.849 M435.69,407.28
			c-3.009,0-6.331,0.411-9.855,1.145c-4.739,11.216-9.776,20.862-13.082,20.862c-0.617,0-1.173-0.336-1.656-1.061
			c-1.28-1.92-2.684-3.988-4.115-6.076c3.076,8.804,4.115,16.076,4.115,16.076s3.178,1.93,7.614,6.164l5.719-30.497l17-6
			C439.684,407.474,437.764,407.28,435.69,407.28 M137.59,398.196c-4.217,0-10.235,3.443-16.671,8.351
			c23.263,10.547,40.511,53.347,40.511,53.347s-0.08,1.92-0.941,5.082c1.132,1.599,18.531,26.14,39.811,55.139
			c-9.189-14.317-18.385-30.131-27.083-47.366c-8.11-14.792-14.989-29.319-19.786-42.854c-3.883-10.955-7.2-20.867-10.035-29.81
			c-1.391-0.458-2.394-0.857-2.965-1.19C139.614,398.417,138.66,398.196,137.59,398.196"/>
		<path d="M78.452,461.759c-0.626,3.555-1.163,7.232-1.5,11.163c-0.234,2.497-0.432,5.094-0.593,7.823
			c-0.069,1.365-0.141,2.763-0.213,4.196c-0.018,1.438-0.036,2.911-0.055,4.426c-0.005,2.054-0.013,4.752-0.022,8.672
			c0.008,1.96-0.027,4.225,0.017,6.871c0.08,2.648,0.172,5.676,0.276,9.154c0.074,2.685,0.178,7.202,0.383,11.055
			c0.294,3.854,0.536,7.038,0.536,7.038s0.173,2.666,0.393,6.072c0.115,1.702,0.242,3.59,0.365,5.421
			c0.122,1.833,0.356,3.572,0.503,5.038c0.982,9.199,1.741,16.652,2.569,22.512c0.779,5.868,1.292,10.194,1.763,13.145
			c0.925,5.973,1.859,11.283,2.991,16.163c1.163,4.876,2.379,9.343,3.791,13.643c2.868,8.587,6.24,16.568,10.772,25.85
			c0-0.001,0-0.003,0-0.004c0.345-10.303,0.771-18.877,0.506-27.809c-0.109-4.469-0.32-9.036-0.784-13.945
			c-0.434-4.913-0.977-10.191-1.828-16.073c-0.434-2.906-0.913-7.159-1.662-12.929c-0.799-5.765-1.529-13.076-2.486-22.104
			c-0.132-1.433-0.365-3.161-0.489-4.928c-0.131-1.768-0.266-3.588-0.387-5.231c-0.253-3.285-0.45-5.857-0.45-5.857
			s-0.199-3.075-0.44-6.801c-0.127-3.743-0.275-8.14-0.363-10.75c-0.109-3.384-0.203-6.329-0.286-8.906
			c-0.016-0.784-0.023-1.535-0.027-2.255c-7.146-5.235-10.301-12.516-10.301-12.516C80.446,482.678,78.924,472.559,78.452,461.759"
			/>
		<path fill="#F7ECC9" d="M123.763,270.227c0,0-35.688-60.259-44.266-105.236C67.164,100.325,106.495,0,106.495,0H0v230.893
			c0,0,5.067,22.398,32.43,56c38,46.667,100.667,94,100.667,94L123.763,270.227z"/>
		<path fill="#D3B37D" d="M95.763,369.56c0,0-30.197-20.137-49.333-52.667c-30-51-46.43-128-46.43-128v192
			c0,0,10.942,21.291,29.097,34c26.666,18.667,43.333,22.666,43.333,22.666L95.763,369.56z"/>
		<path fill="#FFF7D2" d="M580.429,490.894c0,0,24-6.667,36-14.667s23.571-18,23.571-18v77.334c0,0-9.571,7.332-21.571,10.666
			s-30,6-30,6L580.429,490.894z"/>
		<path fill="#FFF7D2" d="M517.762,382.227c0,0,69.334-45.333,86.667-59.333S640,290.228,640,290.228v96
			c0,0-34.238,36.668-57.571,49.334s-32.667,18.666-32.667,18.666s-2-46-21.333-48S517.762,382.227,517.762,382.227z"/>
		<path fill="#E5CFA2" d="M439.762,370.894c0,0,104.667-71.333,146.667-125.333s53.571-90,53.571-90v134.667
			c0,0-32.904,36-67.571,58.667s-90.667,56.667-90.667,56.667L439.762,370.894z"/>
		<path fill="#F0E1BD" d="M451.095,282.227c0,0,76.134-57.828,88.667-118C556.473,83.996,514.475,0,514.475,0L640,0v155.561
			c0,0-32.239,84.667-95.572,133.333s-91.333,53.333-91.333,53.333S417.762,298.894,451.095,282.227z"/>
		<path fill="#FFFFFF" d="M424.098,276.216c0,0,33.772-27.862,41.371-16.042c7.6,11.82-39.683,35.462-37.15,35.462
			C430.852,295.636,424.098,276.216,424.098,276.216z"/>
		<path fill="#FFFFFF" d="M428.318,295.636c0,0,64.17-43.061,70.924-29.552c6.754,13.509-64.169,51.504-64.169,51.504
			L428.318,295.636z"/>
		<path fill="#FFFFFF" d="M435.073,317.589c0,0,59.948-38.839,70.08-24.486c10.132,14.354-69.235,48.971-69.235,48.971
			L435.073,317.589z"/>
		<path fill="#FFFFFF" d="M439.296,341.229c0,0,46.437-26.173,54.881-10.976c8.443,15.198-56.57,36.306-56.57,36.306
			L439.296,341.229z"/>
		<path fill="#FFFFFF" d="M130.43,385.227c0,0-69.77-51.165-62.793-69.77c6.978-18.605,46.514,34.885,46.514,34.885
			s-50.39-55.041-35.66-65.894c14.729-10.853,33.334,27.908,33.334,27.908s-27.132-49.614-15.504-55.041
			c11.629-5.426,21.706,25.583,21.706,25.583L130.43,385.227z"/>
		<path fill="#FFF7D2" d="M173.216,472.748c8.698,17.235,17.894,33.049,27.083,47.366c16.54,22.54,35.426,47.775,50.828,67.008
			c1.623,1.813,3.196,3.543,4.706,5.182C232.458,563.19,197.379,516.816,173.216,472.748 M285.844,51.278
			c-32.132,0-117.414,24.282-117.414,24.282s-68.506,79.16-41.426,254.732c0.002-0.007,0.005-0.01,0.009-0.01
			c0.023-0.001,0.057,0.208,0.084,0.611l0,0c0.007,0.043,0.016,0.099,0.021,0.142c1.543,7.069,79.507,147.038,104.312,169.858
			c25,23,56,32,69,65c8.246,20.934,4.822,44.282-3.123,54.474c1.747-1.144,3.221-2.706,4.454-4.44
			c2.891-8.305,3.708-20.566,4.002-29.7c0.666-20.667-14-60-14-60s2-22.667,0-34c-0.492-2.79-1.106-5.702-1.752-8.506
			c-2.087-5.528-3.874-11.138-3.58-13.494c0.01-0.078,0.021-0.159,0.034-0.243c-0.434-1.527-0.702-2.424-0.702-2.424l0,0
			c0,0,6.653-14.019,9.746-36.385c2.087-15.096,2.553-33.995-1.746-54.948c-10.667-52-70-71.333-82-138.667
			s53.334-114.667,53.334-114.667s30,7.333,42,7.333s44.666-13.333,44.666-13.333l17.334-1.333c0,0,10.666-2,22.666-2
			s6.667,14,6.667,14l13.333-13.333c0,0,4-8,0.667-27.333s-94.667-32-121.333-35.333C289.563,51.368,287.804,51.278,285.844,51.278"
			/>
		<path fill="#D3B37D" d="M451.013,544.137c-1.251,20.294-8.338,41.683-10.156,46.894l0.005,0.014
			c1.995-5.532,10.235-29.099,10.235-40.818C451.097,548.487,451.074,546.442,451.013,544.137 M317.128,506.656
			c4.577,1.316,9.408,2.237,13.969,2.237l0,0c2.573-0.131,5.091-0.547,7.521-1.172c0.159-0.046,0.318-0.094,0.478-0.142
			c-2.319,0.374-4.781,0.576-7.392,0.576c-1.695,0-3.449-0.085-5.273-0.263C323.004,507.559,319.916,507.141,317.128,506.656
			 M286.496,469.797c-0.011,0.063-0.021,0.125-0.031,0.186c-0.013,0.084-0.024,0.165-0.034,0.243
			c-0.294,2.356,1.493,7.966,3.58,13.494c0.688,1.823,1.41,3.638,2.1,5.324c0.134-0.728,0.319-1.151,0.319-1.151L286.496,469.797
			 M294.686,449.174c-0.988,2.116-2.521,5.454-3.999,8.917l3.743-7.198L294.686,449.174 M300.36,411.072
			c-1.204,5.833-2.248,13.581-3.035,20.377L300.36,411.072 M341.628,368.214c-3.818,0-1.864,28.012-1.864,28.012l6,16.667
			c0,0-4,6-8,6.667c-0.072,0.013-0.154,0.019-0.243,0.019c-4.813,0-33.09-17.353-33.09-17.353c-0.156-0.112-0.312-0.166-0.468-0.166
			c-0.609,0-1.206,0.838-1.781,2.284l14.248,8.549c0,0-17,50,2,63c4.659,3.188,10.465,4.392,16.569,4.392
			c18.786,0,40.431-11.392,40.431-11.392l0,0l0,0c0,0-2.406,12.921-11.332,23.938c1.896-1.576,2.999-2.605,2.999-2.605l0,0
			c0,0,5.072,4.255,11.893,8.178c-6.956-5.237-11.893-8.178-11.893-8.178c1.565-0.686,4.291-1.025,7.831-1.025
			c20.574,0,68.529,11.509,74.502,33.692c0.091,0.337,0.177,0.674,0.26,1.016c-1.438-13.85-4.271-30.32-9.737-45.817
			c-6.357-14.506-21.522-32.198-21.522-32.198l0.281-1.503c-4.437-4.234-7.614-6.164-7.614-6.164s-1.039-7.272-4.115-16.076
			c-6.022-8.785-12.551-17.924-12.551-17.924l-24.667-10.666l0,0l0,0l-6-13.334l0,0l0,0l-22-12l0,0
			C341.718,368.218,341.673,368.214,341.628,368.214"/>
		<path fill="#F0E1BD" d="M414.46,275.086c-5.2,0.002-20.709,13.784-46.029,32.473c-28,20.667-26.667,60.667-26.667,60.667l0,0
			l22,12l6,13.334l24.667,10.666c0,0,6.528,9.139,12.551,17.924c1.432,2.088,2.835,4.156,4.115,6.076
			c0.483,0.725,1.039,1.061,1.656,1.061c3.306,0,8.343-9.646,13.082-20.862c6.584-15.583,12.596-34.198,12.596-34.198
			s-6-28.666-8-40.666s-14.667-58-14.667-58C415.444,275.241,415.011,275.086,414.46,275.086"/>
		<path fill="#F0E1BD" d="M142.43,130.893c0,0,39-50,48-31s12,22,23,9s27-31,31-18s20.667,32,20.667,32s-30.667,30-36.667,43
			s-27,36-32,11s-10-41-20-25s-33,54-40,30S142.43,130.893,142.43,130.893z"/>
		<path fill="#F0E1BD" d="M292.43,520.893c0,0-10-117-98-155c0,0-9,23,45,76s49,87,49,87L292.43,520.893z"/>
		<path fill="#F0E1BD" d="M127.013,330.282c-0.004,0-0.007,0.003-0.009,0.01c-0.203,0.52,0.644,20.134,16.391,69.792
			c2.835,8.942,6.152,18.854,10.035,29.81c4.797,13.535,11.676,28.062,19.786,42.854c24.163,44.068,59.242,90.442,82.617,119.556
			c4.707,5.861,8.934,11.018,12.508,15.32c0.721,0.796,1.417,1.553,2.089,2.27c8.573,9.145,15.265,12.408,20.455,12.408
			c2.467,0,4.595-0.738,6.422-1.935c7.945-10.191,11.369-33.54,3.123-54.474c-13-33-44-42-69-65
			c-24.805-22.82-102.769-162.789-104.312-169.858c-0.012-0.056-0.019-0.103-0.021-0.142l0,0
			C127.069,330.49,127.036,330.281,127.013,330.282"/>
		<g>
			<defs>
				<path id="SVGID_1_" d="M160.488,464.975c-0.007,0.025-0.014,0.051-0.021,0.075c1.044,4.326,23.573,96.9,48.962,140.843
					c5.157,8.925,21,34.107,21,34.107h84c0,0-2.958-19.449-7-38.107c0,0-1.409,8.046-5.669,14.033
					c-1.907,5.483-4.72,9.241-8.883,9.241c-0.459,0-0.934-0.046-1.426-0.14c-0.995,0.375-2.023,0.571-3.074,0.571
					c-2.549,0-5.235-1.152-7.948-3.706c0,0-4.598-5.248-12.089-14.27c-4.825-5.328-10.709-12.38-17.214-20.502
					c-14.202-15.871-32.496-38.447-50.828-67.008C179.02,491.115,161.62,466.574,160.488,464.975"/>
			</defs>
			<clipPath id="SVGID_2_">
				<use xlink:href="#SVGID_1_"  overflow="visible"/>
			</clipPath>
			<rect x="160.468" y="464.975" clip-path="url(#SVGID_2_)" fill="#D2B272" width="153.962" height="175.025"/>
		</g>
		<path fill="#E9D294" d="M301.761,615.926c-1.233,1.734-2.707,3.297-4.454,4.44c-1.757,2.254-3.733,3.862-5.854,4.661
			c0.492,0.094,0.967,0.14,1.426,0.14C297.041,625.167,299.854,621.41,301.761,615.926 M200.299,520.114
			c18.332,28.561,36.626,51.137,50.828,67.008C235.725,567.889,216.839,542.654,200.299,520.114"/>
		<path fill="#DCC085" d="M268.341,607.624c7.491,9.021,12.089,14.27,12.089,14.27c2.713,2.554,5.399,3.706,7.948,3.706
			c1.051,0,2.079-0.196,3.074-0.571c2.121-0.799,4.098-2.407,5.854-4.661c-1.827,1.196-3.955,1.935-6.422,1.935
			c-5.19,0-11.882-3.264-20.455-12.408C269.758,609.176,269.062,608.419,268.341,607.624"/>
		<path fill="#A7BEAA" d="M110.787,404.219c-2.736,0-5.527,0.524-8.357,1.674c-21.506,8.736-24.945,33.732-23.978,55.866
			c0.17-0.964,0.346-1.918,0.526-2.866c0.433-2.224,0.876-4.412,1.404-6.596c0.537-2.185,1.111-4.364,1.725-6.573
			c1.209-4.416,2.662-8.95,4.321-13.831c0.374,2.342,0.733,4.594,1.082,6.782c4.182-4.672,19.737-21.704,33.408-32.129
			C117.65,405.065,114.262,404.219,110.787,404.219"/>
		<path fill="#D2B272" d="M120.919,406.546c-13.671,10.425-29.227,27.457-33.408,32.129c0.409,2.563,0.805,5.04,1.191,7.468
			c0.342,2.249,0.648,4.457,0.919,6.657c0.279,2.201,0.568,4.398,0.793,6.62c0.467,4.444,0.726,8.992,0.995,13.914
			c0.115,2.46,0.188,5.014,0.219,7.692c0.004,1.34,0.009,2.711,0.013,4.118c0.018,1.405,0.034,2.847,0.053,4.328
			c0.007,2.008,0.016,4.645,0.029,8.478c0.01,1.333-0.001,2.812,0.008,4.458c4.013,2.94,9.284,5.236,15.963,5.236
			c5.57,0,12.121-1.598,19.736-5.752c23.592-12.868,30.829-28.803,33.038-36.843c-0.025-0.104-0.038-0.157-0.038-0.157
			s0.02,0.027,0.059,0.082c0.861-3.162,0.941-5.082,0.941-5.082S144.182,417.093,120.919,406.546"/>
		<path d="M86.429,431.893c-1.659,4.881-3.112,9.415-4.321,13.831c-0.613,2.209-1.188,4.389-1.725,6.573
			c-0.528,2.184-0.972,4.372-1.404,6.596c-0.181,0.948-0.356,1.902-0.526,2.866c0.472,10.8,1.994,20.919,2.978,28.134
			c0,0,3.155,7.28,10.301,12.516c-0.009-1.646,0.002-3.125-0.008-4.458c-0.014-3.833-0.022-6.47-0.029-8.478
			c-0.019-1.481-0.035-2.923-0.053-4.328c-0.004-1.407-0.009-2.778-0.013-4.118c-0.03-2.679-0.104-5.232-0.219-7.692
			c-0.27-4.922-0.528-9.47-0.995-13.914c-0.225-2.222-0.514-4.419-0.793-6.62c-0.271-2.2-0.577-4.408-0.919-6.657
			c-0.387-2.428-0.782-4.904-1.191-7.468C87.162,436.487,86.803,434.235,86.429,431.893"/>
		<path fill="#C19950" d="M160.43,464.893c0,0,0.013,0.054,0.038,0.157c0.007-0.024,0.014-0.05,0.021-0.075
			C160.449,464.92,160.43,464.893,160.43,464.893"/>
		<path fill="#FFFFFF" d="M51.235,432.878c0,0,0.73-40.137,18.244-56.921c17.515-16.783,33.569-15.324,46.704-2.189
			c13.136,13.136,46.085,76.368,40.246,85.125c-5.838,8.757-32.947-45.717-33.678-43.527s26.895,53.879,16.678,57.527
			c-10.218,3.648-34.922-61.907-34.922-61.907s29.919,71.517,16.055,75.165c-9.6,2.525-26.271-43.785-35.758-62.029
			c-1.065-2.047,30.49,68.394,16.625,72.771c-13.865,4.379-22.463-39.203-22.463-39.203S56.343,475.204,51.235,432.878z"/>
		<path fill="#D2B272" d="M367.097,490.226L367.097,490.226c0,0-1.436,1.553-3.968,3.764c-5.449,6.304-13.144,11.791-23.886,13.565
			c-0.208,0.057-0.416,0.112-0.626,0.166c-2.543,0.737-5.078,1.172-7.521,1.172l0,0c-0.766,0.039-1.526,0.058-2.28,0.058
			c-7.673,0-14.644-1.941-20.185-4.222c-6.476-1.883-10.496-4.216-12.958-6.537l-3.244,22.701c0,0,10.838,12.282,28.827,12.282
			c3.176,0,6.572-0.382,10.173-1.282c24-6,41-17,41-17s26,34,39,64s20,48,20,48l12-29l-2.568-6.849
			c-0.271,0.753-0.427,1.172-0.431,1.182l0,0l0,0l0,0c0,0-9.085-26.646-23.789-52.521
			C402.949,524.124,367.097,490.226,367.097,490.226"/>
		<path fill="#C19A57" d="M440.856,591.031c-0.269,0.769-0.422,1.186-0.426,1.195c0.004-0.01,0.159-0.429,0.431-1.182
			L440.856,591.031 M338.617,507.721c-2.43,0.625-4.947,1.041-7.521,1.172l0,0l0,0C333.539,508.893,336.074,508.458,338.617,507.721
			 M367.097,490.226L367.097,490.226L367.097,490.226c0,0,35.853,33.897,49.545,49.479c-0.725-1.274-1.461-2.545-2.212-3.812
			c-9.648-16.282-24.873-29.534-35.44-37.489C372.169,494.481,367.097,490.226,367.097,490.226"/>
		<path fill="#A7BEAA" d="M520.872,461.257c1.642,8.099,3.572,18.754,5.558,30.645v-25.009
			C526.43,466.893,524.301,464.719,520.872,461.257 M441.43,407.893L441.43,407.893L441.43,407.893
			c10.409,2.498,24.457,7.249,37.673,12.956c-3.496-3.064-6.224-5.231-7.673-5.956C463.43,410.893,441.43,407.893,441.43,407.893"/>
		<path fill="#D2B272" d="M441.43,407.893l-17,6l-5.719,30.497c6.315,6.027,15.18,16.725,21.053,33.17
			c0.062,0.176,0.126,0.354,0.188,0.531c0.568,1.297,1.067,2.57,1.478,3.802c0,0,7.934,4.348,15.521,4.348
			c1.179,0,2.349-0.105,3.479-0.348c14-3,13-20,13-20s14.655,21.431,21,25c11.076,6.23,22.153,7.189,27.922,7.189
			c2.564,0,4.078-0.189,4.078-0.189v-5.991c-1.985-11.891-3.916-22.546-5.558-30.645c-9.765-9.857-30.069-30.154-41.77-40.408
			C465.887,415.142,451.839,410.391,441.43,407.893L441.43,407.893"/>
		<path fill="#C19A57" d="M418.711,444.39l-0.281,1.503c0,0,15.165,17.692,21.522,32.198c-0.062-0.177-0.126-0.355-0.188-0.531
			C433.891,461.115,425.026,450.417,418.711,444.39"/>
		<path fill="#A7BEAA" d="M534.43,499.893l-6.561,0.787c5.23,32.477,10.446,71.206,11.434,92.352
			c1.356-0.011,2.127-0.139,2.127-0.139L534.43,499.893"/>
		<path fill="#D2B272" d="M527.869,500.68l-18.439,2.213c0,0-0.778-0.139-2.005-0.139c-6.133,0-23.496,3.47-10.995,45.139
			c12.5,41.666,35.416,45.139,42.708,45.139c0.056,0,0.111,0,0.165,0C538.315,571.886,533.1,533.157,527.869,500.68"/>
		<path d="M528.429,458.893c-1.286,10.238-2.365,18.758-2.827,27.707c-0.257,4.477-0.351,9.056-0.254,14
			c0.069,4.948,0.264,10.27,0.702,16.219c0.146,2.016,0.337,4.664,0.614,8.512c0.241,3.852,0.557,8.904,0.983,15.728
			c0.013,0.977,0.252,3.279,0.252,3.279s0.028,0.812,0.06,1.705c0.032,0.535,0.065,1.096,0.094,1.57
			c0.399,7.877,0.763,15.046,1.067,21.052c0.303,6.008,0.56,10.852,0.646,14.082c0.219,5.963,0.578,11.275,1.081,16.202
			c0.252,2.464,0.54,4.83,0.864,7.134c0.34,2.281,0.672,4.507,1,6.71c0.332,2.178,0.702,4.332,1.11,6.498
			c0.213,1.083,0.426,2.169,0.64,3.261c0.187,1.09,0.373,2.187,0.562,3.293c0.409,2.224,0.826,4.489,1.256,6.829
			c0.355,2.338,0.832,4.772,1.149,7.327c0.921-2.417,1.618-4.788,2.365-7.104c0.694-2.318,1.258-4.583,1.834-6.829
			c0.275-1.129,0.548-2.246,0.818-3.356c0.21-1.118,0.419-2.229,0.628-3.338c0.399-2.227,0.761-4.461,1.084-6.732
			c0.349-2.287,0.566-4.559,0.736-6.887c0.178-2.333,0.315-4.729,0.411-7.223c0.19-4.987,0.212-10.359,0.052-16.377
			c-0.056-3.261-0.29-8.147-0.577-14.207c-0.298-6.059-0.599-13.294-1.042-21.236c-0.032-0.479-0.07-1.044-0.106-1.584
			c-0.083-0.898-0.158-1.715-0.158-1.715s-0.055-2.333-0.167-3.312c-0.445-6.882-0.775-11.979-1.027-15.864
			c-0.271-3.884-0.513-6.553-0.672-8.587c-0.503-6-1.083-11.339-1.849-16.273c-0.794-4.934-1.707-9.464-2.761-13.851
			C534.842,476.755,532.091,468.542,528.429,458.893z"/>
		<path fill="#FFFFFF" d="M485.763,465.042c0,0,0-76.681,21.809-88.641s44.321,10.552,55.577,33.768
			c11.255,23.216-11.257,75.273-17.588,74.57c-6.332-0.703,1.406-60.501,1.406-60.501s-12.662,66.832-23.918,63.315
			c-11.256-3.518,4.221-65.426,4.221-65.426s-10.553,63.316-21.809,59.798s4.925-66.129,4.925-66.129
			S500.536,471.373,485.763,465.042z"/>
		<path fill="#FFFFFF" d="M570.119,484.232c-20.484,1.639-72.282,12.047-71.573,22.677c0.709,10.629,65.905-2.835,65.905-2.835
			s-63.78,9.921-62.362,19.842s69.448,2.126,69.448,2.126s-65.196,5.669-63.07,17.008s61.652,2.835,61.652,2.835
			s-58.818,6.377-57.4,17.716s80.786,0,82.912-2.834S605.553,481.397,570.119,484.232z"/>
		<path fill="#9A9F77" d="M297.325,431.449l-0.009,0.06h0.002C297.321,431.488,297.323,431.469,297.325,431.449 M301.43,403.893
			l-1.069,7.179c0.574-2.782,1.185-5.127,1.821-6.728L301.43,403.893"/>
		<path fill="#BD944F" d="M295.764,497.56c0,0,4.987,3.927,12.868,7.169c2.46,0.715,5.276,1.366,8.496,1.927
			C305.646,503.353,295.764,497.56,295.764,497.56 M364.098,492.832c-4.866,4.045-14.954,11.689-25.003,14.748
			c0.049-0.009,0.1-0.017,0.148-0.024c10.361-2.832,19.091-9.379,23.886-13.565C363.46,493.606,363.783,493.22,364.098,492.832
			 M292.11,489.044c-0.331,1.801-0.346,5.461,3.563,9.147l0.09-0.632C295.764,497.56,294.062,493.817,292.11,489.044
			 M290.687,458.091l-4.924,9.468l0,0l0.733,2.238C286.948,467.261,288.773,462.571,290.687,458.091 M297.316,431.508l-2.631,17.666
			c0.66-1.412,1.078-2.281,1.078-2.281s0.58-6.954,1.555-15.385H297.316"/>
		<path fill="#AF813C" d="M302.182,404.344c-0.637,1.601-1.247,3.945-1.821,6.728l-3.035,20.377
			c-0.002,0.021-0.004,0.039-0.007,0.06c-0.975,8.431-1.555,15.385-1.555,15.385s-0.418,0.869-1.078,2.281l-0.256,1.719
			l-3.743,7.198c-1.913,4.479-3.738,9.17-4.19,11.706l5.934,18.096c0,0-0.186,0.424-0.319,1.151
			c1.952,4.772,3.653,8.516,3.653,8.516l0,0l0,0c0,0,9.883,5.793,21.364,9.096c2.788,0.485,5.876,0.903,9.302,1.237
			c1.824,0.178,3.578,0.263,5.273,0.263c2.61,0,5.072-0.202,7.392-0.576c10.049-3.059,20.137-10.703,25.003-14.748
			c8.926-11.018,11.332-23.938,11.332-23.938s-21.645,11.392-40.431,11.392c-6.104,0-11.91-1.203-16.569-4.392c-19-13-2-63-2-63
			L302.182,404.344"/>
		<path fill="#AD8038" d="M295.764,497.56l-0.09,0.632c2.462,2.321,6.482,4.654,12.958,6.537
			C300.751,501.487,295.764,497.56,295.764,497.56L295.764,497.56L295.764,497.56 M363.129,493.99
			c-4.795,4.187-13.524,10.733-23.886,13.565C349.985,505.781,357.68,500.293,363.129,493.99"/>
		<path fill="#BD944F" d="M432.113,567.716l3.409,9.091C434.517,573.954,433.375,570.875,432.113,567.716 M421.873,546.777
			c0.583,0.964,1.138,1.887,1.658,2.757C422.987,548.589,422.435,547.668,421.873,546.777 M449.689,523.909
			c0.809,7.784,1.176,14.741,1.323,20.229C451.451,537.011,451.171,530.017,449.689,523.909"/>
		<path fill="#AF813C" d="M374.928,489.201c-3.54,0-6.266,0.34-7.831,1.025c0,0,4.937,2.94,11.893,8.178
			c2.914,1.677,6.147,3.292,9.44,4.489c7.701,2.801,24.226,28.639,33.443,43.884c0.562,0.892,1.114,1.812,1.658,2.757
			c3.004,5.028,4.898,8.359,4.898,8.359l3.684,9.823c1.262,3.158,2.403,6.237,3.409,9.091l5.334,14.224
			c1.818-5.211,8.905-26.6,10.156-46.894c-0.147-5.487-0.515-12.444-1.323-20.229c-0.083-0.342-0.169-0.679-0.26-1.016
			C443.457,500.709,395.502,489.201,374.928,489.201"/>
		<path fill="#AD8038" d="M440.431,592.226L440.431,592.226L440.431,592.226 M416.642,539.706
			c14.704,25.874,23.789,52.521,23.789,52.521s-1.807-6.624-4.908-15.419l-3.409-9.091c-2.454-6.145-5.357-12.579-8.582-18.183
			c-0.521-0.87-1.075-1.793-1.658-2.757c-1.532-2.436-3.129-4.657-4.776-6.551C416.947,540.055,416.796,539.881,416.642,539.706"/>
		<path fill="#A06F2C" d="M435.522,576.807c3.102,8.795,4.908,15.419,4.908,15.419l0,0l0,0l0,0c0.004-0.01,0.157-0.427,0.426-1.195
			L435.522,576.807 M423.531,549.534c3.225,5.604,6.128,12.038,8.582,18.183l-3.684-9.823
			C428.43,557.893,426.535,554.562,423.531,549.534 M378.989,498.404c10.567,7.955,25.792,21.207,35.44,37.489
			c0.751,1.268,1.487,2.538,2.212,3.812c0.154,0.176,0.306,0.35,0.455,0.521c1.647,1.894,3.244,4.115,4.776,6.551
			c-9.218-15.245-25.742-41.083-33.443-43.884C385.137,501.696,381.903,500.081,378.989,498.404"/>
		<path d="M397.43,126.394c5.151,0.385,10.373-1,14.664-4.209c2.14-1.6,3.963-3.686,5.372-6.021
			c1.412-2.339,2.396-4.918,3.024-7.561c0.602-2.644,0.838-5.335,0.844-8.058c-0.044-2.7-0.307-5.44-0.833-8.172
			c-0.231-1.388-0.599-2.725-0.928-4.134c-0.215-0.739-0.475-1.517-0.726-2.285c-0.13-0.386-0.261-0.774-0.392-1.165
			c-0.148-0.384-0.321-0.761-0.485-1.145c-1.237-3.112-3.116-6.109-5.356-8.975c-2.429-3.109-6.64-7.257-12.444-10.999
			c-2.908-1.824-6.172-3.631-9.738-5.211l-0.334-0.155l-1.145-0.48c-0.818-0.338-1.641-0.679-2.465-1.02
			c-1.661-0.599-3.329-1.276-5.025-1.801c-3.384-1.163-6.841-2.072-10.346-2.96c-7.016-1.682-14.24-2.891-21.616-3.786
			c-14.753-1.729-30.108-2.207-45.81-1.886c-15.705,0.317-31.763,1.434-47.967,3.135c-16.207,1.707-32.557,3.979-48.868,6.858
			c-8.166,1.449-16.286,3.017-24.5,4.954l-3.111,0.773l-0.784,0.202l-0.938,0.299l-1.887,0.627c-1.285,0.38-2.428,0.983-3.607,1.535
			c-0.579,0.289-1.189,0.546-1.736,0.871l-1.62,0.997c-4.295,2.692-7.884,6-10.92,9.492c-3.004,3.515-5.563,7.201-7.844,10.945
			c-2.201,3.766-4.228,7.567-5.964,11.411c-3.548,7.674-6.286,15.433-8.707,23.129c-4.745,15.412-7.98,30.628-10.508,45.285
			c-0.629,3.664-1.21,7.296-1.751,10.876c-0.535,3.569-1.062,7.094-1.538,10.62c-0.963,7.029-1.758,13.9-2.413,20.575
			c-1.334,13.349-2.082,25.923-2.497,37.481c-0.813,23.122-0.149,42.174,0.672,55.406c0.224,3.308,0.422,6.255,0.595,8.814
			c0.223,2.557,0.412,4.727,0.565,6.483s0.271,3.101,0.35,4.005c0.094,0.903,0.143,1.368,0.143,1.368s0.201,1.859,0.58,5.367
			c0.337,3.512,1.018,8.657,1.888,15.24c0.465,3.287,1.06,6.924,1.666,10.897c0.636,3.971,1.465,8.252,2.277,12.85
			c1.851,9.154,4.008,19.525,7.091,30.745c1.421,5.639,3.268,11.435,5.057,17.483c2.009,5.986,3.992,12.224,6.429,18.53
			c0.587,1.583,1.179,3.179,1.775,4.786c0.614,1.601,1.297,3.189,1.949,4.803c0.661,1.609,1.327,3.23,1.997,4.862
			c0.662,1.634,1.339,3.275,2.1,4.895c1.479,3.256,2.976,6.553,4.49,9.888c1.639,3.278,3.296,6.594,4.971,9.943l0.629,1.258
			l0.18,0.359l0.115,0.229l0.173,0.296l0.393,0.667c0.474,0.801,0.948,1.603,1.424,2.406c0.956,1.598,1.916,3.203,2.88,4.815
			c1.948,3.207,3.913,6.443,5.895,9.707c3.989,6.506,8.09,13.088,12.3,19.72c8.421,13.263,17.261,26.735,26.554,40.167
			c9.309,13.424,19.021,26.831,29.543,39.774c5.287,6.459,10.738,12.821,16.7,18.894c2.985,3.034,6.091,6,9.462,8.834
			c3.379,2.826,7.004,5.546,11.482,7.853c2.291,1.118,4.797,2.173,7.938,2.712c0.821,0.102,1.636,0.212,2.47,0.251
			c0.855-0.005,1.693,0.004,2.561-0.079c0.888-0.131,1.766-0.227,2.646-0.47c0.876-0.273,1.776-0.485,2.6-0.897
			c3.417-1.479,6.027-4.001,7.755-6.448c1.756-2.478,2.842-4.953,3.68-7.333c1.582-4.753,2.205-9.23,2.519-13.563
			c0.308-4.337,0.274-8.54,0.04-12.652c-0.472-8.224-1.682-16.108-3.273-23.735c-0.803-3.812-1.69-7.562-2.691-11.237
			c-0.506-1.836-1.006-3.664-1.558-5.465c-0.274-0.901-0.531-1.805-0.823-2.695c-0.209-0.657-0.418-1.312-0.626-1.964
			c-5.035-15.669-11.193-27.843-14.54-33.782c-6.201-10.961-12.823-18.776-20.413-24.69c-3.798-2.941-7.854-5.396-12.283-7.3
			c-4.413-1.907-9.286-3.168-14.423-3.539c4.379,2.757,7.763,5.801,10.68,8.985c2.915,3.184,5.411,6.44,7.838,9.854
			c4.822,6.842,9.444,14.3,14.953,24.249c2.957,5.378,8.582,16.532,13.242,31.067c0.192,0.604,0.386,1.211,0.579,1.818
			c0.271,0.824,0.508,1.662,0.762,2.496c0.512,1.668,0.973,3.359,1.44,5.058c0.927,3.4,1.743,6.861,2.48,10.363
			c1.464,7.001,2.555,14.205,2.964,21.399c0.207,3.593,0.223,7.18-0.025,10.646c-0.101,1.746-0.335,3.417-0.588,5.061
			c-0.3,1.604-0.658,3.159-1.122,4.532c-0.471,1.348-1.044,2.519-1.594,3.282c-0.562,0.784-0.984,1.063-1.242,1.182l-0.227,0.083
			c-0.078,0.039-0.209,0.005-0.304,0.057c-0.127,0.01-0.295-0.017-0.44,0.013c-0.164-0.015-0.343-0.062-0.519-0.06
			c-0.822-0.134-2.086-0.591-3.401-1.242c-2.691-1.378-5.626-3.472-8.444-5.855c-2.834-2.381-5.618-5.027-8.342-7.797
			c-5.453-5.548-10.659-11.609-15.732-17.807c-10.124-12.446-19.661-25.591-28.813-38.787
			c-9.146-13.211-17.887-26.521-26.219-39.638c-4.167-6.559-8.228-13.072-12.176-19.508c-1.96-3.225-3.904-6.423-5.83-9.592
			c-0.951-1.589-1.897-3.17-2.84-4.744c-0.466-0.786-0.93-1.57-1.394-2.352l-0.307-0.521l-0.167-0.335l-0.6-1.2
			c-1.6-3.195-3.183-6.357-4.747-9.485c-1.448-3.186-2.88-6.336-4.293-9.446c-0.729-1.546-1.376-3.116-2.01-4.682
			c-0.642-1.562-1.279-3.112-1.913-4.652c-0.625-1.544-1.28-3.062-1.869-4.596c-0.572-1.541-1.14-3.07-1.703-4.589
			c-2.339-6.038-4.242-12.032-6.177-17.776c-1.719-5.817-3.502-11.383-4.869-16.816c-2.976-10.797-5.06-20.81-6.854-29.649
			c-0.785-4.445-1.59-8.581-2.207-12.422c-0.588-3.847-1.166-7.364-1.618-10.548c-0.845-6.377-1.509-11.361-1.836-14.769
			c-0.37-3.402-0.566-5.204-0.566-5.204s-0.047-0.451-0.138-1.327c-0.076-0.878-0.189-2.183-0.337-3.888
			c-0.147-1.706-0.331-3.812-0.546-6.293c-0.166-2.486-0.357-5.349-0.572-8.562c-0.792-12.854-1.43-31.388-0.628-53.905
			c0.41-11.254,1.144-23.504,2.447-36.49c0.64-6.494,1.414-13.17,2.354-19.997c0.46-3.405,0.981-6.883,1.51-10.396
			c0.53-3.501,1.095-7.021,1.706-10.57c2.445-14.18,5.583-28.827,10.044-43.29c2.267-7.202,4.819-14.392,7.979-21.211
			c1.55-3.433,3.312-6.708,5.165-9.893c1.909-3.127,3.983-6.081,6.239-8.729c2.271-2.619,4.765-4.829,7.364-6.458l0.973-0.615
			c0.325-0.2,0.669-0.317,0.999-0.485c0.669-0.302,1.317-0.692,2.008-0.857l1.014-0.342l0.515-0.18l0.698-0.18l2.83-0.702
			c7.684-1.811,15.646-3.354,23.587-4.76c15.912-2.806,31.946-5.032,47.775-6.698c15.83-1.661,31.478-2.745,46.645-3.051
			c15.162-0.313,29.863,0.162,43.635,1.774c6.874,0.833,13.512,1.95,19.781,3.451c3.113,0.791,6.178,1.591,9.071,2.59
			c1.477,0.451,2.859,1.026,4.274,1.527c0.685,0.283,1.366,0.566,2.045,0.847l0.949,0.395l0.27,0.126
			c2.927,1.29,5.466,2.709,7.682,4.077c4.361,2.818,7.17,5.608,8.75,7.587c1.448,1.838,2.713,3.624,3.6,5.496l0.365,0.683
			l0.297,0.706c0.207,0.471,0.412,0.937,0.615,1.397c0.365,1.079,0.813,2.14,1.134,3.17c0.718,2.069,1.264,4.036,1.735,5.945
			c0.418,1.896,0.746,3.73,0.896,5.519c0.237,3.543-0.094,6.956-1.878,10.334C405.45,121.04,402.147,124.33,397.43,126.394z"/>
		<path d="M403.929,106.393c-2.366,0.444-4.169,0.248-5.475,0.269c-1.316-0.004-2.157,0.087-2.765,0.646
			c-0.154,0.161-0.446,0.355-0.754,0.645c-0.156,0.144-0.375,0.26-0.577,0.415c-0.209,0.148-0.415,0.324-0.688,0.456
			c-0.958,0.66-2.393,1.167-3.814,1.62c-1.477,0.385-3.014,0.602-4.179,0.709c-1.193,0.059-1.964,0.097-1.964,0.097
			c-0.007-0.009-0.174,0.029-0.557-0.005c-0.373-0.021-0.909-0.052-1.561-0.088c-0.65-0.034-1.417-0.073-2.252-0.116
			c-0.417-0.021-0.852-0.042-1.297-0.063c-0.425-0.067-0.861-0.136-1.302-0.206c-0.882-0.131-1.784-0.265-2.661-0.396
			c-0.857-0.159-1.62-0.417-2.359-0.587c-0.366-0.09-0.716-0.177-1.043-0.258c-0.329-0.079-0.579-0.213-0.839-0.3
			c-0.504-0.19-0.914-0.334-1.191-0.423c-0.541-0.144-0.96-0.223-1.467-0.152c-0.492,0.063-1.09,0.276-1.692,0.548
			c-0.59,0.265-1.288,0.624-2.137,1.033c-0.793,0.389-1.765,0.85-2.925,1.157c-0.372,1.159-0.48,2.264-0.479,3.312
			c0.007,0.992,0.139,1.916,0.401,2.761c0.264,0.831,0.64,1.479,1.154,2.095c0.514,0.601,1.169,1.149,1.95,1.45
			c0.425,0.182,1.068,0.444,1.872,0.758c0.4,0.146,0.846,0.353,1.313,0.48c0.468,0.126,0.968,0.262,1.49,0.403
			c1.045,0.262,2.197,0.613,3.364,0.83c1.162,0.172,2.356,0.349,3.525,0.522c0.584,0.083,1.162,0.164,1.726,0.243
			c0.554,0.026,1.093,0.052,1.61,0.076c1.036,0.044,1.988,0.084,2.796,0.118c0.808,0.031,1.473,0.056,1.935,0.074
			c0.229,0.011,0.413,0.014,0.549,0.003c0.131-0.005,0.2-0.008,0.2-0.008s1.113-0.041,2.839-0.103
			c1.743-0.135,4.14-0.429,6.682-1.088c2.535-0.738,5.21-1.742,7.323-3.131c0.541-0.299,1.026-0.666,1.483-1
			c0.453-0.342,0.89-0.635,1.254-0.961c0.727-0.655,1.319-1.168,1.671-1.566c1.332-1.433,1.825-3.079,1.607-4.83
			C406.464,110.095,405.599,108.166,403.929,106.393z"/>
		<path d="M391.43,93.893c-7.512-0.132-12.16,0.032-18.52,3.587c-0.862,0.477-2.157,1.192-3.762,2.079
			c-1.613,0.868-3.539,1.903-5.654,3.041c-4.265,2.195-9.312,4.757-14.234,6.923c-1.229,0.544-2.438,1.104-3.629,1.612
			c-1.194,0.489-2.36,0.965-3.479,1.423c-2.23,0.955-4.312,1.673-6.071,2.321c-0.881,0.322-1.683,0.616-2.391,0.875
			c-0.713,0.226-1.331,0.421-1.839,0.582c-1.015,0.319-1.587,0.5-1.587,0.5s-0.572,0.177-1.589,0.492
			c-1.014,0.35-2.481,0.694-4.262,1.139c-0.891,0.224-1.859,0.467-2.891,0.726c-1.031,0.21-2.122,0.385-3.261,0.597
			c-1.156,0.187-2.28,0.465-3.578,0.604c-1.28,0.156-2.594,0.316-3.921,0.478c-2.661,0.379-5.356,0.513-7.985,0.749
			c-1.317,0.127-2.59,0.111-3.841,0.175c-1.244,0.03-2.471,0.128-3.606,0.08c-1.143-0.016-2.235-0.03-3.26-0.044
			c-1.026-0.005-1.943-0.12-2.802-0.162c-1.725-0.077-3.045-0.271-3.932-0.381c-1.674-0.146-3.035-0.361-4.427-0.318
			c-1.294-0.081-2.6,0.046-3.831,0.122l-0.971,0.104l-0.949,0.079c-0.337,0.035-0.674,0.07-1.015,0.105
			c-0.336,0.02-0.675,0.04-1.018,0.061c-1.407,0.046-2.976,0.153-4.696-0.546c-0.058,0.962,0.202,1.899,0.496,2.803
			c0.322,0.86,0.721,1.751,1.195,2.488c0.235,0.383,0.482,0.762,0.743,1.137c0.263,0.349,0.537,0.677,0.822,1.008
			c0.285,0.33,0.581,0.655,0.889,0.974c0.307,0.295,0.623,0.568,0.949,0.844c1.317,1.153,2.77,1.971,4.428,2.753
			c1.626,0.627,3.481,1.267,5.51,1.514c0.554,0.08,1.247,0.179,2.059,0.295c0.814,0.122,1.721,0.154,2.74,0.244
			c1.011,0.062,2.14,0.195,3.313,0.21c1.177,0.02,2.431,0.042,3.744,0.064c1.322,0.051,2.659-0.048,4.057-0.082
			c1.387-0.067,2.837-0.061,4.265-0.196c2.861-0.252,5.835-0.418,8.666-0.825c1.424-0.178,2.832-0.354,4.205-0.526
			c1.361-0.151,2.782-0.478,4.096-0.699c1.324-0.25,2.604-0.467,3.79-0.717c1.163-0.295,2.257-0.573,3.261-0.828
			c2.008-0.51,3.667-0.917,4.77-1.3c1.119-0.352,1.75-0.55,1.75-0.55s0.632-0.195,1.752-0.542c0.56-0.175,1.241-0.388,2.027-0.634
			c0.77-0.277,1.641-0.59,2.597-0.934c1.91-0.692,4.181-1.473,6.562-2.479c1.2-0.486,2.45-0.993,3.731-1.513
			c1.271-0.537,2.553-1.125,3.859-1.7c5.235-2.291,10.535-4.971,15.001-7.284c2.208-1.198,4.23-2.266,5.897-3.206
			c1.662-0.95,3.002-1.716,3.895-2.227C386.016,105.108,388.559,100.849,391.43,93.893z"/>
		<path d="M317.43,91.892c-4.647,0.23-8.939,0.923-13.047,1.782c-2.046,0.453-4.038,0.983-6.04,1.526
			c-1.961,0.613-3.917,1.263-5.893,1.963c-7.799,2.96-15.643,7.147-24.556,13.942c-0.751,0.58-1.62,1.251-2.66,2.054
			c-0.516,0.406-1.09,0.827-1.684,1.321c-0.586,0.503-1.219,1.047-1.906,1.636c-1.372,1.182-2.958,2.547-4.809,4.141
			c-1.826,1.619-3.795,3.597-6.121,5.802c-2.243,2.047-4.426,4.509-6.827,7.061c-1.181,1.294-2.459,2.575-3.656,3.988
			c-1.184,1.424-2.399,2.886-3.642,4.38c-1.231,1.502-2.53,3.007-3.779,4.597c-1.197,1.627-2.418,3.284-3.657,4.967
			c-1.235,1.695-2.499,3.366-3.758,5.15c-0.617,0.943-1.238,1.892-1.862,2.845c-0.628,0.953-1.168,1.949-1.759,2.93
			c-9.173,15.848-14.308,34.555-16.406,51.96c-1.013,8.72-1.269,17.143-0.936,24.826c0.323,7.686,1.304,14.626,2.478,20.418
			c1.189,5.795,2.652,10.423,3.712,13.607c1.16,3.162,1.846,4.904,1.847,4.904c0,0,0.632,1.442,1.78,4.065
			c0.637,1.291,1.42,2.872,2.383,4.689c1.044,1.785,2.174,3.849,3.69,6.007c0.367,0.545,0.743,1.103,1.129,1.674
			c0.421,0.55,0.852,1.112,1.292,1.687c0.441,0.573,0.893,1.157,1.353,1.753c0.474,0.586,1.003,1.153,1.518,1.745
			c0.521,0.587,1.053,1.185,1.593,1.793c0.533,0.567,1.062,1.083,1.605,1.641c1.084,1.099,2.202,2.231,3.35,3.394
			c1.134,1.182,2.367,2.297,3.597,3.481c1.241,1.166,2.492,2.398,3.801,3.581c2.615,2.376,5.33,4.845,8.125,7.29
			c5.568,4.935,11.411,9.957,16.741,15.307c5.326,5.355,10.113,11.082,13.748,17.389c3.677,6.28,6.285,13.064,8.302,19.74
			c0.432,1.703,0.857,3.384,1.277,5.038c0.203,0.831,0.439,1.641,0.611,2.47c0.154,0.835,0.307,1.664,0.457,2.485
			c0.304,1.642,0.603,3.253,0.895,4.831c0.073,0.395,0.146,0.786,0.22,1.177c0.05,0.396,0.1,0.789,0.149,1.181
			c0.098,0.782,0.195,1.557,0.291,2.32c2.032,15.705,1.332,25.513,1.181,30.587c-0.646,10.282-1.446,18.31-2.178,26.075
			c-0.235,1.926-0.382,3.864-0.591,5.799c-0.244,1.922-0.394,3.897-0.681,5.871c-0.498,3.986-1.07,8.134-2.178,12.634
			c3.104-3.472,5.603-7.054,7.781-10.642c1.134-1.787,2.071-3.619,3.048-5.457c0.942-1.847,1.76-3.74,2.605-5.67
			c3.169-7.763,5.389-16.455,6.205-27.706c0.23-5.54,1.016-16.284-1.179-33.343c-0.104-0.83-0.209-1.671-0.316-2.521
			c-0.054-0.425-0.108-0.853-0.164-1.282c-0.078-0.429-0.157-0.859-0.236-1.293c-0.319-1.733-0.646-3.504-0.979-5.308
			c-0.167-0.901-0.336-1.812-0.506-2.729c-0.191-0.917-0.452-1.837-0.679-2.767c-0.473-1.857-0.953-3.744-1.439-5.655
			c-2.276-7.591-5.324-15.531-9.713-23.013c-4.338-7.511-10.036-14.28-15.91-20.167c-5.896-5.901-11.918-11.046-17.43-15.928
			c-2.78-2.427-5.396-4.801-7.917-7.087c-1.267-1.141-2.438-2.297-3.624-3.407c-1.167-1.122-2.351-2.187-3.41-3.293
			c-1.08-1.091-2.132-2.154-3.152-3.186c-0.503-0.514-1.031-1.028-1.49-1.518c-0.423-0.478-0.839-0.948-1.247-1.41
			c-0.405-0.466-0.824-0.901-1.199-1.366c-0.365-0.475-0.723-0.941-1.073-1.397c-0.353-0.455-0.697-0.901-1.035-1.336
			c-0.31-0.461-0.611-0.912-0.907-1.352c-1.227-1.725-2.148-3.431-3.013-4.884c-0.793-1.503-1.447-2.816-1.982-3.887
			c-0.97-2.205-1.502-3.417-1.502-3.417c-0.001,0-0.573-1.484-1.566-4.18c-0.899-2.739-2.165-6.729-3.207-11.834
			c-1.025-5.103-1.9-11.289-2.183-18.225c-0.292-6.93-0.054-14.59,0.874-22.532c0.993-7.927,2.586-16.156,5.055-24.102
			c1.192-3.985,2.619-7.889,4.217-11.652c1.568-3.782,3.392-7.381,5.35-10.767c0.505-0.833,0.967-1.699,1.498-2.498
			c0.525-0.803,1.047-1.602,1.566-2.396c1.136-1.605,2.349-3.205,3.492-4.774c1.154-1.572,2.292-3.12,3.408-4.64
			c1.164-1.482,2.376-2.88,3.522-4.28c1.155-1.393,2.284-2.756,3.386-4.084c1.112-1.318,2.303-2.504,3.398-3.708
			c2.231-2.373,4.252-4.675,6.333-6.571c2.158-2.046,3.979-3.893,5.67-5.396c1.711-1.481,3.178-2.75,4.446-3.848
			c0.634-0.55,1.218-1.057,1.759-1.527c0.547-0.46,1.077-0.85,1.552-1.229c0.957-0.75,1.757-1.377,2.447-1.919
			c8.181-6.365,14.689-11.22,20.904-16.007c1.575-1.154,3.12-2.333,4.662-3.549c1.575-1.175,3.152-2.353,4.755-3.55
			C310.059,96.747,313.445,94.267,317.43,91.892z"/>
		<path d="M173.93,225.393c-0.978-2.396-2.247-4.502-3.818-6.372c-1.58-1.853-3.524-3.512-6.146-4.528
			c-1.304-0.5-2.782-0.812-4.35-0.809c-1.569-0.01-3.193,0.347-4.707,0.971c-1.509,0.63-2.955,1.508-4.195,2.59
			c-0.334,0.26-0.624,0.545-0.923,0.835l-0.45,0.438c-0.146,0.142-0.298,0.289-0.48,0.51c-0.736,0.813-1.252,1.658-1.734,2.523
			c-1.214,2.338-2.635,6.074-3.16,13.375c-0.211,2.625-0.239,7,0.046,10.68c0.255,3.684,0.709,6.688,0.709,6.688
			s0.319,2.524,0.937,5.715c0.61,3.192,1.581,7.042,2.456,9.749c2.87,9.187,6.257,14.479,8.156,17.123
			c1.934,2.685,4.122,4.863,6.491,6.51c2.391,1.622,4.961,2.72,7.573,3.121c2.602,0.432,5.179,0.206,7.538-0.553
			c2.369-0.748,4.536-1.973,6.559-3.566c-5.102,0.907-9.184,0.312-12.484-1.373c-3.312-1.672-6.21-4.312-9.336-8.683
			c-1.498-2.151-4.39-6.575-7.002-14.926c-0.782-2.454-1.685-5.979-2.263-8.917c-0.584-2.937-0.896-5.263-0.896-5.263
			s-0.397-2.779-0.614-6.155c-0.246-3.377-0.204-7.322-0.043-9.614c0.461-6.421,1.62-9.018,2.228-10.26
			c0.244-0.441,0.483-0.856,0.699-1.103c0.034-0.062,0.132-0.165,0.233-0.27l0.285-0.307c0.188-0.205,0.369-0.416,0.562-0.582
			c0.742-0.762,1.486-1.297,2.202-1.749c1.43-0.887,2.847-1.233,4.562-1.151c1.7,0.087,3.586,0.656,5.496,1.568
			C169.971,222.529,171.957,223.743,173.93,225.393z"/>
		<path d="M175.429,182.893c-2.878,8.304-4.688,15.515-5.862,23.176c-1.111,7.669-1.564,15.842-0.862,26.208
			c0.126,1.756,0.272,4.063,0.596,7.41c0.142,1.675,0.339,3.608,0.598,5.862c0.229,2.256,0.57,4.828,0.959,7.784
			c0.081,0.855,0.306,2.286,0.509,3.503c0.204,1.216,0.372,2.22,0.372,2.22s0.115,0.845,0.263,1.923
			c0.171,1.076,0.389,2.383,0.562,3.313c1.376,7.851,2.782,14.166,4.043,19.128c1.208,4.974,2.331,8.583,3.029,11.073
			c3.066,10.023,6.559,17.569,10.706,24.223c4.161,6.641,8.894,12.471,15.089,18.676c-2.566-8.395-4.206-15.389-6.174-22.574
			c-1.946-7.191-4.109-14.617-6.911-24.11c-0.635-2.365-1.681-5.774-2.812-10.5c-1.183-4.708-2.511-10.716-3.818-18.212
			c-0.159-0.889-0.382-2.135-0.565-3.159c-0.173-1.027-0.309-1.831-0.309-1.831s-0.543-3.858-0.771-5.486
			c-0.376-2.831-0.707-5.293-0.932-7.458c-0.253-2.161-0.449-4.015-0.59-5.624c-0.322-3.211-0.478-5.429-0.615-7.115
			c-0.776-9.956-1.515-17.763-2.635-25.22C178.241,198.641,176.772,191.546,175.429,182.893z"/>
		<path d="M292.431,541.393c1.757-4.031,2.985-7.944,3.984-11.773c0.976-3.838,1.686-7.626,2.106-11.549
			c0.391-3.92,0.588-7.984,0.359-12.368c-0.061-2.199-0.321-4.464-0.559-6.85c-0.343-2.369-0.658-4.864-1.22-7.46
			c-0.179-0.881-0.386-1.901-0.633-3.121c-0.29-1.211-0.629-2.62-1.029-4.29c-0.83-3.332-2.042-7.676-3.992-13.439
			c-0.387-1.189-1.474-3.944-1.474-3.944s-0.083-0.247-0.213-0.629c-0.129-0.382-0.302-0.9-0.52-1.43
			c-0.245-0.604-0.501-1.234-0.718-1.769c-5.229-13.054-11.319-22.904-14.444-27.702c-5.816-8.879-11.582-14.973-17.535-20.071
			c-1.517-1.251-3.034-2.454-4.568-3.628c-1.561-1.148-3.199-2.208-4.839-3.291c-0.824-0.529-1.656-1.064-2.5-1.607
			c-0.848-0.529-1.751-1.012-2.644-1.521c-1.789-0.983-3.636-1.998-5.563-3.058c1.221,1.818,2.391,3.561,3.523,5.248
			c0.562,0.842,1.14,1.64,1.668,2.469c0.526,0.83,1.046,1.648,1.561,2.458c1.045,1.597,2.069,3.16,3.087,4.714
			c0.979,1.586,1.975,3.14,3.006,4.684c4.008,6.27,8.394,12.573,13.666,20.803c2.836,4.451,8.414,13.521,13.201,25.509
			c0.202,0.49,0.441,1.067,0.67,1.62c0.214,0.48,0.39,0.95,0.523,1.295c0.136,0.345,0.223,0.567,0.223,0.567
			s0.854,2.582,1.288,3.646c1.795,5.292,2.92,9.277,3.693,12.336c0.376,1.532,0.693,2.825,0.966,3.937
			c0.235,1.119,0.432,2.055,0.603,2.863c0.543,2.38,0.915,4.657,1.389,6.813c0.367,2.172,0.832,4.229,1.167,6.229
			c0.752,3.992,1.447,7.688,2.133,11.327c0.686,3.638,1.353,7.21,2.007,10.957C291.433,533.115,292.094,537.029,292.431,541.393z"/>
		<path d="M383.43,165.894c3.646-0.285,5.794-0.541,8.08-2.565c0.622-0.538,1.854-1.645,3.405-2.85
			c1.539-1.199,3.43-2.529,5.158-3.349c0.856-0.414,1.664-0.692,2.244-0.797c0.588-0.105,0.89-0.06,0.952-0.024
			c0.117,0.052,0.246,0.179,0.245,0.205c-0.013,0.018,0.154,0.072,0.362,1.032c0.204,0.942,0.163,2.825-0.229,4.896
			c-0.75,4.182-2.609,8.924-3.19,10.461c-1.106,2.877-0.579,4.988,0.473,8.491c3.422-1.309,5.456-2.521,6.769-5.592
			c0.693-1.681,2.726-6.706,3.677-11.976c0.47-2.632,0.652-5.386,0.179-7.761c-0.065-0.297-0.128-0.581-0.187-0.85
			c-0.077-0.277-0.173-0.549-0.255-0.797c-0.148-0.491-0.377-0.944-0.559-1.306c-0.336-0.721-0.714-1.126-0.686-1.124
			c0,0-0.07-0.099-0.204-0.287c-0.123-0.19-0.365-0.45-0.683-0.772c-0.594-0.662-1.702-1.482-3.212-2.029
			c-1.532-0.544-3.281-0.56-4.816-0.282c-1.551,0.278-2.958,0.812-4.261,1.428c-2.603,1.243-4.812,2.843-6.617,4.245
			c-1.796,1.406-3.144,2.642-3.813,3.266C383.824,159.882,383.414,162.229,383.43,165.894z"/>
		<path d="M308.93,142.893c-0.393,3.692-0.256,6.189,1.744,9.511c1.107,1.784,4.477,7.152,8.953,11.361
			c2.229,2.097,4.785,3.883,7.109,4.759c0.288,0.109,0.563,0.214,0.825,0.313c0.271,0.085,0.539,0.152,0.785,0.22
			c0.491,0.139,0.926,0.239,1.306,0.28c0.372,0.051,0.663,0.091,0.861,0.118c0.195,0.031,0.307,0.023,0.307,0.023
			s0.434,0.005,1.201,0.016c0.768-0.037,1.894-0.153,3.174-0.571c1.229-0.434,2.661-1.034,4.029-2.242
			c1.366-1.164,2.507-2.863,3.11-4.637c0.623-1.778,0.802-3.572,0.787-5.21c-0.019-1.644-0.227-3.158-0.481-4.508
			c-0.522-2.695-1.244-4.737-1.604-5.757c-1.406-3.721-3.372-5.354-6.606-7.176c-0.287,3.691-0.443,5.926,0.717,9.239
			c0.293,0.896,0.908,2.705,1.321,4.874c0.42,2.142,0.574,4.73-0.061,6.465c-0.304,0.869-0.747,1.496-1.293,1.978
			c-0.518,0.495-1.275,0.812-1.882,1.035c-0.595,0.194-1.092,0.246-1.445,0.271c-0.358-0.012-0.561-0.003-0.561-0.003
			c0.002,0.015-0.205-0.024-0.577-0.079c-0.184-0.01-0.415-0.07-0.686-0.152c-0.136-0.036-0.28-0.075-0.433-0.116
			c-0.154-0.062-0.318-0.126-0.488-0.194c-1.375-0.506-3.283-1.787-5.113-3.518c-3.704-3.468-6.928-8.49-7.972-10.108
			C314.019,146.038,312.104,144.804,308.93,142.893z"/>
		<path d="M361.93,136.393c-1.124,2.762-1.521,4.668-0.405,7.207c0.634,1.37,2.518,5.466,5.38,8.964
			c1.414,1.743,3.213,3.34,5.055,4.212c0.938,0.425,1.821,0.654,2.46,0.751c0.654,0.071,1.025,0.086,1.025,0.086
			s0.373,0.004,1.039-0.056c0.653-0.064,1.608-0.281,2.575-0.747c0.268-0.109,0.48-0.236,0.683-0.371
			c0.212-0.135,0.431-0.275,0.657-0.42c0.443-0.302,0.946-0.581,1.359-1.011c0.426-0.408,0.9-0.818,1.309-1.289
			c0.38-0.489,0.763-0.998,1.14-1.517c1.373-2.148,2.079-4.557,2.435-6.532c0.375-1.99,0.392-3.583,0.414-4.38
			c-0.031-2.92-1.286-4.551-3.625-6.399c-1.593,2.51-2.561,3.894-2.614,6.269c-0.043,0.633-0.071,1.928-0.357,3.38
			c-0.261,1.458-0.772,3.07-1.536,4.269c-0.215,0.271-0.418,0.543-0.61,0.817c-0.214,0.247-0.462,0.432-0.667,0.652
			c-0.191,0.24-0.467,0.351-0.685,0.507c-0.112,0.076-0.221,0.149-0.325,0.22c-0.107,0.082-0.204,0.146-0.266,0.156
			c-0.555,0.249-0.787,0.196-0.806,0.211c-0.015-0.029-0.251,0.049-0.931-0.253c-0.683-0.326-1.816-1.215-2.881-2.549
			c-2.172-2.635-3.984-6.417-4.576-7.619C366.078,138.68,364.553,137.795,361.93,136.393z"/>
		<path d="M339.097,204.893c-1.48,1.444-2.69,2.981-3.675,4.632c-0.969,1.66-1.763,3.442-2.088,5.531
			c-0.074,0.523-0.152,1.055-0.148,1.615c-0.031,0.554,0.012,1.128,0.082,1.716c0.042,0.588,0.232,1.184,0.37,1.793
			c0.227,0.586,0.416,1.218,0.75,1.792c1.236,2.373,3.512,4.351,6.131,5.495c1.766,0.769,4.748,1.907,10.61,2.231
			c0.849,0.091,2.247,0.075,3.442,0.081c0.601,0.011,1.137-0.023,1.528-0.041c0.392-0.019,0.635-0.031,0.635-0.031
			s0.816-0.027,1.859-0.061c1.031-0.083,2.287-0.183,3.183-0.254c7.487-0.742,12.089-1.851,14.488-2.404
			c4.842-1.243,8.545-2.909,11.675-5.119c1.562-1.099,2.97-2.379,4.214-3.86c1.215-1.475,2.366-3.23,2.776-5.281
			c-1.31,1.585-2.912,2.464-4.442,3.229c-1.548,0.743-3.075,1.332-4.677,1.858c-3.194,1.057-6.589,2.016-11.044,3.115
			c-2.217,0.483-6.475,1.506-13.592,2.208c-0.835,0.07-2.005,0.169-2.967,0.251c-0.956,0.046-1.704,0.082-1.704,0.082
			s-0.223,0.007-0.582,0.018c-0.359,0.011-0.855,0.036-1.389,0.017c-1.069-0.02-2.333-0.009-3.058-0.074
			c-5.133-0.29-7.216-1.18-8.41-1.662c-1.776-0.772-2.899-1.709-3.697-2.742c-0.813-1.029-1.223-2.347-1.458-3.818
			c-0.229-1.477-0.178-3.098,0.006-4.811C338.115,208.68,338.468,206.854,339.097,204.893z"/>
		<path d="M390.93,117.894c3.043,4.152,5.194,7.792,7.623,11.447c2.389,3.686,4.984,7.428,8.283,12.211
			c0.451,0.645,1.01,1.454,1.629,2.427c0.627,0.968,1.366,2.065,2.11,3.326c0.771,1.246,1.598,2.622,2.426,4.129
			c0.182,0.321,0.364,0.644,0.549,0.97c0.213,0.376,0.432,0.753,0.628,1.146c0.405,0.778,0.817,1.568,1.234,2.37
			c0.855,1.592,1.595,3.296,2.431,5.001c3.138,6.914,5.892,14.753,7.851,23.046c1.974,8.29,3.02,17.042,3.248,25.623
			c0.225,8.577-0.402,17.018-1.562,24.681c-1.093,7.61-3.275,14.265-5.663,19.608c-0.311,0.664-0.614,1.312-0.91,1.945
			c-0.302,0.631-0.56,1.266-0.92,1.824c-0.668,1.145-1.301,2.228-1.893,3.244c-0.148,0.254-0.293,0.505-0.436,0.75
			c-0.164,0.232-0.325,0.46-0.483,0.685c-0.317,0.448-0.622,0.879-0.916,1.292c-0.585,0.828-1.121,1.587-1.604,2.271
			c-1.08,1.289-1.926,2.296-2.5,2.981c-0.286,0.343-0.506,0.606-0.653,0.783c-0.148,0.176-0.238,0.256-0.238,0.256
			s-0.793,0.813-2.235,2.293c-0.364,0.367-0.752,0.79-1.208,1.228c-0.472,0.425-0.983,0.888-1.535,1.385
			c-0.55,0.499-1.14,1.032-1.765,1.598c-0.63,0.562-1.352,1.111-2.078,1.714c-2.888,2.432-6.627,5.093-10.862,8.051
			c-4.263,2.938-9.118,6.123-14.182,9.745c-5.054,3.627-10.348,7.705-15.225,12.545c-4.875,4.832-9.263,10.423-12.749,16.409
			c-0.431,0.751-0.86,1.501-1.29,2.25l-0.638,1.123l-0.546,1.163c-0.725,1.551-1.444,3.093-2.159,4.622
			c-0.635,1.558-1.18,3.133-1.763,4.677c-0.285,0.774-0.569,1.544-0.852,2.31c-0.222,0.781-0.442,1.558-0.661,2.329
			c-0.436,1.544-0.864,3.068-1.287,4.569c-0.378,1.508-0.633,3.013-0.945,4.479c-0.287,1.47-0.611,2.91-0.85,4.326
			c-0.188,1.421-0.37,2.812-0.548,4.168c-0.726,4.68-0.793,8.479-1.033,11.48c-0.048,0.751-0.094,1.452-0.137,2.104
			c-0.022,0.652-0.015,1.256-0.022,1.813c-0.008,1.114-0.014,2.043-0.019,2.8c-0.144,6.13,0.563,10.887,1.377,15.354
			c0.111,0.557,0.222,1.109,0.331,1.661l0.434,1.637c0.298,1.089,0.614,2.175,0.95,3.273c0.673,2.198,1.424,4.448,2.263,6.875
			c0.399-2.562,0.748-4.898,1.03-7.149c0.141-1.125,0.265-2.229,0.371-3.327l0.145-1.647c0.063-0.549,0.127-1.1,0.19-1.654
			c0.503-4.426,0.508-9.049,0.709-14.909c0.01-0.726,0.021-1.616,0.036-2.685c0.01-0.534,0.004-1.114,0.028-1.737
			c0.043-0.62,0.09-1.286,0.139-1.999c0.24-2.845,0.305-6.484,0.995-10.869c0.167-1.275,0.339-2.584,0.514-3.92
			c0.224-1.325,0.529-2.659,0.796-4.028c0.292-1.363,0.525-2.771,0.876-4.164c0.39-1.381,0.786-2.783,1.188-4.203
			c0.2-0.71,0.401-1.426,0.604-2.145c0.259-0.696,0.519-1.396,0.78-2.102c0.533-1.403,1.025-2.844,1.6-4.258
			c0.646-1.381,1.297-2.772,1.951-4.172l0.489-1.053l0.576-1.008l1.16-2.021c3.132-5.377,7.046-10.383,11.49-14.798
			c4.445-4.42,9.395-8.25,14.268-11.752c4.883-3.498,9.699-6.666,14.057-9.672c4.345-3.039,8.251-5.822,11.369-8.447
			c0.782-0.649,1.546-1.234,2.231-1.846c0.682-0.618,1.324-1.199,1.925-1.743s1.158-1.05,1.671-1.515
			c0.501-0.481,0.936-0.951,1.338-1.356c1.594-1.643,2.471-2.545,2.471-2.545s0.098-0.088,0.265-0.285
			c0.166-0.197,0.413-0.49,0.735-0.874c0.645-0.768,1.592-1.897,2.803-3.342c0.548-0.771,1.156-1.625,1.819-2.559
			c0.331-0.467,0.675-0.954,1.032-1.46c0.178-0.253,0.359-0.512,0.543-0.774c0.163-0.277,0.328-0.559,0.497-0.846
			c0.671-1.148,1.386-2.372,2.143-3.667c0.402-0.635,0.7-1.344,1.041-2.054c0.335-0.713,0.679-1.443,1.029-2.189
			c2.697-6,5.102-13.428,6.29-21.652c1.234-8.126,1.897-16.983,1.665-26.084c-0.236-9.088-1.347-18.388-3.443-27.206
			c-2.08-8.821-5.014-17.165-8.354-24.516c-0.886-1.814-1.678-3.624-2.586-5.317c-0.444-0.852-0.883-1.691-1.314-2.519
			c-0.21-0.417-0.442-0.817-0.668-1.217c-0.196-0.346-0.391-0.689-0.584-1.03c-0.884-1.601-1.766-3.062-2.588-4.383
			c-0.797-1.337-1.586-2.501-2.257-3.526c-0.664-1.03-1.265-1.887-1.751-2.567c-3.557-5.049-6.908-8.601-10.42-11.574
			C399.281,122.593,395.589,120.145,390.93,117.894z"/>
		<path d="M297.93,396.393c0.257,3.498,0.82,5.664,3.213,7.53c1.296,1.017,5.312,3.9,9.219,6.238
			c3.879,2.378,7.647,4.188,7.647,4.188s0.928,0.476,2.404,1.153c1.474,0.681,3.501,1.558,5.701,2.34
			c4.355,1.664,9.522,2.626,11.28,2.758c3.222,0.31,5.292-1.04,7.535-3.708c-2.659-2.307-3.953-3.686-6.578-4.033
			c-1.409-0.168-5.717-0.948-9.59-2.406c-1.94-0.68-3.768-1.458-5.105-2.065c-1.34-0.604-2.192-1.032-2.192-1.032
			s-3.424-1.676-7.027-3.903c-3.624-2.186-7.396-4.894-8.646-5.794C303.472,395.996,301.411,396.091,297.93,396.393z"/>
		<path d="M325.43,436.893c3.572,0.54,5.989,0.331,8.466-1.864c1.354-1.179,5.204-5.001,8.076-9.122
			c1.461-2.034,2.666-4.129,3.506-5.7c0.827-1.582,1.28-2.65,1.28-2.649c0,0,0.508-1.039,1.135-2.731
			c0.348-0.83,0.631-1.862,0.999-2.961c0.286-1.127,0.642-2.335,0.854-3.611c0.277-1.262,0.402-2.583,0.56-3.858
			c0.063-1.285,0.181-2.534,0.128-3.681c-0.011-0.573-0.021-1.121-0.03-1.635c-0.045-0.511-0.087-0.987-0.125-1.422
			c-0.073-0.87-0.146-1.569-0.241-2.027c-0.152-0.85-0.354-1.599-0.657-2.259c-0.328-0.654-0.721-1.231-1.18-1.758
			c-0.897-1.059-2.231-1.873-3.771-2.721c-0.818,1.654-1.367,2.892-1.785,4.1c-0.198,0.601-0.321,1.183-0.358,1.785
			c-0.062,0.605-0.076,1.235,0.023,1.925c0.188,1.484,0.614,6.016-0.274,10.08c-0.159,1.021-0.453,1.996-0.671,2.906
			c-0.303,0.893-0.514,1.729-0.801,2.412c-0.502,1.386-0.918,2.251-0.918,2.251s-0.379,0.877-1.078,2.195
			c-0.714,1.311-1.732,3.069-2.992,4.81c-2.469,3.519-5.848,6.886-6.995,7.962C326.465,431.338,326.121,433.364,325.43,436.893z"/>
		<path d="M341.93,365.393c2.097,1.494,3.824,3.054,5.446,4.562c1.615,1.516,3.096,3.019,4.56,4.569
			c2.899,3.121,5.859,6.342,9.004,10.855c0.279,0.374,0.569,0.827,0.911,1.373c0.35,0.541,0.759,1.169,1.18,1.95
			c0.902,1.527,1.942,3.619,3.035,6.566c0.692,1.771,1.353,4.249,1.904,6.966c0.532,2.727,0.763,5.729,0.855,8.501
			c-0.034,1.393,0.001,2.722-0.087,3.939c-0.1,1.213-0.135,2.329-0.253,3.232c-0.243,1.801-0.394,2.923-0.394,2.923
			s-0.201,0.921-0.529,2.431c-0.131,0.765-0.434,1.634-0.72,2.62c-0.257,0.998-0.686,2.047-1.113,3.164
			c-1.667,4.506-5.025,9.361-7.857,12.456c-2.833,3.129-5.56,5.295-7.779,6.903c-1.1,0.82-2.116,1.459-2.965,2.032
			c-0.878,0.538-1.608,0.986-2.204,1.352c-4.899,2.84-8.906,4.879-12.742,6.939c-3.862,2.011-7.539,4.093-12.252,6.165
			c5.159,0.381,9.589,0.103,14.142-0.763c4.54-0.918,9.263-2.476,14.771-5.597c0.677-0.391,1.495-0.899,2.482-1.497
			c0.965-0.64,2.108-1.357,3.365-2.285c2.526-1.822,5.659-4.297,8.991-7.963c3.337-3.608,7.338-9.437,9.325-14.835
			c0.512-1.337,1.009-2.598,1.318-3.781c0.339-1.175,0.684-2.218,0.843-3.117c0.378-1.787,0.608-2.878,0.608-2.878
			s0.184-1.313,0.479-3.423c0.138-1.054,0.188-2.285,0.301-3.659c0.101-1.372,0.075-2.895,0.11-4.478
			c-0.089-3.177-0.354-6.645-0.973-9.837c-0.637-3.183-1.431-6.101-2.257-8.197c-1.295-3.487-2.544-5.964-3.613-7.771
			c-0.506-0.923-0.991-1.664-1.407-2.302c-0.409-0.643-0.759-1.174-1.09-1.612c-3.771-5.296-7.814-8.53-11.886-10.9
			c-2.052-1.177-4.151-2.118-6.375-2.884C346.841,366.359,344.496,365.732,341.93,365.393z"/>
		<path d="M372.43,422.893c0.633,5.11,0.757,9.34,1.067,13.697c0.244,4.362,0.663,8.861,0.895,14.555
			c0.04,0.965,0.087,2.231,0.058,4.065c-0.018,1.833-0.122,4.234-0.518,7.427c-0.322,2.558-0.993,5.944-2.133,9.447
			c-1.146,3.497-2.791,7.1-4.795,10.098c-0.475,0.766-1.035,1.449-1.521,2.148c-0.255,0.342-0.481,0.695-0.747,1.009
			c-0.269,0.312-0.531,0.616-0.788,0.914c-0.519,0.591-0.983,1.179-1.468,1.687c-0.501,0.493-0.968,0.953-1.396,1.374
			c-0.826,0.868-1.589,1.482-2.111,1.911c-0.52,0.434-0.807,0.675-0.807,0.675s-0.241,0.2-0.68,0.566
			c-0.441,0.363-1.146,0.813-1.986,1.416c-0.423,0.298-0.887,0.624-1.387,0.976c-0.53,0.312-1.098,0.646-1.696,0.997
			c-0.599,0.354-1.229,0.726-1.884,1.111c-0.694,0.352-1.416,0.717-2.157,1.093c-5.901,3.084-13.558,5.555-19.093,6.128
			c-8.402,0.981-13.461-0.532-16.003-1.226c-5.173-1.578-9.047-3.458-12.746-5.467c-1.848-1.012-3.649-2.075-5.487-3.29
			c-1.831-1.224-3.729-2.562-5.617-4.312c0.853,2.445,1.984,4.605,3.238,6.604c1.265,1.997,2.697,3.823,4.371,5.53
			c3.341,3.39,7.691,6.417,13.979,8.399c0.781,0.221,1.729,0.542,2.904,0.779c0.585,0.127,1.215,0.286,1.903,0.412
			c0.69,0.108,1.433,0.225,2.227,0.35c3.18,0.41,7.265,0.615,12.185,0.015c6.534-0.671,15.21-3.531,21.658-6.922
			c0.812-0.414,1.602-0.817,2.362-1.206c0.751-0.443,1.474-0.87,2.16-1.275c0.685-0.407,1.334-0.794,1.939-1.155
			c0.581-0.408,1.12-0.788,1.611-1.134c0.976-0.701,1.783-1.232,2.301-1.657c0.516-0.429,0.799-0.665,0.799-0.665
			s0.339-0.28,0.949-0.787c0.614-0.503,1.505-1.225,2.495-2.245c0.506-0.497,1.06-1.041,1.653-1.625
			c0.575-0.602,1.138-1.294,1.755-1.997c0.305-0.354,0.617-0.718,0.936-1.089c0.315-0.374,0.592-0.791,0.897-1.197
			c0.586-0.828,1.246-1.65,1.816-2.559c2.394-3.573,4.355-7.844,5.694-11.929c1.335-4.091,2.092-7.986,2.446-10.889
			c0.445-3.622,0.552-6.312,0.565-8.353c0.024-2.043-0.036-3.441-0.091-4.506c-0.158-3.14-0.537-5.914-1.081-8.439
			c-0.518-2.531-1.224-4.811-2.014-6.981C377.446,431.054,375.398,427.131,372.43,422.893z"/>
		<path d="M369.93,392.893c2.453,0.781,4.578,1.73,6.581,2.672c1.998,0.95,3.858,1.932,5.702,2.973
			c3.658,2.116,7.378,4.333,11.376,7.883c0.651,0.626,1.536,1.421,2.669,2.714c1.104,1.311,2.542,3.059,3.986,5.75
			c0.978,1.846,2.338,5.128,3.027,8.121c0.747,2.97,0.963,5.549,0.963,5.549s0.05,0.536,0.13,1.415
			c0.101,0.875,0.075,2.122,0.134,3.506c0.008,1.41-0.073,3.038-0.104,4.585c-0.035,1.556-0.065,3.063-0.191,4.306
			c-0.58,8.861-1.812,14.174-2.471,16.909c-1.338,5.551-2.555,9.811-3.849,13.872c-0.357,0.993-0.683,2.002-1.021,3.015
			c-0.396,0.971-0.714,2.02-1.157,3.011c-0.831,2.034-1.775,4.133-3.275,6.221c2.326-1.148,4.277-2.699,5.982-4.327
			c0.894-0.8,1.632-1.688,2.436-2.555c0.74-0.899,1.441-1.831,2.148-2.791c2.684-3.898,4.782-8.499,6.312-14.582
			c0.755-2.999,2.108-8.815,2.732-18.258c0.139-1.331,0.173-2.928,0.207-4.574c0.029-1.654,0.104-3.326,0.087-4.893
			c-0.068-1.591-0.061-3.004-0.179-4.028c-0.101-1.022-0.162-1.646-0.162-1.646s-0.225-2.995-1.102-6.58
			c-0.105-0.448-0.214-0.905-0.323-1.369c-0.142-0.457-0.284-0.92-0.427-1.383c-0.288-0.926-0.567-1.856-0.94-2.727
			c-0.647-1.77-1.463-3.327-2.039-4.496c-1.814-3.368-3.63-5.583-5.026-7.219c-1.431-1.618-2.538-2.605-3.361-3.373
			c-2.494-2.201-5.016-3.769-7.443-4.941c-2.435-1.171-4.79-1.95-7.111-2.474c-2.322-0.52-4.616-0.781-6.97-0.832
			C374.899,392.303,372.477,392.431,369.93,392.893z"/>
		<path d="M414.429,270.894c-0.896,3.43-1.556,6.209-1.72,8.941c-0.142,2.721,0.191,5.387,1.274,8.55
			c0.618,1.704,1.742,5.142,3.162,9.319c1.315,4.193,2.941,9.137,4.185,13.889c0.329,1.187,0.655,2.36,0.973,3.504
			c0.32,1.144,0.529,2.258,0.787,3.329c0.49,2.141,0.941,4.107,1.323,5.777c0.638,3.453,1.048,5.681,1.048,5.681
			s0.1,0.558,0.277,1.547c0.167,0.991,0.453,2.408,0.72,4.142c0.263,1.733,0.572,3.775,0.909,5.998
			c0.166,1.111,0.34,2.269,0.517,3.455c0.148,1.188,0.3,2.408,0.454,3.641c0.667,4.928,1.144,10.092,1.549,14.467
			c0.326,4.376,0.599,7.965,0.671,9.754c0.095,1.652,0.337,3.122,0.676,4.483c0.318,1.36,0.77,2.614,1.349,3.843
			c1.191,2.458,2.74,4.791,4.847,7.68c2.128-2.786,3.845-5.219,4.883-7.803c0.535-1.294,0.94-2.631,1.21-4.082
			c0.25-1.447,0.33-3.004,0.282-4.745c-0.021-1.89-0.274-5.648-0.607-10.228c-0.41-4.566-0.917-9.951-1.622-15.064
			c-0.164-1.28-0.326-2.546-0.484-3.78c-0.188-1.229-0.371-2.428-0.547-3.579c-0.36-2.301-0.69-4.414-0.971-6.209
			c-0.285-1.793-0.587-3.254-0.766-4.277c-0.188-1.021-0.295-1.598-0.295-1.598s-0.413-2.304-1.053-5.876
			c-0.405-1.812-0.882-3.945-1.401-6.269c-0.272-1.155-0.507-2.385-0.84-3.596c-0.331-1.211-0.67-2.453-1.014-3.708
			c-1.312-5.056-2.989-10.183-4.373-14.551c-1.479-4.322-2.674-7.875-3.362-9.612c-1.216-3.229-2.704-5.566-4.668-7.549
			C419.86,274.38,417.454,272.725,414.429,270.894z"/>
		<path d="M389.43,293.393c-0.826,4.622-1.252,7.505,0.087,11.964c0.724,2.406,2.835,9.696,3.946,16.481
			c0.259,1.694,0.557,3.35,0.701,4.882c0.088,0.766,0.174,1.501,0.254,2.193c0.068,0.691,0.095,1.34,0.141,1.937
			c0.201,2.389,0.175,3.913,0.175,3.913s0.003,0.382,0.008,1.061c0.003,0.339,0.007,0.753,0.011,1.229
			c-0.025,0.471-0.055,1.005-0.087,1.59c-0.032,2.302-0.568,5.616-0.962,9.024c-1.031,6.812-2.909,14.067-3.73,16.398
			c-1.375,4.374-0.968,7.169-0.543,11.827c4.048-2.449,6.376-4.755,7.972-9.447c0.959-2.531,2.987-10.347,4.066-17.626
			c0.42-3.666,0.961-7.077,1.008-9.803c0.032-0.667,0.062-1.275,0.087-1.812c-0.006-0.533-0.011-0.994-0.015-1.373
			c-0.009-0.759-0.015-1.186-0.015-1.186s0.033-1.716-0.174-4.332c-0.047-0.654-0.076-1.372-0.148-2.127
			c-0.084-0.753-0.173-1.552-0.266-2.384c-0.156-1.673-0.465-3.446-0.741-5.271c-1.181-7.287-3.406-14.953-4.232-17.472
			C395.449,298.411,393.234,296.172,389.43,293.393z"/>
		<path d="M365.43,310.393c-1.108,3.672-1.714,5.875-0.682,9.086c0.579,1.726,2.189,6.979,3.078,11.863
			c0.472,2.438,0.754,4.771,0.904,6.486c0.105,0.86,0.109,1.561,0.136,2.05c0.021,0.489,0.033,0.765,0.033,0.765
			s0.076,1.108-0.006,2.791c-0.011,0.422-0.023,0.882-0.036,1.371c-0.049,0.479-0.102,0.989-0.157,1.52
			c-0.06,0.534-0.099,1.076-0.177,1.657c-0.104,0.598-0.21,1.21-0.317,1.829c-0.67,5.044-2.25,10.147-2.737,11.828
			c-0.547,1.479-0.604,2.813-0.552,4.105c0.044,0.673,0.163,1.382,0.259,2.113c0.11,0.771,0.26,1.57,0.254,2.535
			c0.948-0.145,1.829-0.48,2.584-0.843c0.801-0.369,1.451-0.808,2.054-1.309c1.268-1.012,2.065-2.296,2.782-4.078
			c0.651-1.924,2.415-7.754,3.104-13.091c0.112-0.667,0.224-1.327,0.331-1.971c0.089-0.665,0.144-1.349,0.211-1.987
			c0.061-0.643,0.119-1.259,0.175-1.84c0.014-0.577,0.026-1.118,0.038-1.616c0.08-1.996-0.013-3.259-0.013-3.259
			s-0.012-0.317-0.032-0.881c-0.026-0.562-0.032-1.377-0.143-2.346c-0.158-1.949-0.467-4.571-0.978-7.263
			c-0.967-5.402-2.711-11.064-3.398-12.908C370.92,313.588,368.892,312.076,365.43,310.393z"/>
		<path d="M366.93,488.893c3.396,3.877,6.047,7.212,9.02,10.506c2.981,3.278,6.168,6.63,10.445,10.668
			c1.389,1.43,3.793,3.617,8.389,8.543c1.468,1.511,3.28,3.676,5.322,5.943c1.014,1.141,1.98,2.393,2.99,3.604
			c0.985,1.23,2.03,2.412,2.921,3.625c1.791,2.418,3.487,4.584,4.623,6.222c1.118,1.647,1.815,2.675,1.815,2.675
			s0.58,0.861,1.53,2.273c0.236,0.353,0.497,0.74,0.776,1.157c0.258,0.431,0.534,0.892,0.825,1.378
			c0.582,0.972,1.226,2.046,1.906,3.182c1.428,2.236,2.727,4.861,4.054,7.374c1.374,2.472,2.472,5.062,3.45,7.167
			c0.939,2.053,1.789,3.911,2.555,5.584c0.383,0.837,0.745,1.627,1.086,2.372c0.298,0.759,0.577,1.472,0.84,2.141
			c1.055,2.673,1.831,4.64,2.364,5.989c0.276,0.681,0.545,1.342,0.807,1.987c0.232,0.649,0.458,1.283,0.679,1.902
			c0.444,1.235,0.89,2.406,1.341,3.528c0.437,1.124,0.939,2.193,1.342,3.243c0.381,1.051,0.776,2.072,1.188,3.08
			c0.399,1.009,0.871,2.004,1.262,3.005c0.356,1.002,0.735,2.013,1.138,3.052c0.448,1.044,0.735,2.098,1.074,3.223
			c0.165,0.562,0.372,1.142,0.461,1.727c0.106,0.593,0.272,1.207,0.298,1.851c0.281-0.586,0.422-1.206,0.609-1.815
			c0.205-0.618,0.283-1.222,0.392-1.825c0.21-1.208,0.425-2.423,0.443-3.577c0.063-1.168,0.107-2.329,0.13-3.498
			c-0.01-1.156-0.135-2.278-0.231-3.438c-0.109-1.154-0.243-2.326-0.405-3.53c-0.182-1.194-0.493-2.369-0.785-3.615
			c-0.305-1.238-0.645-2.521-1.024-3.863c-0.194-0.668-0.379-1.361-0.611-2.051c-0.256-0.679-0.519-1.375-0.788-2.09
			c-0.547-1.409-1.345-3.463-2.429-6.254c-0.272-0.697-0.563-1.44-0.872-2.231c-0.35-0.769-0.72-1.583-1.111-2.445
			c-0.786-1.723-1.658-3.637-2.622-5.752c-1.005-2.175-2.121-4.807-3.587-7.449c-1.403-2.654-2.793-5.426-4.295-7.773
			c-0.721-1.192-1.401-2.32-2.019-3.341c-0.309-0.511-0.601-0.994-0.874-1.445c-0.295-0.437-0.568-0.842-0.818-1.212
			c-1.002-1.477-1.613-2.377-1.613-2.377s-0.727-1.079-1.893-2.812c-1.184-1.719-2.943-3.988-4.812-6.521
			c-0.93-1.271-2.011-2.503-3.036-3.788c-1.05-1.264-2.06-2.57-3.112-3.759c-2.12-2.361-4.015-4.61-5.546-6.171
			c-4.781-5.11-7.28-7.367-8.737-8.834c-4.478-4.146-8.27-7.09-12.186-9.438C375.699,492.631,371.759,490.731,366.93,488.893z"/>
		<path d="M434.43,461.393c0.669,10.29,1.186,17.109,3.981,28.649c0.438,1.962,1.317,5.123,2.654,11.78
			c0.388,1.976,1.012,4.614,1.521,7.487c0.493,2.874,1.022,5.965,1.509,8.807c0.552,2.838,0.758,5.447,1.015,7.335
			c0.229,1.89,0.372,3.067,0.372,3.067s0.115,0.985,0.304,2.601c0.238,1.621,0.361,3.848,0.51,6.346
			c0.039,0.624,0.08,1.266,0.121,1.919c0.011,0.656,0.021,1.323,0.032,1.997c0.023,1.346,0.047,2.717,0.07,4.066
			c-0.089,2.704-0.067,5.325-0.229,7.509c-0.504,8.936-1.337,14.446-1.761,17.313c-0.852,5.81-1.424,10.389-1.779,14.806
			c-0.371,4.417-0.458,8.678-0.82,13.817c2.737-4.384,4.72-8.281,6.396-12.522c1.664-4.249,2.968-8.884,3.916-14.926
			c0.47-2.982,1.356-8.714,1.892-18.081c0.174-2.286,0.156-5.05,0.242-7.893c-0.027-1.425-0.055-2.871-0.081-4.293
			c-0.015-0.711-0.028-1.416-0.042-2.108c-0.045-0.692-0.089-1.373-0.132-2.036c-0.087-1.325-0.169-2.579-0.244-3.713
			c-0.054-1.142-0.232-2.122-0.315-2.964c-0.202-1.672-0.325-2.692-0.325-2.692s-0.143-1.22-0.371-3.178
			c-0.257-1.951-0.468-4.672-1.021-7.578c-0.495-2.921-1.033-6.096-1.533-9.049c-0.521-2.948-1.159-5.637-1.568-7.656
			c-1.379-6.807-2.284-10.016-2.752-12.013C443.023,476.466,439.851,470.182,434.43,461.393z"/>
		<path d="M473.43,461.893c-0.799,10.289-1.025,17.207,0.832,29.038c0.317,2.004,0.834,5.265,1.906,12.04
			c1.092,7.041,2.93,18.902,4.496,29.003c1.503,10.104,2.744,18.449,2.744,18.449s0.96,6.989,2.186,15.916
			c1.218,8.929,2.491,19.794,3.24,27.51c0.175,2.241,0.334,4.269,0.477,6.095c0.127,1.815,0.11,3.34,0.17,4.735
			c0.08,1.352-0.038,2.678-0.052,3.743c-0.033,1.083-0.062,1.986-0.085,2.722c-0.088,2.974-0.085,5.629,0.003,8.099
			c0.104,2.472,0.154,4.738,0.362,6.966c0.403,4.459,1.043,8.674,1.721,13.792c1.798-4.832,3.083-9.002,3.991-13.428
			c0.448-2.216,0.904-4.508,1.149-6.994c0.261-2.486,0.45-5.173,0.57-8.188c0.029-0.745,0.064-1.661,0.106-2.76
			c0.02-1.117,0.143-2.335,0.069-3.917c-0.053-1.536-0.042-3.338-0.173-5.246c-0.146-1.897-0.309-4.003-0.488-6.331
			c-0.753-7.895-2.055-18.864-3.294-27.833c-1.251-8.967-2.23-15.987-2.23-15.987s-1.228-8.372-2.714-18.511
			c-1.507-10.135-3.374-22.015-4.501-29.064c-1.1-6.783-1.628-10.048-1.953-12.054C479.983,477.856,477.545,471.357,473.43,461.893z
			"/>
		<path d="M162.43,485.893c-1.72,10.171-2.545,17.056-1.689,29.015c0.151,2.025,0.398,5.321,0.91,12.17
			c0.362,5.296,1.174,14.245,1.817,21.857c0.659,7.613,1.203,13.9,1.203,13.9s0.44,5.264,1.003,11.986
			c0.283,3.361,0.597,7.088,0.901,10.703c0.153,1.808,0.305,3.587,0.448,5.279c0.244,1.709,0.477,3.33,0.688,4.804
			c0.335,2.311,0.639,4.401,0.912,6.284c0.366,1.867,0.692,3.528,0.98,4.995c0.579,2.934,0.981,5.097,1.385,6.555
			c0.76,2.961,1.425,5.604,2.293,7.986c0.881,2.379,1.727,4.556,2.724,6.613c2.038,4.093,4.272,7.854,7.425,11.959
			c-0.856-5.076-1.221-9.326-1.967-13.683c-0.349-2.184-0.688-4.426-1.208-6.804c-0.507-2.381-0.961-4.971-1.664-7.822
			c-0.376-1.403-0.75-3.488-1.299-6.313c-0.274-1.413-0.585-3.012-0.935-4.81c-0.261-1.812-0.549-3.825-0.868-6.05
			c-0.202-1.419-0.425-2.979-0.66-4.625c-0.144-1.684-0.295-3.455-0.448-5.253c-0.309-3.596-0.627-7.303-0.915-10.646
			c-0.578-6.687-1.031-11.922-1.031-11.922s-2.084-25.036-2.963-35.604c-0.537-6.843-0.795-10.136-0.954-12.159
			C167.542,502.367,165.679,495.693,162.43,485.893z"/>
		<path fill="#FFFFFF" d="M487.097,388.227c0,0-8.666-18.668-30-21.334s-42,6.668-44.667,47.334s-0.667,43.999,5.333,42.666
			s8.667-44.666,8.667-44.666s-5.334,56.666,6,56.666s11.333-64,11.333-64s0,61.333,12,60s9.334-58.666,9.334-58.666
			s2,48.667,13.333,46S491.097,403.561,487.097,388.227z"/>
	</g>
</g>
</svg>
