<?xml version="1.0" encoding="utf-8"?>
<!-- Generator: Adobe Illustrator 16.0.0, SVG Export Plug-In . SVG Version: 6.00 Build 0)  -->
<!DOCTYPE svg PUBLIC "-//W3C//DTD SVG 1.1//EN" "http://www.w3.org/Graphics/SVG/1.1/DTD/svg11.dtd">
<svg version="1.1" xmlns="http://www.w3.org/2000/svg" xmlns:xlink="http://www.w3.org/1999/xlink" x="0px" y="0px" width="640px"
	 height="640px" viewBox="0 0 640 640" enable-background="new 0 0 640 640" xml:space="preserve">
<g id="couleurs">
</g>
<g id="traits">
	<g>
		<path fill="#B3DFEF" d="M298.843,451.043l15.658-32.368l24.015-73.087c0,0,21.867-21.159,41.83-21.159
			c4.326,0,8.56,0.992,12.465,3.409c0.961,0.595,1.942,1.295,2.943,2.092c10.644,5.276,24.69,18.372,36.731,50.114
			c0.274,0.725,0.547,1.439,0.813,2.14c8.724,15.511,14.847,28.139,14.847,28.139l5.223-64.734l46.983,6.265
			c0,0,5.769,37.496,8.195,77.107c3.468,32.894,5.465,85.089-12.37,109.785c-0.817,1.131-1.692,2.223-2.622,3.275
			c-6.918,10.405-17.813,19.443-34.968,21.782c-3.643,0.497-7.683,0.954-12.027,1.376c-20.118,4.398-41.082,5.28-54.632,5.28
			c-9.038,0-14.778-0.392-14.778-0.392s1.698-0.408,4.666-1.271c-40.252,1.271-77.754,1.271-77.754,1.271
			s-27.146,4.177-51.16,13.575c-10.26,4.015-25.282,9.172-41.733,13.356c-16.438,4.955-34.903,8.96-51.65,8.96
			c-11.504,0-22.194-1.889-30.863-6.657c-2.398-1.319-4.615-2.698-6.665-4.148c-17.554-10.914-25.617-30.429-22.569-53.276
			c4.177-31.322,13.572-82.483,13.572-82.483l7.309-41.762l38.632-8.354l9.396,50.115l0,0c0,0,19.84-81.439,46.984-93.969
			c22.911-10.572,24.998-17.429,38.899-17.429c2.571,0,5.546,0.234,9.131,0.724l-6.266,21.928c0,0,6.266,43.852,20.882,60.556
			C292.576,447.909,298.843,451.043,298.843,451.043 M552.063,326.996c-2.516-1.606-3.86-2.645-3.965-4.525
			c-0.069-1.018-0.159-4.074-0.36-6.864c-0.194-2.791-0.444-5.316-0.444-5.316s-0.082-0.628-0.21-1.601
			c-0.138-0.971-0.271-2.298-0.52-3.663c-0.405-2.753-1.05-5.696-1.21-6.689c-0.36-1.814,0.686-3.121,2.709-5.337
			c2.785,0.911,4.397,1.717,4.908,3.655c0.241,1.054,0.935,4.237,1.351,7.175c0.255,1.466,0.388,2.871,0.522,3.906
			c0.124,1.036,0.204,1.704,0.204,1.704s0.299,2.671,0.52,5.612c0.229,2.941,0.323,6.145,0.328,7.213
			C555.883,324.236,554.53,325.385,552.063,326.996 M599.727,294.501c-1.058,0-1.893-0.269-2.631-0.968
			c-0.744-0.721-2.927-2.916-4.879-5.042c-0.991-1.034-1.889-2.102-2.566-2.864c-0.673-0.769-1.107-1.265-1.107-1.265
			s-0.426-0.511-1.083-1.306c-0.643-0.812-1.578-1.837-2.437-3.051c-1.814-2.325-3.535-5.105-4.096-6.03
			c-0.964-1.765-0.324-3.483,1.136-5.977c2.993,0.255,4.6,0.447,5.536,1.934c0.554,0.784,2.055,3.225,3.69,5.344
			c0.754,1.091,1.626,2.057,2.201,2.805c0.598,0.737,0.982,1.213,0.982,1.213s0.413,0.46,1.052,1.174
			c0.646,0.71,1.481,1.691,2.442,2.681c1.906,1.997,3.984,4.175,4.676,4.9c1.273,1.372,1.072,3.074,0.42,5.95
			C601.729,294.299,600.645,294.501,599.727,294.501 M444.956,133.598c-0.458,0-0.887-0.109-1.311-0.348
			c-0.785-0.44-3.081-1.825-5.213-3.153c-1.062-0.648-2.074-1.307-2.822-1.792c-0.747-0.484-1.229-0.796-1.229-0.796
			s-0.487-0.293-1.235-0.807c-0.748-0.508-1.761-1.196-2.822-1.917c-1.049-0.784-2.146-1.592-3.066-2.308
			c-0.906-0.781-1.645-1.429-2.004-1.761c-0.672-0.582-0.947-1.409-0.946-2.359c0.001-0.95,0.277-2.057,0.757-3.356
			c1.433-0.298,2.51-0.562,3.358-0.622c0.118-0.008,0.231-0.013,0.341-0.013c0.673,0,1.182,0.165,1.717,0.559
			c0.32,0.253,0.943,0.777,1.695,1.425c0.82,0.62,1.789,1.352,2.716,2.051c0.977,0.676,1.908,1.321,2.596,1.797
			c0.682,0.481,1.153,0.773,1.153,0.773s7.55,4.678,9.059,5.612c1.393,0.923,1.507,2.58,1.365,5.416
			C447.303,132.978,446.046,133.598,444.956,133.598 M584.752,106.042c-0.51,0-1.071-0.018-1.688-0.042
			c-1.179-2.649-1.651-4.361-0.578-5.952c0.592-0.841,2.447-3.333,4.173-5.502c1.703-2.165,3.252-4.133,3.252-4.133
			s0.367-0.493,0.937-1.257c0.561-0.765,1.369-1.792,2.11-2.887c1.586-2.163,3.055-4.592,3.604-5.375
			c0.915-1.478,2.524-1.658,5.503-1.895c1.476,2.474,2.12,4.166,1.188,5.905c-0.543,0.903-2.208,3.639-3.91,5.932
			c-0.821,1.19-1.657,2.232-2.257,3.034c-0.605,0.792-0.996,1.303-0.996,1.303s-6.096,7.909-7.313,9.489
			C587.907,105.786,586.693,106.042,584.752,106.042 M492.063,105c-2.957-0.255-4.634-0.536-5.542-2.114
			c-0.875-1.716-5.833-10.432-5.833-10.432s-5.13-8.747-5.973-10.682c-0.838-1.705-0.15-3.286,1.348-5.772
			c2.957,0.255,4.635,0.536,5.542,2.114c0.874,1.716,5.834,10.432,5.833,10.432c0,0,5.129,8.747,5.973,10.682
			C494.249,100.931,493.562,102.512,492.063,105 M537.063,95c-2.497-1.692-3.85-2.829-3.917-4.845
			c-0.039-2.171-0.233-13.037-0.233-13.037s-0.188-2.679-0.396-5.625c-0.121-2.965-0.611-6.112-0.702-7.173
			c-0.19-1.956,1.007-3.235,3.249-5.32c2.674,1.272,4.164,2.271,4.489,4.334c0.165,1.117,0.679,4.491,0.792,7.57
			c0.189,3.083,0.362,5.886,0.362,5.886s0.37,11.146,0.24,13.32C540.895,92.146,539.55,93.307,537.063,95 M150.579,148.258
			c18.794-59.513,82.482-75.175,95.013-78.307c12.53-3.133,81.439-40.72,81.439-40.72l-18.794,39.675
			c0,0,66.822-19.838,69.955-19.838c3.131,0,22.969-7.309,22.969-7.309l0,0l0,0l-44.896,35.499l24.016,19.838
			c0,0-1.966-0.116-5.435-0.116c-11.271,0-38.417,1.221-65.564,11.602c-35.499,13.572-57.425,52.204-58.469,78.306
			c-1.044,26.103,10.441,55.337,10.441,55.337s-9.879-6.82-21.222-11.489c-6.024-2.25-12.788-4.145-18.47-4.146
			c-1.086,0-2.132,0.069-3.126,0.218c-2.847,0.551-5.35,1.786-7.3,3.932l0,0c-7.655,10.206-2.146,24.569,0.161,29.544
			c7.881,10.78,20.721,18.484,20.721,18.484l-14.333-6.616l0.761,1.395c0,0-60.558-26.103-69.954-72.043
			C139.095,155.567,150.579,148.258,150.579,148.258L150.579,148.258 M640,0H0v640h640V0"/>
		<path fill="#F8C9DB" d="M493.555,542.021c-10.665,12.075-28.473,19.107-46.995,23.158c4.345-0.422,8.385-0.879,12.027-1.376
			C475.741,561.464,486.637,552.426,493.555,542.021 M380.346,324.429c-19.963,0-41.83,21.159-41.83,21.159l-24.015,73.087
			l-15.658,32.368c0,0-6.267-3.134-20.884-19.84c-14.616-16.704-20.882-60.556-20.882-60.556l6.266-21.928
			c-3.585-0.489-6.56-0.724-9.131-0.724c-13.901,0-15.988,6.856-38.899,17.429c-27.145,12.529-46.984,93.969-46.984,93.969
			l20.884-54.292c61.127,116.554-8.354,130.511-8.354,130.511l-12.53-76.219l0,0l-9.396-50.115l-38.632,8.354l-7.309,41.762
			c0,0-9.396,51.161-13.572,82.483c-3.048,22.848,5.016,42.362,22.569,53.276c-33.637-23.8-21.49-66.162-3.775-157.686
			c0,0-6.879,110.883,26.102,128.424c24.054,12.795,52.122,16.057,74.489,16.057c23.264,0,40.36-3.528,40.36-3.528l0,0l0,0
			c0,0-21.331,10.54-47.997,18.579c16.451-4.185,31.474-9.342,41.733-13.356c24.014-9.398,51.16-13.575,51.16-13.575
			s37.502,0,77.754-1.271c17.715-5.152,80.662-26.506,97.654-73.902c19.837-55.337,25.057-95.012,25.057-95.012
			s2.21,11.908,4.021,29.078c-2.427-39.611-8.195-77.107-8.195-77.107l-46.983-6.265l-5.223,64.734c0,0-6.123-12.628-14.847-28.139
			c10.13,26.599,14.524,36.009,16.316,38.416c0.431-2.542,0.62-4.014,0.62-4.014s1.021,4.698,0.172,4.698
			c-0.175,0-0.431-0.2-0.792-0.685c-2.731,16.129-15.207,75.377-51.02,75.377c-0.533,0-1.067-0.013-1.61-0.039
			c0,0,19.837-39.674,11.486-93.969c-8.353-54.292-29.235-75.175-29.235-75.175s1.145-0.276,3.157-0.276
			c2.913,0,7.646,0.579,13.36,3.412c-1.001-0.797-1.982-1.497-2.943-2.092C388.905,325.421,384.672,324.429,380.346,324.429"/>
		<path fill="#B4B3CE" d="M121.989,595.153c2.05,1.45,4.267,2.829,6.665,4.148c8.669,4.769,19.359,6.657,30.863,6.657
			c16.747,0,35.213-4.005,51.65-8.96c-16.769,4.265-35.021,7.52-51.218,7.52c-5.104,0-10.005-0.323-14.591-1.04
			C136.319,602.066,128.501,599.201,121.989,595.153"/>
		<path fill="#F29EBC" d="M118.214,437.468c-17.715,91.523-29.861,133.886,3.775,157.686c6.512,4.048,14.33,6.913,23.37,8.325
			c4.586,0.717,9.486,1.04,14.591,1.04c16.196,0,34.449-3.255,51.218-7.52c26.666-8.039,47.997-18.579,47.997-18.579
			s-17.097,3.528-40.36,3.528c-22.367,0-50.436-3.262-74.489-16.057C111.335,548.351,118.214,437.468,118.214,437.468"/>
		<path fill="#F29EBC" d="M189.212,405.102l-20.884,54.292l0,0l12.53,76.219C180.858,535.612,250.339,521.655,189.212,405.102"/>
		<path fill="#B4B3CE" d="M395.754,329.93c12.063,9.604,26.783,33.122,37.545,52.254c-0.267-0.7-0.539-1.415-0.813-2.14
			C420.444,348.302,406.397,335.206,395.754,329.93"/>
		<path fill="#F29EBC" d="M450.235,416.586c0,0-0.189,1.472-0.62,4.014c0.361,0.484,0.617,0.685,0.792,0.685
			C451.257,421.284,450.235,416.586,450.235,416.586 M382.394,326.518c-2.013,0-3.157,0.276-3.157,0.276
			s20.883,20.883,29.235,75.175c8.351,54.295-11.486,93.969-11.486,93.969c0.543,0.026,1.077,0.039,1.61,0.039
			c35.812,0,48.288-59.248,51.02-75.377c-1.792-2.407-6.187-11.817-16.316-38.416c-10.762-19.132-25.481-42.649-37.545-52.254
			C390.04,327.097,385.307,326.518,382.394,326.518"/>
		<path fill="#B4B3CE" d="M446.56,565.179c-18.248,1.768-41.937,2.896-64.744,3.617c-2.968,0.863-4.666,1.271-4.666,1.271
			s5.74,0.392,14.778,0.392C405.478,570.459,426.441,569.577,446.56,565.179 M508.547,428.96c1.702,27.796,1.76,56.634-2.977,74.285
			c0,0-0.409,21.314-12.016,38.775c0.93-1.053,1.805-2.145,2.622-3.275C514.012,514.049,512.015,461.854,508.547,428.96"/>
		<path fill="#F29EBC" d="M504.526,399.882c0,0-5.22,39.675-25.057,95.012c-16.992,47.396-79.939,68.75-97.654,73.902
			c22.808-0.721,46.496-1.85,64.744-3.617c18.522-4.051,36.33-11.083,46.995-23.158c11.606-17.461,12.016-38.775,12.016-38.775
			c4.736-17.651,4.679-46.489,2.977-74.285C506.736,411.79,504.526,399.882,504.526,399.882"/>
		<path fill="#F39DAA" d="M211.298,260.286c0.524,1.133,0.884,1.779,0.884,1.779l5.504,10.09l14.333,6.616
			C232.019,278.77,219.179,271.065,211.298,260.286 M218.437,226.81c-3.045,0.457-5.599,1.664-7.3,3.932l0,0l0,0
			C213.087,228.596,215.59,227.361,218.437,226.81 M327.031,29.232c0,0-68.909,37.586-81.439,40.72
			c-12.53,3.132-76.219,18.794-95.013,78.307c1.955-4.885,20.369-31.714,32.137-31.717c0.808,0,1.582,0.126,2.319,0.394
			c11.485,4.177-5.221,50.117-1.044,50.117c3.671,0,18.63-23.384,27.161-23.384c1.177,0,2.231,0.445,3.117,1.457
			c6.128,7.004,6.385,22.818,10.616,22.818c0.814,0,1.777-0.586,2.957-1.936c5.847-6.682,15.034-12.696,20.614-12.696
			c1.395,0,2.563,0.375,3.399,1.211c4.177,4.176,1.045,10.441,1.045,10.441s-8.354,28.19-3.133,41.763
			c5.221,13.574,6.265,31.323,6.265,31.323s-7.216-4.032-16.001-7.312c11.343,4.669,21.222,11.489,21.222,11.489
			s-11.485-29.234-10.441-55.337c1.044-26.102,22.97-64.733,58.469-78.306c27.147-10.38,54.293-11.602,65.564-11.602
			c3.469,0,5.435,0.116,5.435,0.116l-24.016-19.838l44.896-35.499c0,0-19.838,7.309-22.969,7.309
			c-3.133,0-69.955,19.838-69.955,19.838L327.031,29.232"/>
		<path fill="#B59FB2" d="M211.137,230.742c-9.304,10.234-6.173,20.882,0.161,29.544
			C208.991,255.311,203.481,240.948,211.137,230.742 M222.319,226.46c-1.347,0-2.647,0.11-3.883,0.35
			c0.994-0.149,2.04-0.218,3.126-0.218c5.682,0,12.445,1.896,18.47,4.146C234.13,228.308,227.83,226.461,222.319,226.46
			 M150.579,148.258L150.579,148.258c0,0-11.484,7.309-2.087,53.248c9.396,45.94,69.954,72.043,69.954,72.043l-0.761-1.395
			l-12.814-5.914C204.871,266.24,125.521,223.433,150.579,148.258L150.579,148.258"/>
		<path fill="#ED6C82" d="M182.716,116.541c-11.768,0.003-30.182,26.833-32.137,31.717l0,0
			c-25.058,75.175,54.292,117.982,54.292,117.982l12.814,5.914l-5.504-10.09c0,0-0.359-0.646-0.884-1.779
			c-6.334-8.662-9.465-19.31-0.161-29.544l0,0c1.701-2.268,4.255-3.475,7.3-3.932c1.235-0.239,2.536-0.35,3.883-0.35
			c5.511,0,11.811,1.847,17.713,4.277c8.785,3.28,16.001,7.312,16.001,7.312s-1.044-17.749-6.265-31.323
			c-5.221-13.573,3.133-41.763,3.133-41.763s3.132-6.265-1.045-10.441c-0.836-0.835-2.005-1.211-3.399-1.211
			c-5.58,0-14.768,6.014-20.614,12.696c-1.18,1.349-2.143,1.936-2.957,1.936c-4.231,0-4.488-15.814-10.616-22.818
			c-0.886-1.012-1.94-1.457-3.117-1.457c-8.531,0-23.49,23.384-27.161,23.384c-4.177,0,12.529-45.94,1.044-50.117
			C184.298,116.667,183.523,116.541,182.716,116.541"/>
		<path fill="#E3F3FA" d="M476.063,76c-1.498,2.487-2.186,4.068-1.348,5.772c0.843,1.935,5.973,10.682,5.973,10.682
			s4.958,8.716,5.833,10.432c0.908,1.578,2.585,1.858,5.542,2.114c1.498-2.487,2.186-4.068,1.348-5.772
			c-0.844-1.935-5.973-10.682-5.973-10.682c0.001,0-4.959-8.716-5.833-10.432C480.698,76.535,479.021,76.254,476.063,76"/>
		<path fill="#E3F3FA" d="M535.063,59c-2.242,2.085-3.439,3.365-3.249,5.32c0.091,1.061,0.581,4.208,0.702,7.173
			c0.208,2.946,0.396,5.625,0.396,5.625s0.194,10.866,0.233,13.037c0.067,2.016,1.42,3.153,3.917,4.845
			c2.486-1.693,3.831-2.854,3.884-4.889c0.13-2.174-0.24-13.32-0.24-13.32s-0.173-2.803-0.362-5.886
			c-0.113-3.08-0.627-6.454-0.792-7.57C539.228,61.271,537.737,60.271,535.063,59"/>
		<path fill="#E3F3FA" d="M602.063,79c-2.979,0.237-4.588,0.417-5.503,1.895c-0.549,0.782-2.018,3.211-3.604,5.375
			c-0.741,1.094-1.55,2.122-2.11,2.887c-0.569,0.764-0.937,1.257-0.937,1.257s-1.549,1.968-3.252,4.133
			c-1.726,2.168-3.581,4.661-4.173,5.502c-1.073,1.59-0.601,3.302,0.578,5.952c0.617,0.024,1.179,0.042,1.688,0.042
			c1.941,0,3.155-0.256,4.023-1.379c1.218-1.58,7.313-9.489,7.313-9.489s0.391-0.511,0.996-1.303c0.6-0.801,1.436-1.844,2.257-3.034
			c1.702-2.293,3.367-5.029,3.91-5.932C604.184,83.166,603.539,81.473,602.063,79"/>
		<path fill="#E3F3FA" d="M582.063,268c-1.46,2.493-2.1,4.212-1.136,5.977c0.561,0.925,2.281,3.705,4.096,6.03
			c0.858,1.214,1.794,2.239,2.437,3.051c0.657,0.795,1.083,1.306,1.083,1.306s0.435,0.496,1.107,1.265
			c0.678,0.762,1.575,1.83,2.566,2.864c1.952,2.126,4.135,4.321,4.879,5.042c0.738,0.699,1.573,0.968,2.631,0.968
			c0.918,0,2.002-0.202,3.337-0.501c0.652-2.876,0.854-4.579-0.42-5.95c-0.691-0.726-2.77-2.903-4.676-4.9
			c-0.961-0.99-1.796-1.97-2.442-2.681c-0.639-0.713-1.052-1.174-1.052-1.174s-0.385-0.476-0.982-1.213
			c-0.575-0.748-1.447-1.714-2.201-2.805c-1.636-2.12-3.137-4.561-3.69-5.344C586.663,268.446,585.057,268.255,582.063,268"/>
		<path fill="#E3F3FA" d="M548.063,293c-2.023,2.216-3.069,3.523-2.709,5.337c0.16,0.994,0.805,3.937,1.21,6.689
			c0.248,1.365,0.382,2.692,0.52,3.663c0.128,0.973,0.21,1.601,0.21,1.601s0.25,2.526,0.444,5.316
			c0.201,2.79,0.291,5.846,0.36,6.864c0.104,1.881,1.449,2.919,3.965,4.525c2.467-1.611,3.819-2.76,3.833-4.731
			c-0.005-1.068-0.1-4.272-0.328-7.213c-0.221-2.941-0.52-5.612-0.52-5.612s-0.08-0.668-0.204-1.704
			c-0.135-1.035-0.268-2.44-0.522-3.906c-0.416-2.938-1.109-6.122-1.351-7.175C552.461,294.716,550.849,293.911,548.063,293"/>
		<path fill="#E3F3FA" d="M428.763,114.366c-0.109,0-0.223,0.004-0.341,0.013c-0.849,0.059-1.926,0.324-3.358,0.622
			c-0.479,1.3-0.756,2.406-0.757,3.356c-0.001,0.95,0.274,1.777,0.946,2.359c0.359,0.333,1.098,0.98,2.004,1.761
			c0.921,0.716,2.018,1.524,3.066,2.308c1.062,0.721,2.074,1.409,2.822,1.917c0.748,0.513,1.235,0.807,1.235,0.807
			s0.482,0.312,1.229,0.796c0.748,0.485,1.761,1.144,2.822,1.792c2.132,1.328,4.428,2.712,5.213,3.153
			c0.424,0.239,0.853,0.348,1.311,0.348c1.09,0,2.347-0.62,4.107-1.598c0.142-2.836,0.027-4.493-1.365-5.416
			c-1.509-0.935-9.059-5.612-9.059-5.612s-0.472-0.292-1.153-0.773c-0.688-0.476-1.619-1.122-2.596-1.797
			c-0.927-0.7-1.896-1.431-2.716-2.051c-0.752-0.648-1.375-1.172-1.695-1.425C429.944,114.53,429.436,114.366,428.763,114.366"/>
		<path d="M255.705,281.779c-3.599,0.702-6.58-0.46-9.336-1.589c-2.749-1.192-5.268-2.628-7.795-4.164
			c-2.526-1.538-5.053-3.217-7.714-5.109c-2.657-1.893-5.465-3.995-8.411-6.517c-0.536-0.43-1.108-0.975-1.765-1.579
			c-0.674-0.591-1.355-1.3-2.11-2.065c-1.472-1.547-3.144-3.414-4.595-5.633c-0.406-0.54-0.703-1.127-1.061-1.712l-0.264-0.442
			c0.022,0.067-0.276-0.483-0.438-0.856l-0.585-1.191l-0.454-1.203l-0.234-0.601l-0.156-0.601l-0.321-1.2l-0.167-1.184
			c-0.144-1.564-0.146-3.098,0.335-4.549l0.131-0.556l0.236-0.536c0.161-0.357,0.284-0.726,0.454-1.086l0.632-1.056
			c0.108-0.173,0.19-0.369,0.316-0.528l0.382-0.471c0.939-1.372,2.152-2.271,3.469-3.037c1.307-0.779,2.933-1.155,4.705-1.349
			c3.572-0.391,7.839,0.466,12.06,1.823c4.246,1.444,8.545,3.398,12.774,5.729c4.237,2.316,8.428,4.963,12.542,7.831
			c2.057,1.434,4.096,2.928,6.093,4.471l1.484,1.164l0.728,0.584l0.352,0.287l0.159,0.131c-6.159,7.775,8.436-10.556,6.926-8.672
			l-0.005-0.004l-0.041-0.033c-0.729-0.586-1.64-1.418-2.447-2.234c-4.426-4.445-8.137-9.967-10.878-15.903
			c-1.364-2.981-2.526-6.076-3.4-9.272c-0.858-3.198-1.523-6.465-1.918-9.786c-0.78-6.644-0.587-13.45,0.347-20.178
			c0.941-6.733,2.686-13.383,4.924-19.834c0.599-1.603,1.196-3.203,1.792-4.798c0.601-1.594,1.342-3.093,2-4.64
			c1.252-3.125,2.963-5.978,4.469-8.917c3.377-5.658,7.142-10.961,11.42-15.66c4.333-4.642,9.04-8.75,13.992-12.292
			c5.001-3.48,10.237-6.357,15.496-8.77c10.579-4.742,21.277-7.44,31.105-8.922c4.912-0.782,9.635-1.171,14.064-1.439
			c1.108-0.053,2.199-0.105,3.271-0.156c1.073-0.023,2.128-0.047,3.163-0.07c1.034-0.037,2.051-0.004,3.047-0.01
			c0.498,0.001,0.991,0.002,1.479,0.004c0.925,0.034,1.84,0.067,2.745,0.1c0.953,0.037,1.897,0.073,2.83,0.109
			c0.936,0.037,1.827,0.054,2.865,0.163c2.001,0.173,3.956,0.342,5.863,0.507c2.118,0.288,4.302,0.638,6.363,0.941
			c0.53,0.081,1.056,0.162,1.578,0.242c0.567,0.095,1.131,0.189,1.69,0.282c1.119,0.187,2.223,0.371,3.311,0.553
			c2.231,0.373,4.398,0.734,6.499,1.085c0.531,0.088,1.058,0.176,1.579,0.264l0.192,0.032l-0.032-0.06l-0.155-0.156l-0.311-0.311
			c-0.412-0.413-0.817-0.818-1.216-1.217c-1.27-1.272-2.452-2.457-3.544-3.55c-2.584-2.594-4.737-4.756-6.424-6.448
			c-0.399-0.401-0.771-0.774-1.115-1.119c-0.349-0.347-0.746-0.688-1.066-0.985c-0.66-0.602-1.188-1.083-1.579-1.438l-1.003-0.915
			c-0.314-0.302-0.817-0.624-1.215-0.934c-0.846-0.625-1.687-1.248-2.524-1.867l-1.253-0.927l-1.406-0.901
			c-0.936-0.599-1.867-1.195-2.794-1.789c-4.561-2.829-5.57-3.285-7.72-4.475c-0.974-0.532-1.946-1.022-2.899-1.523l-0.178-0.093
			l0.01,0.005l0.004,0.002l0.001,0l0.002,0.001l0.009,0.004l-0.007,0.006l-0.003,0.001l-0.069,0.039
			c1.149-0.63,2.214-1.215,3.187-1.748c4.179-2.484,6.664-4.142,7.109-4.481c0.231-0.161-0.031,0.021-0.851,0.589
			c-0.818,0.567-2.271,1.441-4.334,2.743c7.156-4.367,13.08-8.95,18.276-13.254c5.171-4.331,9.576-8.429,13.415-12.166
			c1.926-1.864,3.689-3.654,5.329-5.356c0.814-0.858,1.603-1.688,2.363-2.488c0.379-0.41,0.751-0.813,1.116-1.208
			c0.188-0.208,0.375-0.414,0.561-0.618l0.018-0.02c6.279,7.458-8.531-10.187-7.016-8.362l-0.038,0.02l-0.074,0.04l-0.148,0.079
			l-0.294,0.156c-0.78,0.418-1.53,0.82-2.251,1.207c-0.36,0.196-0.713,0.387-1.058,0.575c-0.383,0.171-0.758,0.338-1.125,0.502
			c-1.476,0.655-2.825,1.253-4.051,1.797c-2.557,1.002-4.602,1.805-6.17,2.42c-1.573,0.611-2.718,0.979-3.376,1.224
			c-1.332,0.473-0.852,0.303,1.16-0.411c-6.226,2.248-9.479,3.278-11.123,3.825c-1.646,0.544-1.71,0.565-1.71,0.565
			s-0.848,0.302-3.424,1.097c-2.571,0.804-6.837,2.164-13.712,4.192c-6.874,2.022-16.339,4.759-29.315,8.225
			c-6.484,1.738-13.85,3.66-22.192,5.761c-1.041,0.259-2.098,0.522-3.169,0.789l-0.399,0.098l-0.2,0.049l-0.05,0.013
			c2.142,4.288-4.865-9.582,4.789,9.618l0.087-0.078l0.7-0.623c0.467-0.418,0.938-0.839,1.412-1.263
			c0.979-0.832,1.834-1.753,2.725-2.675c0.445-0.462,0.893-0.927,1.344-1.396c0.418-0.485,0.839-0.974,1.263-1.466
			c3.401-3.934,6.537-8.311,9.508-13.068c0.937-1.542,2.043-3.325,3.192-5.386c0.289-0.515,0.603-1.037,0.895-1.586
			c0.457-0.861,0.925-1.746,1.406-2.653c1.229-2.258,2.319-4.586,3.512-7.033c0.628-1.241,1.113-2.426,1.664-3.666
			c0.529-1.225,1.125-2.521,1.602-3.733c1.006-2.466,2.052-5.029,3.136-7.686c0.274-0.674,0.552-1.354,0.832-2.04l0.428-1.049
			l0.221-0.54c-0.105,0.008-0.325,0.136-0.483,0.199c-1.38,0.624-2.782,1.258-4.208,1.903c-2.851,1.29-5.792,2.62-8.821,3.99
			c-1.514,0.685-3.051,1.38-4.608,2.084c-0.745,0.321-1.632,0.772-2.502,1.207c-0.87,0.434-1.747,0.871-2.629,1.31
			c-2.372,1.178-4.807,2.386-7.301,3.624c-3.686,1.82-7.546,3.728-11.567,5.714c-2.011,0.994-4.062,2.007-6.15,3.039
			c-2.1,1.007-4.237,2.032-6.412,3.075c-4.351,2.083-8.847,4.237-13.476,6.453c-4.634,2.196-9.374,4.541-14.275,6.786
			c-4.913,2.205-9.942,4.461-15.075,6.765c-2.565,1.151-5.157,2.314-7.771,3.488c-2.611,1.146-5.262,2.425-7.903,3.472
			c-5.352,2.177-10.989,4.36-16.645,6.81c-11.32,4.856-22.841,10.78-33.421,18.712c-10.577,7.872-20.062,18.077-26.618,30.136
			c-6.585,12.03-10.154,25.64-10.896,39.032l-0.169,2.513l-0.032,2.502c-0.021,1.667-0.04,3.333-0.06,4.996
			c0.049,1.666,0.16,3.332,0.239,4.995l0.132,2.492c0.047,0.83,0.179,1.656,0.266,2.484c0.196,1.654,0.392,3.305,0.588,4.953
			c0.275,1.64,0.598,3.271,0.897,4.902c0.159,0.814,0.292,1.632,0.473,2.44l0.616,2.408c0.436,1.597,0.771,3.217,1.292,4.784
			c1.896,6.327,4.505,12.371,7.535,18.085c3.018,5.733,6.72,10.984,10.675,15.85l1.493,1.814l0.374,0.451l0.103,0.112l0.15,0.164
			l0.597,0.654c0.397,0.434,0.791,0.864,1.181,1.29c0.789,0.843,1.524,1.712,2.329,2.473c6.223,6.326,12.041,10.7,15.245,13.018
			c7.253,5.089,13.557,8.105,19.783,10.118c6.229,1.98,12.398,3.145,19.704,3.463c-6.27-3.687-11.058-7.245-16.144-10.725
			c-5.065-3.507-10.334-7.097-16.901-11.799c-2.898-2.144-8.176-6.144-13.761-11.837c-0.728-0.684-1.378-1.466-2.086-2.222
			c-0.35-0.382-0.702-0.768-1.058-1.157l-0.536-0.585l-0.135-0.147l-0.092-0.101l-0.333-0.403l-1.332-1.622
			c-3.528-4.347-6.823-9.005-9.488-14.086c-2.678-5.066-4.994-10.408-6.677-16.028c-0.467-1.389-0.755-2.838-1.146-4.257
			l-0.553-2.143c-0.162-0.721-0.277-1.454-0.419-2.182c-0.269-1.458-0.537-2.92-0.807-4.383c-0.175-1.482-0.35-2.967-0.524-4.455
			c-0.077-0.745-0.202-1.484-0.242-2.235l-0.115-2.256c-0.07-1.505-0.175-3.01-0.221-4.522c0.02-1.516,0.038-3.034,0.058-4.554
			l0.026-2.28l0.155-2.263c0.669-12.092,3.841-23.958,9.557-34.427c5.705-10.484,13.965-19.454,23.55-26.594
			c9.58-7.186,20.268-12.734,31.141-17.396c5.438-2.357,10.927-4.485,16.449-6.732c2.815-1.12,5.41-2.377,8.082-3.549
			c2.648-1.189,5.273-2.368,7.873-3.535c5.198-2.334,10.293-4.623,15.269-6.857c4.953-2.271,9.698-4.619,14.361-6.831
			c4.652-2.229,9.171-4.395,13.544-6.491c2.185-1.049,4.334-2.08,6.443-3.093c2.097-1.037,4.154-2.054,6.173-3.052
			c4.035-1.996,7.908-3.912,11.606-5.74c0.925-0.458,1.838-0.909,2.74-1.355l0.674-0.333c0.163-0.081,0.091-0.045,0.106-0.053
			l-0.003,0.001l-0.009,0.004l-0.022,0.01l-0.002-0.02l0.011-0.019l0.006-0.009c-0.114,0.21-0.226,0.418-0.336,0.623
			c-0.272,0.514-0.563,0.997-0.832,1.476c-1.068,1.921-2.088,3.561-2.949,4.984v0c-2.729,4.372-5.564,8.308-8.491,11.691
			c-0.364,0.425-0.727,0.847-1.086,1.266c-0.378,0.39-0.752,0.777-1.125,1.162c-0.743,0.77-1.463,1.555-2.237,2.199
			c-0.378,0.339-0.753,0.676-1.126,1.01l-0.556,0.501l-0.069,0.062c9.603,19.237,2.691,5.325,4.849,9.615l0.052-0.013l0.206-0.051
			l0.412-0.102c1.086-0.271,2.156-0.537,3.211-0.8c8.416-2.121,15.826-4.055,22.361-5.807c13.072-3.493,22.633-6.258,29.592-8.307
			c6.957-2.054,11.304-3.44,13.918-4.258c2.616-0.808,3.492-1.12,3.492-1.12s0.065-0.022,1.751-0.579
			c1.685-0.56,4.993-1.606,11.454-3.939h0.001c-2.082,0.739-2.579,0.916-1.2,0.427c0.689-0.257,1.849-0.628,3.511-1.273
			c1.663-0.655,3.829-1.472,6.54-2.565c1.359-0.603,2.854-1.265,4.489-1.99c0.409-0.184,0.827-0.372,1.254-0.563
			c0.436-0.233,0.881-0.471,1.335-0.714c0.906-0.49,1.85-1,2.829-1.529l0.368-0.201l0.186-0.101l0.093-0.051l0.047-0.025
			c1.541,1.807-13.302-15.81-7.026-8.344l-0.015,0.016l-0.476,0.523c-0.338,0.366-0.683,0.739-1.033,1.119
			c-0.721,0.758-1.467,1.543-2.239,2.356c-1.558,1.618-3.248,3.334-5.09,5.115c-3.671,3.573-7.888,7.493-12.78,11.59
			c-4.904,4.065-10.481,8.358-16.92,12.283c1.865-1.183,3.171-1.96,3.924-2.484s0.994-0.692,0.781-0.544
			c-0.415,0.32-2.693,1.827-6.429,4.052c-0.474,0.259-0.969,0.53-1.485,0.813c-0.258,0.142-0.521,0.287-0.791,0.434
			c-0.315,0.169-0.373,0.221-1.174,0.613c-0.648,0.313-1.278,0.656-1.974,0.961c-0.727,0.279-1.466,0.564-2.218,0.853
			c-1.504,0.578-3.058,1.175-4.658,1.791c-1.595,0.601-3.261,1.282-4.929,1.867c-1.671,0.593-3.387,1.202-5.145,1.826
			c-0.879,0.312-1.768,0.627-2.668,0.947l-0.677,0.24l-0.34,0.121l-0.085,0.03l-0.041,0.015l0.039,0.017l0.156,0.067
			c0.431,0.185,0.863,0.371,1.299,0.557c1.786,0.766,3.611,1.549,5.473,2.348c1.863,0.8,3.764,1.615,5.698,2.445
			c1.896,0.833,3.734,1.685,5.632,2.558c1.771,0.874,3.57,1.761,5.396,2.662c0.896,0.471,1.804,0.948,2.724,1.433
			c0.907,0.501,1.844,0.988,2.759,1.517c1.324,0.758,0.855,0.489,0.939,0.538l-0.012-0.007l-0.031-0.018l0.013-0.003h0.016h0.01
			l-0.198-0.006c-0.604-0.003-1.222-0.006-1.853-0.01c-1.064,0.005-2.151-0.027-3.258,0.01c-1.107,0.024-2.235,0.049-3.384,0.074
			c-1.147,0.054-2.315,0.109-3.503,0.165c-4.747,0.284-9.811,0.703-15.115,1.542c-10.602,1.599-22.265,4.509-34.002,9.767
			c-5.84,2.672-11.694,5.885-17.319,9.803c-5.579,3.98-10.905,8.623-15.798,13.874c-4.838,5.308-9.087,11.277-12.855,17.616
			c-1.694,3.264-3.585,6.472-4.979,9.914c-0.729,1.703-1.549,3.391-2.203,5.12c-0.646,1.731-1.294,3.466-1.943,5.206
			c-2.438,7.023-4.372,14.356-5.433,21.921c-1.053,7.558-1.289,15.34-0.381,23.057c1.792,15.448,8.439,30.428,19.368,41.497
			c1.061,1.06,2.09,2.028,3.413,3.093l0.153,0.121l0.092,0.071c-1.445,1.933,13.064-16.469,6.888-8.708l-0.222-0.184l-0.413-0.337
			l-0.811-0.651l-1.614-1.266c-2.153-1.664-4.325-3.254-6.526-4.79c-4.402-3.066-8.905-5.915-13.57-8.466
			c-4.655-2.56-9.503-4.793-14.614-6.527c-1.313-0.383-2.574-0.833-3.927-1.135l-2.003-0.483l-2.063-0.367
			c-2.771-0.425-5.641-0.678-8.646-0.344c-2.967,0.31-6.084,1.042-8.882,2.627c-2.77,1.529-5.295,3.644-7.024,6.078
			c-3.693,4.587-5.45,11.086-4.68,16.801c0.106,0.708,0.212,1.414,0.317,2.118c0.16,0.678,0.343,1.344,0.521,2.011l0.276,0.995
			l0.351,0.941l0.719,1.865l0.847,1.747l0.427,0.867l0.21,0.364l0.362,0.615c0.487,0.808,0.936,1.632,1.457,2.34
			c1.968,2.972,4.045,5.268,5.861,7.161c0.921,0.93,1.764,1.785,2.565,2.486c0.789,0.718,1.485,1.362,2.117,1.864
			c3.518,2.95,6.949,5.147,10.286,6.876c3.338,1.726,6.595,2.973,9.885,3.824c3.285,0.846,6.604,1.338,10.063,1.286
			c1.717-0.004,3.5-0.232,5.249-0.628C252.544,283.677,254.316,282.984,255.705,281.779z"/>
		<path d="M333.734,104.095c2.961,6.651,5.121,12.261,7.586,17.963c0.616,1.416,1.24,2.852,1.882,4.327
			c0.647,1.454,1.312,2.948,2.004,4.501c0.684,1.538,1.395,3.134,2.141,4.811c0.685,1.683,1.512,3.412,2.22,5.268
			c0.433,1.052,0.984,2.379,1.498,3.946c0.257,0.782,0.606,1.615,0.843,2.504c0.253,0.888,0.52,1.824,0.799,2.803
			c0.271,1.005,0.511,2.165,0.783,3.304c0.34,1.465,0.691,2.98,1.052,4.535c0.884,3.568,1.538,7.291,2.332,11.052
			c0.174,0.943,0.349,1.891,0.523,2.842c0.327,1.894,0.655,3.795,0.985,5.704c0.165,0.987,0.33,1.977,0.495,2.968l0.245,1.489
			l0.122,0.746c-0.013,0.094,0.077,0.044,0.135,0.041l0.187-0.033l0.373-0.066c1.995-0.348,3.998-0.698,6.006-1.048
			c1.67-0.268,3.346-0.537,5.025-0.807c0.988-0.147,1.979-0.296,2.972-0.444c1.987-0.274,3.984-0.55,5.987-0.826
			c4.006-0.518,8.037-0.972,12.042-1.306c3.993-0.326,8.009-0.554,11.742-0.445c0.927,0.029,1.832,0.083,2.671,0.171l0.524,0.061
			l-0.029-0.004l-0.011-0.002l-0.021-0.032l0.013-0.033l-0.213,0.438l-0.282,0.549c-0.195,0.369-0.405,0.746-0.627,1.124
			c-0.886,1.517-1.911,3.06-2.99,4.576c-2.162,3.037-4.519,5.989-6.889,8.828c-2.375,2.84-4.78,5.574-7.156,8.185
			c-0.543,0.591-1.084,1.18-1.623,1.767c-0.615,0.656-1.229,1.309-1.838,1.959c-1.24,1.297-2.471,2.583-3.69,3.858
			c-0.146,0.078,0.044,0.157,0.095,0.237l0.235,0.24l0.472,0.48l0.946,0.963c0.622,0.641,1.27,1.278,1.863,1.912
			c0.591,0.632,1.237,1.271,1.754,1.886c0.501,0.573,0.999,1.144,1.494,1.711c6.995,8.375,12.454,17.558,15.437,26.675
			c3.079,9.117,3.25,18.17,0.744,25.836c-0.327,0.955-0.71,1.883-1.049,2.817c-0.407,0.91-0.856,1.795-1.269,2.687
			c-0.455,0.873-0.986,1.704-1.462,2.551c-0.471,0.844-1.107,1.66-1.642,2.481c-2.274,3.24-4.804,6.095-7.491,8.633
			c-5.367,5.083-11.377,8.92-16.931,12.55c-5.588,3.6-10.734,6.999-15.007,10.35c-4.289,3.326-7.726,6.508-10.363,9.218
			c-1.295,1.378-2.432,2.606-3.379,3.691c-0.922,1.108-1.696,2.04-2.32,2.789c-1.198,1.536-1.788,2.348-1.788,2.348
			s-0.146,0.194-0.436,0.579c-0.286,0.388-0.736,0.95-1.256,1.741c-0.531,0.784-1.191,1.759-1.978,2.918
			c-0.758,1.174-1.578,2.567-2.537,4.131c-3.721,6.306-8.351,16.033-12.343,28.93c-0.482,1.614-0.978,3.273-1.486,4.977
			c-0.451,1.712-0.914,3.469-1.389,5.268c-0.895,3.513-1.833,7.193-2.812,11.036c-0.937,3.832-2.034,7.777-3.162,11.882
			c-1.084,4.124-2.392,8.318-3.685,12.687c-0.638,2.188-1.404,4.35-2.118,6.582c-0.369,1.108-0.722,2.239-1.112,3.355
			c-0.403,1.108-0.809,2.225-1.219,3.35c-0.413,1.122-0.81,2.268-1.245,3.394c-0.453,1.11-0.91,2.229-1.37,3.355
			c-0.229,0.563-0.46,1.13-0.691,1.697c-0.252,0.545-0.504,1.092-0.758,1.641c-0.521,1.076-0.994,2.24-1.562,3.269
			c-0.279,0.518-0.561,1.038-0.842,1.56c-0.282,0.519-0.555,1.069-0.866,1.507l-0.9,1.403c-0.147,0.258-0.302,0.422-0.452,0.609
			l-0.112,0.14l0.002-0.001l0.014-0.012l0.025-0.037l-0.808-0.666c-0.498-0.404-0.984-0.84-1.479-1.263
			c-0.98-0.859-1.953-1.75-2.913-2.667c-1.92-1.836-3.788-3.782-5.61-5.811c-4.198-4.761-8.352-10.3-11.914-16.576
			c-3.598-6.254-6.567-13.247-8.646-20.669c-1.994-7.439-3.182-15.293-3.146-23.202l0.021-2.964
			c-0.007-0.987,0.104-1.975,0.148-2.961c0.065-0.986,0.108-1.973,0.188-2.957l0.337-2.943l0.044-0.391l-0.001-0.012l0.535-0.611
			c0.397-0.445,0.765-0.897,1.129-1.351c1.445-1.818,2.78-3.673,3.946-5.609c0.299-0.48,0.604-0.956,0.87-1.452l0.78-1.396
			c0.188-0.334,0.374-0.667,0.536-1.011c0.336-0.682,0.67-1.358,1.001-2.029c0.61-1.363,1.209-2.706,1.707-4.047
			c0.476-1.351,0.991-2.649,1.336-3.956c0.38-1.296,0.757-2.546,0.996-3.774c0.599-2.431,0.874-4.7,1.156-6.672
			c0.077-0.992,0.148-1.912,0.214-2.753c0.066-0.839,0.129-1.596,0.104-2.29c-0.017-1.19-0.032-2.35-0.047-3.479
			c-0.091-1.122-0.231-2.209-0.357-3.271c-0.1-1.066-0.338-2.078-0.556-3.069c-0.238-0.985-0.398-1.968-0.723-2.881
			c-1.077-3.723-2.631-6.918-4.334-9.845c-3.582-5.745-7.975-10.474-13.996-14.638c3.342,6.457,5.016,12.133,6.569,17.839
			c1.376,5.753,2.604,11.649,2.425,19.054c0.022,0.529-0.038,1.151-0.101,1.838c-0.056,0.687-0.117,1.438-0.184,2.249
			c-0.25,1.604-0.466,3.454-0.965,5.425c-0.19,0.999-0.507,2.011-0.816,3.062c-0.273,1.062-0.706,2.112-1.088,3.21
			c-0.404,1.089-0.896,2.177-1.39,3.285c-0.27,0.544-0.541,1.093-0.814,1.646c-0.13,0.28-0.282,0.55-0.436,0.819l-0.633,1.132
			c-0.213,0.404-0.462,0.786-0.703,1.174c-0.939,1.568-2.021,3.054-3.142,4.47c-0.283,0.352-0.566,0.704-0.859,1.029l-0.217,0.25
			c-0.088,0.098-0.095,0.119-0.315,0.343l-1.049,1.08l-1.114,1.103c-0.159,0.465-0.146,1.01-0.227,1.511l-0.31,2.708l-0.371,3.269
			c-0.091,1.095-0.143,2.196-0.214,3.296c-0.052,1.101-0.167,2.198-0.163,3.305l-0.026,3.317c-0.033,8.854,1.292,17.726,3.55,26.108
			c2.34,8.367,5.692,16.23,9.713,23.217c3.986,7.014,8.6,13.159,13.263,18.439c2.023,2.253,4.099,4.413,6.243,6.463
			c1.073,1.023,2.163,2.021,3.271,2.992c0.561,0.48,1.107,0.968,1.681,1.435l0.873,0.721l1.532,1.201
			c0.49,0.399,1.079,0.801,1.616,1.2c0.546,0.431,1.131,0.595,1.697,0.873c0.583,0.188,1.086,0.331,1.711,0.355
			c0.61,0.021,1.253,0.025,1.844-0.134c2.407-0.486,4.525-2.043,6.305-4.045l0.666-0.758l0.328-0.373l0.2-0.252
			c0.264-0.335,0.544-0.677,0.732-0.994c0.418-0.648,0.835-1.294,1.251-1.938c0.44-0.65,0.757-1.279,1.103-1.911
			c0.341-0.633,0.681-1.263,1.019-1.891c0.684-1.258,1.19-2.495,1.785-3.731c0.284-0.617,0.567-1.232,0.849-1.846
			c0.251-0.613,0.5-1.225,0.749-1.833c0.496-1.219,0.989-2.428,1.478-3.629c0.465-1.202,0.88-2.397,1.316-3.583
			c0.431-1.186,0.857-2.363,1.281-3.531c0.409-1.169,0.772-2.333,1.155-3.486c0.738-2.309,1.537-4.572,2.19-6.813
			c1.326-4.48,2.668-8.804,3.769-12.994c1.148-4.185,2.266-8.211,3.213-12.091c0.979-3.851,1.917-7.539,2.812-11.058
			c0.449-1.71,0.888-3.378,1.315-5.005c0.479-1.606,0.945-3.171,1.4-4.694c3.757-12.141,7.993-20.994,11.319-26.644
			c0.859-1.396,1.59-2.646,2.264-3.692c0.696-1.027,1.281-1.892,1.753-2.587c0.457-0.705,0.855-1.197,1.107-1.538
			c0.256-0.339,0.385-0.511,0.385-0.511s0.521-0.716,1.574-2.068c0.548-0.657,1.229-1.475,2.038-2.446
			c0.832-0.951,1.83-2.024,2.965-3.235c2.32-2.378,5.333-5.17,9.207-8.173c3.858-3.025,8.634-6.188,14.252-9.802
			c5.576-3.656,12.138-7.774,18.508-13.774c3.169-2.986,6.232-6.437,8.962-10.325c0.658-0.999,1.372-1.928,1.994-3.013
			c0.62-1.08,1.285-2.144,1.872-3.27c0.548-1.15,1.122-2.301,1.646-3.487c0.459-1.217,0.951-2.435,1.376-3.688
			c1.648-5.039,2.427-10.548,2.267-16.113c-0.039-2.791-0.413-5.572-0.873-8.361c-0.562-2.757-1.209-5.536-2.13-8.234
			c-1.754-5.438-4.234-10.683-7.169-15.754c-2.956-5.065-6.393-9.937-10.318-14.624l-0.169-0.202l-0.011-0.013l0.012,0.011
			l-0.01,0.012l-0.006,0.006l-0.003,0.003l-0.003,0.003l0.202-0.222c2.471-2.713,4.97-5.55,7.469-8.537
			c2.498-2.992,4.999-6.116,7.423-9.516c1.211-1.703,2.4-3.477,3.538-5.423c0.284-0.487,0.565-0.987,0.84-1.507l0.409-0.793
			l0.201-0.406l0.242-0.518c0.848-1.865,1.49-3.792,1.623-5.688c0.124-1.875-0.252-3.707-1.289-5.271
			c-0.534-0.755-1.137-1.433-1.871-1.988c-0.729-0.562-1.589-0.988-2.488-1.362c-0.93-0.33-1.891-0.628-2.902-0.808
			c-0.496-0.098-1.009-0.199-1.54-0.265l-1.005-0.12c-1.204-0.126-2.354-0.191-3.486-0.228c-4.505-0.126-8.767,0.135-13.013,0.477
			c-4.236,0.353-8.417,0.826-12.552,1.36c-2.066,0.269-4.122,0.553-6.164,0.851c-1.021,0.153-2.038,0.306-3.054,0.458l-0.761,0.118
			l-0.189,0.03l-0.025,0.004h0.002l0.011-0.002l0.026,0.015l0.001,0.01l0.001,0.004l0.001,0.002l-0.001-0.003l-0.033-0.185
			c-0.183-0.986-0.363-1.968-0.544-2.946c-0.819-3.881-1.498-7.714-2.411-11.404c-0.375-1.606-0.74-3.17-1.094-4.684
			c-0.29-1.201-0.521-2.32-0.832-3.466c-0.336-1.164-0.656-2.277-0.96-3.332c-0.294-1.062-0.683-1.995-0.987-2.903
			c-0.613-1.814-1.24-3.3-1.736-4.476c-0.829-2.093-1.801-3.947-2.689-5.747c-0.954-1.752-1.876-3.415-2.852-4.95
			c-0.982-1.53-1.933-2.997-2.953-4.352c-0.994-1.375-2.012-2.671-3.064-3.91C344.006,112.832,339.483,108.595,333.734,104.095z"/>
		
			<ellipse transform="matrix(-0.9505 -0.3107 0.3107 -0.9505 608.1346 462.5937)" cx="340.912" cy="182.861" rx="5.243" ry="11.81"/>
		
			<ellipse transform="matrix(-0.6463 -0.7631 0.7631 -0.6463 689.4686 723.3074)" cx="512.363" cy="201.867" rx="3.966" ry="8.932"/>
		<path d="M524.841,214.823c-3.764,3.188-5.666,7.127-4.252,8.799c1.42,1.671,5.615,0.441,9.379-2.747
			c3.763-3.188,5.67-7.126,4.251-8.799C532.804,210.405,528.605,211.634,524.841,214.823z"/>
		<ellipse transform="matrix(-0.6856 0.728 -0.728 -0.6856 360.1065 428.9509)" cx="87.422" cy="292.24" rx="3.966" ry="8.929"/>
		<path d="M381.657,226.925c-2.503,2.211-3.929,3.769-4.835,6.831c-0.504,1.64-1.894,6.689-4.188,10.347
			c-1.123,1.846-2.472,3.293-3.58,4.214c-0.281,0.226-0.538,0.431-0.765,0.612c-0.231,0.175-0.455,0.297-0.625,0.414
			c-0.348,0.226-0.544,0.354-0.544,0.354s-0.188,0.138-0.57,0.315c-0.188,0.095-0.415,0.21-0.678,0.343
			c-0.131,0.066-0.27,0.137-0.416,0.211c-0.125,0.042-0.257,0.085-0.395,0.131c-1.067,0.412-3.079,0.655-5.327,0.578
			c-4.512-0.144-9.781-1.135-11.546-1.358c-3.243-0.453-5.445,0.22-8.3,1.99c2.634,2.021,4.12,3.33,7.371,3.872
			c0.877,0.148,2.631,0.447,4.834,0.761c2.199,0.311,4.836,0.639,7.491,0.706c2.644,0.07,5.359-0.156,7.534-0.966
			c0.269-0.101,0.525-0.196,0.769-0.287c0.202-0.102,0.395-0.198,0.574-0.288c0.356-0.183,0.665-0.341,0.918-0.471
			c0.511-0.25,0.777-0.438,0.777-0.438s0.273-0.174,0.758-0.482c0.238-0.16,0.542-0.334,0.867-0.575
			c0.317-0.25,0.678-0.534,1.072-0.846c1.555-1.269,3.422-3.292,4.854-5.64c2.921-4.712,4.318-10.136,4.822-11.872
			C383.398,232.115,382.835,230.042,381.657,226.925z"/>
		<path d="M343.139,339.125c3.92-1.505,7.574-2.569,11.07-3.511c3.494-0.941,6.854-1.696,10.229-2.372
			c3.374-0.675,6.785-1.214,10.36-1.534c3.573-0.331,7.315-0.355,11.2,0.275c1.294,0.272,3.019,0.577,5.287,1.525
			c0.554,0.263,1.15,0.546,1.795,0.852c0.608,0.376,1.286,0.735,1.975,1.198c1.326,0.928,2.946,2.206,4.714,3.979
			c0.375,0.35,0.861,0.885,1.396,1.446s1.116,1.154,1.628,1.755c0.52,0.585,0.994,1.118,1.339,1.505
			c0.338,0.402,0.549,0.653,0.549,0.653s0.681,0.859,1.55,1.959c0.84,1.145,1.899,2.49,2.62,3.506
			c4.202,5.788,7.318,10.812,9.733,14.808c2.401,4.015,4.104,7.022,5.267,9.091c4.694,8.378,8.602,14.87,12.713,20.866
			c4.098,6.007,8.393,11.514,13.49,18.198c-1.371-8.304-2.869-15.224-5.096-22.274c-2.244-7.047-5.218-14.244-9.989-22.966
			c-1.183-2.154-2.931-5.282-5.43-9.486c-2.521-4.195-5.772-9.474-10.345-15.785c-0.763-1.106-1.963-2.604-2.912-3.845
			c-1.008-1.218-1.797-2.172-1.797-2.172s-0.231-0.289-0.603-0.754c-0.391-0.457-0.928-1.086-1.517-1.776
			c-0.575-0.693-1.267-1.424-1.908-2.103c-0.641-0.678-1.227-1.306-1.725-1.748c-0.564-0.54-1.111-1.062-1.641-1.566
			c-0.541-0.501-1.119-0.966-1.65-1.423c-1.021-0.922-2.23-1.724-3.269-2.479c-1.079-0.722-2.146-1.308-3.118-1.873
			c-1.016-0.487-1.953-0.946-2.837-1.336c-3.584-1.476-6.186-1.93-8.128-2.301c-5.779-0.885-10.862-0.392-15.24,0.641
			c-4.396,1.037-8.184,2.566-11.614,4.397c-3.431,1.836-6.539,3.934-9.503,6.354C348.772,333.247,345.906,335.946,343.139,339.125z"
			/>
		<path d="M392.963,500.826c2.025,0.028,3.915-0.189,5.713-0.513c1.809-0.314,3.523-0.784,5.254-1.373
			c3.439-1.212,6.901-3.004,10.793-5.971c0.515-0.364,1.11-0.865,1.804-1.439c0.684-0.586,1.508-1.2,2.319-1.971
			c0.819-0.76,1.727-1.57,2.652-2.459c0.239-0.243,0.48-0.49,0.726-0.74c4.958-4.988,9.318-10.638,13.04-16.725
			c3.729-6.087,6.824-12.601,9.413-19.347c0.614-1.698,1.23-3.4,1.848-5.105c0.533-1.73,1.067-3.464,1.603-5.202
			c0.569-1.729,0.978-3.501,1.435-5.266c0.426-1.771,0.959-3.524,1.288-5.32c3.102-14.287,4.581-29.062,4.836-43.952
			c-0.012-3.722,0.014-7.455-0.031-11.193c-0.127-3.655-0.254-7.318-0.382-10.99c0.142-7.438,0.282-14.904,0.424-22.394
			c0.283-14.979,0.568-30.043,0.854-45.127c0.128-7.546,0.319-15.079,0.395-22.64c0.066-7.563,0.133-15.123,0.198-22.67
			c-0.237-15.022-0.234-29.979,0.494-44.729c0.11-1.838,0.222-3.674,0.332-5.508l0.171-2.748l0.281-2.709
			c0.187-1.806,0.372-3.609,0.559-5.41c0.23-1.869,0.469-3.771,0.62-5.647c0.661-7.521,0.647-14.972,0.701-22.223
			c0.018-1.808,0.043-3.604,0.118-5.352l0.067-1.285v-0.008l-0.003,0.019l-0.04-0.03c0.794,3.244,1.322,6.771,1.824,10.25
			c0.471,3.526,0.94,7.038,1.407,10.534c0.473,3.521,0.962,7.04,1.591,10.574c0.317,1.768,0.67,3.539,1.111,5.328
			c0.462,1.798,0.945,3.588,1.848,5.524c0.122,0.246,0.232,0.485,0.38,0.741c0.151,0.275,0.244,0.442,0.502,0.828
			c0.509,0.71,1.052,1.394,1.758,1.856c0.334,0.258,0.688,0.489,1.095,0.596c0.375,0.187,0.791,0.261,1.203,0.309
			c0.831,0.105,1.674-0.061,2.494-0.298c0.394-0.123,0.825-0.303,1.161-0.46l0.753-0.393c0.469-0.269,0.907-0.545,1.318-0.827
			c0.816-0.564,1.566-1.145,2.277-1.736c2.819-2.37,5.244-4.865,7.621-7.377c4.633-4.944,8.953-10.023,13.211-15.077
			c4.212-5.064,8.391-10.089,12.518-15.052c4.121-4.939,8.197-9.815,12.346-14.358c1.038-1.131,2.082-2.238,3.134-3.292
			c0.533-0.533,1.039-1.02,1.597-1.541l1.697-1.596c2.227-2.138,4.433-4.256,6.614-6.35c2.163-2.09,4.29-4.16,6.404-6.082
			c0.528-0.478,1.056-0.946,1.582-1.396l0.787-0.658l0.417-0.338l-0.009,0.001l-0.003-0.037c-0.297,0.507-0.592,1.011-0.887,1.514
			c-0.351,0.57-0.701,1.138-1.05,1.704c-0.712,1.13-1.44,2.25-2.174,3.356c-5.916,8.85-11.854,16.938-17.05,24.378
			c-2.606,3.725-5.058,7.267-7.265,10.739c-0.553,0.868-1.086,1.74-1.602,2.619c-0.255,0.45-0.508,0.895-0.758,1.336l-0.375,0.71
			c-0.197,0.417-0.407,0.825-0.591,1.244c-0.342,0.849-0.677,1.712-0.734,2.514c-0.062,0.801,0.044,1.533,0.418,2.24l0.137,0.24
			l0.205,0.186l0.409,0.37c0.288,0.238,0.507,0.511,0.847,0.715c0.816,0.377,1.537,0.591,2.288,0.871
			c0.368,0.131,0.734,0.262,1.099,0.391l0.709,0.169c0.471,0.11,0.937,0.228,1.395,0.295c0.931,0.169,1.786,0.282,2.724,0.356
			c0.798,0.062,1.569,0.081,2.33,0.091l0.286,0.004c0.093-0.003,0.149-0.11,0.226-0.16l0.428-0.38
			c0.285-0.252,0.567-0.502,0.849-0.751c0.621-0.546,1.226-1.078,1.813-1.595c2.132-1.85,4.021-3.49,5.647-4.901
			c6.539-5.607,8.89-7.536,5.634-4.806c4.153-3.515,8.32-6.931,6.105-5.106c4.779-3.952,9.558-7.801,14.26-11.398
			c4.698-3.571,9.343-6.993,13.813-9.623l0.417-0.24l0.206-0.116l-0.001,0l-0.004,0.002l-0.008,0.004h-0.015l0.004-0.014
			l0.004-0.006l0.002-0.003l0.003-0.004l-0.24,0.315c-2.766,3.495-5.712,6.567-8.226,9.203c-5.088,5.263-8.738,8.842-10.005,10.124
			c-1.279,1.276-0.212,0.218,3.881-3.883c-4.403,4.425-8.811,8.764-12.999,13.09c-2.093,2.169-4.134,4.326-6.074,6.571
			c-0.97,1.13-1.914,2.267-2.82,3.539c-0.461,0.655-0.879,1.274-1.348,2.178c-0.6,1.271-1.029,2.603-0.629,3.89
			c0.059,0.32,0.239,0.614,0.353,0.921c0.058,0.148,0.169,0.329,0.25,0.492l0.214,0.403l0.439,0.824
			c0.293,0.546,0.583,1.088,0.871,1.625c0.266,0.557,0.506,1.13,0.758,1.686l0.371,0.833l0.185,0.414l0.092,0.206
			c0.033,0.079,0.05,0.1,0.116,0.286c0.445,1.199,0.885,2.387,1.32,3.562c0.216,0.588,0.431,1.173,0.644,1.755l0.31,0.874
			l0.154,0.435l0.039,0.109l0.09-0.046l0.192-0.122c2.053-1.298,4.059-2.566,6.015-3.803c3.953-2.459,7.425-4.553,10.46-6.355
			c6.041-3.584,10.086-5.831,11.146-6.424c1.065-0.582-0.87,0.446-6.623,3.769c7.559-4.409,15.092-8.355,9.778-5.509
			c5.806-3.148,11.589-6.131,17.208-8.432c1.401-0.568,2.793-1.085,4.144-1.506c0.674-0.209,1.339-0.394,1.97-0.531
			c0.32-0.074,0.624-0.129,0.918-0.175l0.127-0.021l0.003,0l-0.007-0.005l0.002-0.004V171.7l-0.182,0.257
			c-0.146,0.222-0.35,0.456-0.521,0.683c-1.55,1.855-3.545,3.604-5.472,5.192c-1.949,1.593-3.909,3.054-5.791,4.41
			c-3.778,2.705-7.259,4.992-10.216,6.89c-5.924,3.786-9.752,6.032-10.385,6.422c-0.65,0.371,1.911-1.087,8.412-5.166
			c-5.817,3.671-11.606,7.104-17.182,10.301c-1.398,0.792-2.779,1.575-4.143,2.347c-0.871,0.484-1.737,0.965-2.598,1.443
			c-0.684,0.374-1.365,0.747-2.044,1.118l-0.255,0.139l-0.104,0.082l0.014,0.144l0.058,0.575l0.114,1.146
			c0.188,1.886,0.375,3.744,0.557,5.571c0.126,1.259,0.251,2.507,0.375,3.745c0.072,0.727,0.145,1.45,0.217,2.169l0.107,1.078
			l0.026,0.269l0.231-0.005l0.531-0.104c1.416-0.273,2.818-0.544,4.207-0.812c0.947-0.172,1.885-0.343,2.813-0.511
			c1.346-0.232,2.664-0.459,3.951-0.682c2.577-0.431,5.036-0.817,7.357-1.157c4.644-0.683,8.74-1.181,12.147-1.509
			c6.832-0.678,10.817-0.563,11.17-0.549c0.37,0.046-2.799-0.242-10.896,0.521c4.218-0.416,8.312-0.581,10.442-0.53
			c1.068,0.017,1.657,0.057,1.59,0.052c-0.07,0.002-0.788-0.059-2.449-0.058c1.347-0.003,2.667,0.042,3.898,0.168
			c0.31,0.029,0.605,0.071,0.898,0.111l0.428,0.069c0.123,0.023,0.326,0.066,0.27,0.054l-0.001-0.001l-0.001-0.003l0.013-0.009
			l-0.537,0.347c-0.246,0.14-0.479,0.284-0.741,0.419c-2.056,1.102-4.443,1.989-6.785,2.786c-2.358,0.792-4.737,1.488-7.094,2.124
			c-4.714,1.272-9.336,2.32-13.783,3.256c-2.226,0.465-4.409,0.9-6.548,1.307c-1.07,0.198-2.128,0.395-3.173,0.589
			c-1.143,0.2-2.271,0.398-3.387,0.594c-0.513,0.094-1.041,0.156-1.537,0.271l-1.037,1.16c-0.404,0.446-0.807,0.889-1.206,1.33
			c-0.685,0.74-1.361,1.472-2.028,2.193c-1.336,1.446-2.668,2.825-3.963,4.166c-1.282,1.353-2.573,2.622-3.811,3.866
			c-1.231,1.252-2.444,2.441-3.638,3.568c-4.706,4.589-8.971,8.304-12.544,11.296c-7.201,5.891-11.806,8.822-12.514,9.382
			c-0.376,0.252,0.197-0.121,1.739-1.223c0.774-0.547,1.797-1.269,3.075-2.172c1.294-0.886,2.733-2.082,4.484-3.408
			c-7.484,5.855-14.688,10.449-21.206,14.267c-1.628,0.962-3.224,1.856-4.775,2.705c-0.388,0.211-0.772,0.42-1.154,0.628
			c-0.575,0.301-1.145,0.6-1.71,0.896c-0.775,0.4-1.545,0.797-2.309,1.191l-0.144,0.073l-0.001,0.152l0.027,0.319l0.055,0.637
			c0.037,0.424,0.073,0.846,0.109,1.266c0.315,3.656,0.609,7.066,0.884,10.243c0.938,11.654,1.601,19.9,2.058,25.588
			c0.467,5.688,0.696,8.82,0.785,10.247c0.1,1.426,0.08,1.146,0.001,0.01c0.378,5.436,0.38,5.455,0.38,5.455
			s0.294,4.233,0.85,12.226c0.544,7.991,1.465,19.739,2.137,34.773c0.384,7.517,0.811,15.854,1.275,24.952
			c0.341,9.219,1.173,19.124,1.99,29.666c0.813,10.547,1.613,21.766,1.839,33.599c0.191,11.817-0.146,24.297-2.245,37.015
			c-1.065,6.346-2.585,12.746-4.881,18.967c-2.276,6.219-5.329,12.274-9.444,17.663c-4.091,5.398-9.249,10.09-15.273,13.665
			c-6.006,3.616-12.86,6.043-20.051,7.542c-3.603,0.776-7.28,1.205-11.062,1.562c-3.843,0.321-7.713,0.648-11.616,0.908
			c-7.805,0.542-15.727,0.983-23.761,1.277c-16.067,0.619-32.564,0.761-49.444,0.788c-16.881,0.068-34.157-0.052-51.809,1.052
			c-8.82,0.603-17.744,1.491-26.661,3.268c-4.454,0.88-8.911,1.948-13.303,3.37l-1.65,0.519l-1.634,0.586
			c-1.086,0.406-2.191,0.751-3.259,1.219l-3.221,1.333l-3.06,1.319c-8.205,3.461-16.658,6.572-25.248,9.379
			c-8.594,2.804-17.338,5.299-26.207,7.386c-8.867,2.084-17.866,3.76-26.943,4.779c-9.067,1.01-18.239,1.387-27.26,0.545
			c-4.505-0.419-8.96-1.189-13.259-2.39c-4.285-1.217-8.451-2.83-12.188-5.099c-3.725-2.267-7.125-5.045-9.795-8.448
			c-2.691-3.38-4.76-7.259-6.186-11.418c-1.427-4.164-2.206-8.593-2.56-13.081c-0.331-4.498-0.199-9.065,0.209-13.625
			c0.177-2.282,0.514-4.559,0.825-6.837c0.378-2.292,0.776-4.506,1.199-6.856l2.525-13.965
			c6.838-37.198,12.204-74.721,13.881-112.095c0.154-2.332,0.17-4.669,0.222-7.002c0.047-2.334,0.094-4.665,0.142-6.993
			c0.071-2.33,0.036-4.652,0.028-6.974c-0.011-2.318-0.022-4.636-0.034-6.949c-0.023-2.296-0.046-4.59-0.069-6.88l-0.009-0.881
			c-0.048-0.28,0.095-0.617-0.11-0.851l-0.725-1.334l-0.823-1.514l-1.644-3.024c-2.191-4.03-4.376-8.052-6.556-12.062
			c-8.719-16.041-17.345-31.913-25.851-47.562c-2.127-3.912-4.246-7.811-6.357-11.695c-1.055-1.942-2.108-3.88-3.16-5.814
			l-1.575-2.899l-0.394-0.724c-0.038-0.062-0.211-0.404-0.342-0.613l-0.406-0.511l-1.016-1.285
			c-5.412-6.869-10.711-13.751-15.885-20.619c-5.17-6.871-10.219-13.732-15.061-20.612c-2.419-3.44-4.785-6.887-7.061-10.348
			c-1.137-1.731-2.25-3.466-3.328-5.206l-1.585-2.615l-0.465-0.792c-1.518-2.606-2.797-5.025-3.6-6.979
			c-0.204-0.488-0.364-0.937-0.5-1.344c-0.057-0.193-0.111-0.381-0.164-0.562l-0.021-0.102l0.002,0.014l0.002,0.022h-0.008
			l0.001-0.019c0.039-0.015,0.258-0.109,0.404-0.134c0.158-0.046,0.32-0.093,0.501-0.116c0.694-0.131,1.478-0.162,2.272-0.133
			c1.602,0.073,3.229,0.355,4.835,0.689c3.224,0.702,6.442,1.532,10.239,2.874c-2.74-2.976-5.381-5.24-8.648-7.062
			c-1.648-0.892-3.466-1.679-5.717-2.117c-1.13-0.205-2.378-0.322-3.783-0.174c-0.348,0.026-0.71,0.092-1.079,0.172
			c-0.389,0.072-0.688,0.164-1.175,0.33c-1.012,0.394-2.033,0.936-2.842,1.688c-0.859,0.849-1.382,2.379-1.164,4.206
			c0.005,0.226,0.077,0.475,0.113,0.718l0.068,0.372l0.056,0.26c0.079,0.312,0.171,0.605,0.263,0.923
			c0.195,0.601,0.415,1.212,0.665,1.815c0.993,2.423,2.368,4.998,3.965,7.751l0.487,0.831l1.647,2.719
			c1.114,1.8,2.257,3.579,3.418,5.347c2.323,3.535,4.723,7.029,7.17,10.509c4.896,6.958,9.978,13.864,15.178,20.774
			c5.204,6.908,10.522,13.816,15.968,20.729l1.025,1.297c0.24,0.319-0.002-0.037,0.164,0.24l0.394,0.724l1.575,2.899
			c1.052,1.935,2.105,3.873,3.16,5.814c2.111,3.884,4.23,7.783,6.356,11.695c8.506,15.649,17.133,31.521,25.851,47.562
			c2.18,4.01,4.365,8.031,6.556,12.062l1.645,3.024l0.822,1.514c0.093,0.17,0.122,0.224,0.101,0.184l-0.002-0.003l-0.001-0.033
			c0.023,2.308,0.047,4.617,0.069,6.93c0.012,2.295,0.023,4.592,0.035,6.892c0.007,2.298,0.042,4.6-0.029,6.896
			c-0.046,2.298-0.093,4.599-0.14,6.901c-0.051,2.303-0.065,4.608-0.219,6.914c-1.653,36.913-6.976,74.213-13.783,111.239
			l-2.514,13.899c-0.412,2.295-0.852,4.727-1.238,7.091c-0.33,2.397-0.682,4.79-0.872,7.215c-0.433,4.835-0.577,9.729-0.216,14.643
			c0.387,4.906,1.243,9.841,2.871,14.599c1.625,4.751,4.035,9.304,7.211,13.283c3.15,4.006,7.148,7.277,11.434,9.876
			c4.303,2.605,8.973,4.404,13.687,5.741c4.727,1.319,9.534,2.142,14.331,2.589c9.604,0.894,19.154,0.485,28.528-0.556
			c9.38-1.056,18.603-2.776,27.663-4.906c9.061-2.133,17.963-4.674,26.708-7.526c8.745-2.859,17.33-6.019,25.736-9.564l3.144-1.355
			l3.011-1.245c0.99-0.438,2.033-0.758,3.048-1.139l1.529-0.552l1.556-0.487c4.13-1.339,8.368-2.355,12.635-3.198
			c8.536-1.704,17.224-2.575,25.871-3.166c17.323-1.086,34.537-0.974,51.423-1.042c16.891-0.028,33.481-0.171,49.664-0.796
			c8.092-0.297,16.081-0.742,23.955-1.289c3.938-0.263,7.844-0.593,11.722-0.918c3.928-0.368,7.905-0.833,11.769-1.665
			c7.737-1.612,15.261-4.259,21.943-8.278c6.698-3.972,12.49-9.243,17.017-15.224c4.559-5.976,7.873-12.589,10.314-19.256
			c2.461-6.676,4.057-13.435,5.172-20.069c2.189-13.293,2.518-26.095,2.324-38.135c-0.23-12.05-1.043-23.383-1.858-33.959
			c-0.821-10.581-1.645-20.394-1.979-29.421c-0.467-9.133-0.896-17.502-1.281-25.048c-0.677-15.102-1.6-26.863-2.146-34.872
			c-0.558-8.008-0.853-12.25-0.853-12.25s-0.002-0.02-0.381-5.466c0.08,1.138,0.1,1.419,0-0.01c-0.09-1.43-0.32-4.568-0.787-10.265
			c-0.458-5.698-1.122-13.958-2.061-25.632c-0.229-2.652-0.475-5.499-0.737-8.551l-0.001,0.005l0.027-0.014l0.596-0.316
			c0.396-0.215,0.795-0.432,1.197-0.651c1.604-0.877,3.249-1.799,4.923-2.788c6.709-3.931,14.104-8.64,21.906-14.742
			c-1.82,1.381-3.329,2.628-4.664,3.544c-1.323,0.935-2.381,1.682-3.182,2.249c-1.598,1.141-2.188,1.525-1.8,1.265
			c0.731-0.577,5.492-3.604,12.982-9.733c3.701-3.097,8.088-6.922,12.892-11.605c1.22-1.153,2.459-2.367,3.714-3.642
			c1.261-1.269,2.577-2.563,3.884-3.941c1.319-1.366,2.677-2.771,4.04-4.247c0.683-0.739,1.375-1.487,2.076-2.245
			c0.287-0.315,0.575-0.632,0.866-0.951l-0.001,0c0.946-0.167,1.904-0.336,2.873-0.507c1.062-0.197,2.139-0.397,3.227-0.599
			c2.173-0.413,4.393-0.855,6.658-1.329c4.531-0.953,9.244-2.021,14.126-3.337c2.441-0.659,4.924-1.384,7.45-2.232
			c2.528-0.868,5.086-1.79,7.736-3.199c0.331-0.172,0.668-0.375,1.002-0.568l0.509-0.321c0.171-0.104,0.307-0.204,0.631-0.44
			c1.106-0.803,2.055-1.735,2.651-2.802c0.31-0.528,0.481-1.091,0.607-1.662c0.09-0.578,0.084-1.165-0.004-1.756
			c-0.23-1.179-0.887-2.196-1.857-2.938c-0.975-0.751-2.268-1.241-3.611-1.559l-0.75-0.153l-0.602-0.098
			c-0.396-0.057-0.791-0.11-1.177-0.147c-1.549-0.157-3.045-0.203-4.533-0.201c1.833-0.002,2.7,0.068,2.777,0.066
			c0.08,0.006-0.621-0.042-1.82-0.06c-2.406-0.055-6.753,0.127-11.112,0.557c8.356-0.797,12.049-0.504,11.623-0.548
			c-0.427-0.021-4.867-0.13-11.906,0.574c-3.527,0.34-7.721,0.851-12.449,1.545c-2.364,0.346-4.862,0.739-7.479,1.176
			c-1.308,0.226-2.646,0.457-4.012,0.692c-0.342,0.061-0.686,0.123-1.03,0.185l-0.259,0.047l-0.005,0.001l0.001,0l0.003,0
			l0.001,0.002v0.002c0-0.004,0.003,0.033-0.01-0.098l-0.055-0.553c-0.113-1.127-0.228-2.273-0.344-3.436l-0.002,0.002
			c0.499-0.278,1.002-0.559,1.507-0.841c1.38-0.782,2.777-1.574,4.192-2.375c5.639-3.233,11.491-6.703,17.408-10.437
			c-6.608,4.147-9.19,5.616-8.535,5.243c0.645-0.397,4.512-2.666,10.544-6.52c3.014-1.934,6.567-4.268,10.483-7.071
			c1.956-1.41,4.003-2.934,6.098-4.645c2.091-1.737,4.246-3.57,6.329-6.048c0.257-0.333,0.518-0.638,0.769-1.007
			c0.131-0.194,0.234-0.312,0.421-0.625l0.538-0.925c0.657-1.259,1.029-2.618,0.906-3.898c-0.109-0.623-0.213-1.279-0.563-1.83
			c-0.249-0.605-0.735-1.077-1.216-1.494c-1.006-0.802-2.356-1.19-3.828-1.2c-0.366-0.019-0.735-0.006-1.106,0.04l-0.558,0.05
			l-0.269,0.025l-0.168,0.028c-0.452,0.07-0.895,0.152-1.315,0.249c-0.855,0.187-1.666,0.414-2.462,0.66
			c-1.589,0.495-3.119,1.067-4.634,1.681c-6.034,2.474-11.911,5.519-17.836,8.729c5.417-2.903-2.279,1.13-9.923,5.589
			c5.824-3.365,7.797-4.414,6.713-3.822c-1.077,0.602-5.183,2.883-11.289,6.505c-3.038,1.802-6.641,3.978-10.502,6.378h0.013
			c-0.529-1.182-1.069-2.388-1.619-3.616c-0.328-0.617-0.66-1.24-0.995-1.868l-0.506-0.944c-0.065-0.123-0.027-0.05-0.023-0.042
			l0.022,0.044v0.001l-0.012,0.031c0.165-0.315,0.501-0.862,0.849-1.341c0.711-1,1.57-2.043,2.464-3.083
			c1.801-2.085,3.789-4.188,5.838-6.312c4.111-4.247,8.509-8.578,12.937-13.026c-4.112,4.122-5.168,5.167-3.892,3.896
			c1.271-1.286,4.911-4.852,10.093-10.211c2.579-2.71,5.56-5.794,8.643-9.684c0.276-0.366,0.553-0.735,0.832-1.105
			c0.335-0.485,0.673-0.973,1.012-1.463c0.298-0.492,0.604-0.992,0.876-1.486l0.351-0.734l0.175-0.369l0.115-0.35l0.229-0.702
			l0.116-0.653c0.053-0.226,0.046-0.42,0.055-0.624c0.011-0.205,0.015-0.407-0.017-0.593c-0.086-0.759-0.294-1.487-0.91-2.213
			c-0.217-0.436-0.687-0.636-0.987-0.893c-0.159-0.126-0.324-0.239-0.509-0.304c-0.177-0.087-0.361-0.152-0.551-0.206
			c-0.181-0.068-0.376-0.114-0.59-0.133c-0.209-0.024-0.402-0.074-0.642-0.059l-0.69,0.005l-0.77,0.12
			c-0.249,0.023-0.527,0.104-0.812,0.194l-0.843,0.252c-0.589,0.251-1.175,0.458-1.771,0.75c-0.596,0.304-1.2,0.571-1.795,0.91
			l-0.687,0.377l-0.471,0.271c-4.96,2.926-9.642,6.4-14.459,10.054c-4.792,3.666-9.621,7.556-14.444,11.544
			c2.235-1.841-1.972,1.607-6.155,5.147c3.28-2.752,0.909-0.808-5.677,4.838c-1.639,1.421-3.542,3.073-5.689,4.936
			c-0.477,0.418-0.966,0.848-1.469,1.29l0.021-0.003c-0.632-0.051-1.378-0.146-2.07-0.275c-0.36-0.05-0.702-0.143-1.055-0.224
			l-0.53-0.123l-0.101-0.031c-0.177-0.057-0.115-0.037-0.119-0.037l-0.003,0.014c0.1-0.188,0.2-0.378,0.302-0.57
			c0.22-0.387,0.441-0.777,0.665-1.171c0.466-0.793,0.962-1.606,1.488-2.432c2.101-3.305,4.523-6.811,7.105-10.5
			c5.166-7.397,11.09-15.459,17.143-24.51c0.753-1.137,1.506-2.293,2.253-3.479c0.369-0.6,0.74-1.202,1.113-1.806l0.55-0.927
			l0.272-0.473l0.378-0.679c0.668-1.215,1.318-2.471,1.754-3.677c0.423-1.197,0.603-2.308,0.441-3.171
			c-0.044-0.458-0.271-0.785-0.458-1.188c-0.154-0.428-0.545-0.854-0.926-1.211c-0.797-0.736-1.759-1.148-2.7-1.268
			c-0.948-0.136-2,0-3.16,0.46c-0.571,0.188-1.172,0.557-1.765,0.865c-0.584,0.397-1.206,0.757-1.753,1.196l-0.844,0.635
			l-0.455,0.37l-0.894,0.746c-0.585,0.5-1.153,1.006-1.717,1.515c-2.24,2.037-4.383,4.124-6.552,6.219
			c-2.164,2.078-4.353,4.179-6.562,6.3l-1.672,1.572c-0.571,0.534-1.182,1.121-1.746,1.686c-1.142,1.144-2.237,2.307-3.317,3.483
			c-4.3,4.71-8.396,9.615-12.54,14.58c-4.121,4.956-8.294,9.973-12.5,15.03c-4.223,5.014-8.507,10.044-12.984,14.821
			c-2.279,2.415-4.631,4.813-7.069,6.857c-0.607,0.506-1.22,0.975-1.817,1.39c-0.299,0.204-0.589,0.386-0.867,0.546l-0.427,0.223
			l0.016,0.002l0.01,0.011c0.016,0.028-0.113-0.177-0.166-0.284c-0.072-0.119-0.142-0.274-0.213-0.417
			c-0.572-1.208-1.036-2.784-1.431-4.359c-0.394-1.595-0.726-3.252-1.026-4.932c-0.599-3.364-1.081-6.818-1.549-10.305
			c-0.469-3.512-0.94-7.04-1.414-10.583c-0.521-3.576-1.037-7.146-1.949-10.889c-0.449-1.745-0.98-3.5-1.716-4.896
			c-0.737-1.399-1.613-2.337-2.587-2.82c-0.925-0.492-2.312-0.814-3.558-0.413c-1.2,0.37-1.92,1.039-2.611,2.095
			c-0.673,1.072-1.064,2.733-1.331,4.457c-0.085,0.89-0.192,1.81-0.252,2.681l-0.075,1.435c-0.08,1.882-0.105,3.726-0.124,5.562
			c-0.053,7.325-0.047,14.566-0.679,21.745c-0.145,1.799-0.367,3.562-0.589,5.361c-0.194,1.875-0.39,3.753-0.584,5.634l-0.292,2.822
			l-0.174,2.808c-0.113,1.873-0.227,3.747-0.34,5.623c-0.74,14.983-0.739,30.047-0.502,45.117
			c-0.066,7.502-0.133,15.016-0.198,22.535c-0.076,7.521-0.267,15.074-0.395,22.606c-0.285,15.073-0.569,30.127-0.853,45.095
			c-0.142,7.484-0.282,14.946-0.423,22.379l-0.008,0.405l0.016,0.521l0.024,0.69l0.05,1.379l0.1,2.757
			c0.067,1.836,0.134,3.671,0.2,5.504c0.042,3.663,0.018,7.318,0.03,10.964c-0.248,14.567-1.699,28.942-4.688,42.725
			c-0.316,1.737-0.832,3.417-1.24,5.122c-0.44,1.696-0.831,3.405-1.379,5.06c-0.512,1.665-1.022,3.326-1.533,4.984
			c-0.589,1.628-1.178,3.253-1.765,4.873c-2.468,6.43-5.402,12.599-8.905,18.319c-3.498,5.72-7.566,10.982-12.151,15.597
			c-0.226,0.232-0.448,0.461-0.669,0.688c-0.854,0.822-1.689,1.569-2.442,2.274c-0.745,0.716-1.501,1.277-2.126,1.822
			c-0.636,0.531-1.179,0.998-1.646,1.335c-3.543,2.756-6.384,4.817-9.118,6.822c-1.377,0.983-2.718,1.979-4.16,2.953
			C396.271,498.898,394.756,499.906,392.963,500.826z"/>
		<path d="M490.737,214.089c-1.554,0.721-2.772,1.536-3.771,2.565c-0.989,1.038-1.775,2.315-2.301,4.122
			c-0.285,0.974-0.791,2.973-0.962,5.536c-0.149,2.552,0.129,5.728,1.281,8.548c1.092,2.837,2.908,5.151,4.374,6.592
			c0.752,0.707,1.369,1.279,1.856,1.632c0.473,0.365,0.738,0.57,0.738,0.57s0.274,0.196,0.778,0.524
			c0.491,0.347,1.248,0.772,2.188,1.254c1.894,0.929,4.705,1.784,7.644,1.897c2.939,0.151,5.914-0.348,8.282-1.032
			c2.384-0.671,4.209-1.479,5.106-1.897c1.659-0.778,2.793-1.705,3.686-2.804c0.886-1.104,1.552-2.391,2.126-4.004
			c-1.697,0.085-3.051,0.07-4.334,0.251c-1.284,0.171-2.489,0.525-3.924,1.15c-0.774,0.337-2.337,1.011-4.279,1.551
			c-1.936,0.558-4.255,0.927-6.383,0.82c-2.135-0.082-4.037-0.667-5.347-1.293c-0.646-0.336-1.175-0.619-1.519-0.867
			c-0.354-0.226-0.55-0.362-0.55-0.362s-0.188-0.148-0.522-0.411c-0.344-0.243-0.797-0.681-1.347-1.192
			c-1.06-1.057-2.282-2.643-3.011-4.552c-0.776-1.891-0.979-4.11-0.878-6.024c0.126-1.921,0.506-3.522,0.718-4.313
			c0.384-1.465,0.564-2.676,0.569-3.954C490.977,217.119,490.809,215.788,490.737,214.089z"/>
		<path d="M67.053,267.285c-1.915-7.845-3.353-13.027-7.288-21.468c-0.527-1.158-1.323-2.903-2.284-5.012
			c-0.467-1.059-0.974-2.209-1.509-3.423c-0.511-1.201-1.028-2.417-1.552-3.647c-0.615-1.481-1.225-2.983-1.812-4.505
			c-1.172-3.041-2.292-6.165-3.183-9.315c-0.438-1.57-0.814-3.155-1.039-4.667c-0.109-0.751-0.169-1.483-0.161-2.115
			c0.002-0.157,0.002-0.316,0.021-0.443c0.008-0.096,0-0.04,0.002-0.055l-0.003,0.009l-0.016,0.009l-0.009-0.002l-0.032-0.017
			l0.083,0.047l0.176,0.129c0.975,0.692,2.077,1.91,3.07,3.175c2.012,2.583,3.834,5.547,5.554,8.548
			c1.718,3.014,3.332,6.111,4.881,9.22c3.091,6.224,5.92,12.5,8.539,18.594c1.309,3.048,2.563,6.054,3.759,8.995
			c0.588,1.471,1.168,2.922,1.74,4.354l0.103,0.263c11.871-2.099,3.291-0.602,5.94-1.079l0.001-0.035l0.001-0.071l0.003-0.143
			l0.011-0.573l0.025-1.144c0.021-0.761,0.04-1.516,0.06-2.265c0.263-9.018,0.708-17.75,1.364-25.616
			c0.67-7.836,1.509-14.946,2.886-20.186c0.175-0.645,0.359-1.253,0.555-1.805c0.147-0.407,0.068-0.183,0.082-0.227l-0.002,0.004
			l-0.012,0.006l-0.007-0.01l0.005,0.011L87.067,213c0.115,0.3,0.217,0.593,0.305,0.872c0.356,1.113,0.536,1.917,0.613,2.226
			c0.076,0.312,0.037,0.15-0.129-0.542c0.647,2.605,1.062,5.311,1.399,7.928c0.329,2.626,0.571,5.191,0.765,7.67
			c0.385,4.959,0.588,9.574,0.726,13.792c0.135,4.22,0.195,8.049,0.221,11.466c0.005,1.708,0.009,3.314,0.014,4.815
			c-0.016,1.754-0.029,3.386-0.042,4.894l-0.008,0.485l0.015,0.231l0.132,0.172c0.176,0.228,0.35,0.454,0.521,0.678
			c0.311,0.403,0.614,0.798,0.912,1.184c0.369,0.473,0.722,0.924,1.059,1.355c0.675,0.857,1.282,1.628,1.821,2.312
			c1.086,1.361,1.896,2.375,2.422,3.035c1.058,1.312,0.968,1.212-0.315-0.397c6.13,7.603,9.538,11.523,11.307,13.63
			c1.811,2.074,2.014,2.307,2.014,2.307s0.624,0.714,1.8,2.062c0.589,0.673,1.315,1.506,2.173,2.486
			c0.878,0.963,1.89,2.072,3.025,3.316c1.137,1.244,2.397,2.623,3.773,4.128c1.42,1.47,2.959,3.062,4.606,4.769
			c0.823,0.85,1.673,1.728,2.549,2.633c0.86,0.871,1.742,1.771,2.628,2.717c1.776,1.886,3.599,3.919,5.43,6.107
			c3.648,4.38,7.355,9.379,10.648,15.032c3.234,5.643,6.176,12.021,7.243,18.828c0.523,3.384,0.488,6.851-0.399,10.064
			c-0.11,0.401-0.258,0.789-0.382,1.187c-0.059,0.201-0.134,0.395-0.221,0.583l-0.367,0.871l-0.285,0.679
			c-0.041,0.115-0.111,0.225-0.127,0.343l0.043,0.366l0.16,1.334l0.176,1.467c0.235,1.958,0.473,3.931,0.712,5.915
			c0.967,7.938,1.957,16.073,2.959,24.302c2.062,16.451,4.171,33.276,6.221,49.633c1.064,8.176,2.113,16.233,3.133,24.069
			c1.045,7.697,2.06,15.177,3.031,22.334c0.888,6.147,1.616,11.19,1.98,13.709c0.75,4.652,1.534,8.254,2.636,11.63
			c0.546,1.687,1.143,3.312,1.804,4.974c0.693,1.669,1.51,3.367,2.372,5.167c0.062-2.004,0.118-3.846,0.173-5.63
			c0.076-1.784,0.106-3.498,0.07-5.245c-0.079-3.49-0.317-7.17-1.015-11.789c-0.354-2.511-1.064-7.537-1.931-13.666
			c-0.969-7.144-1.981-14.609-3.023-22.292c-1.019-7.827-2.066-15.877-3.13-24.043c-2.051-16.346-4.16-33.159-6.223-49.601
			c-1.004-8.224-1.995-16.354-2.963-24.287c-0.239-1.983-0.477-3.954-0.713-5.911l-0.176-1.465
			c-0.021-0.174-0.015-0.122-0.016-0.128v0.001v0.006v0.002l0.039-0.094l0.164-0.389c0.113-0.257,0.214-0.519,0.296-0.785
			c0.172-0.531,0.362-1.058,0.511-1.592c1.184-4.291,1.168-8.64,0.554-12.636c-1.283-8.039-4.549-14.92-8.006-20.982
			c-3.527-6.051-7.43-11.297-11.252-15.885c-1.918-2.29-3.822-4.413-5.677-6.381c-0.925-0.986-1.846-1.926-2.743-2.833
			c-0.864-0.893-1.702-1.758-2.514-2.596c-1.616-1.672-3.126-3.233-4.519-4.673c-1.354-1.481-2.597-2.839-3.717-4.063
			c-1.118-1.225-2.115-2.316-2.98-3.264c-0.846-0.967-1.564-1.789-2.146-2.454c-1.162-1.331-1.777-2.035-1.777-2.035
			s-0.201-0.23-1.988-2.278c-1.748-2.082-5.116-5.959-11.179-13.478c1.27,1.59,1.359,1.689,0.313,0.391
			c-0.519-0.651-1.318-1.655-2.391-3c-0.828-1.057-1.867-2.382-3.111-3.968c0.008-1.089,0.016-2.268,0.023-3.535
			c-0.004-1.52-0.008-3.145-0.012-4.875c-0.025-3.459-0.086-7.334-0.222-11.617c-0.14-4.284-0.345-8.974-0.739-14.072
			c-0.197-2.549-0.447-5.201-0.793-7.962c-0.357-2.764-0.785-5.627-1.536-8.662c0.194,0.803,0.239,0.989,0.153,0.627
			c-0.092-0.363-0.287-1.266-0.741-2.693c-0.202-0.592-1.737-5.873-5.252-6.559c-0.438-0.084-0.909-0.158-1.393-0.123
			c-0.476,0.064-0.959,0.146-1.396,0.355c-0.886,0.382-1.694,1.064-2.388,2.044c-0.166,0.254-0.333,0.512-0.502,0.771
			c-0.144,0.287-0.289,0.577-0.436,0.87c-0.268,0.545-0.598,1.403-0.681,1.641c-0.264,0.744-0.489,1.493-0.697,2.256
			c-1.579,6.066-2.381,13.243-3.083,21.278c-0.671,8.021-1.12,16.835-1.388,25.954v0c-0.02,0.758-0.04,1.522-0.061,2.293
			l-0.026,1.162l-0.012,0.587l-0.002,0.148l-0.002,0.074v0.038c2.646-0.468-5.926,1.103,5.934-1.039l-0.109-0.28
			c-0.582-1.456-1.172-2.934-1.77-4.43c-1.21-2.979-2.479-6.02-3.803-9.107c-2.653-6.173-5.518-12.535-8.683-18.909
			c-1.586-3.185-3.247-6.373-5.045-9.529c-1.812-3.153-3.713-6.28-6.061-9.3c-1.209-1.504-2.447-3-4.341-4.388
			c-0.266-0.192-0.413-0.298-0.848-0.547c-0.407-0.25-0.818-0.409-1.22-0.567c-0.805-0.35-1.665-0.458-2.495-0.438
			c-0.414,0.039-0.826,0.085-1.234,0.179c-0.209,0.028-0.386,0.143-0.579,0.217c-0.189,0.084-0.389,0.147-0.568,0.249
			c-0.727,0.409-1.312,1.012-1.804,1.681c-0.211,0.362-0.446,0.712-0.575,1.126l-0.227,0.601c-0.057,0.208-0.097,0.423-0.146,0.635
			c-0.105,0.405-0.178,0.893-0.198,1.234c-0.034,0.308-0.038,0.586-0.042,0.865c-0.013,1.115,0.085,2.125,0.224,3.093
			c0.287,1.927,0.723,3.711,1.205,5.448c0.979,3.459,2.154,6.718,3.371,9.876c0.61,1.578,1.238,3.125,1.871,4.646
			c0.537,1.26,1.067,2.506,1.591,3.736c0.549,1.237,1.069,2.41,1.548,3.489c0.971,2.15,1.796,3.916,2.35,5.084
			C58.313,256.929,61.683,261.249,67.053,267.285z"/>
		<path d="M268.888,347.392c-15.237-8.257-36.964-6.854-52.506,3.196c-15.241,9.864-25.924,25.411-33.627,41.541
			c-9.843,20.606-14.763,52.112-17.4,74.654c-0.002,0.023,5.145,18.739,5.27,17.122c4.229-55.469,30.392-139.9,92.579-134.248
			C264.62,349.785,270.002,347.494,268.888,347.392z"/>
		<path d="M92.19,321.234c8.155-1.143,16.178,3.596,21.594,9.207c0.668,0.692,2.744,2.008,2.713,0.073
			c-0.031-1.97-1.491-3.93-2.791-5.276c-6.275-6.502-15.842-12.806-25.414-11.465C85.842,314.117,89.874,321.559,92.19,321.234z"/>
		<path d="M402.197,496.378c5.373-1.666,10.177-3.861,14.66-6.303c4.481-2.462,8.641-5.25,12.6-8.541
			c3.96-3.29,7.739-7.075,11.336-11.629c3.6-4.548,6.977-9.91,9.945-16.341c0.51-1.086,1.083-2.35,1.692-3.898
			c0.309-0.771,0.665-1.598,1.009-2.514c0.329-0.922,0.686-1.919,1.071-2.999c1.462-4.343,3.209-10.147,4.431-18.189
			c0.297-1.696,0.437-3.268,0.641-4.975c0.194-1.694,0.396-3.454,0.604-5.268c0.206-1.813,0.419-3.681,0.637-5.588
			c0.217-1.908,0.459-3.854,0.582-5.845c0.303-3.975,0.615-8.064,0.928-12.168c0.262-4.11,0.359-8.257,0.542-12.307
			c0.034-1.014,0.093-2.02,0.106-3.023c0.006-1.006,0.011-2.004,0.016-2.994c0.011-1.979,0.021-3.926,0.029-5.825
			c0.034-1.895-0.033-3.76-0.085-5.563c-0.052-1.803-0.103-3.547-0.15-5.219c-0.008-0.199-0.016-0.397-0.023-0.592l-0.016-0.251
			c-0.011-0.166-0.021-0.327-0.031-0.484s-0.02-0.31-0.029-0.458l-0.001,0.007l-0.021,0.005c14.033,1.859,23.921,3.171,30.3,4.016
			l0.002-0.005h0.001h0.001l0.026,0.171c0.257,1.677,0.467,3.052,0.634,4.141c0.325,2.182,0.479,3.215,0.479,3.215
			s0.181,1.27,0.508,3.58c0.324,2.312,0.798,5.664,1.331,9.836c1.078,8.339,2.509,19.947,3.682,32.976
			c1.184,13.022,2.161,27.475,2.374,41.39c0.026,1.739,0.052,3.472,0.077,5.193c0.018,1.721-0.051,3.412-0.07,5.101
			c-0.061,3.372-0.082,6.7-0.334,9.875c-0.21,3.186-0.308,6.333-0.727,9.229c-0.364,2.94-0.594,5.717-1.093,8.501
			c-3.038,19.129-6.979,29.979-9.259,35.331c-1.151,2.727-2.306,5.238-3.519,7.525c-0.575,1.174-1.224,2.232-1.807,3.321
			c-0.645,1.022-1.218,2.089-1.875,3.034c-2.51,3.916-5.198,7.172-8.212,10.147c-3.037,2.937-6.452,5.546-10.463,7.896
			c-4.025,2.306-8.63,4.346-13.979,6.052c5.51,0.995,10.833,1.323,16.1,0.811c5.246-0.555,10.442-1.981,15.392-4.505
			c4.923-2.546,9.595-6.149,13.621-10.813c1.048-1.145,1.96-2.397,2.941-3.662c0.898-1.298,1.855-2.622,2.686-4.034
			c1.743-2.798,3.289-5.838,4.703-9.098c2.834-6.423,7.312-19.023,10.526-39.29c0.518-2.871,0.818-6.107,1.219-9.381
			c0.464-3.309,0.575-6.656,0.802-10.118c0.269-3.471,0.294-6.979,0.357-10.552c0.021-1.785,0.089-3.594,0.069-5.396
			c-0.026-1.801-0.054-3.611-0.081-5.43c-0.232-14.54-1.259-29.371-2.486-42.693c-1.219-13.323-2.693-25.129-3.807-33.619
			c-0.55-4.245-1.039-7.658-1.373-10.011c-0.339-2.354-0.525-3.646-0.525-3.646s-0.154-1.054-0.482-3.279
			c-0.169-1.112-0.382-2.519-0.641-4.231c-0.261-1.639-0.545-3.425-0.853-5.36c-0.33-1.993-0.687-4.142-1.069-6.448
			c-0.048-0.289-0.096-0.58-0.145-0.873c-0.295-0.041-0.591-0.083-0.891-0.124c-0.6-0.083-1.209-0.166-1.828-0.251
			c-1.239-0.17-2.52-0.345-3.84-0.525c-2.25-0.307-4.64-0.633-7.172-0.979c-2.977-0.398-6.287-0.842-9.946-1.332
			c-9.312-1.245-20.396-2.727-33.401-4.466c-1.724-0.231-3.683-0.494-5.854-0.785c-0.271-0.036-0.544-0.073-0.821-0.11l-0.204-0.027
			l-0.104-0.015l0.012,0.106l0.051,0.435c0.067,0.583,0.137,1.18,0.207,1.788c0.145,1.24,0.295,2.532,0.45,3.874
			c0.156,1.341,0.317,2.73,0.484,4.166c0.097,1.245,0.196,2.53,0.3,3.853c0.103,1.322,0.209,2.681,0.317,4.074
			c0.054,0.697,0.108,1.402,0.165,2.116c0.051,0.681,0.131,1.578,0.121,1.822c0.042,1.568,0.087,3.204,0.132,4.895
			c0.048,1.691,0.111,3.436,0.075,5.242c-0.011,1.802-0.021,3.647-0.033,5.525c-0.005,0.939-0.011,1.887-0.016,2.84
			c-0.014,0.954-0.071,1.919-0.105,2.887c-0.179,3.873-0.27,7.826-0.521,11.768c-0.3,3.941-0.599,7.869-0.89,11.688
			c-0.114,1.91-0.349,3.788-0.557,5.627s-0.412,3.639-0.609,5.388s-0.388,3.446-0.572,5.08c-0.189,1.62-0.337,3.26-0.576,4.585
			c-1.014,6.725-2.458,11.562-3.664,15.197c-0.319,0.904-0.612,1.739-0.884,2.511c-0.283,0.768-0.582,1.461-0.835,2.108
			c-0.499,1.3-0.973,2.364-1.394,3.28c-2.438,5.422-4.939,10.138-7.466,14.456c-2.521,4.322-5.016,8.278-7.566,12.14
			c-2.551,3.864-5.171,7.622-8.072,11.465C409.278,488.442,406.141,492.408,402.197,496.378z"/>
		<path d="M175.393,518.116c2.1-22.335,2.788-37.388-0.979-63.169c-0.652-4.366-1.714-11.47-3.919-26.231
			c-0.482-3.211-1.017-6.763-1.569-10.44c-0.489-3.244-0.987-6.544-1.486-9.852c-0.284-1.882-0.569-3.766-0.853-5.645
			c-0.143-0.94-0.284-1.879-0.426-2.815l-0.105-0.702l-0.026-0.176l-0.022-0.075l-0.086,0.019l-0.347,0.075l-1.384,0.299
			c-10.858,2.349-22.588,4.886-32.427,7.014c-4.562,0.987-8.685,1.881-12.049,2.609c-1.372,0.298-2.667,0.578-3.876,0.84
			c-0.604,0.131-1.188,0.258-1.749,0.379c-0.28,0.061-0.555,0.12-0.823,0.179l-0.399,0.087l-0.099,0.021l-0.025,0.09l-0.029,0.196
			c-0.317,2.08-0.577,3.782-0.769,5.04c-1.977,12.941-3.772,24.701-5.354,35.062c-1.421,9.447-2.518,17.67-3.482,24.382
			c-1.893,13.438-2.952,20.957-2.952,20.957s-0.734,5.156-1.939,13.607c-0.296,2.092-0.619,4.388-0.968,6.858
			c-0.295,2.331-0.714,4.931-1.153,7.686c-0.894,5.548-2,11.825-2.82,18.715c-0.414,3.439-0.759,7.03-0.913,10.771
			c-0.176,3.729-0.184,7.604,0.157,11.602c0.347,3.99,0.913,8.096,2.137,12.221c1.193,4.113,2.938,8.222,5.318,12.008
			c2.337,3.822,5.472,7.145,8.807,9.899c3.337,2.821,7.025,4.826,10.618,6.507c7.266,3.193,14.308,4.581,20.557,5.371
			c1.352,0.139,2.671,0.273,3.959,0.405c1.303,0.146,2.453,0.144,3.64,0.22c2.344,0.113,4.566,0.22,6.674,0.321
			c2.104,0.146,4.105,0.071,5.988,0.083c1.884-0.007,3.654-0.013,5.314-0.019c1.66,0.028,3.213-0.116,4.658-0.178
			c1.446-0.078,2.785-0.151,4.021-0.219c1.235-0.079,2.37-0.109,3.402-0.214c1.032-0.109,1.965-0.207,2.802-0.296
			c13.552-1.374,23.994-4.393,33.25-8.572c1.154-0.534,2.303-1.041,3.423-1.618c1.108-0.599,2.214-1.195,3.319-1.793l1.641-0.915
			l1.61-0.995c1.061-0.678,2.125-1.358,3.199-2.044c2.099-1.467,4.195-2.965,6.252-4.651c2.053-1.681,4.118-3.464,6.05-5.511
			c-2.648,0.898-5.238,1.509-7.735,2.073c-2.494,0.567-4.937,0.994-7.297,1.445c-1.19,0.191-2.37,0.382-3.546,0.571l-1.74,0.293
			l-1.751,0.24c-1.154,0.173-2.308,0.345-3.464,0.519c-1.157,0.15-2.317,0.301-3.485,0.453c-9.309,1.218-18.936,2.488-31.322,3.623
			c-0.765,0.075-1.617,0.158-2.56,0.251c-0.942,0.091-1.986,0.107-3.118,0.173c-1.134,0.057-2.361,0.118-3.687,0.184
			c-1.326,0.051-2.745,0.186-4.275,0.15c-1.528,0-3.158,0.001-4.892,0.002c-1.733-0.015-3.57,0.058-5.518-0.085
			c-1.946-0.097-4-0.199-6.165-0.307c-1.063-0.069-2.234-0.07-3.289-0.198c-1.072-0.111-2.171-0.225-3.297-0.341
			c-5.142-0.644-10.644-1.815-15.623-4.009c-2.427-1.155-4.826-2.435-6.797-4.142c-2.002-1.675-3.829-3.542-5.202-5.825
			c-1.408-2.254-2.52-4.8-3.334-7.575c-0.84-2.763-1.266-5.807-1.539-8.89c-0.272-3.089-0.277-6.28-0.129-9.47
			c0.125-3.184,0.424-6.375,0.798-9.515c0.736-6.276,1.79-12.354,2.694-18.009c0.449-2.849,0.883-5.56,1.216-8.21
			c0.349-2.502,0.672-4.826,0.967-6.944c1.181-8.388,1.901-13.506,1.901-13.506s1.063-7.458,2.965-20.79
			c0.969-6.668,2.063-14.797,3.49-24.209c1.305-8.493,2.787-18.133,4.417-28.741l-0.018,0.017l-0.015,0.005
			c0.734-0.158,1.501-0.324,2.298-0.496c1.645-0.354,3.41-0.735,5.265-1.136c3.71-0.802,7.777-1.681,11.939-2.58
			c1.041-0.225,2.088-0.451,3.136-0.678l1.464-0.316l-0.012,0.003l-0.046,0.009l-0.011-0.034l-0.002-0.021v-0.01
			c0.068,0.449,0.136,0.897,0.204,1.345c0.56,3.676,1.1,7.228,1.588,10.438c2.259,14.754,3.346,21.854,4.014,26.217
			C161.674,483.225,166.782,497.4,175.393,518.116z"/>
	</g>
</g>
</svg>
