<?xml version="1.0" encoding="utf-8"?>
<!-- Generator: Adobe Illustrator 16.0.0, SVG Export Plug-In . SVG Version: 6.00 Build 0)  -->
<!DOCTYPE svg PUBLIC "-//W3C//DTD SVG 1.1//EN" "http://www.w3.org/Graphics/SVG/1.1/DTD/svg11.dtd">
<svg version="1.1" xmlns="http://www.w3.org/2000/svg" xmlns:xlink="http://www.w3.org/1999/xlink" x="0px" y="0px" width="640px"
	 height="640px" viewBox="0 0 640 640" enable-background="new 0 0 640 640" xml:space="preserve">
<g id="pull">
</g>
<g id="couleurs">
</g>
<g id="traits">
</g>
<g id="fleches">
	<g>
		<path fill="#B3DFEF" d="M334.703,530.175c-0.009,0.016-0.018,0.03-0.026,0.046c0.036-0.011,0.074-0.021,0.111-0.032
			C334.76,530.185,334.731,530.18,334.703,530.175 M225.43,513.893c0,0,48.719,22.194,79.818,22.194c3.414,0,6.612-0.267,9.515-0.86
			c6.314-1.292,12.91-2.985,19.368-4.848c0.004-0.104,0.008-0.206,0.012-0.309c-0.242-0.052-0.479-0.111-0.713-0.178l0,0
			c0,0-16.169,4.353-34.276,4.353c-8.409,0-17.233-0.938-25.057-3.687C249.43,521.893,225.43,513.893,225.43,513.893
			 M427.958,411.462c10.72,8.759,22.006,16.656,33.548,22.812l1.26-7.715C462.766,426.559,447.299,421.052,427.958,411.462
			 M435.775,374.882c12.674,5.591,25.359,10.078,36.99,12.344l2.854-11.209c-1.371,0.218-2.646,0.341-3.856,0.462
			c-1.295,0.13-2.512,0.252-3.653,0.367c-2.284,0.137-4.267,0.255-5.967,0.356c-1.697,0.04-3.113,0.073-4.265,0.101
			c-0.436,0.006-0.866,0.008-1.293,0.008C448.396,377.311,441.821,376.349,435.775,374.882 M338.183,311.461
			c0.666,1.152,1.369,2.448,2.097,3.903c-0.26-1.134-0.521-2.289-0.82-3.499l-0.908-0.288L338.183,311.461 M337.624,305.971
			c0.314,0.669,0.644,1.367,0.983,2.09c0.506,0.688,1.012,1.377,1.519,2.066l0.01-0.373
			C339.282,308.421,338.43,307.129,337.624,305.971 M333.67,301.345c1.641,2.231,3.287,4.472,4.938,6.716
			c-0.299-0.634-0.631-1.338-0.984-2.09c-1.542-2.217-2.91-3.945-3.777-4.539C333.779,301.399,333.721,301.37,333.67,301.345
			 M380.641,291.008c3.315,0.949,6.345,1.73,8.79,2.219c4.711,0.942,9.921,1.635,14.689,2.136
			C395.555,294.307,387.691,292.764,380.641,291.008 M255.429,227.394c-1.054,0.653-2.071,1.296-3.057,1.931
			c1.487-0.483,2.392-0.766,2.392-0.766l2.328,2.181C256.53,229.659,255.977,228.545,255.429,227.394 M23.063,441.679
			c2.058,0,4.175-0.168,6.316-0.561c14.993-2.748,18.491-18.688,18.491-18.688l-17.991-8.245l34.483-14.292l11.994,36.828
			l-14.492-6.046c0,0-17.492,20.338-33.984,20.888c-0.27,0.009-0.54,0.014-0.807,0.014c-16.037,0-26.504-15.954-26.504-15.954
			S10.723,441.679,23.063,441.679 M0,280.932v-7.674c0,0,18.235-30.698,50.959-30.698c32.725,0,41.648,40.291,41.648,40.291
			l25.586-3.837l-23.799,49.884l-16.383-12.061L68.51,340.56l-38.28-22.546l18.354-7.328c0,0,1.571-25.927-16.257-27.054
			c-0.686-0.043-1.367-0.064-2.042-0.064C13.404,283.568,0,296.596,0,296.596V284.76c0,0,16.55-14.416,33.882-14.417
			c3.515,0,7.059,0.592,10.506,2.017c11.217,4.637,18.018,13.684,21.871,20.907l6.12-1.462c0,0-1.119-34.667-24.226-34.669
			c-0.822,0-1.67,0.043-2.549,0.134C14.665,260.467,0,280.932,0,280.932 M326.764,26.56L326.764,26.56L326.764,26.56l-2.667,20
			c0,0,34.667,0.25,34.667,2c0,4.667-54,18-54,18L263.43,81.226l-34.666,8.667c0,0-3.906,7.195-6.011,15.878l4.344,9.122
			l-4.081,9.521c0.309,0.739,0.667,1.456,1.081,2.146c8,13.333,16.667,26,16.667,26s-9.043-1.596-16.881-1.596
			c-4.572,0-8.734,0.543-10.453,2.262c-4.666,4.667-7.333,14.667-7.333,14.667s-32.334-49.333-21.667-78s42.306-24.802,57-32.667
			c4.41-2.36,9.293-4.669,14.427-6.895l-0.759-0.105l2.513-0.648C288.268,36.539,326.764,26.56,326.764,26.56 M365.195,255.45
			c20.488,0,73.21-3.368,100.237-36.224c34-41.333,33.333-98,33.333-98l-53.336-16.333l131.336-79.667l21.1,64.897l4.9-3.564
			l30.234,106l-38.901-12.667c0,0-24,80.666-106,107.333c-21.576,7.017-41.914,9.603-60.159,9.603c-1.884,0-3.74-0.027-5.578-0.08
			c1.041,0.447,2.07,0.857,3.082,1.25c1.521,0.605,3.061,1.081,4.552,1.587c0.746,0.253,1.522,0.44,2.271,0.671
			c0.758,0.214,1.489,0.475,2.267,0.642c6.1,1.572,12.411,2.896,20.651,3.618c1.4,0.074,3.246,0.148,5.93,0.213
			c1.347-0.05,2.904-0.109,4.722-0.177c1.832-0.096,3.997-0.37,6.445-0.587c4.696-0.624,10.588-1.459,16.827-2.906
			c6.242-1.39,12.841-3.189,18.997-5.154c6.157-1.957,11.873-4.065,16.406-5.885c0.46-0.187,0.908-0.369,1.347-0.546l-3.428-16.583
			l16.26,7.566c3.725-9.788,9.258-21.942,15.227-26.806c10.69-8.713,21.381-16.967,26.493-22.469
			c0.827-0.891,1.521-1.277,2.085-1.277c2.918-0.001,2.351,10.347-1.155,14.575c-4.184,5.044-9.761,12.381-9.761,12.381
			s33.642-35.375,41.743-35.375c0.2,0,0.385,0.021,0.553,0.066c5.732,1.508-17.439,24.093-25.863,32.079
			c8.029-7.466,30.018-27.445,35.397-27.445c0.628,0,1.029,0.272,1.156,0.869c1.46,6.878-31.141,39.437-31.141,39.437
			s24.274-22.182,30.293-22.182c0.739,0,1.203,0.335,1.312,1.088c0.995,6.878-25.099,27.972-25.099,27.972
			s12.962-5.425,20.269-5.425c2.657,0,4.564,0.717,4.83,2.674c0.995,7.337-28.817,15.132-28.817,15.132s-9.529,6.984-18.795,12.729
			l46.013,21.412l-80,88l-7.997-49.334c0,0-6.947,0.61-18.254,0.954c-2.136,1.526-4.341,2.968-6.597,4.295
			c-4.185,2.483-8.5,4.607-12.726,6.329c-0.469,0.174-0.935,0.35-1.397,0.525l32.307,45.23l-46.286,28.117
			c34.384,14.71,51.995,17.2,59.976,17.2c4.083,0,5.645-0.651,5.645-0.651l24.666-38L626.1,525.893l-118,38l14-45.334
			c0,0-57.297-21.772-113.992-62.131c-1.327,3.125-2.74,6.166-4.236,9.098c-3.829,7.466-8.205,14.2-12.755,19.889
			c-3.085,3.892-6.299,7.241-9.371,10.096l-3.648,15.05c0,0-7.351,5.592-16.495,10.831c10.615-3.836,17.828-6.83,17.828-6.83
			l21,125.439h-90l-1.371-3.645l-1.296-0.131l-2.471-9.883l-9.196-24.448L254.43,640h-73c0,0,26.666-52.107,32.666-88.773
			s11.334-37.334,11.334-37.334v-18.104c-1.104-1.115-2.151-2.287-3.129-3.519c-0.531-0.601-0.98-1.261-1.429-1.918
			c-0.449-0.656-0.896-1.311-1.341-1.962c-0.763-1.355-1.613-2.695-2.229-4.049l-0.494-1.009l-0.244-0.506l-0.221-0.568
			c-0.286-0.759-0.571-1.514-0.855-2.266c-0.314-0.789-0.447-1.403-0.659-2.09c-0.194-0.672-0.388-1.339-0.58-2.003
			c-0.405-1.342-0.657-2.583-0.987-3.855c-0.314-1.263-0.622-2.509-0.877-3.722c-0.268-1.218-0.532-2.419-0.793-3.602
			c-0.124-0.591-0.247-1.177-0.369-1.758c-0.104-0.514-0.208-1.024-0.311-1.53c-0.544-2.642-1.027-5.105-1.442-7.35
			c-0.867-4.492-1.476-8.109-1.911-10.523c-2.018-11.914-2.498-20.527-2.156-29.533c-1.191-3.733-1.973-6.134-1.973-6.134
			s-23.39,27.586-44.002,27.586c-1.12,0-2.23-0.081-3.331-0.253c-21.333-3.333-38.489-23.833-38.489-23.833l9.322-31.229
			c0,0,8.601,3.859,17.733,3.859c5.857,0,11.933-1.587,16.101-6.797c10.666-13.333,17.333-31.333,17.333-31.333s13.333-62,17.333-68
			c2.573-3.859,7.628-9.648,10.907-13.289c0.694-0.835,1.324-1.54,1.831-2.084c-3.125-0.133-6.071-0.259-8.846-0.377
			c-1.229-0.052-2.424-0.104-3.585-0.153l-0.435-0.019l-0.216-0.009l0.117-0.157l0.526-0.641c0.338-0.412,0.67-0.817,0.998-1.216
			c1.266-1.541,2.454-2.988,3.569-4.347c0.558-0.678,1.096-1.333,1.616-1.967c0.605-0.659,1.19-1.295,1.754-1.909
			c0.57-0.614,1.096-1.204,1.646-1.775c0.619-0.577,1.215-1.131,1.787-1.664c1.146-1.04,2.187-2.095,3.153-2.873
			c0.966-0.789,1.839-1.502,2.623-2.142c0.396-0.323,0.79-0.644,1.181-0.962c0.384-0.311,0.835-0.686,1.004-0.792
			c0.47-0.336,0.933-0.667,1.391-0.995c0.92-0.647,1.808-1.292,2.72-1.848c0.907-0.562,1.793-1.112,2.659-1.649
			c0.876-0.521,1.762-0.979,2.62-1.443c1.709-0.944,3.419-1.718,5.093-2.438c1.657-0.753,3.336-1.337,4.988-1.899
			c6.623-2.199,13.183-3.335,20.896-3.851l0,0l0,0c0.001,0,0.001,0,0.001,0l0,0c6.207,4.606,11.59,7.979,17.017,11.698
			c1.348,0.931,2.711,1.874,4.111,2.842c1.415,0.942,2.842,1.932,4.299,2.988c0.719,0.542,1.474,1.06,2.257,1.573
			c0.769,0.53,1.555,1.071,2.359,1.625c0.793,0.568,1.605,1.149,2.439,1.745c0.454,0.338,0.914,0.682,1.38,1.029
			c0.482,0.37,0.972,0.744,1.468,1.124c2.608,2.101,6.67,5.54,13.815,13.312c2.433,2.62,5.161,5.751,8.108,9.211
			c1.455,1.741,2.982,3.552,4.517,5.446c0.803,0.99,1.616,1.996,2.441,3.014c1.46,1.852,2.939,3.726,4.432,5.618
			s3.024,3.949,4.553,5.939l1.15,1.509l1.097,1.486c0.732,0.992,1.467,1.987,2.202,2.983c0.189,0.258,0.379,0.516,0.568,0.773
			c0.064,0.033,0.132,0.074,0.202,0.123c0.41,0.202,1.123,0.547,2.117,1.011c-2.554-5.428-5.348-11.365-5.348-11.365
			s1.418,3.012,5.349,11.365c1.101,0.514,2.546,1.172,4.312,1.945l0.487-18.495l4.667-6.667c0,0,3.979,1.471,9.694,3.477
			c-8.388-3.437-13.026-6.144-13.026-6.144l5.334-7.333c-3.334-9.333,9.333-14,9.333-14S359.909,255.45,365.195,255.45 M640,0H0v640
			h640V0"/>
		<path fill="#9DAF9D" d="M225.43,495.789v18.104l0,0l0,0c0,0,24,8,48.667,16.666c7.823,2.748,16.647,3.687,25.057,3.687
			c18.107,0,34.276-4.353,34.276-4.353l0,0l0,0c0,0,0.312-1.044,0.859-2.932c0.177-3.163,0.448-6.033,1.006-9.285
			c-1.053,0.138-2.129,0.279-3.226,0.423c-0.562,0.073-1.131,0.147-1.704,0.222c-0.574,0.035-1.154,0.07-1.74,0.105
			c-1.171,0.065-2.363,0.132-3.576,0.199c-1.074,0.051-2.195,0.143-3.261,0.143c-0.132,0-0.262-0.002-0.391-0.005
			c-2.404,0.004-4.882,0.008-7.423,0.012c-1.271,0.001-2.558,0.003-3.859,0.005c-0.65,0-1.305,0.001-1.963,0.002
			c-0.659-0.023-1.323-0.048-1.99-0.071c-5.336-0.235-10.881-0.289-16.595-0.865c-5.705-0.364-11.563-1.176-17.483-2.035
			c-11.812-1.919-24.021-5.137-35.13-11.284C232.807,502.135,228.844,499.236,225.43,495.789 M206.337,264.604
			c-3.279,3.641-8.334,9.43-10.907,13.289c-4,6-17.333,68-17.333,68s-6.667,18-17.333,31.333c-4.168,5.21-10.243,6.797-16.101,6.797
			c-9.133,0-17.733-3.859-17.733-3.859l-9.322,31.229c0,0,17.156,20.5,38.489,23.833c1.101,0.172,2.211,0.253,3.331,0.253
			c20.612,0,44.002-27.586,44.002-27.586s0.781,2.4,1.973,6.134c0.057-1.5,0.137-3.011,0.235-4.55l-1.208-5.251l1.95-3.815
			c0.016-0.172,0.032-0.345,0.049-0.518c0.032,0.078,0.064,0.156,0.097,0.233l28.571-55.9c0,2,10.96,31.37,9.333,60.667
			c-2.278,41.016-9.911,58.666-18.323,69.589c0.169,0.553,0.322,1.215,0.513,1.638c0.368,0.951,0.652,1.898,1.241,2.983
			c0.487,1.089,1.114,2.02,1.669,3.044c0.325,0.471,0.651,0.943,0.979,1.417c0.322,0.478,0.64,0.962,1.036,1.392
			c2.89,3.632,6.777,6.744,11.259,9.338c9.114,5.057,20.156,8.131,31.194,9.898c5.555,0.803,11.061,1.578,16.523,1.928
			c5.423,0.557,10.795,0.607,15.925,0.842c0.643,0.023,1.281,0.047,1.917,0.07c0.638,0,1.272-0.001,1.904-0.001
			c1.262-0.001,2.51-0.002,3.743-0.003c2.465-0.001,4.868-0.002,7.2-0.003c0.135,0.003,0.269,0.005,0.4,0.005
			c1.031,0,1.974-0.087,2.937-0.131c1.077-0.059,2.138-0.116,3.178-0.173c0.52-0.029,1.035-0.059,1.546-0.088
			c0.504-0.066,1.003-0.133,1.497-0.198c0.988-0.129,1.957-0.255,2.905-0.379c1.562-0.147,3.024-0.472,4.43-0.773
			c0.417-1.741,0.907-3.817,1.473-6.262c3.188-13.67,7.052-32.979,9.378-48.963c1.145-7.992,2.079-15.129,2.558-20.279
			c0.268-2.573,0.483-4.645,0.633-6.073c0.109-1.431,0.17-2.217,0.17-2.217s0.094-1.32,0.261-3.664
			c0.083-1.172,0.185-2.6,0.302-4.246c0.059-0.823,0.121-1.701,0.188-2.629c0.031-0.929,0.063-1.907,0.099-2.931
			c0.099-4.094,0.42-8.921,0.265-14.161c-0.045-2.621-0.016-5.351-0.124-8.148c-0.149-2.797-0.302-5.664-0.456-8.563
			c-0.789-11.589-2.568-23.611-4.854-33.604c-0.287-1.249-0.567-2.47-0.84-3.657c-0.302-1.141-0.596-2.25-0.88-3.324
			c-0.32-1.179-0.585-2.292-0.9-3.281c-0.606-1.987-1.061-3.603-1.413-4.66c-1.283-3.911-2.138-7.026-2.909-10.016
			c-0.275-1.083-0.522-2.154-0.771-3.245c-0.728-1.455-1.431-2.751-2.097-3.903l-3.247-1.027c-2.406-0.762-4.805-1.521-7.189-2.276
			c-2.045-0.647-4.081-1.292-6.104-1.932h-2.546l-105.334-4l4-16l-19.333-2C197.536,276.631,202.78,268.886,206.337,264.604"/>
		<path fill="#FFFFFF" d="M126.93,380.164c0,0-16.779-13.051-13.983-25.169c2.797-12.119,10.721-27.5,9.322-28.433
			s-7.458-0.933-12.118,5.593c-4.661,6.525-9.322,15.848-18.179,15.382c-8.855-0.466-61.06-8.39-63.391-4.195
			c-2.33,4.195,38.688,12.119,38.688,12.119s-50.806-5.594-50.34,1.398c0.466,6.991,46.145,10.254,46.145,10.254
			s-47.077,0.933-46.145,6.525c0.933,5.594,43.813,3.729,43.813,3.729s-41.949,7.924-41.017,13.051
			c0.932,5.127,34.958-6.06,67.119,5.127c23.399,8.139,30.763,15.848,30.763,15.848L126.93,380.164z"/>
		<path fill="#FFFFFF" d="M613.321,221.488c-8.102,0-41.743,35.375-41.743,35.375s5.577-7.337,9.761-12.381
			c3.506-4.228,4.073-14.576,1.155-14.575c-0.563,0-1.258,0.386-2.085,1.277c-5.112,5.502-15.803,13.756-26.493,22.469
			c-5.969,4.864-11.502,17.019-15.227,26.806l38.728,18.022c9.266-5.745,18.795-12.729,18.795-12.729s29.812-7.795,28.817-15.132
			c-0.266-1.957-2.173-2.674-4.83-2.674c-7.307,0-20.269,5.425-20.269,5.425s26.094-21.094,25.099-27.972
			c-0.109-0.753-0.573-1.088-1.312-1.088c-6.019,0-30.293,22.182-30.293,22.182s32.601-32.558,31.141-39.437
			c-0.127-0.597-0.528-0.869-1.156-0.869c-5.38,0-27.368,19.979-35.397,27.445c8.424-7.986,31.596-30.571,25.863-32.079
			C613.706,221.51,613.521,221.488,613.321,221.488"/>
		<path fill="#699D94" d="M576.766,25.226L445.43,104.893l53.336,16.333c0,0,0.667,56.667-33.333,98
			c-27.027,32.856-79.749,36.224-100.237,36.224c-5.286,0-8.43-0.224-8.43-0.224s-12.667,4.667-9.333,14l0,0
			c0,0,25.656,8.623,58.307,8.623c25.483,0,55.227-5.252,80.359-23.956c57.334-42.667,62-90.667,62-90.667l-33.333-12.667
			l83.1-60.436L576.766,25.226"/>
		<path fill="#94C6C9" d="M602.766,86.56l-4.9,3.564l22.9,70.436l-53.333-14.667c0,0-34.667,86.667-80.667,114
			c-24.671,14.659-57.395,20.498-85.421,20.498c-24.229,0-44.947-4.364-53.912-11.165l0,0l-5.334,7.333
			c0,0,4.639,2.708,13.026,6.144c7.24,2.542,17.267,5.944,25.516,8.304c7.051,1.756,14.914,3.299,23.479,4.355
			c5.804,0.61,10.953,0.938,13.753,1.089c-0.688-0.969-1.34-1.985-1.944-3.059c2.175,1.392,4.329,2.451,6.433,3.355
			c1.838,0.053,3.694,0.08,5.578,0.08c18.245,0,38.583-2.586,60.159-9.603c82-26.667,106-107.333,106-107.333L633,192.56
			L602.766,86.56"/>
		<path fill="#548F7E" d="M597.865,90.124l-83.1,60.436l33.333,12.667c0,0-4.666,48-62,90.667
			c-25.133,18.703-54.876,23.956-80.359,23.956c-32.65,0-58.307-8.623-58.307-8.623l0,0l0,0
			c8.965,6.801,29.683,11.165,53.912,11.165c28.026,0,60.75-5.838,85.421-20.498c46-27.333,80.667-114,80.667-114l53.333,14.667
			L597.865,90.124"/>
		<path fill="#9DAF9D" d="M326.764,26.56c0,0-38.496,9.979-69.153,23.018l18.154-4.685l26-1.333c0,0-18.666,13.333-16,13.333
			s22,6,22,6l-52.667,16l19.333-26l-18.574-2.562c-5.134,2.226-10.017,4.535-14.427,6.895c-14.694,7.865-46.333,4-57,32.667
			s21.667,78,21.667,78s2.667-10,7.333-14.667c1.719-1.719,5.881-2.262,10.453-2.262c7.838,0,16.881,1.596,16.881,1.596
			s-8.667-12.667-16.667-26c-0.414-0.69-0.772-1.406-1.081-2.146l-5.919,13.812l-14.666-17.333l-8,18.667l-6-22.667
			c0,0,5.345-24.94,8.748-24.942c0.202,0,0.397,0.088,0.585,0.276c3.333,3.333,11.333,21.333,11.333,21.333l4.667-26.667
			l8.989,18.878c2.104-8.683,6.011-15.878,6.011-15.878l34.666-8.667l41.334-14.667c0,0,54-13.333,54-18c0-1.75-34.667-2-34.667-2
			L326.764,26.56"/>
		<path fill="#D8E1D6" d="M310.418,290.329l0.006,0.011c0.03,0.01,0.062,0.02,0.092,0.03L310.418,290.329 M221.496,251.328
			l-0.028,0.026l0.006,0l0.033-0.015L221.496,251.328 M254.764,228.559c0,0-0.904,0.282-2.392,0.766
			c-5.177,3.333-9.511,6.444-13.982,9.59c-1.324,0.948-2.685,1.855-4.028,2.867c-1.362,0.978-2.773,1.948-4.192,3.019
			c-0.719,0.518-1.451,1.046-2.2,1.586c-0.737,0.552-1.49,1.115-2.261,1.692c-0.787,0.555-1.547,1.178-2.348,1.789
			c-0.4,0.306-0.806,0.615-1.217,0.928c-0.28,0.209-0.244,0.189-0.288,0.227l-0.106,0.092l-0.23,0.194
			c3.776-0.049,11.785-0.152,19.371-0.25c3.277-0.042,6.556-0.083,9.793-0.124c0.81-0.01,1.615-0.021,2.419-0.03l1.201-0.015
			l0.15-0.002l-0.015,0.107l-0.12,0.274l-0.24,0.548c-0.639,1.459-1.271,2.903-1.895,4.328c-2.083,4.756-4.052,9.249-5.785,13.208
			c21.313,6.997,32.96,10.82,32.96,10.82s14.038,4.594,31.059,10.165c-0.801-0.988-1.587-1.958-2.351-2.898
			c-1.494-1.845-2.975-3.602-4.385-5.292c-2.848-3.348-5.475-6.371-7.774-8.859c-6.793-7.405-10.347-10.388-12.45-12.127
			c-1.71-1.366-3.328-2.658-4.873-3.891c-0.812-0.671-1.604-1.326-2.381-1.967c-0.777-0.638-1.514-1.289-2.197-1.97
			c-1.39-1.337-2.699-2.647-3.947-3.944c-1.247-1.298-2.346-2.676-3.45-4.001c-3.617-4.495-6.667-9.153-9.517-14.646
			L254.764,228.559"/>
		<path fill="#D8E1D6" d="M311.43,223.893c0.579-2.027,38.667-1.333,38.667-1.333l-10.667,24l13.334,8l-14,29.333
			C338.764,283.893,308.763,233.226,311.43,223.893z"/>
		<path fill="#D8E1D6" d="M225.43,513.893L225.43,513.893c0,0-5.334,0.668-11.334,37.334S181.43,640,181.43,640h73l41.666-38.106
			l9.196,24.448l-6.862-27.45l24-32.667c0,0,4.666,28,9.333,44S345.096,640,345.096,640l-36.037-3.645L310.43,640h90l-21-125.439
			c0,0-7.213,2.994-17.828,6.83c-8.062,4.618-17.519,8.963-24.568,8.963c-0.779,0-1.529-0.053-2.245-0.165
			c-0.037,0.011-0.075,0.021-0.111,0.032c-0.188,0.33-0.382,0.665-0.578,1.005c0.011-0.286,0.021-0.568,0.032-0.847
			c-6.458,1.862-13.054,3.556-19.368,4.848c-2.902,0.594-6.101,0.86-9.515,0.86C274.148,536.087,225.43,513.893,225.43,513.893
			L225.43,513.893"/>
		<path fill="#9DAF9D" d="M334.289,526.961c-0.548,1.888-0.859,2.932-0.859,2.932l0,0c0.233,0.066,0.471,0.126,0.713,0.178
			C334.187,528.991,334.232,527.961,334.289,526.961 M381.745,495.51c-1.437,1.336-2.844,2.563-4.191,3.687
			c-1.079,0.859-2.106,1.678-3.077,2.451c-0.979,0.761-1.977,1.383-2.87,2.014c-0.904,0.617-1.744,1.19-2.518,1.719
			c-0.791,0.499-1.544,0.908-2.205,1.299c-1.331,0.769-2.363,1.364-3.062,1.768c-0.346,0.208-0.62,0.347-0.809,0.431
			c-0.187,0.09-0.281,0.136-0.281,0.136s-0.64,0.308-1.846,0.888c-0.604,0.289-1.35,0.646-2.229,1.066
			c-0.443,0.201-0.905,0.454-1.426,0.657c-0.521,0.201-1.076,0.416-1.662,0.643c-1.174,0.451-2.477,0.952-3.897,1.497
			c-1.435,0.502-3.026,0.923-4.713,1.437c-0.847,0.24-1.715,0.527-2.624,0.748c-0.915,0.195-1.857,0.396-2.826,0.602
			c-0.244,0.051-0.489,0.103-0.736,0.155c-1.64,5.219-3.466,8.908-6.07,13.47c0.028,0.005,0.057,0.01,0.085,0.014
			c0.716,0.112,1.466,0.165,2.245,0.165c7.05,0,16.507-4.345,24.568-8.963c9.145-5.239,16.495-10.831,16.495-10.831L381.745,495.51
			 M385.309,436.135c0.332,0.75,0.656,1.424,0.949,1.955c0.459,0.896,0.807,1.424,0.807,1.425c0,0,0.084,0.134,0.235,0.372
			c0.147,0.241,0.361,0.587,0.658,0.964c0.288,0.383,0.615,0.872,1.013,1.269c0.196,0.21,0.386,0.448,0.602,0.66
			c0.225,0.197,0.454,0.399,0.687,0.604c0.95,0.774,2.046,1.362,3.042,1.675c0.032,0.011,0.063,0.021,0.096,0.03
			C390.624,442.097,387.914,439.089,385.309,436.135 M358.783,403.916c-0.059,1.522-0.117,2.976-0.152,4.35
			c-0.036,1.042-0.071,2.038-0.104,2.983c-0.068,0.941-0.132,1.833-0.192,2.669c-0.12,1.671-0.225,3.12-0.311,4.31
			c-0.171,2.379-0.269,3.719-0.269,3.719s-0.061,0.798-0.17,2.25c-0.149,1.447-0.366,3.546-0.635,6.152
			c-0.48,5.221-1.419,12.439-2.57,20.518c-2.34,16.155-6.227,35.623-9.449,49.4c-0.299,1.286-0.577,2.472-0.835,3.561
			c1.337-0.401,2.606-0.733,3.75-1.133c1.223-0.47,2.343-0.9,3.353-1.289c0.506-0.192,0.983-0.375,1.434-0.547
			c0.448-0.172,0.842-0.394,1.223-0.566c0.754-0.36,1.395-0.667,1.912-0.915c1.038-0.494,1.588-0.756,1.588-0.756
			s0.081-0.039,0.241-0.115c0.163-0.071,0.398-0.189,0.693-0.372c0.6-0.348,1.483-0.861,2.625-1.523
			c0.567-0.337,1.216-0.684,1.896-1.112c0.664-0.457,1.385-0.953,2.161-1.487c0.768-0.545,1.629-1.071,2.474-1.732
			c0.838-0.671,1.724-1.38,2.655-2.125c3.657-3.062,7.847-7.005,11.854-12.074c4.025-5.044,7.96-11.092,11.451-17.906
			c1.59-3.124,3.088-6.403,4.484-9.803c-0.676,0.362-1.473,0.553-2.433,0.553c-0.016,0-0.031,0-0.047,0
			c-0.687-0.032-2.095-0.091-3.74-0.612c-1.646-0.501-3.455-1.481-4.908-2.688c-0.35-0.312-0.696-0.621-1.034-0.923
			c-0.318-0.314-0.593-0.646-0.873-0.953c-0.583-0.617-0.976-1.206-1.343-1.702c-0.376-0.492-0.636-0.916-0.815-1.211
			c-0.183-0.294-0.285-0.46-0.285-0.46s-0.434-0.655-0.985-1.709c-0.582-1.046-1.246-2.498-1.872-4.034
			c-1.239-3.077-2.117-6.527-2.355-7.686c-0.173-0.826-0.175-1.549-0.026-2.238C366.626,414.228,359.185,404.445,358.783,403.916
			 M488.526,359.557l0.832,1.164c0.962-0.329,1.928-0.703,2.911-1.076C491.037,359.621,489.792,359.591,488.526,359.557
			 M418.102,351.449c0.577,3.985,1.218,8.797,1.874,14.527c0.03,0.266,0.061,0.532,0.091,0.8c5.523-0.188,10.45-0.534,15.526-0.709
			c6.591-0.283,13.431-0.269,22.091-0.463c1.069-0.033,2.383-0.073,3.958-0.122c1.569-0.1,3.399-0.216,5.508-0.351
			c3.282-0.331,7.163-0.698,11.645-1.586l1.095-4.302c-18.499-0.842-39.554-2.908-59.79-7.351
			C419.428,351.746,418.762,351.597,418.102,351.449 M346.396,320.09c0.973,1.989,1.864,4.213,2.758,6.848
			c0.376,1.095,0.855,2.76,1.487,4.816c0.329,1.024,0.605,2.168,0.938,3.385c0.182,0.687,0.368,1.387,0.558,2.1
			c-1.299-5.786-2.851-11.06-4.704-15.346c0,0,0.804,1.201,2.326,3.369l-0.326-1.369c0,0,26.088,19.325,58.056,36.892
			c-0.63-4.997-1.222-9.093-1.722-12.381c-43.527-11.707-58.334-26.511-58.334-26.511S347.045,321.209,346.396,320.09
			 M341.663,312.564c0.483,0.617,0.94,1.237,1.378,1.863c-0.355-0.585-0.721-1.184-1.094-1.787l-0.002,0.013l-0.226-0.071
			L341.663,312.564 M340.136,309.754l-0.01,0.373c0.562,0.766,1.125,1.531,1.688,2.296
			C341.264,311.534,340.699,310.635,340.136,309.754 M337.623,305.97c0.354,0.752,0.686,1.456,0.984,2.09v0
			C338.268,307.338,337.938,306.64,337.623,305.97L337.623,305.97 M330.615,291.078c0,0,2.794,5.937,5.348,11.365l0.001,0
			C332.033,294.09,330.615,291.079,330.615,291.078 M345.431,279.227l-4.667,6.667l-0.487,18.495
			c10.74,4.694,33.315,13.557,61.967,19.201c-0.159-1.589-0.296-3.144-0.413-4.685c-0.149-1.644-0.268-3.279-0.359-4.929
			c-0.114-1.642-0.229-3.287-0.346-4.958c-0.232-3.366-0.517-6.795-1.194-10.625c2.375,3.037,4.315,6.159,5.949,9.225
			c0.796,1.539,1.601,3.071,2.31,4.621c0.69,1.549,1.355,3.111,2,4.708c1.052,2.719,2.01,5.537,2.884,8.565
			c6.344,1.001,12.925,1.818,19.692,2.382c6.029,0.502,11.898,0.727,17.568,0.727c46.991,0,80.432-15.394,80.432-15.394l-2.49-12.05
			c-4.669,1.868-10.405,3.98-16.588,5.952c-6.458,2.068-13.404,3.968-20.029,5.441c-6.609,1.528-12.945,2.432-18.015,3.084
			c-2.681,0.24-4.968,0.521-7.05,0.63c-2.102,0.072-3.902,0.134-5.46,0.187c-3.126-0.076-5.281-0.184-6.918-0.292
			c-9.677-0.926-17.062-3.695-23.179-7.438c-0.779-0.438-1.502-0.981-2.23-1.487c-0.72-0.523-1.449-1.011-2.134-1.575
			c-1.368-1.129-2.71-2.259-3.959-3.543c-1.708-1.729-3.358-3.595-4.841-5.684c-2.8-0.151-7.949-0.479-13.753-1.089
			c-4.769-0.501-9.979-1.194-14.689-2.136c-2.445-0.489-5.475-1.27-8.79-2.219c-8.249-2.36-18.275-5.762-25.516-8.304
			C349.41,280.697,345.431,279.227,345.431,279.227"/>
		<path fill="#829A85" d="M206.38,400.411l-1.95,3.815l1.208,5.251C205.824,406.591,206.078,403.607,206.38,400.411
			 M235.097,344.226l-28.571,55.9c5.867,14.172,9.408,23.882,12.554,41.389c0.453,2.373,1.075,5.959,1.939,10.362
			c0.415,2.209,0.894,4.62,1.428,7.188c0.1,0.493,0.201,0.99,0.304,1.491c0.118,0.563,0.238,1.131,0.359,1.703
			c0.251,1.137,0.506,2.29,0.764,3.46c0.249,1.18,0.537,2.339,0.83,3.511c0.301,1.156,0.559,2.408,0.903,3.525
			c0.165,0.57,0.331,1.144,0.498,1.72c0.001,0.002,0.001,0.004,0.002,0.006c8.412-10.923,16.045-28.573,18.323-69.589
			C246.057,375.596,235.097,346.226,235.097,344.226"/>
		<path fill="#94C3C9" d="M208.168,262.519c-0.507,0.545-1.137,1.249-1.831,2.084c0.737-0.818,1.385-1.527,1.894-2.082
			C208.21,262.521,208.189,262.52,208.168,262.519"/>
		<path fill="#829A85" d="M236.403,262.847l-0.002,0.002l-0.003,0.005l-0.016,0.026l0.005,0.002L236.403,262.847 M208.23,262.521
			c-0.509,0.555-1.156,1.264-1.894,2.082c-3.557,4.283-8.801,12.027-7.907,19.623l19.333,2l-4,16l105.334,4h2.546
			c-2.691-0.852-5.358-1.697-7.992-2.531c-2.298-0.728-4.569-1.447-6.811-2.157c-1.157-0.381-2.299-0.756-3.422-1.125
			c-2.244-0.739-4.413-1.453-6.482-2.134c-4.138-1.362-7.875-2.593-11.021-3.628c-6.289-2.071-10.206-3.362-10.206-3.362
			s-3.96-1.296-11.541-3.778c-3.791-1.241-8.487-2.78-14.047-4.601c-3.269-1.071-6.791-2.226-10.561-3.461
			c-1.606-0.527-3.24-1.063-4.899-1.607c-0.83-0.272-1.666-0.546-2.509-0.823c-0.701-0.34-2.242-0.31-1.343-1.375
			c1.443-3.301,2.931-6.703,4.462-10.204c0.314-0.721,0.64-1.465,0.974-2.231l0.134-0.306c-3.21,0.042-6.509,0.084-9.401,0.122
			c-1.809,0.023-3.49,0.044-4.967,0.062l-0.274,0.003l-0.139,0.001l-0.236-0.01c-0.312-0.013-0.62-0.026-0.921-0.039
			c-0.603-0.026-1.18-0.05-1.73-0.074c-1.102-0.047-2.096-0.09-2.967-0.127C213.133,262.73,210.629,262.624,208.23,262.521"/>
		<polyline fill="#94C6C9" points="305.292,626.342 307.763,636.225 309.059,636.356 305.292,626.342 		"/>
		<path fill="#B5C8B3" d="M322.43,566.225l-24,32.667l6.862,27.45l3.767,10.014L345.096,640c0,0-8.666-13.775-13.333-29.775
			S322.43,566.225,322.43,566.225"/>
		<path fill="#86B6B6" d="M222.753,105.771c-1.488,6.144-2.074,13.033,0.263,18.643l4.081-9.521L222.753,105.771"/>
		<path fill="#769078" d="M213.764,86.893l-4.667,26.667c0,0-8-18-11.333-21.333c-0.188-0.188-0.383-0.276-0.585-0.276
			c-3.403,0.002-8.748,24.942-8.748,24.942l6,22.667l8-18.667l14.666,17.333l5.919-13.812c-2.337-5.61-1.751-12.499-0.263-18.643
			L213.764,86.893"/>
		<path fill="#86B6B6" d="M257.61,49.578l-2.513,0.648l0.759,0.105C256.438,50.079,257.023,49.828,257.61,49.578"/>
		<path fill="#769078" d="M301.765,43.56l-26,1.333l-18.154,4.685c-0.587,0.25-1.173,0.501-1.754,0.753l18.574,2.562l-19.333,26
			l52.667-16c0,0-19.334-6-22-6S301.765,43.56,301.765,43.56"/>
		<path d="M231.43,88.894c3.85-0.379,7.391-0.62,10.777-0.978c3.375-0.382,6.656-0.691,9.972-1.172
			c3.32-0.465,6.673-1.111,10.29-1.865c3.635-0.7,7.51-1.586,11.818-2.713c1.166-0.307,2.625-0.691,4.334-1.141
			c0.854-0.226,1.772-0.469,2.747-0.727c0.956-0.228,1.969-0.468,3.033-0.721c2.189-0.483,4.591-1.014,7.163-1.582
			c4.914-1.059,10.154-2.188,15.641-3.371c11.171-2.442,23.354-5.133,35.9-8.48c3.138-0.842,6.3-1.735,9.484-2.714l2.395-0.758
			l1.201-0.395l1.063-0.361l1.146-0.405c3.044-1.08,6.083-2.286,8.57-3.668c2.516-1.378,4.191-2.926,5.144-4.422
			c0.466-0.756,0.793-1.5,0.992-2.313c0.119-0.414,0.121-0.831,0.145-1.322c0.003-0.468,0.128-1.055-0.069-1.598
			c-0.125-0.558-0.234-1.07-0.366-1.542c-0.17-0.45-0.384-0.853-0.597-1.226c-0.465-0.73-0.968-1.389-1.674-1.977
			c-1.33-1.195-3.367-2.206-6.111-2.833c-2.713-0.637-5.9-0.955-9.041-1.135c-3.428-0.144-4.402-0.141-6.189-0.147
			c-3.29-0.003-6.507,0.096-9.672,0.234c-6.326,0.285-12.434,0.754-18.285,1.283c-1.462,0.138-2.908,0.275-4.338,0.411l-0.067,0.006
			c-0.476-3.447,0.572,4.658,0.447,4.036l-0.103,0.922c0.039,0.221,0.047,0.424-0.016,0.605l-0.058,0.141l-0.014,0.025l0.128,0.009
			c0.023,0.021,0.128,0.052,0.224,0.094c0.091,0.042,0.175,0.097,0.25,0.161l0.355,0.244c0.391,0.32,1.067,0.898,1.606,1.473
			l1.027,1.057c0.312,0.327,0.826,0.925,0.676,0.757l0.054-0.046l0.246-0.195c0.396-0.307,0.935-0.689,1.463-1.058
			c2.291-1.57,4.524-3.1,6.692-4.585c0.556-0.393,1.107-0.783,1.654-1.17c0.607-0.444,1.211-0.885,1.809-1.322
			c2.04-1.521,4.003-3.097,5.656-4.704c1.659-1.603,2.926-3.232,3.623-4.724c0.702-1.504,0.943-2.83,0.856-4.209
			c-0.039-0.688-0.198-1.448-0.5-2.217c-0.301-0.777-0.712-1.401-1.125-1.912c-0.834-1.02-1.85-1.729-3.119-2.312
			c-2.52-1.185-6.376-1.251-9.899-1.059c-0.899,0.067-1.785,0.132-2.654,0.197c-0.707,0.078-1.401,0.154-2.084,0.229
			c-0.9,0.102-1.746,0.229-2.562,0.345c-1.628,0.239-3.105,0.479-4.424,0.717c-2.646,0.464-4.683,0.885-6.068,1.172
			c-1.383,0.294-2.114,0.45-2.114,0.45s-1.736,0.391-4.894,1.103c-3.145,0.744-7.688,1.86-13.271,3.416
			c-5.585,1.552-12.215,3.531-19.55,5.977c-3.666,1.229-7.509,2.572-11.483,4.044c-1.988,0.734-4.007,1.509-6.056,2.308
			c-2.021,0.812-4.076,1.637-6.159,2.473c-8.256,3.35-16.961,6.881-25.821,10.476c-8.875,3.709-17.928,7.387-26.838,12.291
			l-1.667,0.938l-1.661,1.023c-1.106,0.65-2.202,1.436-3.293,2.198c-0.547,0.363-1.086,0.797-1.622,1.232
			c-0.535,0.436-1.072,0.854-1.6,1.306c-1.034,0.999-2.091,1.902-3.036,3.078c-0.994,1.069-1.838,2.367-2.672,3.629l-1.069,2.047
			c-0.372,0.674-0.581,1.415-0.865,2.123c-1.01,2.859-1.48,5.8-1.52,8.444c-0.097,1.373,0.023,2.604,0.044,3.893
			c0.099,1.231,0.2,2.456,0.341,3.636c0.299,2.347,0.676,4.583,1.084,6.736c0.82,4.305,1.752,8.279,2.61,12.066
			c0.767,3.344,1.461,6.369,2.086,9.094c0.316,1.369,0.574,2.612,0.894,3.875c0.321,1.264,0.622,2.452,0.905,3.566
			c0.565,2.229,1.035,4.165,1.616,5.802c0.535,1.642,0.98,3.011,1.344,4.125c3.202,8.952,7.332,15.67,12.663,20.778
			c2.721,2.505,5.647,4.662,9.01,6.216c0.85,0.373,1.73,0.696,2.593,1.027c0.885,0.3,1.812,0.525,2.717,0.761
			c1.865,0.356,3.807,0.593,5.737,0.329c-3.59-1.431-6.06-3.802-8.15-6.139c-2.069-2.393-3.661-4.954-5.211-7.569
			c-0.711-1.354-1.432-2.727-2.172-4.138c-0.632-1.493-1.392-2.921-2.058-4.505c-0.326-0.797-0.659-1.609-0.999-2.44
			c-0.336-0.833-0.748-1.635-1.036-2.55c-0.326-0.891-0.66-1.803-1.002-2.738c-0.337-0.939-0.758-1.86-1.045-2.892
			c-0.317-1.001-0.708-2.23-1.176-3.706c-0.516-1.453-0.934-3.234-1.443-5.273c-0.257-1.019-0.531-2.105-0.822-3.261
			c-0.292-1.157-0.571-2.505-0.884-3.865c-0.624-2.735-1.316-5.772-2.083-9.128c-0.848-3.746-1.763-7.673-2.517-11.642
			c-0.732-3.946-1.412-8.052-1.265-11.648c0.016-1.835,0.336-3.428,0.839-4.887c0.156-0.35,0.221-0.742,0.429-1.069
			c0.185-0.338,0.359-0.68,0.528-1.029c0.471-0.648,0.859-1.335,1.475-1.97c0.502-0.667,1.253-1.277,1.896-1.928l1.144-0.925
			c0.379-0.311,0.757-0.625,1.201-0.914c0.854-0.591,1.683-1.201,2.634-1.755l1.384-0.855l1.458-0.818
			c7.86-4.345,16.835-8.047,25.569-11.689c8.833-3.59,17.51-7.117,25.74-10.461c16.237-6.728,31.134-11.381,41.975-14.408
			c5.412-1.514,9.795-2.594,12.816-3.312c3.023-0.684,4.685-1.061,4.685-1.061s0.698-0.147,2.015-0.427
			c1.316-0.271,3.254-0.669,5.72-1.099c1.234-0.223,2.599-0.442,4.078-0.658c0.738-0.104,1.511-0.22,2.299-0.308
			c0.161-0.02,0.325-0.039,0.492-0.06l-0.002,0.001l-0.024-0.002l0.008-0.013l0.007-0.008c-0.43,0.312-0.863,0.626-1.3,0.943
			c-0.509,0.359-1.021,0.722-1.538,1.086c-2.167,1.482-4.4,3.01-6.69,4.577c-0.609,0.427-1.214,0.848-1.931,1.399
			c-0.376,0.3-0.705,0.532-1.37,1.179c-0.207,0.218-0.356,0.351-0.726,0.834c-0.091,0.124-0.122,0.158-0.255,0.36
			c-0.154,0.24-0.296,0.494-0.42,0.753c-0.102,0.244-0.232,0.405-0.461,1.359c-0.135,0.907-0.238,1.297,0.022,2.612
			c0.206,1.298,1.45,2.886,2.017,3.252c0.598,0.492,1.34,0.889,2.069,1.114c0.514,0.151,0.727,0.177,1.117,0.231
			c0.306,0.042,0.798,0.051,0.945,0.043l0.64-0.042c1.4-0.132,2.816-0.265,4.248-0.399c5.722-0.513,11.678-0.965,17.745-1.234
			c3.031-0.131,6.095-0.223,9.143-0.218c1.381-0.004,3.592,0.047,3.35,0.045l-0.015,0l-0.06-0.021l0.047-0.038l0.031-0.013
			l0.004-0.001l0.001,0c-0.012,0.004,0.046-0.015-0.088,0.029l-1.106,0.363l-2.233,0.707c-2.995,0.92-6.032,1.778-9.069,2.592
			c-12.169,3.246-24.253,5.921-35.35,8.35c-5.483,1.186-10.721,2.317-15.633,3.379c-2.623,0.585-5.071,1.132-7.305,1.63
			c-1.123,0.262-2.217,0.519-3.245,0.784c-0.992,0.267-1.925,0.518-2.794,0.752c-1.737,0.47-3.221,0.872-4.405,1.192
			c-4.377,1.192-8.247,2.374-11.8,3.593c-3.538,1.274-6.737,2.663-9.819,4.084c-3.077,1.438-6.036,2.916-9.011,4.674
			C237.709,84.93,234.656,86.752,231.43,88.894z"/>
		<path d="M233.931,82.894c0.353-0.266,0.696-0.526,1.03-0.799l0.25-0.218c0.046-0.055,0.077-0.044,0.148-0.22
			c0.021-0.101,0.038-0.251-0.015-0.446c-0.048-0.194-0.199-0.409-0.365-0.52c-0.365-0.219-0.499-0.181-0.675-0.166
			c-0.186,0.025-0.41,0.136-0.551,0.284l-0.165,0.219l-0.019,0.026l-0.082,0.08l-0.513,0.418c-0.649,0.524-1.251,1.042-1.819,1.566
			c-1.136,1.047-2.136,2.115-3.026,3.269c-1.776,2.309-3.126,4.963-4.102,8.569c-1.002,3.909-4.101,15.702-3.552,27.692
			c0.153,2.995,0.547,5.981,1.295,8.819c0.832,3.151,2.325,5.865,3.837,7.854c1.511,2.019,3.014,3.345,4.054,4.219
			c1.052,0.872,1.673,1.286,1.673,1.286c0,0,0.751,0.579,2.149,1.423c1.396,0.842,3.446,1.936,5.993,2.93
			c2.544,1.009,5.576,1.916,8.908,2.605c1.667,0.347,3.408,0.639,5.212,0.867c0.901,0.117,1.819,0.211,2.755,0.294
			c0.473,0.035,0.947,0.069,1.425,0.104c0.508,0.029,0.92,0.054,1.563,0.069c-1.15-4.036-2.301-8.071-3.093-10.847
			c-0.326,0.193-0.658,0.39-0.994,0.588c-0.383,0.211-0.771,0.424-1.16,0.639c-0.794,0.423-1.617,0.833-2.445,1.227
			c-1.662,0.779-3.351,1.478-4.939,2.045c-3.184,1.145-5.945,1.725-7.385,1.971c-3.018,0.506-5.238,1.034-7.574,1.75
			c-2.338,0.684-4.781,1.559-8.32,1.902c1.831,3.006,4.31,5.263,7.249,6.616c2.949,1.352,6.406,1.878,10.482,1.288
			c1.952-0.278,5.566-1.025,9.492-2.427c1.966-0.695,4.013-1.54,6.022-2.482c1.003-0.477,1.998-0.973,2.973-1.495
			c0.488-0.27,0.973-0.538,1.452-0.802c0.501-0.287,0.912-0.527,1.515-0.907l15.866-9.988l-18.96-0.859l-1.034-0.047
			c-0.383-0.027-0.765-0.055-1.144-0.082c-0.767-0.068-1.528-0.144-2.277-0.239c-1.5-0.186-2.947-0.426-4.311-0.706
			c-2.729-0.557-5.117-1.271-7.006-2.014c-1.899-0.734-3.299-1.485-4.22-2.031c-0.921-0.549-1.369-0.897-1.369-0.897
			s-0.392-0.263-0.999-0.774c-0.604-0.511-1.442-1.263-2.183-2.279c-0.754-1.012-1.435-2.26-1.842-3.792
			c-0.48-1.839-0.789-4.062-0.9-6.408c-0.234-4.712,0.322-9.942,1.06-14.349c0.738-4.42,1.63-8.048,2.066-9.856
			c0.814-3.342,1.082-6.074,0.936-8.835c-0.07-1.38-0.242-2.767-0.478-4.236c-0.126-0.736-0.255-1.489-0.389-2.268
			c-0.036-0.19-0.066-0.396-0.111-0.559l-0.013-0.021l-0.007-0.01l-0.003-0.005c-0.019-0.01,0.048,0.021-0.088-0.048l-0.271-0.13
			l-0.196,0.016c-0.132-0.009-0.242-0.086-0.274-0.188l-0.016-0.077l-0.003-0.013l-0.095,0.12c-0.131,0.054-0.294-0.107-0.353-0.213
			L233.74,81.3l-0.151-0.039l-0.025-0.005l0.008,0.009l0.015,0.019l0.024,0.057c0.026,0.089,0.049,0.19,0.071,0.291
			C233.763,82.043,233.846,82.463,233.931,82.894z"/>
		<path d="M313.43,242.893c-0.198-5.157-0.028-9.373,0.37-13.563c0.488-4.166,1.06-8.375,3.182-12.952
			c0.362-0.775,0.889-1.767,1.822-3.127c0.479-0.676,1.053-1.443,1.831-2.31c0.771-0.866,1.681-1.774,2.882-2.852
			c4.347-3.88,11.166-8.699,18.469-14.028c7.32-5.334,15.192-11.247,22.005-17.348c3.406-3.048,6.58-6.093,9.307-9.079
			c2.712-3,5.081-5.816,6.861-8.395c0.938-1.243,1.68-2.47,2.359-3.521c0.698-1.036,1.193-2.017,1.634-2.789
			c0.89-1.541,1.284-2.465,1.284-2.464c0,0,0.354-0.756,0.998-2.133c0.316-0.691,0.618-1.588,1.013-2.606
			c0.42-1.007,0.744-2.227,1.119-3.57c0.433-1.324,0.623-2.872,0.939-4.498c0.144-0.818,0.165-1.689,0.252-2.575
			c0.034-0.444,0.069-0.896,0.105-1.354c0.032-0.458-0.006-0.926-0.007-1.398c-0.033-0.944-0.02-1.919-0.103-2.906
			c-0.129-0.983-0.261-1.989-0.396-3.015c-0.13-1.029-0.432-1.995-0.649-3.022c-0.12-0.508-0.241-1.02-0.363-1.536
			c-0.142-0.51-0.324-1.01-0.487-1.521c-1.239-4.115-3.217-8.195-5.625-12.02c-2.415-3.822-5.228-7.453-8.321-10.652
			c-3.077-3.217-6.313-6.141-9.533-8.708c-3.238-2.535-6.389-4.824-9.353-6.721c-7.929-5.118-13.165-7.637-15.862-9.009
			c-5.499-2.699-10.046-4.29-14.477-5.374c-4.436-1.06-8.764-1.663-13.923-1.956c4.408,2.669,7.953,5.035,11.785,7.266
			c3.819,2.251,7.895,4.409,13.131,7.043c2.562,1.335,7.578,3.772,15.052,8.606c2.796,1.791,5.737,3.936,8.746,6.289
			c2.985,2.379,5.948,5.062,8.729,7.965c2.803,2.889,5.275,6.105,7.377,9.419c2.093,3.318,3.772,6.781,4.803,10.215
			c0.137,0.427,0.295,0.845,0.414,1.27c0.1,0.429,0.199,0.855,0.297,1.277c0.175,0.842,0.449,1.68,0.541,2.484
			c0.107,0.804,0.212,1.592,0.315,2.363c0.066,0.773,0.044,1.535,0.077,2.274c0.001,0.37,0.041,0.735,0.014,1.095
			c-0.03,0.36-0.061,0.715-0.089,1.064c-0.073,0.698-0.072,1.38-0.19,2.031c-0.269,1.298-0.388,2.521-0.753,3.604
			c-0.307,1.089-0.554,2.08-0.912,2.92c-0.33,0.845-0.565,1.584-0.835,2.167c-0.545,1.165-0.844,1.805-0.844,1.805
			s-0.326,0.776-1.104,2.109c-0.385,0.668-0.8,1.508-1.424,2.423c-0.603,0.924-1.243,1.996-2.093,3.112
			c-1.581,2.293-3.753,4.864-6.259,7.633c-2.525,2.76-5.521,5.629-8.765,8.528c-6.494,5.807-14.157,11.565-21.423,16.855
			c-7.268,5.313-14.128,10.124-19.073,14.536c-1.355,1.215-2.563,2.42-3.525,3.511c-0.965,1.082-1.739,2.11-2.374,3.018
			c-1.255,1.837-1.973,3.221-2.461,4.286c-1.454,3.157-2.093,6.202-2.306,8.958c-0.244,2.773,0.071,5.271,0.47,7.629
			C309.033,234.346,310.845,238.436,313.43,242.893z"/>
		<path d="M255.43,227.394c2.375-1.028,4.459-2.262,6.4-3.587c1.949-1.326,3.695-2.828,5.363-4.53
			c3.237-3.443,6.31-7.796,7.95-14.343c0.332-1.087,0.535-2.583,0.852-4.739c0.057-1.082,0.123-2.333,0.2-3.792
			c-0.04-0.745-0.082-1.542-0.127-2.398c-0.035-0.429-0.03-0.869-0.103-1.33c-0.078-0.461-0.158-0.938-0.241-1.43
			c-0.084-0.481-0.173-0.989-0.266-1.521c-0.135-0.527-0.307-1.075-0.473-1.642c-0.187-0.562-0.308-1.158-0.57-1.734
			c-0.252-0.579-0.51-1.171-0.771-1.773c-1.154-2.361-2.785-4.699-4.705-6.553c-0.497-0.442-0.987-0.878-1.468-1.305
			c-0.504-0.397-1.013-0.765-1.503-1.129c-0.245-0.182-0.507-0.331-0.755-0.493l-0.407-0.253c-0.201-0.12-0.4-0.238-0.599-0.355
			c-0.817-0.442-1.646-0.823-2.412-1.209c-0.771-0.276-1.513-0.563-2.191-0.771c-0.68-0.204-1.314-0.393-1.896-0.566
			c-1.34-0.96-1.479,0.973-1.847,1.596c-0.453,1.111-0.85,2.171-1.338,3.069c-0.117,0.231-0.233,0.459-0.348,0.685
			c-0.093,0.165-0.185,0.329-0.275,0.49c-0.107,0.182-0.205,0.365-0.315,0.534c-0.418,0.689-0.828,1.287-1.214,1.805
			c-0.772,1.036-1.44,1.763-1.965,2.285c-0.532,0.51-0.908,0.848-1.16,1.036c-0.247,0.199-0.355,0.286-0.355,0.286
			s-0.197,0.148-0.562,0.393c-0.181,0.13-0.404,0.281-0.675,0.423c-0.265,0.158-0.568,0.334-0.917,0.479
			c-1.374,0.66-3.362,1.181-5.785,0.828c-1.206-0.126-2.515-0.58-3.84-1.107c-0.658-0.318-1.333-0.585-1.988-0.988l-0.991-0.554
			l-0.967-0.64c-2.582-1.706-4.881-3.817-6.91-5.713c-6.507-6.081-9.623-10.377-10.812-12.54c-1.27-2.185-1.882-4.12-1.79-5.086
			c-0.011-0.521,0.105-0.924,0.475-1.457c0.345-0.523,0.935-1.085,1.685-1.572c1.473-1.018,3.39-1.815,5.435-2.524
			c2.065-0.697,4.318-1.314,6.852-1.773c-2.463-0.784-4.831-1.281-7.206-1.512c-2.379-0.199-4.774-0.208-7.386,0.57
			c-1.294,0.376-2.677,0.996-3.987,2.097c-0.67,0.516-1.258,1.247-1.809,2.015c-0.237,0.417-0.465,0.85-0.68,1.296
			c-0.22,0.444-0.316,0.921-0.461,1.4c-0.472,1.91-0.355,3.893,0.105,5.568c0.115,0.422,0.21,0.887,0.361,1.285
			c0.155,0.396,0.313,0.797,0.473,1.203c0.306,0.845,0.734,1.541,1.14,2.324c1.642,3.031,5.339,7.985,12.229,14.43
			c2.062,1.93,4.729,4.412,7.953,6.541l1.217,0.796l1.296,0.729c0.844,0.506,1.79,0.906,2.698,1.328
			c1.883,0.758,3.83,1.413,5.844,1.648c1.99,0.252,3.97,0.256,5.721-0.094c1.746-0.327,3.271-0.843,4.443-1.422
			c0.604-0.266,1.111-0.556,1.551-0.817c0.451-0.25,0.812-0.491,1.101-0.696c0.588-0.398,0.893-0.634,0.893-0.634
			s0.168-0.133,0.553-0.437c0.392-0.299,0.963-0.799,1.742-1.549c0.769-0.758,1.714-1.787,2.759-3.186
			c0.521-0.699,1.065-1.491,1.615-2.393c0.143-0.223,0.272-0.458,0.413-0.697l0.104-0.18l-0.015,0.026l-0.002,0.003l-0.001,0.005
			l-0.011,0.011v0.003l0.02,0.015l0.215,0.137c0.165,0.11,0.346,0.205,0.508,0.33c0.326,0.246,0.663,0.5,1.006,0.758
			c0.319,0.285,0.645,0.575,0.975,0.87c1.266,1.232,2.314,2.759,3.093,4.324c0.176,0.403,0.35,0.8,0.52,1.188
			c0.188,0.379,0.254,0.81,0.387,1.192c0.117,0.391,0.23,0.77,0.34,1.133c0.064,0.382,0.126,0.748,0.185,1.094
			c0.063,0.354,0.124,0.695,0.184,1.026c0.058,0.332,0.044,0.675,0.07,0.994c0.038,0.645,0.074,1.245,0.107,1.805
			c-0.058,1.151-0.107,2.137-0.15,2.99c-0.26,1.674-0.38,2.834-0.647,3.694c-1.22,5.132-3.121,9.021-4.994,12.802
			c-0.979,1.872-1.967,3.736-3.127,5.619C258.283,223.411,257.037,225.383,255.43,227.394z"/>
		<path d="M316.93,120.393c-0.771,1.639-1.299,3.257-1.636,4.898c-0.319,1.645-0.46,3.328-0.172,5.144
			c0.295,1.782,1.057,3.845,2.889,5.493c0.899,0.811,2.039,1.449,3.251,1.819c1.227,0.378,2.457,0.516,3.705,0.521
			c1.671-0.032,4.403-0.149,9.259-1.914l0.005-0.018l0.011,0.014l0.003,0.002l0.098-0.038c5.563-2.101,9.556-4.905,11.486-6.481
			c1.771-1.465,3.256-2.984,4.332-4.925c0.522-0.972,0.972-2.075,1.034-3.419l0.005-0.503c-0.001-0.172-0.026-0.247-0.039-0.374
			l-0.099-0.681c-0.059-0.45-0.188-0.889-0.284-1.32c-0.455-1.724-1.25-3.293-2.323-4.672c-0.554-0.682-1.175-1.321-1.919-1.852
			c-0.377-0.259-0.77-0.504-1.223-0.662c-0.426-0.16-0.971-0.276-1.383-0.033c0.461-0.015,0.78,0.286,1.044,0.57
			c0.268,0.284,0.472,0.627,0.654,0.959c0.358,0.68,0.592,1.392,0.775,2.086c0.334,1.41,0.46,2.773,0.403,4.139
			c-0.031,0.344-0.021,0.68-0.069,1.024l-0.055,0.513l-0.031,0.228l-0.048,0.102c-0.111,0.276-0.363,0.733-0.748,1.231
			c-0.765,1.011-1.983,2.16-3.457,3.339c-1.577,1.271-5.145,3.762-9.987,5.582l-0.084,0.031l-0.001,0.003l0.001,0.018l-0.014-0.011
			c-4.2,1.523-6.233,1.553-7.37,1.601c-1.738,0.006-2.884-0.256-3.762-0.826c-0.89-0.555-1.627-1.5-2.216-2.677
			C317.828,126.91,317.149,123.964,316.93,120.393z"/>
		<path d="M288.097,146.56c-0.625,1.526-0.949,2.898-0.985,4.297c-0.015,1.396,0.254,2.85,1.11,4.523
			c0.469,0.894,1.44,2.726,3.287,4.635c0.922,0.946,2.086,1.891,3.459,2.626c1.367,0.74,2.932,1.242,4.467,1.451
			c0.384,0.038,0.765,0.076,1.143,0.114c0.374,0.004,0.745,0.009,1.111,0.014c0.367,0.002,0.716-0.042,1.066-0.063l0.515-0.042
			l0.428-0.062c1.129-0.164,2.166-0.314,3.047-0.442c1.762-0.257,2.898-0.422,2.898-0.422s0.284-0.04,0.789-0.111
			c0.503-0.087,1.233-0.139,2.106-0.335c1.752-0.351,4.125-0.827,6.61-1.326c1.232-0.321,2.492-0.649,3.718-0.968
			c1.222-0.337,2.421-0.598,3.494-0.985c2.154-0.729,3.935-1.252,4.796-1.653c1.604-0.668,2.787-1.352,3.756-2.351
			c0.971-0.943,1.784-2.098,2.519-3.564c-1.643-0.024-2.927-0.146-4.207-0.069c-1.241,0.112-2.521,0.3-4.003,0.877
			c-0.783,0.348-2.477,0.826-4.487,1.506c-0.997,0.362-2.147,0.608-3.303,0.929c-1.162,0.305-2.357,0.619-3.526,0.926
			c-2.379,0.485-4.65,0.948-6.326,1.29c-0.834,0.192-1.545,0.244-2.027,0.33c-0.486,0.071-0.761,0.111-0.761,0.111
			s-1.098,0.155-2.798,0.395c-0.851,0.121-1.852,0.263-2.941,0.417l-0.413,0.059l-0.348,0.025c-0.229,0.01-0.469,0.047-0.701,0.041
			c-0.231-0.003-0.467-0.006-0.704-0.009c-0.23-0.024-0.463-0.048-0.696-0.072c-1.852-0.239-3.534-1.211-4.755-2.485
			c-1.229-1.256-2.006-2.644-2.38-3.327c-0.695-1.272-1.331-2.279-2.132-3.222C290.137,148.66,289.188,147.775,288.097,146.56z"/>
		<ellipse transform="matrix(0.8656 -0.5008 0.5008 0.8656 -10.4307 164.644)" cx="301.472" cy="101.751" rx="1.781" ry="4.691"/>
		<ellipse transform="matrix(0.8657 -0.5006 0.5006 0.8657 -1.2452 180.9837)" cx="336.593" cy="92.812" rx="1.782" ry="4.019"/>
		<path d="M310.424,290.339l-0.006-0.011l0.098,0.041C310.485,290.359,310.454,290.349,310.424,290.339 M236.388,262.883
			l-0.005-0.002l0.016-0.026l0.003-0.005l0.002-0.002L236.388,262.883 M221.468,251.354l0.028-0.026l0.011,0.011l-0.033,0.015
			L221.468,251.354 M252.372,229.325c0.985-0.635,2.003-1.278,3.057-1.931c0.548,1.151,1.102,2.265,1.663,3.346
			c2.85,5.493,5.899,10.151,9.517,14.646c1.104,1.326,2.203,2.704,3.45,4.001c1.248,1.297,2.558,2.606,3.947,3.944
			c0.684,0.681,1.42,1.333,2.197,1.97c0.776,0.641,1.568,1.296,2.381,1.967c1.545,1.233,3.163,2.525,4.873,3.891
			c2.104,1.739,5.657,4.723,12.45,12.127c2.3,2.488,4.927,5.511,7.774,8.859c1.41,1.69,2.891,3.447,4.385,5.292
			c0.764,0.941,1.55,1.911,2.351,2.898c-17.021-5.571-31.059-10.165-31.059-10.165s-11.646-3.823-32.96-10.82
			c1.733-3.959,3.702-8.452,5.785-13.208c0.624-1.425,1.256-2.869,1.895-4.328l0.24-0.548l0.12-0.274l0.015-0.107l-0.15,0.002
			l-1.201,0.015c-0.804,0.01-1.609,0.02-2.419,0.03c-3.237,0.041-6.516,0.082-9.793,0.124c-7.586,0.098-15.595,0.202-19.371,0.25
			l0.23-0.194l0.106-0.092c0.044-0.037,0.008-0.017,0.288-0.227c0.411-0.313,0.816-0.623,1.217-0.928
			c0.801-0.611,1.561-1.234,2.348-1.789c0.771-0.577,1.523-1.141,2.261-1.692c0.749-0.54,1.481-1.068,2.2-1.586
			c1.419-1.071,2.83-2.041,4.192-3.019c1.344-1.011,2.704-1.918,4.028-2.867C242.861,235.769,247.195,232.658,252.372,229.325
			 M255.43,227.394C255.43,227.394,255.43,227.394,255.43,227.394L255.43,227.394L255.43,227.394
			c-7.714,0.515-14.273,1.652-20.896,3.851c-1.652,0.562-3.331,1.146-4.988,1.899c-1.674,0.72-3.384,1.494-5.093,2.438
			c-0.858,0.464-1.744,0.922-2.62,1.443c-0.866,0.537-1.752,1.086-2.659,1.649c-0.912,0.556-1.8,1.201-2.72,1.848
			c-0.458,0.328-0.921,0.659-1.391,0.995c-0.169,0.106-0.62,0.481-1.004,0.792c-0.391,0.318-0.784,0.639-1.181,0.962
			c-0.784,0.64-1.657,1.353-2.623,2.142c-0.967,0.777-2.007,1.833-3.153,2.873c-0.572,0.532-1.168,1.086-1.787,1.664
			c-0.551,0.571-1.076,1.161-1.646,1.775c-0.563,0.614-1.148,1.25-1.754,1.909c-0.521,0.634-1.059,1.289-1.616,1.967
			c-1.115,1.358-2.304,2.806-3.569,4.347c-0.328,0.399-0.66,0.804-0.998,1.216l-0.526,0.641l-0.117,0.157l0.216,0.009l0.435,0.019
			c1.161,0.049,2.356,0.101,3.585,0.153c2.774,0.119,5.721,0.244,8.846,0.377c0.021,0.001,0.042,0.001,0.062,0.002
			c2.398,0.103,4.902,0.209,7.513,0.32c0.871,0.037,1.865,0.08,2.967,0.127c0.551,0.023,1.128,0.048,1.73,0.074
			c0.301,0.013,0.608,0.026,0.921,0.039l0.236,0.01l0.139-0.001l0.274-0.003c1.477-0.019,3.158-0.04,4.967-0.062
			c2.893-0.038,6.191-0.08,9.401-0.122l-0.134,0.306c-0.334,0.766-0.659,1.511-0.974,2.231c-1.531,3.501-3.019,6.902-4.462,10.204
			c-0.899,1.066,0.642,1.035,1.343,1.375c0.843,0.276,1.679,0.551,2.509,0.823c1.659,0.544,3.293,1.08,4.899,1.607
			c3.77,1.235,7.292,2.39,10.561,3.461c5.56,1.821,10.256,3.359,14.047,4.601c7.581,2.482,11.541,3.778,11.541,3.778
			s3.917,1.291,10.206,3.362c3.146,1.036,6.883,2.266,11.021,3.628c2.069,0.681,4.238,1.395,6.482,2.134
			c1.123,0.369,2.265,0.745,3.422,1.125c2.241,0.71,4.513,1.429,6.811,2.157c2.634,0.834,5.301,1.679,7.992,2.531
			c2.022,0.64,4.059,1.285,6.104,1.932c2.385,0.755,4.783,1.514,7.189,2.276l3.247,1.027l0.368,0.117l0.908,0.288
			c-0.21-0.849-0.438-1.726-0.696-2.64c1.078,1.127,2.032,2.229,2.9,3.338l0.057,0.018l0.226,0.071l0.002-0.013
			c-0.044-0.072-0.089-0.145-0.134-0.217c-0.562-0.766-1.125-1.531-1.688-2.296c-0.507-0.689-1.013-1.377-1.519-2.066v0
			c-1.65-2.244-3.297-4.485-4.938-6.716c-0.157-0.078-0.237-0.119-0.237-0.119c0.065,0.016,0.136,0.044,0.211,0.083
			c-0.189-0.258-0.379-0.516-0.568-0.773c-0.735-0.997-1.47-1.991-2.202-2.983l-1.097-1.486l-1.15-1.509
			c-1.528-1.99-3.061-4.047-4.553-5.939s-2.972-3.766-4.432-5.618c-0.825-1.018-1.639-2.023-2.441-3.014
			c-1.534-1.894-3.062-3.705-4.517-5.446c-2.947-3.46-5.676-6.591-8.108-9.211c-7.146-7.772-11.207-11.211-13.815-13.312
			c-0.496-0.38-0.985-0.754-1.468-1.124c-0.466-0.348-0.926-0.691-1.38-1.029c-0.834-0.596-1.646-1.177-2.439-1.745
			c-0.805-0.554-1.591-1.096-2.359-1.625c-0.783-0.513-1.538-1.031-2.257-1.573c-1.457-1.056-2.884-2.046-4.299-2.988
			c-1.4-0.968-2.764-1.911-4.111-2.842C267.02,235.373,261.637,232,255.43,227.394C255.43,227.394,255.43,227.394,255.43,227.394"/>
		<path d="M306.43,223.894c7.511,1.868,13.816,3.308,20.49,4.292c3.338,0.492,6.768,0.87,10.486,1.131
			c0.931,0.057,1.879,0.114,2.847,0.173c0.485,0.023,0.975,0.046,1.47,0.07l0.748,0.031l0.188,0.007l0.012,0.007l0.008,0.014
			l-0.012,0.124l-0.025,0.012l-0.012-0.004l0.004-0.012l0.004-0.009l0.003-0.005l0.001-0.001c-0.004,0.004,0.025-0.031-0.068,0.083
			c-0.129,0.16-0.261,0.323-0.395,0.487c-1.629,2.008-3.932,4.847-6.048,7.456c-1.778,2.202-3.479,4.306-4.919,6.09
			c-0.719,0.891-1.372,1.701-1.938,2.403c-0.142,0.176-0.277,0.344-0.407,0.506l-0.191,0.237l0.053,0.081l0.131,0.061
			c0.344,0.16,0.651,0.303,0.92,0.428c10.762,5.027,14.908,6.964,14.908,6.964s0.351,0.166,1.206,0.572l-0.021,0l-0.008-0.009v-0.01
			c-0.216,0.406-0.439,0.828-0.667,1.256c-1.152,2.186-2.383,4.518-3.329,6.313c-0.801,1.521-1.563,2.968-2.289,4.346
			c-0.182,0.344-0.36,0.684-0.537,1.02c-0.065,0.124-0.025,0.049-0.036,0.069v-0.001l0.002-0.003l0.008-0.01l0.021-0.018
			l-0.004,0.043c-4.597-7.564-8.448-13.376-12.356-18.726c-1.958-2.681-3.89-5.266-5.921-7.957
			c-1.959-2.719-4.073-5.487-5.989-8.847c0.117,3.879,0.765,7.466,1.472,10.886c0.775,3.392,1.684,6.643,2.82,9.876
			c2.278,6.479,5.301,12.974,9.963,20.824c1.127,1.898,2.566,4.214,4.271,7.001c1.725,2.726,3.736,5.904,6.055,9.567
			c0.146,0.23,0.294,0.462,0.442,0.697l0.027,0.043l0.025-0.037l0.049-0.092l0.099-0.184l0.199-0.37
			c0.266-0.496,0.536-0.999,0.811-1.51c0.55-1.023,1.117-2.079,1.701-3.167c1.169-2.178,2.408-4.487,3.72-6.931
			c1.759-3.304,3.712-6.972,5.87-11.026c2.562-4.874,6.658-12.663,8.389-15.953c0.384-0.729,0.752-1.429,1.105-2.1l0.131-0.25
			l0.065-0.124l-0.095-0.07c-0.168-0.079-0.334-0.157-0.499-0.234c-0.329-0.154-0.65-0.304-0.965-0.451
			c-1.259-0.588-2.401-1.123-3.437-1.607c-2.07-0.967-3.709-1.733-4.975-2.325c-1.671-0.778-2.355-1.098-2.355-1.098
			s-0.603-0.285-1.986-0.938c-0.15-0.071-0.312-0.147-0.484-0.229l0.002-0.001l0.006-0.001l0.021,0.001l0.007,0.027
			c1.437-1.779,3-3.716,4.105-5.085c8.31-10.282,12.649-15.652,15.896-19.669c-6.769,0.008-8.858,0.01-10.628,0.012
			c-4.508,0.011-8.794,0.053-12.815,0.125c-0.438,0.009-0.872,0.019-1.305,0.028l-0.748,0.031c-0.495,0.023-0.984,0.047-1.47,0.07
			c-0.968,0.059-1.916,0.117-2.847,0.174c-3.719,0.261-7.148,0.639-10.486,1.131C320.246,220.585,313.94,222.025,306.43,223.894z"/>
		<path d="M215.93,257.893c-3.658,1.329-6.834,3.147-9.807,5.065c-1.437,1.012-2.901,2-4.223,3.13
			c-0.673,0.555-1.353,1.111-2.013,1.691c-0.633,0.606-1.268,1.215-1.906,1.827c-5.02,4.995-9.501,11.222-13.251,20.015
			c-0.577,1.509-1.347,3.489-2.409,6.383c-0.448,1.472-0.967,3.173-1.572,5.159c-0.145,0.498-0.317,1.008-0.454,1.546
			c-0.127,0.541-0.258,1.1-0.394,1.679c-0.27,1.159-0.557,2.397-0.864,3.721c-0.126,0.542-0.253,1.095-0.383,1.656
			c-0.106,0.536-0.215,1.081-0.324,1.634c-0.219,1.105-0.444,2.245-0.677,3.416c-0.466,2.334-0.957,4.792-1.467,7.349
			c-1.029,5.101-2.162,10.566-3.454,16.144c-1.312,5.561-2.768,11.258-4.629,16.623c-1.849,5.354-4.166,10.394-7.117,14.085
			c-1.473,1.843-3.101,3.29-4.83,4.391c-0.455,0.235-0.869,0.537-1.337,0.734l-0.681,0.33c-0.239,0.106-0.516,0.196-0.77,0.296
			c-0.517,0.198-1.028,0.396-1.536,0.591c-0.51,0.184-1.034,0.288-1.541,0.439c-4.081,1.157-8.059,1.007-11.455,0.412
			c-0.844-0.203-1.668-0.341-2.436-0.59c-0.385-0.118-0.771-0.199-1.131-0.338c-0.182-0.063-0.361-0.126-0.539-0.188l-0.328-0.117
			l-0.669-0.255c-3.288-1.425-6.352-3.271-8.886-4.603c-0.311-0.168-0.614-0.333-0.913-0.495c-0.271-0.126-0.657-0.476-0.647-0.023
			c-0.182,0.609-0.355,1.193-0.522,1.753c-0.336,1.129-0.642,2.154-0.914,3.07c-0.546,1.832-0.961,3.226-1.23,4.134
			c-6.183,20.726-6.987,23.422-6.987,23.422s-0.358,1.199-1.012,3.38c-0.081,0.272-0.167,0.561-0.258,0.863
			c-0.046,0.151-0.092,0.307-0.14,0.466c-0.063,0.224-0.128,0.452-0.194,0.686c-0.359,1.324-0.751,2.763-1.172,4.311
			c-0.053,0.194-0.105,0.39-0.159,0.586l-0.04,0.148l0.068,0.132l0.165,0.261c0.221,0.348,0.445,0.7,0.673,1.06
			c0.452,0.721,0.939,1.457,1.479,2.203c0.256,0.376,0.556,0.753,0.841,1.138c0.188,0.246,0.381,0.495,0.575,0.748
			c0.337,0.423,0.683,0.858,1.049,1.29c2.903,3.467,6.705,7.297,11.624,10.85c4.898,3.54,10.985,6.772,17.986,8.617
			c6.974,1.859,14.791,2.26,22.302,0.914l1.413-0.233l1.394-0.312l1.395-0.315l0.697-0.159c0.239-0.062,0.499-0.153,0.747-0.23
			l3.004-0.99c0.974-0.369,1.87-0.839,2.806-1.262l1.384-0.659l1.28-0.76c0.848-0.513,1.711-1.014,2.54-1.543l2.348-1.697
			l1.165-0.853l1.083-0.909c5.815-4.823,10.541-10.224,14.669-15.517c4.114-5.308,7.604-10.547,10.626-15.372
			c3.723-5.987,6.505-10.937,8.62-14.886c2.13-3.944,3.617-6.88,4.623-8.899c4.08-8.172,6.558-14.901,8.376-21.461
			c1.799-6.564,2.923-12.991,3.84-20.681c-4.408,6.355-8.15,11.568-11.703,17.232c-3.569,5.652-6.925,11.757-10.957,19.633
			c-0.994,1.948-2.45,4.783-4.514,8.578c-2.051,3.803-4.735,8.555-8.276,14.24c-2.87,4.577-6.166,9.513-9.944,14.383
			c-3.774,4.855-8.055,9.68-12.835,13.641l-0.891,0.755l-0.924,0.668l-1.846,1.345l-1.897,1.145l-0.947,0.576l-0.965,0.445
			c-0.644,0.283-1.279,0.638-1.922,0.878l-1.92,0.631c-0.164,0.053-0.31,0.115-0.487,0.162l-0.563,0.126l-1.127,0.254l-1.124,0.257
			l-1.127,0.183c-6.005,1.081-11.961,0.743-17.334-0.671c-5.385-1.411-10.172-3.921-14.133-6.774
			c-3.968-2.854-7.134-6.029-9.49-8.841c-0.299-0.35-0.574-0.698-0.846-1.036c-0.104-0.133-0.205-0.264-0.307-0.393l0.009,0.012
			v0.003l-0.003,0.002c0.177-0.592,0.338-1.132,0.482-1.617c0.649-2.182,1.006-3.381,1.006-3.381s0.663-2.218,5.756-19.265
			l0.001,0.013l-0.024-0.005l-0.045-0.015l0.309,0.108c0.25,0.087,0.503,0.174,0.759,0.263c0.508,0.189,1.049,0.317,1.591,0.482
			c1.081,0.339,2.248,0.562,3.445,0.833c4.816,0.881,10.692,1.085,16.681-0.583c0.741-0.214,1.507-0.39,2.246-0.649
			c0.732-0.277,1.471-0.557,2.216-0.839c0.374-0.147,0.74-0.276,1.123-0.444l1.166-0.558c0.789-0.356,1.524-0.837,2.291-1.265
			c2.979-1.865,5.645-4.311,7.804-7.013c4.319-5.45,6.966-11.593,9.07-17.59c2.091-6.027,3.613-12.035,4.979-17.817
			c1.34-5.782,2.49-11.344,3.525-16.492c0.511-2.571,1.002-5.044,1.469-7.393c0.231-1.172,0.456-2.313,0.674-3.42
			c0.108-0.553,0.216-1.098,0.32-1.634c0.117-0.502,0.231-0.997,0.345-1.483c0.273-1.185,0.529-2.292,0.77-3.33
			c0.118-0.519,0.233-1.02,0.345-1.504c0.12-0.481,0.276-0.934,0.404-1.377c0.532-1.767,0.987-3.282,1.382-4.593
			c0.947-2.56,1.6-4.321,2.096-5.662c3.236-7.782,6.236-13.646,9.264-19.28C207.912,269.236,210.879,263.72,215.93,257.893z"/>
		<path d="M398.86,449.67c-0.124,0.113-0.252,0.221-0.384,0.32c-0.185,0.143-0.38,0.269-0.586,0.379
			c-1.396,3.399-2.895,6.679-4.484,9.803c-3.491,6.814-7.426,12.862-11.451,17.906c-4.008,5.069-8.197,9.013-11.854,12.074
			c-0.932,0.745-1.817,1.454-2.655,2.125c-0.845,0.661-1.706,1.188-2.474,1.732c-0.776,0.534-1.497,1.03-2.161,1.487
			c-0.68,0.429-1.328,0.775-1.896,1.112c-1.142,0.662-2.025,1.176-2.625,1.523c-0.295,0.183-0.53,0.301-0.693,0.372
			c-0.16,0.076-0.241,0.115-0.241,0.115s-0.55,0.262-1.588,0.756c-0.518,0.248-1.158,0.555-1.912,0.915
			c-0.381,0.173-0.774,0.395-1.223,0.566c-0.45,0.172-0.928,0.354-1.434,0.547c-1.01,0.389-2.13,0.819-3.353,1.289
			c-1.144,0.399-2.413,0.731-3.75,1.133c-1.001,4.222-1.7,6.995-2.109,8.599c-0.399,1.55-0.801,2.964-1.214,4.28
			c0.247-0.053,0.492-0.104,0.736-0.155c0.969-0.206,1.911-0.406,2.826-0.602c0.909-0.221,1.777-0.508,2.624-0.748
			c1.687-0.514,3.278-0.935,4.713-1.437c1.421-0.545,2.724-1.046,3.897-1.497c0.586-0.227,1.141-0.441,1.662-0.643
			c0.521-0.203,0.982-0.456,1.426-0.657c0.879-0.421,1.624-0.777,2.229-1.066c1.206-0.58,1.846-0.888,1.846-0.888
			s0.095-0.046,0.281-0.136c0.188-0.084,0.463-0.223,0.809-0.431c0.698-0.403,1.73-0.999,3.062-1.768
			c0.661-0.391,1.414-0.8,2.205-1.299c0.773-0.528,1.613-1.102,2.518-1.719c0.894-0.631,1.891-1.253,2.87-2.014
			c0.971-0.773,1.998-1.592,3.077-2.451c1.348-1.123,2.755-2.351,4.191-3.687c3.072-2.854,6.286-6.204,9.371-10.096
			c4.55-5.688,8.926-12.423,12.755-19.889c1.496-2.932,2.909-5.973,4.236-9.098C405.021,454.231,401.934,451.977,398.86,449.67
			 M206.429,399.893c-0.017,0.173-0.033,0.346-0.049,0.518c-0.302,3.196-0.556,6.181-0.742,9.066
			c-0.099,1.539-0.179,3.05-0.235,4.55c-0.342,9.006,0.139,17.619,2.156,29.533c0.436,2.414,1.044,6.031,1.911,10.523
			c0.415,2.244,0.898,4.708,1.442,7.35c0.103,0.506,0.206,1.017,0.311,1.53c0.122,0.581,0.245,1.167,0.369,1.758
			c0.261,1.183,0.525,2.384,0.793,3.602c0.255,1.213,0.562,2.459,0.877,3.722c0.33,1.272,0.582,2.514,0.987,3.855
			c0.192,0.664,0.386,1.331,0.58,2.003c0.212,0.687,0.345,1.301,0.659,2.09c0.284,0.752,0.569,1.507,0.855,2.266l0.221,0.568
			l0.244,0.506l0.494,1.009c0.615,1.354,1.466,2.693,2.229,4.049c0.445,0.651,0.892,1.306,1.341,1.962
			c0.448,0.657,0.897,1.317,1.429,1.918c0.978,1.231,2.024,2.403,3.129,3.519c3.414,3.447,7.377,6.347,11.524,8.737
			c11.109,6.147,23.317,9.365,35.13,11.284c5.92,0.859,11.778,1.671,17.483,2.035c5.714,0.576,11.259,0.63,16.595,0.865
			c0.667,0.023,1.331,0.048,1.99,0.071c0.658-0.001,1.312-0.002,1.963-0.002c1.302-0.002,2.588-0.004,3.859-0.005
			c2.541-0.004,5.019-0.008,7.423-0.012c0.129,0.003,0.259,0.005,0.391,0.005c1.065,0,2.187-0.092,3.261-0.143
			c1.213-0.067,2.405-0.134,3.576-0.199c0.586-0.035,1.166-0.07,1.74-0.105c0.573-0.074,1.142-0.148,1.704-0.222
			c1.097-0.144,2.173-0.285,3.226-0.423c0.343-1.997,0.794-4.139,1.396-6.58c0.298-1.219,0.767-3.113,1.412-5.809
			c-1.405,0.302-2.868,0.626-4.43,0.773c-0.948,0.124-1.917,0.25-2.905,0.379c-0.494,0.065-0.993,0.132-1.497,0.198
			c-0.511,0.029-1.026,0.059-1.546,0.088c-1.04,0.057-2.101,0.114-3.178,0.173c-0.963,0.044-1.905,0.131-2.937,0.131
			c-0.132,0-0.266-0.002-0.4-0.005c-2.332,0.001-4.735,0.002-7.2,0.003c-1.233,0.001-2.481,0.002-3.743,0.003
			c-0.632,0-1.267,0.001-1.904,0.001c-0.636-0.023-1.274-0.047-1.917-0.07c-5.13-0.234-10.502-0.285-15.925-0.842
			c-5.463-0.35-10.969-1.125-16.523-1.928c-11.038-1.768-22.08-4.842-31.194-9.898c-4.481-2.594-8.369-5.706-11.259-9.338
			c-0.396-0.43-0.714-0.914-1.036-1.392c-0.328-0.474-0.654-0.946-0.979-1.417c-0.555-1.024-1.182-1.955-1.669-3.044
			c-0.589-1.085-0.873-2.032-1.241-2.983c-0.19-0.423-0.344-1.085-0.513-1.638c-0.001-0.002-0.001-0.004-0.002-0.006
			c-0.167-0.576-0.333-1.149-0.498-1.72c-0.345-1.117-0.603-2.369-0.903-3.525c-0.293-1.172-0.581-2.331-0.83-3.511
			c-0.258-1.17-0.513-2.323-0.764-3.46c-0.121-0.572-0.241-1.14-0.359-1.703c-0.103-0.501-0.204-0.998-0.304-1.491
			c-0.534-2.568-1.013-4.979-1.428-7.188c-0.864-4.403-1.486-7.989-1.939-10.362c-3.146-17.507-6.687-27.217-12.554-41.389
			C206.493,400.049,206.461,399.971,206.429,399.893 M405.767,348.404c0.5,3.288,1.092,7.384,1.722,12.381
			c3.722,2.045,7.521,4.065,11.37,6.029c0.405-0.012,0.809-0.024,1.208-0.038c-0.03-0.268-0.061-0.534-0.091-0.8
			c-0.656-5.73-1.297-10.542-1.874-14.527C413.754,350.466,409.648,349.449,405.767,348.404 M399.931,298.393
			c0.678,3.83,0.962,7.258,1.194,10.625c0.117,1.672,0.231,3.316,0.346,4.958c0.092,1.65,0.21,3.285,0.359,4.929
			c0.117,1.541,0.254,3.096,0.413,4.685c3.521,0.694,7.136,1.34,10.83,1.922c-0.874-3.028-1.832-5.846-2.884-8.565
			c-0.645-1.597-1.31-3.159-2-4.708c-0.709-1.55-1.514-3.082-2.31-4.621C404.246,304.551,402.306,301.429,399.931,298.393"/>
		<path d="M338.763,309.226c0.259,0.915,0.486,1.791,0.696,2.64c0.299,1.209,0.561,2.364,0.82,3.499
			c0.249,1.09,0.496,2.162,0.771,3.245c0.771,2.989,1.626,6.104,2.909,10.016c0.353,1.058,0.807,2.673,1.413,4.66
			c0.315,0.989,0.58,2.103,0.9,3.281c0.284,1.074,0.578,2.184,0.88,3.324c0.272,1.188,0.553,2.408,0.84,3.657
			c2.286,9.992,4.065,22.015,4.854,33.604c0.154,2.899,0.307,5.767,0.456,8.563c0.108,2.798,0.079,5.527,0.124,8.148
			c0.155,5.24-0.166,10.067-0.265,14.161c-0.035,1.023-0.067,2.002-0.099,2.931c-0.066,0.928-0.129,1.806-0.188,2.629
			c-0.117,1.646-0.219,3.074-0.302,4.246c-0.167,2.344-0.261,3.664-0.261,3.664s-0.061,0.786-0.17,2.217
			c-0.149,1.429-0.365,3.5-0.633,6.073c-0.479,5.15-1.413,12.287-2.558,20.279c-2.326,15.984-6.189,35.293-9.378,48.963
			c-0.565,2.444-1.056,4.521-1.473,6.262c-0.646,2.695-1.114,4.59-1.412,5.809c-0.603,2.441-1.054,4.583-1.396,6.58
			c-0.558,3.252-0.829,6.122-1.006,9.285c-0.057,1-0.103,2.029-0.146,3.109c-0.004,0.103-0.008,0.205-0.012,0.309
			c-0.011,0.278-0.021,0.561-0.032,0.847c0.196-0.34,0.39-0.675,0.578-1.005c0.009-0.016,0.018-0.03,0.026-0.046
			c2.604-4.562,4.431-8.251,6.07-13.47c0.413-1.316,0.814-2.73,1.214-4.28c0.409-1.604,1.108-4.377,2.109-8.599
			c0.258-1.089,0.536-2.274,0.835-3.561c3.223-13.777,7.109-33.245,9.449-49.4c1.151-8.078,2.09-15.297,2.57-20.518
			c0.269-2.606,0.485-4.705,0.635-6.152c0.109-1.452,0.17-2.25,0.17-2.25s0.098-1.34,0.269-3.719c0.086-1.189,0.19-2.639,0.311-4.31
			c0.061-0.836,0.124-1.728,0.192-2.669c0.032-0.945,0.067-1.941,0.104-2.983c0.035-1.374,0.094-2.827,0.152-4.35
			c-0.012-0.015-0.018-0.022-0.018-0.022s-0.454-39.139-6.629-66.654c-0.189-0.713-0.376-1.413-0.558-2.1
			c-0.332-1.217-0.608-2.36-0.938-3.385c-0.632-2.057-1.111-3.722-1.487-4.816c-0.894-2.635-1.785-4.858-2.758-6.848
			c-0.8-1.381-1.998-3.424-3.355-5.663c-0.438-0.626-0.895-1.246-1.378-1.863C340.795,311.455,339.841,310.353,338.763,309.226"/>
		<path d="M298.93,427.893c-2.243,2.827-4.167,5.12-6.016,7.619c-1.862,2.486-3.646,5.184-5.881,8.594
			c-0.791,1.114-1.951,3.095-4.857,6.593c-0.495,0.573-1.352,1.501-2.082,2.271c-0.758,0.712-1.384,1.299-1.384,1.299
			c0.009,0.031-0.55,0.417-1.248,0.931c-0.176,0.129-0.361,0.266-0.55,0.404l-0.656,0.404c-0.438,0.261-0.863,0.515-1.224,0.713
			c-5.241,2.88-8.936,3.461-10.79,3.812c-3.812,0.612-6.865,0.727-9.853,0.795c-1.495,0.025-2.976,0.02-4.536-0.029
			c-0.776-0.033-1.579-0.068-2.416-0.104c-0.419-0.021-0.846-0.043-1.282-0.064c-0.221-0.008-0.443-0.016-0.672-0.011
			c-0.115,0.005-0.229,0.008-0.351,0.03l-0.182,0.065l-0.021,0.18c-0.012-0.143,0.104-0.112,0.197-0.083
			c0.097,0.029,0.195,0.078,0.29,0.124c0.191,0.095,0.379,0.2,0.565,0.306c0.377,0.217,0.746,0.428,1.107,0.636
			c0.733,0.417,1.463,0.808,2.197,1.165c1.471,0.715,2.965,1.304,4.556,1.756c3.174,0.885,6.775,1.304,11.264,0.628
			c1.104-0.175,2.717-0.467,4.841-1.103c2.118-0.639,4.761-1.624,7.762-3.3c0.418-0.225,0.905-0.516,1.407-0.818l0.748-0.468
			c0.253-0.185,0.501-0.366,0.736-0.538c0.469-0.352,0.887-0.665,1.188-0.891c0.31-0.222,0.457-0.378,0.457-0.378
			s0.775-0.707,1.715-1.563c0.871-0.891,1.86-1.958,2.402-2.614c3.233-3.907,4.405-5.959,5.247-7.166
			c2.328-3.633,3.744-6.688,4.838-9.683C297.522,434.402,298.271,431.448,298.93,427.893z"/>
		<path d="M377.173,426.707c-0.148,0.689-0.146,1.412,0.026,2.238c0.238,1.158,1.116,4.608,2.355,7.686
			c0.626,1.536,1.29,2.988,1.872,4.034c0.552,1.054,0.985,1.709,0.985,1.709s0.103,0.166,0.285,0.46
			c0.18,0.295,0.439,0.719,0.815,1.211c0.367,0.496,0.76,1.085,1.343,1.702c0.28,0.308,0.555,0.639,0.873,0.953
			c0.338,0.302,0.685,0.61,1.034,0.923c1.453,1.206,3.263,2.187,4.908,2.688c1.646,0.521,3.054,0.58,3.74,0.612
			c0.016,0,0.031,0,0.047,0c0.96,0,1.757-0.19,2.433-0.553c0.206-0.11,0.401-0.236,0.586-0.379c0.132-0.1,0.26-0.207,0.384-0.32
			c-1.368-1.027-2.732-2.063-4.095-3.111c-0.458-0.489-0.915-0.98-1.369-1.471c-0.032-0.01-0.063-0.02-0.096-0.03
			c-0.996-0.312-2.092-0.9-3.042-1.675c-0.232-0.204-0.462-0.406-0.687-0.604c-0.216-0.212-0.405-0.45-0.602-0.66
			c-0.397-0.396-0.725-0.886-1.013-1.269c-0.297-0.377-0.511-0.723-0.658-0.964c-0.151-0.238-0.235-0.372-0.235-0.372
			c0-0.001-0.348-0.529-0.807-1.425c-0.293-0.531-0.617-1.205-0.949-1.955C382.452,432.897,379.722,429.723,377.173,426.707"/>
		<path d="M226.266,495.893c-1.517,4.932-2.704,9.077-3.602,13.484c-0.107,0.552-0.215,1.107-0.323,1.667l-0.077,0.422l-0.037,0.213
			l-0.043,0.386c-0.056,0.525-0.111,1.053-0.168,1.583c-0.054,0.545-0.108,1.093-0.163,1.645c-0.012,0.271-0.086,0.579-0.046,0.828
			l0.672,0.463c0.911,0.604,1.854,1.271,2.853,1.874c0.589,0.37,1.188,0.747,1.8,1.133c0.58,0.335,1.171,0.677,1.777,1.027
			c1.217,0.696,2.526,1.332,3.908,2.025c0.949,0.435,2.195,1.004,4.008,1.832c1.84,0.753,4.22,1.835,7.529,3.033
			c4.393,1.696,10.409,3.649,17.022,5.339c6.595,1.785,13.854,2.959,20.538,3.89c1.681,0.164,3.324,0.325,4.915,0.48
			c1.591,0.143,3.123,0.344,4.598,0.372c2.943,0.118,5.601,0.271,7.839,0.313c4.479-0.059,7.268-0.095,7.268-0.095
			s0.585,0.006,1.645-0.032c1.057-0.068,2.588-0.168,4.49-0.29c1.902-0.137,4.18-0.22,6.709-0.561
			c1.267-0.146,2.6-0.299,3.985-0.459c0.692-0.085,1.4-0.148,2.115-0.257c0.714-0.118,1.44-0.238,2.176-0.36
			c1.472-0.245,2.982-0.496,4.521-0.752c1.539-0.258,3.084-0.649,4.653-0.975c3.147-0.616,6.289-1.55,9.4-2.381
			c6.178-1.864,12.044-4.122,16.792-6.362c8.616-4.118,13.445-7.716,15.982-9.827c0.261-0.23,0.521-0.46,0.778-0.688l0.41-0.37
			c0.121-0.134,0.304-0.222,0.349-0.409c0.145-0.333,0.289-0.664,0.433-0.993l0.311-0.73c0.264-0.66,0.521-1.303,0.772-1.932
			c0.492-1.261,0.94-2.47,1.352-3.643c0.822-2.346,1.497-4.545,2.077-6.719c1.16-4.346,1.943-8.585,2.782-13.676
			c-3.127,4.104-5.673,7.583-8.038,11.409c-1.183,1.913-2.319,3.913-3.462,6.12c-0.57,1.104-1.143,2.261-1.722,3.483
			c-0.285,0.614-0.577,1.242-0.876,1.888l-0.11,0.243l-0.008,0.008l-0.008-0.002l-0.004-0.004l0.001-0.005l-0.062,0.051
			c-2.017,1.643-6.37,4.909-14.316,8.695c-4.391,2.063-9.863,4.172-15.665,5.93c-2.934,0.779-5.884,1.668-8.867,2.251
			c-1.485,0.309-2.942,0.684-4.402,0.929c-1.461,0.245-2.896,0.485-4.294,0.719c-0.698,0.117-1.388,0.233-2.065,0.348
			c-0.68,0.104-1.356,0.164-2.016,0.246c-1.321,0.154-2.592,0.303-3.799,0.443c-2.408,0.332-4.592,0.412-6.41,0.546
			c-1.82,0.122-3.287,0.22-4.297,0.287c-1.011,0.039-1.565,0.033-1.565,0.033s-2.651,0.03-6.907,0.078
			c-2.128-0.045-4.655-0.199-7.454-0.312c-1.401-0.026-2.859-0.224-4.372-0.361c-1.513-0.149-3.077-0.304-4.675-0.462
			c-6.359-0.898-13.271-2.015-19.553-3.721c-6.299-1.611-12.032-3.467-16.212-5.07c-3.151-1.134-5.407-2.156-7.157-2.862
			c-1.718-0.772-2.899-1.305-3.8-1.709c-2.571-1.205-4.863-2.279-6.997-3.278c-0.138,0.009-0.404,0.066-0.476-0.116l-0.091-0.134
			l-0.023-0.039l-0.015-0.215l-0.03-0.428c-0.047-0.568-0.094-1.132-0.14-1.692C227.966,505.21,227.236,500.96,226.266,495.893z"/>
		<path d="M227.43,502.393c-2.263,4.643-4.089,8.532-5.725,12.719c-1.632,4.185-2.963,8.686-4.37,14.49
			c-0.484,1.964-1.273,5.16-2.912,11.802c-0.535,2.179-1.254,5.103-2.03,8.264c-0.193,0.79-0.391,1.595-0.59,2.407
			c-0.224,0.802-0.449,1.61-0.676,2.418c-0.45,1.616-0.899,3.227-1.33,4.771c-1.719,6.177-3.138,11.277-3.138,11.277
			s-0.301,1.066-0.794,2.813c-0.263,0.865-0.503,1.937-0.905,3.063c-0.39,1.135-0.819,2.388-1.274,3.712
			c-0.454,1.325-0.933,2.723-1.419,4.145c-0.243,0.711-0.489,1.429-0.734,2.146c-0.276,0.71-0.553,1.421-0.827,2.126
			c-1.104,2.82-2.173,5.554-3.063,7.83c-1.715,4.194-3.218,7.553-4.344,10.229c-1.14,2.673-2.081,4.601-2.673,5.945
			c-4.927,10.822-6.719,17.437-9.195,27.449c6.886-7.689,11.17-13.251,16.286-24.196c0.615-1.362,1.579-3.311,2.75-6.032
			c1.158-2.729,2.691-6.143,4.448-10.43c0.914-2.333,2.012-5.137,3.144-8.027c0.28-0.725,0.562-1.454,0.845-2.184
			c0.253-0.744,0.506-1.487,0.757-2.225c0.501-1.474,0.993-2.922,1.46-4.296c0.466-1.374,0.906-2.673,1.306-3.85
			c0.412-1.174,0.647-2.242,0.913-3.128c0.494-1.775,0.795-2.859,0.795-2.859s1.459-5.173,3.226-11.438
			c0.44-1.566,0.9-3.201,1.361-4.841c0.23-0.82,0.461-1.641,0.689-2.455c0.201-0.817,0.4-1.629,0.597-2.425
			c0.777-3.186,1.496-6.133,2.032-8.328c1.627-6.697,2.409-9.92,2.891-11.9c1.357-5.857,2.007-10.539,2.363-15.029
			C227.65,511.872,227.605,507.545,227.43,502.393z"/>
		<path d="M257.43,640c3.179-1.709,5.812-3.218,8.39-5.04c1.293-0.907,2.583-1.884,3.932-2.997c1.332-1.13,2.724-2.396,4.238-3.861
			c1.026-0.994,2.71-2.596,6.087-6.054c1.072-1.087,2.327-2.36,3.703-3.756c1.38-1.393,2.812-2.979,4.336-4.588
			c1.515-1.62,3.086-3.3,4.653-4.976c1.516-1.729,3.026-3.453,4.474-5.105c1.436-1.665,2.857-3.208,4.067-4.701
			c1.2-1.502,2.285-2.859,3.198-4.001c1.824-2.283,2.961-3.706,2.961-3.706s0.238-0.297,0.672-0.838
			c0.425-0.55,1.008-1.381,1.748-2.396c1.51-2.017,3.453-4.909,5.578-8.185c4.223-6.566,8.773-14.866,11.802-20.883
			c2.926-5.775,4.568-9.425,5.442-11.324c3.473-7.707,4.474-12.53,5.388-19.697c-4.164,5.898-6.853,9.858-10.349,17.416
			c-0.879,1.859-2.507,5.45-5.386,11.12c-2.981,5.905-7.434,14.041-11.524,20.422c-2.057,3.179-3.933,5.982-5.378,7.919
			c-0.711,0.979-1.267,1.777-1.678,2.312c-0.423,0.528-0.654,0.818-0.654,0.818s-1.112,1.386-2.897,3.609
			c-0.893,1.112-1.953,2.435-3.127,3.898c-1.184,1.457-2.59,2.978-4.002,4.609c-1.425,1.623-2.911,3.316-4.402,5.015
			c-1.548,1.652-3.1,3.31-4.596,4.907c-1.506,1.589-2.916,3.152-4.279,4.53c-1.359,1.383-2.6,2.645-3.657,3.722
			c-3.335,3.424-4.996,5.018-6.002,6.012c-1.486,1.466-2.771,2.814-3.922,4.11c-1.169,1.276-2.205,2.498-3.174,3.732
			C261.139,634.521,259.439,636.997,257.43,640z"/>
		<path d="M303.433,593.226c2.485-2.26,3.92-3.913,4.863-7.238c0.249-0.903,0.779-2.702,1.34-4.922
			c0.546-2.224,1.188-4.847,1.804-7.356c0.305-1.255,0.603-2.482,0.878-3.617c0.229-1.15,0.438-2.207,0.616-3.104
			c0.356-1.795,0.586-2.952,0.586-2.952s0.234-1.157,0.597-2.951c0.181-0.896,0.395-1.953,0.626-3.103
			c0.205-1.151,0.37-2.399,0.568-3.675c0.752-5.105,1.572-10.675,1.846-12.528c0.513-3.395-0.307-5.601-1.724-8.553
			c-2.068,2.755-3.096,4.454-3.691,7.852c-0.275,1.83-1.101,7.328-1.857,12.368c-0.193,1.259-0.353,2.497-0.55,3.627
			c-0.223,1.122-0.428,2.151-0.602,3.026c-0.347,1.75-0.57,2.88-0.57,2.88s-0.229,1.128-0.583,2.876
			c-0.177,0.875-0.385,1.904-0.61,3.025c-0.274,1.116-0.571,2.324-0.875,3.56c-0.607,2.472-1.242,5.056-1.781,7.246
			c-0.548,2.188-1.062,3.97-1.285,4.867C302.175,587.867,302.574,589.974,303.433,593.226z"/>
		<path d="M297.43,595.893c-1.063,2.561-1.556,4.232-0.866,6.719c0.747,2.693,4.747,16.106,4.747,16.106s3.914,13.439,4.747,16.107
			c0.771,2.463,2.09,3.601,4.372,5.175c1.063-2.561,1.555-4.231,0.866-6.719c-0.746-2.693-4.747-16.106-4.747-16.106
			s-3.913-13.439-4.747-16.107C301.031,598.605,299.712,597.468,297.43,595.893z"/>
		<path d="M377.43,504.893c-0.384,10.312-0.375,17.237,1.955,28.982c0.402,1.989,1.047,5.226,2.343,11.957
			c0.733,3.763,1.968,10.101,3.021,15.498c1.092,5.394,1.863,9.854,1.864,9.854c0,0,2.62,14.938,4.072,23.22
			c1.358,9.021,2.199,14.603,2.639,17.519c0.858,5.899,1.712,10.488,2.931,14.808c0.625,2.16,1.184,4.255,1.896,6.421
			c0.716,2.151,1.463,4.396,2.279,6.85c0.446-2.54,0.762-4.896,1.01-7.17c0.236-2.273,0.477-4.497,0.502-6.746
			c0.081-4.507-0.083-9.259-0.891-15.229c-0.435-2.945-1.267-8.583-2.61-17.693c-0.686-4.182-1.767-10.021-2.617-14.826
			c-0.863-4.803-1.539-8.562-1.539-8.562s-0.758-4.506-1.834-9.911c-1.054-5.413-2.292-11.771-3.026-15.544
			c-1.309-6.752-1.968-9.993-2.392-11.98C384.579,520.593,381.923,514.184,377.43,504.893z"/>
		<path d="M357.266,526.726c-1.626,2.099-2.394,3.709-1.968,6.211c0.225,1.352,1.111,5.436,2.951,9.01
			c0.485,0.884,0.944,1.751,1.512,2.508c0.498,0.781,1.09,1.438,1.594,1.992c0.47,0.575,0.981,0.965,1.31,1.254
			c0.336,0.283,0.524,0.443,0.524,0.443l0.137,0.115c0.092,0.072,0.21,0.195,0.407,0.308c0.381,0.234,0.93,0.571,1.596,0.981
			c0.666,0.356,1.422,0.668,2.273,1.028c0.867,0.291,1.799,0.643,2.787,0.849c3.947,1.034,8.31,0.639,9.692,0.396
			c2.585-0.429,3.912-1.761,5.185-4.095c-2.467-0.948-3.791-1.603-5.926-1.315c-1.141,0.161-4.67,0.462-7.672-0.329
			c-0.762-0.149-1.46-0.425-2.122-0.633c-0.626-0.269-1.245-0.518-1.683-0.752c-0.399-0.254-0.733-0.451-0.969-0.587
			c-0.232-0.141-0.335-0.276-0.34-0.267c0,0-0.119-0.104-0.329-0.287c-0.208-0.188-0.537-0.413-0.853-0.825
			c-0.336-0.38-0.744-0.813-1.104-1.4c-0.407-0.531-0.753-1.21-1.128-1.887c-1.436-2.788-2.254-6.372-2.482-7.549
			C360.208,529.703,359.122,528.611,357.266,526.726z"/>
		<path d="M258.93,524.56c-2.496,1.178-3.973,1.871-5.309,3.89c-0.717,1.073-2.967,4.377-5.562,6.531
			c-1.282,1.067-2.581,1.914-3.569,2.267c-0.244,0.104-0.466,0.2-0.662,0.284c-0.199,0.048-0.372,0.089-0.514,0.122
			c-0.281,0.071-0.44,0.111-0.44,0.111c0.153,0.062-2.974,0.559-6.551,0.258c-3.579-0.226-7.526-1.102-8.823-1.4
			c-2.412-0.558-3.981-0.028-6.57,0.938c1.479,2.342,2.713,3.688,5.29,4.37c1.397,0.368,5.646,1.324,9.73,1.575
			c2.03,0.165,4.03,0.088,5.511-0.019c0.747-0.09,1.361-0.164,1.789-0.215c0.449-0.081,0.724-0.158,0.725-0.158
			c0,0,0.264-0.063,0.733-0.177c0.233-0.06,0.519-0.132,0.847-0.216c0.306-0.124,0.651-0.264,1.031-0.417
			c1.556-0.578,3.366-1.748,5.022-3.128c3.329-2.781,5.802-6.506,6.588-7.745C259.624,529.119,259.575,527.256,258.93,524.56z"/>
		<path d="M478.794,363.545c-4.481,0.888-8.362,1.255-11.645,1.586c-2.108,0.135-3.938,0.251-5.508,0.351
			c-1.575,0.049-2.889,0.089-3.958,0.122c-8.66,0.194-15.5,0.18-22.091,0.463c-5.076,0.175-10.003,0.521-15.526,0.709
			c-0.399,0.014-0.803,0.026-1.208,0.038c5.567,2.841,11.245,5.567,16.917,8.068c6.046,1.467,12.621,2.429,20.81,2.429
			c0.427,0,0.857-0.002,1.293-0.008c1.151-0.027,2.567-0.061,4.265-0.101c1.7-0.102,3.683-0.22,5.967-0.356
			c1.142-0.115,2.358-0.237,3.653-0.367c1.21-0.121,2.485-0.244,3.856-0.462L478.794,363.545 M517.179,359.513
			c-4.42,0.134-9.509,0.228-15.108,0.228c-3.115,0-6.395-0.029-9.801-0.096c-0.983,0.373-1.949,0.747-2.911,1.076l7.101,9.941
			c0.463-0.176,0.929-0.352,1.397-0.525c4.226-1.722,8.541-3.846,12.726-6.329C512.838,362.481,515.043,361.04,517.179,359.513
			 M525.857,289.476c-0.438,0.177-0.887,0.359-1.347,0.546c-4.533,1.82-10.249,3.928-16.406,5.885
			c-6.156,1.965-12.755,3.764-18.997,5.154c-6.239,1.447-12.131,2.282-16.827,2.906c-2.448,0.217-4.613,0.491-6.445,0.587
			c-1.817,0.068-3.375,0.127-4.722,0.177c-2.684-0.065-4.529-0.139-5.93-0.213c-8.24-0.722-14.552-2.046-20.651-3.618
			c-0.777-0.167-1.509-0.428-2.267-0.642c-0.748-0.231-1.524-0.417-2.271-0.671c-1.491-0.507-3.03-0.982-4.552-1.587
			c-1.012-0.393-2.041-0.803-3.082-1.25c-2.104-0.904-4.258-1.964-6.433-3.355c0.604,1.073,1.257,2.09,1.944,3.059
			c1.482,2.089,3.133,3.955,4.841,5.684c1.249,1.285,2.591,2.414,3.959,3.543c0.685,0.564,1.414,1.051,2.134,1.575
			c0.729,0.506,1.451,1.05,2.23,1.487c6.117,3.743,13.502,6.512,23.179,7.438c1.637,0.108,3.792,0.216,6.918,0.292
			c1.558-0.053,3.358-0.115,5.46-0.187c2.082-0.108,4.369-0.39,7.05-0.63c5.069-0.652,11.405-1.556,18.015-3.084
			c6.625-1.473,13.571-3.374,20.029-5.441c6.183-1.972,11.919-4.084,16.588-5.952L525.857,289.476"/>
		<path fill="#94C6C9" d="M335.964,302.443c0.51,1.084,1.062,2.259,1.66,3.528c0.806,1.158,1.658,2.45,2.512,3.783l0.141-5.366
			C338.51,303.616,337.064,302.957,335.964,302.443 M333.846,301.432c0.867,0.594,2.235,2.322,3.777,4.539
			c-0.518-1.1-1.082-2.3-1.66-3.527C334.969,301.979,334.256,301.633,333.846,301.432 M577.417,298.481
			c-2.84,1.761-5.655,3.405-8.163,4.696c-6.455,3.323-14.266,7.815-19.44,10.854c0.05,0.119,0.098,0.233,0.143,0.341
			c0.551,1.316,0.763,1.823,0.763,1.823s0.16,0.38,0.464,1.105c0.151,0.181-0.03,0.384-0.104,0.605
			c-0.096,0.222-0.2,0.465-0.312,0.728c-0.229,0.526-0.478,1.136-0.801,1.815c-0.158,0.342-0.325,0.701-0.5,1.08
			c-0.178,0.356-0.362,0.73-0.557,1.121c-0.229,0.441-0.478,0.92-0.744,1.436c-0.542,1.022-1.181,2.164-1.91,3.414
			c-2.915,4.986-7.427,11.612-13.518,18.22c-4.431,4.84-9.739,9.634-15.558,13.793c11.307-0.344,18.254-0.954,18.254-0.954
			l7.997,49.334l80-88L577.417,298.481 M522.43,272.893l3.428,16.583c0.145-0.059,0.289-0.117,0.432-0.175
			c0.985-0.42,1.936-0.827,2.85-1.217c0.46-0.197,0.911-0.39,1.352-0.579c0.484-0.222,0.959-0.438,1.422-0.65
			c0.926-0.424,1.807-0.828,2.643-1.21c0.83-0.374,1.635-0.769,2.348-1.062c0.051,0.115,0.101,0.228,0.149,0.34
			c0.497-1.402,1.044-2.901,1.638-4.462L522.43,272.893"/>
		<path fill="#D7E1D6" d="M538.689,280.459c-0.594,1.561-1.141,3.06-1.638,4.462c0.265,0.603,0.514,1.17,0.747,1.701
			c0.553,1.259,1.014,2.309,1.372,3.127c4.531,10.308,7.313,16.638,8.964,20.392c0.355,0.81,0.649,1.479,0.892,2.03
			c0.168,0.395,0.318,0.747,0.451,1.059c0.122,0.292,0.233,0.559,0.336,0.802c5.175-3.039,12.985-7.531,19.44-10.854
			c2.508-1.291,5.323-2.936,8.163-4.696L538.689,280.459"/>
		<path fill="#829D85" d="M340.276,304.388l-0.141,5.366c0.563,0.88,1.128,1.779,1.678,2.669c0.023,0.031,0.046,0.062,0.069,0.094
			l0.07,0.096l-0.006,0.027c0.373,0.604,0.738,1.202,1.094,1.787c0.602,0.862,1.165,1.738,1.709,2.641
			c0.58,0.958,1.125,1.957,1.646,3.022c0.648,1.119,1.036,1.803,1.036,1.803s14.807,14.804,58.334,26.511
			c-0.473-3.104-0.863-5.489-1.127-7.232c-1.104-6.725-1.871-12.341-2.396-17.582C373.592,317.945,351.017,309.082,340.276,304.388
			 M335.963,302.443c0.578,1.227,1.143,2.427,1.66,3.527l0.001,0.001C337.026,304.702,336.474,303.527,335.963,302.443
			L335.963,302.443 M530.916,300.1l-0.123,0.053c-0.585,0.238-1.217,0.496-1.89,0.771c-0.207,0.083-0.417,0.168-0.628,0.252
			l2.49,12.05c0,0-33.44,15.394-80.432,15.394c-5.67,0-11.539-0.225-17.568-0.727c-6.768-0.563-13.349-1.381-19.692-2.382
			c1.181,4.092,2.207,8.569,3.105,13.721c0.421,2.601,1.108,6.584,1.923,12.217c0.66,0.148,1.326,0.297,1.997,0.444
			c20.236,4.442,41.291,6.509,59.79,7.351l2.211-8.685l6.427,8.998c1.266,0.034,2.511,0.063,3.743,0.088
			c0.39-0.148,0.782-0.297,1.179-0.441c3.684-1.503,7.445-3.354,11.105-5.521c7.344-4.308,14.142-10.051,19.539-15.929
			c5.425-5.863,9.484-11.802,12.06-16.192c0.644-1.1,1.205-2.099,1.673-2.978c0.229-0.439,0.442-0.848,0.639-1.224l0.03-0.059v0
			l0.001,0l0.001,0l-0.012-0.026c-0.055-0.123-0.111-0.253-0.172-0.39c-0.242-0.55-0.538-1.22-0.895-2.029
			C536.222,312.139,534.203,307.558,530.916,300.1 M530.91,300.086l0.002,0.012l0.004,0
			C530.914,300.094,530.912,300.09,530.91,300.086"/>
		<path d="M341.813,312.423c0.045,0.072,0.09,0.145,0.134,0.217l0.006-0.027l-0.07-0.096
			C341.859,312.486,341.837,312.455,341.813,312.423"/>
		<path d="M402.243,323.589c0.525,5.241,1.293,10.857,2.396,17.582c0.264,1.743,0.654,4.128,1.127,7.232
			c3.882,1.045,7.987,2.062,12.335,3.045c-0.814-5.633-1.502-9.616-1.923-12.217c-0.898-5.151-1.925-9.629-3.105-13.721
			C409.379,324.929,405.765,324.284,402.243,323.589"/>
		<path d="M343.041,314.427c1.357,2.239,2.556,4.282,3.355,5.663c-0.521-1.065-1.066-2.064-1.646-3.022
			C344.206,316.165,343.643,315.289,343.041,314.427"/>
		<path d="M530.916,300.099l-0.004,0l-0.002-0.012C530.912,300.09,530.914,300.094,530.916,300.099 M536.902,284.581
			c-0.713,0.293-1.518,0.688-2.348,1.062c-0.836,0.382-1.717,0.786-2.643,1.21c-0.463,0.212-0.938,0.429-1.422,0.65
			c-0.44,0.189-0.892,0.382-1.352,0.579c-0.914,0.39-1.864,0.796-2.85,1.217c-0.143,0.058-0.287,0.116-0.432,0.175l2.418,11.7
			c0.211-0.084,0.421-0.169,0.628-0.252c0.673-0.274,1.305-0.532,1.89-0.771l0.123-0.053c3.287,7.458,5.306,12.04,6.502,14.757
			c0.356,0.809,0.652,1.479,0.895,2.029c0.061,0.137,0.117,0.268,0.172,0.39l0.012,0.026l-0.001,0l-0.001,0v0l-0.03,0.059
			c-0.196,0.375-0.409,0.784-0.639,1.224c-0.468,0.879-1.029,1.878-1.673,2.978c-2.575,4.391-6.635,10.329-12.06,16.192
			c-5.397,5.878-12.195,11.621-19.539,15.929c-3.66,2.168-7.422,4.019-11.105,5.521c-0.396,0.145-0.789,0.293-1.179,0.441
			c3.406,0.066,6.686,0.096,9.801,0.096c5.6,0,10.688-0.094,15.108-0.228c5.818-4.159,11.127-8.953,15.558-13.793
			c6.091-6.607,10.603-13.233,13.518-18.22c0.729-1.25,1.368-2.392,1.91-3.414c0.267-0.516,0.516-0.994,0.744-1.436
			c0.194-0.391,0.379-0.765,0.557-1.121c0.175-0.379,0.342-0.738,0.5-1.08c0.323-0.68,0.572-1.289,0.801-1.815
			c0.112-0.263,0.217-0.506,0.312-0.728c0.074-0.222,0.256-0.424,0.104-0.605c-0.304-0.725-0.464-1.105-0.464-1.105
			s-0.212-0.507-0.763-1.823c-0.045-0.108-0.093-0.222-0.143-0.341c-0.103-0.244-0.214-0.511-0.336-0.802
			c-0.133-0.312-0.283-0.664-0.451-1.059c-0.242-0.55-0.536-1.22-0.892-2.03c-1.65-3.753-4.433-10.084-8.964-20.392
			c-0.358-0.818-0.819-1.868-1.372-3.127c-0.233-0.531-0.482-1.098-0.747-1.701C537.003,284.809,536.953,284.696,536.902,284.581"/>
		<path fill="#94C6C9" d="M333.644,301.309c0.009,0.012,0.018,0.024,0.026,0.036c0.051,0.025,0.109,0.054,0.176,0.087
			C333.775,301.383,333.708,301.342,333.644,301.309"/>
		<path d="M333.433,301.226c0,0,0.08,0.041,0.237,0.119c-0.009-0.012-0.018-0.024-0.026-0.036
			C333.568,301.271,333.498,301.242,333.433,301.226"/>
		<path fill="#94C6C9" d="M420.962,407.896c-0.317,2.47-0.686,4.943-1.1,7.422c-1.463,8.767-3.544,17.568-6.214,26.064
			c-1.635,5.158-3.485,10.204-5.541,15.046c56.695,40.358,113.992,62.131,113.992,62.131l-14,45.334l118-38l-53.334-103.334
			l-24.666,38c0,0-1.562,0.651-5.645,0.651c-7.98,0-25.592-2.49-59.976-17.2l-25.047,15.216l4.073-24.952
			c-11.542-6.155-22.828-14.053-33.548-22.812C425.674,410.33,423.334,409.139,420.962,407.896"/>
		<path fill="#829D85" d="M347.433,321.893c1.854,4.286,3.405,9.56,4.704,15.346c0.116,0.438,0.233,0.881,0.353,1.329
			c0.281,1.223,0.571,2.479,0.866,3.764c2.358,10.282,4.173,22.598,4.973,34.431c0.156,2.96,0.311,5.886,0.462,8.74
			c0.109,2.856,0.079,5.648,0.122,8.327c0.103,3.597-0.012,6.986-0.129,10.086c0.401,0.529,7.843,10.312,18.39,22.791
			c0.234-1.092,0.846-2.103,1.757-3.313c1.967,1.479,3.102,2.37,3.586,4.307c0.258,1.044,1.065,4.196,2.148,6.907
			c0.214,0.529,0.431,1.045,0.645,1.528c2.605,2.954,5.315,5.962,8.088,8.953c0.954,0.296,1.795,0.334,2.215,0.378
			c0.809,0.032,1.464,0.245,2.188,0.576c0.454,0.208,0.928,0.489,1.492,0.791c1.117-2.927,2.162-5.929,3.128-8.982
			c2.487-7.932,4.447-16.224,5.82-24.478c0.651-3.899,1.18-7.796,1.562-11.615c-22.376-12.926-45.211-30.152-53.702-49.865
			l-6.341-26.631C348.236,323.094,347.433,321.893,347.433,321.893"/>
		<path d="M409.802,401.758c-0.383,3.819-0.911,7.716-1.562,11.615c-1.373,8.254-3.333,16.546-5.82,24.478
			c-0.966,3.054-2.011,6.056-3.128,8.982c0.342,0.183,0.716,0.373,1.139,0.56c-0.417,0.948-0.944,1.702-1.569,2.277
			c3.073,2.307,6.16,4.561,9.247,6.758c2.056-4.842,3.906-9.888,5.541-15.046c2.67-8.496,4.751-17.298,6.214-26.064
			c0.414-2.479,0.782-4.952,1.1-7.422C417.303,405.977,413.558,403.927,409.802,401.758"/>
		<path d="M352.137,337.239c6.175,27.516,6.629,66.654,6.629,66.654s0.006,0.008,0.018,0.022c0.117-3.1,0.231-6.489,0.129-10.086
			c-0.043-2.679-0.013-5.471-0.122-8.327c-0.151-2.854-0.306-5.78-0.462-8.74c-0.8-11.833-2.614-24.148-4.973-34.431
			c-0.295-1.284-0.585-2.541-0.866-3.764C352.37,338.12,352.253,337.677,352.137,337.239"/>
		<path d="M393.396,445.088c0.454,0.49,0.911,0.981,1.369,1.471c1.362,1.048,2.727,2.084,4.095,3.111
			c0.625-0.575,1.152-1.329,1.569-2.277c-0.423-0.187-0.797-0.377-1.139-0.56c-0.564-0.302-1.038-0.583-1.492-0.791
			c-0.724-0.331-1.379-0.544-2.188-0.576C395.191,445.422,394.351,445.384,393.396,445.088 M378.93,423.393
			c-0.911,1.211-1.522,2.222-1.757,3.313c2.549,3.017,5.279,6.19,8.136,9.429c-0.214-0.483-0.431-0.999-0.645-1.528
			c-1.083-2.711-1.891-5.863-2.148-6.907C382.031,425.763,380.896,424.873,378.93,423.393"/>
		<path fill="#699D94" d="M496.459,370.663c-1.645,0.626-3.253,1.243-4.858,1.713c-1.023,0.317-2.021,0.649-3.011,0.934
			c-0.995,0.259-1.969,0.512-2.919,0.758c-3.555,0.893-6.816,1.494-9.764,1.903c-0.097,0.016-0.192,0.031-0.288,0.047l-2.854,11.209
			c-11.631-2.266-24.316-6.753-36.99-12.344c-0.382-0.092-0.761-0.187-1.139-0.283c-2.038-0.538-4.029-1.135-6.009-1.807
			c-3.043-0.111-5.727-0.247-7.959-0.378c0.521,5.219,0.963,10.773,1.198,16.634c0.09,2.085,0.087,4.247,0.11,6.422
			c-0.087,2.258-0.144,4.592-0.376,6.732c-0.114,1.193-0.241,2.388-0.381,3.582c2.215,1.923,4.468,3.823,6.737,5.678
			c19.341,9.59,34.808,15.097,34.808,15.097l-1.26,7.715c2.409,1.285,4.832,2.495,7.26,3.619c4.844,2.243,9.41,4.276,13.714,6.117
			l46.286-28.117L496.459,370.663"/>
		<path fill="#5E7D63" d="M420.37,369.53c0.102,0.95,0.202,1.911,0.299,2.885c2.232,0.131,4.916,0.267,7.959,0.378
			C425.884,371.863,423.163,370.789,420.37,369.53 M479.889,359.244l-1.095,4.302c1.288-0.256,2.626-0.554,4.015-0.906
			c0.832-0.216,1.684-0.438,2.555-0.664c0.863-0.249,1.733-0.543,2.627-0.819c0.456-0.132,0.912-0.278,1.368-0.435l-0.832-1.164
			C485.721,359.481,482.839,359.377,479.889,359.244 M349.433,323.893l0.326,1.369c7.177,10.222,30.317,41.93,60.414,70.483
			c0.005-0.139,0.011-0.277,0.018-0.416c-0.026-1.959-0.019-3.893-0.103-5.843c-0.312-7.811-1.038-15.362-1.818-22.185
			c-0.264-2.324-0.525-4.495-0.781-6.518C375.521,343.218,349.433,323.893,349.433,323.893"/>
		<path d="M407.488,360.785c0.256,2.022,0.518,4.193,0.781,6.518c0.78,6.822,1.506,14.374,1.818,22.185
			c0.084,1.95,0.076,3.884,0.103,5.843c-0.007,0.139-0.013,0.277-0.018,0.416c3.59,3.406,7.275,6.765,11.048,10.039
			c0.14-1.194,0.267-2.389,0.381-3.582c0.232-2.141,0.289-4.475,0.376-6.732c-0.023-2.175-0.021-4.337-0.11-6.422
			c-0.235-5.86-0.678-11.415-1.198-16.634c-0.097-0.974-0.197-1.935-0.299-2.885c-1.776-0.801-3.582-1.676-5.44-2.638
			c1.349-0.014,2.655-0.041,3.929-0.078C415.01,364.85,411.21,362.83,407.488,360.785"/>
		<path d="M418.858,366.814c-1.273,0.037-2.58,0.064-3.929,0.078c1.858,0.962,3.664,1.837,5.44,2.638
			c2.793,1.259,5.514,2.333,8.258,3.263c1.979,0.672,3.971,1.269,6.009,1.807c0.378,0.097,0.757,0.191,1.139,0.283
			C430.104,372.381,424.426,369.655,418.858,366.814 M489.358,360.721c-0.456,0.156-0.912,0.303-1.368,0.435
			c-0.894,0.276-1.764,0.57-2.627,0.819c-0.871,0.227-1.723,0.448-2.555,0.664c-1.389,0.353-2.727,0.65-4.015,0.906l-3.175,12.472
			c0.096-0.016,0.191-0.031,0.288-0.047c2.947-0.409,6.209-1.011,9.764-1.903c0.95-0.246,1.924-0.499,2.919-0.758
			c0.989-0.284,1.987-0.616,3.011-0.934c1.605-0.47,3.214-1.087,4.858-1.713L489.358,360.721"/>
		<path fill="#4D7255" d="M482.1,350.559l-2.211,8.685c2.95,0.134,5.832,0.237,8.638,0.313L482.1,350.559"/>
		<path fill="#548F7E" d="M421.221,405.785c-0.082,0.703-0.168,1.407-0.259,2.111c2.372,1.243,4.712,2.434,6.996,3.566
			C425.688,409.608,423.436,407.708,421.221,405.785"/>
		<path fill="#4D7255" d="M349.759,325.262l6.341,26.631c8.491,19.713,31.326,36.939,53.702,49.865
			c0.022-0.22,0.044-0.439,0.064-0.658c0.204-1.898,0.235-3.623,0.307-5.354C380.076,367.192,356.936,335.484,349.759,325.262"/>
		<path d="M410.173,395.746c-0.071,1.731-0.103,3.456-0.307,5.354c-0.021,0.219-0.042,0.438-0.064,0.658
			c3.756,2.169,7.501,4.219,11.16,6.138c0.091-0.704,0.177-1.408,0.259-2.111C417.448,402.51,413.763,399.152,410.173,395.746"/>
		<path fill="#548F7E" d="M461.506,434.274l-4.073,24.952l25.047-15.216c-4.304-1.841-8.87-3.874-13.714-6.117
			C466.338,436.769,463.915,435.559,461.506,434.274"/>
		<path fill="#94C6C9" d="M33.882,270.342C16.55,270.344,0,284.76,0,284.76v11.836c0,0,13.404-13.028,30.284-13.028
			c0.675,0,1.356,0.021,2.042,0.064c17.828,1.127,16.257,27.054,16.257,27.054l-18.354,7.328l38.28,22.546l9.502-23.724
			L50.959,296.92l15.3-3.654c-3.854-7.223-10.654-16.27-21.871-20.907C40.94,270.934,37.396,270.342,33.882,270.342"/>
		<path fill="#699D94" d="M50.959,242.56C18.235,242.56,0,273.258,0,273.258v7.674c0,0,14.665-20.465,45.604-23.663
			c0.879-0.091,1.727-0.135,2.549-0.134c23.106,0.002,24.226,34.669,24.226,34.669l-6.12,1.462
			c3.173,5.946,4.349,10.657,4.349,10.657l14.157-3.945l-6.753,16.858l16.383,12.061l23.799-49.884l-25.586,3.837
			C92.607,282.851,83.684,242.56,50.959,242.56"/>
		<path fill="#548F7E" d="M66.259,293.266l-15.3,3.654l27.053,19.916l6.753-16.858l-14.157,3.945
			C70.607,303.923,69.432,299.212,66.259,293.266"/>
		<path fill="#699D94" d="M64.363,399.893L29.88,414.185l17.991,8.245c0,0-3.498,15.94-18.491,18.688
			c-2.142,0.393-4.259,0.561-6.316,0.561c-12.341,0-22.493-6.057-22.493-6.057s10.467,15.954,26.504,15.954
			c0.267,0,0.537-0.005,0.807-0.014c16.492-0.55,33.984-20.888,33.984-20.888l14.492,6.046L64.363,399.893"/>
	</g>
</g>
</svg>
