<?xml version="1.0" encoding="utf-8"?>
<!-- Generator: Adobe Illustrator 16.0.0, SVG Export Plug-In . SVG Version: 6.00 Build 0)  -->
<!DOCTYPE svg PUBLIC "-//W3C//DTD SVG 1.1//EN" "http://www.w3.org/Graphics/SVG/1.1/DTD/svg11.dtd">
<svg version="1.1" xmlns="http://www.w3.org/2000/svg" xmlns:xlink="http://www.w3.org/1999/xlink" x="0px" y="0px" width="640px"
	 height="640px" viewBox="0 0 640 640" enable-background="new 0 0 640 640" xml:space="preserve">
<g id="couleurs">
</g>
<g id="traits">
	<g>
		<path fill="#B3DFEF" d="M0,389.893v-327c0,0,99.374-40.15,152.09-40.15c1.842,0,3.618,0.049,5.34,0.15c51,3,83,19,110,62
			s37,97,39,132s-1,84-1,84s1.538,96.033-6.19,96.033c-0.079,0-0.158-0.01-0.239-0.03c-8-2-21.57-21.003-21.57-21.003l-20-22l-39-36
			l5-43c0,0,9.122-14.386,14.273-37.542c1.691-11.473,3.293-27.575,2.719-45.242c-0.438-4.303-1.091-8.711-1.992-13.216
			c-11-55-23-86-23-86s-4.084-4.764-10.662-4.764c-4.699,0-10.671,2.43-17.338,10.764c-14.926,18.657-19.411,43.408-49.982,63.695
			c-2.604,2.211-4.976,3.705-7.018,4.305l0,0c-37,21-63,34-63,34s1,65-15,100S0,389.893,0,389.893 M640,0H0v640h640V0"/>
		<path fill="#FFF482" d="M48.43,312.893c0,0,18,29,35,36s47.667,11.333,47.667,11.333s40.333-12.333,49.333-13.333
			s15.333-1.333,15.333-1.333l10.667-11.667l12-16c0,0,29.152,20.439,56,53c47,57,41.464,120.023,115,133c34,6,34-41,34-41l5-35
			l1-64c0,0,25,61,42,54s12-18,12-18l-6-40c0,0,117.718,55.876,61,185c-47,107-118,95.107-118,95.107H0V389.893
			C0,389.893,47.43,329.893,48.43,312.893z"/>
		<path fill="#FFFFFF" d="M131.097,360.226c0,0,0.666,42.001-20.667,71.334s-53.333,56.666-53.333,56.666
			s1.333,29.334,23.333,38.667s45.333,6,45.333,6s6.667,17.333,24.667,15.333s20.667,3.334,20.667,3.334
			s12.666,24.666,31.333,22.666s32.667-13.333,32.667-13.333s15.734-40.929,16-68c0.333-34-2.667-48-2.667-48s-4-17.333-14-43.333
			s-38.667-56-38.667-56S135.097,341.559,131.097,360.226z"/>
		<path fill="#FFD854" d="M152.09,22.743C99.374,22.743,0,62.893,0,62.893v327c0,0,36.43-54,52.43-89s15-100,15-100s26-13,63-34l0,0
			l0,0c-7.083,2.083-13.125,3.993-18.125,3.993c-7.001,0-11.958-3.742-14.875-15.993c-2.394-10.054-6.622-14.148-11.477-14.149
			c-5.284,0-11.311,4.852-16.523,12.149c-6.931,9.703-19.626,24.21-25.768,24.21c-2.72,0-4.153-2.844-3.232-10.21
			c1.379-11.032-2.736-15.091-7.974-15.092c-6.157,0-13.865,5.607-16.026,12.092c-3.429,10.285-11.265,11.021-13.435,11.021
			c-0.361,0-0.565-0.021-0.565-0.021l-2.43-70c0,0,13.178-23.734,27.881-23.737c3.152,0,6.371,1.089,9.549,3.737
			c11.156,9.297,16.553,15.138,22.137,15.138c3.426,0,6.921-2.196,11.863-7.138c10.45-10.45,16.377-27.361,28.168-27.361
			c2.878,0,6.104,1.007,9.832,3.361c10.182,6.431,20.651,9.416,30.022,9.416c8.116,0,15.408-2.238,20.978-6.416
			c7.616-5.712,19.665-15.856,26.428-15.856c3.893,0,6.033,3.359,4.572,12.856c-3.52,22.877-34.912,77.497-53.982,93.695
			c30.571-20.287,35.057-45.038,49.982-63.695c6.667-8.333,12.639-10.764,17.338-10.764c6.578,0,10.662,4.764,10.662,4.764
			s12,31,23,86c0.901,4.505,1.554,8.913,1.992,13.216c-0.504-15.554-2.694-32.322-7.992-48.216c0,0,0-15.884,6.462-15.885
			c1.48,0,3.301,0.834,5.538,2.885c7.642,7.005,10.822,10.766,13.158,10.766c1.332,0,2.389-1.223,3.842-3.766c4-7,25-13,25-13l20,96
			c0,0,0.825,37.19-7.288,37.19c-0.812,0-1.712-0.372-2.712-1.19c-8.647-7.075-25.331-20.331-34.014-20.333
			c-2.362,0-4.131,0.98-4.986,3.333c-4,11-23,15-23,15s1.677-6.706,3.273-17.542c-5.151,23.156-14.273,37.542-14.273,37.542l-5,43
			l39,36l20,22c0,0,13.57,19.003,21.57,21.003c0.081,0.021,0.16,0.03,0.239,0.03c7.729,0,6.19-96.033,6.19-96.033s3-49,1-84
			s-12-89-39-132s-59-59-110-62C155.708,22.792,153.932,22.743,152.09,22.743"/>
		<path fill="#FFCD00" d="M124.43,323.893c0,3,5,33,5,33s-31,0-46-8s-35-36-35-36l4-19c0,0,23,14,40,21
			S124.43,323.893,124.43,323.893z"/>
		<path fill="#FFCD00" d="M188.43,308.893l7.333,36.667c0,0,2.667-0.667,10.667-11.667s12-25,12-25l5-34
			C223.43,274.893,188.43,305.893,188.43,308.893z"/>
		<path fill="#FFFFFF" d="M419.43,222.893c0,0,12,97,11,100s-2,46-2,46s29,55,43,49s12-22,12-22l-4-47l-10-121
			C469.43,227.893,432.43,233.893,419.43,222.893z"/>
		<path fill="#BBBE58" d="M240.422,192.109c0.574,17.667-1.027,33.77-2.719,45.242C240.537,224.613,242.169,209.222,240.422,192.109
			"/>
		<path fill="#FCBF06" d="M286.43,124.893c0,0-21,6-25,13c-1.453,2.542-2.51,3.766-3.842,3.766c-2.336,0-5.517-3.761-13.158-10.766
			c-2.237-2.051-4.058-2.885-5.538-2.885c-6.462,0.001-6.462,15.885-6.462,15.885c5.298,15.894,7.488,32.662,7.992,48.216
			c1.747,17.113,0.115,32.504-2.719,45.242c-1.597,10.836-3.273,17.542-3.273,17.542s19-4,23-15
			c0.855-2.353,2.624-3.333,4.986-3.333c8.683,0.002,25.366,13.257,34.014,20.333c1,0.818,1.9,1.19,2.712,1.19
			c8.113,0,7.288-37.19,7.288-37.19L286.43,124.893"/>
		<path fill="#BBBE58" d="M137.447,162.588c-2.2,1.46-4.533,2.896-7.018,4.305C132.472,166.292,134.844,164.799,137.447,162.588"/>
		<path fill="#FCBF06" d="M186.857,56.037c-6.763,0-18.812,10.144-26.428,15.856c-5.569,4.177-12.861,6.416-20.978,6.416
			c-9.371,0-19.841-2.985-30.022-9.416c-3.728-2.354-6.954-3.361-9.832-3.361c-11.791,0-17.718,16.911-28.168,27.361
			c-4.942,4.942-8.438,7.138-11.863,7.138c-5.584,0-10.98-5.841-22.137-15.138c-3.178-2.648-6.396-3.737-9.549-3.737
			C13.178,81.159,0,104.893,0,104.893l2.43,70c0,0,0.204,0.021,0.565,0.021c2.17,0,10.006-0.735,13.435-11.021
			c2.161-6.484,9.869-12.092,16.026-12.092c5.237,0,9.353,4.06,7.974,15.092c-0.921,7.367,0.513,10.21,3.232,10.21
			c6.142,0,18.837-14.507,25.768-24.21c5.213-7.297,11.239-12.149,16.523-12.149c4.854,0,9.083,4.095,11.477,14.149
			c2.917,12.251,7.874,15.993,14.875,15.993c5,0,11.042-1.91,18.125-3.993l0,0c2.484-1.41,4.817-2.845,7.018-4.305
			c19.07-16.198,50.463-70.818,53.982-93.695C192.891,59.396,190.75,56.037,186.857,56.037"/>
		<path fill="#FFF482" d="M88.43,462.893c0,0-12,34,9,37s44,3,53,11s24,19,34,11s19,5,26,10s25,15,31,5s-10,51.666-39,37.333
			s-40-29.333-40-29.333s-16,11-24,3s-17-14-17-14s-31,3-46-8s-18.333-37.667-18.333-37.667L88.43,462.893z"/>
		<path fill="#FFD854" d="M368.43,495.893c0,0,16,86,18,90s29-60,27-83L368.43,495.893z"/>
		<path fill="#FFD854" d="M57.097,488.226c0,0-32.667,50.667-4.667,68.667s68,12,68,12s29,20,46,23s65.955,13.945,83,0
			c22-18,27.945-42.174,31-66c5-39-4-78-4-78l-25-10c0,0,0,133-32,135s-55-24-55-24s-11,4-21-2s-17.667-14-17.667-14
			s-34.333,4-50.333-7S57.097,488.226,57.097,488.226z"/>
		<path fill="#FFD854" d="M429.43,363.893c0,0,4,119,63,129c59.68,10.115,99-92,34-122c-27.793-12.827-53-14-53-14
			s22.947,62.526-6,66C442.43,425.893,429.43,363.893,429.43,363.893z"/>
		<path fill="#FFD854" d="M0,439.893c6.43-1,25.43-24,43.43-48s15-30,25-30s56-5,56-5s-41-8-49-13s-27-31-27-31s-41.57,69-45,73
			S0,439.893,0,439.893z"/>
		<path d="M0,61.561c10.206-1.487,18.695-2.586,27.453-4.302c4.366-0.886,8.831-1.82,13.581-3.078
			c4.781-1.156,9.845-2.662,15.528-4.302c1.927-0.549,4.434-1.373,8.12-2.378c3.686-1.004,8.497-2.445,15.058-4.06
			c1.902-0.458,4.441-1.154,7.204-1.795c2.763-0.634,5.732-1.316,8.464-1.944c2.727-0.668,5.235-1.107,7.051-1.484
			c1.816-0.363,2.947-0.59,2.947-0.59s0.949-0.181,2.504-0.477c0.777-0.14,1.704-0.345,2.744-0.506
			c1.039-0.16,2.188-0.337,3.402-0.523c2.428-0.377,5.119-0.796,7.73-1.202c2.611-0.345,5.143-0.593,7.249-0.852
			c2.208-0.229,4.315-0.546,6.311-0.672c1.995-0.123,3.888-0.24,5.682-0.351c1.795-0.111,3.49-0.216,5.09-0.315
			c1.618-0.022,3.14-0.043,4.566-0.062c2.85-0.018,5.339-0.128,7.445-0.062c2.109,0.052,3.867,0.096,5.299,0.131
			c11.558,0.384,20.46,0.8,28.881,1.501c4.236,0.319,8.281,0.859,12.471,1.726c2.082,0.458,4.195,1.02,6.285,1.864
			c2.103,0.835,4.268,1.865,6.03,3.732c-0.686-2.527-2.291-4.72-3.959-6.581c-1.683-1.911-3.569-3.53-5.519-4.983
			c-3.918-2.857-8.103-5.146-12.525-6.863c-8.868-3.519-18.708-5.456-31.095-5.989c-1.53-0.048-3.41-0.108-5.666-0.18
			c-2.258-0.08-4.862,0.02-7.88,0.032c-1.507,0.018-3.113,0.036-4.823,0.056c-1.722,0.102-3.548,0.209-5.48,0.323
			c-1.933,0.118-3.973,0.243-6.121,0.374c-2.148,0.137-4.364,0.463-6.715,0.706c-2.234,0.26-4.932,0.529-7.688,0.902
			c-2.74,0.439-5.565,0.891-8.113,1.299c-1.273,0.206-2.478,0.401-3.567,0.577c-1.09,0.179-2.049,0.397-2.859,0.55
			c-1.617,0.323-2.604,0.52-2.604,0.52s-1.181,0.226-3.077,0.587c-1.891,0.376-4.52,0.819-7.342,1.491
			c-2.832,0.639-5.912,1.334-8.776,1.98c-2.861,0.66-5.472,1.381-7.431,1.879c-6.772,1.678-11.705,3.167-15.494,4.214
			c-3.788,1.05-6.349,1.907-8.321,2.492c-5.815,1.744-10.884,3.652-15.553,5.504c-4.633,1.952-8.859,3.87-12.859,6.019
			C15.611,50.707,8.33,55.457,0,61.561z"/>
		<path d="M29.097,212.894c10.308-0.743,18.953-2.117,27.775-4.416c8.813-2.344,17.843-5.679,28.744-11.202
			c1.83-0.969,4.233-2.242,7.727-4.091c1.758-0.903,3.729-2.064,6.053-3.373c2.309-1.335,4.997-2.773,7.972-4.632
			c1.771-1.075,4.149-2.518,6.72-4.078c2.544-1.604,5.228-3.413,7.719-5.04c1.238-0.824,2.438-1.588,3.504-2.33
			c1.059-0.753,2.015-1.433,2.819-2.005c1.608-1.146,2.61-1.859,2.61-1.859s0.844-0.59,2.226-1.557
			c0.688-0.488,1.523-1.052,2.432-1.719c0.897-0.682,1.89-1.435,2.938-2.23c2.096-1.596,4.418-3.365,6.672-5.081
			c2.213-1.817,4.327-3.65,6.097-5.15c0.907-0.773,1.794-1.528,2.659-2.264c0.431-0.371,0.864-0.727,1.276-1.098
			c0.4-0.386,0.796-0.768,1.187-1.145c1.56-1.51,3.04-2.942,4.443-4.299c2.87-2.642,5.121-5.331,7.206-7.596
			c1.029-1.147,2.006-2.203,2.885-3.217c0.835-1.057,1.608-2.036,2.323-2.939c1.423-1.812,2.608-3.322,3.574-4.551
			c7.474-10.249,11.613-19.618,13.913-28.816c0.565-2.306,0.942-4.637,1.341-6.923c0.118-1.166,0.236-2.333,0.354-3.507
			c0.114-1.165,0.211-2.332,0.212-3.529c0.162-4.715-0.13-9.656-1.38-14.685c-1.249,4.992-3.113,9.208-5.05,13.16
			c-0.443,0.993-0.961,1.955-1.474,2.906c-0.493,0.948-0.984,1.892-1.475,2.833c-1.054,1.835-2.104,3.664-3.166,5.513
			c-4.369,7.284-9.068,14.689-15.812,23.758c-3.5,4.337-9.929,13.024-23.272,24.499c-1.635,1.382-3.598,3.042-5.623,4.754
			c-2.137,1.642-4.338,3.333-6.324,4.86c-0.991,0.765-1.93,1.488-2.778,2.143c-0.86,0.642-1.654,1.185-2.307,1.656
			c-1.311,0.934-2.11,1.504-2.11,1.504s-0.962,0.672-2.506,1.752c-0.771,0.541-1.688,1.183-2.704,1.894
			c-1.021,0.702-2.178,1.424-3.366,2.205c-2.393,1.541-4.964,3.261-7.401,4.793c-2.458,1.503-4.731,2.895-6.426,3.931
			c-2.845,1.788-5.43,3.171-7.643,4.458c-2.229,1.262-4.115,2.383-5.804,3.257c-3.347,1.799-5.649,3.037-7.403,3.979
			c-10.431,5.416-18.51,9.868-26.058,14.526C44.823,202.56,37.831,207.422,29.097,212.894z"/>
		<path d="M63.762,199.56c-0.318,5.137-1.123,9.716-1.932,14.114c-0.356,2.189-0.861,4.342-1.237,6.467
			c-0.418,2.128-0.896,4.246-1.28,6.379c-1.752,8.54-3.445,17.432-5.698,28.809c-0.188,0.964-0.406,2.079-0.666,3.414
			c-0.308,1.327-0.666,2.872-1.09,4.703c-0.211,0.916-0.438,1.902-0.685,2.969c-0.122,0.533-0.25,1.087-0.382,1.661
			c-0.156,0.57-0.317,1.16-0.484,1.773c-0.666,2.45-1.428,5.251-2.303,8.469c-0.793,2.436-2.077,6.552-3.161,10.062
			c-0.543,1.755-1.153,3.323-1.542,4.479c-0.404,1.15-0.656,1.867-0.656,1.867s-0.873,2.389-1.989,5.439
			c-1.207,2.999-2.677,6.648-3.726,9.252c-1.826,4.072-3.369,7.796-4.991,11.067c-0.784,1.646-1.525,3.201-2.224,4.667
			c-0.714,1.461-1.427,2.818-2.071,4.1c-2.556,5.14-4.649,8.829-5.992,11.402c-5.647,10.316-9.893,18.539-13.537,26.647
			c-3.673,8.099-6.724,16.074-10.687,25.591c7.977-6.562,14.322-12.544,20.311-19.392c5.967-6.869,11.595-14.645,17.568-25.3
			c1.427-2.665,3.615-6.479,6.304-11.841c0.678-1.337,1.423-2.749,2.173-4.276c0.736-1.536,1.517-3.165,2.342-4.889
			c1.699-3.419,3.345-7.355,5.267-11.646c1.13-2.752,2.701-6.629,3.92-9.828c1.135-3.221,2.023-5.741,2.023-5.741
			s0.274-0.75,0.716-1.954c0.425-1.21,1.08-2.849,1.672-4.693c1.181-3.69,2.556-8.028,3.34-10.612
			c0.921-3.409,1.723-6.375,2.425-8.971c0.175-0.649,0.343-1.275,0.506-1.878c0.14-0.611,0.273-1.199,0.403-1.766
			c0.258-1.135,0.497-2.185,0.718-3.158c0.44-1.948,0.812-3.592,1.132-5.004c0.288-1.42,0.49-2.618,0.685-3.647
			c2.282-12.16,2.659-21.992,1.814-31.224c-0.264-2.314-0.514-4.581-0.901-6.845c-0.43-2.267-0.808-4.513-1.411-6.785
			C67.33,208.919,65.902,204.274,63.762,199.56z"/>
		<path d="M160.43,173.893c3.266-1.247,5.228-2.079,7.37-4.602c1.148-1.323,4.707-5.535,8.457-8.07
			c1.849-1.294,3.675-1.967,4.714-2.01c1.058-0.104,1.488,0.246,1.517,0.205c0.008-0.015,0.123,0.069,0.346,0.179
			c0.22,0.118,0.495,0.339,0.83,0.704c0.649,0.747,1.415,2.475,1.684,4.712c0.316,2.2,0.281,4.718,0.135,6.851
			c-0.142,2.139-0.395,3.916-0.508,4.801c-0.461,3.275,0.22,5.294,1.456,8.564c2.633-2.309,4.121-4.121,4.717-7.649
			c0.275-1.924,1.209-7.679,0.417-13.455c-0.364-2.855-1.407-5.863-3.135-7.876c-0.863-0.989-1.788-1.681-2.474-2.06
			c-0.35-0.181-0.623-0.322-0.809-0.418c-0.186-0.099-0.292-0.126-0.292-0.126s-0.413-0.158-1.16-0.395
			c-0.377-0.088-0.845-0.169-1.383-0.255c-0.521-0.021-1.147-0.088-1.772-0.021c-2.598,0.153-5.438,1.421-7.801,3.049
			c-4.788,3.269-8.476,7.783-9.726,9.268C160.773,168.076,160.408,170.391,160.43,173.893z"/>
		<path d="M190.43,126.893c-1.107,2.827-1.521,4.823-0.525,7.765c0.277,0.796,0.854,2.382,1.742,4.286
			c0.896,1.898,2.077,4.132,3.788,6.135c0.855,0.997,1.851,1.937,3.009,2.666c1.165,0.73,2.524,1.165,3.71,1.278
			c0.6,0.043,1.146,0.057,1.613-0.02c0.478-0.045,0.876-0.119,1.181-0.219c0.312-0.091,0.555-0.162,0.721-0.21
			c0.169-0.046,0.234-0.094,0.239-0.09c0,0,0.316-0.141,0.878-0.39c0.295-0.12,0.574-0.311,0.927-0.518
			c0.354-0.197,0.73-0.469,1.132-0.79c1.657-1.21,3.379-3.647,4.063-6.279c0.719-2.625,0.725-5.296,0.51-7.44
			c-0.199-2.159-0.599-3.839-0.796-4.678c-0.797-3.069-2.3-4.526-4.858-6.162c-0.673,2.951-1.084,4.703-0.459,7.401
			c0.149,0.728,0.483,2.197,0.639,3.952c0.182,1.752,0.127,3.789-0.327,5.449c-0.459,1.667-1.321,2.83-2.177,3.473
			c-0.208,0.168-0.401,0.319-0.603,0.423c-0.188,0.108-0.355,0.238-0.481,0.275c-0.253,0.117-0.396,0.183-0.396,0.183
			c-0.123-0.065-1.832,1.194-4.346-1.874c-1.18-1.369-2.217-3.256-2.987-4.9c-0.777-1.653-1.314-3.094-1.586-3.81
			C194.056,130.14,192.709,128.888,190.43,126.893z"/>
		<path d="M205.509,145.663c-0.989,0.841-1.504,1.342-1.354,1.754c0.163,0.447,1.159,2.603,1.159,2.603s0.938,2.183,1.159,2.603
			c0.206,0.388,0.923,0.34,2.21,0.167c0.989-0.841,1.504-1.342,1.354-1.754c-0.163-0.447-1.159-2.603-1.159-2.603
			s-0.937-2.183-1.159-2.603C207.513,145.442,206.796,145.49,205.509,145.663z"/>
		<path d="M211.074,137.619c-0.128,1.284-0.153,1.996,0.212,2.167c0.396,0.185,2.451,0.931,2.451,0.931s2.031,0.807,2.45,0.931
			c0.388,0.115,0.841-0.435,1.598-1.479c0.128-1.284,0.153-1.995-0.212-2.167c-0.396-0.186-2.451-0.931-2.451-0.931
			s-2.031-0.807-2.45-0.931C212.284,136.025,211.831,136.574,211.074,137.619z"/>
		<path d="M197.097,143.56c-1.312,0.177-2.035,0.333-2.177,0.85c-0.153,0.561-0.73,3.408-0.73,3.408s-0.641,2.834-0.73,3.408
			c-0.082,0.53,0.514,0.968,1.638,1.667c1.312-0.177,2.034-0.333,2.177-0.85c0.153-0.561,0.73-3.408,0.73-3.408
			s0.641-2.834,0.73-3.408C198.816,144.697,198.221,144.259,197.097,143.56z"/>
		<path d="M191.763,134.893c-1.193-0.568-1.883-0.833-2.278-0.48c-0.428,0.382-2.434,2.435-2.434,2.435s-2.053,2.006-2.435,2.435
			c-0.353,0.396-0.088,1.084,0.48,2.278c1.193,0.568,1.882,0.833,2.278,0.48c0.428-0.382,2.434-2.435,2.434-2.435
			s2.053-2.006,2.435-2.435C192.596,136.775,192.331,136.086,191.763,134.893z"/>
		<path d="M209.763,129.56c0.144,1.27,0.261,1.961,0.594,2.028c0.361,0.073,2.19,0.243,2.19,0.243s1.823,0.235,2.191,0.244
			c0.34,0.007,0.605-0.642,1.024-1.848c-0.144-1.27-0.261-1.961-0.594-2.029c-0.361-0.073-2.19-0.243-2.19-0.243
			s-1.823-0.235-2.191-0.244C210.447,127.705,210.182,128.354,209.763,129.56z"/>
		<path d="M53.43,290.893c1.989,4.768,4.42,8.561,7.471,12.104c0.784,0.863,1.599,1.727,2.457,2.6
			c0.896,0.816,1.841,1.635,2.839,2.472c0.979,0.866,2.108,1.595,3.263,2.418c0.584,0.398,1.176,0.821,1.806,1.214
			c0.64,0.375,1.297,0.759,1.972,1.153c0.741,0.409,1.641,0.977,2.747,1.534c1.107,0.557,2.377,1.193,3.783,1.899
			c1.426,0.659,3.013,1.329,4.7,2.073l0.159,0.069c0.088,0.037,0.243,0.108,0.366,0.151l0.786,0.297
			c0.526,0.199,1.058,0.399,1.592,0.602c1.074,0.387,2.143,0.849,3.268,1.188c2.239,0.712,4.524,1.499,6.921,2.087
			c4.753,1.334,9.829,2.275,15.077,2.995c1.316,0.149,2.643,0.3,3.977,0.451c1.333,0.155,2.686,0.191,4.039,0.292
			c2.708,0.232,5.455,0.178,8.218,0.233c1.382-0.023,2.768-0.097,4.157-0.144l2.087-0.081l2.086-0.184
			c1.392-0.128,2.786-0.256,4.182-0.384l4.167-0.599c0.693-0.105,1.392-0.19,2.083-0.312l2.065-0.41
			c1.376-0.279,2.756-0.536,4.125-0.836c1.358-0.348,2.715-0.695,4.068-1.042l2.025-0.529l1.991-0.629
			c10.624-3.288,20.551-7.955,28.965-13.418c8.439-5.428,15.535-11.363,21.027-16.886c1.439-1.318,2.666-2.718,3.879-4.001
			c1.195-1.307,2.359-2.476,3.391-3.695c2.089-2.423,3.765-4.635,5.077-6.49c0.642-0.938,1.214-1.774,1.71-2.5
			c0.478-0.737,0.858-1.378,1.179-1.89c0.633-1.028,0.969-1.572,0.969-1.572s0.316-0.554,0.903-1.607
			c0.293-0.527,0.655-1.177,1.081-1.944c0.394-0.783,0.846-1.684,1.354-2.695c1.965-4.067,4.562-10.055,6.612-17.627
			c2.127-7.547,3.721-16.637,4.455-26.558c0.717-9.923,0.562-20.666-0.389-31.549c-0.94-10.886-2.653-21.913-4.827-32.504
			c-1.086-5.296-2.285-10.486-3.552-15.504c-0.631-2.51-1.283-4.976-1.945-7.391c-0.337-1.206-0.67-2.401-1-3.584
			c-0.323-1.118-0.643-2.224-0.959-3.317c-2.252-7.675-4.339-13.895-5.411-16.99c-1.982-5.716-3.951-10.051-6.163-14.005
			c-2.227-3.946-4.676-7.534-7.832-11.623c0.87,5.08,1.509,9.314,2.487,13.67c0.963,4.36,2.235,8.843,4.124,14.472
			c1.021,3.047,3.054,9.158,5.257,16.686c0.31,1.073,0.623,2.157,0.938,3.253c0.323,1.16,0.65,2.331,0.979,3.514
			c0.649,2.367,1.288,4.782,1.905,7.239c1.239,4.912,2.412,9.988,3.474,15.159c2.124,10.341,3.791,21.072,4.704,31.604
			c0.924,10.528,1.072,20.854,0.395,30.303c-0.696,9.446-2.198,18.005-4.176,25.037c-1.905,7.063-4.299,12.563-6.094,16.294
			c-0.464,0.927-0.877,1.752-1.236,2.469c-0.389,0.699-0.719,1.293-0.986,1.774c-0.534,0.961-0.822,1.468-0.822,1.468
			s-0.306,0.495-0.884,1.429c-0.29,0.466-0.649,1.042-1.072,1.72c-0.451,0.659-0.971,1.417-1.555,2.268
			c-1.192,1.682-2.712,3.684-4.603,5.875c-0.936,1.107-2.068,2.241-3.189,3.466c-1.147,1.211-2.306,2.539-3.665,3.776
			c-5.185,5.212-11.858,10.776-19.759,15.854c-7.877,5.112-17.143,9.451-27.049,12.516l-1.856,0.589l-1.889,0.49
			c-1.262,0.323-2.526,0.647-3.793,0.973c-1.276,0.277-2.564,0.515-3.847,0.775l-1.927,0.385c-0.645,0.113-1.296,0.19-1.942,0.288
			l-3.887,0.56c-1.302,0.119-2.603,0.237-3.9,0.355l-1.946,0.173l-1.947,0.073c-1.297,0.043-2.59,0.113-3.879,0.136
			c-2.578-0.058-5.142,0.001-7.668-0.22c-1.263-0.096-2.525-0.125-3.769-0.272c-1.244-0.141-2.481-0.281-3.709-0.421
			c-4.894-0.673-9.627-1.545-14.046-2.787c-2.232-0.544-4.351-1.278-6.431-1.936c-1.047-0.312-2.032-0.744-3.028-1.102
			c-0.496-0.186-0.987-0.371-1.476-0.555l-0.729-0.273c-0.114-0.039-0.257-0.105-0.338-0.14l-0.147-0.064
			c-1.558-0.687-3.026-1.301-4.343-1.903c-1.296-0.645-2.467-1.227-3.487-1.733s-1.843-1.022-2.525-1.39
			c-0.628-0.346-1.238-0.683-1.833-1.01c-0.582-0.349-1.149-0.688-1.703-1.019c-1.098-0.675-2.21-1.23-3.191-1.885
			c-1.004-0.627-1.987-1.21-2.96-1.767c-0.928-0.607-1.849-1.184-2.778-1.739C61,296.335,57.424,294.17,53.43,290.893z"/>
		<path d="M123.43,320.893c-0.39,10.312-0.317,17.244,2.076,28.988c0.187,0.905,0.432,2.095,0.787,3.824l0.006-0.023l0.003-0.002
			c-0.047-0.002,0.146,0.002-0.252-0.008c-0.55-0.021-1.133-0.042-1.743-0.064c-1.221-0.057-2.553-0.135-3.933-0.26
			c-2.762-0.24-5.728-0.592-8.429-1.06c-2.705-0.451-5.149-0.983-6.914-1.402c-1.757-0.448-2.852-0.727-2.852-0.727
			s-0.904-0.269-2.388-0.708c-0.747-0.203-1.613-0.521-2.592-0.844c-0.983-0.312-2.047-0.712-3.167-1.146
			c-4.501-1.689-9.726-4.299-13.218-6.514c-3.684-2.3-6.48-4.431-8.56-6.256c-2.133-1.771-3.507-3.278-4.526-4.233
			c-3.927-4.066-6.729-7.506-9.536-10.789c-0.679-0.838-1.371-1.658-2.085-2.479c-0.671-0.849-1.346-1.704-2.036-2.578
			c-0.354-0.437-0.712-0.877-1.075-1.323c-0.353-0.453-0.678-0.93-1.031-1.405c-0.708-0.961-1.438-1.954-2.203-2.991
			c0.204,1.279,0.399,2.505,0.588,3.691c0.105,0.598,0.193,1.196,0.321,1.774c0.146,0.575,0.289,1.142,0.431,1.702
			c0.3,1.124,0.589,2.244,0.942,3.341c0.394,1.076,0.809,2.149,1.252,3.233c1.869,4.267,4.439,8.614,8.803,13.223
			c1.125,1.087,2.668,2.78,5.045,4.773c2.324,2.048,5.444,4.438,9.532,6.991c3.874,2.471,9.642,5.333,14.561,7.159
			c1.226,0.471,2.389,0.901,3.457,1.238c1.065,0.348,2.013,0.687,2.821,0.905c1.611,0.469,2.594,0.755,2.594,0.755
			s1.183,0.307,3.08,0.8c1.905,0.462,4.54,1.046,7.45,1.54c2.908,0.512,6.094,0.898,9.068,1.158c1.487,0.135,2.924,0.22,4.247,0.278
			c0.663,0.022,1.297,0.045,1.895,0.065c0.486,0.008,0.957,0.015,1.412,0.021c0.538,0.014,1.048-0.007,1.54-0.01
			c1.721,0.005,3.249-0.105,4.687-0.182c0.722-0.041,1.418-0.081,2.092-0.119c0.133,0.032,0.035-0.116,0.041-0.183l-0.046-0.249
			l-0.092-0.491c-0.061-0.325-0.12-0.645-0.179-0.958c-0.467-2.508-0.868-4.657-1.215-6.517c-0.043-0.231-0.086-0.46-0.128-0.683
			c-0.025-0.122-0.05-0.241-0.074-0.358c-0.046-0.22-0.091-0.43-0.134-0.632c-0.086-0.404-0.164-0.776-0.237-1.12
			c-0.146-0.688-0.269-1.262-0.375-1.758C130.629,336.565,127.918,330.186,123.43,320.893z"/>
		<path d="M188.43,303.893c-1.341,4.986-2.255,9.232-2.771,13.752c-0.486,4.528-0.645,9.316,0.137,15.525
			c0.143,1.055,0.33,2.438,0.743,4.491c0.215,1.03,0.482,2.226,0.938,3.679c0.232,0.729,0.506,1.521,0.915,2.42
			c0.212,0.453,0.446,0.927,0.769,1.449l0.259,0.407l0.364,0.497c0.25,0.333,0.54,0.643,0.843,0.942
			c0.534,0.51,1.187,0.999,1.977,1.324c0.737,0.346,1.862,0.519,2.438,0.632c0.709,0.103,1.509,0.09,2.299,0.082
			c0.782-0.129,1.646-0.196,2.408-0.479c0.774-0.266,1.573-0.55,2.229-0.964c0.344-0.194,0.692-0.392,1.027-0.598l0.885-0.678
			c0.286-0.23,0.602-0.455,0.854-0.695l0.738-0.728c0.241-0.244,0.48-0.486,0.718-0.728c0.205-0.247,0.408-0.492,0.609-0.735
			c1.64-1.944,2.682-3.792,3.473-5.125c0.71-1.343,1.152-2.179,1.152-2.179s0.092-0.175,0.259-0.492
			c0.152-0.319,0.372-0.783,0.646-1.358c0.57-1.148,1.248-2.757,2.009-4.562c1.479-3.614,2.983-8.043,3.981-11.216
			c0.663-2.232,1.264-4.252,1.805-6.07c0.27-0.91,0.524-1.77,0.766-2.58c0.211-0.817,0.41-1.587,0.597-2.308
			c0.735-2.887,1.277-5.011,1.648-6.469c0.651-2.971,1.149-5.64,1.522-8.13c0.307-2.504,0.502-4.826,0.6-7.093
			c0.096-4.552-0.123-8.894-0.836-14.016c-1.763,4.839-3.429,8.785-4.798,13.01c-0.735,2.103-1.415,4.27-2.048,6.636
			c-0.699,2.352-1.366,4.899-2.026,7.776c-0.368,1.411-0.904,3.469-1.633,6.264c-0.183,0.699-0.377,1.443-0.584,2.236
			c-0.234,0.784-0.483,1.615-0.746,2.495c-0.525,1.759-1.108,3.713-1.753,5.873c-0.972,3.051-2.404,7.299-3.761,10.655
			c-0.694,1.662-1.309,3.149-1.809,4.164c-0.24,0.517-0.435,0.932-0.568,1.218c-0.143,0.275-0.222,0.427-0.222,0.427
			s-0.384,0.717-1.001,1.867c-0.652,1.088-1.554,2.636-2.683,3.94c-1.102,1.351-2.424,2.377-3.367,2.651
			c-0.242,0.119-0.464,0.062-0.681,0.152c-0.231-0.037-0.437,0.002-0.667-0.032c-0.353-0.091-0.146-0.019-0.185-0.029l0.004,0.008
			l0.002,0.003l-0.065-0.107c-0.103-0.16-0.215-0.384-0.322-0.61c-0.215-0.468-0.406-1.002-0.571-1.517
			c-0.329-1.041-0.561-2.033-0.743-2.899c-0.357-1.745-0.54-3.007-0.679-3.962c-0.775-5.679-1.327-10.293-2.145-14.654
			C190.588,313.083,189.58,308.919,188.43,303.893z"/>
		<path d="M199.362,348.878c-3.484-1.688-6.852-3.009-10.168-4.063c-1.659-0.561-3.313-1.012-4.979-1.424
			c-1.665-0.445-3.346-0.777-5.061-1.064c-0.86-0.142-1.727-0.283-2.601-0.426c-0.878-0.119-1.769-0.192-2.672-0.279
			c-1.817-0.135-3.646-0.369-5.655-0.282c-0.996,0.024-2.012,0.05-3.05,0.075c-1.035,0.044-2.115,0.051-3.163,0.205
			c-2.111,0.269-4.358,0.507-6.664,0.941c-3.101,0.666-8.234,1.46-18.393,4.581c-0.455,0.141-0.92,0.284-1.397,0.431
			c-0.383,0.122-0.771,0.246-1.166,0.371c-0.467,0.159-0.941,0.32-1.424,0.483c-0.967,0.332-1.966,0.675-3.002,1.029
			c-0.518,0.18-1.044,0.362-1.581,0.549c-0.269,0.094-0.539,0.188-0.812,0.284l-0.205,0.072c-0.071,0.021-0.151,0.036-0.124,0.13
			l-0.001,0.447c-0.003,1.025-0.005,2.066-0.007,3.122c-0.023,0.947-0.046,1.907-0.069,2.88c-0.013,0.48-0.026,0.963-0.039,1.449
			l-0.01,0.365l-0.012,0.2l-0.024,0.39c-0.032,0.521-0.064,1.049-0.097,1.582c-0.153,2.133-0.32,4.369-0.599,6.668
			c-0.481,4.605-1.261,9.472-2.232,14.398c-1.981,9.848-5,19.896-8.718,28.533c-3.69,8.658-8.032,15.857-11.502,20.765
			c-1.751,2.497-3.347,4.493-4.361,5.881c-0.519,0.693-0.924,1.229-1.215,1.579c-0.286,0.354-0.436,0.541-0.436,0.541
			s-1.344,1.664-3.703,4.586c-1.223,1.425-2.709,3.156-4.417,5.145c-0.866,0.982-1.819,2.002-2.807,3.092
			c-0.992,1.087-2.024,2.241-3.161,3.39c-4.444,4.689-9.87,9.969-16.043,15.213c-3.066,2.645-6.353,5.24-9.746,7.747
			c-0.423,0.318-0.85,0.623-1.279,0.926l-0.646,0.459c-0.468,0.321-0.936,0.662-1.405,0.961l-2.826,1.847l-1.436,0.914l-0.357,0.228
			c-0.071,0.097,0.015,0.255,0.015,0.384l0.119,0.816c0.316,2.168,0.633,4.339,1.128,6.57l0.229,1.072l0.218,0.879l0.443,1.757
			c1.184,4.4,2.755,8.8,4.428,12.551c1.715,3.735,3.425,6.847,4.651,8.735c4.011,6.412,8.462,10.975,12.377,14.08
			c1.002,0.756,1.938,1.462,2.81,2.119c0.938,0.595,1.801,1.173,2.63,1.634c1.651,0.946,3.081,1.611,4.247,2.136
			c4.761,2.041,9.244,2.938,13.332,3.266c4.099,0.307,7.834,0.05,11.359-0.549c3.525-0.61,6.85-1.561,10.141-2.822
			c3.281-1.279,6.564-2.822,9.869-4.854c-3.854,0.245-7.351,0.13-10.67-0.037c-3.321-0.185-6.467-0.48-9.612-0.867
			c-3.144-0.396-6.29-0.893-9.562-1.61c-3.265-0.734-6.655-1.698-10.154-3.24c-0.854-0.398-1.899-0.893-3.088-1.582
			c-0.601-0.334-1.206-0.758-1.887-1.182c-0.653-0.501-1.354-1.038-2.104-1.613c-2.947-2.363-6.402-5.86-9.694-11.118
			c-1.004-1.539-2.42-4.137-3.879-7.298c-1.42-3.185-2.783-6.992-3.808-10.791l-0.381-1.509l-0.188-0.754l-0.125-0.569l0.008,0.045
			l-0.017,0.014l-0.028,0.021l0.705-0.502c0.474-0.335,0.942-0.671,1.398-1.014c3.68-2.722,7.171-5.489,10.42-8.295
			c6.538-5.567,12.236-11.128,16.906-16.067c1.192-1.212,2.276-2.426,3.318-3.569c1.036-1.147,2.035-2.221,2.944-3.255
			c1.79-2.092,3.348-3.913,4.631-5.412c2.472-3.072,3.88-4.822,3.88-4.822s0.157-0.195,0.458-0.567
			c0.306-0.366,0.732-0.928,1.279-1.655c1.085-1.476,2.71-3.498,4.626-6.215c3.903-5.488,8.732-13.491,12.776-22.955
			c4.077-9.447,7.336-20.286,9.464-30.841c1.046-5.282,1.877-10.484,2.395-15.428c0.296-2.466,0.477-4.873,0.641-7.189
			c0.051-0.871,0.101-1.724,0.148-2.556l0.011-0.287l-0.001,0.01l-0.021,0.006l0.003-0.001l0.235-0.073
			c0.446-0.139,0.88-0.274,1.305-0.406c9.54-2.946,14.252-3.679,17.09-4.326c2.105-0.419,4.084-0.698,5.976-1.082
			c0.951-0.214,1.854-0.286,2.748-0.418c0.894-0.133,1.768-0.264,2.625-0.391c1.692-0.332,3.447-0.417,5.105-0.657
			c0.837-0.111,1.663-0.222,2.481-0.33c0.821-0.092,1.635-0.183,2.443-0.273c1.622-0.208,3.23-0.429,4.849-0.593
			c1.621-0.197,3.256-0.413,4.924-0.572C192.015,349.361,195.498,349.021,199.362,348.878z"/>
		<path d="M118.648,516.321c0.008,3.878,0.387,7.484,1.035,10.958c0.665,3.473,1.631,6.824,3.119,10.17
			c1.51,3.328,3.509,6.703,6.664,9.882c1.591,1.572,3.479,3.088,5.771,4.348c2.279,1.263,5.005,2.224,7.97,2.586
			c0.5,0.096,1.042,0.091,1.631,0.138c0.587,0.034,1.263,0.081,1.81,0.038c1.178-0.051,2.55-0.109,4.175-0.179
			c0.812-0.002,1.689-0.172,2.638-0.303c0.947-0.144,1.966-0.298,3.062-0.464c1.094-0.187,2.246-0.551,3.491-0.859
			c0.621-0.166,1.263-0.338,1.927-0.516c0.65-0.228,1.314-0.491,2.004-0.751c1.201-0.465,2.849-1.014,4.482-1.933
			c0.83-0.431,1.69-0.878,2.549-1.323c0.824-0.497,1.616-1.042,2.388-1.543c0.758-0.519,1.524-0.967,2.143-1.468
			c0.62-0.501,1.18-0.953,1.65-1.334c0.937-0.766,1.521-1.242,1.521-1.242s0.133-0.09,0.337-0.288
			c0.206-0.195,0.505-0.479,0.876-0.833c0.724-0.72,1.811-1.663,2.875-2.835c0.523-0.593,1.075-1.219,1.637-1.855
			c0.561-0.638,1.142-1.28,1.628-1.965c0.99-1.356,2.043-2.629,2.743-3.774c4.163-6.246,6.579-11.695,8.354-16.003
			c1.69-4.338,2.743-7.575,3.39-9.808c2.667-9.035,3.423-16.358,3.471-23.257c-0.049-6.903-0.825-13.455-2.558-21.015
			c-2.005,7.461-4.087,13.48-5.94,19.798c-1.946,6.29-3.661,12.892-6.172,21.084c-0.607,2.029-1.582,4.95-3.096,8.811
			c-1.581,3.812-3.733,8.589-7.209,13.792c-0.592,0.967-1.457,1.978-2.26,3.104c-0.395,0.572-0.861,1.082-1.309,1.594
			c-0.445,0.515-0.882,1.021-1.297,1.499c-0.84,0.946-1.683,1.67-2.241,2.252c-0.286,0.282-0.516,0.51-0.675,0.666
			c-0.156,0.16-0.258,0.226-0.258,0.226s-0.455,0.358-1.186,0.934c-0.363,0.29-0.794,0.634-1.271,1.016
			c-0.475,0.387-1.062,0.698-1.637,1.089c-0.586,0.371-1.181,0.787-1.801,1.16c-0.645,0.327-1.29,0.654-1.912,0.971
			c-1.211,0.704-2.45,1.09-3.338,1.458c-0.514,0.198-1.01,0.39-1.49,0.576c-0.502,0.13-0.986,0.255-1.456,0.377
			c-0.942,0.227-1.795,0.524-2.633,0.663c-0.842,0.126-1.624,0.244-2.351,0.353c-0.729,0.104-1.392,0.255-2.039,0.246
			c-1.279,0.062-2.359,0.113-3.286,0.157c-0.506,0.046-0.797,0.003-1.103-0.01c-0.301-0.028-0.588,0.005-0.836-0.058
			c-2.988-0.312-5.554-1.678-7.971-3.433c-2.397-1.788-4.541-3.978-6.567-6.294c-2.021-2.335-3.935-4.822-5.835-7.536
			C122.376,522.664,120.466,519.73,118.648,516.321z"/>
		<path d="M166.123,544.038c0.678,3.82,1.72,7.303,2.989,10.599c1.283,3.295,2.844,6.403,4.844,9.411
			c1.991,3.011,4.448,5.917,7.646,8.636c0.778,0.699,1.672,1.317,2.547,1.988c0.933,0.605,1.849,1.275,2.891,1.832
			c2.019,1.198,4.326,2.202,6.854,3.021c1.72,0.535,4.034,1.162,7.484,1.529c0.863,0.054,1.795,0.118,2.802,0.158
			c0.997-0.024,2.099-0.012,3.23-0.091c1.119-0.12,2.317-0.158,3.604-0.396c0.643-0.104,1.307-0.213,1.994-0.325
			c0.683-0.156,1.389-0.317,2.118-0.483c2.758-0.683,6.438-1.943,10.056-3.998c1.819-1.006,3.585-2.231,5.274-3.525
			c1.647-1.336,3.227-2.738,4.597-4.189c2.775-2.881,4.867-5.792,6.282-7.936c1.396-2.156,2.148-3.545,2.148-3.545
			s0.166-0.287,0.468-0.809c0.281-0.529,0.688-1.297,1.195-2.251c0.962-1.921,2.249-4.612,3.439-7.69
			c2.437-6.146,4.476-13.795,5.586-19.271c1.439-6.997,2.175-12.687,2.683-17.183c0.487-4.497,0.727-7.807,0.866-10.077
			c0.565-9.188,0.09-16.398-0.971-23.152c-1.1-6.748-2.779-13.076-5.32-20.397c-1.184,7.639-2.395,13.923-3.265,20.52
			c-0.909,6.592-1.491,13.486-2.119,22.241c-0.154,2.163-0.399,5.313-0.873,9.566c-0.492,4.246-1.197,9.606-2.534,16.077
			c-1.043,5.062-2.894,12.026-5.01,17.417c-1.034,2.708-2.127,5.009-2.933,6.645c-0.421,0.805-0.76,1.452-0.993,1.898
			c-0.249,0.434-0.386,0.672-0.386,0.672s-0.638,1.157-1.779,2.902c-1.154,1.729-2.835,4.03-4.943,6.199
			c-2.094,2.187-4.624,4.202-7.205,5.621c-2.564,1.452-5.149,2.341-7.128,2.852c-2.08,0.551-3.986,0.737-5.653,0.89
			c-0.823,0.06-1.545,0.039-2.24,0.072c-0.684-0.037-1.317-0.07-1.904-0.102c-2.336-0.248-3.91-0.655-5.099-1.014
			c-1.746-0.553-3.392-1.17-4.922-1.943c-0.782-0.337-1.505-0.791-2.249-1.155c-0.709-0.445-1.442-0.811-2.119-1.272
			c-2.76-1.738-5.275-3.613-7.687-5.616c-2.419-1.995-4.757-4.097-7.118-6.422C170.919,549.606,168.502,547.082,166.123,544.038z"/>
		<path d="M158.055,350.04c0.915,7.676,1.292,14.036,2.001,20.609c0.66,6.578,1.626,13.364,2.77,21.97
			c0.091,0.729,0.197,1.572,0.324,2.582c0.064,0.505,0.134,1.051,0.21,1.645c0.05,0.594,0.104,1.236,0.161,1.933
			c0.118,1.393,0.254,3.002,0.412,4.881c0.066,1.875,0.143,4.018,0.23,6.48c0.006,1.255-0.062,2.93-0.086,4.745
			c-0.025,0.906-0.014,1.852-0.065,2.785c-0.077,0.929-0.152,1.855-0.226,2.743c-0.168,1.77-0.214,3.41-0.415,4.562
			c-0.18,1.158-0.291,1.879-0.291,1.879s-0.099,0.603-0.261,1.59c-0.186,0.983-0.313,2.372-0.741,3.882
			c-0.369,1.52-0.778,3.205-1.175,4.84c-0.447,1.626-0.993,3.182-1.385,4.49c-0.244,0.775-0.482,1.532-0.714,2.271
			c-0.253,0.733-0.548,1.438-0.809,2.131c-0.532,1.383-1.037,2.696-1.516,3.94c-1.042,2.461-2.062,4.622-2.908,6.549
			c-1.906,3.774-3.293,6.561-4.387,8.409c-4.223,7.57-7.628,13.508-10.694,19.355c-3.11,5.827-5.85,11.569-9.608,18.323
			c6.504-4.215,11.658-8.34,16.513-13.22c4.822-4.915,9.374-10.643,13.993-18.731c1.187-1.969,2.712-4.97,4.779-9.049
			c0.936-2.097,2.046-4.444,3.188-7.138c0.53-1.368,1.089-2.812,1.678-4.334c0.287-0.765,0.608-1.536,0.889-2.349
			c0.262-0.822,0.529-1.665,0.803-2.528c0.449-1.457,1.047-3.184,1.544-5.011c0.438-1.848,0.892-3.753,1.3-5.471
			c0.457-1.706,0.607-3.288,0.805-4.404c0.173-1.122,0.277-1.808,0.277-1.808s0.133-0.817,0.346-2.129
			c0.235-1.312,0.314-3.123,0.513-5.106c0.085-0.991,0.174-2.026,0.264-3.064c0.062-1.036,0.058-2.072,0.087-3.073
			c0.032-1.999,0.094-3.853,0.068-5.227c-0.101-2.685-0.188-5.02-0.264-7.063c-0.176-2.028-0.327-3.767-0.457-5.271
			c-0.067-0.752-0.129-1.444-0.187-2.086c-0.084-0.637-0.161-1.222-0.232-1.762c-0.145-1.081-0.265-1.984-0.369-2.766
			c-1.318-9.205-3.419-16.198-6.054-22.551C165.688,362.162,162.473,356.409,158.055,350.04z"/>
		<path d="M181.229,349.151c-1.267,5.42-1.928,8.705,0.064,13.087c1.005,2.396,4.287,9.523,6.575,16.295
			c0.646,1.671,1.138,3.339,1.625,4.872c0.484,1.533,0.93,2.942,1.308,4.138c0.59,2.396,0.972,3.941,0.972,3.941
			s0.093,0.388,0.258,1.074c0.154,0.692,0.43,1.66,0.67,2.884c0.217,1.235,0.473,2.688,0.751,4.271
			c0.275,1.585,0.613,3.284,0.812,5.076c0.232,1.779,0.472,3.6,0.703,5.368c0.212,1.775,0.35,3.516,0.516,5.104
			c0.347,3.175,0.479,5.805,0.608,7.11c0.404,4.838,2.521,7.444,6.339,11.521c3.656-4.203,5.575-7.219,5.338-12.274
			c-0.085-1.37-0.199-4.111-0.553-7.451c-0.168-1.67-0.313-3.489-0.539-5.363c-0.249-1.874-0.506-3.802-0.757-5.687
			c-0.217-1.884-0.586-3.729-0.891-5.434c-0.311-1.704-0.596-3.269-0.838-4.598c-0.27-1.33-0.58-2.427-0.756-3.188
			c-0.188-0.762-0.295-1.19-0.295-1.19s-0.416-1.72-1.061-4.385c-0.398-1.29-0.868-2.809-1.379-4.463
			c-0.517-1.651-1.044-3.452-1.724-5.233c-2.431-7.256-5.902-14.803-7.066-17.31C189.634,352.752,186.515,350.974,181.229,349.151z"
			/>
		<path d="M320.43,454.893c0.595,5.145,1.795,9.439,3.589,13.717c1.827,4.27,4.391,8.528,8.521,13.274
			c0.579,0.625,1.304,1.406,2.152,2.323c0.865,0.901,1.9,1.896,3.042,3.001c1.196,1.047,2.455,2.257,3.938,3.402
			c0.364,0.294,0.732,0.59,1.103,0.888c0.434,0.361,0.891,0.7,1.358,1.031c0.936,0.664,1.859,1.374,2.845,2.024
			c0.994,0.639,2.002,1.285,3.022,1.94c1.057,0.597,2.127,1.201,3.209,1.812c8.764,4.665,19.378,7.906,30.431,8.525
			c5.513,0.359,11.126,0.257,16.646-0.424l2.075-0.226l0.519-0.058c0.174-0.019,0.434-0.083,0.646-0.125l1.338-0.302
			c0.454-0.086,0.867-0.257,1.282-0.426l1.243-0.512c0.8-0.375,1.51-0.855,2.257-1.297c2.814-1.936,4.812-4.373,6.482-6.812
			c0.879-1.218,1.543-2.484,2.271-3.73c0.632-1.265,1.315-2.519,1.847-3.791c1.165-2.529,2.077-5.074,2.945-7.591
			c1.693-5.039,2.952-9.999,4.001-14.774c2.083-9.555,3.343-18.378,4.246-25.874c0.9-7.498,1.426-13.673,1.776-17.972
			c0.309-4.299,0.482-6.722,0.482-6.722s0.039-0.605,0.112-1.749c0.067-1.143,0.167-2.823,0.295-4.974
			c0.247-4.3,0.529-10.479,0.737-17.99c0.434-15.022,0.44-35.376-0.493-56.667c-0.452-10.646-1.137-21.525-2.022-32.091
			c-0.44-5.283-0.951-10.486-1.489-15.543c-0.291-2.527-0.577-5.019-0.859-7.466c-0.152-1.223-0.304-2.435-0.453-3.635
			c-0.148-1.136-0.295-2.261-0.439-3.374c-1.074-7.914-2.185-14.39-2.787-17.619c-1.112-5.964-2.463-10.57-4.179-14.803
			c-1.729-4.221-3.801-8.116-6.688-12.396c0.544,5.13,0.704,9.355,1.131,13.766c0.408,4.409,1.033,8.991,2.061,14.822
			c0.556,3.157,1.626,9.495,2.678,17.282c0.143,1.095,0.286,2.203,0.432,3.322c0.147,1.182,0.296,2.376,0.446,3.581
			c0.277,2.414,0.56,4.871,0.847,7.364c0.53,4.993,1.035,10.134,1.472,15.359c0.877,10.449,1.559,21.223,2.01,31.769
			c0.934,21.093,0.938,41.26,0.521,56.115c-0.201,7.429-0.477,13.533-0.716,17.776c-0.125,2.121-0.222,3.779-0.288,4.907
			c-0.071,1.128-0.109,1.725-0.109,1.725s-0.173,2.387-0.479,6.623c-0.35,4.23-0.87,10.308-1.758,17.649
			c-0.888,7.337-2.13,15.956-4.135,25.128c-1.008,4.579-2.214,9.3-3.783,13.958c-0.801,2.316-1.641,4.654-2.667,6.87
			c-0.474,1.143-1.059,2.191-1.598,3.285c-0.606,1.021-1.168,2.108-1.853,3.037c-1.303,1.925-2.8,3.649-4.417,4.742
			c-0.414,0.217-0.808,0.513-1.218,0.699l-0.615,0.245c-0.203,0.089-0.404,0.19-0.616,0.209c-0.209,0.041-0.415,0.088-0.621,0.14
			c-0.116,0.023-0.178,0.06-0.338,0.077l-0.479,0.051l-1.918,0.207c-5.111,0.633-10.242,0.715-15.243,0.39
			c-1.246-0.117-2.503-0.134-3.727-0.329c-1.229-0.171-2.451-0.341-3.667-0.511c-1.199-0.244-2.394-0.488-3.579-0.73
			c-1.195-0.212-2.332-0.609-3.489-0.898c-4.585-1.306-8.886-3.062-12.794-5.141c-0.965-0.544-1.918-1.082-2.859-1.612
			c-0.91-0.585-1.81-1.162-2.697-1.731c-0.881-0.579-1.705-1.218-2.543-1.808c-0.419-0.295-0.828-0.598-1.216-0.923
			c-0.332-0.267-0.662-0.532-0.988-0.795c-1.332-1.021-2.463-2.112-3.544-3.047c-1.029-0.994-1.968-1.885-2.753-2.695
			c-0.774-0.823-1.435-1.524-1.962-2.086c-3.779-4.261-6.652-7.714-9.444-11.046C326.146,462.285,323.349,459.131,320.43,454.893z"
			/>
		<path d="M432.43,356.893c-1.941,4.807-2.77,9.257-2.977,13.914c-0.185,4.672,0.363,9.658,2.222,15.672
			c0.269,1.034,0.768,2.342,1.465,4.251c0.646,1.931,1.757,4.355,3.256,7.621c0.47,0.896,0.96,1.831,1.468,2.801
			c0.523,0.961,0.999,1.998,1.641,2.976c0.612,0.995,1.243,2.021,1.892,3.074c0.325,0.524,0.656,1.057,0.99,1.596
			c0.367,0.515,0.739,1.035,1.115,1.562c0.754,1.053,1.523,2.128,2.308,3.224c0.374,0.549,0.818,1.098,1.276,1.649
			c0.456,0.55,0.897,1.112,1.378,1.662c1.951,2.181,4.193,4.336,6.973,6.146c2.76,1.776,6.212,3.252,10.062,3.306
			c1.912,0.041,3.828-0.313,5.63-0.908c1.757-0.668,3.433-1.526,4.85-2.618c2.902-2.135,5.01-4.849,6.71-7.631
			c1.685-2.804,2.864-5.765,3.707-8.74c0.833-2.98,1.298-5.993,1.375-8.97c0.021-0.743-0.012-1.489-0.02-2.224
			c-0.05-0.74-0.109-1.475-0.182-2.201c-0.203-1.333-0.402-2.64-0.597-3.915c-0.709-4.715-1.351-8.974-1.891-12.557
			c-0.881-7.288-1.43-11.827-1.43-11.827s-0.455-3.8-1.201-10.025c-0.677-6.246-1.617-14.926-2.672-24.661
			c-1-9.747-2.107-20.552-3.184-31.035c-1.033-10.49-2.035-20.659-2.869-29.126c-0.887-9.119-1.435-14.763-1.721-17.71
			c-1.198-11.923-3.17-18.562-6.574-28.305c-1.558,10.2-2.27,17.1-1.191,29.043c0.277,2.951,0.81,8.601,1.669,17.729
			c0.834,8.475,1.836,18.653,2.87,29.153c1.083,10.497,2.2,21.316,3.207,31.076c1.066,9.759,2.018,18.459,2.702,24.719
			c0.757,6.263,1.22,10.085,1.22,10.085s0.547,4.566,1.426,11.899c0.554,3.697,1.212,8.092,1.94,12.957
			c0.169,1.119,0.343,2.266,0.52,3.436c0.044,0.534,0.088,1.075,0.132,1.62c-0.001,0.556,0.029,1.113,0.012,1.683
			c-0.061,2.277-0.427,4.673-1.092,7.039c-0.67,2.36-1.614,4.718-2.894,6.834c-1.28,2.097-2.839,4.038-4.642,5.342
			c-0.886,0.695-1.842,1.137-2.783,1.521c-0.958,0.296-1.919,0.488-2.9,0.465c-1.954-0.019-4.007-0.817-5.937-2.061
			c-1.932-1.255-3.72-2.931-5.33-4.733c-0.399-0.457-0.775-0.942-1.16-1.404c-0.385-0.46-0.765-0.924-1.118-1.446
			c-0.723-1.009-1.431-1.998-2.124-2.967c-0.347-0.483-0.69-0.962-1.03-1.435c-0.305-0.493-0.606-0.981-0.904-1.463
			c-0.595-0.964-1.174-1.902-1.736-2.813c-0.594-0.894-1.02-1.84-1.5-2.716c-0.466-0.884-0.914-1.736-1.345-2.553
			c-1.36-2.972-2.388-5.171-2.973-6.92c-0.638-1.729-1.104-2.91-1.352-3.844c-1.735-5.422-2.884-9.734-3.97-13.91
			C434.092,366.041,432.968,362.01,432.43,356.893z"/>
		<path d="M554.43,448.893c-0.578,5.118-1.305,9.309-1.795,13.713c-0.511,4.4-0.834,8.998-1.104,14.87
			c-0.104,1.988-0.223,5.23-0.889,11.933c-0.64,6.127-1.759,14.341-3.759,23.048c-1.978,8.708-4.756,17.912-8.019,26.096
			c-3.27,8.18-6.869,15.383-9.819,20.409c-0.688,1.285-1.399,2.397-2.004,3.387c-0.606,0.989-1.129,1.841-1.557,2.538
			c-0.419,0.703-0.771,1.233-1.017,1.587c-0.241,0.357-0.368,0.546-0.368,0.546s-0.426,0.629-1.199,1.773
			c-0.387,0.572-0.86,1.273-1.411,2.089c-0.562,0.809-1.25,1.696-1.985,2.699c-0.751,0.994-1.533,2.107-2.45,3.265
			c-0.942,1.142-1.952,2.364-3.018,3.654c-1.064,1.291-2.185,2.648-3.351,4.062c-0.59,0.699-1.159,1.441-1.795,2.143
			c-0.646,0.692-1.303,1.396-1.968,2.11c-1.33,1.428-2.696,2.895-4.086,4.388c-0.702,0.739-1.381,1.515-2.116,2.242
			c-0.749,0.713-1.504,1.43-2.262,2.15c-1.514,1.441-3.042,2.896-4.57,4.351c-0.748,0.746-1.553,1.427-2.363,2.098
			c-0.805,0.678-1.607,1.354-2.407,2.028c-1.614,1.33-3.155,2.729-4.779,3.964c-1.635,1.22-3.244,2.419-4.812,3.589
			c-0.786,0.58-1.55,1.173-2.326,1.721c-0.793,0.521-1.574,1.035-2.341,1.54c-1.532,1.01-3.009,1.982-4.415,2.909
			c-7.638,4.615-12.611,7.008-15.218,8.209c-2.639,1.217-4.991,2.302-7.178,3.311c-1.096,0.496-2.129,1.046-3.156,1.513
			c-1.029,0.465-2.025,0.94-3.006,1.432c-3.954,1.871-7.654,3.893-12.457,5.743c5.142,0.622,9.594,0.414,14.149-0.275
			c1.136-0.195,2.285-0.416,3.463-0.666c1.178-0.252,2.345-0.625,3.575-0.986c1.217-0.392,2.514-0.739,3.796-1.28
			c1.294-0.517,2.642-1.08,4.058-1.696c2.781-1.248,8.064-3.768,16.118-8.631c1.48-0.974,3.034-1.995,4.648-3.056
			c0.807-0.531,1.628-1.072,2.462-1.622c0.814-0.574,1.616-1.194,2.442-1.803c1.645-1.228,3.331-2.486,5.046-3.766
			c1.701-1.297,3.312-2.754,5-4.147c0.836-0.705,1.676-1.414,2.516-2.123c0.847-0.704,1.688-1.417,2.467-2.193
			c1.594-1.518,3.186-3.034,4.764-4.538c0.789-0.752,1.574-1.501,2.354-2.245c0.765-0.759,1.471-1.563,2.199-2.333
			c1.444-1.553,2.862-3.079,4.243-4.564c0.69-0.743,1.371-1.476,2.041-2.197c0.66-0.729,1.25-1.496,1.861-2.223
			c1.206-1.465,2.365-2.873,3.468-4.212c1.102-1.339,2.146-2.607,3.12-3.792c0.953-1.208,1.784-2.388,2.57-3.433
			c0.772-1.056,1.493-1.993,2.083-2.844c0.579-0.858,1.077-1.597,1.483-2.199c0.812-1.205,1.258-1.867,1.258-1.867
			s0.134-0.197,0.388-0.573c0.259-0.373,0.629-0.93,1.071-1.667c0.451-0.732,1.002-1.627,1.641-2.665
			c0.638-1.04,1.384-2.21,2.111-3.558c3.104-5.279,6.896-12.835,10.325-21.399c3.426-8.567,6.334-18.18,8.396-27.255
			c2.085-9.075,3.245-17.615,3.897-23.985c0.683-6.965,0.792-10.333,0.879-12.4c0.219-6.104-0.163-10.905-0.969-15.398
			C557.53,457.92,556.325,453.704,554.43,448.893z"/>
		<path fill="#FFFFFF" d="M405,129.896c0,0-8-28-17-23s-4,20-4,20s6,40,7,46s8,27,14,34s10,6,17,6s17-4,17-4l12.763,3.998
			c0,0,14.667-0.333,20.667,0.667s13.57-0.665,13.57-0.665s2-10-1-17s-3-12-3-12l2-8l-3-9l1-9l-3-12l6.096-13.668
			c0,0-1.666-21.667-32.666-18.667S407,120.896,405,129.896z"/>
		<path d="M419,194.895c-2.203,0.161-4.045,0.587-5.724,1.434c-1.666,0.868-3.226,2.147-4.561,4.518
			c-0.351,0.648-0.867,1.659-1.301,3.12c-0.409,1.443-0.771,3.471-0.222,5.758c0.24,1.135,0.746,2.251,1.369,3.258
			c0.638,0.994,1.408,1.879,2.229,2.604c0.382,0.385,0.904,0.729,1.373,1.081c0.482,0.346,0.974,0.586,1.47,0.873
			c0.492,0.25,0.982,0.447,1.477,0.664c0.488,0.185,0.97,0.335,1.453,0.498c3.83,1.099,7.225,1.136,9.692,1.13
			c2.465-0.036,4.012-0.188,4.012-0.188c0,0,1.562-0.096,3.934-0.4c2.371-0.301,5.548-0.816,8.814-1.539
			c6.551-1.392,13.459-3.658,15.729-4.523c4.188-1.568,6.122-3.831,8.351-7.622c-4.344-0.723-6.97-1.102-10.953,0.268
			c-2.141,0.751-8.681,2.893-14.806,4.209c-3.055,0.685-5.983,1.168-8.137,1.452c-2.154,0.286-3.531,0.377-3.531,0.377
			c0,0-1.388,0.126-3.485,0.146c-2.076,0.018-4.941-0.109-7.352-0.826c-1.213-0.362-2.146-0.849-2.774-1.434
			c-0.76-0.694-1.106-1.289-1.215-1.815c-0.309-1.023,0.351-2.667,0.758-3.423c0.751-1.441,1.396-2.801,1.891-4.315
			C418.004,198.686,418.364,196.994,419,194.895z"/>
		<path d="M225.001,394.896c6.201-8.244,11.325-15.154,16.123-22.73c4.807-7.568,9.291-15.799,14.394-26.564
			c1.744-3.639,4.504-9.609,10.544-21.809c3.575-7.166,9.692-19.203,15.354-28.989c2.818-4.898,5.523-9.21,7.558-12.154
			c1.013-1.482,1.855-2.61,2.438-3.382c0.584-0.743,0.908-1.155,0.908-1.155l0.097-0.121l0.002,0.002l0.001,0.011l-0.033,0.012
			v0.031c0.106,0.543,0.215,1.09,0.323,1.642c0.101,0.602,0.201,1.207,0.303,1.815c0.38,2.471,0.672,5.092,0.896,7.708
			c0.445,5.241,0.657,10.449,0.779,14.795c0.231,8.973,0.154,16.312,0.074,22.113c-0.089,5.805-0.207,10.084-0.287,13.021
			c-0.333,11.885-0.113,21.242,0.686,30.164c0.787,8.926,2.154,17.412,3.84,27.59c3.282-9.787,5.751-18.078,7.588-26.922
			c1.825-8.846,3.021-18.252,3.479-30.328c0.111-2.984,0.256-7.338,0.363-13.268c0.1-5.934,0.192-13.434-0.04-22.787
			c-0.117-4.541-0.335-10.006-0.829-15.741c-0.252-2.87-0.579-5.81-1.042-8.77c-0.243-1.518-0.485-2.894-0.854-4.553
			c-0.161-0.639-0.321-1.274-0.48-1.907c-0.153-0.635-0.313-1.265-0.535-1.87c-0.204-0.612-0.407-1.22-0.608-1.824
			c-0.204-0.603-0.488-1.129-0.726-1.692c-0.451-1.161-1.104-2.056-1.669-3.029c-0.668-0.822-1.297-1.678-2.054-2.283
			c-1.452-1.292-3.121-2.181-4.95-2.595c-0.445-0.139-0.904-0.113-1.349-0.167l-0.167-0.013c-0.04-0.105-0.104-0.03-0.154-0.054
			l-0.322-0.003l-0.637-0.006c-0.831,0.067-1.63,0.182-2.387,0.376c-1.523,0.309-2.912,1.082-4.16,1.855
			c-2.47,1.687-4.335,3.588-5.521,4.948c-0.599,0.684-1.063,1.213-1.377,1.571c-0.239,0.291-0.364,0.442-0.364,0.442
			s-0.419,0.527-1.173,1.478c-0.724,0.948-1.752,2.318-2.916,4.005c-2.351,3.374-5.289,8.033-8.271,13.182
			c-5.988,10.287-12.235,22.547-15.836,29.872c-6.13,12.424-8.89,18.463-10.62,22.166c-5.053,10.947-8.292,19.844-10.725,28.533
			C228.241,376.208,226.617,384.701,225.001,394.896z"/>
		<path d="M298.999,252.896c-1.278,8.896-1.526,14.641,2.218,22.772c4.057,8.809,25.075,52.585,25.075,52.585
			s20.784,43.889,25.074,52.584c3.962,8.029,8.583,11.453,16.299,16.059c1.279-8.896,1.527-14.641-2.216-22.773
			c-4.055-8.809-25.075-52.584-25.075-52.584s-20.783-43.89-25.075-52.585C311.337,260.925,306.717,257.502,298.999,252.896z"/>
		<path d="M221,392.896l153-1c0,0-12,66-73,66C246.333,457.896,221,392.896,221,392.896z"/>
		<path d="M221,392.896c10.03,2.426,16.839,3.73,28.824,3.711c12.273-0.076,49.146-0.307,82.948-0.518
			c9.985-0.066,19.743-0.133,28.764-0.195c2.256-0.016,4.465-0.029,6.62-0.045l0.806-0.006c0.094,0,0.085,0,0.08,0h-0.001h-0.001
			h-0.006l-0.008-0.004l0.003-0.01v0.004c-0.106,0.381-0.212,0.76-0.316,1.135c-0.521,1.756-1.045,3.445-1.613,5.041
			c-2.235,6.406-4.666,11.445-6.506,14.844c-0.955,1.678-1.671,3.012-2.23,3.871c-0.537,0.873-0.822,1.336-0.822,1.336
			s-1.122,1.867-3.395,4.965c-2.271,3.088-5.765,7.391-10.779,11.752c-0.311,0.275-0.625,0.553-0.943,0.834
			c-0.333,0.26-0.67,0.523-1.011,0.789c-0.681,0.533-1.375,1.076-2.082,1.629c-0.739,0.506-1.493,1.021-2.26,1.545
			c-0.386,0.258-0.764,0.537-1.163,0.785c-0.406,0.24-0.815,0.48-1.228,0.723c-3.25,2.031-6.968,3.713-10.945,5.158
			c-1.006,0.334-2.021,0.672-3.047,1.012c-1.049,0.27-2.107,0.539-3.174,0.812c-0.535,0.131-1.067,0.285-1.611,0.396
			c-0.548,0.098-1.099,0.193-1.651,0.291c-1.107,0.182-2.211,0.424-3.342,0.562c-2.273,0.211-4.559,0.553-6.907,0.555
			c-1.168,0.021-2.351,0.119-3.52,0.082c-1.167-0.043-2.339-0.086-3.514-0.131c-4.687-0.336-9.384-1.139-13.941-2.471
			c-4.537-1.398-8.921-3.281-13.042-5.547c-1.016-0.596-2.062-1.127-3.043-1.766c-0.985-0.635-1.965-1.266-2.94-1.893
			c-0.943-0.68-1.882-1.355-2.814-2.027c-0.941-0.66-1.806-1.42-2.704-2.117c-0.901-0.691-1.751-1.441-2.592-2.188
			c-0.846-0.74-1.692-1.465-2.479-2.246c-0.794-0.771-1.608-1.508-2.366-2.289c-0.719-0.742-1.431-1.479-2.135-2.207
			c-5.22-5.588-8.93-10.717-10.749-13.285c-3.351-4.762-6.007-8.492-8.693-11.99C226.809,400.277,224.062,397.039,221,392.896
			c0.765,5.113,1.864,9.367,3.459,13.662c1.622,4.287,3.813,8.619,7.311,13.697c1.901,2.738,5.814,8.186,11.412,14.188
			c0.757,0.783,1.521,1.574,2.294,2.375c0.816,0.84,1.695,1.639,2.553,2.471c0.851,0.842,1.769,1.631,2.686,2.434
			c0.913,0.809,1.836,1.621,2.819,2.381c0.98,0.762,1.922,1.584,2.954,2.311c1.023,0.736,2.053,1.479,3.088,2.223
			c1.075,0.693,2.156,1.389,3.241,2.088c1.084,0.703,2.244,1.301,3.371,1.957c4.574,2.516,9.482,4.627,14.588,6.193
			c5.128,1.502,10.429,2.41,15.699,2.779c1.319,0.049,2.635,0.098,3.945,0.146c1.31,0.035,2.597-0.064,3.888-0.092
			c2.579-0.012,5.129-0.375,7.648-0.621c1.257-0.156,2.496-0.422,3.732-0.627c0.617-0.111,1.231-0.221,1.844-0.33
			c0.61-0.127,1.209-0.297,1.811-0.443c1.198-0.309,2.393-0.596,3.565-0.918c1.156-0.385,2.303-0.766,3.438-1.143
			c4.49-1.629,8.695-3.547,12.369-5.838c0.465-0.275,0.927-0.549,1.385-0.82c0.451-0.281,0.878-0.592,1.312-0.885
			c0.863-0.592,1.712-1.174,2.545-1.746c0.795-0.621,1.575-1.23,2.34-1.828c0.382-0.301,0.76-0.598,1.134-0.891
			c0.355-0.314,0.708-0.625,1.057-0.932c5.611-4.889,9.455-9.646,11.946-13.033c2.489-3.402,3.707-5.434,3.706-5.434
			c0,0,0.311-0.504,0.897-1.453c0.607-0.939,1.388-2.379,2.424-4.201c1.996-3.682,4.616-9.104,7.024-15.986
			c0.611-1.719,1.178-3.537,1.742-5.438c0.15-0.545,0.303-1.092,0.456-1.646c0.261-0.928,0.471-1.875,0.704-2.826
			c0.467-1.91,0.771-3.77,1.154-5.691l0.139-0.727l0.005-0.082l-0.094-0.002l-0.187-0.002l-0.375-0.006
			c-0.5-0.008-1.002-0.018-1.506-0.025c-1.008-0.016-2.022-0.033-3.044-0.049c-1.022-0.016-2.052-0.033-3.088-0.051l-1.482-0.021
			l-0.806,0.006c-2.155,0.012-4.364,0.027-6.619,0.041c-9.021,0.057-18.779,0.117-28.764,0.18
			c-33.804,0.23-70.675,0.482-82.948,0.566C237.788,388.947,230.998,390.339,221,392.896z"/>
		<path d="M486.001,394.896c6.201-8.244,11.325-15.154,16.123-22.73c4.807-7.568,9.291-15.799,14.394-26.564
			c1.744-3.639,4.504-9.609,10.544-21.809c3.575-7.166,9.692-19.203,15.354-28.989c2.817-4.898,5.523-9.21,7.558-12.154
			c1.013-1.482,1.855-2.61,2.438-3.382c0.584-0.743,0.908-1.155,0.908-1.155l0.097-0.121l0.002,0.002l0.001,0.011l-0.033,0.012
			v0.031c0.106,0.543,0.215,1.09,0.323,1.642c0.101,0.602,0.201,1.207,0.303,1.815c0.38,2.471,0.672,5.092,0.896,7.708
			c0.445,5.241,0.657,10.449,0.779,14.795c0.231,8.973,0.154,16.312,0.074,22.113c-0.089,5.805-0.207,10.084-0.287,13.021
			c-0.333,11.885-0.113,21.242,0.686,30.164c0.787,8.926,2.154,17.412,3.84,27.59c3.282-9.787,5.751-18.078,7.588-26.922
			c1.825-8.846,3.021-18.252,3.479-30.328c0.111-2.984,0.256-7.338,0.363-13.268c0.1-5.934,0.192-13.434-0.04-22.787
			c-0.117-4.541-0.335-10.006-0.829-15.741c-0.252-2.87-0.579-5.81-1.042-8.77c-0.243-1.518-0.485-2.894-0.854-4.553
			c-0.161-0.639-0.321-1.274-0.48-1.907c-0.153-0.635-0.313-1.265-0.535-1.87c-0.204-0.612-0.407-1.22-0.608-1.824
			c-0.204-0.603-0.488-1.129-0.726-1.692c-0.451-1.161-1.104-2.056-1.669-3.029c-0.668-0.822-1.297-1.678-2.054-2.283
			c-1.452-1.292-3.122-2.181-4.95-2.595c-0.445-0.139-0.904-0.113-1.349-0.167l-0.167-0.013c-0.04-0.105-0.104-0.03-0.154-0.054
			l-0.322-0.003l-0.637-0.006c-0.831,0.067-1.63,0.182-2.387,0.376c-1.523,0.309-2.912,1.082-4.16,1.855
			c-2.47,1.687-4.335,3.588-5.521,4.948c-0.599,0.684-1.063,1.213-1.377,1.571c-0.239,0.291-0.364,0.442-0.364,0.442
			s-0.419,0.527-1.173,1.478c-0.724,0.948-1.752,2.318-2.916,4.005c-2.351,3.374-5.289,8.033-8.271,13.182
			c-5.988,10.287-12.235,22.547-15.836,29.872c-6.13,12.424-8.89,18.463-10.62,22.166c-5.053,10.947-8.292,19.844-10.725,28.533
			C489.241,376.208,487.617,384.701,486.001,394.896z"/>
		<path d="M559.999,252.896c-1.278,8.896-1.526,14.641,2.218,22.772c4.057,8.809,25.075,52.585,25.075,52.585
			s20.784,43.889,25.074,52.584c3.962,8.029,8.583,11.453,16.299,16.059c1.279-8.896,1.527-14.641-2.216-22.773
			c-4.055-8.809-25.075-52.584-25.075-52.584s-20.782-43.89-25.075-52.585C572.337,260.925,567.717,257.502,559.999,252.896z"/>
		<path d="M482,392.896l153-1c0,0-12,66-73,66C507.333,457.896,482,392.896,482,392.896z"/>
		<path d="M482,392.896c10.03,2.426,16.839,3.73,28.824,3.711c12.273-0.076,49.146-0.307,82.948-0.518
			c9.985-0.066,19.743-0.133,28.764-0.195c2.256-0.016,4.465-0.029,6.62-0.045l0.806-0.006c0.094,0,0.085,0,0.08,0h-0.001h-0.001
			h-0.006l-0.008-0.004l0.003-0.01v0.004c-0.106,0.381-0.212,0.76-0.316,1.135c-0.521,1.756-1.045,3.445-1.613,5.041
			c-2.235,6.406-4.666,11.445-6.506,14.844c-0.955,1.678-1.671,3.012-2.23,3.871c-0.537,0.873-0.822,1.336-0.822,1.336
			s-1.122,1.867-3.395,4.965c-2.271,3.088-5.765,7.391-10.779,11.752c-0.311,0.275-0.625,0.553-0.943,0.834
			c-0.333,0.26-0.67,0.523-1.011,0.789c-0.681,0.533-1.375,1.076-2.082,1.629c-0.739,0.506-1.493,1.021-2.26,1.545
			c-0.386,0.258-0.764,0.537-1.163,0.785c-0.406,0.24-0.815,0.48-1.228,0.723c-3.25,2.031-6.968,3.713-10.945,5.158
			c-1.006,0.334-2.021,0.672-3.047,1.012c-1.049,0.27-2.107,0.539-3.174,0.812c-0.535,0.131-1.067,0.285-1.611,0.396
			c-0.548,0.098-1.099,0.193-1.651,0.291c-1.107,0.182-2.211,0.424-3.342,0.562c-2.273,0.211-4.559,0.553-6.907,0.555
			c-1.168,0.021-2.351,0.119-3.52,0.082c-1.167-0.043-2.339-0.086-3.514-0.131c-4.687-0.336-9.384-1.139-13.941-2.471
			c-4.537-1.398-8.921-3.281-13.042-5.547c-1.016-0.596-2.062-1.127-3.043-1.766c-0.985-0.635-1.965-1.266-2.94-1.893
			c-0.943-0.68-1.882-1.355-2.814-2.027c-0.941-0.66-1.806-1.42-2.704-2.117c-0.901-0.691-1.751-1.441-2.592-2.188
			c-0.846-0.74-1.692-1.465-2.479-2.246c-0.794-0.771-1.608-1.508-2.366-2.289c-0.719-0.742-1.431-1.479-2.135-2.207
			c-5.22-5.588-8.93-10.717-10.749-13.285c-3.351-4.762-6.007-8.492-8.693-11.99C487.809,400.277,485.061,397.039,482,392.896
			c0.765,5.113,1.864,9.367,3.459,13.662c1.622,4.287,3.813,8.619,7.311,13.697c1.901,2.738,5.814,8.186,11.412,14.188
			c0.757,0.783,1.521,1.574,2.294,2.375c0.816,0.84,1.695,1.639,2.553,2.471c0.851,0.842,1.769,1.631,2.686,2.434
			c0.913,0.809,1.836,1.621,2.819,2.381c0.98,0.762,1.922,1.584,2.954,2.311c1.023,0.736,2.053,1.479,3.088,2.223
			c1.075,0.693,2.156,1.389,3.241,2.088c1.084,0.703,2.244,1.301,3.371,1.957c4.574,2.516,9.482,4.627,14.588,6.193
			c5.128,1.502,10.429,2.41,15.699,2.779c1.319,0.049,2.635,0.098,3.945,0.146c1.31,0.035,2.597-0.064,3.888-0.092
			c2.579-0.012,5.129-0.375,7.648-0.621c1.257-0.156,2.497-0.422,3.732-0.627c0.617-0.111,1.231-0.221,1.844-0.33
			c0.61-0.127,1.209-0.297,1.811-0.443c1.198-0.309,2.393-0.596,3.565-0.918c1.156-0.385,2.303-0.766,3.438-1.143
			c4.49-1.629,8.695-3.547,12.369-5.838c0.465-0.275,0.927-0.549,1.385-0.82c0.451-0.281,0.878-0.592,1.312-0.885
			c0.863-0.592,1.712-1.174,2.545-1.746c0.795-0.621,1.575-1.23,2.34-1.828c0.382-0.301,0.76-0.598,1.134-0.891
			c0.355-0.314,0.708-0.625,1.057-0.932c5.611-4.889,9.455-9.646,11.946-13.033c2.489-3.402,3.707-5.434,3.706-5.434
			c0,0,0.311-0.504,0.897-1.453c0.607-0.939,1.388-2.379,2.424-4.201c1.996-3.682,4.616-9.104,7.024-15.986
			c0.611-1.719,1.178-3.537,1.742-5.438c0.15-0.545,0.303-1.092,0.456-1.646c0.261-0.928,0.471-1.875,0.704-2.826
			c0.467-1.91,0.771-3.77,1.154-5.691l0.139-0.727l0.005-0.082l-0.094-0.002l-0.187-0.002l-0.375-0.006
			c-0.5-0.008-1.002-0.018-1.506-0.025c-1.008-0.016-2.022-0.033-3.044-0.049c-1.022-0.016-2.052-0.033-3.088-0.051l-1.482-0.021
			l-0.806,0.006c-2.155,0.012-4.364,0.027-6.619,0.041c-9.021,0.057-18.779,0.117-28.764,0.18
			c-33.804,0.23-70.675,0.482-82.948,0.566C498.788,388.947,491.998,390.339,482,392.896z"/>
		<path d="M299.333,231.229c0,0-32.111-13.425-30.667,14c1.334,25.333,31.333,24,52,14c0,0,65.334-30,128.667-26.667
			s90.667,22.666,118,30s41.334-13.333,38.667-25.333s-18.001-20-29.334-13.333c0,0,22,18,0.667,16s-64.903-37.002-124.903-31.668
			c0,0-5.096,4.335-22.43,7.668s-18-3.333-18-3.333s-27.334,2-63.334,14.667S290,254.562,285.333,244.562
			C280.666,234.562,299.333,231.229,299.333,231.229z"/>
		<ellipse fill="#FFD854" cx="442.417" cy="219.896" rx="8.583" ry="6.059"/>
		<path d="M407.666,210.228c-2.091-4.708-3.494-8.697-5.117-12.775c-1.587-4.09-3.361-8.273-5.518-13.62
			c-0.184-0.452-0.396-0.976-0.651-1.602c-0.227-0.635-0.491-1.375-0.804-2.25c-0.66-1.742-1.375-4.072-2.261-7.232
			c-0.231-0.972-0.503-2.11-0.8-3.357c-0.331-1.242-0.487-2.624-0.763-4.042c-0.294-1.418-0.433-2.905-0.586-4.385
			c-0.08-0.74-0.16-1.479-0.239-2.21c-0.062-0.784-0.123-1.558-0.183-2.316c-0.497-6.09-1.128-11.055-1.128-11.055
			s-0.484-4.171-1.174-9.429c-0.68-5.254-1.515-11.606-1.66-15.892c-0.075-2.12-0.027-4.004,0.233-5.378
			c0.246-1.391,0.687-2.178,0.859-2.252c0.07-0.106,0.166-0.102,0.303-0.181l0.295-0.068c0.11-0.023,0.273-0.01,0.397-0.029
			c0.535-0.004,0.976,0.052,1.341,0.189c1.483,0.458,3.095,1.901,4.433,3.509c1.353,1.625,2.551,3.384,3.685,5.169
			c2.259,3.594,4.417,7.249,6.671,11.875c0.176-5.165-0.172-9.586-1.427-14.167c-0.645-2.29-1.539-4.627-3.033-7.064
			c-0.745-1.216-1.688-2.454-2.927-3.654c-1.24-1.185-2.849-2.365-4.962-3.077c-1.026-0.364-2.407-0.634-4.052-0.596
			c-0.419,0.029-0.83,0.034-1.301,0.109c-0.484,0.099-0.973,0.176-1.5,0.346c-1.051,0.358-2.248,0.926-3.222,1.867
			c-0.532,0.444-0.906,0.967-1.326,1.51c-0.337,0.532-0.7,1.119-0.932,1.68c-0.116,0.284-0.234,0.572-0.354,0.865
			c-0.108,0.29-0.178,0.564-0.268,0.855c-0.189,0.589-0.284,1.141-0.403,1.725c-0.418,2.303-0.435,4.592-0.36,7.046
			c0.165,4.922,1.049,11.374,1.74,16.629c0.671,5.23,1.196,9.326,1.196,9.326s0.596,4.878,1.059,10.763
			c0.057,0.738,0.114,1.493,0.172,2.256c0.085,0.812,0.17,1.633,0.256,2.455c0.166,1.646,0.326,3.297,0.643,4.858
			c0.299,1.562,0.484,3.094,0.844,4.452c0.33,1.366,0.632,2.612,0.889,3.675c0.967,3.449,1.758,5.98,2.475,7.863
			c0.345,0.947,0.635,1.746,0.885,2.433c0.279,0.673,0.513,1.236,0.715,1.723c2.385,5.746,4.954,9.92,7.79,13.548
			C400.457,203.925,403.599,207.04,407.666,210.228z"/>
		<path d="M420.333,123.562c0,0-3.333-56,16-56S457,114.229,457,114.229S433.666,113.562,420.333,123.562z"/>
		<path d="M479.763,119.56c-3.66-3.694-7.672-5.987-12.076-7.663c-4.438-1.632-9.471-2.565-15.825-2.35
			c-2.135,0.139-5.683,0.185-12.744,1.688c-2.32,0.464-4.815,1.125-7.611,1.873c-2.786,0.754-5.811,1.631-8.941,2.641
			c-3.132,1.011-6.369,2.159-9.574,3.518c-3.206,1.356-6.386,2.907-9.372,4.954c-1.486,1.054-2.937,2.231-4.234,3.768
			c-1.276,1.509-2.456,3.562-2.7,5.972c-0.089,0.591-0.062,1.18-0.013,1.762c0.021,0.594,0.162,1.123,0.297,1.654
			c0.12,0.549,0.319,1.006,0.519,1.46c0.103,0.227,0.203,0.452,0.304,0.675c0.11,0.204,0.229,0.39,0.345,0.582
			c0.92,1.579,1.964,2.584,2.896,3.509c1.896,1.721,3.495,2.716,4.649,3.392c1.14,0.681,1.772,1.058,1.772,1.058
			s0.123,0.091,0.395,0.217c0.272,0.124,0.675,0.307,1.193,0.543c0.521,0.233,1.158,0.518,1.901,0.85
			c0.756,0.301,1.669,0.544,2.657,0.858c0.979,0.353,2.117,0.502,3.325,0.725c1.207,0.272,2.516,0.257,3.891,0.36
			c2.73,0.029,5.741-0.225,8.688-0.908c5.968-1.249,11.812-3.699,17.23-5.059c2.714-0.653,5.198-0.99,7.655-0.913
			c2.468,0.066,4.883,0.465,7.096,0.96c4.193,0.953,7.596,2.161,10.657,2.974c0.752,0.209,1.531,0.385,2.285,0.535
			c0.402,0.065,0.791,0.127,1.164,0.188c0.222,0.017,0.439,0.033,0.652,0.049c0.227,0.015,0.527,0.027,0.778,0.031
			c1.077-0.031,2.068-0.28,2.9-0.657c0.784-0.354,1.273-0.672,1.734-0.986c1.757-1.259,2.904-2.613,3.854-3.986
			c0.938-1.375,1.635-2.776,2.147-4.182c1.026-2.807,1.303-5.65,0.912-8.297c-0.378-2.652-1.472-5.06-2.995-7.047
			C484.009,122.332,482.032,120.773,479.763,119.56c1.444,2.144,2.367,4.253,2.864,6.243c0.457,2.01,0.513,3.88,0.22,5.684
			c-0.288,1.8-0.886,3.555-1.83,5.3c-0.47,0.87-1.028,1.735-1.679,2.551c-0.635,0.812-1.423,1.586-2.113,2.062
			c-0.15,0.105-0.367,0.219-0.413,0.244l-0.005-0.007l-0.056-0.011l-0.215-0.01c-0.21-0.036-0.429-0.074-0.656-0.113
			c-0.495-0.104-1.056-0.225-1.716-0.412c-2.61-0.688-6.216-1.979-10.962-3.067c-2.528-0.567-5.417-1.063-8.595-1.153
			c-3.188-0.112-6.63,0.37-9.766,1.144c-6.265,1.612-11.949,3.997-16.977,5.02c-2.515,0.59-4.822,0.755-6.879,0.749
			c-1.012-0.092-1.996-0.045-2.863-0.263c-0.877-0.169-1.709-0.247-2.422-0.523c-0.721-0.238-1.388-0.393-1.949-0.618
			c-0.556-0.251-1.032-0.466-1.422-0.642c-0.391-0.172-0.693-0.306-0.899-0.396c-0.205-0.091-0.301-0.174-0.303-0.168
			c0,0-0.49-0.297-1.374-0.833c-0.888-0.504-2.188-1.349-3.407-2.463c-0.552-0.555-1.177-1.182-1.479-1.76
			c-0.346-0.595-0.439-1.001-0.397-1.355c0.03-0.357,0.271-0.978,0.924-1.748c0.639-0.761,1.598-1.58,2.7-2.355
			c2.254-1.546,5.044-2.939,7.954-4.159c2.909-1.232,5.954-2.313,8.932-3.272c2.978-0.96,5.889-1.805,8.584-2.537
			c2.689-0.722,5.205-1.389,7.225-1.791c6.375-1.367,9.506-1.412,11.404-1.558c5.626-0.243,10.012-0.099,14.26,0.145
			C470.691,117.796,474.854,118.038,479.763,119.56z"/>
		<path d="M420.43,148.227c-5.168,0.117-9.555,0.704-14.073,2.213c-2.251,0.805-4.555,1.803-6.916,3.57
			c-1.172,0.896-2.377,1.975-3.456,3.511c-1.062,1.506-2.001,3.66-1.983,6.118c-0.021,0.824,0.113,1.767,0.39,2.811
			c0.083,0.253,0.169,0.516,0.258,0.791c0.093,0.281,0.193,0.561,0.302,0.78c0.219,0.479,0.434,0.995,0.759,1.549
			c0.6,1.103,1.46,2.397,2.814,3.657c1.332,1.273,3.212,2.392,5.354,3.083c2.698,0.895,6.138,1.113,9.491,0.905
			c3.377-0.193,6.772-0.713,9.85-1.185c3.034-0.477,5.803-0.911,7.813-1.227c1.987-0.284,3.225-0.461,3.225-0.461
			s4.125-0.559,9.455-0.995c5.324-0.461,11.867-0.744,16.591-0.954c4.584-0.201,8.353-0.392,11.401-0.685
			c3.051-0.292,5.386-0.69,7.035-1.094c1.673-0.425,3.319-0.979,4.922-1.89c1.584-0.88,3.185-2.309,4.113-4.12
			c0.946-1.805,1.135-3.672,1.045-5.229c-0.091-0.755-0.164-1.52-0.363-2.169l-0.268-0.994l-0.344-0.912
			c-0.22-0.612-0.483-1.174-0.766-1.714l-0.415-0.813c-0.163-0.276-0.349-0.554-0.524-0.825c-0.367-0.538-0.692-1.087-1.104-1.575
			c-0.438-0.474-0.879-0.936-1.321-1.383c-1.889-1.69-4.163-2.936-6.713-3.428c2.006,1.619,3.249,3.562,4.064,5.403
			c0.17,0.47,0.339,0.936,0.507,1.397c0.144,0.462,0.202,0.952,0.312,1.401l0.149,0.678l0.097,0.755
			c0.077,0.501,0.138,0.994,0.155,1.471l0.055,0.715l-0.014,0.676c0.026,0.464-0.071,0.849-0.101,1.252
			c-0.155,0.75-0.393,1.297-0.697,1.649c-0.3,0.353-0.72,0.691-1.525,1.064c-0.786,0.366-1.849,0.708-3.083,1.006
			c-1.23,0.287-3.161,0.619-5.953,0.879c-2.794,0.26-6.438,0.443-11.009,0.639c-4.71,0.197-11.396,0.498-16.906,0.991
			c-5.511,0.467-9.825,1.071-9.825,1.071s-1.281,0.178-3.338,0.463c-2.025,0.311-4.812,0.739-7.867,1.208
			c-3.01,0.456-6.248,0.932-9.096,1.088c-2.859,0.181-5.252-0.06-6.644-0.525c-1.12-0.375-1.867-0.827-2.428-1.359
			c-0.567-0.521-0.979-1.113-1.3-1.708c-0.74-1.374-0.726-1.756-0.753-2.176c-0.015-0.551,0.141-1.152,0.565-1.886
			c0.418-0.723,1.057-1.48,1.762-2.196c1.426-1.446,3.129-2.729,4.818-3.973C412.4,153.098,415.938,150.737,420.43,148.227z"/>
		<path d="M410.43,174.893c-2.474,0.748-4.719,1.855-6.592,3.711c-0.912,0.943-1.747,2.125-2.174,3.617
			c-0.435,1.481-0.377,3.209,0.116,4.714c0.484,1.518,1.306,2.81,2.229,3.934c0.93,1.146,1.993,2.052,3.123,2.946
			c0.286,0.206,0.575,0.414,0.867,0.623l0.446,0.312l0.546,0.308c0.736,0.39,1.503,0.867,2.302,1.112
			c0.798,0.289,1.63,0.606,2.46,0.753c0.42,0.089,0.844,0.18,1.274,0.272c0.431,0.085,0.849,0.109,1.284,0.164
			c2.328,0.257,6.15,0.447,13.189-0.692c2.395-0.359,6.322-1.139,9.574-1.805c3.261-0.669,5.87-1.126,5.87-1.126
			s2.138-0.337,5.094-0.716c2.913-0.384,6.457-0.852,8.985-1.185c9.056-1.153,14.669-1.762,17.695-2.194
			c1.519-0.206,3.018-0.466,4.579-0.859c0.454-0.138,0.906-0.287,1.345-0.439c0.188-0.052,0.516-0.211,0.796-0.351
			c0.286-0.144,0.565-0.295,0.836-0.453c0.516-0.348,1.011-0.74,1.411-1.191c0.382-0.478,0.739-0.962,0.98-1.511
			c0.122-0.254,0.275-0.568,0.344-0.777l0.194-0.611c0.145-0.452,0.196-0.707,0.267-0.998c0.137-0.543,0.272-1.264,0.393-1.876
			c0.282-1.242,0.366-2.556,0.44-3.81c0.023-2.552-0.382-5.262-1.871-7.592c-0.771-1.142-1.792-2.11-2.978-2.738
			c-1.185-0.619-2.497-0.94-3.791-0.874c1.166,0.544,2.055,1.37,2.667,2.228c0.609,0.873,0.919,1.798,1.067,2.691
			c0.229,1.828-0.186,3.61-0.755,5.437c-0.359,0.928-0.647,1.843-1.107,2.804c-0.211,0.495-0.424,0.994-0.64,1.501
			c-0.119,0.275-0.252,0.595-0.327,0.71l-0.124,0.249l-0.057,0.053l-0.156,0.001l-0.029-0.013c-0.017-0.002,0.02-0.018-0.117,0.008
			c-0.194,0.035-0.382,0.078-0.577,0.129c-1.082,0.184-2.384,0.373-3.838,0.552c-2.937,0.355-8.558,1.035-17.641,2.133
			c-2.551,0.325-6.125,0.793-9.056,1.211c-2.894,0.386-5.316,0.787-5.315,0.786c0,0-2.83,0.473-6.119,1.131
			c-3.298,0.658-7.07,1.394-9.28,1.749c-6.529,1.054-9.411,0.834-11.098,0.683c-0.309-0.037-0.632-0.042-0.917-0.096
			c-0.284-0.053-0.565-0.105-0.843-0.156c-0.58-0.066-1.047-0.245-1.536-0.372c-0.52-0.097-0.883-0.337-1.318-0.484l-0.318-0.119
			l-0.36-0.195c-0.242-0.128-0.482-0.255-0.72-0.381c-1.843-1.029-3.31-2.098-4.121-3.147c-0.406-0.529-0.679-1.052-0.792-1.746
			c-0.109-0.689,0.019-1.547,0.338-2.456C407.246,178.631,408.602,176.684,410.43,174.893z"/>
		<path d="M479,185.562c-0.022,2.967-0.111,4.58,1.14,5.729c0.665,0.598,2.727,2.534,3.704,4.31c0.109,0.213,0.218,0.424,0.324,0.63
			c0.071,0.197,0.137,0.383,0.212,0.562c0.082,0.181,0.072,0.326,0.123,0.475l0.06,0.215c0.013,0.117,0.024,0.23,0.036,0.338
			c0.099,0.864,0.161,1.421,0.161,1.421c0.001,0,0.027,0.143,0.029,0.384c0.002,0.241,0.004,0.587,0.007,1.007
			c0.003,0.21,0.006,0.439,0.01,0.682c-0.022,0.234-0.046,0.482-0.07,0.741c-0.021,0.259-0.042,0.528-0.064,0.804
			c-0.052,0.262-0.104,0.53-0.158,0.801c-0.357,2.225-1.614,4.014-2.064,4.545c-0.396,0.522-0.524,1.089-0.54,1.947
			c-0.042,0.84,0.076,1.942-0.146,3.406c1.253,0.812,2.508,1.158,3.616,1.146c1.102-0.034,2.134-0.454,2.981-1.41
			c0.226-0.261,0.586-0.642,0.939-1.173c0.182-0.263,0.38-0.552,0.594-0.861c0.181-0.325,0.374-0.671,0.577-1.033
			c0.211-0.361,0.386-0.751,0.552-1.159c0.165-0.406,0.36-0.822,0.5-1.251c0.256-0.861,0.562-1.753,0.688-2.625
			c0.079-0.436,0.156-0.867,0.232-1.288c0.035-0.416,0.068-0.821,0.102-1.21c0.029-0.39,0.057-0.763,0.083-1.115
			c-0.005-0.345-0.009-0.668-0.014-0.965c-0.013-0.594-0.023-1.082-0.03-1.422c-0.012-0.338-0.044-0.52-0.044-0.52
			s-0.075-0.744-0.192-1.897c-0.016-0.144-0.031-0.294-0.049-0.451c-0.04-0.199-0.083-0.406-0.126-0.619
			c-0.102-0.418-0.18-0.902-0.339-1.327c-0.153-0.43-0.316-0.881-0.498-1.33c-0.207-0.414-0.42-0.838-0.635-1.267
			c-1.852-3.289-4.543-5.62-5.438-6.374C483.584,184.045,481.717,184.365,479,185.562z"/>
		<path d="M147.097,213.56c-1.297,1.13-2.255,2.219-2.947,3.445c-0.686,1.231-1.109,2.62-1.163,4.446
			c-0.026,0.987-0.044,2.98,0.359,5.474c0.412,2.469,1.354,5.558,3.387,8.107c2.006,2.589,4.989,4.071,7.062,4.603
			c0.526,0.127,1.004,0.246,1.431,0.335c0.44,0.06,0.821,0.112,1.135,0.155c0.312,0.046,0.559,0.066,0.731,0.065
			c0.17,0.005,0.261,0.008,0.261,0.008s0.361,0.008,1.002,0.024c0.644-0.046,1.577-0.083,2.68-0.341
			c2.227-0.437,4.993-1.841,7.154-3.803c2.213-1.938,3.925-4.304,5.179-6.347c1.258-2.05,2.077-3.801,2.465-4.681
			c1.41-3.254,1.075-5.588-0.069-8.822c-2.684,2.121-4.277,3.378-5.6,6.212c-0.36,0.762-1.094,2.291-2.149,3.999
			c-1.045,1.707-2.442,3.591-3.985,4.936c-1.531,1.381-3.152,2.161-4.368,2.405c-0.607,0.15-1.123,0.16-1.479,0.201
			c-0.362-0.011-0.566-0.017-0.566-0.017c-0.001-0.014-0.201,0.028-0.571-0.045c-0.185-0.025-0.409-0.055-0.668-0.09
			c-0.263-0.063-0.56-0.135-0.886-0.213c-1.285-0.355-2.767-1.113-3.845-2.493c-1.1-1.367-1.796-3.385-2.103-5.244
			c-0.308-1.865-0.318-3.51-0.316-4.326c-0.001-1.51-0.163-2.729-0.537-3.955C148.325,216.367,147.742,215.141,147.097,213.56z"/>
		<path d="M220.43,43.561c4.015,3.218,7.205,6.596,10.224,9.84c2.986,3.282,5.771,6.452,8.514,9.781
			c0.705,0.807,1.389,1.647,2.074,2.497c0.696,0.835,1.397,1.679,2.108,2.533c0.697,0.865,1.403,1.742,2.121,2.632
			c0.736,0.869,1.458,1.777,2.182,2.713c0.74,0.919,1.495,1.854,2.266,2.811c0.751,0.974,1.518,1.968,2.303,2.987
			c1.628,1.985,3.159,4.214,4.918,6.451c0.574,0.776,1.205,1.701,1.981,2.79c0.751,1.108,1.72,2.328,2.694,3.902
			c0.988,1.563,2.197,3.323,3.489,5.459c0.633,1.077,1.312,2.23,2.04,3.468c0.365,0.619,0.742,1.258,1.132,1.919
			c0.363,0.679,0.738,1.38,1.126,2.104c0.778,1.536,1.924,3.541,3.018,5.791c1.067,2.264,2.272,4.667,3.298,6.922
			c0.98,2.277,1.875,4.356,2.525,5.866c0.672,1.5,1.011,2.471,1.011,2.471s1.191,3.222,2.713,7.336
			c1.33,4.191,3.072,9.246,4.025,12.957c0.587,2.138,1.198,4.158,1.688,6.108c0.462,1.959,0.9,3.818,1.316,5.58
			c0.396,1.767,0.856,3.414,1.138,5.008c0.307,1.587,0.596,3.079,0.866,4.479c1.167,5.579,1.679,9.762,2.15,12.606
			c0.231,1.441,0.458,2.843,0.678,4.21c0.19,1.374,0.376,2.712,0.557,4.021c0.385,2.614,0.795,5.1,1.235,7.492
			c0.697,4.81,1.549,9.243,2.469,13.578c0.801,4.346,1.771,8.584,2.858,12.994c0.948,4.415,2.044,8.996,3.281,14.026
			c1.254-4.983,2.364-9.612,3.326-14.129c0.822-4.518,1.464-8.926,1.967-13.475c0.384-4.546,0.524-9.234,0.502-14.316
			c-0.104-2.536-0.26-5.171-0.471-7.936c-0.116-1.381-0.235-2.796-0.357-4.247c-0.167-1.448-0.388-2.929-0.604-4.451
			c-0.465-3.006-0.985-7.405-2.199-13.323c-0.284-1.482-0.586-3.062-0.907-4.743c-0.296-1.685-0.778-3.444-1.196-5.32
			c-0.44-1.873-0.904-3.849-1.394-5.931c-0.521-2.077-1.167-4.238-1.792-6.519c-0.997-3.956-2.882-9.379-4.347-13.854
			c-1.675-4.412-2.986-7.866-2.986-7.866s-0.354-1.045-1.062-2.674c-0.689-1.636-1.639-3.889-2.678-6.357
			c-1.093-2.447-2.384-5.067-3.543-7.521c-1.186-2.442-2.436-4.632-3.309-6.289c-0.425-0.788-0.835-1.55-1.231-2.289
			c-0.427-0.723-0.84-1.421-1.238-2.098c-0.799-1.351-1.544-2.609-2.239-3.785c-1.419-2.333-2.749-4.268-3.843-5.975
			c-1.077-1.717-2.146-3.067-2.981-4.277c-0.862-1.194-1.567-2.203-2.208-3.053c-1.964-2.458-3.752-4.834-5.704-6.91
			c-0.954-1.054-1.891-2.077-2.821-3.063c-0.976-0.947-1.93-1.874-2.866-2.784c-1.852-1.829-3.839-3.394-5.704-4.954
			c-0.965-0.752-1.942-1.463-2.903-2.167c-0.958-0.707-1.923-1.384-2.92-2.011c-3.898-2.598-7.977-4.724-12.281-6.595
			C230.116,46.155,225.52,44.527,220.43,43.561z"/>
		<path d="M143.762,58.56c-3.182,3.519-5.055,5.859-6.167,10.511c-0.597,2.518-2.419,10.083-4.412,16.919
			c-0.985,3.42-2.011,6.654-2.784,9.034c-0.802,2.368-1.318,3.896-1.318,3.896s-0.53,1.523-1.409,3.856
			c-0.866,2.339-2.121,5.468-3.516,8.7c-1.415,3.22-3.018,6.509-4.464,9.232c-1.471,2.705-2.769,4.849-3.434,5.9
			c-1.22,1.951-1.974,3.587-2.493,5.35c-0.278,0.862-0.484,1.772-0.677,2.757c-0.224,0.954-0.426,1.997-0.658,3.178
			c1.127-0.314,2.176-0.646,3.165-1.026c0.954-0.405,1.836-0.863,2.689-1.396c1.661-1.092,3.138-2.526,4.537-4.646
			c0.765-1.144,2.2-3.482,3.789-6.395c1.561-2.922,3.259-6.422,4.739-9.814c1.459-3.398,2.756-6.671,3.646-9.104
			c0.904-2.43,1.445-4.009,1.445-4.009s0.541-1.578,1.381-4.023c0.809-2.454,1.877-5.785,2.898-9.298
			c2.064-7.021,3.93-14.769,4.478-17.366C146.219,66.027,145.479,62.994,143.762,58.56z"/>
		<path d="M250.43,120.893c0.024,5.156-0.009,9.441,0.27,13.901c0.266,4.46,0.824,9.089,1.812,14.942
			c0.318,1.985,0.905,5.207,1.862,11.933c0.319,2.363,0.852,6.342,1.235,9.735c0.39,3.393,0.647,6.197,0.647,6.197
			s0.225,2.348,0.42,5.348c0.217,3,0.402,6.65,0.48,9.249c0.309,9.001-0.045,14.524-0.206,17.397
			c-0.35,5.75-0.623,10.256-0.892,14.673c-0.275,4.335-0.373,8.519-1.251,13.604c3.168-4.088,5.241-8.083,6.853-12.43
			c1.603-4.368,2.627-9.178,3.073-15.319c0.202-3.033,0.585-8.859,0.272-18.183c-0.068-2.697-0.273-6.466-0.514-9.553
			c-0.218-3.09-0.468-5.497-0.468-5.497s-0.242-2.883-0.624-6.361c-0.375-3.479-0.909-7.549-1.26-9.959
			c-0.987-6.869-1.599-10.147-1.944-12.168c-1.065-5.956-2.335-10.542-3.897-14.791C254.726,129.368,252.871,125.443,250.43,120.893
			z"/>
		<path d="M93.43,71.56c-1.328,4.978-2.624,9.036-3.714,13.334c-1.103,4.292-2.057,8.806-3.127,14.58
			c-0.375,1.953-0.931,5.148-2.53,11.671c-0.232,0.888-0.624,2.384-0.958,3.659c-0.353,1.268-0.645,2.315-0.645,2.315
			s-0.247,0.876-0.603,1.981c-0.353,1.105-0.781,2.451-1.087,3.411c-2.837,8.473-5.194,13.456-6.412,16.048
			c-2.507,5.231-4.463,9.32-6.307,13.283c-1.872,3.945-3.55,7.812-5.951,12.386c4.257-2.908,7.619-5.793,10.722-9.223
			c3.08-3.451,5.839-7.513,8.566-13.064c1.325-2.749,3.849-8.051,6.84-16.967c0.336-1.004,0.766-2.424,1.125-3.589
			c0.357-1.166,0.598-2.088,0.598-2.088s0.323-1.092,0.715-2.415c0.35-1.333,0.762-2.898,1.006-3.828
			c1.662-6.818,2.226-10.144,2.596-12.182c1.055-6.022,1.334-10.828,1.146-15.387C95.207,80.928,94.594,76.596,93.43,71.56z"/>
		<path d="M42.762,84.227c-1.973,3.962-3.07,6.482-2.779,10.784c0.162,2.325,0.617,9.328,0.603,15.743
			c0.043,6.418-0.372,12.211-0.372,12.211s-0.348,5.81-1.375,12.058c-0.93,6.28-2.841,12.833-3.586,14.945
			c-0.304,0.997-0.547,1.888-0.701,2.749c-0.145,0.867-0.201,1.701-0.229,2.533c-0.004,1.697,0.188,3.418,0.441,5.644
			c3.907-2.061,6.285-4.067,7.87-8.4c0.899-2.341,2.986-9.542,3.956-16.229c1.078-6.677,1.407-12.764,1.407-12.764
			s0.467-6.083,0.438-12.757c0.031-6.676-0.44-13.929-0.675-16.338C47.338,89.962,45.729,87.528,42.762,84.227z"/>
	</g>
</g>
</svg>
