<?xml version="1.0" encoding="utf-8"?>
<!-- Generator: Adobe Illustrator 16.0.0, SVG Export Plug-In . SVG Version: 6.00 Build 0)  -->
<!DOCTYPE svg PUBLIC "-//W3C//DTD SVG 1.1//EN" "http://www.w3.org/Graphics/SVG/1.1/DTD/svg11.dtd">
<svg version="1.1" xmlns="http://www.w3.org/2000/svg" xmlns:xlink="http://www.w3.org/1999/xlink" x="0px" y="0px" width="640px"
	 height="640px" viewBox="0 0 640 640" enable-background="new 0 0 640 640" xml:space="preserve">
<g id="couleurs">
</g>
<g id="traits">
	<g>
		<path fill="#B3DFEF" d="M580.428,269.152c-23.529-0.001-45.963,6.429-49.998,29.741c-8.985,51.914,109.18,88.878,109.569,89v-109
			C639.797,278.829,609.289,269.153,580.428,269.152 M137.431,0.001H0v640h639.999v-76.108
			c-0.305-0.174-70.623-40.344-127.307-40.348c-15.297-0.001-29.594,2.923-41.263,10.349c-56.721,36.095-25,106.107-25,106.107h-127
			c0,0,9.421-103.662-68-115.107c-6.949-1.027-13.482-1.51-19.61-1.511C136.538,523.375,137.43,640,137.43,640H0V451.893
			c0,0,116.43-65,94.43-145s-94.43-80-94.43-80v-72c0,0,25.562,9.072,57.906,9.072c21.352,0,45.653-3.95,67.523-17.072
			C180.336,113.949,137.576,0.389,137.431,0.001 M287.43,0.001h-110c0.11,0.34,27.701,85.253,70.589,85.253
			c4.009,0,8.145-0.74,12.411-2.361C310.313,63.937,287.536,0.296,287.43,0.001 M504.429,0.001H344.43
			c-0.093,0.286-19.875,61.936,34,80.892c4.687,1.649,9.518,2.403,14.417,2.403C444.29,83.296,504.188,0.334,504.429,0.001
			 M639.999,0.001h-37.571c-0.646,0.36-171.566,95.459-116.998,177.892c12.046,18.196,28.076,24.965,45.248,24.965
			c49.712,0,109.039-56.694,109.321-56.964V0.001"/>
		<path opacity="0.3" fill="#FFFFFF" d="M580.428,269.152c-23.529-0.001-45.963,6.429-49.998,29.741
			c-8.985,51.914,109.18,88.878,109.569,89v-109C639.797,278.829,609.289,269.153,580.428,269.152 M137.431,0.001H0v640h639.999
			v-76.108c-0.305-0.174-70.623-40.344-127.307-40.348c-15.297-0.001-29.594,2.923-41.263,10.349
			c-56.721,36.095-25,106.107-25,106.107h-127c0,0,9.421-103.662-68-115.107c-6.949-1.027-13.482-1.51-19.61-1.511
			C136.538,523.375,137.43,640,137.43,640H0V451.893c0,0,116.43-65,94.43-145s-94.43-80-94.43-80v-72c0,0,25.562,9.072,57.906,9.072
			c21.352,0,45.653-3.95,67.523-17.072C180.336,113.949,137.576,0.389,137.431,0.001 M287.43,0.001h-110
			c0.11,0.34,27.701,85.253,70.589,85.253c4.009,0,8.145-0.74,12.411-2.361C310.313,63.937,287.536,0.296,287.43,0.001
			 M504.429,0.001H344.43c-0.093,0.286-19.875,61.936,34,80.892c4.687,1.649,9.518,2.403,14.417,2.403
			C444.29,83.296,504.188,0.334,504.429,0.001 M639.999,0.001h-37.571c-0.646,0.36-171.566,95.459-116.998,177.892
			c12.046,18.196,28.076,24.965,45.248,24.965c49.712,0,109.039-56.694,109.321-56.964V0.001"/>
		<path fill="#B3DFEF" d="M242.304,192.612c-14.29,0-19.271,27.399-19.271,27.399s-3.303,7.707-6.604,24.221
			c-3.305,16.514,0,46.24,0,46.24s-5.27-2.634-13.452-4.766c-2.644,0.177-5.425,0.663-7.682,1.744
			c-2.366,4.472-2.029,14.11,1.78,23.979c3.64,6.453,8.343,13.258,13.048,19.092c0.264,0.231,0.529,0.459,0.801,0.685
			c14.438,12.032,37.646,24.649,54.288,24.649c6.198,0,11.486-1.75,15.071-5.933c5.78-6.744,9.453-8.641,11.756-8.641
			c2.961,0,3.658,3.135,3.658,3.135s-7.954,49.309-36.703,67.489l8.078-1.431l0,0l0,0c0,0,42.386,45.416,59.524,45.416
			c0.762,0,1.473-0.09,2.129-0.277c15.414-4.404,47.342-70.463,47.342-70.463l0,0l0,0c0,0,1.3-0.05,3.495-0.299
			c-23.266-13.04-32.12-72.36-32.12-72.36s9.296,12.72,22.346,12.72c6.523,0,13.987-3.181,21.693-12.72
			c1.47-1.203,2.859-2.714,4.161-4.469c0.856-1.353,1.716-2.666,2.565-3.954c7.494-13.086,11.31-34.189,9.926-46.623
			c-1.452-4.291-3.483-7.04-5.657-7.04c-0.72,0-1.454,0.3-2.188,0.945c-5.505,4.831-15.414,13.526-15.414,13.526l1.076-7.547
			l-1.076-48.33c0,0-3.303-11.01-7.706-15.413c-0.618-0.619-1.822-0.889-3.506-0.889c-10.31,0-38.583,10.161-60.351,13
			c-6.205,0.81-12.01,1.222-17.535,1.222c-17.022,0-31.359-3.92-46.32-12.231C246.848,193.241,244.469,192.612,242.304,192.612
			 M278.08,130.834c0,0,5.505-24.221,2.202-29.726c-0.337-0.562-0.388-0.814-0.207-0.814c1.595,0,21.124,19.53,21.124,19.53
			s13.214-11.01,19.818-15.414c0.551-0.367,1.039-0.535,1.475-0.535c3.405,0.001,3.444,10.339,3.185,16.279
			c0.713-0.144,1.648-0.227,2.862-0.227c5.227,0,15.602,1.549,35.416,6.502c48.396,12.099,75.555,62.048,90.777,111.81
			c2.359,6.103,4.359,13.163,5.354,20.669c3.611,23.501-4.225,51.188-16.568,74.826c4.526-7.277,7.414-12.434,7.414-12.434
			s0.302-0.247,0.856-0.623c0.871-1.705,1.346-2.681,1.346-2.681l6.891-0.766c0.934-0.179,1.918-0.296,2.94-0.327l9.985-1.109
			c0,0,0.119,1.429,0.086,3.969c0.704,0.449,1.41,0.959,2.116,1.537c12.11,9.905,55.048,70.458,55.048,70.458l26.422,38.533
			l-18.716,26.422c0,0-55.347-51.526-75.425-51.533c-1.488,0-2.779,0.282-3.844,0.891c-15.414,8.807-51.744,82.57-70.462,84.773
			c-6.238,0.734-15.78,0.979-25.729,0.979c-19.899,0-41.43-0.979-41.43-0.979s-28.27,11.175-50.262,11.175
			c-6.469,0-12.393-0.966-16.896-3.468c-19.236-10.688-44.699-45.234-57.251-45.236c-0.379,0-0.745,0.031-1.1,0.096
			c-12.11,2.203-93.475,80.252-93.475,80.252l-13.945-22.018c0,0,40.706-89.152,47.708-101.289
			c7.792-13.507,20.126-29.345,29.012-35.886l3.176-3.63c0,0,0.227,0.407,0.798,1.249c1.034-0.446,1.979-0.684,2.816-0.684
			c0.713,0,1.347,0.172,1.89,0.534c1.102,0.734,2.539,2.439,4.293,4.781c-4.888-9.16-9.127-19.802-12.545-31.92
			c-11.703-24.462-20.255-54.675-9.325-76.684c2.95-93.318,93.544-132.88,93.544-132.88c8.809-5.506,2.202-14.313,2.202-14.313
			L278.08,130.834 M602.43,0h-98c0,0,0,0-0.001,0.001c-0.24,0.333-60.139,83.295-111.582,83.295c-4.899,0-9.73-0.754-14.417-2.403
			c-53.875-18.956-34.093-80.606-34-80.892c0,0,0-0.001,0-0.001h-57c0,0,0,0,0,0.001c0.106,0.295,22.884,63.936-27,82.892
			c-4.267,1.621-8.402,2.361-12.411,2.361c-42.888,0-70.479-84.914-70.589-85.253c0,0,0-0.001,0-0.001h-40c0,0,0,0,0.001,0.001
			c0.146,0.388,42.905,113.948-12.001,146.892c-21.87,13.122-46.172,17.072-67.523,17.072C25.562,163.965,0,154.893,0,154.893v72
			c0,0,72.43,0,94.43,80S0,451.893,0,451.893V640h137.43c0,0-0.892-116.625,94.39-116.618c6.128,0.001,12.661,0.483,19.61,1.511
			c77.421,11.445,68,115.107,68,115.107h127c0,0-31.721-70.013,25-106.107c11.669-7.426,25.966-10.35,41.263-10.349
			c56.684,0.004,127.002,40.174,127.307,40.348c0.001,0.001,0.001,0.001,0.001,0.001v-176c0,0,0,0-0.001,0
			c-0.39-0.122-118.555-37.086-109.569-89c4.035-23.312,26.469-29.742,49.998-29.741c28.861,0.001,59.369,9.676,59.571,9.741
			c0.001,0,0.001,0,0.001,0v-133c0,0,0,0-0.001,0.001c-0.282,0.27-59.609,56.964-109.321,56.964
			c-17.172,0-33.202-6.769-45.248-24.965C430.861,95.46,601.781,0.361,602.428,0.001C602.429,0,602.43,0,602.43,0"/>
		<path fill="#FCC978" d="M210.122,330.522c6.213,7.704,12.431,13.717,16.213,14.997c8.14,2.756,20.042,18.382,9.631,18.382
			c-0.854,0-1.858-0.105-3.026-0.331c-10.504-2.031-26.122-7.293-32.913-7.293c-3.174-0.001-4.419,1.148-2.315,4.312
			c5.688,8.557,4.843,27.431-1.825,27.431c-1.076,0-2.303-0.49-3.679-1.595c-4.178-3.352-16.771-20.303-26.971-41.623
			c3.418,12.118,7.657,22.76,12.545,31.92c5.469,7.303,14.009,20.797,25.006,30.363c9.732,6.95,21.359,9.104,32.034,9.104
			l24.172-4.283c28.749-18.181,36.703-67.489,36.703-67.489s-0.697-3.135-3.658-3.135c-2.303,0-5.976,1.896-11.756,8.641
			c-3.585,4.183-8.873,5.933-15.071,5.933c-16.643,0-39.85-12.617-54.288-24.649C210.651,330.981,210.386,330.753,210.122,330.522
			 M195.294,287.452c-3.526,1.69-5.769,4.836-4.188,10.538c1.081,3.902,3.222,8.571,5.969,13.441
			C193.265,301.562,192.928,291.923,195.294,287.452 M460.086,258.909c1.278,9.665,0.89,20.07-2.548,30.126
			c-9.909,28.987-24.221,53.138-24.221,53.138s-2.185,0.767-4.7,0.767c-4.4,0-9.813-2.347-6.311-15.259
			c2.511-9.254,2.043-12.276,0.166-12.276c-2.238,0-6.482,4.297-10.075,7.451c-2.726,2.389-8.075,3.957-12.878,3.957
			c-6.839,0-12.567-3.178-8.039-11.689c1.34-2.52,2.746-4.864,4.161-7.099c-1.302,1.755-2.691,3.266-4.161,4.469
			c-7.706,9.54-15.17,12.72-21.693,12.72c-13.05,0-22.346-12.72-22.346-12.72s8.854,59.32,32.12,72.36
			c8.105-0.92,28.415-4.555,40.543-18.416c8.742-9.99,17.483-23.167,23.413-32.702C455.861,310.097,463.697,282.411,460.086,258.909
			 M408.133,257.448c1.384,12.434-2.432,33.537-9.926,46.623c5.824-8.821,11.195-16.451,11.989-27.597
			C410.705,269.318,409.799,262.369,408.133,257.448 M280.075,100.294c-0.181,0-0.13,0.252,0.207,0.814
			c3.303,5.504-2.202,29.726-2.202,29.726l-26.423-9.908c0,0,6.606,8.807-2.202,14.313c0,0-90.594,39.562-93.544,132.88
			c2.138-4.304,5.02-8.294,8.77-11.866c0,0,4.404-11.04,7.992-11.041c1.795,0,3.385,2.759,4.119,11.041
			c1.189,13.421,1.737,18.722,3.203,18.722c1.248,0,3.161-3.839,6.704-9.778c6.537-10.956,9.114-19.768,13.104-19.768
			c0.715,0,1.475,0.283,2.311,0.886c5.506,3.976,9.91,8.944,9.91,8.944v30.804c0,0-2.814-0.441-6.401-0.441
			c-0.849,0-1.739,0.024-2.646,0.085c8.183,2.131,13.452,4.766,13.452,4.766s-3.305-29.726,0-46.24
			c3.302-16.514,6.604-24.221,6.604-24.221s4.981-27.399,19.271-27.399c2.165,0,4.544,0.629,7.151,2.078
			c14.961,8.312,29.298,12.231,46.32,12.231c5.525,0,11.33-0.413,17.535-1.222c21.768-2.838,50.041-13,60.351-13
			c1.684,0,2.888,0.271,3.506,0.889c4.403,4.403,7.706,15.413,7.706,15.413l1.076,48.33l3.33-23.371c0,0,8.62-15.13,16.082-15.132
			c2.154,0,4.209,1.258,5.936,4.504c4.33,8.144,7.966,11.102,10.516,11.102c1.988,0,3.315-1.798,3.798-4.338
			c0.845-4.453,6.888-13.466,13.137-13.466c1.888,0,3.792,0.821,5.58,2.838c2.955,3.336,7.045,10.084,10.405,18.772
			c-15.223-49.761-42.382-99.711-90.777-111.81c-19.814-4.954-30.189-6.502-35.416-6.502c-1.214,0-2.149,0.083-2.862,0.227
			c0.26-5.939,0.221-16.277-3.185-16.279c-0.436,0-0.924,0.168-1.475,0.535c-6.604,4.403-19.818,15.414-19.818,15.414
			S281.67,100.295,280.075,100.294"/>
		<path fill="#B8BA8E" d="M197.074,311.43c2.621,6.791,6.889,13.692,13.048,19.092C205.417,324.688,200.714,317.883,197.074,311.43
			 M198.967,284.86c-1.564,0-2.802,0.946-3.673,2.591c2.257-1.081,5.038-1.567,7.682-1.744c-0.98-0.255-2.003-0.503-3.062-0.739
			C199.585,284.896,199.271,284.86,198.967,284.86 M155.911,268.119c-10.93,22.009-2.378,52.222,9.325,76.684
			c-5.417-19.206-8.771-42.11-9.361-68.641C155.814,273.44,155.828,270.754,155.911,268.119"/>
		<path fill="#F7A943" d="M172.673,245.211c-3.588,0.001-7.992,11.041-7.992,11.041c-3.75,3.572-6.632,7.562-8.77,11.866
			c-0.083,2.636-0.097,5.321-0.036,8.042c0.59,26.531,3.944,49.435,9.361,68.641c10.199,21.32,22.793,38.271,26.971,41.623
			c1.376,1.104,2.603,1.595,3.679,1.595c6.668,0,7.513-18.874,1.825-27.431c-2.104-3.164-0.858-4.313,2.315-4.312
			c6.791,0,22.409,5.262,32.913,7.293c1.168,0.226,2.172,0.331,3.026,0.331c10.411,0-1.491-15.626-9.631-18.382
			c-3.782-1.28-10-7.293-16.213-14.997c-6.159-5.399-10.427-12.301-13.048-19.092c-2.747-4.87-4.888-9.539-5.969-13.441
			c-1.58-5.702,0.662-8.848,4.188-10.538c0.871-1.646,2.108-2.591,3.673-2.591c0.304,0,0.618,0.036,0.946,0.108
			c1.06,0.235,2.082,0.483,3.062,0.739c0.907-0.061,1.798-0.085,2.646-0.085c3.587,0,6.401,0.441,6.401,0.441v-30.804
			c0,0-4.404-4.968-9.91-8.944c-0.836-0.604-1.596-0.886-2.311-0.886c-3.989,0-6.566,8.812-13.104,19.768
			c-3.543,5.939-5.456,9.778-6.704,9.778c-1.466,0-2.014-5.301-3.203-18.722C176.058,247.971,174.468,245.211,172.673,245.211"/>
		<path fill="#B8BA8E" d="M398.207,304.071c-0.85,1.288-1.709,2.601-2.565,3.954C396.539,306.815,397.395,305.49,398.207,304.071
			 M402.144,250.021c-6.578,0-16.168,8.525-16.168,8.525l-0.026-1.213l-1.076,7.547c0,0,9.909-8.696,15.414-13.526
			c0.734-0.645,1.469-0.945,2.188-0.945c2.174,0,4.205,2.749,5.657,7.04c-0.041-0.377-0.088-0.744-0.14-1.104
			C407.323,251.652,405.022,250.021,402.144,250.021 M454.732,238.24c1.399,4.577,2.7,9.156,3.905,13.7
			c0.604,2.275,1.084,4.601,1.448,6.969C459.092,251.402,457.092,244.343,454.732,238.24"/>
		<path fill="#F7A943" d="M438.747,216.63c-6.249,0-12.292,9.013-13.137,13.466c-0.482,2.54-1.81,4.338-3.798,4.338
			c-2.55,0-6.186-2.958-10.516-11.102c-1.727-3.246-3.781-4.504-5.936-4.504c-7.462,0.002-16.082,15.132-16.082,15.132l-3.33,23.371
			l0.026,1.213c0,0,9.59-8.525,16.168-8.525c2.879,0,5.18,1.631,5.85,6.323c0.052,0.36,0.099,0.728,0.14,1.104
			c1.666,4.921,2.572,11.87,2.063,19.026c-0.794,11.146-6.165,18.776-11.989,27.597c-0.812,1.419-1.668,2.745-2.565,3.954
			c-1.415,2.235-2.821,4.58-4.161,7.099c-4.528,8.512,1.2,11.689,8.039,11.689c4.803,0,10.152-1.568,12.878-3.957
			c3.593-3.154,7.837-7.452,10.075-7.451c1.877,0,2.345,3.022-0.166,12.276c-3.503,12.912,1.91,15.259,6.311,15.259
			c2.516,0,4.7-0.767,4.7-0.767s14.312-24.151,24.221-53.138c3.438-10.056,3.826-20.461,2.548-30.126
			c-0.364-2.369-0.845-4.694-1.448-6.969c-1.205-4.544-2.506-9.123-3.905-13.7c-3.36-8.688-7.45-15.436-10.405-18.772
			C442.539,217.451,440.635,216.63,438.747,216.63"/>
		<path fill="#F7AB59" d="M267.071,410.476l-8.078,1.431l-24.172,4.283c0.002,0,0.003,0,0.005,0
			C252.214,416.19,267.071,410.476,267.071,410.476 M171.599,371.407c-0.837,0-1.782,0.237-2.816,0.684
			c2.248,3.31,9.839,13.344,30.028,31.778c1.283,1.172,2.611,2.241,3.977,3.217c-10.997-9.566-19.537-23.061-25.006-30.363
			c-1.754-2.342-3.191-4.047-4.293-4.781C172.945,371.579,172.312,371.407,171.599,371.407 M451.788,320.678
			c-0.555,0.376-0.856,0.623-0.856,0.623s-2.888,5.156-7.414,12.434c-5.93,9.535-14.671,22.712-23.413,32.702
			c-12.128,13.861-32.438,17.496-40.543,18.416c-2.195,0.249-3.495,0.299-3.495,0.299s2.62,0.583,6.857,0.583
			c7.411,0,19.767-1.784,31.676-11.591C430.421,361.113,447.027,329.996,451.788,320.678 M473.036,319.764
			c-0.141,10.84-3.052,41.933-29.812,68.69c-33.027,33.031-84.772,39.637-84.772,39.637l17.615-42.939
			c0,0-31.928,66.059-47.342,70.463c-0.656,0.188-1.367,0.277-2.129,0.277c-17.139,0-59.524-45.416-59.524-45.416l0,0
			c0,0-22.057,26.853-59.013,26.853c-2.64,0-5.357-0.137-8.146-0.431c-41.837-4.402-55.049-39.635-55.049-39.635l19.944-22.792
			c-8.886,6.541-21.22,22.379-29.012,35.886c-7.002,12.137-47.708,101.289-47.708,101.289l13.945,22.018
			c0,0,81.364-78.049,93.475-80.252c0.354-0.064,0.721-0.096,1.1-0.096c12.552,0.002,38.015,34.549,57.251,45.236
			c4.504,2.502,10.428,3.468,16.896,3.468c21.992,0,50.262-11.175,50.262-11.175s21.53,0.979,41.43,0.979
			c9.948,0,19.49-0.245,25.729-0.979c18.718-2.203,55.048-75.967,70.462-84.773c1.064-0.608,2.355-0.891,3.844-0.891
			c20.078,0.007,75.425,51.533,75.425,51.533l18.716-26.422L530.2,391.759c0,0-42.938-60.553-55.048-70.458
			C474.446,320.723,473.74,320.213,473.036,319.764 M462.965,316.905c-1.022,0.031-2.007,0.148-2.94,0.327L462.965,316.905"/>
		<path fill="#B8AE87" d="M204.562,408.577c6.191,5.016,13.117,8.683,20.672,9.312l0.751-0.133
			C218.567,416.373,211.356,413.307,204.562,408.577 M167.984,370.841l-3.176,3.63c1.424-1.049,2.76-1.858,3.974-2.381
			C168.211,371.249,167.984,370.841,167.984,370.841"/>
		<path fill="#F59D41" d="M202.787,407.085c0.585,0.509,1.177,1.006,1.775,1.491c6.794,4.73,14.005,7.796,21.423,9.179l8.836-1.565
			C224.146,416.189,212.52,414.036,202.787,407.085"/>
		<path fill="#F18532" d="M168.782,372.09c-1.214,0.522-2.55,1.332-3.974,2.381l-19.944,22.792c0,0,13.212,35.232,55.049,39.635
			c2.788,0.294,5.506,0.431,8.146,0.431c36.956,0,59.013-26.853,59.013-26.853l0,0c0,0-14.857,5.714-32.245,5.714
			c-0.002,0-0.003,0-0.005,0l-8.836,1.565l-0.751,0.133c-7.555-0.629-14.48-4.296-20.672-9.312c-0.599-0.485-1.19-0.982-1.775-1.491
			c-1.365-0.976-2.693-2.045-3.977-3.217C178.621,385.434,171.03,375.4,168.782,372.09"/>
		<path fill="#B8AE87" d="M460.024,317.232l-6.891,0.766c0,0-0.475,0.976-1.346,2.681
			C453.183,319.733,456.18,317.967,460.024,317.232 M472.95,315.795l-9.985,1.109c0.174-0.005,0.35-0.008,0.525-0.008
			c2.961,0,6.226,0.749,9.546,2.867C473.069,317.225,472.95,315.795,472.95,315.795"/>
		<path fill="#F18532" d="M463.49,316.897c-0.176,0-0.352,0.003-0.525,0.008l-2.94,0.327c-3.845,0.735-6.842,2.501-8.236,3.446
			c-4.761,9.317-21.367,40.435-37.188,53.466c-11.909,9.807-24.265,11.591-31.676,11.591c-4.237,0-6.857-0.583-6.857-0.583l0,0l0,0
			l-17.615,42.939c0,0,51.745-6.605,84.772-39.637c26.761-26.758,29.672-57.851,29.812-68.69
			C469.716,317.646,466.451,316.897,463.49,316.897"/>
		<path fill="#FFFFFF" d="M267.179,272.372c0,0,9.542,17.616,35.964,16.148c26.424-1.469,36.697-20.552,36.697-20.552
			s-27.891,11.01-38.898,11.745C289.932,280.446,267.179,272.372,267.179,272.372z"/>
		<path fill="#FFFFFF" d="M276.721,292.924c0,0,19.083,5.137,31.56,2.936c12.479-2.203,24.955-4.404,24.955-4.404
			s-13.945,12.478-24.955,13.946C297.271,306.869,276.721,292.924,276.721,292.924z"/>
		<path fill="#F29FC5" d="M261.558,273.185c3.499-4.805,20.253,8.985,43.089,6.732c22.84-2.254,40.004-16.815,42.715-12.442
			c2.711,4.375-13.137,37.974-36.414,40.494C281.245,311.187,258.059,277.989,261.558,273.185z"/>
		<path fill="#FFFFFF" d="M265.143,272.373c0,0,12.993,15.132,39.415,13.664c26.421-1.467,38.388-19.535,38.388-19.535
			s-22.756,11.321-38.299,12.167C287.117,279.621,265.143,272.373,265.143,272.373z"/>
		<path fill="#FFFFFF" d="M281.71,299.733c0,0,10.059,5.013,27.672,3.342c17.616-1.671,25.267-9.418,25.267-9.418
			s-6.763,14.854-26.203,15.508C289.365,309.806,281.71,299.733,281.71,299.733z"/>
		<path d="M229.922,182.527c2.315,3.596,4.973,6.623,7.713,9.369c2.767,2.726,5.688,5.152,8.898,7.342
			c6.435,4.326,13.992,7.941,24.179,10.33c1.72,0.432,4.001,0.881,7.323,1.485c3.333,0.497,7.716,1.199,13.667,1.51
			c4.381,0.291,11.785,0.41,18.031-0.128c1.567-0.07,3.052-0.261,4.41-0.393c1.356-0.145,2.582-0.275,3.613-0.385
			c2.048-0.297,3.324-0.482,3.324-0.482s1.069-0.148,2.82-0.392c1.737-0.312,4.151-0.746,6.859-1.232
			c1.341-0.298,2.753-0.612,4.191-0.932c1.438-0.322,2.907-0.631,4.324-1.032c2.83-0.752,5.677-1.502,7.771-2.094
			c3.561-1.017,6.799-1.805,9.712-2.537c2.92-0.649,5.515-1.268,7.812-1.689c4.593-0.928,7.972-1.404,10.284-1.72
			c9.358-1.224,16.548-1.873,23.266-1.817c3.367,0.034,6.59,0.312,9.861,1.143c1.623,0.436,3.25,1.038,4.809,1.96
			c1.532,0.936,3.11,2.142,4.164,3.989c-0.06-2.161-0.967-4.232-2.104-6.041c-1.16-1.816-2.646-3.374-4.257-4.7
			c-3.251-2.622-6.956-4.441-10.821-5.659c-7.782-2.44-16.291-2.894-26.553-1.654c-2.537,0.319-6.228,0.823-11.138,1.799
			c-2.471,0.448-5.215,1.093-8.314,1.779c-3.069,0.764-6.485,1.593-10.203,2.651c-2.179,0.586-4.795,1.29-7.494,2.016
			c-1.321,0.379-2.682,0.667-4.015,0.971s-2.642,0.602-3.884,0.885c-2.5,0.464-4.729,0.878-6.331,1.176
			c-1.611,0.234-2.594,0.377-2.594,0.377s-1.176,0.163-3.062,0.424c-0.946,0.094-2.07,0.206-3.314,0.33
			c-1.245,0.113-2.608,0.285-4.038,0.338c-5.716,0.468-12.422,0.335-16.38,0.113c-10.746-0.685-15.775-1.971-18.862-2.619
			c-9.114-2.042-16.097-4.174-22.871-6.248c-3.378-1.065-6.684-2.169-10.113-3.443C237.195,186.015,233.631,184.604,229.922,182.527
			z"/>
		<path d="M296.811,333.033c-2.434,7.557-4.881,13.617-7.169,19.971c-2.339,6.331-4.539,12.962-7.678,21.14
			c-0.662,1.716-1.631,4.074-2.936,6.836c-0.646,1.385-1.398,2.855-2.235,4.396c-0.41,0.775-0.878,1.541-1.332,2.348
			c-0.24,0.392-0.484,0.789-0.731,1.19l-0.372,0.606c-0.418,0.636-0.838,1.275-1.261,1.919c-3.148,4.605-6.918,8.817-11.374,12.1
			c-4.445,3.291-9.584,5.596-15.181,6.628c-5.596,1.046-11.608,0.834-17.666-0.297c-3.029-0.603-6.073-1.395-9.107-2.387
			c-0.751-0.241-1.425-0.527-2.145-0.785c-0.711-0.257-1.421-0.521-2.108-0.862l-2.088-0.95l-2.038-1.102l-1.021-0.554l-0.99-0.623
			l-1.985-1.25c-1.269-0.942-2.602-1.782-3.819-2.824l-1.864-1.505l-1.797-1.615l-0.901-0.808l-0.863-0.86l-1.73-1.721
			c-4.514-4.727-8.545-10.082-12.129-15.796c-7.164-11.457-12.44-24.371-16.21-37.663c-3.753-13.317-5.945-27.094-6.691-40.78
			c-0.749-13.688-0.041-27.304,2.11-40.364c4.173-26.162,14.332-49.963,28.041-68.273c6.866-9.146,14.438-17.05,22.309-23.535
			c7.838-6.526,15.842-11.772,23.508-15.931c1.939-1,3.833-1.976,5.68-2.928c1.886-0.876,3.723-1.73,5.509-2.561
			c1.79-0.825,3.588-1.502,5.298-2.229c0.43-0.178,0.855-0.354,1.278-0.528l0.632-0.261c0.477-0.175,0.951-0.349,1.424-0.521
			c1.756-0.642,3.482-1.272,5.18-1.893c1.03-0.841,1.936-1.704,2.883-2.531c0.449-0.419,0.971-0.822,1.347-1.243
			c0.165-0.363,0.412-1.104,0.512-1.727c0.142-1.219,0.057-2.24-0.319-3.364c-0.385-1.109-1.033-2.25-1.926-3.357
			c-0.907-1.104-1.937-2.171-3.014-3.181c-0.529-0.509-1.068-1.004-1.602-1.492c-0.409-0.374-0.813-0.743-1.213-1.107
			c-1.029-0.936-1.961-1.796-2.695-2.538c-0.389-0.393-0.778-0.817-0.898-0.988l-0.026-0.036l0.001,0l-0.646,0.415
			c-0.219,0.141-0.51,0.292-0.68,0.411c-0.167,0.119-0.34,0.231-0.517,0.336c-0.354,0.211-0.728,0.396-1.116,0.553
			c-0.34,0.156-0.523,0.274-0.825,0.354c-0.139,0.041-0.282,0.07-0.429,0.09c-0.091,0.028-0.15,0.054-0.235,0.065
			c-0.137,0.037-0.411-0.037-0.37-0.012l-0.058-0.013l-0.021-0.013l0.067,0.043l0.092,0.106c0.025,0.042,0.009,0.054,0.104,0.173
			c0.132,0.192,0.218,0.402,0.257,0.615l0.013,0.08c-0.129-0.219,0.305,0.604-0.289-0.471l0.093,0.178l0.187,0.357l0.186,0.356
			l0.093,0.178l0.03,0.273c0.011,0.392-0.034,0.781-0.133,1.157c-0.049,0.188-0.11,0.372-0.185,0.552
			c-0.033,0.094-0.085,0.169-0.111,0.275l-0.034,0.375l-0.091,0.745l-0.047,0.303v0l0.003-0.005c0.223,0.062,0.64,0.174,1.139,0.372
			c0.979,0.367,2.109,0.877,3.222,1.407c1.119,0.535,2.247,1.098,3.371,1.675c2.287,1.192,4.514,2.352,6.669,3.476
			c1.119,0.571,2.219,1.133,3.3,1.686c0.893,0.431,1.776,0.858,2.653,1.281c1.051,0.461,2.093,0.941,3.119,1.302l0.768,0.286
			l0.749,0.212c0.499,0.146,0.997,0.294,1.456,0.341c0.467,0.07,0.947,0.174,1.358,0.132c0.429-0.004,0.854-0.01,1.244-0.063
			c0.832-0.026,1.51-0.283,2.223-0.63l0.267-0.138c0.04-0.134,0.186-0.106,0.267-0.178c0.199-0.09,0.346-0.229,0.5-0.341
			c0.296-0.239,0.564-0.474,0.802-0.745c0.967-1.041,1.645-2.545,1.964-4.361c0.339-1.794,0.419-3.745,0.488-5.601
			c0.018-0.782,0.035-1.552,0.052-2.311c0.005-0.469,0.009-0.931,0.013-1.384c0-0.898,0-1.766,0.001-2.602
			c-0.014-1.65-0.026-3.178-0.037-4.572c-0.013-1.265-0.023-2.409-0.033-3.422c-0.001-0.116-0.001-0.03-0.001-0.055l-0.001,0.003
			l-0.001-0.002v-0.002v-0.001c0.003,0.33,0.006,0.688,0.009,1.077c-0.003-0.361-0.006-0.721-0.009-1.077l-0.001,0.001v0.003
			l-0.001,0.005l-0.007-0.008c1.186,1.635,2.336,3.223,3.453,4.764c1.225,1.676,2.438,3.316,3.739,4.942l0.682,0.825
			c0.304,0.371,0.61,0.731,0.928,1.072l0.937,1.035c0.318,0.328,0.651,0.627,0.975,0.94c1.31,1.202,2.693,2.178,4.108,2.578
			c0.357,0.086,0.718,0.133,1.078,0.188l1.122,0.068c0.778,0.184,1.497-0.165,2.172-0.3c1.361-0.372,2.617-1.263,3.77-2.358
			c1.164-1.085,2.185-2.395,3.165-3.695l0.569-0.769l0.375-0.526c0.243-0.347,0.484-0.69,0.723-1.031
			c0.897-1.33,1.764-2.613,2.6-3.852l0.279-0.419h-0.001v0.001l-0.001,0.001l-0.002-0.002v-0.001
			c0.065,0.588,0.127,1.144,0.186,1.667c0.043,0.341,0.084,0.672,0.124,0.993c0.052,0.364,0.102,0.717,0.15,1.058
			c0.331,2.187,0.807,4.093,1.488,5.49c0.685,1.4,1.513,2.344,2.384,2.995c0.446,0.328,0.788,0.562,1.23,0.64
			c0.408,0.111,0.767,0.208,1.079,0.294c0.625,0.17,1.065,0.29,1.343,0.366c0.557,0.151,0.467,0.126-0.084-0.023
			c0.188,0.049,0.364,0.106,0.548,0.143c0.204,0.009,0.401,0.017,0.593,0.025c0.382,0.016,0.738,0.031,1.071,0.045
			c0.666,0.028,1.237,0.052,1.728,0.073c0.473,0.02,0.788,0.033,0.999,0.042c0.415,0.017,0.419,0.017,0.419,0.017
			s0.15,0.006,2.98,0.121c0.354,0.015,0.749,0.031,1.191,0.05c0.438,0.047,0.924,0.099,1.461,0.157
			c1.074,0.114,2.354,0.25,3.877,0.413c1.523,0.168,3.302,0.298,5.321,0.705c2.022,0.379,4.352,0.698,6.955,1.262
			c0.43,0.105,1.343,0.328,2.712,0.663c0.685,0.167,1.484,0.361,2.394,0.583c0.907,0.231,1.942,0.431,3.037,0.815
			c1.104,0.35,2.314,0.733,3.626,1.149c1.306,0.434,2.747,0.804,4.205,1.431c1.475,0.579,3.045,1.196,4.709,1.849
			c0.414,0.166,0.841,0.321,1.263,0.501c0.415,0.197,0.835,0.396,1.261,0.598c0.852,0.403,1.727,0.816,2.622,1.24
			c7.14,3.415,15.354,8.25,23.673,15.146c1.034,0.867,2.085,1.747,3.15,2.64c1.044,0.919,2.045,1.919,3.093,2.895
			c1.023,1.002,2.135,1.94,3.128,3.031c1.01,1.073,2.032,2.16,3.068,3.26c1.062,1.075,2.039,2.257,3.033,3.448
			c0.992,1.191,2.021,2.377,3.021,3.61c0.956,1.27,1.923,2.554,2.9,3.852c0.482,0.654,0.997,1.29,1.462,1.967
			c0.459,0.682,0.922,1.367,1.387,2.057c3.814,5.443,7.24,11.499,10.458,17.923c3.242,6.419,5.999,13.363,8.414,20.637
			c4.823,14.54,7.841,30.708,7.911,47.443c0.025,4.18-0.185,8.387-0.592,12.591c-0.066,1.058-0.225,2.1-0.372,3.146
			c-0.145,1.046-0.29,2.095-0.435,3.146c-0.33,2.106-0.734,4.231-1.184,6.351c-1.804,8.484-4.406,16.991-7.676,25.35
			c-3.271,8.358-7.226,16.577-11.868,24.423c-4.646,7.827-9.98,15.344-16.188,21.835c-3.104,3.226-6.404,6.241-9.945,8.672
			c-3.517,2.465-7.27,4.367-10.999,5.312c-1.864,0.493-3.706,0.652-5.497,0.604c-1.791-0.055-3.535-0.375-5.209-1.027
			c-3.356-1.238-6.518-3.606-9.245-6.723c-2.747-3.092-5.114-6.799-7.146-10.764c-2.034-3.972-3.75-8.204-5.268-12.531
			c-3.005-8.685-5.164-17.772-6.864-26.906c-0.868-4.563-1.583-9.158-2.229-13.745l-0.247-1.718
			c-5.129,1.449,11.435-3.548-11.506,3.195l0.146,0.3l0.248,0.489l0.484,0.908c0.648,1.182,1.326,2.307,2.045,3.412
			c1.428,2.21,3.028,4.312,4.799,6.318c1.791,1.993,3.776,3.88,6.027,5.559c2.245,1.676,4.778,3.145,7.592,4.161
			c2.801,1.025,5.868,1.579,8.9,1.538c3.037-0.031,5.99-0.641,8.679-1.596l1.978-0.777l1.824-0.869
			c0.616-0.279,1.173-0.627,1.757-0.944c0.582-0.319,1.154-0.648,1.695-1.009c2.233-1.375,4.254-2.952,6.161-4.6
			c3.807-3.31,7.026-7.026,9.842-10.922c2.811-3.903,5.167-8.023,7.173-12.256c0.907-1.92,2.173-5.096,1.995-4.67
			c0.152-0.367,0.291-0.739,0.422-1.111c1.113-2.95,1.966-5.857,2.62-8.633c0.664-2.773,1.106-5.426,1.355-7.885
			c0.53-4.914,0.336-9.029-0.039-11.798c-0.362-2.644-0.907-5.15-1.744-7.482c-0.177-0.586-0.44-1.154-0.663-1.717
			c-0.231-0.562-0.45-1.109-0.757-1.684c-0.306-0.58-0.531-1.088-0.909-1.696l-0.575-0.897l-0.292-0.439
			c-0.099-0.146-0.181-0.278-0.34-0.473c-2.186-2.943-5.366-4.827-8.603-4.714c-0.4,0.022-0.798,0.047-1.19,0.093l-1.152,0.276
			c-0.384,0.072-0.749,0.222-1.109,0.375c-0.36,0.155-0.721,0.301-1.061,0.486c-0.66,0.395-1.365,0.797-1.903,1.263
			c-0.283,0.229-0.56,0.462-0.828,0.698c-0.299,0.251-0.411,0.418-0.622,0.631c-1.503,1.622-2.529,3.262-3.427,4.912
			c-0.886,1.651-1.607,3.318-2.248,5.023c-1.296,3.402-2.164,6.987-3.172,10.805c2.713-2.938,5.07-5.688,7.481-8.092
			c1.195-1.206,2.385-2.341,3.572-3.365c1.182-1.017,2.388-1.942,3.494-2.55c0.119-0.059,0.312-0.198,0.367-0.191l0.225-0.052
			c0.159-0.047,0.239-0.009,0.346-0.011c0.202,0.033,0.369,0.086,0.502,0.199c0.271,0.215,0.32,0.556,0.287,0.739l0.042,0.132
			l0.072,0.184l0.159,0.358c0.113,0.234,0.238,0.653,0.366,0.968c0.138,0.318,0.249,0.723,0.37,1.117
			c0.113,0.398,0.269,0.776,0.355,1.2c0.461,1.634,0.769,3.431,1.021,5.361c0.257,2.023,0.396,5.136-0.036,9.052
			c-0.202,1.955-0.563,4.107-1.117,6.392c-0.543,2.285-1.252,4.711-2.193,7.191c-0.109,0.312-0.226,0.625-0.355,0.935
			c0.149-0.359-0.919,2.316-1.684,3.941c-1.699,3.576-3.696,7.068-6.039,10.318c-2.343,3.244-4.995,6.284-7.962,8.857
			c-1.483,1.279-3.023,2.484-4.644,3.473c-0.396,0.27-0.806,0.501-1.218,0.725c-0.412,0.22-0.813,0.484-1.234,0.665l-1.247,0.599
			l-1.199,0.468c-3.211,1.135-6.28,1.2-9.34,0.085c-3.066-1.089-6.087-3.459-8.737-6.407c-1.315-1.494-2.564-3.122-3.681-4.854
			c-0.561-0.861-1.096-1.75-1.578-2.629l-0.347-0.648l-0.151-0.299l-0.048-0.096c-22.95,6.793-6.344,2.011-11.457,3.584l0.256,1.78
			c0.668,4.748,1.41,9.515,2.318,14.29c1.78,9.551,4.045,19.154,7.331,28.659c1.666,4.746,3.57,9.47,5.938,14.092
			c2.371,4.612,5.205,9.146,8.883,13.292c0.877,1.057,1.929,2.021,2.926,3.011c0.504,0.492,1.082,0.938,1.622,1.404
			c0.55,0.462,1.091,0.929,1.704,1.34c2.304,1.766,5.005,3.184,7.837,4.262c5.72,2.208,12.214,2.236,17.826,0.809
			c5.656-1.441,10.606-4.073,14.977-7.119c4.406-3.038,8.235-6.562,11.782-10.245c7.063-7.401,12.831-15.589,17.852-24.036
			c5.004-8.463,9.22-17.235,12.718-26.174c3.493-8.941,6.285-18.05,8.241-27.26c0.488-2.304,0.926-4.606,1.29-6.932
			c0.163-1.171,0.325-2.341,0.487-3.507c0.163-1.167,0.335-2.331,0.411-3.495c0.451-4.653,0.677-9.271,0.649-13.83
			c-0.086-18.246-3.348-35.551-8.526-51.187c-2.596-7.817-5.567-15.279-9.062-22.206c-3.47-6.931-7.181-13.472-11.321-19.388
			c-0.506-0.747-1.008-1.49-1.508-2.229c-0.507-0.735-1.063-1.431-1.589-2.142c-1.065-1.412-2.119-2.809-3.161-4.19
			c-1.089-1.345-2.209-2.643-3.295-3.941c-1.086-1.298-2.155-2.584-3.316-3.766c-1.135-1.204-2.255-2.393-3.361-3.567
			c-1.09-1.189-2.306-2.229-3.43-3.326c-1.15-1.072-2.252-2.164-3.399-3.174c-1.173-0.984-2.328-1.953-3.467-2.908
			c-9.161-7.588-18.251-12.942-26.146-16.714c-0.991-0.467-1.958-0.923-2.9-1.367c-0.472-0.222-0.938-0.441-1.396-0.657
			c-0.466-0.2-0.936-0.373-1.394-0.557c-1.838-0.721-3.574-1.401-5.203-2.041c-1.614-0.684-3.199-1.102-4.639-1.58
			c-1.447-0.457-2.782-0.878-4.001-1.263c-1.21-0.417-2.345-0.644-3.343-0.898c-1-0.244-1.879-0.458-2.632-0.641
			c-1.507-0.365-2.511-0.609-2.983-0.723c-2.858-0.619-5.404-0.977-7.623-1.386c-2.218-0.438-4.152-0.588-5.814-0.772
			c-1.662-0.176-3.059-0.324-4.229-0.448c-0.586-0.062-1.115-0.117-1.595-0.167c-0.48-0.021-0.909-0.04-1.293-0.057
			c-3.072-0.128-3.235-0.135-3.235-0.135s-0.004,0-0.454-0.019c-0.222-0.009-0.553-0.023-1.05-0.043l0.042,0.005v0v-0.011
			c-0.062-0.467-0.127-0.964-0.196-1.493c-0.08-0.736-0.164-1.517-0.253-2.345c-0.146-1.414-0.284-2.921-0.473-4.481
			c-0.181-1.562-0.411-3.188-0.773-4.717c-0.341-1.568-0.877-2.918-1.547-3.992c-0.679-1.076-1.453-1.851-2.402-2.457
			c-0.498-0.269-1.02-0.618-1.816-0.758c-0.793-0.295-1.484-0.286-2.093-0.3c-0.627,0.077-1.237,0.236-1.877,0.355
			c-0.321,0.084-0.659,0.233-0.996,0.36c-0.352,0.201-0.698,0.359-1.063,0.6c-1.461,0.937-3.064,2.665-4.636,4.765
			c-0.788,1.051-1.575,2.167-2.368,3.323c-0.692,1.029-1.397,2.079-2.116,3.147c-0.797,1.182-1.623,2.406-2.479,3.675
			c-0.365,0.515-0.735,1.038-1.113,1.571l0.005-0.006l0.002-0.001l0.002,0.001v0l0.004,0.004l-0.024-0.03l-0.203-0.249
			c-1.091-1.362-2.229-2.895-3.405-4.505c-1.272-1.755-2.585-3.564-3.937-5.427c-1.277-1.739-2.591-3.503-3.956-5.176
			c-0.685-0.823-1.373-1.671-2.076-2.39c-0.703-0.803-1.401-1.403-2.106-2.039c-1.392-1.118-2.74-1.868-3.949-2.157
			c-0.296-0.046-0.598-0.115-0.892-0.144l-0.871,0.005c-0.583,0.021-1.234-0.064-1.998,0.163c-0.786,0.497-1.348,0.521-1.795,0.837
			c-0.452,0.302-0.869,0.658-1.269,1.13c-0.796,0.93-1.555,2.325-1.881,4.512c-0.356,2.133-0.418,4.727-0.465,7.309
			c-0.005,1.309-0.009,2.627-0.013,3.953c0.007,0.974,0.013,1.953,0.02,2.939c-0.007-1.018-0.014-1.957-0.02-2.82
			c0.002-1.19,0.003-2.275,0.005-3.258c0.019-1.956,0.057-3.49,0.123-4.596c0.127-2.219,0.256-2.836,0.18-2.296
			c-0.073,0.538-0.243,2.405-0.29,5.628c-0.026,1.58-0.028,3.595-0.014,5.695c0.011,1.202,0.023,2.56,0.037,4.061
			c0.011,1.372,0.022,2.875,0.035,4.499c0,0.8,0,1.63-0.001,2.489c-0.006,0.562-0.012,1.144-0.018,1.744l0.01-0.01l0.002,0.001
			c-0.056-0.028,0.228,0.113-0.5-0.25c-1.021-0.522-2.062-1.054-3.119-1.594c-2.177-1.135-4.424-2.307-6.733-3.51
			c-1.182-0.606-2.404-1.218-3.684-1.829c-1.289-0.61-2.608-1.22-4.174-1.812c-0.77-0.293-1.659-0.592-2.771-0.855
			c-0.336-0.066-0.674-0.126-1.014-0.178l-0.127-0.02l-0.262-0.024c-0.184-0.015-0.368-0.024-0.554-0.029
			c-0.371-0.01-0.744,0.001-1.11,0.032l-0.3,0.032l-0.129,0.018l-0.128,0.018l-0.064,0.009c-1.423,0.306-0.498,0.116-0.861,0.2
			l-0.18,0.061c-0.478,0.166-0.949,0.377-1.39,0.624c-0.163,0.078-0.569,0.354-0.892,0.628c-0.33,0.277-0.642,0.588-0.918,0.918
			c-0.534,0.592-1.014,1.545-1.271,2.476c-0.134,0.472-0.212,0.977-0.216,1.249c-0.019,0.331-0.017,0.667,0.007,1.002
			c0.021,0.326,0.07,0.685,0.128,0.968c0.046,0.187,0.097,0.374,0.153,0.56c0.105,0.351,0.264,0.784,0.386,1.043
			c0.106,0.219,0.219,0.437,0.336,0.651c0.12,0.222,0.244,0.432,0.33,0.554c0.185,0.274,0.415,0.623,0.579,0.824
			c0.726,0.947,1.314,1.54,1.912,2.157c1.055,1.065,2.101,2.021,3.158,2.986l0.368,0.336v0l-0.002-0.001l-0.004-0.003l0.001-0.016
			l0.007-0.003l0.102-0.042l-0.678,0.279c-0.453,0.187-0.91,0.375-1.371,0.565c-1.837,0.776-3.759,1.506-5.685,2.39
			c-1.921,0.893-3.896,1.81-5.925,2.752c-1.99,1.025-4.032,2.077-6.123,3.154c-8.274,4.485-16.958,10.164-25.48,17.257
			c-8.555,7.049-16.813,15.653-24.275,25.597c-14.92,19.911-25.84,45.632-30.291,73.544c-2.297,13.944-3.049,28.418-2.256,42.962
			c0.792,14.543,3.114,29.173,7.125,43.415c4.037,14.22,9.682,28.124,17.592,40.79c3.964,6.319,8.473,12.334,13.67,17.773
			l2.001,1.994l1.002,0.993l1.053,0.948l2.106,1.89l2.208,1.787c1.441,1.22,3.048,2.26,4.575,3.376
			c0.796,0.522,1.61,1.019,2.415,1.526l1.211,0.755l1.256,0.688c3.291,1.914,6.9,3.362,10.475,4.615
			c3.472,1.135,7.022,2.066,10.629,2.778c7.224,1.353,14.789,1.679,22.158,0.3c7.364-1.346,14.357-4.49,20.129-8.783
			c5.806-4.283,10.447-9.551,14.187-15.021c0.5-0.762,0.996-1.518,1.49-2.271l0.436-0.71c0.288-0.472,0.572-0.938,0.854-1.396
			c0.526-0.934,1.066-1.832,1.537-2.725c0.961-1.776,1.813-3.461,2.541-5.03c1.466-3.136,2.528-5.774,3.246-7.686
			c3.39-9.112,4.663-16.6,5.097-23.69C298.665,347.659,298.209,340.878,296.811,333.033z"/>
		<path d="M377.734,283.491c2.985-4.165,5.093-7.972,6.921-12.128c1.766-4.181,3.194-8.771,4.195-14.789
			c0.091-0.508,0.196-1.097,0.322-1.8c0.123-0.704,0.188-1.537,0.31-2.516c0.201-1.964,0.568-4.53,0.852-8.017
			c0.057-0.808,0.088-2.729,0.088-2.729s0.038-0.673,0.08-1.413c0.018-0.416,0.035-0.851,0.051-1.219
			c0.265-4.05,0.03-7.697-0.045-10.763c-0.033-3.065-0.321-5.534-0.472-7.179c-0.144-1.519-0.301-2.953-0.472-4.318
			c-0.221-1.363-0.501-2.653-0.767-3.891c-0.271-1.238-0.556-2.421-0.853-3.565c-0.363-1.138-0.739-2.237-1.129-3.312
			c-0.406-1.072-0.757-2.13-1.254-3.159c-0.481-1.031-0.98-2.052-1.499-3.075c-1.084-2.032-2.312-4.091-3.853-6.132
			c0.402,2.524,0.555,4.827,0.707,7.039c0.052,1.114,0.115,2.198,0.194,3.27c0.095,1.065,0.081,2.162,0.157,3.24
			c0.06,1.084,0.141,2.173,0.245,3.285c0.042,1.129,0.106,2.281,0.197,3.474c0.085,1.193,0.222,2.422,0.34,3.718
			c0.068,1.305,0.163,2.668,0.284,4.107c0.127,1.559,0.393,3.89,0.411,6.816c0.062,2.917,0.286,6.412,0.024,10.204
			c-0.013,0.347-0.027,0.756-0.042,1.147c-0.015,0.698-0.027,1.333-0.027,1.333s-0.116,1.802-0.121,2.565
			c-0.265,3.29-0.609,5.72-0.789,7.577c-0.11,0.926-0.166,1.713-0.28,2.381c-0.114,0.668-0.211,1.226-0.293,1.708
			c-0.891,5.71-1.575,10.193-2.04,14.542C378.647,274.225,378.417,278.431,377.734,283.491z"/>
		<path d="M224.971,217.157c-3.542,2.509-5.547,4.437-6.986,8.502c-0.373,1.108-1.048,3.353-1.882,6.084
			c-0.411,1.369-0.86,2.859-1.321,4.395c-0.393,1.567-0.797,3.179-1.192,4.755c-0.771,3.162-1.595,6.129-1.957,8.46
			c-0.212,1.146-0.405,2.087-0.481,2.749c-0.094,0.66-0.146,1.032-0.146,1.032c0.001,0-0.964,5.944-1.135,12.526
			c-0.146,3.289-0.041,6.723,0.072,9.631c0.163,2.906,0.389,5.284,0.526,6.47c0.546,4.364,2.259,6.735,5.419,9.713
			c1.676-3.986,2.671-6.409,2.269-10.514c-0.097-1.111-0.291-3.336-0.438-6.055c-0.098-2.72-0.204-5.934-0.073-9
			c0.145-6.143,1.008-11.638,1.007-11.638c0,0,0.051-0.343,0.14-0.953c0.072-0.613,0.258-1.477,0.456-2.532
			c0.328-2.101,1.144-4.985,1.888-7.996c0.38-1.507,0.768-3.048,1.145-4.546c0.448-1.491,0.884-2.94,1.283-4.27
			c0.797-2.661,1.45-4.843,1.777-5.934C226.635,224.029,226.074,221.341,224.971,217.157z"/>
		<path d="M227.215,303.002c-2.57-5.863-5.264-10.621-9.041-15.127c-1.943-2.223-4.114-4.421-7.212-6.364
			c-1.564-0.952-3.357-1.877-5.709-2.407c-0.597-0.122-1.188-0.25-1.874-0.277c-0.333-0.019-0.668-0.038-1.006-0.056
			c-0.352,0.009-0.716,0.04-1.077,0.07c-1.446,0.094-2.997,0.595-4.418,1.332c-0.458,0.271-0.931,0.595-1.441,0.955
			c-0.512,0.359-0.929,0.812-1.439,1.292c-0.51,0.479-0.901,1.07-1.39,1.694c-0.45,0.631-0.811,1.336-1.229,2.102
			c-1.428,3.062-2.229,7.07-1.947,11.939c0.146,3.654,1.056,8.3,2.646,13.034c1.617,4.72,3.916,9.523,6.457,13.663
			c2.534,4.145,5.258,7.645,7.347,10.08c1.069,1.196,1.937,2.168,2.557,2.821c0.632,0.642,0.983,0.997,0.983,0.997
			s1.145,1.223,3.172,3.069c2.033,1.835,4.933,4.326,8.484,6.715c3.529,2.414,7.663,4.766,11.852,6.655
			c2.091,0.973,4.194,1.756,6.192,2.511c0.993,0.391,2.017,0.668,2.974,0.99c0.966,0.306,1.887,0.619,2.805,0.831
			c5.89,1.604,10.984,2.129,15.056,2.077c1.022-0.043,1.972-0.013,2.865-0.121c0.893-0.095,1.719-0.182,2.481-0.262
			c1.521-0.28,2.797-0.461,3.814-0.759c4.146-1.041,7.659-2.796,10.501-4.88c2.849-2.091,5.049-4.495,6.771-7.024
			c1.717-2.538,2.985-5.203,3.881-8.031c0.892-2.822,1.497-5.806,1.608-9.011c-1.592,2.763-3.389,5-5.178,7.009
			c-1.791,2.006-3.651,3.734-5.599,5.311c-3.929,3.105-8.18,5.727-14.293,7.244c-0.744,0.222-1.714,0.329-2.848,0.548
			c-0.582,0.058-1.213,0.12-1.894,0.188c-0.676,0.089-1.431,0.047-2.223,0.084c-3.187,0.026-7.322-0.379-12.392-1.76
			c-0.78-0.176-1.589-0.458-2.432-0.726c-0.839-0.286-1.722-0.517-2.607-0.868c-1.777-0.677-3.656-1.369-5.478-2.218
			c-3.674-1.653-7.295-3.703-10.389-5.807c-3.115-2.079-5.656-4.257-7.444-5.856c-1.782-1.611-2.788-2.679-2.788-2.679
			s-0.307-0.312-0.859-0.876c-0.541-0.574-1.295-1.431-2.231-2.479c-1.82-2.14-4.195-5.212-6.394-8.825
			c-2.204-3.606-4.174-7.767-5.535-11.738c-1.33-3.976-2.051-7.744-2.16-10.421c-0.221-3.633,0.419-5.958,0.99-7.246
			c0.618-1.229,1.171-1.575,1.446-1.778c0.239-0.078,0.411-0.216,0.73-0.233l0.229-0.046c0.097,0.008,0.192,0.01,0.288,0.008
			c0.177-0.028,0.416,0.021,0.645,0.044c0.941,0.119,2.099,0.506,3.235,0.998c2.304,1.002,4.564,2.402,6.771,3.791
			C217.871,296.058,222.221,299.04,227.215,303.002z"/>
		<path d="M239.008,238.901c2.262-1.234,3.602-1.949,4.883-3.907c0.672-1.065,2.869-4.201,5.388-6.448
			c0.6-0.602,1.276-1.043,1.851-1.534c0.61-0.423,1.188-0.777,1.667-1.101c1.012-0.517,1.664-0.851,1.664-0.851
			c-0.011-0.037,0.683-0.239,1.731-0.626c0.529-0.173,1.179-0.248,1.868-0.413c0.711-0.126,1.579-0.174,2.411-0.254
			c1.683-0.077,3.405,0.019,4.799,0.271c1.383,0.28,2.425,0.678,2.921,0.904c0.915,0.417,1.68,0.624,2.515,0.811
			c0.834,0.197,1.802,0.27,2.982,0.761c0.143-1.304-0.156-2.471-0.702-3.475c-0.557-1.016-1.458-1.845-2.776-2.486
			c-0.713-0.351-2.19-0.926-4.022-1.292c-1.829-0.341-3.977-0.448-5.985-0.347c-1.004,0.094-1.945,0.151-2.876,0.312
			c-0.935,0.205-1.814,0.34-2.521,0.569c-0.698,0.25-1.273,0.455-1.674,0.598c-0.199,0.073-0.355,0.13-0.462,0.169
			c-0.1,0.05-0.152,0.076-0.152,0.076s-0.856,0.408-2.153,1.087c-0.606,0.393-1.337,0.841-2.096,1.368
			c-0.704,0.581-1.539,1.147-2.252,1.849c-3.017,2.688-5.464,6.223-6.186,7.435C238.463,234.603,238.466,236.374,239.008,238.901z"
			/>
		<path d="M328.189,221.901c0.971-0.45,1.736-0.627,2.379-0.877c0.625-0.25,1.131-0.525,1.607-1.025
			c0.14-0.127,0.349-0.318,0.608-0.555c0.269-0.228,0.615-0.474,0.995-0.746c0.419-0.224,0.828-0.533,1.342-0.727
			c0.246-0.111,0.497-0.224,0.748-0.337c0.268-0.085,0.536-0.171,0.801-0.256c0.516-0.201,1.079-0.28,1.58-0.393
			c0.497-0.129,0.985-0.162,1.396-0.204c0.41-0.044,0.747-0.08,0.982-0.105c0.24-0.004,0.376-0.006,0.376-0.006s0.544,0,1.387,0
			c0.418-0.023,0.926,0.052,1.474,0.093c0.274,0.023,0.56,0.048,0.853,0.073c0.3,0.021,0.599,0.048,0.836,0.104
			c1.035,0.158,2.023,0.517,2.764,0.973c0.746,0.449,1.259,0.961,1.523,1.208c0.904,0.99,1.996,1.1,3.947,1.953
			c0.953-1.924,1.005-3.614-0.436-5.27c-0.41-0.43-1.263-1.295-2.529-2.061c-1.255-0.777-2.913-1.368-4.489-1.601
			c-0.41-0.082-0.762-0.112-1.099-0.136c-0.342-0.028-0.676-0.056-0.996-0.082c-0.643-0.044-1.224-0.12-1.738-0.096
			c-1.019,0.008-1.677,0.013-1.677,0.013s-0.164,0.002-0.456,0.006c-0.296,0.028-0.721,0.068-1.236,0.117
			c-0.517,0.05-1.124,0.095-1.789,0.252c-0.664,0.141-1.385,0.252-2.111,0.516c-0.363,0.118-0.73,0.236-1.098,0.355
			c-0.359,0.158-0.718,0.316-1.07,0.471c-0.716,0.286-1.354,0.724-1.955,1.071c-0.575,0.401-1.093,0.786-1.499,1.14
			c-0.396,0.37-0.716,0.666-0.916,0.878c-0.719,0.807-1.076,1.625-1.134,2.5C327.491,220.006,327.695,220.951,328.189,221.901z"/>
		<path d="M285.501,251.857c2.771-2.173,4.419-3.524,5.819-6.545c0.751-1.594,3.116-6.615,6.235-9.929
			c1.53-1.67,3.186-2.758,4.378-3.17c0.599-0.213,1.088-0.298,1.43-0.347c0.341-0.025,0.533-0.04,0.533-0.04
			c0-0.012,0.193,0,0.538,0.025c0.169,0,0.383,0.016,0.651,0.078c0.263,0.041,0.56,0.091,0.874,0.198
			c1.27,0.34,2.938,1.235,4.442,2.809c1.521,1.532,2.848,3.603,3.811,5.474c0.968,1.875,1.62,3.53,1.938,4.356
			c1.155,3.072,2.671,4.533,5.201,6.979c1.346-3.264,1.822-5.647,0.609-9.145c-0.336-0.946-1.057-2.831-2.202-5.062
			c-1.146-2.224-2.759-4.809-4.914-6.985c-2.099-2.207-4.912-3.819-7.19-4.407c-0.561-0.175-1.086-0.272-1.554-0.345
			c-0.456-0.091-0.879-0.13-1.237-0.142c-0.352-0.018-0.627-0.031-0.814-0.041c-0.188-0.01-0.287,0.006-0.287,0.006
			c0,0-0.398,0.026-1.104,0.074c-0.698,0.085-1.704,0.262-2.836,0.666c-2.286,0.787-4.833,2.584-6.823,4.754
			c-4.047,4.349-6.502,9.822-7.32,11.618C284.229,246.094,284.5,248.473,285.501,251.857z"/>
		<path d="M288.555,372.671c1.292,1.753,2.565,3.077,4.021,4.099c1.46,1.03,3.141,1.706,5.368,2.104
			c2.397,0.44,9.771,1.291,16.602,0.474c0.852-0.065,1.689-0.233,2.509-0.344c0.819-0.112,1.616-0.246,2.376-0.427
			c0.762-0.166,1.491-0.324,2.18-0.474c0.706-0.204,1.379-0.429,1.99-0.622c0.611-0.2,1.169-0.383,1.661-0.543
			c0.46-0.205,0.859-0.383,1.187-0.528c0.654-0.294,1.023-0.46,1.023-0.46s0.369-0.165,1.023-0.457
			c0.635-0.316,1.502-0.821,2.577-1.415c1.104-0.565,2.228-1.407,3.536-2.242c1.27-0.871,2.576-1.879,3.903-2.916
			c5.242-4.217,10.145-9.49,11.681-11.317c2.869-3.345,3.445-6.187,3.596-10.53c-4.107,1.389-6.588,2.322-9.37,5.391
			c-1.482,1.673-6.093,6.607-10.791,10.403c-1.182,0.926-2.342,1.829-3.442,2.59c-1.119,0.711-2.111,1.475-3.016,1.929
			c-0.891,0.492-1.615,0.929-2.13,1.188c-0.52,0.232-0.812,0.362-0.812,0.362s-0.293,0.13-0.812,0.36
			c-0.26,0.116-0.576,0.258-0.94,0.422c-0.368,0.115-0.785,0.245-1.243,0.388c-0.458,0.146-0.957,0.303-1.488,0.472
			c-0.585,0.123-1.205,0.254-1.853,0.391c-0.642,0.155-1.323,0.266-2.027,0.358c-0.705,0.089-1.416,0.238-2.154,0.289
			c-5.881,0.694-12.443-0.045-14.587-0.38c-1.989-0.301-3.602-0.247-5.224,0.021C292.269,371.527,290.639,372.084,288.555,372.671z"
			/>
		<path d="M265.43,409.828c2.871,5.718,5.611,10.371,8.945,14.924c3.35,4.542,7.311,9,13.063,13.998
			c0.978,0.844,2.268,1.946,4.193,3.501c1.938,1.544,4.479,3.572,8.148,6.082c4.071,2.828,11.312,7.35,18.803,9.532
			c3.728,1.097,7.549,1.451,10.404,1.202c0.716-0.069,1.36-0.105,1.932-0.2c0.572-0.129,1.066-0.239,1.471-0.33
			c0.805-0.194,1.251-0.302,1.251-0.302s0.098-0.017,0.261-0.083c0.166-0.062,0.411-0.153,0.728-0.271
			c0.315-0.121,0.702-0.269,1.152-0.44c0.225-0.088,0.464-0.183,0.719-0.282c0.245-0.11,0.484-0.245,0.747-0.378
			c2.162-1.013,4.767-2.787,7.343-4.986c2.562-2.211,4.986-4.894,7.177-7.566c2.199-2.671,4.046-5.387,5.577-7.649
			c3.25-4.934,5.552-9.059,7.311-12.343c1.757-3.285,2.961-5.734,3.783-7.417c3.281-6.826,5.229-12.436,6.595-17.897
			c1.35-5.466,2.146-10.795,2.703-17.168c-3.473,5.358-6.454,9.738-9.263,14.479c-2.824,4.732-5.494,9.811-8.712,16.335
			c-0.806,1.606-1.974,3.951-3.654,7.07c-1.679,3.117-3.872,7.021-6.872,11.566c-1.409,2.067-3.104,4.56-5.03,6.9
			c-1.915,2.344-3.989,4.639-5.995,6.376c-2.009,1.715-3.877,2.987-5.229,3.614c-0.168,0.088-0.326,0.186-0.478,0.254
			c-0.151,0.057-0.294,0.109-0.427,0.158c-0.265,0.103-0.492,0.191-0.678,0.264c-0.369,0.148-0.572,0.235-0.572,0.22
			c0,0-0.24,0.051-0.675,0.142c-0.216,0.051-0.479,0.114-0.785,0.188c-0.316,0.052-0.702,0.053-1.111,0.096
			c-1.648,0.135-4.134-0.044-6.972-0.88c-5.703-1.647-12.297-5.638-16.015-8.221c-3.356-2.287-5.749-4.186-7.569-5.626
			c-1.815-1.454-3.044-2.49-3.979-3.28c-5.503-4.685-9.897-8.341-14.297-11.634C275.033,416.464,270.635,413.526,265.43,409.828z"/>
		<path d="M447.923,319.828c3.131-0.597,6.001-0.695,8.675-0.618c2.674,0.089,5.162,0.427,7.533,0.989
			c2.371,0.572,4.619,1.392,6.789,2.588c2.169,1.205,4.26,2.807,6.307,5.082c0.53,0.609,1.211,1.464,1.982,2.39
			c0.777,0.908,1.652,2.048,2.609,3.296c0.953,1.252,2.01,2.564,3.092,4.038c0.989,1.326,2.006,2.688,3.047,4.082
			c3.04,4.117,6.137,8.348,9.249,12.688c12.479,17.338,25.563,36.083,38.57,54.84c3.245,4.694,6.488,9.389,9.718,14.062
			c1.61,2.34,3.217,4.674,4.818,7.001l0.6,0.873c0.144,0.209,0.095,0.138,0.102,0.148l-0.002-0.003l-0.009-0.013l0.006-0.013
			l0.005-0.007l0.002-0.003l-0.293,0.419c-3.219,4.598-6.409,9.156-9.56,13.657c-0.788,1.125-1.572,2.247-2.354,3.364
			c-0.07,0.101-0.05,0.071-0.052,0.074l0.001-0.001l0.002-0.003l0.004-0.006l0.008-0.012l0.02,0.004l0.01,0.01l0.002,0.002
			l0.002,0.001v0.001l-0.047-0.042l-0.752-0.678c-7.229-6.476-14.566-12.658-22.04-18.526c-7.479-5.858-15.082-11.408-23.003-16.388
			c-3.963-2.487-8.012-4.825-12.232-6.904c-4.233-2.06-8.6-3.926-13.455-5.082c-2.427-0.566-4.993-0.96-7.777-0.862
			c-2.749,0.099-5.838,0.709-8.577,2.449c-1.376,0.822-2.568,1.935-3.578,3.112c-1.079,1.347-1.522,2.135-2.163,3.076
			c-1.207,1.842-2.35,3.677-3.47,5.501c-4.44,7.302-8.492,14.433-12.562,21.267c-4.059,6.83-8.098,13.364-12.243,19.469
			c-4.156,6.087-8.403,11.773-12.89,16.736c-2.242,2.476-4.519,4.808-6.887,6.836c-2.357,2.035-4.753,3.89-7.217,5.294
			c-2.452,1.428-4.93,2.507-7.368,3.156c-0.61,0.12-1.217,0.239-1.82,0.357c-0.278,0.071-0.639,0.111-0.999,0.149l-1.062,0.122
			c-1.412,0.144-2.795,0.367-4.178,0.444c-5.512,0.488-10.779,0.379-15.731,0.125c-9.909-0.548-18.606-2.008-26.186-2.481
			c-0.935-0.079-1.893-0.084-2.796-0.126c-0.906-0.04-1.792-0.067-2.681-0.033c-0.88,0.021-1.731,0.039-2.555,0.058
			c-0.844,0.08-1.659,0.156-2.444,0.23c-0.393,0.041-0.775,0.069-1.155,0.121c-0.385,0.072-0.762,0.144-1.131,0.213
			c-0.738,0.145-1.444,0.283-2.12,0.415c-1.35,0.371-2.586,0.793-3.662,1.141c-1.742,0.662-3.07,1.171-3.971,1.483
			c-0.896,0.323-1.357,0.488-1.357,0.488s-0.482,0.177-1.429,0.49c-0.944,0.321-2.349,0.797-4.199,1.358
			c-3.698,1.105-9.172,2.714-16.3,3.825c-3.559,0.595-7.533,0.983-11.861,1.124c-4.326,0.119-9.023-0.02-13.955-0.785
			c-1.233-0.186-2.473-0.447-3.74-0.669c-0.682-0.103-1.159-0.265-1.696-0.403c-0.53-0.115-1.069-0.316-1.613-0.527
			c-2.177-0.81-4.429-2.043-6.678-3.563c-4.504-3.083-8.972-7.239-13.476-11.881c-4.518-4.656-9.061-9.83-14.062-15.194
			c-2.517-2.677-5.134-5.407-8.131-8.072c-1.504-1.33-3.091-2.649-4.898-3.895c-1.837-1.225-3.826-2.437-6.395-3.266
			c-0.677-0.179-1.37-0.338-2.062-0.485c-0.726-0.111-1.518-0.144-2.276-0.182c-0.784,0.012-1.612,0.139-2.411,0.253
			c-0.744,0.176-1.431,0.425-2.141,0.664c-2.436,1.009-4.276,2.128-6.082,3.291c-3.58,2.33-6.882,4.825-10.155,7.422
			c-6.553,5.18-12.941,10.729-19.418,16.461c-12.909,11.493-26.002,23.812-39.32,36.642c-3.316,3.221-6.656,6.464-10.017,9.729
			c-1.418,1.391-2.84,2.786-4.267,4.186l0.03-0.011l0.013,0.02l-1.803-2.805c-1.285-1.999-2.572-4.003-3.863-6.011
			c-1.291-2.009-2.585-4.021-3.882-6.039l-0.486-0.756l-0.239-0.372l0.002,0.002l0.007,0.011l-0.003,0.011l0.002-0.005l0.307-0.731
			c4.073-9.712,8.375-19.684,12.939-29.659c4.511-10.007,9.324-20.001,14.289-29.854c1.203-2.49,2.565-4.865,3.837-7.299
			c1.296-2.416,2.59-4.829,3.88-7.234c2.665-4.754,5.435-9.435,8.254-14.021c1.415-2.291,2.837-4.562,4.281-6.799
			c0.509-0.785,1.015-1.566,1.517-2.342c0.541-0.822,1.075-1.634,1.601-2.431c4.214-6.367,8.053-11.634,10.126-14.392
			c4.369-5.799,7.657-10.377,10.802-14.666c1.58-2.138,3.117-4.222,4.878-6.197c0.449-0.467,0.889-1.009,1.379-1.443l0.738-0.706
			c0.262-0.213,0.525-0.427,0.791-0.643c1.087-0.819,2.316-1.642,3.915-1.839c-1.52-0.589-3.237-0.454-4.784-0.161
			c-0.386,0.085-0.781,0.163-1.163,0.263c-0.371,0.119-0.74,0.236-1.106,0.354c-0.759,0.225-1.422,0.546-2.131,0.833
			c-2.752,1.229-5.185,2.775-7.516,4.515c-4.657,3.502-8.881,7.847-13.505,13.857c-2.196,2.86-6.19,8.31-10.524,14.84
			c-0.539,0.817-1.088,1.649-1.645,2.493c-0.516,0.794-1.034,1.595-1.556,2.399c-1.48,2.293-2.937,4.617-4.384,6.961
			c-2.887,4.693-5.719,9.477-8.458,14.365c-1.322,2.464-2.648,4.935-3.977,7.409c-1.3,2.485-2.702,4.938-3.922,7.46
			c-5.051,10.023-9.925,20.146-14.478,30.249c-4.612,10.083-8.942,20.122-13.062,29.95l-1.076,2.596l-0.689,1.673l-0.344,0.837
			l-0.086,0.209l-0.012,0.202l0.244,0.38c1.059,1.649,2.117,3.296,3.175,4.941c1.296,2.018,2.591,4.03,3.882,6.038
			c3.27,5.087,6.525,10.15,9.764,15.187l1.922,2.99c0.163,0.223,0.313,0.558,0.487,0.687l0.631-0.627l1.262-1.256
			c1.682-1.669,3.361-3.337,5.039-5.002c1.928-1.894,3.851-3.783,5.768-5.666c3.344-3.249,6.666-6.477,9.966-9.683
			c13.249-12.768,26.273-25.024,39.023-36.38c6.384-5.653,12.69-11.128,18.983-16.104c3.136-2.494,6.296-4.866,9.393-6.88
			c1.527-1.007,3.117-1.893,4.302-2.391c0.224-0.054,0.455-0.165,0.654-0.227c0.173,0.02,0.312-0.038,0.496-0.048
			c0.209,0.044,0.396,0.024,0.625,0.053c0.253,0.075,0.504,0.129,0.766,0.179c1.123,0.357,2.467,1.112,3.781,1.998
			c1.326,0.911,2.649,1.999,3.944,3.146c2.594,2.301,5.076,4.873,7.496,7.45c4.836,5.181,9.454,10.439,14.182,15.312
			c4.739,4.869,9.567,9.426,14.986,13.145c2.726,1.839,5.616,3.462,8.755,4.632c0.78,0.299,1.562,0.58,2.396,0.779
			c0.812,0.217,1.663,0.458,2.343,0.559c1.438,0.256,2.85,0.548,4.246,0.757c5.591,0.862,10.859,1.018,15.672,0.883
			c4.814-0.156,9.198-0.595,13.086-1.242c7.799-1.223,13.67-2.953,17.628-4.139c1.98-0.602,3.473-1.107,4.477-1.45
			c1.008-0.335,1.518-0.521,1.518-0.521c0,0,0.488-0.176,1.438-0.517c0.955-0.333,2.354-0.866,4.188-1.563
			c2.772-1.139,7.537-1.846,14.429-1.376c3.431,0.214,7.371,0.683,11.748,1.172c4.375,0.502,9.232,1.032,14.513,1.322
			c5.278,0.274,10.996,0.394,17.053-0.137c1.515-0.087,3.043-0.324,4.596-0.485l1.168-0.136c0.386-0.042,0.774-0.085,1.233-0.185
			c0.879-0.175,1.764-0.352,2.654-0.528c3.489-0.916,6.801-2.387,9.897-4.191c3.121-1.791,5.95-3.989,8.676-6.34
			c2.735-2.349,5.264-4.94,7.721-7.651c4.907-5.432,9.382-11.438,13.712-17.775c4.312-6.348,8.453-13.046,12.566-19.965
			c4.116-6.909,8.192-14.075,12.505-21.16c1.082-1.763,2.179-3.523,3.307-5.243c1.326-2.042,1.753-2.66,2.755-3.268
			c1.776-1.209,5.309-1.287,9-0.372c3.711,0.873,7.58,2.48,11.385,4.344c3.815,1.879,7.605,4.062,11.356,6.418
			c7.507,4.719,14.883,10.097,22.166,15.804c7.279,5.717,14.479,11.786,21.545,18.117l2.178,1.97
			c0.99,0.917,1.982,1.835,2.978,2.755c0.994,0.936,1.991,1.874,2.989,2.813l0.374,0.352l0.187,0.176
			c0.061,0.04,0.132,0.181,0.174,0.054l0.583-0.833l1.168-1.669c2.315-3.307,4.647-6.639,6.996-9.993
			c3.15-4.5,6.342-9.059,9.561-13.656l2.129-3.043l1.214-1.734c0.329-0.579,1.149-1.156,0.396-1.74
			c-1.363-1.989-2.73-3.981-4.099-5.977c-1.604-2.331-3.213-4.669-4.826-7.013c-3.233-4.681-6.481-9.381-9.731-14.083
			c-13.028-18.788-26.127-37.553-38.679-54.982c-3.13-4.362-6.252-8.628-9.333-12.797c-1.059-1.415-2.094-2.799-3.101-4.145
			c-1.094-1.483-2.212-2.871-3.197-4.154c-0.99-1.281-1.896-2.452-2.796-3.498c-0.883-1.047-1.601-1.935-2.273-2.688
			c-1.467-1.616-3.077-2.982-4.725-4.128c-1.659-1.141-3.396-1.999-5.106-2.662c-3.451-1.294-6.83-1.67-9.95-1.479
			c-3.129,0.202-6.031,0.933-8.787,2.064C453.081,316.33,450.425,317.82,447.923,319.828z"/>
		<path fill="#FFFFFF" d="M97.691,537.507l-4.541,4.559c0,0,2.478,12.781,2.062,17.324c-0.411,4.543,3.718,18.578,4.13,21.883
			c0.412,3.299-1.239,5.779-4.954,2.889c-3.715-2.889-7.845-23.121-11.56-23.947s-25.601,12.387-25.601,12.387
			s-26.835,21.883-30.137,18.58c-3.305-3.305,22.294-24.775,22.294-24.775l-1.653-3.191c0,0-30.963,21.359-34.266,16.406
			c-3.304-4.955,30.652-27.25,30.652-27.25s0.825-2.471-2.066-2.057c-2.89,0.412-30.073,14.553-31.477,11.139
			c-3.521-8.557,27.662-18.58,28.074-19.818c0.413-1.24-2.89-3.191-2.89-3.191l-21.47,4.238c0,0-2.354-0.281-3.622-1.037
			c-1.81-1.076-1.745-2.697,1.146-5.586c2.889-2.893,22.294-6.092,27.661-7.746c5.366-1.65,25.564-5.297,28.865-5.711
			c3.303-0.412,15.19-6.854,15.19-6.854L97.691,537.507z"/>
		<path fill="#FFFFFF" d="M545.383,456.519l4.396,4.701c0,0-2.876,12.697-2.606,17.248c0.269,4.555-4.297,18.455-4.814,21.744
			c-0.515,3.285,1.059,5.814,4.863,3.043c3.804-2.77,8.564-22.863,12.306-23.572c3.738-0.709,25.197,13.184,25.197,13.184
			s26.136,22.711,29.541,19.516c3.405-3.197-21.507-25.459-21.507-25.459l1.751-3.141c0,0,30.279,22.318,33.737,17.473
			c3.455-4.85-29.782-28.199-29.782-28.199s-0.749-2.494,2.127-1.99c2.875,0.502,29.602,15.49,31.112,12.121
			c3.789-8.441-27.065-19.438-27.438-20.688c-0.374-1.252,2.99-3.102,2.99-3.102l21.325,4.912c0,0,2.361-0.209,3.653-0.926
			c1.841-1.02,1.827-2.639-0.971-5.619s-22.094-6.787-27.406-8.607s-25.384-6.1-28.672-6.613
			c-3.287-0.518-14.968-7.326-14.968-7.326L545.383,456.519z"/>
	</g>
</g>
</svg>
