<?xml version="1.0" encoding="utf-8"?>
<!-- Generator: Adobe Illustrator 16.0.0, SVG Export Plug-In . SVG Version: 6.00 Build 0)  -->
<!DOCTYPE svg PUBLIC "-//W3C//DTD SVG 1.1//EN" "http://www.w3.org/Graphics/SVG/1.1/DTD/svg11.dtd">
<svg version="1.1" xmlns="http://www.w3.org/2000/svg" xmlns:xlink="http://www.w3.org/1999/xlink" x="0px" y="0px" width="640px"
	 height="640px" viewBox="0 0 640 640" enable-background="new 0 0 640 640" xml:space="preserve">
<g id="couleurs">
</g>
<g id="traits">
	<g>
		<path fill="#B3DFEF" d="M190.5,319.75c0.135-71.406,58.062-129.25,129.5-129.25c57.372,0,106.032,37.312,123.038,88.992
			c0.02,0.023,0.038,0.044,0.058,0.067c35.333,41.333,10,94.667,10,94.667s-13.062,23.516-38.729,34.459
			C390.746,433.81,357.205,449.5,320,449.5c-19.26,0-37.541-4.206-53.969-11.747c-3.954,3.339-6.936,5.14-6.936,5.14
			s-63.333-1.333-73.333-78C183.637,348.59,185.79,333.465,190.5,319.75 M320,0C143.268,0,0,143.269,0,320
			C0,496.73,143.268,640,320,640c176.728,0,320-143.271,320-320C640,143.269,496.728,0,320,0"/>
		<path fill="#77CBEA" d="M327.096,293.56l-36.667,10c-14,2.667-43.333,3.333-43.333,3.333l5.333,8l-0.666,26.667l-3.334,16.667
			c0,0,1.59,8.042-4.421,8.042c-0.979,0-2.159-0.214-3.579-0.709c-1.51-0.527-3.026-0.793-4.469-0.793
			c-8.25,0-14.015,8.733-1.531,27.46c6.453,9.68,13.938,12.391,20.3,12.391c8.095,0,14.367-4.391,14.367-4.391l15.333-6
			c4.631,20.378-9.399,35.931-18.397,43.526C282.459,445.294,300.74,449.5,320,449.5c37.205,0,70.746-15.69,94.367-40.814
			c-3.323,1.417-6.86,2.624-10.604,3.541c-2.155,0.528-4.182,0.773-6.095,0.773c-27.078,0-30.572-49.44-30.572-49.44
			s10.667,8,17.333,12.667c2.029,1.421,4.119,1.914,6.046,1.914c4.404,0,7.954-2.581,7.954-2.581s10.667-6,15.334-26.667
			c1.824-8.081-0.326-11.983-3.622-13.738c-0.928-0.281-1.801-0.455-2.546-0.455c-0.438,0-0.832,0.06-1.165,0.193
			c-0.139,0.055-0.302,0.082-0.488,0.082c-0.718,0-1.777-0.396-3.051-1.073c-3.189,0.177-5.795,0.991-5.795,0.991
			s-6.156-8.395-10.264-13.902c-1.628-1.727-2.77-3.198-3.069-4.097c0,0,0.063-0.272,0.196-0.744
			c-3.15-7.646-5.53-21.923-5.53-21.923s-11.333,2-15.333,2S327.096,293.56,327.096,293.56 M320,190.5
			c-71.438,0-129.365,57.844-129.5,129.25c17.441-50.779,69.929-82.19,69.929-82.19l20-7.333l2.667-14l18.667,7.333l9.333-12.667
			l6.667,14c0,0,3.265-0.435,10.912-0.435c0.06,0,0.119,0,0.179,0c0.157-0.151,0.243-0.231,0.243-0.231
			c-0.051-0.154,0.209-0.225,0.733-0.225c0.867,0,2.455,0.194,4.548,0.528c5.105,0.124,11.512,0.424,19.385,1.03
			c25.985,1.999,53.97,12.656,89.275,53.933C426.032,227.812,377.372,190.5,320,190.5"/>
		<path fill="#C5D6D2" d="M386.832,320.991c4.107,5.508,10.264,13.902,10.264,13.902s2.605-0.814,5.795-0.991
			C398.317,331.467,390.989,325.399,386.832,320.991 M201.043,374.745c-6.551,0-13.28-8.534-13.28-15.185
			c0-9.333,9.334-41.333,9.334-41.333l0,0c0.004,0,4.67,0.001,13.333,4.666c7.009,3.774,5.734,18.885,7.811,18.885
			c0.491,0,1.169-0.845,2.189-2.885c4.232-8.465,4.687-19.03,6.693-19.03c0.521,0,1.148,0.714,1.974,2.364
			c3.458,6.915,3.927,15.324,6.143,15.324c0.349,0,0.738-0.206,1.19-0.658c3.333-3.333,14-8.666,14-8.666l0,0l0,0l-4,26.666
			c0,0-5.704-3.499-12.632-3.499c-1.418,0-2.886,0.146-4.368,0.499c-10.5,2.5-17,11.5-21,18
			C206.299,373.355,203.685,374.745,201.043,374.745 M311.096,210.893l-9.333,12.667l-18.667-7.333l-2.667,14l-20,7.333
			c0,0-52.487,31.411-69.929,82.19c-4.71,13.715-6.863,28.84-4.737,45.143c10,76.667,73.333,78,73.333,78s2.981-1.801,6.936-5.14
			c8.998-7.596,23.028-23.148,18.397-43.526l-15.333,6c0,0-6.272,4.391-14.367,4.391c-6.361,0-13.847-2.711-20.3-12.391
			c-12.483-18.727-6.719-27.46,1.531-27.46c1.442,0,2.959,0.266,4.469,0.793c1.42,0.495,2.601,0.709,3.579,0.709
			c6.011,0,4.421-8.042,4.421-8.042l3.334-16.667l0.666-26.667l-5.333-8c0,0,29.333-0.666,43.333-3.333l36.667-10
			c0,0,32,2.667,36,2.667s15.333-2,15.333-2s2.38,14.277,5.53,21.923c0.876-3.1,4.761-14.827,13.451-14.827
			c1.335,0,2.783,0.277,4.353,0.904c5.926,2.37,10.009,3.556,12.95,3.556c3.676,0,5.568-1.852,7.05-5.556
			c2.297-5.741,8.548-18.403,15.349-18.403c1.097,0,2.207,0.329,3.318,1.07c8,5.333,16,40.667,16,40.667s-1.764,16.311-6.365,16.311
			c-1.058,0-2.265-0.86-3.635-2.978c-5.218-8.064-10.1-17.143-13.442-17.144c-1.354,0-2.456,1.49-3.225,5.144
			c-2.666,12.667-10.666,14.667-10.666,14.667s-4.974-3.197-8.956-4.405c3.296,1.755,5.446,5.657,3.622,13.738
			c-4.667,20.667-15.334,26.667-15.334,26.667s-3.55,2.581-7.954,2.581c-1.927,0-4.017-0.493-6.046-1.914
			c-6.666-4.667-17.333-12.667-17.333-12.667S370.59,413,397.668,413c1.913,0,3.939-0.245,6.095-0.773
			c3.744-0.917,7.281-2.124,10.604-3.541c25.666-10.943,38.729-34.459,38.729-34.459s25.333-53.334-10-94.667
			c-0.02-0.023-0.038-0.044-0.058-0.067c-35.306-41.277-63.29-51.934-89.275-53.933c-7.873-0.605-14.279-0.906-19.385-1.03
			c13.108,2.094,46.052,9.697,46.052,9.697s-12,2.667-9.333,9.333s6,4,4,9.333s-5.334,4.667-6.667,16s9.333,18.667,4,23.333
			c-1.496,1.31-6.141,1.832-11.961,1.832c-14.926,0-37.584-3.434-34.706-5.832c4-3.333-1.333-14.667-10.666-19.333
			s2-10,11.333-10.667s10-5.333-2.667-11.333c-11.79-5.584,2.987-20.409,5.091-22.436c-0.06,0-0.119,0-0.179,0
			c-7.647,0-10.912,0.435-10.912,0.435L311.096,210.893"/>
		<path fill="#5BB7CD" d="M329.83,224.002c-0.524,0-0.784,0.071-0.733,0.225c0,0-0.086,0.08-0.243,0.231
			c1.64,0.001,3.478,0.023,5.524,0.072C332.285,224.196,330.697,224.002,329.83,224.002"/>
		<path fill="#A5BFB8" d="M328.854,224.458c-2.104,2.027-16.881,16.851-5.091,22.436c12.667,6,12,10.667,2.667,11.333
			s-20.666,6-11.333,10.667s14.666,16,10.666,19.333c-2.878,2.398,19.78,5.832,34.706,5.832c5.82,0,10.465-0.522,11.961-1.832
			c5.333-4.667-5.333-12-4-23.333s4.667-10.667,6.667-16s-1.333-2.667-4-9.333s9.333-9.333,9.333-9.333s-32.943-7.603-46.052-9.697
			C332.331,224.481,330.493,224.459,328.854,224.458"/>
		<path fill="#A5BFB8" d="M197.097,318.227L197.097,318.227c0,0-9.334,32-9.334,41.333c0,6.65,6.729,15.185,13.28,15.185
			c2.642,0,5.256-1.39,7.387-4.852c4-6.5,10.5-15.5,21-18c1.482-0.353,2.95-0.499,4.368-0.499c6.928,0,12.632,3.499,12.632,3.499
			l4-26.666c0,0-10.667,5.333-14,8.666c-0.452,0.452-0.842,0.658-1.19,0.658c-2.216,0-2.685-8.409-6.143-15.324
			c-0.825-1.65-1.452-2.364-1.974-2.364c-2.007,0-2.461,10.565-6.693,19.03c-1.021,2.04-1.698,2.885-2.189,2.885
			c-2.076,0-0.802-15.11-7.811-18.885C201.767,318.228,197.101,318.227,197.097,318.227"/>
		<path fill="#5BB7CD" d="M404.084,333.868c-0.404,0-0.803,0.012-1.193,0.034c1.273,0.677,2.333,1.073,3.051,1.073
			c0.187,0,0.35-0.027,0.488-0.082c0.333-0.134,0.727-0.193,1.165-0.193c0.745,0,1.618,0.174,2.546,0.455
			C408.313,334.181,406.134,333.868,404.084,333.868 M383.959,316.149c-0.133,0.472-0.196,0.744-0.196,0.744
			c0.3,0.899,1.441,2.371,3.069,4.097c-0.376-0.504-0.734-0.983-1.069-1.431C385.143,318.733,384.538,317.553,383.959,316.149"/>
		<path fill="#A5BFB8" d="M437.111,281.824c-6.801,0-13.052,12.663-15.349,18.403c-1.481,3.704-3.374,5.556-7.05,5.556
			c-2.941,0-7.024-1.186-12.95-3.556c-1.569-0.627-3.018-0.904-4.353-0.904c-8.69,0-12.575,11.727-13.451,14.827
			c0.579,1.403,1.184,2.583,1.804,3.411c0.335,0.447,0.693,0.927,1.069,1.431c4.157,4.408,11.485,10.477,16.059,12.911
			c0.391-0.022,0.789-0.034,1.193-0.034c2.05,0,4.229,0.313,6.057,1.287c3.982,1.208,8.956,4.405,8.956,4.405s8-2,10.666-14.667
			c0.769-3.653,1.87-5.144,3.225-5.144c3.343,0.001,8.225,9.079,13.442,17.144c1.37,2.117,2.577,2.978,3.635,2.978
			c4.602,0,6.365-16.311,6.365-16.311s-8-35.333-16-40.667C439.318,282.153,438.208,281.824,437.111,281.824"/>
		<path d="M306.217,337.305c0.121-1.344,0.317-2.364,0.385-3.319c0.076-0.95,0.005-1.82-0.156-2.828
			c-0.123-0.548-0.229-1.638-0.041-2.804c0.212-1.154,0.783-2.357,1.913-3.275c0.223-0.263,0.596-0.429,0.871-0.648
			c0.297-0.205,0.562-0.43,0.912-0.566c0.326-0.159,0.638-0.312,0.933-0.455c0.146-0.074,0.288-0.146,0.426-0.214
			c0.159-0.062,0.312-0.12,0.459-0.177c1.177-0.47,1.939-0.704,1.939-0.704s0.765-0.27,1.944-0.56
			c1.173-0.279,2.779-0.575,4.307-0.512c1.549,0.031,2.866,0.518,3.712,1.192c0.857,0.679,1.346,1.556,1.569,2.019
			c0.406,0.856,0.839,1.564,1.401,2.306c0.555,0.747,1.273,1.5,2.049,2.597c0.87-1.043,1.422-2.09,1.68-3.22
			c0.246-1.131,0.184-2.391-0.466-3.87c-0.354-0.774-1.201-2.444-3.012-3.897c-1.794-1.469-4.455-2.28-6.725-2.306
			c-2.301-0.079-4.312,0.333-5.748,0.678c-1.435,0.361-2.308,0.675-2.308,0.675c0,0-0.9,0.272-2.228,0.794
			c-0.167,0.064-0.343,0.13-0.524,0.2c-0.19,0.091-0.389,0.186-0.593,0.283c-0.407,0.198-0.84,0.407-1.29,0.626
			c-0.455,0.191-0.902,0.521-1.364,0.838c-0.452,0.341-0.951,0.599-1.381,1.04c-1.873,1.498-3.243,4.056-3.581,6.226
			c-0.151,0.545-0.116,1.056-0.168,1.541c-0.048,0.489-0.024,0.928,0.012,1.324c0.034,0.808,0.151,1.423,0.24,1.829
			c0.3,1.514,0.937,2.541,1.737,3.345C303.926,336.258,304.947,336.843,306.217,337.305z"/>
		<path d="M275.645,334.248c0.28-2.509,0.461-4.007-0.217-6.281c-0.176-0.614-0.523-1.854-0.75-3.353
			c-0.225-1.494-0.28-3.251,0.069-4.72c0.327-1.483,1.079-2.583,1.797-3.257c0.19-0.162,0.363-0.308,0.517-0.438
			c0.171-0.115,0.318-0.215,0.44-0.296c0.231-0.177,0.408-0.23,0.4-0.238c0,0,0.15-0.081,0.418-0.223
			c0.276-0.11,0.689-0.33,1.186-0.458c0.497-0.182,1.079-0.251,1.702-0.302c0.621-0.003,1.281,0.081,1.945,0.301
			c1.336,0.416,2.653,1.461,3.648,2.526c1,1.071,1.705,2.125,2.05,2.649c1.253,1.972,2.485,2.821,4.525,4.306
			c0.515-2.479,0.51-4.264-0.91-6.62c-0.396-0.632-1.216-1.895-2.51-3.29c-1.286-1.374-3.134-2.927-5.445-3.672
			c-1.138-0.377-2.337-0.533-3.431-0.51c-1.084,0.066-2.072,0.229-2.838,0.498c-0.795,0.225-1.366,0.521-1.792,0.704
			c-0.409,0.218-0.639,0.34-0.639,0.34s-0.058,0.031-0.166,0.089c-0.11,0.054-0.267,0.146-0.462,0.282
			c-0.195,0.132-0.434,0.293-0.709,0.479c-0.263,0.209-0.554,0.458-0.872,0.731c-1.248,1.122-2.583,3.166-3.062,5.414
			c-0.526,2.239-0.411,4.514-0.14,6.336c0.28,1.828,0.694,3.249,0.914,3.952C272.154,331.778,273.467,332.957,275.645,334.248z"/>
		<path d="M336.398,315.188c0.994-2.32,1.602-3.702,1.61-6.075c0.009-0.64,0.036-1.927,0.253-3.427
			c0.217-1.495,0.672-3.193,1.432-4.497c0.742-1.326,1.78-2.16,2.663-2.598c0.229-0.099,0.437-0.19,0.621-0.27
			c0.196-0.061,0.367-0.113,0.507-0.157c0.272-0.102,0.458-0.102,0.452-0.112c0,0,0.167-0.033,0.464-0.092
			c0.297-0.025,0.757-0.116,1.269-0.096c0.528-0.031,1.105,0.072,1.717,0.204c0.595,0.177,1.202,0.448,1.774,0.852
			c1.158,0.784,2.117,2.166,2.761,3.474c0.647,1.314,1.018,2.528,1.196,3.13c0.629,2.249,1.562,3.419,3.086,5.43
			c1.21-2.223,1.722-3.934,1.045-6.6c-0.197-0.72-0.616-2.166-1.451-3.875c-0.833-1.687-2.152-3.709-4.15-5.091
			c-0.979-0.691-2.082-1.187-3.135-1.481c-1.058-0.251-2.051-0.38-2.861-0.345c-0.825-0.015-1.458,0.104-1.919,0.155
			c-0.454,0.09-0.71,0.141-0.71,0.141s-0.063,0.013-0.185,0.037c-0.12,0.02-0.298,0.062-0.523,0.136
			c-0.226,0.07-0.501,0.155-0.817,0.254c-0.312,0.124-0.663,0.279-1.047,0.448c-1.52,0.712-3.389,2.283-4.497,4.296
			c-1.152,1.991-1.7,4.202-1.968,6.025c-0.26,1.831-0.275,3.311-0.269,4.047C333.772,311.813,334.688,313.321,336.398,315.188z"/>
		<path d="M287.873,360.539c2.162,1.851,4.176,3.208,6.421,4.375c2.257,1.143,4.771,2.097,8.11,2.822
			c1.142,0.196,2.979,0.639,6.902,0.988c2.57,0.258,6.969,0.239,10.681-0.339c0.925-0.166,1.81-0.324,2.616-0.469
			c0.799-0.183,1.51-0.409,2.112-0.569c0.602-0.169,1.09-0.307,1.428-0.401c0.339-0.086,0.52-0.172,0.52-0.172
			s0.613-0.245,1.618-0.648c0.502-0.204,1.101-0.448,1.77-0.721c0.631-0.346,1.327-0.727,2.063-1.131
			c0.367-0.203,0.744-0.412,1.129-0.624c0.369-0.233,0.725-0.498,1.095-0.751c0.728-0.52,1.495-1.02,2.198-1.57
			c1.354-1.158,2.707-2.246,3.672-3.302c0.466-0.47,0.909-0.917,1.331-1.344c0.39-0.451,0.76-0.879,1.111-1.284
			c0.7-0.812,1.327-1.533,1.812-2.217c0.505-0.671,0.942-1.253,1.317-1.752c0.348-0.516,0.638-0.946,0.873-1.297
			c1.911-2.835,3.028-5.281,3.836-7.677c0.802-2.396,1.299-4.77,1.585-7.599c-1.575,2.358-2.999,4.205-4.398,6.182
			c-1.401,1.971-2.774,4.072-4.578,6.689c-0.222,0.324-0.494,0.723-0.82,1.201c-0.35,0.46-0.756,0.996-1.225,1.614
			c-0.451,0.634-1.028,1.289-1.671,2.032c-0.321,0.371-0.66,0.763-1.018,1.176c-0.383,0.385-0.785,0.789-1.208,1.214
			c-0.879,0.964-2.09,1.922-3.295,2.967c-0.625,0.489-1.301,0.923-1.94,1.387c-0.324,0.224-0.638,0.461-0.96,0.667
			c-0.335,0.185-0.664,0.365-0.983,0.541c-0.639,0.355-1.242,0.691-1.789,0.995c-0.576,0.234-1.092,0.443-1.523,0.619
			c-0.862,0.354-1.388,0.569-1.388,0.569s-0.152,0.075-0.457,0.148c-0.3,0.082-0.733,0.201-1.269,0.348
			c-0.536,0.14-1.163,0.342-1.876,0.502c-0.721,0.127-1.512,0.266-2.338,0.41c-3.325,0.507-7.321,0.527-9.688,0.302
			c-3.606-0.316-5.324-0.722-6.385-0.891c-3.114-0.646-5.561-1.172-7.942-1.595C292.946,361.487,290.64,361.158,287.873,360.539z"/>
		<path d="M233.456,302.454c3.995,4.249,7.104,6.555,12.842,7.256c3.113,0.381,12.499,1.177,21.135,1.07
			c2.158-0.008,4.268-0.034,6.218-0.128c1.95-0.062,3.74-0.142,5.261-0.265c1.52-0.105,2.77-0.191,3.64-0.25
			c0.869-0.087,1.359-0.136,1.359-0.136s1.959-0.193,4.995-0.491c1.515-0.203,3.298-0.441,5.239-0.7
			c1.94-0.271,4.019-0.666,6.156-1.018c2.135-0.406,4.318-0.863,6.44-1.337c2.122-0.54,4.184-1.003,6.073-1.604
			c3.779-1.066,6.87-2.329,8.403-2.992c2.83-1.274,4.873-2.856,6.375-4.97c0.378-0.495,0.714-1.079,1.016-1.656
			c0.307-0.561,0.568-1.198,0.79-1.843c0.418-1.281,0.771-2.759,0.513-4.233c-1.272,0.662-2.497,0.748-3.596,0.893
			c-1.074,0.104-2.089,0.202-3.109,0.301c-1.954,0.245-3.867,0.667-6.196,1.638c-1.279,0.502-3.856,1.549-7.247,2.496
			c-1.658,0.529-3.559,0.95-5.48,1.445c-1.951,0.436-3.973,0.863-5.96,1.248c-2.006,0.334-3.959,0.715-5.775,0.975
			c-1.817,0.251-3.486,0.481-4.904,0.677c-2.851,0.295-4.69,0.485-4.69,0.485s-0.461,0.044-1.277,0.122
			c-0.82,0.052-1.999,0.127-3.432,0.218c-1.431,0.11-3.121,0.177-4.964,0.228c-1.84,0.083-3.834,0.1-5.876,0.102
			c-8.171,0.082-17.067-0.674-20.014-0.946C241.934,298.525,238.704,299.96,233.456,302.454z"/>
		<path d="M262.499,274.939c6.257,4.567,11.779,8.075,17.874,11.137c6.111,3.028,12.791,5.719,21.657,8.043
			c1.488,0.433,3.485,0.875,6.367,1.581c2.87,0.742,6.705,1.493,11.866,2.56c1.793,0.3,4.814,0.805,7.387,1.236
			c1.281,0.23,2.476,0.346,3.338,0.451c0.862,0.1,1.4,0.163,1.4,0.163s1.796,0.233,4.09,0.531c1.143,0.172,2.432,0.257,3.682,0.348
			c1.249,0.089,2.459,0.175,3.468,0.246c7.132,0.46,13.002,0.308,17.663-0.093c4.644-0.232,8.123-0.988,10.506-1.435
			c4.824-1.062,9.223-2.721,13.017-5.319c0.954-0.598,1.835-1.408,2.692-2.128c0.418-0.395,0.814-0.828,1.208-1.24l0.577-0.628
			l0.527-0.691c1.419-1.794,2.458-3.906,3.019-6.04c0.575-2.135,0.696-4.289,0.46-6.291c-0.248-2.004-0.811-3.864-1.568-5.591
			c-1.54-3.441-3.778-6.441-6.634-9.068c1.288,3.632,1.819,7.087,1.801,10.165c-0.019,1.538-0.198,2.976-0.534,4.268
			c-0.348,1.291-0.872,2.412-1.516,3.38c-0.643,0.972-1.399,1.805-2.364,2.546l-0.34,0.29l-0.395,0.263
			c-0.259,0.177-0.52,0.356-0.782,0.536c-0.607,0.312-1.123,0.692-1.812,0.978c-2.576,1.256-5.842,2.307-9.799,3.129
			c-1.982,0.335-4.865,0.981-9.024,1.164c-4.106,0.341-9.389,0.479-15.976,0.048c-0.933-0.067-2.053-0.147-3.209-0.23
			c-1.156-0.078-2.348-0.142-3.426-0.295c-2.156-0.251-3.844-0.448-3.844-0.448s-0.503-0.066-1.311-0.172
			c-0.808-0.108-1.922-0.229-3.138-0.462c-2.437-0.409-5.298-0.889-6.997-1.174c-4.925-1.015-8.58-1.716-11.344-2.422
			c-2.768-0.667-4.682-1.076-6.123-1.48c-8.55-2.148-15.301-3.752-21.878-4.861C276.513,276.782,270.154,276.039,262.499,274.939z"
			/>
		<path d="M376.227,293.74c-2.12,2.53-3.163,4.408-2.767,7.35c0.202,1.596,1.056,6.372,2.509,10.691
			c0.324,1.083,0.78,2.127,1.133,3.098c0.412,0.964,0.827,1.843,1.164,2.591c0.799,1.476,1.327,2.42,1.327,2.42
			s0.587,0.937,1.581,2.354c0.283,0.343,0.592,0.715,0.92,1.111c0.326,0.384,0.696,0.853,1.024,1.163
			c0.682,0.696,1.418,1.449,2.173,2.219c2.975,3.122,6.414,6.336,7.568,7.394c2.163,1.926,4.227,2.132,7.52,1.952
			c-0.309-3.281-0.631-5.252-2.645-7.189c-1.077-1.067-4.404-4.175-7.296-7.188c-0.733-0.743-1.45-1.469-2.113-2.14
			c-0.369-0.35-0.554-0.618-0.791-0.892c-0.228-0.268-0.441-0.52-0.638-0.751c-0.713-1.045-1.173-1.72-1.173-1.72
			s-0.401-0.746-1.024-1.9c-0.272-0.617-0.593-1.342-0.941-2.133c-0.292-0.834-0.675-1.692-0.953-2.646
			c-1.248-3.739-2.041-8.104-2.278-9.552C380.061,297.29,378.666,295.953,376.227,293.74z"/>
		<path d="M268.92,371.698c-2.55-0.748-4.108-1.86-5.391-2.712c-1.282-0.867-2.301-1.539-3.746-2.147
			c-0.766-0.34-2.363-1.162-3.86-2.768c-1.502-1.587-2.711-3.95-2.991-6.33c-0.336-2.36,0.295-4.784,1.011-6.383
			c0.048-0.11,0.063-0.175,0.134-0.318c0.079-0.171,0.156-0.338,0.232-0.5c0.134-0.305,0.262-0.594,0.381-0.864
			c0.224-0.531,0.408-0.99,0.553-1.366c0.283-0.752,0.443-1.177,0.443-1.177s0.66-1.681,1.403-4.371
			c0.753-2.686,1.549-6.424,1.771-10.511c0.105-2.043,0.075-4.164-0.134-6.241c-0.236-2.079-0.617-4.105-1.155-5.938
			c-1.061-3.676-2.649-6.5-3.542-7.795c-1.625-2.433-3.513-3.906-5.626-4.646c-2.079-0.788-4.406-0.874-6.998-0.591
			c0.697,2.575,1.069,4.526,1.522,6.25c0.496,1.688,1.038,3.135,2.029,4.719c0.552,0.851,1.533,2.637,2.233,5.069
			c0.354,1.214,0.61,2.596,0.783,4.054c0.146,1.466,0.175,3.015,0.103,4.548c-0.154,3.071-0.761,6.067-1.36,8.236
			c-0.587,2.179-1.11,3.537-1.11,3.537s-0.13,0.337-0.359,0.936c-0.12,0.291-0.267,0.646-0.436,1.057
			c-0.193,0.428-0.411,0.913-0.651,1.444c-0.705,1.526-1.301,3.306-1.714,5.395c-0.401,2.076-0.527,4.426-0.229,6.791
			c0.289,2.366,0.997,4.729,2.023,6.845c1.021,2.12,2.351,3.992,3.772,5.515c2.854,3.064,6.022,4.671,7.635,5.307
			c3.014,1.183,5.802,1.09,8.076,0.118C265.996,375.896,267.806,374.083,268.92,371.698z"/>
		<path d="M386.775,348.77c2.76-2.697,5.506-4.877,8.186-6.671c2.653-1.761,5.417-3.157,7.679-3.481
			c1.129-0.179,1.961,0.019,2.548,0.323c0.589,0.312,1.15,0.763,1.869,1.626c0.808,0.982,1.21,1.761,1.544,2.843
			c0.315,1.065,0.47,2.404,0.37,4.015c-0.013,0.219-0.026,0.451-0.041,0.696c-0.038,0.255-0.078,0.524-0.12,0.807
			c-0.051,0.559-0.234,1.204-0.365,1.888c-0.362,1.386-0.888,3.003-1.666,4.779c-0.771,1.776-1.815,3.695-3.089,5.658l-0.118,0.186
			l-0.095,0.15l-0.141,0.202l-0.282,0.406c-0.37,0.547-0.754,1.086-1.163,1.609c-0.792,1.067-1.662,2.081-2.557,3.067
			c-1.789,1.97-3.823,3.707-5.856,4.999c-1.012,0.604-2.021,1.09-2.878,1.354c-0.855,0.252-1.437,0.217-1.646,0.156l-0.076-0.006
			l-0.205-0.078l-0.411-0.153l-0.828-0.292c-0.548-0.23-1.083-0.53-1.635-0.778l-1.607-0.982c-0.515-0.401-1.049-0.765-1.564-1.184
			c-0.497-0.458-1.029-0.854-1.513-1.354l-0.735-0.732c-0.665-0.671-1.176-1.364-1.721-2.034l-1.63-2.033l-1.549-2.492l-0.775-1.25
			c-0.128-0.179-0.262-0.478-0.396-0.76l-0.399-0.844l-1.601-3.379c-1.191-2.586-2.385-5.179-3.582-7.778
			c-0.369-1.132-0.467-0.206-0.65,0.062l-0.416,0.913l-0.681,1.497c-0.837,1.826-1.677,3.661-2.521,5.504
			c-1.011,2.22-2.064,4.323-2.815,7.084l-0.307,0.982c-0.093,0.341-0.147,0.739-0.223,1.106l-0.424,2.25
			c-0.372,1.427-0.348,3.192-0.448,4.854l-0.12,2.521l0.168,2.618l0.042,0.634l0.04,0.386l0.081,0.772l0.084,0.773l0.152,0.762
			c0.211,1.016,0.422,2.032,0.633,3.052c0.255,1.006,0.607,1.983,0.915,2.978l0.484,1.484c0.185,0.484,0.41,0.95,0.615,1.426
			l1.278,2.84c0.467,0.922,1.023,1.787,1.537,2.683l0.792,1.331c0.258,0.449,0.528,0.889,0.848,1.285l1.84,2.454
			c0.614,0.82,1.224,1.65,1.938,2.36l2.073,2.221c0.692,0.742,1.379,1.496,2.152,2.125l2.263,1.979l1.136,0.988
			c0.379,0.329,0.735,0.658,1.238,0.988c0.938,0.651,1.871,1.32,2.836,1.932l3.044,1.568c4.17,1.85,8.632,2.731,12.994,2.893
			c1.086-0.001,2.194,0.1,3.264-0.004l3.227-0.247c2.104-0.335,4.231-0.633,6.258-1.213c2.075-0.46,4.024-1.217,6.014-1.888
			c1.913-0.82,3.872-1.569,5.69-2.563c7.432-3.72,13.954-8.902,19.569-14.856c11.23-11.959,18.292-27.479,20.72-43.314
			c2.482-15.896,0.401-31.866-3.961-46.292c-4.428-14.479-11.416-27.809-20.14-39.041c-4.353-5.625-9.113-10.743-14.124-15.322
			c-5.034-4.557-10.309-8.573-15.666-12.085c-5.357-3.512-10.791-6.545-16.221-9.047c-5.422-2.509-10.77-4.666-16.019-6.313
			c-0.653-0.216-1.303-0.43-1.948-0.643c-0.653-0.188-1.303-0.374-1.948-0.56c-1.293-0.367-2.57-0.73-3.832-1.089
			c-1.274-0.31-2.533-0.616-3.775-0.918c-0.622-0.15-1.239-0.298-1.853-0.446c-0.619-0.125-1.233-0.249-1.843-0.372
			c-1.221-0.245-2.425-0.486-3.612-0.725c-1.194-0.195-2.371-0.387-3.531-0.577c-2.317-0.407-4.584-0.654-6.774-0.916
			c-8.771-0.987-16.434-1.072-22.694-0.86c-0.783,0.028-1.545,0.055-2.285,0.082c-0.362,0.013-0.719,0.026-1.069,0.039
			c-0.132,0.01-0.263,0.02-0.391,0.029c-0.256,0.019-0.504,0.038-0.743,0.055l-0.178,0.014l-0.025,0.002v0.002
			c0.047,0.607-0.118-1.582-0.204-2.328c-0.096-0.927-0.175-1.449-0.175-1.449s-0.001-0.006-0.021-0.143
			c-0.017-0.133-0.058-0.407-0.152-0.958c-0.12-0.576-0.224-1.373-0.738-2.903c-0.295-0.774-0.6-1.732-1.651-3.147
			c-0.571-0.706-1.284-1.513-2.508-2.21l-0.221-0.126l-0.111-0.061l-0.056-0.03l-0.472-0.212l-0.134-0.054l-0.275-0.112
			l-0.173-0.067c-0.188-0.065-0.383-0.126-0.58-0.182c-0.396-0.111-0.808-0.202-1.225-0.267c-0.302-0.05-0.776-0.098-1.904-0.047
			c-0.522,0.068-1.271,0.173-2.014,0.444c-0.362,0.135-0.801,0.303-1.188,0.506c-0.358,0.199-0.778,0.442-1.157,0.709
			c-1.497,1.075-2.628,2.479-3.625,4.045c-0.977,1.561-1.84,3.349-2.745,5.373c-0.427,0.949-0.896,1.991-1.411,3.137
			c-0.115,0.24-0.233,0.486-0.354,0.737l-0.003,0.01v0l0.002,0h0.001l0.003,0.002l0.002,0.001l-0.118-0.073
			c-0.698-0.439-1.467-0.958-2.289-1.525c-0.571-0.397-1.153-0.803-1.746-1.214c-0.883-0.612-1.782-1.243-2.704-1.841
			c-1.834-1.201-3.775-2.344-5.613-2.995c-0.906-0.303-1.798-0.533-2.615-0.599c-0.841-0.11-1.594-0.037-2.346,0.105
			c-0.784,0.093-1.5,0.367-2.316,0.8c-0.395,0.225-0.817,0.521-1.18,0.833c-0.356,0.312-0.651,0.636-0.896,0.946
			c-0.94,1.242-1.544,2.587-1.634,4.815c-0.099,2.215,0.805,5.291,1.607,8.278c0.097,0.378,0.191,0.755,0.253,1.105l0.104,0.528
			l0.013,0.119c0.017,0.098,0.008,0.112,0.015,0.151c0.025,0.012-0.047,0.019,0.051,0.004c0.202-0.01,0.405-0.014,0.608-0.012
			c0.203,0.002,0.408,0.009,0.612,0.023l0.305,0.023l0.237,0.004c0.316,0.012,0.637,0.05,0.956,0.115
			c0.272,0.039,0.479,0.065,0.723,0.143c0.271,0.101,0.36,0.097,0.528,0.179l0.205,0.109l0.109,0.059l0.102,0.085l0.007,0.002
			l0.017,0.018l-0.061-0.093l-0.035-0.091c1.562,3.565-2.13-4.885-1.766-4.005l-0.034,0.015l-0.069,0.03l-0.276,0.122
			c-0.739,0.324-1.489,0.653-2.25,0.987c-0.382,0.169-0.767,0.339-1.153,0.51c-0.401,0.191-0.806,0.384-1.213,0.578
			c-1.18,0.566-2.636,1.265-4.353,2.088c-1.637,0.813-3.521,1.749-5.639,2.801c-2.085,1.012-4.495,2.34-7.109,3.762
			c-0.648,0.362-1.331,0.702-1.99,1.105c-0.659,0.405-1.33,0.818-2.015,1.239c-1.362,0.851-2.801,1.7-4.243,2.645
			c-11.449,7.631-25.018,18.924-37.282,34.708c-6.141,7.859-12.015,16.764-17.037,26.719c-5.025,9.942-9.254,20.914-11.992,32.723
			c-1.257,5.927-2.324,12.02-2.645,18.293l-0.148,2.351l-0.073,1.179l-0.001,1.186c0.006,1.582,0.012,3.169,0.018,4.76l0.009,1.193
			l0.088,1.196l0.178,2.396c0.144,1.599,0.178,3.207,0.469,4.803c0.241,1.598,0.482,3.199,0.725,4.805
			c0.258,1.603,0.698,3.181,1.044,4.775l0.557,2.389c0.188,0.797,0.478,1.568,0.714,2.355c0.5,1.564,1.001,3.132,1.502,4.702
			c0.628,1.525,1.257,3.054,1.887,4.584c0.326,0.76,0.615,1.538,0.975,2.283l1.14,2.211c0.779,1.464,1.489,2.971,2.336,4.398
			l2.666,4.215c0.846,1.438,1.895,2.729,2.896,4.057c1.026,1.306,1.975,2.684,3.074,3.925l3.346,3.688
			c0.571,0.601,1.09,1.258,1.705,1.81l1.813,1.692l3.636,3.374c1.242,1.028,2.458,2.077,3.722,3.085
			c2.529,2.014,5.097,3.992,7.809,5.83c5.386,3.698,11.202,7.023,17.734,9.321c3.27,1.129,6.751,1.962,10.409,2.243
			c3.645,0.269,7.489,0.026,11.152-1.099c1.843-0.509,3.595-1.295,5.28-2.148c1.661-0.9,3.231-1.93,4.669-3.074
			c2.864-2.299,5.247-4.969,7.203-7.757c1.966-2.792,3.567-5.695,4.905-8.625c1.35-2.929,2.449-5.886,3.38-8.838
			c0.938-2.952,1.696-5.902,2.341-8.837l0.233-1.101l0.16-0.762l0.194-1.038l0.376-2.04c0.101-0.618,0.2-1.233,0.3-1.847
			c0.395-2.451,0.685-4.812,0.902-7.044c0.238-2.258,0.314-4.286,0.42-6.264c0.101-1.973,0.198-3.893,0.292-5.753
			c0.089-1.715,0.174-3.376,0.256-4.976c0.021-0.4,0.042-0.797,0.062-1.189l0.038-0.724l0.019-0.359l0.01-0.179l-0.001-0.078
			l-0.088,0.093c-0.946,0.996-1.872,1.972-2.778,2.927c-1.786,1.882-3.491,3.679-5.108,5.382c-0.766,0.808-1.511,1.593-2.234,2.355
			l-0.538,0.567l-0.494,0.479c-0.327,0.317-0.648,0.63-0.965,0.937c-1.284,1.304-2.398,2.206-3.445,3.107
			c-0.261,0.223-0.516,0.441-0.766,0.655c-0.249,0.189-0.493,0.375-0.73,0.556c-0.476,0.361-0.928,0.706-1.357,1.032
			c-0.456,0.347-0.907,0.701-1.366,1.007c-0.402,0.279-0.802,0.557-1.198,0.832c-0.406,0.286-0.812,0.553-1.216,0.81
			c-0.799,0.537-1.593,1.003-2.36,1.483c-1.549,0.911-3.033,1.712-4.474,2.413c-2.885,1.359-5.572,2.315-8.269,2.812
			c-2.687,0.45-5.428,0.46-8.376-0.295c-2.94-0.745-6.031-2.313-9.076-4.704c1.568,3.525,3.746,6.664,6.728,9.068
			c2.958,2.412,6.701,3.994,10.685,4.516c3.984,0.499,8.116-0.006,12.183-1.265c2.027-0.646,4.051-1.478,6.078-2.486
			c0.995-0.523,2.021-1.061,3.02-1.673c0.508-0.298,1.014-0.607,1.512-0.938l0.164-0.106l0.002,0.002l0.002,0.002l0.004,0.005
			c0.018-0.001-0.062,0.125-0.046,0.034l0.002-0.023v-0.007l0.002-0.007l-0.269,1.27c-0.577,2.624-1.251,5.238-2.065,7.797
			c-1.614,5.109-3.762,10.081-6.675,14.214c-2.912,4.132-6.579,7.266-10.871,8.479c-4.271,1.287-9.317,0.775-14.38-0.988
			c-5.066-1.777-10.102-4.582-14.902-7.894c-2.416-1.634-4.762-3.443-7.086-5.292c-1.162-0.926-2.295-1.905-3.445-2.854
			l-3.184-2.965l-1.595-1.479c-0.545-0.48-0.983-1.056-1.481-1.578l-2.911-3.203c-0.96-1.075-1.762-2.271-2.654-3.396
			c-0.865-1.146-1.785-2.254-2.5-3.496l-2.298-3.623c-0.729-1.227-1.327-2.525-2.001-3.78l-0.986-1.896
			c-0.311-0.64-0.552-1.312-0.832-1.965c-0.544-1.314-1.087-2.627-1.63-3.938c-0.431-1.354-0.86-2.706-1.289-4.057
			c-0.203-0.679-0.462-1.34-0.622-2.03l-0.476-2.071c-0.296-1.385-0.69-2.743-0.912-4.141c-0.21-1.399-0.42-2.796-0.63-4.189
			c-0.264-1.385-0.28-2.807-0.408-4.207l-0.16-2.104l-0.081-1.05l-0.004-1.056c-0.006-1.407-0.012-2.811-0.017-4.21l-0.003-1.049
			l0.068-1.05l0.134-2.095c0.274-5.582,1.245-11.075,2.374-16.44c2.482-10.708,6.354-20.805,10.999-30
			c4.64-9.209,10.101-17.497,15.809-24.806c11.404-14.695,23.997-25.149,34.476-32.148c1.32-0.865,2.634-1.637,3.878-2.417
			c0.625-0.386,1.238-0.765,1.839-1.136c0.602-0.37,1.222-0.674,1.812-1.004c2.377-1.29,4.514-2.483,6.643-3.52
			c2.078-1.034,3.927-1.954,5.532-2.752c1.546-0.746,2.858-1.378,3.921-1.891c0.362-0.175,0.723-0.348,1.081-0.521
			c0.383-0.169,0.764-0.337,1.142-0.505c0.761-0.333,1.511-0.663,2.25-0.987l0.276-0.121l0.069-0.03l0.035-0.015
			c0.026-0.012-0.252,0.101-0.041,0.014c0.244-0.105,0.486-0.222,0.722-0.35c0.898-0.452,1.881-1.348,2.414-2.148
			c1.169-1.716,1.319-3.152,1.404-4.051c0.064-0.945,0.011-1.674-0.06-2.279l-0.062-0.497l-0.005-0.025l0.001,0.005l-0.004,0
			l-0.002-0.001v0l0.027,0.02l0.167,0.116c0.223,0.155,0.444,0.308,0.664,0.46c0.888,0.613,1.779,1.217,2.718,1.808l0.498,0.309
			l0.62,0.361c0.414,0.225,0.815,0.477,1.229,0.673c0.824,0.41,1.645,0.774,2.457,1.022c0.406,0.128,0.809,0.246,1.207,0.305
			c0.399,0.093,0.792,0.119,1.181,0.149c0.778,0.031,1.528-0.044,2.279-0.187c0.358-0.122,0.714-0.242,1.065-0.362l0.518-0.188
			c0.165-0.075,0.317-0.173,0.477-0.258c0.63-0.348,1.192-0.78,1.714-1.258c1.038-0.964,1.865-2.149,2.583-3.343
			c0.328-0.616,0.678-1.222,0.963-1.811c0.171-0.356,0.339-0.706,0.502-1.047c0.543-1.207,1.038-2.305,1.487-3.305
			c0.835-1.877,1.492-3.169,1.976-3.937c0.232-0.355,0.428-0.633,0.518-0.72c0.062-0.092,0.062-0.048,0.072-0.085
			c-0.242-0.3-0.387-0.409-0.551-0.614c-0.156-0.186-0.297-0.376-0.422-0.569c-0.883-1.321-0.725-1.43-0.779-1.573
			c-0.003,0.126,0.019,0.055-0.036,0.167c-0.053,0.093-0.12,0.17-0.195,0.231l-0.117,0.079l0.041,0.256
			c0.036,0.18,0.072,0.357,0.107,0.531l0.052,0.259l0.004,0.016l0.001,0.008c0.233-0.801-0.52,1.804,0.523-1.794l-0.004,0.01
			l-0.01,0.021l-0.021,0.038l-0.089,0.124c-0.061,0.091-0.126,0.171-0.194,0.239l-0.104,0.095l-0.156,0.158
			c-0.106,0.099-0.216,0.186-0.327,0.261c-0.255,0.199-0.577,0.432-0.868,0.575c-0.358,0.228-0.734,0.43-1.096,0.583
			c-0.111,0.076-0.01,0.052-0.009,0.157c0.111,0.31,0.211,0.81,0.263,1.09c0.051,0.324,0.077,0.49,0.091,0.575l0.013,0.093
			c0,0,0.05,0.319,0.124,1.037c0.099,1.12,0.245,2.783,0.437,4.957c0.188,1.566,0.486,3.332,1.327,4.76
			c0.418,0.721,0.916,1.375,1.657,1.974c0.396,0.3,0.691,0.59,1.189,0.637c0.46,0.105,0.929,0.212,1.407,0.321
			c0.478,0.109,0.964,0.22,1.46,0.333c0.247,0.042,0.5,0.146,0.749,0.139c0.249-0.019,0.5-0.037,0.753-0.056
			c1.014-0.074,2.062-0.151,3.144-0.231c0.542-0.04,1.092-0.081,1.65-0.122c0.34-0.013,0.687-0.025,1.037-0.038
			c0.687-0.024,1.393-0.049,2.118-0.074c5.804-0.194,12.899-0.113,20.997,0.803c2.022,0.243,4.115,0.468,6.25,0.847
			c1.07,0.174,2.155,0.352,3.257,0.531c1.093,0.221,2.202,0.444,3.325,0.67c0.562,0.113,1.128,0.227,1.697,0.341
			c0.564,0.137,1.132,0.274,1.704,0.413c1.143,0.278,2.3,0.559,3.472,0.844c1.158,0.331,2.332,0.665,3.519,1.003
			c0.593,0.169,1.189,0.34,1.79,0.512c0.592,0.196,1.188,0.394,1.785,0.592c4.818,1.51,9.707,3.492,14.658,5.782
			c4.958,2.283,9.903,5.051,14.768,8.243c4.865,3.191,9.643,6.832,14.193,10.951c4.527,4.142,8.818,8.762,12.741,13.833
			c7.859,10.131,14.156,22.13,18.179,35.277c3.965,13.149,5.732,27.27,3.578,41.047c-2.109,13.715-8.184,26.953-17.691,37.077
			c-4.744,5.029-10.238,9.379-16.287,12.39c-1.483,0.824-3.051,1.398-4.582,2.071c-1.57,0.512-3.121,1.139-4.711,1.474
			c-1.577,0.464-3.166,0.657-4.743,0.931l-2.354,0.175c-0.787,0.091-1.545-0.014-2.318-0.001c-3.061-0.115-5.984-0.723-8.577-1.862
			c-0.62-0.333-1.244-0.652-1.874-0.963l-1.719-1.18c-0.279-0.158-0.598-0.455-0.909-0.729l-0.936-0.821l-1.873-1.632
			c-4.784-4.479-8.625-9.658-10.424-15.34c-0.213-0.71-0.482-1.406-0.663-2.121l-0.443-2.159l-0.116-0.538l-0.052-0.546
			l-0.085-0.838l-0.005,0.017l-0.011,0.075l-0.035-0.027l-0.022-0.029l-0.071-0.068l1.039,1.034c0.684,0.693,1.472,1.317,2.206,1.97
			c0.77,0.627,1.597,1.209,2.395,1.804c0.86,0.543,1.719,1.084,2.6,1.59c0.929,0.453,1.836,0.932,2.789,1.33l1.468,0.534l0.735,0.26
			l0.367,0.128c0.13,0.042,0.346,0.086,0.516,0.127c2.941,0.744,5.681,0.379,7.884-0.26c2.208-0.67,4.056-1.616,5.75-2.633
			c3.298-2.088,5.99-4.487,8.333-7.043c1.167-1.281,2.276-2.585,3.286-3.94c0.519-0.668,1.007-1.354,1.478-2.047l0.357-0.516
			l0.178-0.258l0.122-0.191l0.149-0.236c1.618-2.503,2.953-4.966,3.983-7.348c1.035-2.378,1.782-4.66,2.301-6.731
			c0.218-1.065,0.457-2.023,0.561-2.971c0.062-0.466,0.12-0.91,0.177-1.332c0.025-0.437,0.051-0.85,0.073-1.239
			c0.146-2.869-0.218-5.835-1.301-8.579c-1.044-2.739-2.946-5.183-4.823-6.764c-1.949-1.715-4.606-3.129-7.443-3.471
			c-2.831-0.366-5.487,0.31-7.459,1.343c-2.012,1.03-3.558,2.34-4.88,3.715c-1.317,1.383-2.407,2.854-3.376,4.389
			C389.454,341.756,387.957,345.077,386.775,348.77z"/>
		<path d="M282.982,414.958c1.67,2.308,3.541,4.233,5.473,5.952c1.931,1.74,3.993,3.204,6.224,4.546
			c4.476,2.63,9.737,4.666,16.716,5.627c2.354,0.252,6.247,0.88,14.26,0.366c1.176-0.106,3.18-0.165,4.838-0.504
			c1.668-0.277,3.045-0.507,3.045-0.507s0.289-0.044,0.762-0.116c0.237-0.036,0.52-0.079,0.836-0.128
			c0.327-0.072,0.688-0.151,1.07-0.236c1.541-0.316,3.365-0.859,4.639-1.304c5.257-1.824,9.082-4.074,11.982-5.939
			c2.889-1.894,4.883-3.439,6.205-4.538c5.38-4.438,8.811-8.674,11.56-12.95c2.708-4.305,4.768-8.712,6.554-14.115
			c-4.094,3.92-7.711,6.857-11.337,10.017c-3.655,3.119-7.334,6.463-12.178,10.375c-1.191,0.974-2.972,2.331-5.488,3.972
			c-2.521,1.615-5.811,3.522-10.101,5.003c-1.043,0.35-2.512,0.802-3.733,1.067c-0.306,0.073-0.595,0.142-0.856,0.204
			c-0.28,0.047-0.531,0.089-0.742,0.123c-0.42,0.071-0.677,0.114-0.677,0.114s-1.229,0.186-2.719,0.41
			c-1.483,0.295-3.248,0.317-4.287,0.442c-7.076,0.463-10.467-0.072-12.533-0.271c-6.103-0.782-10.819-1.824-15.384-2.924
			c-2.272-0.577-4.53-1.142-6.842-1.887C287.946,417.025,285.526,416.207,282.982,414.958z"/>
		<path d="M250.576,369.1c-1.244-1.711-2.448-3.023-3.865-4.06c-1.425-1.027-3.081-1.786-5.369-2.201
			c-1.253-0.187-3.729-0.66-7.143-0.385c-1.699,0.17-3.705,0.53-5.76,1.69c-1.019,0.559-2.009,1.389-2.816,2.367
			c-0.424,0.472-0.712,1.036-1.045,1.566c-0.306,0.541-0.485,1.103-0.709,1.659c-0.708,2.229-0.685,4.253-0.55,5.982
			c0.088,0.857,0.237,1.635,0.352,2.39c0.172,0.71,0.333,1.377,0.481,1.989c0.318,1.209,0.666,2.133,0.871,2.808
			c0.226,0.657,0.377,1.007,0.377,1.007s0.139,0.359,0.386,0.998c0.129,0.319,0.261,0.706,0.461,1.157
			c0.216,0.451,0.461,0.963,0.729,1.524c0.277,0.558,0.552,1.181,0.898,1.811c0.376,0.612,0.775,1.261,1.191,1.938
			c0.212,0.335,0.416,0.688,0.648,1.026c0.246,0.327,0.496,0.659,0.749,0.996c0.52,0.661,1.004,1.386,1.587,2.028
			c2.234,2.677,4.961,5.038,7.365,6.859c0.61,0.442,1.193,0.865,1.739,1.262c0.564,0.365,1.092,0.706,1.572,1.018
			c0.953,0.638,1.771,1.058,2.299,1.371c1.975,1.108,3.723,1.595,5.473,1.733c1.75,0.123,3.533-0.096,5.58-0.626
			c-1.323-1.64-2.296-2.999-3.425-4.16c-1.116-1.174-2.367-2.139-4.071-3.154c-0.452-0.288-1.171-0.663-1.99-1.227
			c-0.417-0.271-0.874-0.57-1.363-0.89c-0.469-0.344-0.97-0.71-1.493-1.094c-2.058-1.568-4.368-3.564-6.201-5.757
			c-0.486-0.526-0.866-1.116-1.295-1.65c-0.208-0.272-0.413-0.541-0.615-0.805c-0.188-0.272-0.348-0.556-0.518-0.823
			c-0.337-0.54-0.66-1.058-0.965-1.546c-0.277-0.501-0.488-0.995-0.711-1.435c-0.217-0.442-0.415-0.846-0.59-1.202
			c-0.168-0.367-0.287-0.719-0.399-0.991c-0.216-0.552-0.339-0.863-0.339-0.863s-0.135-0.312-0.32-0.864
			c-0.158-0.55-0.459-1.349-0.702-2.299c-0.113-0.472-0.236-0.985-0.368-1.532c-0.066-0.525-0.182-1.098-0.238-1.662
			c-0.09-1.112-0.034-2.24,0.225-3.039c0.274-0.797,0.636-1.209,1.329-1.621c0.69-0.403,1.754-0.667,2.833-0.766
			c2.196-0.198,4.314,0.134,5.322,0.271c1.9,0.294,3.475,0.358,5.083,0.188C246.877,369.928,248.514,369.524,250.576,369.1z"/>
		<path fill="#ED6EA7" d="M160.753,175.223c0.645-2.692,10.265,0.543,19.64-4.274c9.38-4.82,14.143-14.082,16.078-12.619
			c1.938,1.463,1.115,18.85-8.402,23.858C175.925,188.582,160.106,177.916,160.753,175.223z"/>
		<path fill="#FFFFFF" d="M162.144,174.267c0,0,8.246,4.454,19.297-0.62c11.05-5.077,12.967-15.003,12.967-15.003
			s-7.73,8.78-14.235,11.758C172.836,173.759,162.144,174.267,162.144,174.267z"/>
		<path fill="#FFFFFF" d="M174.091,183.482c0,0,5.194,0.51,12.439-3.177c7.244-3.687,9.145-8.367,9.145-8.367
			s-0.258,7.648-8.467,11.194C179.155,186.613,174.091,183.482,174.091,183.482z"/>
		<path d="M159.291,156.648c-0.185-1.142-0.238-2.031-0.385-2.839c-0.139-0.806-0.383-1.513-0.73-2.316
			c-0.219-0.429-0.538-1.312-0.63-2.32c-0.068-1.004,0.151-2.125,0.896-3.127c0.129-0.266,0.403-0.482,0.586-0.723
			c0.203-0.234,0.375-0.477,0.638-0.665c0.503-0.396,0.849-0.779,1.33-1.088c0.878-0.641,1.462-0.997,1.462-0.997
			c0,0,0.578-0.386,1.497-0.877c0.914-0.481,2.187-1.068,3.469-1.34c1.293-0.302,2.49-0.178,3.337,0.203
			c0.855,0.382,1.447,1.007,1.731,1.344c0.52,0.625,1.029,1.122,1.654,1.618c0.619,0.502,1.376,0.976,2.253,1.722
			c0.502-1.051,0.737-2.038,0.712-3.031c-0.035-0.992-0.355-2.025-1.209-3.116c-0.458-0.568-1.517-1.776-3.329-2.599
			c-1.802-0.839-4.185-0.948-6.075-0.488c-1.929,0.423-3.511,1.193-4.632,1.784c-1.115,0.604-1.773,1.051-1.774,1.051
			c0.001,0-0.689,0.417-1.681,1.133c-0.496,0.313-1.117,0.898-1.765,1.432c-0.337,0.255-0.64,0.624-0.956,0.985
			c-0.303,0.379-0.663,0.699-0.926,1.157c-1.238,1.642-1.835,4.057-1.654,5.932c0.163,1.886,0.745,3.262,1.065,3.882
			c0.571,1.194,1.318,1.912,2.153,2.41C157.166,156.265,158.139,156.534,159.291,156.648z"/>
		<path d="M135.211,157.845c-0.3-2.144-0.468-3.426-1.514-5.172c-0.277-0.474-0.828-1.429-1.335-2.626
			c-0.504-1.193-0.923-2.641-0.944-3.935c-0.044-1.302,0.349-2.375,0.802-3.088c0.124-0.174,0.236-0.333,0.336-0.473
			c0.117-0.132,0.219-0.246,0.303-0.34c0.155-0.196,0.29-0.278,0.282-0.283c0,0,0.108-0.098,0.3-0.273
			c0.206-0.151,0.503-0.421,0.888-0.633c0.374-0.257,0.844-0.438,1.35-0.612c0.516-0.134,1.082-0.205,1.681-0.163
			c1.197,0.062,2.514,0.65,3.566,1.324c1.059,0.677,1.868,1.404,2.267,1.766c1.459,1.372,2.663,1.816,4.673,2.616
			c-0.099-2.168-0.481-3.65-2.161-5.307c-0.464-0.441-1.413-1.316-2.783-2.199c-1.36-0.869-3.226-1.767-5.304-1.895
			c-1.025-0.072-2.055,0.053-2.959,0.304c-0.887,0.285-1.673,0.631-2.252,1.017c-0.611,0.355-1.023,0.723-1.339,0.965
			c-0.293,0.268-0.458,0.418-0.458,0.418l-0.119,0.109c-0.08,0.068-0.19,0.178-0.323,0.333c-0.135,0.151-0.299,0.336-0.487,0.549
			c-0.169,0.234-0.359,0.5-0.569,0.792c-0.799,1.197-1.474,3.178-1.394,5.147c0.037,1.972,0.616,3.837,1.229,5.293
			c0.621,1.459,1.267,2.552,1.598,3.089C131.787,156.535,133.128,157.235,135.211,157.845z"/>
		<path d="M177.31,133.44c0.334-2.139,0.545-3.415,0.048-5.389c-0.128-0.533-0.378-1.608-0.517-2.9
			c-0.137-1.288-0.119-2.795,0.235-4.04c0.335-1.259,1.021-2.173,1.66-2.724c0.169-0.131,0.323-0.25,0.459-0.356
			c0.15-0.092,0.281-0.172,0.389-0.238c0.204-0.143,0.358-0.182,0.352-0.189c0,0,0.132-0.063,0.366-0.175
			c0.241-0.084,0.604-0.257,1.033-0.349c0.433-0.138,0.934-0.175,1.469-0.195c0.532,0.021,1.095,0.117,1.655,0.33
			c1.129,0.406,2.219,1.35,3.031,2.3c0.817,0.954,1.382,1.884,1.658,2.346c1,1.735,2.023,2.509,3.716,3.856
			c0.533-2.104,0.596-3.634-0.533-5.705c-0.316-0.556-0.971-1.668-2.027-2.911c-1.051-1.225-2.576-2.625-4.528-3.348
			c-0.961-0.366-1.982-0.544-2.92-0.565c-0.931,0.016-1.784,0.12-2.45,0.321c-0.688,0.163-1.189,0.396-1.561,0.537
			c-0.358,0.171-0.56,0.268-0.56,0.268s-0.051,0.024-0.146,0.07c-0.097,0.042-0.234,0.116-0.406,0.225
			c-0.173,0.106-0.383,0.235-0.625,0.384c-0.229,0.176-0.489,0.375-0.774,0.594c-1.111,0.915-2.33,2.616-2.824,4.523
			c-0.535,1.899-0.521,3.852-0.355,5.423c0.172,1.576,0.474,2.809,0.635,3.419C174.411,131.195,175.492,132.253,177.31,133.44z"/>
		<path d="M108.948,140.54c0.912-2.89,2.145-5.338,3.357-7.624c1.23-2.279,2.518-4.373,3.897-6.424
			c2.791-4.076,5.817-8.107,10.452-12.46c0.404-0.356,0.872-0.769,1.432-1.262c0.558-0.495,1.268-1.001,2.07-1.647
			c1.683-1.188,3.885-2.789,7.228-4.386c1.448-0.684,3.421-1.559,5.64-2.333c1.092-0.425,2.291-0.717,3.449-1.093
			c1.169-0.355,2.379-0.592,3.514-0.885c1.138-0.287,2.267-0.435,3.274-0.638c1.008-0.208,1.938-0.324,2.721-0.418
			c1.563-0.202,2.537-0.328,2.537-0.328s0.204-0.022,0.58-0.046c0.374-0.026,0.918-0.064,1.594-0.111
			c1.42-0.094,3.394-0.225,5.606-0.372c4.598-0.312,10.191-1.067,14.153-1.898c5.557-1.129,9.999-2.519,13.457-3.851
			c3.461-1.327,5.942-2.591,7.615-3.543c3.386-1.913,6.25-4.124,8.533-6.766c0.567-0.665,1.088-1.379,1.58-2.086
			c0.458-0.774,0.934-1.467,1.281-2.315c0.77-1.572,1.239-3.421,1.272-5.3c0.067-1.879-0.514-3.857-1.532-5.351
			c-0.464-0.793-1.12-1.383-1.723-1.972c-0.669-0.499-1.313-1.012-2.031-1.332c-2.812-1.422-5.755-1.735-8.788-1.646
			c2.725,1.32,5.012,2.938,6.396,4.724c0.383,0.418,0.592,0.907,0.849,1.322c0.153,0.46,0.369,0.862,0.385,1.283
			c0.134,0.813,0.039,1.502-0.267,2.225c-0.297,0.712-0.681,1.45-1.331,2.218c-0.254,0.386-0.679,0.764-1.007,1.158
			c-0.401,0.381-0.796,0.777-1.24,1.166c-1.799,1.552-4.074,3.103-6.857,4.634c-1.368,0.763-3.444,1.811-6.451,2.953
			c-3.001,1.146-6.939,2.379-11.98,3.399c-3.592,0.739-8.729,1.451-12.996,1.759c-2.219,0.158-4.196,0.3-5.62,0.401
			c-0.745,0.058-1.346,0.104-1.76,0.136c-0.414,0.03-0.642,0.056-0.642,0.056s-1.088,0.133-2.835,0.347
			c-0.874,0.102-1.912,0.228-3.058,0.454c-1.145,0.222-2.407,0.389-3.713,0.708c-1.304,0.326-2.676,0.598-4.029,1.001
			c-1.348,0.426-2.72,0.77-4.004,1.261c-2.591,0.9-4.928,1.938-6.642,2.77c-3.973,1.912-6.665,3.85-8.695,5.308
			c-0.98,0.785-1.834,1.414-2.516,2.021c-0.679,0.609-1.246,1.118-1.736,1.558c-2.827,2.676-4.971,5.446-6.628,8.181
			c-1.655,2.74-2.829,5.452-3.663,8.158c-0.831,2.708-1.32,5.417-1.523,8.207C108.369,134.642,108.393,137.53,108.948,140.54z"/>
		<path d="M100.436,178.838c-2.617-1.118-4.994-1.764-7.642-1.901c-1.326-0.047-2.733,0.027-4.285,0.489
			c-0.771,0.247-1.587,0.545-2.397,1.077c-0.807,0.508-1.634,1.208-2.27,2.162c-0.457,0.616-0.929,1.561-1.241,2.938
			c-0.305,1.384-0.292,3.176,0.223,5.262c0.396,1.729,1.443,4.324,2.599,6.379c0.567,1.036,1.14,1.955,1.584,2.599
			c0.45,0.643,0.729,1.043,0.729,1.043c0.001,0,0.24,0.331,0.655,0.857c0.399,0.54,1.006,1.246,1.705,2.023
			c1.407,1.546,3.335,3.223,4.822,4.268c2.198,1.581,4.166,2.59,5.768,3.278c1.604,0.692,2.851,1.062,3.714,1.289
			c3.481,0.884,6.611,0.837,9.332-0.542c1.335-0.671,2.548-1.958,2.891-3.483c0.359-1.525-0.108-2.958-0.851-4.146
			c0.111,1.416-0.191,2.685-0.823,3.433c-0.623,0.75-1.415,1.092-2.367,1.263c-1.898,0.316-4.207,0.095-7.078-0.675
			c-0.71-0.195-1.749-0.506-3.11-1.1c-1.359-0.589-3.05-1.458-4.948-2.826c-1.281-0.907-2.954-2.354-4.182-3.688
			c-0.607-0.672-1.14-1.28-1.486-1.747c-0.364-0.454-0.574-0.739-0.574-0.739s-0.24-0.349-0.627-0.91
			c-0.384-0.561-0.875-1.362-1.364-2.265c-1.007-1.803-1.894-4.056-2.193-5.336c-0.389-1.588-0.352-2.673-0.197-3.371
			c0.17-0.694,0.352-1.106,0.565-1.38c0.536-0.852,1.479-1.437,2.482-1.922c1.016-0.477,2.118-0.804,3.225-1.094
			C95.324,179.521,97.614,179.074,100.436,178.838z"/>
		<path d="M105.802,143.292c-0.596,2.99-0.898,5.819-0.969,8.591c-0.063,2.775,0.105,5.505,0.689,8.329
			c0.6,2.814,1.561,5.768,3.615,8.787c1.047,1.491,2.408,3.001,4.248,4.259c1.822,1.259,4.166,2.192,6.64,2.455
			c0.966,0.118,1.491,0.13,2.333,0.192c0.811,0.054,1.754,0.116,2.871,0.19c1.103,0.096,2.377,0.206,3.864,0.335
			c0.723,0.085,1.497,0.176,2.328,0.273c0.156,0.019,0.315,0.038,0.477,0.058l0.087,0.014l0.131,0.022l-0.02-0.002l0.001-0.015
			l0.002-0.003l-0.046,0.688c-0.095,1.215-0.22,2.39-0.354,3.41c-0.267,2.043-0.583,3.438-0.583,3.438s-0.086,0.473-0.287,1.198
			c-0.187,0.733-0.468,1.745-0.861,2.769c-0.394,1.01-0.873,2.105-1.412,2.854c-0.53,0.777-1.043,1.217-1.375,1.451
			c-0.389,0.229-0.705,0.259-1.187,0.286c-0.26-0.04-0.506-0.007-0.838-0.128c-0.155-0.039-0.309-0.07-0.464-0.1
			c-0.173-0.071-0.343-0.141-0.512-0.21c-1.362-0.534-2.755-1.427-3.924-2.343c-1.193-0.875-2.181-1.838-3.062-2.602
			c-0.996-0.896-1.826-1.643-2.503-2.251c-5.504-4.872-10.601-8.065-16.018-9.975l-1.004-0.354l-1.051-0.276
			c-0.699-0.176-1.387-0.352-2.082-0.5c-1.444-0.218-2.859-0.423-4.352-0.39c-1.468-0.01-2.988,0.209-4.45,0.62
			c-1.446,0.472-2.923,1.165-3.92,2.352c1.412-0.564,2.831-0.466,4.098-0.282c1.285,0.259,2.456,0.628,3.568,1.144
			c0.556,0.283,1.097,0.464,1.623,0.796c0.521,0.296,1.039,0.591,1.555,0.884l1.504,1.001l0.748,0.484l0.734,0.556
			c3.922,2.889,7.877,6.253,12.906,10.794c0.62,0.565,1.381,1.259,2.295,2.091c1.054,0.933,2.219,2.075,3.811,3.262
			c1.559,1.196,3.454,2.527,6.186,3.622c0.345,0.131,0.693,0.265,1.048,0.4c0.397,0.1,0.8,0.202,1.209,0.304
			c0.785,0.229,1.736,0.307,2.697,0.359c1.95,0.036,4.251-0.426,6.187-1.623c1.651-1.012,3.172-2.566,4.257-4.194
			c1.12-1.635,1.817-3.31,2.39-4.804c0.558-1.495,0.903-2.805,1.136-3.745c0.121-0.471,0.21-0.849,0.26-1.107
			c0.056-0.26,0.086-0.402,0.086-0.402s0.41-1.739,0.739-4.124c0.166-1.193,0.319-2.55,0.435-3.942
			c0.029-0.424,0.059-0.85,0.088-1.277c0.03-0.657,0.061-1.314,0.091-1.968c0.042-1.306,0.035-2.579,0.027-3.802
			c0.072-0.275-0.175-0.352-0.323-0.479c-0.154-0.115-0.312-0.231-0.47-0.349c-0.331-0.248-0.668-0.499-1.001-0.747
			c-0.573-0.57-1.535-0.785-2.266-1.07c-0.222-0.08-0.441-0.16-0.66-0.238c-0.228-0.042-0.453-0.084-0.678-0.126
			c-0.448-0.082-0.89-0.162-1.323-0.241c-0.435-0.079-0.861-0.156-1.28-0.232l-0.313-0.057l-0.195-0.025l-0.352-0.042
			c-0.93-0.107-1.797-0.207-2.605-0.3c-1.585-0.133-2.943-0.247-4.118-0.346c-1.164-0.072-2.146-0.132-2.99-0.184
			c-0.812-0.051-1.672-0.092-1.894-0.138c-1.043-0.105-1.905-0.398-2.753-0.875c-0.843-0.476-1.652-1.15-2.415-1.949
			c-1.518-1.628-2.812-3.662-3.967-5.779c-1.161-2.127-2.208-4.372-3.222-6.777C107.659,148.777,106.674,146.204,105.802,143.292z"
			/>
		<path d="M204.104,215.642c2.863-0.781,5.229-1.648,7.579-2.817c2.342-1.188,4.716-2.642,7.415-4.938
			c0.63-0.495,1.459-1.282,2.494-2.207c0.523-0.454,1.054-1.001,1.629-1.571c0.287-0.286,0.584-0.581,0.888-0.884l0.229-0.229
			c0.066-0.065,0.265-0.259,0.381-0.396c0.271-0.302,0.545-0.607,0.823-0.916c2.248-2.434,4.485-5.347,6.336-8.709
			c0.461-0.842,0.955-1.672,1.306-2.6c0.365-0.9,0.812-1.831,1.108-2.723c0.591-1.783,1.186-3.578,1.778-5.365
			c0.507-1.822,1.031-3.629,1.496-5.43c0.386-1.831,0.865-3.595,1.119-5.394c0.32-1.775,0.533-3.533,0.642-5.273
			c0.053-0.881,0.082-1.701,0.021-2.699c-0.074-0.788-0.147-1.557-0.218-2.304c-0.28-2.927-0.528-5.512-0.728-7.597l-0.002,0.008
			l-0.002-0.001h-0.001c0.022-0.002-0.067,0.005,0.107-0.009c0.181-0.015,0.359-0.03,0.535-0.045l0.263-0.022
			c0.083-0.006,0.155-0.011,0.352-0.041c0.658-0.094,1.299-0.186,1.922-0.275l0.464-0.066l0.107-0.027l0.056-0.101l0.11-0.202
			c0.147-0.268,0.29-0.532,0.42-0.793c0.298-0.499,0.45-1.083,0.63-1.628c0.05-0.143,0.072-0.256,0.099-0.368l0.053-0.244
			c0.033-0.16,0.066-0.318,0.1-0.474c0.049-0.301,0.098-0.593,0.144-0.876c0.073-0.556,0.138-1.075,0.177-1.552
			c0.172-1.915,0.176-3.277,0.183-4.271c-0.005-1.981-0.041-2.453-0.041-2.453c-0.001,0-0.02-0.966-0.155-2.787
			c-0.145-1.821-0.381-4.495-1.112-7.923c-0.388-1.715-0.854-3.618-1.767-5.706c-0.453-1.04-1.02-2.138-1.927-3.243
			c-0.452-0.551-1.03-1.095-1.739-1.578c-0.373-0.202-0.839-0.476-1.172-0.577c-0.348-0.116-0.698-0.232-1.053-0.35
			c-0.339-0.126-0.795-0.16-1.196-0.23c-0.395-0.084-0.872-0.065-1.347-0.032c-0.938,0.035-1.993,0.428-2.853,1.021
			c-0.814,0.626-1.461,1.411-1.857,2.182c-0.45,0.783-0.687,1.547-0.917,2.311c-0.198,0.752-0.353,1.509-0.457,2.228
			c-0.049,0.345-0.099,0.692-0.149,1.041c-0.021,0.134-0.048,0.357-0.062,0.402l-0.011,0.061L226.299,127l-0.001,0.008
			c-0.041-0.008,0.033,0.013,0.18,0.052c-0.735-0.039,7.943,0.786,4.255,0.419l-0.002-0.026c-0.006-0.151-0.016-0.269-0.025-0.366
			c-0.164-1.665-0.519-3.154-1.011-4.681c-0.646-2.02-1.593-4.124-2.765-6.176c-1.173-2.055-2.631-4.002-4.162-5.811
			c-3.089-3.607-6.678-6.407-9.457-8.24c-1.133-0.802-2.157-1.42-3.08-1.983c-0.924-0.567-1.745-1.071-2.471-1.517
			c-1.44-0.904-2.533-1.527-3.29-1.944c-3.021-1.744-5.564-2.845-8.063-3.662c-1.284-0.36-2.49-0.743-3.835-0.946
			c-0.667-0.104-1.316-0.247-2.031-0.29c-0.695-0.068-1.424-0.123-2.165-0.056c0.683,0.287,1.272,0.656,1.848,1.017
			c0.576,0.331,1.11,0.745,1.644,1.091c1.066,0.683,2.058,1.478,3.113,2.146c2.081,1.452,4.321,2.851,7.249,4.58
			c0.729,0.411,1.788,1.022,3.2,1.915c0.71,0.438,1.514,0.934,2.417,1.492c0.907,0.555,1.921,1.169,2.936,1.894
			c2.564,1.689,5.829,4.249,8.574,7.458c1.358,1.609,2.648,3.326,3.668,5.113c1.019,1.784,1.834,3.595,2.377,5.29v0
			c0.415,1.254,0.707,2.574,0.814,3.687l0.014,0.155l0.001,0.006c-3.965-0.43,5.401,0.596,4.438,0.479l0.011-0.049l0.02-0.097
			l0.039-0.195c0.059-0.294,0.066-0.416,0.099-0.622c0.048-0.333,0.095-0.665,0.143-0.993c0.09-0.628,0.21-1.189,0.347-1.718
			c0.279-1.037,0.74-1.819,1.077-2.043c0.184-0.08,0.305-0.187,0.585-0.179c0.13-0.003,0.254-0.042,0.447,0.017
			c0.182,0.048,0.332,0.015,0.542,0.104c0.203,0.068,0.404,0.135,0.604,0.202c0.121,0.03,0.164,0.065,0.211,0.094l0.159,0.074
			c0.11,0.106,0.229,0.165,0.349,0.283c0.117,0.138,0.247,0.224,0.363,0.389c0.486,0.583,0.922,1.364,1.267,2.174
			c0.714,1.614,1.15,3.321,1.493,4.85c0.664,3.09,0.895,5.612,1.029,7.308c0.129,1.702,0.147,2.604,0.147,2.604
			s0.034,0.445,0.037,2.283c-0.006,0.915-0.014,2.192-0.165,3.873c-0.034,0.423-0.091,0.859-0.15,1.323
			c-0.037,0.224-0.075,0.455-0.114,0.693c-0.038,0.181-0.078,0.368-0.119,0.561l0.001-0.001h0.001
			c-0.311,0.026-0.629,0.052-0.956,0.08c-0.908,0.075-2.136,0.177-3.646,0.302c-0.194,0.016-0.394,0.033-0.597,0.05l-0.309,0.025
			l-0.078,0.006l0.005,0.076l0.015,0.158c0.041,0.424,0.083,0.866,0.126,1.324c0.087,0.917,0.181,1.902,0.28,2.95
			c0.199,2.096,0.445,4.695,0.725,7.638c0.066,0.721,0.137,1.462,0.207,2.223c0.031,0.557,0.019,1.332-0.032,2.075
			c-0.096,1.505-0.287,3.117-0.588,4.768c-0.229,1.653-0.694,3.346-1.056,5.067c-0.443,1.713-0.948,3.447-1.432,5.189
			c-0.572,1.726-1.147,3.458-1.719,5.179c-0.287,0.859-0.656,1.586-0.973,2.382c-0.29,0.792-0.734,1.525-1.138,2.264
			c-1.622,2.954-3.645,5.61-5.728,7.863c-0.256,0.286-0.509,0.568-0.758,0.847c-0.106,0.127-0.292,0.308-0.354,0.369l-0.214,0.213
			c-0.283,0.283-0.559,0.559-0.826,0.826c-0.536,0.533-1.025,1.044-1.52,1.474c-0.972,0.873-1.741,1.617-2.335,2.091
			c-2.524,2.193-4.543,3.89-6.379,5.645C207.961,211.861,206.262,213.615,204.104,215.642z"/>
		<path d="M237.526,174.749c60.237,42.145,63.57-50.522,63.57-50.522c-13.019,9.401-28.621,21.002-40.666-18c-14-45.333-52-24-52-24
			l-15.334,10c0,0,22.668,11.333,27.334,20s6,12,6,12s7.128-9.073,13.333-0.667s3.333,22,3.333,22l-5.965,7.956L237.526,174.749z"/>
		<path d="M437.118,104.303c1.301,0.178,2.435,0.69,3.536,1.141c1.095,0.483,2.131,0.986,3.134,1.515
			c2.007,1.041,3.891,2.12,5.806,3.238c3.829,2.225,7.818,4.537,12.891,7.607c0.862,0.514,1.99,1.198,3.596,2.258
			c0.402,0.261,0.837,0.542,1.307,0.847c0.45,0.318,0.935,0.659,1.456,1.027c0.521,0.368,1.08,0.763,1.68,1.186
			c0.588,0.452,1.215,0.934,1.887,1.45c2.402,1.84,6.334,5.202,9.849,8.164c0.893,0.733,1.746,1.434,2.525,2.073
			c0.808,0.63,1.538,1.199,2.152,1.677c0.603,0.485,1.16,0.84,1.514,1.104c0.363,0.258,0.565,0.401,0.565,0.401
			s0.168,0.121,0.475,0.34c0.312,0.215,0.734,0.55,1.331,0.908c0.586,0.367,1.286,0.806,2.067,1.296
			c0.771,0.502,1.729,0.939,2.688,1.46c0.95,0.541,2.045,0.965,3.146,1.417c0.554,0.218,1.099,0.47,1.671,0.659
			c0.579,0.172,1.157,0.346,1.732,0.517c0.575,0.168,1.146,0.335,1.708,0.5c0.569,0.132,1.138,0.22,1.688,0.326
			c1.104,0.175,2.146,0.448,3.102,0.491c1.298,0.093,2.533,0.182,3.709,0.267c1.163-0.033,2.266-0.064,3.312-0.093
			c0.521-0.024,1.035-0.016,1.521-0.068c0.482-0.059,0.952-0.116,1.408-0.172c0.911-0.113,1.768-0.22,2.57-0.32
			c1.604-0.209,2.889-0.5,4.046-0.704c1.144-0.25,2.098-0.458,2.873-0.628c3.14-0.749,5.928-1.693,8.445-2.879
			c2.511-1.195,4.777-2.625,6.706-4.517c0.955-0.963,1.819-2.036,2.506-3.252c0.676-1.228,1.146-2.618,1.259-4.042
			c0.231-2.891-1.079-5.558-3.089-7.255c0.982,2.466,0.729,4.863-0.192,6.418c-0.917,1.586-2.394,2.586-4.065,3.485
			c-3.439,1.722-7.721,2.933-13.382,4.255c-0.709,0.149-1.579,0.333-2.623,0.553c-1.046,0.177-2.314,0.457-3.694,0.626
			c-0.689,0.083-1.424,0.172-2.205,0.267c-0.391,0.048-0.793,0.099-1.207,0.15c-0.414,0.046-0.834,0.03-1.268,0.049
			c-0.868,0.026-1.783,0.053-2.748,0.082c-0.946-0.07-1.941-0.144-2.986-0.222c-0.774-0.026-1.58-0.267-2.455-0.396
			c-0.434-0.084-0.885-0.146-1.333-0.248c-0.44-0.131-0.888-0.265-1.339-0.399c-0.452-0.131-0.907-0.263-1.362-0.395
			c-0.451-0.146-0.885-0.354-1.324-0.525c-0.875-0.358-1.745-0.676-2.527-1.127c-0.787-0.431-1.558-0.757-2.215-1.188
			c-0.664-0.412-1.259-0.78-1.756-1.088c-0.503-0.292-0.888-0.597-1.16-0.783c-0.271-0.192-0.42-0.298-0.42-0.298
			s-0.178-0.127-0.497-0.356c-0.316-0.24-0.787-0.535-1.346-0.992c-0.562-0.443-1.23-0.969-1.971-1.551
			c-0.738-0.611-1.548-1.282-2.394-1.983c-3.37-2.861-7.48-6.395-10.085-8.358c-0.725-0.555-1.402-1.074-2.037-1.559
			c-0.66-0.465-1.274-0.897-1.848-1.301c-0.575-0.402-1.108-0.776-1.605-1.124c-0.502-0.324-0.968-0.623-1.398-0.901
			c-1.716-1.122-2.93-1.849-3.861-2.391c-5.471-3.238-10.197-5.103-14.857-6.208c-2.326-0.557-4.648-0.909-7.065-1.044
			c-1.204-0.076-2.439-0.083-3.7-0.021C439.707,103.757,438.376,103.84,437.118,104.303z"/>
		<path d="M448.223,111.563c-4.392,0.242-8.006,0.118-11.679,0.007c-1.835-0.069-3.687-0.156-5.628-0.331
			c-1.936-0.18-3.975-0.444-6.046-1.011c-1.313-0.372-3.384-1.096-5.014-2.696c-0.233-0.174-0.378-0.433-0.583-0.645
			c-0.209-0.21-0.378-0.461-0.536-0.726l-0.128-0.194l-0.064-0.097c-0.069-0.096-0.18-0.258-0.236-0.409l-0.439-0.911l-0.337-1
			c-0.128-0.328-0.161-0.714-0.253-1.069l-0.122-0.544l-0.061-0.579l-0.119-1.151c0.009-0.32-0.023-0.645,0.026-0.958
			c0.091-1.264,0.588-2.491,1.41-3.694c0.853-1.189,2.001-2.337,3.387-3.345c2.762-2.035,6.193-3.625,9.787-4.898
			c7.235-2.542,15.188-3.927,23.064-4.705c7.898-0.757,15.801-0.847,23.345-0.395c7.544,0.451,14.739,1.479,21.212,3.03
			c3.233,0.781,6.286,1.694,9.087,2.75c0.707,0.252,1.379,0.545,2.056,0.811c0.331,0.144,0.66,0.288,0.986,0.43l0.411,0.179
			c0.173,0.082,0.355,0.125,0.534,0.18l0.534,0.169l0.552,0.087c0.737,0.08,1.484,0.023,2.2-0.148
			c0.378-0.083,0.691-0.188,0.937-0.275c0.278-0.091,0.492-0.192,0.731-0.292c0.909-0.404,1.631-0.833,2.304-1.251
			c1.401-0.883,2.592-1.76,3.717-2.53c0.561-0.387,1.096-0.744,1.604-1.056c0.45-0.287,1.192-0.679,0.979-0.564l-0.02-0.011
			c0.003-0.332-0.003,0.822-0.022,1.324c-0.02,0.594-0.034,1.033-0.043,1.288c-0.02,0.522-0.008,0.286,0.033-0.896
			c-0.049,1.39-0.096,2.763-0.142,4.114c-0.02,1.31-0.023,2.644,0.142,3.841c0.158,1.207,0.539,2.186,1.09,2.875
			c0.294,0.333,0.644,0.564,1.039,0.88c0.185,0.183,0.457,0.216,0.666,0.308c0.222,0.072,0.424,0.163,0.639,0.203
			c0.842,0.195,1.788,0.078,2.807-0.294c1.016-0.365,2.053-0.992,3.04-1.612c1.2-0.768,1.425-0.94,1.961-1.303
			c0.47-0.323,0.933-0.642,1.386-0.954c0.2-0.136,0.398-0.271,0.595-0.405l-0.002,0.001L539,93.097l-0.006-0.01l0.002-0.006
			c-0.094,0.472-0.177,0.895-0.25,1.264c-0.188,1.001-0.322,1.712-0.394,2.09c-0.127,0.821-0.044,0.112,0.398-2.102
			c-0.149,0.758-0.302,1.53-0.436,2.334c-0.066,0.403-0.13,0.81-0.18,1.242l-0.069,0.659c-0.021,0.218-0.033,0.427-0.048,0.843
			c-0.036,1.435,0.222,2.838,1.032,3.899c0.191,0.263,0.422,0.493,0.68,0.699c0.24,0.217,0.509,0.41,0.795,0.594
			c0.346,0.233,0.687,0.463,1.021,0.689c2.062,1.39,3.77,2.648,4.984,3.579c1.231,0.912,1.939,1.533,2.049,1.606
			c0.094,0.091-0.411-0.365-1.784-1.407c8.157,6.25,13.501,12.395,17.061,17.615c3.553,5.247,5.406,9.541,6.611,12.697
			c0.284,0.797,0.579,1.508,0.782,2.175c0.205,0.666,0.388,1.263,0.552,1.798c0.352,1.062,0.524,1.902,0.685,2.526
			c0.309,1.25,0.414,1.677,0.414,1.677c0,0,0.048,0.21,0.122,0.622c0.077,0.411,0.191,1.022,0.341,1.821
			c0.172,0.794,0.299,1.792,0.446,2.969c0.069,0.589,0.175,1.217,0.231,1.897c0.051,0.68,0.104,1.404,0.161,2.169
			c0.069,0.764,0.114,1.573,0.115,2.427c0.017,0.852,0.033,1.744,0.052,2.676c-0.074,1.867-0.079,3.891-0.31,6.059
			c-0.381,4.331-1.093,9.243-2.434,14.543c-1.315,5.302-3.146,11-5.494,16.937c-2.354,5.937-5.159,12.167-8.621,18.232
			c-3.458,6.062-7.636,12.063-12.915,16.951c-2.625,2.449-5.576,4.514-8.748,6.031c-3.177,1.499-6.607,2.341-10.084,2.36
			c-6.991,0.077-13.911-3.385-19.461-8.371c-5.591-5.007-10.028-11.443-13.128-18.269c-3.073-6.819-4.885-14.212-4.462-21.053
			c0.012-0.429,0.068-0.847,0.114-1.266l0.036-0.34v-0.003l-0.005,0.02l-0.015,0.025l-0.02-0.035l-0.002-0.004l-0.002-0.002v-0.001
			l0.002,0.003l0.047,0.074l0.758,1.185l0.777,1.164l0.395,0.576l0.178,0.252c4.022,5.844,8.457,9.975,10.945,11.763
			c4.493,3.38,9.273,4.927,13.667,4.579c2.188-0.116,4.245-0.756,6.108-1.688c0.455-0.247,0.914-0.496,1.378-0.747
			c0.426-0.302,0.856-0.607,1.294-0.917c0.211-0.155,0.424-0.311,0.639-0.468c0.198-0.179,0.398-0.359,0.601-0.542
			c0.392-0.36,0.791-0.728,1.197-1.102c-4.242,1.264-7.733,1.363-10.934,0.582c-3.202-0.741-6.263-2.239-9.929-5.011
			c-1.987-1.458-5.8-4.971-9.467-10.295l-0.162-0.229l-0.358-0.523l-0.708-1.061l-0.692-1.083c-0.449-0.751-0.899-1.505-1.351-2.261
			c-0.467-0.785-0.903-1.641-1.358-2.461c-0.449-0.841-0.885-1.807-1.329-2.707c-0.453-0.967-0.906-1.936-1.361-2.907l-0.689-1.474
			l-0.344-0.734c-0.057-0.114-0.115-0.263-0.171-0.35l-0.129,0.275c-0.636,1.347-1.274,2.7-1.915,4.059
			c-0.654,1.353-1.288,2.742-1.912,4.155c-0.56,1.56-1.13,3.171-1.438,5.053c-0.088,0.453-0.198,0.913-0.268,1.361l-0.09,0.668
			l-0.045,0.399c-0.057,0.523-0.123,1.049-0.142,1.571c-0.151,2.098-0.093,4.191,0.098,6.265c0.187,2.076,0.508,4.136,0.968,6.163
			c0.896,4.062,2.25,8.025,3.979,11.835c3.466,7.606,8.344,14.734,14.778,20.511c1.601,1.448,3.326,2.779,5.144,3.994
			c1.812,1.22,3.735,2.31,5.768,3.205c2.026,0.897,4.141,1.648,6.338,2.132c2.195,0.483,4.45,0.736,6.705,0.737
			c4.52-0.018,8.974-1.137,12.905-2.998c3.932-1.877,7.424-4.364,10.432-7.164c6.042-5.609,10.511-12.125,14.194-18.565
			c3.688-6.476,6.572-12.904,9.025-19.09c2.448-6.195,4.374-12.186,5.765-17.808c1.417-5.617,2.188-10.891,2.597-15.571
			c0.243-2.338,0.256-4.545,0.33-6.575c-0.02-1.019-0.038-1.994-0.056-2.925c-0.004-0.932-0.053-1.819-0.128-2.66
			c-0.063-0.841-0.123-1.636-0.179-2.384c-0.065-0.748-0.179-1.444-0.256-2.093c-0.163-1.298-0.307-2.399-0.495-3.281
			c-0.166-0.885-0.294-1.562-0.379-2.018c-0.084-0.456-0.137-0.688-0.137-0.688s-0.116-0.475-0.458-1.865
			c-0.177-0.693-0.373-1.625-0.761-2.809c-0.183-0.595-0.387-1.259-0.614-2s-0.552-1.536-0.87-2.423
			c-1.338-3.514-3.413-8.311-7.341-14.11c-3.928-5.771-9.807-12.488-18.506-19.15c1.462,1.111,2.009,1.601,1.906,1.503
			c-0.115-0.079-0.878-0.745-2.187-1.717c-1.295-0.993-3.11-2.331-5.289-3.8l-0.412-0.278l-0.19-0.128l0.005,0.003l0.007,0.005
			l0.001,0.006c0,0.058,0.002-0.093,0.018-0.236l0.045-0.428c0.034-0.295,0.084-0.619,0.14-0.952c0.11-0.667,0.25-1.381,0.397-2.126
			c-0.427,2.146-0.462,2.571-0.365,1.935c0.066-0.347,0.19-1.001,0.365-1.921c0.113-0.59,0.244-1.266,0.39-2.021
			c0.219-1.221,0.453-2.613,0.428-3.958c-0.022-1.357-0.351-2.528-1.064-3.431c-0.176-0.242-0.403-0.437-0.673-0.642
			c-0.261-0.202-0.541-0.464-0.871-0.548c-0.313-0.126-0.593-0.235-0.89-0.327c-0.306-0.057-0.627-0.083-0.962-0.084
			c-0.679,0.009-1.46,0.196-2.299,0.539c-0.843,0.344-1.729,0.868-2.622,1.415c-0.442,0.29-0.89,0.583-1.342,0.879
			c-0.251,0.17-0.504,0.342-0.76,0.516c-0.454,0.312-0.916,0.63-1.387,0.954c-1.335,0.911-0.831,0.561-0.924,0.627h0.011l0.002,0.01
			c0.045-1.288,0.09-2.598,0.137-3.923c-0.042,1.24-0.054,1.458-0.032,0.933c0.009-0.268,0.024-0.729,0.046-1.352
			c0.004-0.711,0.07-1.105-0.021-3.215c-0.041-0.892-0.183-1.821-0.497-2.653c-0.148-0.426-0.372-0.794-0.631-1.146
			c-0.253-0.358-0.687-0.578-1.033-0.925c-0.841-0.492-1.837-0.77-2.927-0.792c-1.095-0.006-2.296,0.253-3.49,0.759
			c-1.406,0.619-1.822,0.916-2.538,1.337c-0.656,0.404-1.281,0.822-1.887,1.24c-1.212,0.833-2.379,1.684-3.475,2.371
			c-0.516,0.323-1.029,0.615-1.445,0.796c-0.096,0.037-0.21,0.096-0.281,0.112c-0.099,0.033-0.131,0.049-0.114,0.042l0.007-0.005
			l0.002,0.004l0.003,0.001l0.026,0.011l-0.136-0.059c-0.367-0.16-0.737-0.321-1.11-0.483c-0.752-0.298-1.509-0.625-2.286-0.903
			c-3.101-1.17-6.408-2.158-9.873-2.996c-6.932-1.664-14.489-2.736-22.378-3.211c-7.889-0.474-16.112-0.383-24.395,0.41
			c-8.274,0.824-16.635,2.248-24.662,5.059c-4.001,1.431-7.943,3.195-11.549,5.839c-1.796,1.317-3.49,2.93-4.889,4.896
			c-1.375,1.973-2.399,4.415-2.588,6.945c-0.077,0.63-0.05,1.252-0.043,1.874c0.039,0.575,0.107,1.102,0.163,1.652l0.095,0.815
			l0.173,0.822c0.132,0.547,0.204,1.091,0.395,1.633c0.186,0.54,0.369,1.078,0.553,1.614c0.232,0.526,0.493,1.045,0.746,1.562
			c0.107,0.247,0.294,0.541,0.413,0.717l0.112,0.175l0.227,0.346c0.293,0.465,0.604,0.905,0.967,1.299
			c0.356,0.393,0.664,0.825,1.055,1.151c1.447,1.462,3.053,2.351,4.416,3.047c1.388,0.644,2.591,1.034,3.514,1.282
			c2.879,0.754,5.429,0.868,7.721,0.762c2.294-0.118,4.348-0.484,6.287-0.99C440.979,115.385,444.441,113.844,448.223,111.563z"/>
		<path d="M530.649,172.636c2.082-1.621,3.921-2.76,5.791-3.907c1.877-1.108,3.823-2.29,6.318-3.099
			c0.422-0.131,0.979-0.278,1.779-0.384c0.799-0.097,1.846-0.125,3.16,0.294c0.747,0.232,1.762,0.718,2.689,1.475
			c0.771,0.606,1.321,1.576,1.583,2.7c0.244,1.126,0.264,2.284,0.209,3.134c0.002,0.419-0.078,0.777-0.095,1.017
			c-0.028,0.242-0.044,0.376-0.044,0.376s-0.015,0.113-0.042,0.317c-0.04,0.206-0.099,0.505-0.17,0.876
			c-0.144,0.741-0.398,1.778-0.771,2.928c-0.713,2.31-1.946,5.047-2.963,6.927c-2.145,3.978-3.905,6.165-4.784,7.3
			c-1.842,2.256-3.313,3.984-4.832,5.417c-0.756,0.743-1.533,1.355-2.426,1.892c-0.887,0.514-1.973,0.874-3.268,0.497
			c0.941,0.958,2.441,1.283,3.717,1.136c1.29-0.136,2.523-0.524,3.628-1.101c2.262-1.129,4.228-2.853,6.289-5.327
			c0.986-1.246,2.906-3.621,5.228-7.921c1.106-2.034,2.445-5.01,3.24-7.609c0.413-1.291,0.703-2.481,0.868-3.354
			c0.082-0.437,0.148-0.789,0.193-1.032c0.033-0.248,0.051-0.384,0.051-0.384s0.021-0.163,0.057-0.458
			c0.025-0.299,0.114-0.711,0.122-1.256c0.066-1.069,0.077-2.587-0.299-4.307c-0.371-1.705-1.388-3.67-2.95-4.893
			c-1.352-1.104-2.83-1.817-4.012-2.182c-2.053-0.647-3.693-0.588-4.851-0.446c-1.169,0.155-1.937,0.373-2.506,0.553
			c-3.354,1.139-5.371,2.906-7.004,4.664C532.951,168.282,531.734,170.218,530.649,172.636z"/>
		<path d="M516.129,143.167c-0.023,0.095-0.132,0.252-0.23,0.36c-0.105,0.103-0.216,0.202-0.322,0.295
			c-0.22,0.196-0.428,0.382-0.626,0.559c-0.396,0.364-0.739,0.717-1.021,1.09c-0.562,0.743-0.876,1.553-0.905,2.614
			c-0.031,1.141-0.045,4.65,0.329,7.95c0.178,1.646,0.45,3.232,0.713,4.407c0.261,1.174,0.487,1.934,0.487,1.934
			s0.192,0.761,0.609,1.939c0.418,1.174,1.088,2.774,2.103,4.371c1.001,1.599,2.415,3.144,3.839,4.207
			c1.428,1.065,2.777,1.661,3.448,1.904c2.515,0.896,4.315-0.116,6.098-2.16c-1.665-2.21-2.265-3.47-3.636-4.032
			c-0.374-0.156-1.096-0.493-1.87-1.07c-0.769-0.584-1.583-1.443-2.231-2.463c-0.652-1.015-1.149-2.147-1.467-3.02
			c-0.318-0.875-0.478-1.477-0.478-1.477s-0.171-0.591-0.375-1.546c-0.205-0.954-0.426-2.283-0.574-3.712
			c-0.313-2.854-0.31-6.105-0.332-7.207c-0.022-1.012-0.311-1.827-0.868-2.624c-0.279-0.396-0.625-0.792-1.047-1.201
			c-0.211-0.203-0.443-0.414-0.7-0.621C516.797,143.458,516.554,143.203,516.129,143.167z"/>
		<path d="M423.505,114.98c-2.59,1.706-4.646,3.338-6.616,5.238c-1.956,1.913-3.84,4.106-5.855,7.172
			c-0.551,0.826-1.347,2.088-2.312,3.665c-0.469,0.797-0.983,1.672-1.534,2.609c-0.479,0.879-0.976,1.787-1.486,2.721
			c-0.519,0.968-1.008,1.988-1.531,3.018c-2.025,4.156-3.957,8.844-5.438,13.855c-1.486,5.005-2.505,10.34-2.808,15.635
			c-0.294,5.288,0.054,10.531,1.126,15.232c0.206,1.187,0.6,2.306,0.881,3.421c0.154,0.554,0.306,1.102,0.455,1.642
			c0.178,0.531,0.382,1.044,0.568,1.556c0.38,1.02,0.749,2.008,1.104,2.962c0.435,0.918,0.854,1.803,1.255,2.65
			c0.424,0.835,0.746,1.679,1.202,2.396c0.43,0.731,0.837,1.422,1.219,2.07c0.383,0.648,0.74,1.252,1.069,1.811
			c0.373,0.527,0.716,1.011,1.023,1.447c1.239,1.739,1.938,2.719,1.938,2.719s0.092,0.156,0.315,0.414
			c0.22,0.261,0.544,0.646,0.962,1.143c0.419,0.497,0.933,1.105,1.529,1.813c0.299,0.354,0.619,0.732,0.959,1.134
			c0.355,0.386,0.754,0.771,1.161,1.189c3.195,3.411,7.985,7.761,14.04,11.828c6.069,4.005,13.507,7.536,21.207,9.315
			c3.839,0.902,7.702,1.428,11.389,1.611c3.689,0.185,7.192-0.017,10.345-0.372c5.666-0.673,9.065-1.671,10.83-2.163
			c3.573-1.035,6.239-2.271,8.6-3.708c2.348-1.453,4.436-3.1,6.597-5.328c-2.938,0.95-5.416,1.494-7.958,2.175
			c-2.547,0.661-5.165,1.424-8.511,2.357c-1.652,0.444-4.832,1.365-10.098,1.986c-2.928,0.327-6.175,0.514-9.586,0.343
			c-3.408-0.17-6.973-0.656-10.52-1.487c-7.11-1.64-14.01-4.905-19.703-8.652c-5.667-3.8-10.252-7.948-13.237-11.137
			c-0.383-0.392-0.76-0.753-1.094-1.114c-0.316-0.375-0.614-0.729-0.893-1.059c-0.558-0.66-1.037-1.227-1.429-1.69
			s-0.695-0.821-0.901-1.064c-0.21-0.24-0.293-0.384-0.292-0.385c0,0-0.646-0.909-1.791-2.522c-0.286-0.403-0.604-0.851-0.949-1.339
			c-0.303-0.515-0.63-1.073-0.98-1.67c-0.352-0.597-0.727-1.233-1.123-1.906c-0.424-0.659-0.709-1.434-1.098-2.199
			c-0.368-0.776-0.753-1.586-1.152-2.428c-0.322-0.872-0.658-1.775-1.004-2.708c-0.17-0.467-0.357-0.936-0.521-1.42
			c-0.135-0.493-0.272-0.993-0.411-1.5c-0.253-1.019-0.62-2.037-0.803-3.122c-0.979-4.29-1.291-9.086-1.02-13.968
			c0.281-4.887,1.228-9.859,2.626-14.567c1.394-4.712,3.224-9.163,5.153-13.126c0.501-0.983,0.965-1.957,1.461-2.883
			c0.487-0.894,0.961-1.763,1.42-2.604c0.525-0.899,1.018-1.739,1.465-2.504c0.923-1.516,1.68-2.731,2.201-3.53
			c1.906-2.964,3.375-5.308,4.659-7.637C420.91,119.993,422.021,117.692,423.505,114.98z"/>
		<path d="M446.087,161.959c0.762-1.983,0.874-3.58-0.327-5.524c-0.324-0.527-1.039-1.559-2.118-2.66
			c-1.087-1.092-2.574-2.192-4.147-2.971c-0.809-0.32-1.582-0.708-2.347-0.877c-0.377-0.103-0.739-0.202-1.08-0.295
			c-0.342-0.082-0.668-0.112-0.966-0.163c-1.201-0.207-1.941-0.227-1.941-0.227c0,0-0.742-0.068-1.942-0.05
			c-1.192,0.04-2.909,0.149-4.771,1.06c-0.917,0.468-1.845,1.219-2.464,2.178c-0.629,0.954-0.916,2.017-1.004,2.916
			c-0.157,1.818,0.235,3.095,0.409,3.722c0.358,1.154,0.911,1.934,1.62,2.522c0.355,0.293,0.75,0.539,1.199,0.739
			c0.444,0.185,0.97,0.389,1.517,0.343c-0.184-0.49-0.137-0.933-0.15-1.343c0.002-0.412,0.013-0.793,0.001-1.159
			c-0.021-0.731-0.125-1.415-0.346-2.21c-0.115-0.421-0.334-1.323-0.245-2.198c0.102-0.89,0.45-1.474,1.306-1.933
			c0.875-0.446,2.118-0.616,3.046-0.631c0.938-0.018,1.571,0.035,1.57,0.035c0,0,0.641,0.025,1.546,0.191
			c0.229,0.041,0.485,0.06,0.744,0.124c0.256,0.073,0.526,0.149,0.81,0.229c0.583,0.119,1.134,0.427,1.738,0.65
			c1.146,0.58,2.228,1.378,3.043,2.187c0.805,0.82,1.362,1.604,1.625,2.005C443.383,160.106,444.391,160.686,446.087,161.959z"/>
		<path d="M422.17,185.021c1.269,2.327,2.584,4.168,4.184,5.916c1.618,1.729,3.537,3.393,6.385,4.97
			c1.002,0.464,2.511,1.475,6.207,2.529c0.532,0.203,1.503,0.346,2.318,0.493c0.81,0.175,1.511,0.174,1.511,0.174
			c0,0,0.58,0.033,1.321,0.076c0.186,0.009,0.381,0.018,0.58,0.027l0.605-0.051c0.402-0.038,0.792-0.074,1.117-0.104
			c0.328-0.036,0.658-0.057,0.962-0.105c0.295-0.064,0.581-0.126,0.861-0.187c0.559-0.126,1.093-0.23,1.591-0.359
			c0.979-0.318,1.871-0.542,2.617-0.854c1.515-0.57,2.57-1.112,3.295-1.481c2.912-1.542,4.852-3.292,6.393-5.133
			c1.516-1.864,2.699-3.846,3.615-6.337c-1.965,1.759-3.77,2.932-5.59,4.167c-1.84,1.207-3.734,2.452-6.271,3.761
			c-0.632,0.312-1.549,0.778-2.854,1.264c-0.642,0.271-1.41,0.451-2.249,0.73c-0.428,0.109-0.887,0.195-1.365,0.304
			c-0.24,0.053-0.486,0.106-0.738,0.162c-0.248,0.039-0.492,0.046-0.747,0.073c-0.249,0.023-0.548,0.052-0.856,0.081l-0.465,0.05
			c-0.156-0.007-0.31-0.015-0.456-0.022c-0.584-0.025-1.041-0.045-1.041-0.045s-0.546,0.001-1.208-0.158
			c-0.661-0.133-1.443-0.237-1.898-0.406c-1.548-0.404-2.654-0.919-3.509-1.254c-0.834-0.411-1.408-0.694-1.845-0.91
			c-2.545-1.376-4.503-2.609-6.438-3.73C426.28,187.515,424.372,186.477,422.17,185.021z"/>
		<ellipse transform="matrix(0.8642 0.5032 -0.5032 0.8642 139.3343 -215.806)" cx="469.427" cy="150.2" rx="2.15" ry="4.874"/>
		<ellipse transform="matrix(0.9939 0.11 -0.11 0.9939 18.0627 -46.9939)" cx="434.874" cy="140.181" rx="2.15" ry="4.874"/>
		<path d="M403.597,149.574c0,0-26.324-4.148-21.07-22.778c0,0-25.59,17.797-16.513,39.292
			c9.075,21.495,35.875,26.194,35.875,26.194S394.264,170.254,403.597,149.574z"/>
		<path fill="#FFFFFF" d="M256.322,64.131c5.896-3.388,12.525-5.646,18.985-7.655c17.115-5.325,35.086-7.273,52.962-6.782
			c23.445,0.644,49.959,5.918,70.268,18.437c4.129,2.546,7.893-3.943,3.785-6.476c-21.548-13.283-49.196-18.518-74.053-19.461
			c-18.486-0.702-37.25,1.69-54.956,7.049c-7.055,2.136-14.354,4.721-20.776,8.412C248.346,60.063,252.121,66.545,256.322,64.131z"
			/>
		<path fill="#FFFFFF" d="M256.322,37.131c5.896-3.388,12.525-5.646,18.985-7.655c17.115-5.325,35.086-7.273,52.962-6.782
			c23.445,0.644,49.959,5.918,70.268,18.437c4.129,2.546,7.893-3.943,3.785-6.476c-21.548-13.283-49.196-18.518-74.053-19.461
			c-18.486-0.702-37.25,1.69-54.956,7.049c-7.055,2.136-14.354,4.721-20.776,8.412C248.346,33.063,252.121,39.545,256.322,37.131z"
			/>
		<path fill="#8FA0A3" d="M119.77,421.138c0,0-11.202-39.585-12.05-43.803c-0.852-4.218,2.852-10.524,9.157-6.82
			c6.307,3.702,10.096,16.69,12.804,21.412c2.708,4.72,9.077,13.093,14.598,17.247c5.52,4.154,19.034,13.135,24.049,19.146
			c5.017,6.011,11.555,13.765,11.555,13.765s29.316,4.622,31.068,10.414c1.754,5.792-18.045,7.735-30.595,4.998
			c-12.549-2.736-12.549-2.736-12.549-2.736s20.074,31.359,8.376,32.84c-11.698,1.479-29.025-35.115-29.025-35.115
			s-0.047,41.854-11.81,38.666s-5.64-45.389-5.64-45.389s-20.089,32.435-28.368,26.201
			C93.062,465.736,121.92,430.362,119.77,421.138z"/>
		<path fill="#8FA0A3" d="M448.204,421.157c0,0,15.508-16.984,35.979-24.441c20.471-7.457,34.212-24.437,41.643-18.095
			c7.431,6.344-16.208,20.165-23.597,35.014s15.938,21.159,27.602,26.084c11.666,4.922,25.107,15.138,20.169,17.973
			c-4.94,2.835-50.901-20.032-50.536-13.675c0.364,6.357,41.749,36.653,35.402,42.314c-6.345,5.665-43.87-37.706-48.1-32.753
			c-4.229,4.952,31.166,41.97,23.76,47.989c-7.408,6.02-35.755-41.608-43.518-36.647c-7.761,4.958,9.325,50.02-0.614,47.329
			c-7.774-2.103-17.031-40.232-31.567-67.753C427.224,430.098,448.204,421.157,448.204,421.157z"/>
		<path fill="#FFFFFF" d="M566.626,372.99c4.087-5.996,7.017-12.889,9.708-19.586c6.763-16.828,10.201-34.886,11.281-52.943
			c1.514-25.315-1.982-54.225-13.78-77.132c-2.216-4.301-8.687-0.506-6.477,3.785c11.258,21.857,13.943,49.265,12.757,73.347
			c-1.132,22.972-6.736,49.338-19.966,68.744C557.417,373.213,563.92,376.959,566.626,372.99z"/>
		<path fill="#FFFFFF" d="M580.414,399.392c16.13-17.44,25.607-42.284,30.869-64.972c4.35-18.756,5.495-38.308,3.481-57.445
			c-0.859-8.167-2.098-16.639-4.752-24.452c-1.547-4.553-8.793-2.599-7.232,1.994c8.289,24.396,6.732,53.231,1.271,77.909
			c-3.553,16.054-9.554,31.557-17.812,45.771c-3.212,5.528-6.766,11.173-11.129,15.892
			C571.833,397.633,577.124,402.95,580.414,399.392z"/>
		<path d="M281.766,621.559c2.155,2.243,4.405,3.754,6.89,5.034c1.265,0.585,2.586,1.196,4.086,1.602
			c0.747,0.215,1.523,0.462,2.353,0.639c0.833,0.154,1.709,0.303,2.638,0.445c0.314,0.049,0.679,0.104,1.114,0.17
			c0.437,0.058,0.947,0.076,1.552,0.125c0.604,0.043,1.303,0.092,2.118,0.149c0.408,0.023,0.845,0.069,1.313,0.079
			c0.469-0.006,0.97-0.012,1.505-0.018c1.37-0.021,3.686,0.017,5.63-0.254c1.949-0.201,3.56-0.366,3.56-0.366
			s1.33-0.238,3.028-0.543c0.849-0.155,1.789-0.326,2.702-0.492c0.905-0.195,1.762-0.463,2.484-0.65
			c1.366-0.372,2.603-0.709,3.715-1.013c1.114-0.301,2.053-0.715,2.909-1.003c1.697-0.62,2.945-1.076,3.803-1.39
			c0.879-0.29,1.644-0.712,2.394-1.069c0.744-0.369,1.447-0.732,2.117-1.095c1.334-0.736,2.564-1.412,3.681-2.206
			c2.197-1.653,4.158-3.389,6.409-5.478c-3.016,0.804-5.476,1.496-7.959,2.413c-1.257,0.424-2.565,0.801-3.929,1.321
			c-0.684,0.254-1.388,0.529-2.121,0.832c-0.738,0.29-1.482,0.668-2.318,0.932c-0.814,0.292-2.002,0.718-3.615,1.296
			c-0.812,0.271-1.705,0.667-2.756,0.946c-1.049,0.284-2.213,0.6-3.5,0.948c-0.682,0.173-1.49,0.429-2.339,0.613
			c-0.854,0.158-1.733,0.321-2.526,0.469c-1.587,0.299-2.83,0.533-2.83,0.533s-1.498,0.142-3.313,0.313
			c-1.813,0.248-3.948,0.199-5.214,0.234c-0.495,0.008-0.957,0.015-1.391,0.021c-0.432-0.008-0.832-0.052-1.207-0.072
			c-0.75-0.051-1.392-0.094-1.947-0.132c-0.555-0.042-1.026-0.055-1.426-0.105c-0.398-0.058-0.731-0.106-1.02-0.149
			c-0.85-0.123-1.654-0.226-2.428-0.312c-0.76-0.124-1.486-0.242-2.194-0.358c-1.423-0.173-2.7-0.456-3.993-0.636
			C287.194,622.859,284.701,622.521,281.766,621.559z"/>
		<path fill="#FFFFFF" d="M68.298,378.249c-15.458-15.53-24.988-38.225-30.796-58.879c-5.137-18.265-6.984-37.365-5.772-56.283
			c0.496-7.754,1.429-15.786,3.667-23.264c1.391-4.646-5.849-6.615-7.232-1.994c-2.312,7.727-3.207,16.012-3.846,24.013
			c-1.593,19.967,0.73,40.225,5.951,59.522c5.913,21.858,16.453,45.84,32.726,62.188C66.41,386.983,71.713,381.678,68.298,378.249z"
			/>
		<path fill="#FFFFFF" d="M219.242,538.072c-13.058-1.042-27.571-8.745-38.448-16.67c-10.459-7.619-20.661-18.438-26.038-30.403
			c-1.98-4.405-8.441-0.588-6.477,3.785c5.669,12.613,16.446,23.802,27.299,32.013c12.339,9.335,27.916,17.519,43.664,18.775
			C224.066,545.957,224.029,538.454,219.242,538.072z"/>
		<path fill="#FFFFFF" d="M470.486,478.616c-4.54,9.372-13.058,17.14-21.412,23.009c-9.566,6.72-22.029,12.421-33.925,13.056
			c-4.811,0.257-4.835,7.758,0,7.5c12.777-0.682,25.556-6.271,36.173-13.049c10.033-6.404,20.352-15.815,25.641-26.73
			C479.062,478.069,472.595,474.264,470.486,478.616z"/>
		<path fill="#FFFFFF" d="M95.71,386.205c-13.309-19.522-18.586-45.677-19.966-68.744c-1.075-17.981,0.875-36.103,5.58-53.477
			c1.821-6.727,3.972-13.647,7.177-19.87c2.21-4.292-4.261-8.086-6.477-3.785c-11.868,23.044-15.034,51.685-13.78,77.132
			c0.891,18.071,4.66,36.103,11.281,52.943c2.635,6.703,5.631,13.604,9.708,19.586C91.94,393.959,98.442,390.213,95.71,386.205z"/>
		<path d="M130.182,209.744c0.56,0.474,0.933,1.142,1.382,1.712c0.438,0.589,0.87,1.168,1.294,1.739
			c0.866,1.137,1.752,2.218,2.669,3.25c1.832,2.07,3.798,3.941,6.024,5.651c2.228,1.704,4.714,3.264,7.643,4.565
			c2.928,1.292,6.304,2.343,10.238,2.861c2.971,0.367,8.268,0.689,14.501-0.814c0.393-0.076,0.773-0.206,1.167-0.309l0.908-0.257
			c0.526-0.136,1.037-0.301,1.53-0.499c1.997-0.769,4.08-1.418,6.055-2.501c0.501-0.25,1.004-0.5,1.509-0.752
			c0.507-0.248,1.015-0.501,1.489-0.824c0.967-0.612,1.941-1.23,2.923-1.852c1.866-1.385,3.772-2.805,5.456-4.517
			c3.45-3.328,6.409-7.318,8.683-11.724c0.61-1.083,1.062-2.246,1.59-3.378c0.451-1.167,0.934-2.324,1.302-3.538
			c0.197-0.6,0.392-1.204,0.552-1.828c0.175-0.613,0.336-1.24,0.476-1.889c0.075-0.313,0.144-0.649,0.206-0.997l0.099-0.558
			l0.026-0.167l0.006-0.042c2.002-0.012-17.404-0.096-9.189-0.052l0.003,0.024l0.016,0.153c0.048,0.462,0.085,0.989,0.115,1.503
			c0.413,8.237-0.814,17.029-4.309,24.41c-0.884,1.837-1.877,3.611-3.065,5.219c-1.141,1.649-2.488,3.113-3.912,4.479
			c-2.901,2.677-6.312,4.761-10.03,6.201c-0.926,0.367-1.898,0.639-2.838,0.969c-0.962,0.284-1.953,0.493-2.922,0.749
			c-1.979,0.398-3.948,0.729-6.1,0.962c-4.206,0.491-8.367,0.765-12.438,0.837c-4.069,0.043-8.041-0.122-11.877-0.463
			c-3.836-0.349-7.516-0.95-11.026-1.656c-6.993-1.519-13.256-3.672-18.448-6.3c-5.217-2.588-9.407-5.516-12.606-8.221
			c-1.633-1.321-2.94-2.67-4.122-3.804c-1.128-1.186-2.044-2.243-2.812-3.079c-1.409-1.782-2.168-2.743-2.168-2.743
			s-0.124-0.134-0.322-0.428c-0.2-0.292-0.498-0.727-0.888-1.294c-0.38-0.574-0.892-1.253-1.421-2.105
			c-0.513-0.863-1.104-1.856-1.767-2.972c-2.566-4.509-5.532-11.49-7.477-20.549c-0.909-4.555-1.703-9.514-1.965-15.025
			c-0.092-1.369-0.186-2.758-0.279-4.167c-0.063-1.408-0.05-2.832-0.08-4.276c-0.003-1.442-0.077-2.909-0.025-4.38
			c0.062-1.47,0.125-2.958,0.189-4.46c0.595-11.968,3.257-24.86,9.547-36.121c3.16-5.612,7.229-10.672,12.079-15.093
			c4.892-4.485,10.109-8.109,15.995-10.553c5.844-2.493,12.113-4.059,18.368-5.073c3.137-0.479,6.244-0.918,9.342-1.181
			c1.543-0.156,3.071-0.311,4.603-0.387c1.441-0.092,2.867-0.183,4.277-0.273c9.19-0.492,16.544-0.14,21.012-0.58
			c0.975-0.084,1.961-0.256,2.898-0.39c0.981-0.227,1.901-0.39,2.862-0.71c0.478-0.165,0.95-0.328,1.417-0.489
			c0.472-0.184,0.963-0.438,1.428-0.661c0.459-0.203,0.941-0.511,1.411-0.835c0.465-0.308,0.918-0.622,1.367-1.075
			c0.442-0.425,0.872-0.813,1.246-1.375c0.379-0.527,0.741-1.041,0.985-1.669c0.132-0.301,0.255-0.604,0.368-0.905
			c0.104-0.303,0.155-0.617,0.223-0.925c0.061-0.309,0.114-0.617,0.158-0.922l0.014-0.873c-0.042-2.321-0.816-4.037-1.617-5.454
			c-0.822-1.426-1.789-2.552-2.79-3.59c-1.003-1.038-2.07-1.946-3.187-2.797c-2.231-1.697-4.661-3.175-7.395-4.525
			c1.776,2.464,3.222,4.816,4.456,7.085c0.615,1.133,1.177,2.249,1.641,3.347c0.465,1.091,0.876,2.176,1.081,3.168
			c0.223,0.982,0.233,1.889,0.047,2.31c-0.216,0.425-0.304,0.333-0.754,0.624c-0.482,0.248-1.337,0.646-2.549,0.893
			c-0.562,0.152-1.268,0.228-1.921,0.363c-0.728,0.065-1.439,0.182-2.227,0.24c-3.164,0.332-11.164,0-20.64,0.488
			c-1.475,0.094-2.965,0.188-4.471,0.284c-1.594,0.08-3.209,0.242-4.839,0.406c-3.258,0.278-6.583,0.742-9.954,1.26
			c-6.733,1.096-13.714,2.801-20.521,5.703c-6.833,2.819-13.229,7.28-18.593,12.235c-5.469,4.975-10.277,10.938-13.887,17.377
			c-3.611,6.456-6.138,13.321-7.824,20.124c-1.747,6.807-2.499,13.574-2.887,20.033c-0.067,1.616-0.134,3.216-0.199,4.798
			c-0.054,1.581,0.021,3.136,0.027,4.676c0.031,1.538,0.021,3.062,0.09,4.556c0.1,1.49,0.198,2.959,0.295,4.407
			c0.279,5.771,1.146,11.32,2.154,16.302c2.144,10.006,5.507,17.94,8.453,23.112c0.763,1.281,1.441,2.422,2.032,3.413
			c0.609,0.979,1.196,1.769,1.638,2.429c0.451,0.653,0.796,1.153,1.028,1.49c0.23,0.338,0.372,0.496,0.372,0.496
			s0.878,1.111,2.508,3.175c0.884,0.974,1.946,2.199,3.254,3.571c1.362,1.32,2.886,2.877,4.768,4.41
			c3.697,3.131,8.529,6.504,14.453,9.445c5.903,2.985,12.916,5.396,20.633,7.072c3.866,0.784,7.902,1.439,12.077,1.823
			c4.175,0.375,8.478,0.554,12.87,0.508c4.391-0.076,8.866-0.368,13.386-0.894c2.217-0.238,4.621-0.624,7.007-1.113
			c1.188-0.303,2.385-0.564,3.571-0.915c1.179-0.4,2.373-0.748,3.542-1.208c4.687-1.807,9.193-4.527,13.011-8.064
			c1.88-1.79,3.642-3.729,5.122-5.853c1.533-2.09,2.802-4.342,3.905-6.642c2.193-4.616,3.582-9.482,4.389-14.339
			c0.812-4.872,1.063-9.71,0.805-14.579v0c-0.037-0.63-0.08-1.247-0.148-1.922l-0.029-0.273l-0.01-0.082
			c8.214,0.032-11.195-0.095-9.196-0.073l-0.002,0.011l-0.008,0.045l-0.054,0.285c-0.038,0.215-0.082,0.438-0.142,0.68
			c-0.206,0.933-0.477,1.91-0.794,2.857c-0.285,0.959-0.684,1.89-1.038,2.824c-0.432,0.905-0.781,1.847-1.277,2.709
			c-1.827,3.534-4.174,6.689-6.888,9.307c-1.316,1.357-2.831,2.458-4.295,3.564c-0.778,0.493-1.552,0.982-2.317,1.467
			c-0.371,0.262-0.781,0.46-1.19,0.656c-0.405,0.201-0.81,0.401-1.211,0.601c-1.563,0.883-3.291,1.392-4.909,2.034
			c-0.761,0.333-1.847,0.551-1.93,0.603c-0.307,0.081-0.604,0.19-0.909,0.245c-4.828,1.17-8.882,0.937-11.221,0.677
			c-6.161-0.784-10.979-2.427-15.654-4.163c-2.337-0.883-4.641-1.826-7.031-2.907c-1.197-0.538-2.417-1.109-3.675-1.727
			c-0.632-0.313-1.272-0.631-1.925-0.954c-0.33-0.163-0.663-0.326-1-0.491C130.913,209.999,130.571,209.791,130.182,209.744z"/>
		<path d="M287.864,550.733c0.801-0.835,1.479-1.414,2.035-2.017c0.56-0.597,0.978-1.217,1.409-1.978
			c0.211-0.434,0.723-1.221,1.474-1.9c0.761-0.66,1.787-1.159,3.035-1.169c0.29-0.057,0.628,0.032,0.93,0.032
			c0.31,0.021,0.606,0.013,0.915,0.109c0.619,0.163,1.133,0.209,1.67,0.406c1.039,0.315,1.676,0.567,1.676,0.567
			s0.656,0.229,1.602,0.667c0.936,0.44,2.17,1.103,3.159,1.963c1.02,0.85,1.642,1.881,1.848,2.786
			c0.21,0.913,0.067,1.762-0.03,2.191c-0.187,0.792-0.276,1.497-0.296,2.295c-0.028,0.797,0.049,1.687-0.019,2.836
			c1.142-0.232,2.071-0.638,2.849-1.257c0.771-0.626,1.402-1.503,1.761-2.842c0.178-0.708,0.504-2.28,0.069-4.223
			c-0.415-1.944-1.763-3.912-3.269-5.145c-1.499-1.285-3.066-2.085-4.213-2.624c-1.153-0.526-1.907-0.783-1.907-0.783
			s-0.748-0.3-1.917-0.66c-0.548-0.207-1.39-0.351-2.205-0.547c-0.406-0.116-0.884-0.135-1.362-0.17
			c-0.485-0.014-0.958-0.108-1.481-0.043c-2.058,0-4.345,0.979-5.732,2.252c-1.406,1.267-2.154,2.56-2.457,3.188
			c-0.609,1.175-0.733,2.203-0.627,3.17C286.891,548.805,287.262,549.745,287.864,550.733z"/>
		<path d="M342.252,547.075c-1.874,1.083-3,1.72-4.225,3.345c-0.335,0.435-1.015,1.305-1.934,2.223
			c-0.916,0.915-2.101,1.848-3.292,2.353c-1.19,0.53-2.332,0.569-3.163,0.417c-0.208-0.049-0.397-0.094-0.564-0.134
			c-0.166-0.06-0.311-0.11-0.429-0.152c-0.239-0.07-0.367-0.165-0.368-0.155c0,0-0.132-0.063-0.366-0.176
			c-0.217-0.135-0.579-0.308-0.92-0.585c-0.379-0.25-0.723-0.617-1.074-1.021c-0.318-0.427-0.597-0.925-0.782-1.495
			c-0.393-1.134-0.342-2.574-0.112-3.803c0.229-1.235,0.599-2.259,0.785-2.764c0.723-1.867,0.683-3.15,0.669-5.313
			c-1.973,0.905-3.202,1.817-4.105,3.996c-0.235,0.596-0.689,1.804-0.994,3.406c-0.293,1.586-0.425,3.652,0.237,5.627
			c0.317,0.977,0.821,1.884,1.393,2.627c0.598,0.715,1.214,1.313,1.788,1.705c0.56,0.434,1.055,0.677,1.398,0.878
			c0.357,0.171,0.559,0.268,0.559,0.268s0.051,0.024,0.146,0.069c0.093,0.049,0.236,0.109,0.43,0.176
			c0.19,0.067,0.423,0.149,0.691,0.245c0.281,0.067,0.599,0.145,0.948,0.229c1.409,0.291,3.499,0.172,5.294-0.641
			c1.813-0.775,3.325-2.013,4.444-3.127c1.119-1.123,1.89-2.132,2.263-2.641C342.323,550.74,342.469,549.235,342.252,547.075z"/>
		<path d="M292.66,520.16c-1.646,1.405-2.638,2.236-3.546,4.058c-0.25,0.488-0.76,1.467-1.497,2.537
			c-0.734,1.066-1.729,2.198-2.81,2.912c-1.074,0.737-2.189,0.983-3.034,0.985c-0.213-0.011-0.407-0.021-0.579-0.029
			c-0.175-0.028-0.325-0.053-0.449-0.072c-0.249-0.025-0.391-0.096-0.391-0.086c0,0-0.142-0.038-0.392-0.105
			c-0.238-0.093-0.626-0.197-1.012-0.408c-0.418-0.177-0.822-0.476-1.242-0.809c-0.39-0.362-0.754-0.802-1.041-1.328
			c-0.593-1.043-0.805-2.47-0.803-3.72c0.002-1.256,0.179-2.329,0.27-2.859c0.371-1.968,0.099-3.222-0.309-5.347
			c-1.774,1.249-2.818,2.37-3.311,4.677c-0.122,0.628-0.35,1.898-0.356,3.529c-0.001,1.613,0.246,3.669,1.256,5.49
			c0.49,0.903,1.15,1.703,1.848,2.33c0.718,0.594,1.433,1.07,2.068,1.351c0.629,0.325,1.16,0.475,1.534,0.61
			c0.384,0.103,0.6,0.16,0.6,0.16s0.054,0.015,0.155,0.042c0.101,0.031,0.253,0.065,0.454,0.095c0.2,0.031,0.444,0.07,0.726,0.115
			c0.288,0.016,0.615,0.033,0.974,0.054c1.439,0.029,3.472-0.468,5.089-1.593c1.643-1.093,2.904-2.584,3.803-3.883
			c0.896-1.309,1.47-2.44,1.744-3.009C293.396,523.75,293.266,522.244,292.66,520.16z"/>
		<path d="M302.43,573.393c-0.17,1.308-0.553,2.434-0.971,3.443c-0.418,1.012-0.938,1.896-1.536,2.69
			c-1.184,1.603-2.694,2.839-5.114,3.828c-0.133,0.065-0.283,0.132-0.555,0.2c-0.236,0.072-0.565,0.171-1.062,0.32l0.006-0.002
			l0.021,0.015l-0.171-0.241c-0.132-0.222-0.286-0.533-0.439-0.945c-0.181-0.461-0.433-1.357-0.607-2.156
			c-0.178-0.796-0.29-1.482-0.29-1.482s-0.091-0.57-0.185-1.312c-0.096-0.742-0.187-1.656-0.25-2.31
			c-0.171-1.916-0.247-3.544-0.29-4.812c-0.05-1.701-0.03-1.071-0.038-1.191l-0.004-0.003c0.234-0.041,0.463-0.082,0.686-0.122
			c0.31-0.032,0.612-0.098,0.906-0.108c0.59-0.059,1.148-0.071,1.681-0.061c1.075,0.006,2.023,0.193,2.953,0.463
			C298.993,570.18,300.787,571.297,302.43,573.393c-0.798-5.115-5.412-9.362-12.836-7.748c-0.229,0.058-0.476,0.118-0.887,0.22
			c-0.389,0.132-0.934,0.316-1.773,0.602c-0.017,0.909-0.007,3.398,0.035,4.292c0.043,1.323,0.118,3.017,0.298,5.045
			c0.061,0.694,0.164,1.668,0.276,2.472c0.11,0.804,0.223,1.438,0.223,1.438s0.109,0.756,0.308,1.687
			c0.193,0.929,0.494,2.036,0.772,2.721c0.22,0.588,0.475,1.128,0.775,1.627c0.182,0.26,0.298,0.482,0.519,0.722
			c0.234,0.271,0.517,0.56,0.776,0.73c0.261,0.201,0.523,0.354,0.796,0.458c0.262,0.128,0.524,0.189,0.782,0.226
			c0.254,0.061,0.498,0.046,0.731,0.019c0.231-0.03,0.457-0.014,0.668-0.059c0.781-0.235,1.296-0.391,1.667-0.503
			c0.344-0.096,0.549-0.185,0.734-0.272c0.809-0.362,1.575-0.694,2.24-1.185c0.696-0.417,1.268-0.966,1.808-1.485
			c1.022-1.102,1.785-2.291,2.194-3.54c0.443-1.232,0.627-2.479,0.59-3.724C303.089,575.892,302.896,574.638,302.43,573.393z"/>
		<path d="M282.765,494.226c0.083,1.542,0.291,3.054,0.588,4.484c0.269,1.451,0.643,2.827,1.04,4.185
			c0.816,2.7,1.827,5.261,3.097,7.764c0.595,1.285,1.322,2.499,2.089,3.741c0.771,1.238,1.551,2.536,2.514,3.751
			c0.938,1.237,1.926,2.523,3.011,3.827c1.138,1.249,2.352,2.541,3.655,3.887c0.857,0.942,2.105,2.036,3.886,3.667
			c0.899,0.804,1.908,1.773,3.146,2.825c1.262,1.019,2.705,2.183,4.362,3.521c1.505,1.297,3.682,2.804,6.012,4.467
			c1.17,0.823,2.367,1.707,3.593,2.532c1.25,0.785,2.497,1.568,3.691,2.319c2.397,1.484,4.547,2.916,6.207,3.764
			c1.633,0.901,2.649,1.462,2.649,1.462s0.849,0.474,2.239,1.25c0.695,0.388,1.527,0.852,2.455,1.368
			c0.927,0.522,1.997,0.997,3.104,1.554c2.226,1.086,4.693,2.29,7.087,3.458c2.398,1.155,4.78,2.161,6.773,3.001
			c10.408,4.371,17.596,6.065,21.78,6.395c2.098,0.177,4.229,0.174,6.497-0.351c1.136-0.276,2.315-0.71,3.45-1.379
			c1.137-0.659,2.217-1.646,2.992-2.77c0.785-1.126,1.257-2.356,1.497-3.486c0.249-1.141,0.266-2.178,0.206-3.131
			c-0.128-1.913-0.615-3.479-1.168-4.927c-1.15-2.859-2.688-5.198-4.428-7.433c-1.754-2.221-3.725-4.329-6.023-6.411
			c1.052,2.906,1.827,5.606,2.473,8.177c0.634,2.563,1.13,5.036,1.32,7.351c0.079,1.141,0.088,2.262-0.085,3.137
			c-0.146,0.911-0.506,1.404-0.719,1.497c-0.119,0.061-0.202,0.104-0.435,0.178c-0.227,0.071-0.555,0.169-1.005,0.238
			c-0.916,0.135-2.226,0.14-3.702-0.011c-2.898-0.242-9.143-1.611-19.021-5.771c-1.883-0.802-4.161-1.762-6.462-2.867
			c-2.297-1.112-4.663-2.259-6.799-3.293c-1.061-0.528-2.094-0.978-2.978-1.472c-0.886-0.489-1.68-0.928-2.345-1.294
			c-1.329-0.732-2.14-1.18-2.14-1.18s-0.967-0.539-2.518-1.405c-1.585-0.815-3.604-2.184-5.871-3.598
			c-1.129-0.714-2.308-1.458-3.489-2.204c-1.155-0.782-2.275-1.616-3.376-2.392c-2.189-1.566-4.248-2.978-5.653-4.179
			c-1.551-1.246-2.9-2.33-4.082-3.279c-1.153-0.977-2.085-1.872-2.923-2.614c-1.655-1.505-2.827-2.51-3.616-3.368
			c-1.209-1.227-2.371-2.368-3.502-3.441c-1.071-1.121-2.086-2.192-3.102-3.197c-1.044-0.987-1.935-2.015-2.871-2.974
			c-0.934-0.962-1.876-1.88-2.727-2.843c-1.791-1.872-3.512-3.735-5.257-5.74c-0.861-1.01-1.756-2.042-2.601-3.165
			C284.405,496.739,283.564,495.554,282.765,494.226z"/>
		<path d="M282.765,503.559c-1.554-0.1-3.071,0.025-4.528,0.187c-1.464,0.163-2.877,0.407-4.261,0.709
			c-2.766,0.609-5.407,1.46-8.021,2.614c-2.616,1.149-5.188,2.639-7.771,4.573c-2.575,1.94-5.163,4.346-7.621,7.442
			c-1.544,1.895-3.774,5.087-5.824,9.301c-0.553,1.033-0.971,2.183-1.469,3.343c-0.119,0.292-0.249,0.583-0.359,0.884
			c-0.191,0.565-0.385,1.136-0.58,1.71c-0.309,0.896-0.613,1.799-0.834,2.729c-0.232,0.927-0.509,1.854-0.704,2.798
			c-0.829,3.78-1.205,7.703-1.328,11.669c0.049,1.973-0.015,3.979,0.192,5.959c0.081,0.993,0.143,1.993,0.244,2.988
			c0.136,0.987,0.272,1.978,0.409,2.97c1.099,7.754,3.453,16.202,8.048,23.301c4.481,7.184,10.874,13.005,17.756,17.01
			c6.896,4.037,14.164,6.484,21.039,7.979c0.863,0.172,1.72,0.343,2.568,0.512c0.426,0.073,0.85,0.146,1.271,0.219l0.133,0.022
			l-0.007-0.001l-0.014-0.002l-0.01-0.002l-0.026-0.005l-0.021-0.012l0.031-0.021c0.003-0.002,0.046-0.026-0.111,0.062l-0.09,0.05
			l-0.682,0.347c-0.456,0.227-0.9,0.476-1.359,0.682c-3.647,1.725-7.354,2.971-11.016,3.602c-3.656,0.654-7.25,0.761-10.673,0.377
			c-3.425-0.379-6.67-1.244-9.704-2.392c-6.028-2.446-11.191-5.931-15.458-9.734c-1.05-0.978-2.075-1.932-3.076-2.862
			c-0.951-0.996-1.88-1.967-2.784-2.913c-0.921-0.938-1.658-1.93-2.466-2.85c-0.815-0.906-1.484-1.888-2.17-2.811
			c-0.341-0.464-0.678-0.92-1.009-1.369c-0.323-0.455-0.601-0.932-0.896-1.385c-0.57-0.921-1.171-1.782-1.669-2.668
			c-0.974-1.783-1.927-3.419-2.629-5.033c-0.365-0.799-0.756-1.546-1.06-2.295c-0.301-0.752-0.587-1.471-0.86-2.156
			c-0.583-1.355-0.96-2.642-1.347-3.768c-1.46-4.538-1.903-6.963-1.904-6.962c0,0-0.176-0.819-0.508-2.366
			c-0.15-0.776-0.285-1.748-0.475-2.885c-0.209-1.135-0.35-2.458-0.506-3.943c-0.638-5.923-0.899-14.63,0.854-25.011
			c0.867-5.18,2.229-10.762,4.254-16.497c2.003-5.739,4.74-11.608,8.282-17.228c0.424-0.717,0.892-1.404,1.374-2.086
			c0.48-0.682,0.94-1.388,1.442-2.061c1.031-1.322,2.036-2.691,3.178-3.941c2.218-2.561,4.665-4.973,7.382-7.006
			c2.694-2.05,5.651-3.782,8.861-5.209c3.222-1.393,6.658-2.462,10.208-3.264c3.55-0.81,7.228-1.321,10.956-1.576
			c3.728-0.261,7.502-0.322,11.284-0.159c7.563,0.338,15.141,1.382,22.478,3.016c7.325,1.627,14.487,3.767,20.985,6.514
			c0.796,0.358,1.619,0.686,2.385,1.063l1.16,0.552l0.145,0.068l0.248,0.135l0.538,0.297l1.073,0.592
			c1.341,0.666,3.093,1.902,4.676,2.912c0.788,0.514,1.575,1.026,2.36,1.538c0.248,0.276,0.257-0.135,0.362-0.298l0.262-0.628
			l0.522-1.254c1.048-2.516,2.087-5.009,3.114-7.477c-0.234,0.563-0.467,1.12-0.696,1.671c-0.168,0.4-0.332,0.793-0.491,1.174
			c-0.079,0.189-0.158,0.377-0.235,0.562l-0.11,0.261l-0.012-0.073c-0.03-0.192-0.058-0.372-0.083-0.536
			c-0.023-0.161-0.044-0.307-0.062-0.433l-0.022-0.171l-0.009-0.072l-0.004-0.033l-0.001-0.009l0.013,0.072
			c0.021,0.124,0.042,0.246,0.062,0.366c0.616,3.64,1.221,7.056,1.733,9.768c2.67-0.812,5.202-1.604,7.585-2.37
			c0.591-0.191,1.178-0.381,1.759-0.569l0.431-0.141c0.192-0.061,0.096-0.039,0.127-0.055l0.031-0.046l0.194-0.221
			c0.338-0.335,1.013-0.832,2.265-1.561c0.365,0.13,0.648,0.686,0.701,2.052c0.013,0.343,0.011,0.736-0.009,1.189
			c0.001,0.098-0.017,0.244-0.042,0.415l-0.066,0.481c-0.043,0.321-0.086,0.646-0.13,0.972c-0.164,1.307-0.332,2.649-0.507,4.044
			c0.796-1.157,1.563-2.271,2.312-3.357c0.185-0.272,0.367-0.543,0.549-0.812l0.271-0.402c0.085-0.123,0.18-0.27,0.292-0.464
			c0.426-0.715,0.863-1.478,1.313-2.282c1.801-3.223,3.779-7.116,5.875-11.527c-3.013,0.489-6.685,1.233-10.953,2.216
			c-1.089,0.256-2.191,0.517-3.313,0.78l-0.862,0.209c-0.117,0.028-0.364,0.093-0.322,0.074l-0.021-0.012l-0.067-0.048l-0.068-0.184
			c0.042-0.108,0.074-0.131,0.083-0.132c-0.646-3.906-1.614-9.769-2.816-17.038c-0.621-3.739-1.302-7.84-2.031-12.232
			c-0.092-0.549-0.184-1.103-0.276-1.661c-0.003-0.137-0.049,0.05-0.075,0.094l-0.093,0.222l-0.186,0.445l-0.373,0.895
			c-0.5,1.199-1.008,2.415-1.521,3.648c-1.029,2.469-2.087,5.005-3.168,7.599c-1.482,3.557-2.981,7.153-4.495,10.786
			c-0.338,0.812-0.678,1.625-1.018,2.44l0.004-0.01l0.008-0.019l0.013-0.001c-0.024-0.012,0.109,0.058-0.168-0.087l-0.143-0.074
			l-0.296-0.146l-1.338-0.638c-0.894-0.438-1.795-0.799-2.697-1.203c-7.225-3.047-14.803-5.296-22.636-7.04
			c-7.826-1.739-15.917-2.861-24.12-3.226c-4.102-0.175-8.234-0.112-12.362,0.18c-4.128,0.285-8.259,0.854-12.326,1.782
			c-4.066,0.919-8.079,2.161-11.927,3.83c-3.83,1.695-7.499,3.838-10.797,6.354c-3.314,2.492-6.193,5.342-8.766,8.309
			c-1.323,1.462-2.477,3.018-3.652,4.537c-0.571,0.77-1.094,1.563-1.638,2.34c-0.547,0.774-1.074,1.555-1.552,2.356
			c-3.984,6.329-6.99,12.816-9.193,19.124c-2.221,6.304-3.707,12.41-4.654,18.085c-1.913,11.365-1.628,20.955-0.916,27.536
			c0.174,1.649,0.335,3.118,0.566,4.385c0.21,1.269,0.364,2.349,0.533,3.217c0.371,1.731,0.568,2.648,0.568,2.648
			s0.493,2.707,2.137,7.83c0.434,1.273,0.865,2.72,1.521,4.265c0.311,0.777,0.637,1.593,0.978,2.444
			c0.347,0.851,0.786,1.707,1.203,2.616c0.804,1.833,1.882,3.714,3.002,5.749c0.57,1.012,1.253,2.006,1.909,3.061
			c0.34,0.52,0.661,1.063,1.031,1.587c0.379,0.518,0.764,1.043,1.154,1.576c0.787,1.062,1.562,2.184,2.493,3.232
			c0.915,1.052,1.803,2.217,2.816,3.255c1.005,1.051,2.036,2.131,3.094,3.237c1.128,1.05,2.283,2.127,3.467,3.229
			c4.836,4.302,10.859,8.456,18.247,11.441c3.72,1.418,7.776,2.504,12.085,2.981c4.304,0.484,8.838,0.348,13.371-0.465
			c4.543-0.788,9.05-2.306,13.404-4.367c0.55-0.249,1.078-0.54,1.621-0.811l0.811-0.415l1.358-0.788
			c1.818-1.002,3.68-2.255,5.459-3.489c0.827-0.63,1.69-1.262,2.497-1.897c0.735-0.635,1.528-1.278,2.223-1.912
			c1.286-1.25,2.581-2.51,3.886-3.777c1.437-1.401,2.914-2.843,4.43-4.321l0.329-0.32l0.187-0.182l0.093-0.091
			c0.006-0.021,0.125-0.081,0.016-0.065l-1.521,0.025c-1.019,0.017-2.043,0.034-3.074,0.051c-1.009,0.017-2.023,0.033-3.045,0.051
			c-1.002,0.015-2.061,0.04-2.967,0.034c-0.942,0.001-1.889,0.002-2.841,0.004c-0.923-0.014-1.7-0.102-2.563-0.148
			c-1.732-0.079-3.295-0.313-4.924-0.508c-0.406-0.055-0.812-0.09-1.221-0.161l-1.087-0.174c-0.376-0.064-0.753-0.13-1.133-0.195
			c-0.754-0.15-1.516-0.302-2.282-0.455c-6.106-1.327-12.451-3.498-18.249-6.897c-5.796-3.387-10.926-8.105-14.554-13.908
			c-1.826-2.889-3.313-6.023-4.359-9.337c-0.137-0.411-0.293-0.814-0.414-1.232l-0.331-1.265c-0.207-0.854-0.475-1.657-0.638-2.548
			l-0.521-2.641l-0.257-1.316l-0.181-1.317c-0.122-0.877-0.244-1.752-0.365-2.625c-0.088-0.872-0.138-1.742-0.211-2.609
			c-0.189-1.737-0.117-3.447-0.172-5.149c0.112-3.384,0.424-6.687,1.108-9.813c0.16-0.784,0.395-1.542,0.582-2.307
			c0.176-0.771,0.431-1.507,0.684-2.238c0.157-0.471,0.313-0.938,0.469-1.401c0.09-0.246,0.198-0.481,0.294-0.72
			c0.41-0.942,0.735-1.887,1.19-2.725c1.66-3.428,3.453-6.039,4.709-7.604c1.989-2.558,3.973-4.693,5.904-6.632
			c1.938-1.931,3.819-3.68,5.751-5.329c1.928-1.655,3.881-3.246,6.007-4.826c1.064-0.787,2.171-1.574,3.353-2.339
			C280.125,504.973,281.358,504.193,282.765,503.559z"/>
		<path d="M350.765,558.893c-2.591,1.712-4.796,3.623-6.783,5.633c-1.99,2.016-3.727,4.184-5.277,6.597
			c-3.042,4.817-5.515,10.74-5.895,18.782c-0.046,0.678-0.046,1.464-0.03,2.406c-0.014,0.941,0.077,2.036,0.166,3.333
			c0.258,2.58,0.751,5.989,2.2,10.339c0.176,0.594,0.411,1.176,0.644,1.773c0.116,0.299,0.233,0.6,0.352,0.904
			c0.139,0.327,0.182,0.526,0.458,1.102c0.702,1.414,1.394,2.547,2.202,3.775c1.595,2.403,3.5,4.762,5.729,7.012
			c4.446,4.487,10.287,8.487,17.021,10.947c6.715,2.468,14.16,3.473,21.329,3.043c1.805-0.045,3.571-0.286,5.346-0.462
			c0.88-0.118,1.75-0.271,2.622-0.406c0.872-0.136,1.742-0.273,2.591-0.472c1.711-0.357,3.411-0.714,5.055-1.187
			c0.826-0.226,1.655-0.43,2.468-0.671c0.806-0.263,1.608-0.524,2.406-0.784c6.383-2.056,12.338-4.765,17.411-7.965
			c5.074-3.204,9.198-6.903,12.264-10.36c0.386-0.432,0.763-0.853,1.13-1.263c0.361-0.415,0.671-0.856,0.994-1.267
			c0.631-0.834,1.245-1.606,1.779-2.357c0.503-0.773,0.971-1.494,1.401-2.158c0.438-0.659,0.82-1.272,1.118-1.852
			c0.622-1.141,1.106-2.028,1.435-2.63c0.285-0.622,0.436-0.948,0.436-0.948s0.129-0.28,0.387-0.844
			c0.238-0.57,0.689-1.393,1.102-2.563c0.918-2.304,2.146-5.846,3.093-10.714c0.936-4.862,1.525-11.057,1.028-18.418
			c-0.13-1.839-0.311-3.751-0.592-5.729c-0.071-0.494-0.143-0.993-0.215-1.498c-0.12-0.682-0.24-1.37-0.362-2.064
			c-0.159-0.973-0.393-1.911-0.597-2.878c-0.105-0.48-0.211-0.964-0.317-1.45c-0.124-0.464-0.249-0.93-0.374-1.397
			c-0.481-1.914-1.096-3.627-1.663-5.438c-0.293-0.909-0.589-1.827-0.887-2.753c-0.142-0.44-0.283-0.884-0.426-1.328l-0.052-0.161
			l-0.032-0.058l-0.073,0.079l-0.294,0.318l-0.589,0.639c-1.545,1.661-3.286,3.594-4.944,5.333c-0.83,0.854-1.698,1.794-2.517,2.598
			c-0.764,0.67-1.533,1.346-2.31,2.027l-0.22,0.193l-0.121,0.093l-0.238,0.183c-0.16,0.122-0.321,0.246-0.484,0.371
			c-0.325,0.253-0.658,0.508-1.011,0.743c-0.69,0.501-1.43,0.972-2.196,1.445c-1.542,0.92-3.23,1.768-5.01,2.403
			c-1.774,0.636-3.643,1.062-5.435,1.131c-1.779,0.032-3.475-0.229-4.872-0.941c-2.832-1.287-4.754-4.539-5.646-8.352
			c-0.131-0.462-0.218-0.948-0.297-1.435c-0.086-0.483-0.182-0.958-0.223-1.455c-0.132-1.095-0.261-2.168-0.388-3.215
			c-0.145-1.142-0.286-2.254-0.423-3.333c-0.146-1.078-0.236-2.128-0.493-3.124c-0.314-1.433-0.613-2.798-0.898-4.096
			c-0.156-0.646-0.255-1.286-0.45-1.891c-0.191-0.605-0.378-1.194-0.56-1.769c-0.367-1.146-0.713-2.228-1.04-3.249
			c-0.148-0.515-0.336-1.001-0.546-1.465c-0.197-0.466-0.389-0.918-0.575-1.355c-1.384-3.543-2.861-5.954-3.766-7.653
			c-3.99-6.727-8.622-11.06-13.473-14.105c-1.255-0.716-2.456-1.448-3.736-2.043c-1.291-0.581-2.555-1.174-3.915-1.615
			c-2.669-0.961-5.519-1.644-8.588-2.032c2.533,1.785,4.643,3.594,6.543,5.43c0.975,0.878,1.843,1.846,2.737,2.737
			c0.884,0.907,1.688,1.89,2.555,2.794c3.303,3.812,6.495,7.875,9.798,13.562c0.738,1.451,1.987,3.472,3.151,6.509
			c0.159,0.373,0.322,0.758,0.491,1.155c0.182,0.392,0.341,0.809,0.465,1.256c0.278,0.882,0.574,1.816,0.887,2.806
			c0.158,0.494,0.32,1.002,0.486,1.523c0.172,0.52,0.251,1.088,0.386,1.651c0.249,1.136,0.51,2.329,0.784,3.582
			c0.23,0.863,0.301,1.804,0.43,2.761c0.121,0.958,0.246,1.945,0.374,2.958c0.065,0.506,0.131,1.019,0.197,1.537
			c0.069,0.614,0.14,1.235,0.211,1.862c0.057,0.634,0.179,1.284,0.295,1.938c0.109,0.653,0.231,1.312,0.412,1.982
			c0.639,2.661,1.659,5.464,3.392,8.106c0.838,1.328,1.933,2.568,3.133,3.704c1.257,1.089,2.631,2.095,4.154,2.805
			c3.021,1.506,6.332,1.968,9.338,1.887c3.02-0.119,5.788-0.793,8.277-1.682c2.492-0.896,4.713-2.024,6.695-3.21
			c0.981-0.605,1.919-1.208,2.781-1.834c0.443-0.3,0.858-0.615,1.26-0.929c0.364-0.281,0.721-0.557,1.069-0.825l0.325-0.274
			l0.016-0.013l-0.011,0.009l-0.008-0.018l-0.001-0.012v-0.001c-0.001-0.006-0.005-0.027,0.021,0.132l0.114,0.671
			c0.064,0.447,0.128,0.89,0.191,1.329c0.252,1.755,0.411,3.451,0.528,5.076c0.441,6.513-0.077,11.879-0.87,16.021
			c-0.807,4.148-1.829,7.106-2.591,9.023c-0.336,0.981-0.719,1.652-0.913,2.128c-0.212,0.467-0.318,0.699-0.318,0.699
			s-0.123,0.271-0.357,0.786c-0.272,0.496-0.673,1.226-1.188,2.165c-0.242,0.479-0.559,0.981-0.923,1.521
			c-0.354,0.546-0.738,1.138-1.15,1.774c-0.441,0.616-0.953,1.247-1.47,1.934c-0.267,0.337-0.516,0.703-0.815,1.044
			c-0.305,0.337-0.617,0.684-0.938,1.037c-2.534,2.849-5.949,5.928-10.286,8.663c-4.337,2.728-9.553,5.11-15.295,6.953
			c-5.729,1.866-11.909,3.262-18.041,3.521c-6.139,0.368-12.214-0.507-17.599-2.476c-5.392-1.973-10.023-5.147-13.601-8.745
			c-1.785-1.8-3.322-3.704-4.568-5.579c-0.609-0.911-1.203-1.918-1.569-2.656c-0.17-0.435-0.336-0.861-0.5-1.279
			c-0.188-0.48-0.383-0.949-0.519-1.423c-1.162-3.474-1.552-6.151-1.767-8.188c-0.067-1.023-0.154-1.886-0.142-2.632
			c-0.018-0.745-0.026-1.367,0.009-1.906c0.233-6.364,1.441-11.384,2.779-16.252c0.692-2.432,1.442-4.837,2.369-7.317
			C348.243,564.194,349.287,561.606,350.765,558.893z"/>
		<path d="M370.765,576.893c1.087-1.085,2.321-1.786,3.427-1.973c1.117-0.179,1.978,0.113,2.797,0.66
			c0.206,0.101,0.408,0.292,0.61,0.462c0.203,0.166,0.41,0.313,0.606,0.546l0.612,0.616c0.199,0.244,0.399,0.489,0.603,0.738
			c0.8,0.988,1.441,1.969,1.833,3.299c0.176,0.891,0.729,2.418-0.233,5.872c-0.113,0.289-0.245,0.788-0.411,1.205
			c-0.167,0.418-0.306,0.763-0.306,0.763s-0.112,0.288-0.309,0.642c-0.193,0.354-0.392,0.798-0.576,1.1
			c-1.229,2.16-2.552,3.744-3.658,4.899c-1.104,1.171-2.031,1.888-2.652,2.387c-2.574,1.921-4.777,2.986-6.74,3.2
			c-0.977,0.082-1.97-0.057-2.941-0.714c-0.971-0.645-1.862-1.702-2.661-3.035c0.087,1.531,0.377,3.031,1.209,4.386
			c0.808,1.366,2.334,2.408,4.001,2.774c1.674,0.381,3.407,0.196,5.063-0.314c1.662-0.521,3.29-1.371,4.883-2.557
			c0.772-0.601,1.903-1.476,3.224-2.864c1.325-1.379,2.89-3.236,4.385-5.859c0.227-0.36,0.475-0.915,0.697-1.355
			c0.227-0.438,0.362-0.809,0.362-0.809s0.185-0.429,0.408-0.949c0.219-0.522,0.409-1.176,0.532-1.554
			c0.674-2.241,0.764-4.076,0.723-5.464c-0.072-1.404-0.339-2.367-0.516-3.095c-0.632-2.145-1.941-3.835-3.194-4.97
			c-0.314-0.276-0.626-0.549-0.937-0.82l-1.047-0.701c-0.325-0.234-0.724-0.414-1.11-0.585c-0.384-0.173-0.751-0.346-1.19-0.435
			c-0.815-0.232-1.713-0.318-2.569-0.186c-0.433,0.061-0.849,0.151-1.239,0.332c-0.403,0.136-0.753,0.362-1.092,0.586
			C372.026,574.064,371.226,575.423,370.765,576.893z"/>
		<path d="M235.764,485.56c0,0-42.667,80,26,109.333c43.334,18.511,45.333,13.334,45.333,13.334s-22.414,24.624-57.333,6
			C209.764,592.893,198.431,544.893,235.764,485.56z"/>
	</g>
</g>
</svg>
