<?xml version="1.0" encoding="utf-8"?>
<!-- Generator: Adobe Illustrator 16.0.0, SVG Export Plug-In . SVG Version: 6.00 Build 0)  -->
<!DOCTYPE svg PUBLIC "-//W3C//DTD SVG 1.1//EN" "http://www.w3.org/Graphics/SVG/1.1/DTD/svg11.dtd">
<svg version="1.1" xmlns="http://www.w3.org/2000/svg" xmlns:xlink="http://www.w3.org/1999/xlink" x="0px" y="0px" width="640px"
	 height="640px" viewBox="0 0 640 640" enable-background="new 0 0 640 640" xml:space="preserve">
<g id="reseau">
</g>
<g id="couleurs">
</g>
<g id="traits">
	<g>
		<path fill="#FFE4B7" d="M2.072,356.619C20.241,516.104,155.651,640,320,640c48.41,0,94.31-10.75,135.441-29.993
			c-7.324,2.733-15.242,4.241-23.512,4.271h-0.001c-0.024,0-0.049,0.001-0.074,0.001c-0.015,0-0.028,0-0.042,0
			c-0.017,0-0.033,0-0.049,0c-0.033,0-0.065,0-0.098,0l0,0c-0.367,0-0.732-0.003-1.099-0.009
			c-26.222-0.415-48.839-15.672-59.818-37.739c-19.263-0.104-44.037-0.236-44.037-0.236s-33.985-0.153-53.229-0.24
			c-11.006,22.559-34.124,38.123-60.888,38.224h-0.001c-0.024,0-0.049,0.001-0.074,0.001c-0.015,0-0.028,0-0.042,0
			c-0.017,0-0.033,0-0.049,0c-0.033,0-0.065,0-0.098,0l0,0c-0.367,0-0.733-0.003-1.099-0.009
			c-37.049-0.587-66.901-30.802-66.901-67.991l0,0l0,0l0,0c0-7.177,1.111-14.092,3.172-20.586c-3.407-4.367-6.401-8.939-9.882-15.51
			c-0.944-1.798-2.481-4.723-5.675-10.801c-4.757-9.104-16.024-30.673-16.024-30.673s-9.458-18.04-14.702-28.041
			c-4.236-8.127-6.858-13.157-8.229-15.784c-3.89-7.527-6.008-13.056-7.775-19.191c-5.441,1.42-11.147,2.184-17.03,2.199
			c-0.013,0-0.025,0-0.038,0c-0.019,0-0.033,0-0.051,0c-0.033,0-0.065,0-0.098,0l0,0C36.216,407.893,9.525,386.086,2.072,356.619
			 M637.928,356.619c-7.439,29.409-34.04,51.189-65.741,51.274c-0.013,0-0.025,0-0.038,0c-0.019,0-0.033,0-0.051,0
			c-0.033,0-0.065,0-0.098,0l0,0c-4.614,0-9.119-0.459-13.476-1.335c-1.503,6.024-3.392,11.545-6.891,19.034
			c-0.865,1.837-2.273,4.826-5.2,11.037c-5.201,10.975-17.525,36.976-17.525,36.976s-10.288,21.775-15.992,33.849
			c-3.934,8.277-6.368,13.401-7.64,16.077c-2.268,4.728-4.332,8.452-6.485,11.815c0.576,3.56,0.875,7.211,0.875,10.934
			c0,24.283-12.729,45.594-31.879,57.623C559.865,555.876,625.652,464.372,637.928,356.619 M445.298,352.845
			c-9.557,36.555-34.686,66.813-67.873,83.259c2.121,3.747,4.084,7.844,6.207,13.145c0.749,1.888,1.968,4.959,4.5,11.341
			c1.983,5.043,6.683,16.99,6.683,16.99s1.832,4.619,3.695,9.317c9.809-5.488,21.117-8.617,33.156-8.617c0.032,0,0.065,0,0.098,0
			c0.016,0,0.032,0,0.049,0c0.014,0,0.028,0,0.042,0c0.025,0,0.048,0,0.072,0c0.002,0,0.003,0,0.005,0
			c29.914,0.116,55.278,19.55,64.257,46.475c0.613-1.446,1.288-2.959,2.037-4.561c1.264-2.68,3.683-7.811,7.592-16.101
			c5.721-12.064,16.04-33.826,16.04-33.826s12.296-26.013,17.486-36.994c2.948-6.2,4.367-9.185,5.239-11.018
			c3.398-7.089,6.343-11.923,9.812-16.663c-23.304-6.229-41.674-24.523-48.01-47.783c-0.54,0.056-1.102,0.084-1.693,0.084
			c-0.484,0-0.989-0.019-1.519-0.058c-4.929-0.361-29.579-2.557-29.579-2.557S452.214,353.489,445.298,352.845 M457.223,197.85
			c-0.699,0.569-1.427,1.149-2.186,1.744c-2.337,1.82-6.811,5.305-14.038,10.935c-3.641,2.825-10.207,7.92-10.207,7.92
			s-7.811,6.13-11.107,8.718c-2.189,1.717-3.918,3.073-5.306,4.161c9.098,9.679,16.717,20.747,22.513,32.867
			c0.714,0.469,1.324,0.902,1.812,1.293c2.726,2.181,2.821,4.643,1.776,6.934c1.428,3.613,2.698,7.308,3.803,11.072l16.568,4.142
			l-13.198,10.449c1.214,7.123,1.847,14.446,1.847,21.916c0,8.6-0.839,17.007-2.438,25.138c7.831,0.643,27.204,2.369,27.204,2.369
			s24.661,2.065,29.578,2.556c0.319,0.032,0.629,0.069,0.929,0.112c-0.509-3.354-0.772-6.786-0.772-10.282l0,0l0,0
			c0-34.365,25.491-62.776,58.596-67.355c-1.795-3.623-3.455-7.596-5.207-12.617c-0.966-2.801-2.816-8.163-5.805-16.827
			c-0.995-2.925-2.788-8.201-2.788-8.201s-2.177-6.292-3.095-8.948c-2.219-6.498-3.285-9.625-3.941-11.546
			c-1.067-3.16-1.91-5.972-2.589-8.607c-10.313,6.303-22.438,9.935-35.408,9.935c-0.099,0-0.197,0-0.296,0c-0.097,0-0.193,0-0.291,0
			C485.459,215.726,469.324,208.95,457.223,197.85 M386.992,86.126c-7.131,29.849-33.942,52.058-65.953,52.143
			c-0.015,0-0.028,0-0.042,0c-0.017,0-0.033,0-0.049,0c-0.033,0-0.065,0-0.098,0l0,0c-31.478,0-57.958-21.385-65.705-50.419
			c-0.972,1.015-2.13,1.859-3.689,2.619c-3.862,1.882-23.371,10.955-23.371,10.955s-16.396,7.746-22.114,10.381
			c4.432,9.029,6.92,19.184,6.92,29.92c0,37.494-30.343,67.9-67.812,68c-0.015,0-0.028,0-0.042,0c-0.017,0-0.033,0-0.049,0
			c-0.033,0-0.065,0-0.098,0l0,0c-10.533,0-20.504-2.394-29.403-6.668c-1.423,2.949-3.546,7.347-6.508,13.484
			c-2.361,4.852-6.62,13.604-6.62,13.604s-5.057,10.472-7.191,14.892c-3.004,6.174-4.45,9.145-5.339,10.971
			c-3.536,7.208-6.579,12.07-10.189,16.876c32.011,5.52,56.36,33.419,56.36,67.008c0,30.197-19.687,55.798-46.923,64.67
			c3.809,4.742,7.028,9.533,10.827,16.706c1.377,2.623,4.015,7.645,8.275,15.76c5.227,10.01,14.654,28.065,14.654,28.065
			s11.296,21.555,16.063,30.652c3.172,6.09,4.698,9.02,5.637,10.82c2.415,4.672,4.147,8.574,5.536,12.33
			c10.535-23.919,34.448-40.617,62.262-40.617c0.032,0,0.065,0,0.098,0c0.016,0,0.032,0,0.049,0c0.014,0,0.028,0,0.042,0
			c0.025,0,0.048,0,0.072,0c0.002,0,0.003,0,0.005,0c37.431,0.145,67.734,30.534,67.734,68c0,7.677-1.272,15.057-3.617,21.939
			c19.574,0.107,50.036,0.275,50.036,0.275s22.027,0.102,40.691,0.188c-2.446-7.014-3.776-14.554-3.776-22.402l0,0l0,0l0,0
			c0-22.656,11.081-42.726,28.118-55.083c-2.022-5.146-4.226-10.753-4.226-10.753s-4.728-11.937-6.724-16.975
			c-2.509-6.391-3.717-9.466-4.459-11.356c-2.011-5.17-3.357-9.408-4.358-13.483C356.099,445.619,338.5,449.5,320,449.5
			c-71.521,0-129.5-57.979-129.5-129.5c0-71.521,57.979-129.5,129.5-129.5c34.381,0,65.63,13.396,88.815,35.255
			c1.498-1.183,3.441-2.718,6.027-4.761c3.31-2.581,11.148-8.695,11.148-8.695s6.553-5.128,10.186-7.971
			c7.25-5.612,11.737-9.086,14.081-10.9c0.521-0.399,1.032-0.787,1.534-1.162c-10.351-11.931-16.616-27.505-16.616-44.541
			c0-12.791,3.533-24.758,9.674-34.978c-3.393-1.147-6.969-2.582-11.162-4.517c-2.686-1.25-7.828-3.645-16.137-7.513
			c-2.15-1.015-6.028-2.847-6.028-2.847s-4.661-2.127-6.61-3.065c-6.215-2.918-9.205-4.323-11.044-5.186
			C391.319,88.414,389.06,87.264,386.992,86.126 M320,0C143.268,0,0,143.269,0,320c0,4.562,0.096,9.11,0.285,13.626
			C3.449,299.009,32.558,271.893,68,271.893c0.032,0,0.064,0,0.098,0c0.019,0,0.032,0,0.051,0c0.013,0,0.026,0,0.039,0
			c0.025,0,0.051,0,0.075,0h0.001c2.466,0.009,4.898,0.15,7.296,0.415c1.59-6.299,3.539-11.943,7.249-19.701
			c0.883-1.829,2.317-4.805,5.3-10.989c2.146-4.415,7.23-14.873,7.23-14.873s4.228-8.767,6.572-13.627
			c3.111-6.399,5.303-10.905,6.733-13.847c-19.08-12.043-31.754-33.314-31.754-57.545l0,0l0,0c0-37.556,30.444-68,68-68
			c0.032,0,0.065,0,0.098,0c0.016,0,0.032,0,0.049,0c0.014,0,0.028,0,0.042,0c0.025,0,0.048,0,0.072,0c0.002,0,0.003,0,0.005,0
			c23.903,0.092,44.902,12.521,56.957,31.248c5.095-2.443,22.661-10.613,22.661-10.613s19.453-9.191,23.371-10.955
			c1.899-0.855,3.521-1.188,5.221-1.188c0.177,0,0.354,0.003,0.532,0.011c-0.114-0.646-0.22-1.294-0.315-1.946
			c-0.017-0.114-0.034-0.229-0.05-0.344c-0.018-0.121-0.034-0.243-0.051-0.364c-0.008-0.057-0.017-0.117-0.023-0.174
			c-0.021-0.157-0.042-0.313-0.062-0.471c-0.001-0.004-0.002-0.009-0.002-0.014c-0.014-0.106-0.026-0.211-0.04-0.317
			c-0.011-0.093-0.022-0.186-0.033-0.279c-0.005-0.044-0.011-0.091-0.016-0.135c-0.007-0.053-0.013-0.106-0.019-0.16
			c-0.007-0.061-0.014-0.121-0.021-0.181c-0.01-0.087-0.019-0.175-0.028-0.262c-0.005-0.049-0.011-0.097-0.016-0.146
			c0-0.002,0-0.006-0.001-0.008c-0.029-0.283-0.057-0.565-0.083-0.85c-0.009-0.089-0.017-0.177-0.024-0.267
			c-0.008-0.09-0.016-0.181-0.023-0.271c-0.016-0.184-0.029-0.367-0.044-0.551c-0.015-0.198-0.029-0.396-0.042-0.594
			c-0.004-0.061-0.009-0.124-0.013-0.185c-0.009-0.138-0.017-0.272-0.025-0.41c-0.014-0.246-0.027-0.493-0.039-0.74
			c0-0.007,0-0.013-0.001-0.02c-0.005-0.118-0.011-0.241-0.016-0.359c-0.009-0.197-0.016-0.393-0.022-0.59
			c-0.019-0.548-0.03-1.101-0.036-1.652c-0.002-0.224-0.003-0.445-0.003-0.67l0,0l0,0l0,0c0-0.22,0.001-0.44,0.003-0.659
			c0.354-37.252,30.66-67.341,67.997-67.341l0,0c0.032,0,0.065,0,0.098,0c0.019,0,0.032,0,0.051,0c0.013,0,0.026,0,0.039,0
			c0.024,0,0.051,0,0.075,0h0.001c37.433,0.141,67.736,30.531,67.736,68c0,2.907-0.183,5.772-0.536,8.583
			c2.715,0.999,5.6,2.2,8.857,3.702c1.841,0.857,4.836,2.25,11.062,5.146c1.97,0.893,6.592,3.105,6.592,3.105s3.893,1.8,6.051,2.798
			c8.297,3.894,13.433,6.303,16.114,7.562c4.56,2.16,8.19,4.136,11.464,6.186c12.385-16.759,32.283-27.625,54.722-27.625
			c0.098,0,0.194,0,0.291,0c0.099,0,0.197,0,0.296,0c37.554,0,68,30.444,68,68c0,22.003-10.448,41.563-26.656,53.992
			c1.359,2.967,2.667,6.24,4.031,10.147c0.663,1.919,1.741,5.042,3.982,11.532c0.906,2.66,3.054,8.962,3.054,8.962
			s1.826,5.265,2.838,8.184c2.963,8.673,4.797,14.041,5.755,16.844c1.907,5.647,3.097,10.186,3.921,14.585
			c1.098-0.053,2.201-0.08,3.312-0.08c0.032,0,0.065,0,0.098,0c0.019,0,0.032,0,0.051,0c0.013,0,0.026,0,0.039,0
			c0.025,0,0.051,0,0.076,0l0,0c35.322,0.133,64.295,27.201,67.451,61.733C639.904,329.111,640,324.563,640,320
			C640,143.269,496.729,0,320,0"/>
		<line fill="#FFFFFF" x1="185.43" y1="175.893" x2="253.43" y2="255.893"/>
		<path d="M185.43,175.894c4.587,9.244,7.963,15.298,15.68,24.469c1.312,1.55,3.448,4.071,7.886,9.311
			c1.751,2.05,5.899,6.907,5.899,6.907s3.45,4.085,5.362,6.35c5.946,6.975,9.627,11.291,11.549,13.546
			c7.81,9.095,13.24,13.401,21.624,19.418c-4.587-9.244-7.963-15.297-15.681-24.47c-1.915-2.26-5.582-6.588-11.508-13.58
			c-1.927-2.252-5.402-6.315-5.402-6.315s-4.126-4.877-5.867-6.936c-4.456-5.224-6.601-7.737-7.918-9.282
			C199.244,186.217,193.813,181.91,185.43,175.894z"/>
		<path fill="#FFFFFF" d="M385.43,249.893c1.333-2.667,90-71,90-71L385.43,249.893"/>
		<path d="M451.792,192.267c-0.502,0.375-1.013,0.762-1.534,1.162c-2.344,1.814-6.831,5.288-14.081,10.9
			c-3.633,2.843-10.186,7.971-10.186,7.971s-7.839,6.114-11.148,8.695c-2.586,2.043-4.529,3.578-6.027,4.761
			c1.908,1.799,3.768,3.661,5.563,5.571c1.388-1.088,3.116-2.444,5.306-4.161c3.297-2.587,11.107-8.718,11.107-8.718
			s6.566-5.096,10.207-7.92c7.228-5.63,11.701-9.115,14.038-10.935c0.759-0.594,1.486-1.175,2.186-1.744
			C455.308,196.093,453.495,194.23,451.792,192.267"/>
		<polyline fill="#FFFFFF" points="433.43,347.893 514.43,354.893 433.43,347.893 		"/>
		<path d="M447.062,345.138c-0.511,2.601-1.099,5.166-1.764,7.707c6.916,0.644,28.296,2.434,28.296,2.434s24.65,2.195,29.579,2.557
			c0.529,0.039,1.034,0.058,1.519,0.058c0.592,0,1.153-0.028,1.693-0.084c-0.678-2.489-1.219-5.039-1.612-7.634
			c-0.3-0.043-0.609-0.08-0.929-0.112c-4.917-0.49-29.578-2.556-29.578-2.556S454.893,345.781,447.062,345.138"/>
		<polyline fill="#FFFFFF" points="369.43,423.893 414.43,537.893 369.43,423.893 		"/>
		<path d="M377.425,436.104c-1.78,0.883-3.581,1.724-5.407,2.525c1.001,4.075,2.348,8.313,4.358,13.483
			c0.742,1.891,1.95,4.966,4.459,11.356c1.996,5.038,6.724,16.975,6.724,16.975s2.203,5.607,4.226,10.753
			c2.151-1.56,4.396-2.996,6.726-4.3c-1.863-4.698-3.695-9.317-3.695-9.317s-4.699-11.947-6.683-16.99
			c-2.532-6.382-3.751-9.453-4.5-11.341C381.509,443.948,379.546,439.851,377.425,436.104"/>
		<line fill="#FFFFFF" x1="269.43" y1="422.893" x2="210.43" y2="527.893"/>
		<path d="M269.43,422.893c-7.078,7.51-11.585,12.776-17.508,23.196c-0.998,1.769-2.622,4.646-5.996,10.626
			c-2.488,4.441-8.383,14.962-8.383,14.962s-4.959,8.792-7.709,13.666c-4.478,7.997-7.249,12.946-8.696,15.531
			c-5.82,10.48-7.975,17.068-10.708,27.019c7.077-7.51,11.583-12.776,17.509-23.197c1.455-2.58,4.241-7.521,8.743-15.505
			c2.732-4.884,7.662-13.692,7.662-13.692s5.922-10.506,8.421-14.94c3.353-5.992,4.966-8.875,5.958-10.647
			C264.541,439.432,266.695,432.844,269.43,422.893z"/>
		<line fill="#FFFFFF" x1="211.43" y1="345.893" x2="122.763" y2="345.893"/>
		<path d="M211.43,345.893c-10.015-2.492-16.813-3.841-28.799-3.9c-2.031-0.004-5.335-0.01-12.201-0.021
			c-0.165-0.024-0.557,0.021-0.557,0.021s-0.138-0.012-0.289-0.024l-0.114-0.004l-0.243,0.001
			c-7.921,0.013-14.418,0.022-17.664,0.027c-11.987,0.06-18.786,1.408-28.8,3.9c10.014,2.491,16.812,3.84,28.8,3.9
			c3.246,0.005,9.743,0.016,17.664,0.027l0.243,0.002l0.114-0.005c0.151-0.013,0.289-0.024,0.289-0.024s0.392,0.047,0.557,0.021
			c6.866-0.012,10.17-0.018,12.201-0.021C194.616,349.733,201.415,348.384,211.43,345.893z"/>
		<polyline fill="#FFFFFF" points="73.763,280.226 125.763,172.893 73.763,280.226 		"/>
		<path d="M108.645,199.271c-1.431,2.942-3.622,7.448-6.733,13.847c-2.345,4.86-6.572,13.627-6.572,13.627
			s-5.084,10.458-7.23,14.873c-2.982,6.185-4.417,9.16-5.3,10.989c-3.71,7.757-5.659,13.402-7.249,19.701
			c1.371,0.152,2.734,0.345,4.08,0.577c3.61-4.807,6.653-9.668,10.189-16.876c0.889-1.826,2.335-4.796,5.339-10.971
			c2.135-4.42,7.191-14.892,7.191-14.892s4.259-8.752,6.62-13.604c2.962-6.137,5.085-10.535,6.508-13.484
			C113.128,201.925,110.844,200.659,108.645,199.271"/>
		<polyline fill="#FFFFFF" points="194.43,112.893 258.43,82.893 194.43,112.893 		"/>
		<path d="M253.366,82.218c-1.699,0-3.321,0.333-5.221,1.188c-3.918,1.764-23.371,10.955-23.371,10.955s-17.566,8.169-22.661,10.613
			c1.412,2.194,2.7,4.474,3.857,6.832c5.719-2.635,22.114-10.381,22.114-10.381s19.509-9.073,23.371-10.955
			c1.56-0.76,2.718-1.604,3.689-2.619c-0.322-1.206-0.612-2.429-0.868-3.659c-0.001-0.004-0.002-0.006-0.002-0.01
			c-0.026-0.125-0.052-0.249-0.077-0.374c-0.023-0.117-0.047-0.236-0.07-0.353v-0.001c-0.08-0.407-0.156-0.814-0.229-1.224
			C253.721,82.222,253.543,82.218,253.366,82.218"/>
		<polyline fill="#FFFFFF" points="369.43,73.893 461.43,116.893 369.43,73.893 		"/>
		<path d="M388.314,78.852c-0.312,2.469-0.754,4.895-1.322,7.274c2.067,1.138,4.327,2.288,6.876,3.495
			c1.839,0.863,4.829,2.267,11.044,5.186c1.949,0.938,6.61,3.065,6.61,3.065s3.878,1.832,6.028,2.847
			c8.309,3.869,13.451,6.263,16.137,7.513c4.193,1.935,7.77,3.37,11.162,4.517c1.117-1.859,2.32-3.66,3.604-5.397
			c-3.273-2.05-6.904-4.026-11.464-6.186c-2.682-1.258-7.817-3.668-16.114-7.562c-2.158-0.998-6.051-2.798-6.051-2.798
			s-4.622-2.212-6.592-3.105c-6.226-2.896-9.221-4.29-11.062-5.146C393.914,81.052,391.029,79.851,388.314,78.852"/>
		<polyline fill="#FFFFFF" points="536.097,185.893 570.43,285.893 536.097,185.893 		"/>
		<path d="M545.106,201.718c-1.901,1.458-3.884,2.819-5.936,4.073c0.679,2.635,1.521,5.447,2.589,8.607
			c0.656,1.922,1.723,5.048,3.941,11.546c0.918,2.656,3.095,8.948,3.095,8.948s1.793,5.276,2.788,8.201
			c2.988,8.664,4.839,14.026,5.805,16.827c1.752,5.021,3.412,8.994,5.207,12.617c2.003-0.277,4.037-0.467,6.092-0.565
			c-0.824-4.399-2.014-8.938-3.921-14.585c-0.958-2.803-2.792-8.171-5.755-16.844c-1.012-2.919-2.838-8.184-2.838-8.184
			s-2.147-6.302-3.054-8.962c-2.241-6.49-3.319-9.613-3.982-11.532C547.773,207.958,546.466,204.685,545.106,201.718"/>
		<polyline fill="#FFFFFF" points="560.43,397.893 489.43,547.893 560.43,397.893 		"/>
		<path d="M554.395,405.592c-3.469,4.74-6.413,9.574-9.812,16.663c-0.872,1.833-2.291,4.817-5.239,11.018
			c-5.19,10.981-17.486,36.994-17.486,36.994s-10.319,21.762-16.04,33.826c-3.909,8.29-6.328,13.421-7.592,16.101
			c-0.749,1.602-1.424,3.114-2.037,4.561c1.14,3.418,2.016,6.957,2.603,10.592c2.153-3.363,4.218-7.088,6.485-11.815
			c1.271-2.676,3.706-7.8,7.64-16.077c5.704-12.073,15.992-33.849,15.992-33.849s12.324-26.001,17.525-36.976
			c2.927-6.211,4.335-9.2,5.2-11.037c3.499-7.489,5.388-13.01,6.891-19.034C557.133,406.278,555.754,405.956,554.395,405.592"/>
		<polyline fill="#FFFFFF" points="426.43,572.893 226.43,571.893 426.43,572.893 		"/>
		<path d="M276.715,568.219c-0.917,2.692-1.998,5.308-3.231,7.836c19.243,0.087,53.229,0.24,53.229,0.24s24.774,0.133,44.037,0.236
			c-1.259-2.531-2.365-5.151-3.307-7.85c-18.664-0.086-40.691-0.188-40.691-0.188S296.289,568.327,276.715,568.219"/>
		<polyline fill="#FFFFFF" points="154.43,533.893 83.097,397.559 154.43,533.893 		"/>
		<path d="M89.077,404.563c-1.271,0.414-2.558,0.791-3.86,1.131c1.768,6.136,3.886,11.664,7.775,19.191
			c1.37,2.627,3.992,7.657,8.229,15.784c5.244,10.001,14.702,28.041,14.702,28.041s11.268,21.568,16.024,30.673
			c3.193,6.078,4.73,9.003,5.675,10.801c3.48,6.57,6.475,11.143,9.882,15.51c0.736-2.321,1.595-4.591,2.566-6.797
			c-1.389-3.756-3.121-7.658-5.536-12.33c-0.938-1.801-2.465-4.73-5.637-10.82c-4.768-9.098-16.063-30.652-16.063-30.652
			s-9.428-18.056-14.654-28.065c-4.261-8.115-6.898-13.137-8.275-15.76C96.105,414.096,92.886,409.305,89.077,404.563"/>
		<path fill="#F6A64F" d="M440.48,272.422c-1.989,4.357-8.104,8.095-8.104,8.095l11.907,2.977
			C443.179,279.729,441.908,276.035,440.48,272.422 M320,190.5c-71.521,0-129.5,57.979-129.5,129.5
			c0,71.521,57.979,129.5,129.5,129.5c18.5,0,36.099-3.882,52.018-10.871c1.826-0.802,3.627-1.643,5.407-2.525
			c33.188-16.445,58.316-46.704,67.873-83.259c0.665-2.541,1.253-5.106,1.764-7.707c1.6-8.131,2.438-16.538,2.438-25.138
			c0-7.469-0.633-14.793-1.847-21.916l-24.769,19.609c0,0-16.473,7.18-42.318,9.812c-0.088,0.253-0.137,0.387-0.137,0.387
			s-0.851-0.052-2.37-0.148c-5.091,0.448-10.519,0.715-16.236,0.715c-4.276,0-8.716-0.149-13.294-0.482
			c-12.876-0.936-25.27-3.397-36.786-6.623c-2.487-0.482-4.335-0.972-5.313-1.461c-0.155-0.077-0.305-0.156-0.448-0.237
			c-24.77-7.653-44.947-18.419-56.327-24.109c-0.92-0.46-1.69-0.677-2.33-0.677c-11.459,0,19.832,70.072,13.605,72.024
			c-0.293,0.092-0.584,0.136-0.876,0.136c-6.265,0-12.439-20.315-22.264-25.604c-1.358-0.732-2.592-1.049-3.711-1.049
			c-7.351,0-9.736,13.704-9.736,13.704s-4.746-18.983-11.074-49.042s15.029-42.713,15.029-42.713s0-15.82,2.372-23.73
			c0.33-1.099,0.888-1.572,1.605-1.572c4.448,0,15.006,18.183,15.006,18.183l8.701-19.775l7.911,18.984
			c0,0,11.649-3.985,27.887-8.903c-0.852-0.398-1.351-0.618-1.351-0.618s3.12-0.538,8.025-1.377
			c8.211-2.421,17.244-4.962,26.344-7.295c11.866-3.042,25.018-3.979,36.713-3.979c18.709,0,33.687,2.396,33.687,2.396l-3.954,7.12
			c0,0,34.812,15.318,45.647,22.436c-5.796-12.12-13.415-23.188-22.513-32.867c-1.796-1.91-3.655-3.772-5.563-5.571
			C385.63,203.896,354.381,190.5,320,190.5"/>
		<path fill="#C5D6D2" d="M311.743,321.354c11.517,3.226,23.91,5.688,36.786,6.623c4.578,0.333,9.018,0.482,13.294,0.482
			c5.718,0,11.146-0.267,16.236-0.715C367.829,327.089,327.281,324.365,311.743,321.354 M255.982,235.43l-8.701,19.775
			c0,0-10.558-18.183-15.006-18.183c-0.718,0-1.275,0.473-1.605,1.572c-2.372,7.91-2.372,23.73-2.372,23.73
			s-21.357,12.655-15.029,42.713s11.074,49.042,11.074,49.042s2.386-13.704,9.736-13.704c1.119,0,2.353,0.316,3.711,1.049
			c9.824,5.289,15.999,25.604,22.264,25.604c0.292,0,0.583-0.044,0.876-0.136c6.227-1.952-25.064-72.024-13.605-72.024
			c0.64,0,1.41,0.217,2.33,0.677c11.38,5.69,31.558,16.457,56.327,24.109c-7.282-4.072-0.475-11.898,3.448-18.763c4-7-2-12-12-18
			s-3-11,12-17c13.182-5.273-11.478-17.496-17.649-20.382c-16.237,4.917-27.887,8.903-27.887,8.903L255.982,235.43 M361.512,232.243
			c-11.695,0-24.847,0.936-36.713,3.979c-9.1,2.333-18.133,4.874-26.344,7.295c16.244-2.778,52.062-8.855,58.975-9.623
			c0.461-0.051,0.9-0.076,1.318-0.076c7.754,0,8.17,8.588-1.318,18.076c-10,10-13,20,12,29
			c23.517,8.466,12.523,42.594,11.137,46.613c25.846-2.633,42.318-9.812,42.318-9.812l24.769-19.609l13.198-10.449l-16.568-4.142
			l-11.907-2.977c0,0,6.115-3.738,8.104-8.095c1.045-2.292,0.949-4.753-1.776-6.934c-0.488-0.391-1.099-0.825-1.812-1.293
			c-10.835-7.118-45.647-22.436-45.647-22.436l3.954-7.12C395.198,234.639,380.221,232.243,361.512,232.243"/>
		<path fill="#D29548" d="M380.566,327.506c-0.827,0.084-1.661,0.163-2.507,0.238c1.52,0.097,2.37,0.148,2.37,0.148
			S380.479,327.759,380.566,327.506 M305.981,319.656c0.144,0.081,0.293,0.16,0.448,0.237c0.979,0.489,2.826,0.979,5.313,1.461
			C309.796,320.808,307.877,320.242,305.981,319.656 M298.455,243.516c-4.905,0.839-8.025,1.377-8.025,1.377s0.499,0.22,1.351,0.618
			C293.931,244.86,296.16,244.193,298.455,243.516"/>
		<path fill="#A5BFB8" d="M358.748,233.817c-0.418,0-0.857,0.025-1.318,0.076c-6.912,0.768-42.73,6.845-58.975,9.623
			c-2.295,0.677-4.524,1.344-6.675,1.995c6.172,2.886,30.831,15.109,17.649,20.382c-15,6-22,11-12,17s16,11,12,18
			c-3.923,6.865-10.73,14.69-3.448,18.763c1.896,0.586,3.814,1.152,5.762,1.698c15.538,3.011,56.086,5.735,66.316,6.391
			c0.846-0.075,1.68-0.154,2.507-0.238c1.387-4.02,12.38-38.147-11.137-46.613c-25-9-22-19-12-29
			C366.918,242.405,366.502,233.817,358.748,233.817"/>
		<path d="M240.955,301.083c2.383,15.294,4.472,25.486,11.483,42.086c0.526,1.238,1.198,2.816,1.986,4.666
			c0.831,1.878,1.784,4.03,2.828,6.388c0.523,1.178,1.07,2.407,1.635,3.678c0.211,0.478,0.425,0.963,0.642,1.455l0.065,0.153
			l0.074,0.241c0.06,0.204,0.146,0.412,0.2,0.609c0.034,0.193,0.074,0.385,0.123,0.575c0.043,0.361,0.104,0.721,0.074,1.016
			c0.018,0.16-0.009,0.305-0.032,0.421l0.01,0.011l0.042-0.036l0.023,0.019l0.007,0.012l-0.466-0.741
			c-0.363-0.587-0.729-1.209-1.096-1.842c-1.502-2.677-3.016-5.377-4.541-8.097c-1.606-2.804-3.277-5.663-5.43-8.593
			c-0.548-0.734-1.13-1.474-1.781-2.222l-0.504-0.562c-0.169-0.182-0.336-0.368-0.654-0.686c-0.566-0.562-1.159-1.099-1.78-1.584
			c-2.47-1.979-5.482-3.019-8.454-2.493c-0.734,0.126-1.453,0.344-2.135,0.644c-0.69,0.28-1.333,0.672-1.907,1.183
			c-1.198,0.921-2.35,1.994-3.198,3.333c-0.395,0.688-0.892,1.312-1.186,2.066c-0.32,0.728-0.641,1.518-0.805,2.188
			c-0.165,0.603-0.316,1.191-0.396,1.721c-0.098,0.512-0.197,1.192-0.22,1.468l0.019-0.034l0.053,0.038l0.005,0.008l-0.248-0.459
			c-0.325-0.619-0.646-1.253-0.947-1.907c-0.619-1.294-1.163-2.666-1.696-4.038c-1.036-2.771-1.905-5.646-2.629-8.56
			c-1.445-5.831-2.296-11.812-2.642-17.734c-0.168-2.956-0.228-5.927-0.089-8.821c0.071-1.446,0.142-2.887,0.212-4.32
			c0.14-1.42,0.329-2.824,0.486-4.226c0.772-5.572,2.109-10.896,4.088-15.729c1.981-4.814,4.546-9.206,7.613-12.737
			c0.756-0.891,1.551-1.714,2.344-2.466l0.383-0.344l0.765-0.665l1.489-1.304l1.423-1.276l0.683-0.621l0.088-0.08l-0.015-0.121
			l-0.039-0.244l-0.077-0.489c-0.204-1.305-0.421-2.612-0.58-3.885l-0.171-1.49l-0.088-0.896c-0.112-1.195-0.202-2.387-0.271-3.559
			c-0.054-0.948-0.1-1.893-0.123-2.821c-0.009-0.462-0.018-0.923-0.026-1.381l-0.003-0.341l0.001-0.042l-0.001,0.003l-0.003,0.03
			l-0.029,0.014l-0.015-0.021c0.02,0.029-0.071-0.108,0.102,0.153l0.695,1.082c0.266,0.411,0.537,0.837,0.83,1.319
			c0.576,0.923,1.14,1.858,1.692,2.798c2.215,3.712,4.291,7.727,6.326,11.529c1.008,1.892,1.988,3.731,2.935,5.507
			c0.232,0.421,0.471,0.916,0.689,1.262c0.127-0.423,0.254-0.842,0.379-1.257c0.258-0.851,0.511-1.684,0.758-2.5
			c0.987-3.26,1.885-6.224,2.667-8.806c3.129-10.327,4.404-14.538,2.156-7.125c0.658-2.172,1.312-4.331,1.959-6.463
			c-0.201,0.662-0.399,1.317-0.595,1.96c-0.39,1.286-0.767,2.527-1.121,3.696c-0.088,0.292-0.176,0.58-0.262,0.863
			c-0.077,0.249-0.201,0.7-0.18,0.513l-0.062-0.256c-0.039-0.163-0.074-0.31-0.104-0.436c-0.122-0.504-0.162-0.677-0.058-0.248
			c-0.055-0.226-0.108-0.449-0.159-0.662c1.127,4.649,2.209,9.113,3.224,13.295c-0.036,0.912,0.697,0.206,1.175,0.05
			c0.52-0.249,1.035-0.496,1.546-0.74c1.021-0.49,2.023-0.97,3.005-1.44c1.966-0.953,3.814-1.738,5.587-2.551
			c0.451-0.199,0.896-0.396,1.335-0.589c0.228-0.096,0.45-0.19,0.671-0.284c0.408-0.172,0.805-0.339,1.188-0.501
			c0.77-0.318,1.485-0.613,2.143-0.885c2.635-1.082,4.35-1.726,4.716-1.871c0.371-0.135-0.615,0.217-3.3,1.295
			c9.959-3.971,19.183-7.064,27.592-9.465c8.407-2.424,16.012-4.164,22.815-5.434c13.598-2.583,24.049-3.338,31.769-3.605
			c7.737-0.275,12.788,0.055,15.911,0.201c1.557,0.116,2.635,0.196,3.324,0.248c0.691,0.046,0.988,0.084,0.988,0.084
			s0.295,0.031,1.46,0.155c0.582,0.063,1.382,0.15,2.471,0.269c0.63,0.086,1.428,0.195,2.435,0.333h-0.002h-0.002
			c-0.861,0.615-1.79,1.279-2.792,1.994c-1.174,0.838-2.433,1.737-3.783,2.702c-0.675,0.482-1.373,0.981-2.095,1.497
			c-0.241,0.042,0.17,0.19,0.409,0.293l0.783,0.338c0.524,0.226,1.053,0.454,1.586,0.684c1.066,0.459,2.149,0.927,3.251,1.401
			c6.281,2.726,13.359,5.796,21.333,9.255c2.941,1.298,8.646,3.814,16.971,7.487c2.951,1.333,6.367,2.875,10.235,4.622l-0.011-0.012
			l0.011-0.007l0.003-0.002c-0.626,0.251-1.26,0.505-1.9,0.762c-3.264,1.274-6.773,2.491-10.456,3.6
			c-3.675,1.1-7.567,2.125-11.45,2.78c-0.966,0.161-1.927,0.294-2.854,0.384c-0.457,0.04-0.915,0.078-1.341,0.092l-0.627,0.016
			l-0.97,0.011c-0.206,0.007-0.378,0.009-0.709,0.033l-0.307,0.028l-0.204,0.024l-0.39,0.064c0,0-0.603,0.124-0.989,0.278
			c1.454,0.159-6.637,0.474-2.562,9.187c1.798,1.944,2.254,1.58,2.551,1.858c0.184,0.07,0.395,0.138,0.564,0.186l0.443,0.109
			l0.271,0.054l0.371,0.063l0.569,0.082c0.622,0.07,1.246,0.141,1.873,0.212c1.172,0.108,2.354,0.218,3.546,0.329
			c4.712,0.405,9.539,0.768,14.534,1.137c8.604,0.602,17.761,1.243,27.451,1.92l-0.021-0.032l0.009-0.008l-0.062,0.052
			c-0.698,0.552-1.4,1.107-2.107,1.667c-2.314,1.778-4.692,3.542-7.179,5.215c-7.961,5.399-17.09,10.534-27.215,14.564
			c-5.056,2.026-10.341,3.803-15.805,5.28c-5.478,1.422-11.128,2.521-16.886,3.281c-5.761,0.753-11.635,1.017-17.533,1.014
			c-2.95-0.089-5.908-0.129-8.861-0.419c-2.96-0.162-5.899-0.607-8.846-0.964c-11.982-1.903-23.964-4.162-35.344-7.304
			c-0.716-0.181-1.433-0.358-2.132-0.582l-1.081-0.324l-1.019-0.305c-0.676-0.202-1.348-0.403-2.013-0.602
			c-1.33-0.397-2.637-0.788-3.91-1.168c-2.539-0.779-4.895-1.662-7.092-2.396c-1.093-0.381-2.147-0.726-3.131-1.087
			c-0.975-0.381-1.896-0.742-2.754-1.078c-1.72-0.669-3.191-1.242-4.355-1.695c-8.055-3.353-14.351-5.923-20.459-8.292
			c-1.505-0.623-3.015-1.212-4.549-1.786c-1.49-0.631-3.022-1.227-4.578-1.854c-3.07-1.315-6.299-2.644-9.656-4.551
			c2.082,3.276,4.446,6.042,6.822,8.617c1.21,1.261,2.447,2.455,3.698,3.651c1.284,1.131,2.593,2.242,3.944,3.344
			c5.469,4.275,11.784,8.042,20.296,11.681c1.228,0.488,2.78,1.105,4.593,1.827c0.907,0.359,1.88,0.743,2.909,1.15
			c1.036,0.386,2.142,0.753,3.291,1.157c2.308,0.78,4.792,1.713,7.453,2.534c1.333,0.401,2.7,0.812,4.093,1.23
			c0.696,0.209,1.399,0.42,2.107,0.632l1.066,0.32l1.132,0.339c0.734,0.232,1.481,0.419,2.228,0.608
			c2.986,0.762,5.991,1.528,9.01,2.298c3.025,0.731,6.092,1.319,9.154,1.988c1.533,0.32,3.069,0.642,4.607,0.963
			c1.546,0.265,3.094,0.529,4.644,0.794c3.109,0.515,6.181,1.089,9.334,1.556c3.201,0.394,6.395,0.867,9.619,1.051
			c3.213,0.31,6.439,0.362,9.655,0.453c6.435,0.008,12.85-0.287,19.141-1.108c6.286-0.827,12.452-2.03,18.42-3.583
			c5.951-1.607,11.699-3.542,17.186-5.743c10.99-4.383,20.846-9.929,29.446-15.767c2.686-1.81,5.26-3.717,7.768-5.646
			c0.622-0.49,1.241-0.979,1.859-1.466l0.231-0.183l0.381-0.317l0.82-0.689l1.639-1.375c1.093-0.887,2.175-1.876,3.254-2.861
			l1.616-1.466c0.521-0.488,0.99-0.974,1.487-1.459l1.467-1.455c0.485-0.483,0.889-0.948,1.336-1.422
			c0.866-0.937,1.729-1.87,2.59-2.801c0.859-0.931,1.716-1.858,2.569-2.783l1.311-1.419l0.631-0.682l0.312-0.336l0.163-0.175
			l0.083-0.09l-0.097-0.023c-5.795-0.378-11.512-0.751-17.15-1.12c-12.755-0.879-24.806-1.71-36.132-2.491
			c-4.967-0.365-9.781-0.726-14.38-1.12c-1.134-0.104-2.258-0.208-3.372-0.312c-0.514-0.057-1.024-0.114-1.533-0.171l-0.274-0.039
			l-0.04-0.006l-0.004-0.001c0.026-0.154-0.021,0.104-0.132,0.688l-0.216,1.167l-0.228,1.093l-0.205,0.938
			c-0.064,0.28-0.139,0.558-0.222,0.833c-0.049,0.215-0.101,0.397-0.179,0.59c-0.083,0.205-0.089,0.271-0.169,0.355
			c-0.042,0.027,0.022,0.014,0.073,0.198c0.062,0.152,0.051,0.259,0.119,0.529c0.049,0.234,0.084,0.47,0.104,0.707l0.118,0.947
			l0.186,2.202l0.079,1.231h0.002l0.033-0.001l0.114-0.004l0.717-0.007c0.356-0.004,0.714-0.008,1.053-0.025
			c0.689-0.025,1.341-0.079,1.985-0.136c1.277-0.124,2.49-0.295,3.667-0.491c4.688-0.798,8.893-1.927,12.904-3.124
			c4.002-1.208,7.765-2.513,11.35-3.913c0.447-0.178,0.893-0.355,1.336-0.531c0.608-0.253,1.213-0.505,1.814-0.755
			c1.644-0.701,3.262-1.438,4.774-2.21c1.51-0.773,2.93-1.588,4.073-2.452c1.151-0.862,1.965-1.771,2.496-2.653
			c0.537-0.894,0.803-1.716,0.922-2.675c0.03-0.239,0.045-0.51,0.046-0.806c-0.004-0.305-0.03-0.592-0.061-0.773
			c-0.081-0.366-0.161-0.73-0.24-1.091c-0.418-0.778-0.926-1.566-1.374-2.332c-0.02-0.099-0.2-0.186-0.346-0.275l-0.443-0.268
			l-0.881-0.533c-0.585-0.354-1.166-0.705-1.743-1.053s-1.149-0.694-1.719-1.038c-0.614-0.288-1.224-0.573-1.828-0.857
			c-1.21-0.567-2.401-1.125-3.575-1.675c-0.844-0.39-1.674-0.772-2.49-1.15c-0.625-0.283-1.239-0.562-1.844-0.836
			c-2.417-1.084-4.672-2.096-6.762-3.033c-8.364-3.684-14.097-6.208-17.053-7.51c-2.787-1.214-5.418-2.361-7.9-3.443l-0.464-0.202
			l-0.115-0.05l-0.006-0.002l0.001,0l0.001,0l0.001,0.001c2.731-2.322,5.117-4.349,7.2-6.12c0.708-0.602,1.391-1.182,2.048-1.741
			c0.329-0.279,0.651-0.554,0.968-0.823l0.236-0.201l0.116-0.1l-0.256-0.087c-0.33-0.112-0.657-0.224-0.98-0.333
			c-2.486-0.843-4.777-1.619-6.888-2.334c-0.532-0.178-1.054-0.353-1.564-0.523c-0.255-0.085-0.507-0.17-0.757-0.253
			c-0.262-0.079-0.553-0.145-0.822-0.217c-1.097-0.282-2.144-0.551-3.145-0.808c-0.972-0.278-2.008-0.463-2.989-0.645
			c-0.978-0.185-1.906-0.36-2.789-0.527c-0.883-0.161-1.722-0.342-2.513-0.446c-0.61-0.089-1.188-0.173-1.732-0.253
			c-0.761-0.104-1.434-0.195-2.026-0.276c-1.187-0.129-2.058-0.224-2.692-0.293c-1.269-0.134-1.59-0.167-1.59-0.167
			s-0.324-0.041-1.07-0.092c-0.745-0.056-1.911-0.143-3.595-0.269c-3.361-0.163-8.802-0.512-17.027-0.223
			c-8.223,0.284-19.237,1.08-33.559,3.795c-7.153,1.335-15.109,3.156-23.872,5.68c-8.771,2.504-18.34,5.709-28.729,9.85
			c2.803-1.126,3.825-1.492,3.44-1.353c-0.382,0.15-2.167,0.82-4.921,1.95c-0.688,0.284-1.438,0.593-2.243,0.926
			c-0.402,0.169-0.817,0.345-1.246,0.525c-0.198,0.083-0.399,0.168-0.604,0.255l0.028-0.012l0.015-0.007l0.003,0.009l0.001,0.005
			l0.001,0.002v0.001l-0.206-0.851c-1.249-5.155-2.549-10.515-3.872-15.974c2.522,10.399,1.51,6.219-1.405-5.812
			c-0.729-3.008-1.577-6.506-2.519-10.39c-0.471-1.942-0.965-3.98-1.479-6.102c-0.199-2.112-0.663,0.465-1.05,1.536
			c-0.4,1.321-0.808,2.665-1.222,4.03c-2.527,8.337-5.365,17.7-8.279,27.317l0.002-0.018l0.017-0.013l0.015,0.023l0.004,0.006
			l-0.236-0.357c-1.031-1.568-2.402-3.507-3.721-5.157c1.692,2.18,1.81,2.352,0.746,0.958c-0.269-0.342-0.602-0.809-1.027-1.291
			c-0.423-0.49-0.907-1.106-1.481-1.662c-1.127-1.215-2.58-2.415-4.15-3.097c-0.783-0.306-1.592-0.568-2.454-0.614
			c-0.435-0.033-0.892-0.048-1.377,0.087c-0.494,0.095-1.071,0.24-1.649,0.323c-1.05,0.522-1.936,0.954-2.691,1.737
			c-0.761,0.749-1.434,1.723-2,2.968c-1.137,2.506-1.614,6.264-1.699,10.143l-0.026,1.465l0.004,1.092
			c0.01,0.527,0.021,1.058,0.03,1.59c0.027,1.061,0.078,2.12,0.139,3.181c0.076,1.311,0.176,2.629,0.301,3.969
			c0.047,0.475,0.095,0.953,0.143,1.434l-0.001-0.006l0.005-0.009l0.008-0.007l0.012-0.013l-0.354,0.325
			c-1.136,1.073-2.203,2.186-3.202,3.358c-4.037,4.657-7.189,10.111-9.607,15.971c-2.404,5.871-3.971,12.165-4.864,18.604
			c-0.186,1.612-0.399,3.233-0.557,4.861c-0.081,1.627-0.163,3.261-0.245,4.903c-0.151,3.281-0.087,6.555,0.101,9.866
			c0.386,6.611,1.329,13.285,2.967,19.902c0.822,3.309,1.813,6.603,3.036,9.872c0.632,1.633,1.282,3.263,2.053,4.885
			c0.376,0.812,0.783,1.621,1.209,2.432l0.339,0.626c0.188,0.349,0.38,0.694,0.588,1.033l1.282,2.042
			c1.785,2.639,3.889,4.864,6.08,6.049c1.102,0.52,2.202,0.956,3.365,1.043c1.146,0.131,2.49-0.038,3.64-0.519
			c1.146-0.456,2.165-1.226,3.026-2.048c0.472-0.375,0.827-0.868,1.216-1.327c0.373-0.477,0.659-1.053,0.981-1.589
			c0.562-1.177,1.009-2.516,1.253-4.056c0.279-1.503,0.329-3.212,0.503-4.752c0.046-0.528,0.08-0.642,0.129-0.922
			c0.032-0.269,0.098-0.455,0.143-0.63c0.022-0.113,0.008-0.065,0.011-0.071l-0.004,0.008l-0.026,0.024l-0.032-0.016l-0.007-0.006
			c-0.035-0.038,0.064,0.071,0.167,0.181l0.292,0.326c0.393,0.45,0.796,0.958,1.196,1.495c1.61,2.182,3.152,4.768,4.653,7.4
			c1.51,2.647,2.973,5.374,4.585,8.168c0.406,0.701,0.82,1.405,1.265,2.123l0.761,1.204c0.435,0.645,0.856,1.278,1.321,1.879
			c0.917,1.202,1.922,2.315,3.053,3.098c1.129,0.771,2.358,1.305,3.748,1.402c0.684,0.006,1.372,0.044,2.052-0.067l1.021-0.118
			c0.337-0.07,0.67-0.163,1.003-0.254c1.336-0.357,2.593-1.007,3.752-1.802c2.307-1.644,3.989-4.184,4.885-6.981
			c0.227-0.707,0.387-1.422,0.476-2.143c0.095-0.611,0.152-1.197,0.147-1.773c0.05-1.174-0.081-2.276-0.247-3.354l-0.34-1.561
			c-0.135-0.503-0.304-0.977-0.462-1.463l-0.192-0.565c-0.036-0.12-0.09-0.221-0.135-0.332c-0.35-0.785-0.694-1.559-1.033-2.319
			c-0.535-1.204-1.054-2.368-1.55-3.483c-0.996-2.229-1.905-4.266-2.698-6.041c-0.792-1.823-1.467-3.38-1.996-4.6
			C256.042,322.092,250.227,313.479,240.955,301.083z"/>
		<path d="M411.02,321.649c0.065,6.185-0.071,11.302,0.07,16.609c0.114,5.306,0.499,10.807,0.917,17.724
			c0.07,1.172,0.151,2.711,0.184,4.93c0.024,2.213,0.051,5.135-0.333,8.933c-0.363,3.383-1.012,7.371-2.608,10.919
			c-0.75,1.67-1.951,3.495-3.365,5.319c-1.397,1.832-3.085,3.621-4.858,5.387c-7.188,7.068-16.671,13.113-25.908,17.382
			c-4.628,2.145-9.204,3.882-13.451,5.241c-2.141,0.626-4.159,1.289-6.098,1.744c-0.965,0.246-1.896,0.483-2.793,0.712
			c-0.904,0.194-1.773,0.381-2.604,0.56c-1.654,0.378-3.17,0.645-4.504,0.866c-1.332,0.231-2.479,0.446-3.428,0.554
			c-1.892,0.254-2.94,0.395-2.94,0.395c0-0.001-0.877,0.133-2.485,0.265c-0.803,0.075-1.787,0.166-2.932,0.272
			c-1.146,0.104-2.459,0.142-3.91,0.229c-5.806,0.282-13.923,0.23-22.966-0.834c-2.263-0.232-4.57-0.642-6.928-0.962
			c-2.343-0.435-4.732-0.843-7.127-1.352c-1.194-0.271-2.394-0.542-3.596-0.814l-1.805-0.408l-1.55-0.443
			c-2.046-0.652-4.01-1.557-5.848-2.685c-3.682-2.253-6.84-5.392-9.385-8.818c-2.551-3.432-4.532-7.109-6.059-10.578
			c-1.007-2.278-1.768-4.387-2.305-6.042c-0.033-0.104-0.067-0.205-0.1-0.305c-0.062-0.208-0.123-0.412-0.183-0.611
			c-0.121-0.406-0.237-0.794-0.347-1.161c-0.192-0.756-0.364-1.429-0.513-2.009c-0.274-1.189-0.46-1.999-0.54-2.343
			c-1.268-0.179-2.443-0.346-3.535-0.5c-0.306-0.031-0.566-0.109-0.894-0.099c-0.327,0.01-0.646,0.02-0.961,0.029
			c-0.65,0.004-1.19,0.063-1.709,0.121c-1.276,0.146-1.442,0.11-1.916,0.135c-0.419,0.011-0.804-0.011-1.159-0.01
			c-1.415-0.064-2.34-0.189-3.076-0.319c-2.904-0.503-5.327-1.423-7.461-2.596c-2.17-1.135-4.001-2.54-5.68-4.141
			c-1.669-1.612-3.17-3.458-4.486-5.625c-0.654-1.084-1.261-2.251-1.768-3.515c-0.25-0.631-0.481-1.293-0.627-1.959
			c-0.035-0.164-0.064-0.333-0.077-0.477l-0.009-0.094c-0.007-0.035,0.028-0.01-0.134-0.112c-0.124-0.105-0.058-0.147-0.105-0.042
			l-0.054,0.062l-0.047,0.054l0.027,0.01c0.211,0.187,0.396,0.577,0.561,0.91c0.003-0.396,0.051-0.751-0.097-1.211
			c-0.032-0.061-0.045-0.13-0.178-0.223c-0.043-0.042-0.188-0.08-0.298-0.055c-0.103,0.025-0.196,0.094-0.226,0.129
			c-0.159,0.174-0.189,0.278-0.243,0.386c-0.094,0.213-0.152,0.407-0.209,0.604c-0.211,0.779-0.312,1.54-0.38,2.297
			c-0.126,1.514-0.082,3.001,0.093,4.464c0.356,2.922,1.232,5.766,2.721,8.461c1.492,2.683,3.595,5.245,6.442,7.323
			c1.399,1.075,3.015,1.988,4.774,2.799c1.783,0.736,3.714,1.413,5.811,1.764c1.062,0.195,2.385,0.389,4.39,0.483
			c0.501,0.007,1.044,0.032,1.637,0.021c0.538-0.015,1.469-0.042,1.385-0.047c0.217-0.016,0.096-0.006,0.124-0.007l-0.008-0.001
			l-0.004-0.002l-0.003-0.005l-0.002-0.003l0.003,0.011c0.036,0.11,0.072,0.223,0.11,0.337c0.594,1.844,1.474,4.296,2.622,6.898
			c1.752,3.985,4.037,8.264,7.13,12.43c3.085,4.148,7.07,8.188,12.017,11.217c2.464,1.512,5.151,2.751,7.952,3.637l2.117,0.602
			l1.909,0.433c1.271,0.286,2.539,0.572,3.802,0.857c2.533,0.536,5.067,0.969,7.55,1.424c2.504,0.342,4.951,0.768,7.358,1.016
			c9.615,1.122,18.292,1.169,24.508,0.857c1.555-0.094,2.96-0.141,4.188-0.251c1.228-0.116,2.283-0.216,3.145-0.297
			c1.724-0.146,2.666-0.289,2.666-0.289s1.127-0.149,3.158-0.418c1.019-0.116,2.252-0.343,3.686-0.589
			c1.435-0.238,3.063-0.522,4.848-0.926c0.894-0.191,1.829-0.393,2.803-0.601c0.967-0.244,1.972-0.499,3.012-0.762
			c2.089-0.492,4.271-1.198,6.581-1.875c4.589-1.463,9.542-3.335,14.566-5.657c10.044-4.645,20.359-11.152,28.552-19.185
			c2.036-2.024,3.98-4.085,5.697-6.325c1.716-2.224,3.298-4.552,4.513-7.223c2.29-5.179,2.946-9.916,3.388-13.869
			c0.435-4.405,0.392-7.603,0.357-10.035c-0.044-2.433-0.144-4.091-0.231-5.351c-0.525-7.438-1.799-13.106-3.493-18.321
			C416.134,331.874,413.982,327.095,411.02,321.649z"/>
		<path d="M332.711,359.617c2.295-0.571,3.613-0.95,4.587-2.445c0.521-0.798,2.109-3.272,3.786-5.052
			c0.828-0.889,1.664-1.577,2.199-1.867c0.547-0.31,0.735-0.31,0.742-0.329l0.307-0.006l0.107,0.05l0.09,0.05l0.217,0.189
			c0.146,0.143,0.341,0.251,0.479,0.421c0.143,0.165,0.29,0.333,0.439,0.504c1.146,1.433,1.379,4.011,1.379,4.846
			c0.038,1.57,0.895,2.515,2.279,4.431c2.077-1.138,3.235-2.328,3.273-4.512c0.012-0.59-0.032-1.795-0.34-3.29
			c-0.304-1.486-0.967-3.307-2.119-4.824c-0.298-0.365-0.612-0.715-0.918-1.055c-0.305-0.34-0.67-0.599-0.991-0.879
			c-0.172-0.138-0.312-0.264-0.501-0.397c-0.225-0.144-0.448-0.278-0.668-0.402c-0.443-0.241-0.938-0.417-1.378-0.532
			c-0.912-0.217-1.68-0.188-2.16-0.128c-0.481,0.068-0.748,0.125-0.748,0.125s-0.245,0.07-0.68,0.195
			c-0.415,0.14-0.987,0.372-1.567,0.709c-1.197,0.664-2.422,1.72-3.51,2.871c-2.172,2.306-3.874,5.019-4.426,5.938
			C331.59,355.925,331.861,357.404,332.711,359.617z"/>
		<ellipse cx="312.763" cy="337.56" rx="2.953" ry="6.695"/>
		<ellipse cx="364.034" cy="334.407" rx="2.954" ry="6.695"/>
		<path fill="#ED6EA7" d="M314.041,365.581c2.534-2.444,10.625,7.611,23.969,8.872c13.35,1.261,24.797-5.399,25.868-2.507
			c1.075,2.896-11.716,20.96-25.343,19.806C321.145,390.284,311.503,368.022,314.041,365.581z"/>
		<path fill="#FFFFFF" d="M316.186,365.507c0,0,5.784,10.421,21.1,12.554c15.314,2.13,24.168-7.191,24.168-7.191
			s-14.297,4.11-23.306,2.846C327.988,372.288,316.186,365.507,316.186,365.507z"/>
		<path fill="#FFFFFF" d="M322.674,383.564c0,0,5.216,4.104,15.503,5.117c10.286,1.012,15.527-2.7,15.527-2.7
			s-5.515,8.016-16.737,6.193C325.955,390.387,322.674,383.564,322.674,383.564z"/>
		<path fill="#F6A64F" d="M320.997,138.269c-0.017,0-0.033,0-0.049,0C320.964,138.269,320.98,138.269,320.997,138.269
			 M254.277,84.191c0.256,1.23,0.546,2.454,0.868,3.659c7.747,29.034,34.228,50.419,65.705,50.419l0,0l0,0
			C288.067,138.27,260.702,115.068,254.277,84.191 M254.198,83.807c0.025,0.125,0.051,0.249,0.077,0.374
			C254.249,84.056,254.224,83.933,254.198,83.807 M254.128,83.453v0.001V83.453 M253.533,79.939c0.016,0.115,0.033,0.23,0.05,0.344
			C253.566,80.169,253.549,80.054,253.533,79.939 M253.459,79.401c0.007,0.057,0.016,0.117,0.023,0.174
			C253.475,79.518,253.466,79.458,253.459,79.401 M253.396,78.917c0,0.004,0.001,0.009,0.002,0.014
			C253.396,78.926,253.396,78.921,253.396,78.917 M253.322,78.32c0.011,0.094,0.022,0.186,0.033,0.279
			C253.345,78.506,253.333,78.414,253.322,78.32 M253.288,78.025c0.006,0.053,0.012,0.106,0.019,0.16
			C253.3,78.131,253.294,78.078,253.288,78.025 M253.239,77.582c0.01,0.087,0.019,0.175,0.028,0.262
			C253.258,77.757,253.249,77.669,253.239,77.582 M253.223,77.428c0.001,0.002,0.001,0.006,0.001,0.008
			C253.224,77.434,253.224,77.43,253.223,77.428 M253.115,76.312c0.008,0.089,0.016,0.177,0.024,0.267
			C253.131,76.489,253.123,76.401,253.115,76.312 M253.048,75.489c0.015,0.185,0.028,0.367,0.044,0.551
			C253.076,75.856,253.062,75.674,253.048,75.489 M252.993,74.71c0.004,0.061,0.009,0.124,0.013,0.185
			C253.002,74.834,252.997,74.771,252.993,74.71 M252.929,73.56c0.012,0.247,0.025,0.494,0.039,0.74
			C252.954,74.054,252.94,73.807,252.929,73.56 M252.912,73.182c0.005,0.118,0.011,0.241,0.016,0.359
			C252.923,73.423,252.917,73.3,252.912,73.182 M252.854,70.939c0.006,0.551,0.018,1.104,0.036,1.652
			C252.871,72.043,252.859,71.491,252.854,70.939 M323.138,122.479c1.135,0,2.283-0.068,3.443-0.207
			c13.021-1.565,24.073-11.825,27.645-24.375c0.525-1.847,1.987-2.647,3.474-2.647c2.25,0,4.558,1.833,3.759,4.641
			c-4.331,15.221-17.755,27.824-33.587,29.726c-1.495,0.18-2.978,0.267-4.447,0.267c-16.941,0-31.968-11.6-38.82-27.098
			c-1.328-3.005,1.295-5.746,3.703-5.746c1.103,0,2.16,0.574,2.773,1.961C296.74,111.804,308.868,122.479,323.138,122.479
			 M321.114,2.27c3.654,0.014,7.238,0.329,10.736,0.898c-32.323,5.26-57,33.292-57,67.102s24.677,61.842,57,67.102
			c-3.521,0.573-7.131,0.888-10.812,0.898c32.011-0.085,58.822-22.294,65.953-52.143c0.568-2.379,1.011-4.805,1.322-7.274
			c0.354-2.811,0.536-5.676,0.536-8.583C388.851,32.801,358.547,2.411,321.114,2.27 M321.038,2.27c0.025,0,0.05,0,0.075,0
			C321.089,2.27,321.062,2.27,321.038,2.27 M320.948,2.27c0.017,0,0.034,0,0.051,0C320.98,2.27,320.967,2.27,320.948,2.27
			 M320.851,2.27c-37.337,0-67.643,30.088-67.997,67.341C253.208,32.358,283.515,2.27,320.851,2.27"/>
		<ellipse fill="#FFFFFF" cx="307.461" cy="81.235" rx="3.288" ry="7.451"/>
		<ellipse fill="#FFFFFF" cx="338.223" cy="81.56" rx="3.287" ry="7.451"/>
		<path fill="#FFFFFF" d="M357.699,95.25c-1.486,0-2.948,0.8-3.474,2.647c-3.571,12.55-14.624,22.811-27.645,24.375
			c-1.16,0.139-2.309,0.207-3.443,0.207c-14.27,0-26.397-10.676-32.058-23.478c-0.613-1.387-1.671-1.961-2.773-1.961
			c-2.408,0-5.031,2.741-3.703,5.746c6.853,15.498,21.879,27.098,38.82,27.098c1.47,0,2.952-0.087,4.447-0.267
			c15.832-1.902,29.256-14.505,33.587-29.726C362.257,97.083,359.949,95.25,357.699,95.25"/>
		<path fill="#FBC583" d="M145.037,209.726c-0.017,0-0.033,0-0.049,0C145.004,209.726,145.021,209.726,145.037,209.726
			 M145.156,73.727c3.654,0.015,7.237,0.329,10.734,0.898c-32.323,5.26-57,33.292-57,67.102s24.677,61.842,57,67.102
			c-3.521,0.573-7.131,0.888-10.812,0.898c37.469-0.1,67.812-30.506,67.812-68c0-10.737-2.488-20.892-6.92-29.92
			c-1.157-2.358-2.445-4.637-3.857-6.832C190.059,86.247,169.06,73.819,145.156,73.727 M145.079,73.727c0.024,0,0.048,0,0.072,0
			C145.127,73.727,145.104,73.727,145.079,73.727 M144.988,73.726c0.016,0,0.032,0,0.049,0
			C145.021,73.727,145.004,73.727,144.988,73.726"/>
		<ellipse fill="#FFFFFF" cx="128.778" cy="128.901" rx="3.288" ry="7.451"/>
		<ellipse fill="#FFFFFF" cx="159.539" cy="129.225" rx="3.287" ry="7.451"/>
		<path fill="#FFFFFF" d="M105.92,150.452c7.447,16.843,24.547,29.08,43.268,26.831c15.832-1.902,29.256-14.505,33.587-29.726
			c1.326-4.662-5.911-6.638-7.232-1.994c-3.571,12.55-14.624,22.811-27.645,24.375c-15.743,1.892-29.391-9.451-35.501-23.271
			C110.444,142.251,103.983,146.071,105.92,150.452z"/>
		<path fill="#FDD193" d="M144.988,209.726c-0.032,0-0.065,0-0.098,0C144.923,209.726,144.955,209.726,144.988,209.726
			 M145.079,209.726c-0.014,0-0.028,0-0.042,0C145.051,209.726,145.064,209.726,145.079,209.726 M145.151,73.727
			c0.003,0,0.002,0,0.005,0C145.154,73.727,145.153,73.727,145.151,73.727 M145.037,73.727c0.014,0,0.028,0,0.042,0
			C145.065,73.727,145.051,73.727,145.037,73.727 M144.891,73.726c-37.556,0-68,30.444-68,68l0,0
			C76.891,104.17,107.335,73.726,144.891,73.726c0.032,0,0.065,0,0.098,0C144.956,73.726,144.923,73.726,144.891,73.726"/>
		<path fill="#F9B469" d="M144.891,73.726c-37.556,0-68,30.444-68,68s30.444,68,68,68l0,0c0.032,0,0.065,0,0.098,0
			c0.016,0,0.032,0,0.049,0c0.014,0,0.028,0,0.042,0c3.681-0.011,7.29-0.326,10.812-0.898c-32.323-5.26-57-33.292-57-67.102
			s24.677-61.842,57-67.102c-3.497-0.569-7.08-0.883-10.734-0.898c-0.003,0-0.002,0-0.005,0c-0.024,0-0.048,0-0.072,0
			c-0.014,0-0.028,0-0.042,0c-0.017,0-0.033,0-0.049,0C144.956,73.726,144.923,73.726,144.891,73.726"/>
		<path fill="#FBC583" d="M212.479,614.28c-0.017,0-0.033,0-0.049,0C212.445,614.28,212.462,614.28,212.479,614.28 M212.595,614.279
			c-0.024,0-0.05,0.001-0.074,0.001C212.546,614.28,212.57,614.279,212.595,614.279 M212.598,478.28
			c3.654,0.015,7.237,0.329,10.734,0.898c-32.323,5.26-57,33.292-57,67.102s24.677,61.842,57,67.102
			c-3.498,0.569-7.082,0.884-10.736,0.897c26.764-0.101,49.882-15.665,60.888-38.224c1.233-2.528,2.314-5.144,3.231-7.836
			c2.345-6.883,3.617-14.263,3.617-21.939C280.332,508.814,250.028,478.424,212.598,478.28 M212.521,478.28c0.024,0,0.048,0,0.072,0
			C212.568,478.28,212.546,478.28,212.521,478.28 M212.43,478.28c0.016,0,0.032,0,0.049,0
			C212.462,478.28,212.445,478.28,212.43,478.28"/>
		<ellipse fill="#FFFFFF" cx="199.461" cy="504.235" rx="3.288" ry="7.451"/>
		<ellipse fill="#FFFFFF" cx="230.223" cy="504.559" rx="3.287" ry="7.451"/>
		<path fill="#FFFFFF" d="M176.604,525.787c7.447,16.843,24.547,29.08,43.268,26.831c15.832-1.903,29.256-14.505,33.587-29.727
			c1.326-4.662-5.911-6.638-7.232-1.994c-3.571,12.55-14.624,22.811-27.645,24.375c-15.743,1.893-29.391-9.45-35.501-23.271
			C181.128,517.585,174.667,521.406,176.604,525.787z"/>
		<path fill="#FDD193" d="M212.332,478.28c-27.813,0-51.727,16.698-62.262,40.617l0,0
			C160.605,494.978,184.519,478.28,212.332,478.28c0.032,0,0.065,0,0.098,0C212.397,478.28,212.364,478.28,212.332,478.28"/>
		<path fill="#FDD193" d="M212.43,614.28c-0.032,0-0.065,0-0.098,0C212.364,614.28,212.396,614.28,212.43,614.28 M212.521,614.28
			c-0.014,0-0.028,0-0.042,0C212.492,614.28,212.506,614.28,212.521,614.28 M212.596,614.279L212.596,614.279L212.596,614.279
			 M144.332,546.28c0,37.189,29.853,67.404,66.901,67.991C174.185,613.684,144.332,583.467,144.332,546.28 M212.593,478.28
			c0.003,0,0.002,0,0.005,0C212.596,478.28,212.595,478.28,212.593,478.28 M212.479,478.28c0.014,0,0.028,0,0.042,0
			C212.507,478.28,212.492,478.28,212.479,478.28"/>
		<path fill="#F9B469" d="M212.332,478.28c-27.813,0-51.727,16.698-62.262,40.617c-0.972,2.206-1.83,4.476-2.566,6.797
			c-2.061,6.494-3.172,13.409-3.172,20.586l0,0c0,37.188,29.853,67.404,66.901,67.991c0.365,0.006,0.731,0.009,1.099,0.009l0,0
			c0.032,0,0.065,0,0.098,0c0.016,0,0.032,0,0.049,0c0.014,0,0.028,0,0.042,0c0.024,0,0.05-0.001,0.074-0.001h0.001
			c3.654-0.014,7.238-0.328,10.736-0.897c-32.323-5.26-57-33.292-57-67.102s24.677-61.842,57-67.102
			c-3.497-0.569-7.08-0.884-10.734-0.898c-0.003,0-0.002,0-0.005,0c-0.024,0-0.048,0-0.072,0c-0.014,0-0.028,0-0.042,0
			c-0.017,0-0.033,0-0.049,0C212.397,478.28,212.364,478.28,212.332,478.28"/>
		<path fill="#FBC583" d="M431.812,614.28c-0.017,0-0.033,0-0.049,0C431.779,614.28,431.796,614.28,431.812,614.28 M431.929,614.279
			c-0.024,0-0.05,0.001-0.074,0.001C431.88,614.28,431.904,614.279,431.929,614.279 M431.932,478.28
			c3.654,0.015,7.237,0.329,10.734,0.898c-32.323,5.26-57,33.292-57,67.102s24.677,61.842,57,67.102
			c-3.498,0.569-7.082,0.884-10.736,0.897c8.27-0.03,16.188-1.538,23.512-4.271c4.343-1.621,8.476-3.673,12.346-6.104
			c19.149-12.029,31.879-33.34,31.879-57.623c0-3.723-0.299-7.374-0.875-10.934c-0.587-3.635-1.463-7.174-2.603-10.592
			C487.21,497.83,461.846,478.396,431.932,478.28 M431.854,478.28c0.024,0,0.048,0,0.072,0
			C431.902,478.28,431.88,478.28,431.854,478.28 M431.764,478.28c0.016,0,0.032,0,0.049,0
			C431.796,478.28,431.779,478.28,431.764,478.28"/>
		<ellipse fill="#FFFFFF" cx="414.461" cy="504.235" rx="3.288" ry="7.451"/>
		<ellipse fill="#FFFFFF" cx="445.223" cy="504.559" rx="3.287" ry="7.451"/>
		<path fill="#FFFFFF" d="M391.604,525.787c7.447,16.843,24.547,29.08,43.268,26.831c15.832-1.903,29.256-14.505,33.587-29.727
			c1.326-4.662-5.911-6.638-7.232-1.994c-3.571,12.55-14.624,22.811-27.645,24.375c-15.743,1.893-29.391-9.45-35.501-23.271
			C396.128,517.585,389.667,521.406,391.604,525.787z"/>
		<path fill="#FDD193" d="M431.666,478.28c-12.039,0-23.348,3.129-33.156,8.617l0,0C408.318,481.409,419.627,478.28,431.666,478.28
			c0.032,0,0.065,0,0.098,0C431.731,478.28,431.698,478.28,431.666,478.28"/>
		<path fill="#FDD193" d="M370.749,576.532c10.979,22.067,33.597,37.324,59.818,37.739
			C404.346,613.856,381.729,598.599,370.749,576.532L370.749,576.532 M363.666,546.28c0,7.849,1.33,15.389,3.776,22.402l0,0
			C364.996,561.668,363.666,554.128,363.666,546.28 M431.927,478.28c0.003,0,0.002,0,0.005,0
			C431.93,478.28,431.929,478.28,431.927,478.28 M431.812,478.28c0.014,0,0.028,0,0.042,0
			C431.841,478.28,431.826,478.28,431.812,478.28"/>
		<path d="M367.442,568.682c0.941,2.698,2.048,5.318,3.307,7.85l0,0C369.49,574,368.384,571.38,367.442,568.682L367.442,568.682"/>
		<path fill="#FDD193" d="M431.764,614.28c-0.032,0-0.065,0-0.098,0C431.698,614.28,431.73,614.28,431.764,614.28 M431.854,614.28
			c-0.014,0-0.028,0-0.042,0C431.826,614.28,431.84,614.28,431.854,614.28 M431.93,614.279L431.93,614.279L431.93,614.279"/>
		<path fill="#F9B469" d="M431.666,478.28c-12.039,0-23.348,3.129-33.156,8.617c-2.33,1.304-4.574,2.74-6.726,4.3
			c-17.037,12.357-28.118,32.427-28.118,55.083l0,0c0,7.849,1.33,15.389,3.776,22.402c0.941,2.698,2.048,5.318,3.307,7.85
			c10.979,22.067,33.597,37.324,59.818,37.739c0.366,0.006,0.731,0.009,1.099,0.009l0,0c0.032,0,0.065,0,0.098,0
			c0.016,0,0.032,0,0.049,0c0.014,0,0.028,0,0.042,0c0.024,0,0.05-0.001,0.074-0.001h0.001c3.654-0.014,7.238-0.328,10.736-0.897
			c-32.323-5.26-57-33.292-57-67.102s24.677-61.842,57-67.102c-3.497-0.569-7.08-0.884-10.734-0.898c-0.003,0-0.002,0-0.005,0
			c-0.024,0-0.048,0-0.072,0c-0.014,0-0.028,0-0.042,0c-0.017,0-0.033,0-0.049,0C431.731,478.28,431.698,478.28,431.666,478.28"/>
		<path fill="#FBC583" d="M503.763,79.726c-0.099,0-0.197,0-0.296,0c3.646,0.016,7.22,0.331,10.709,0.898
			c-32.323,5.26-57,33.292-57,67.102s24.677,61.842,57,67.102c-3.489,0.567-7.063,0.882-10.709,0.898c0.099,0,0.197,0,0.296,0
			c12.971,0,25.095-3.632,35.408-9.935c2.052-1.254,4.034-2.615,5.936-4.073c16.208-12.429,26.656-31.989,26.656-53.992
			C571.763,110.17,541.316,79.726,503.763,79.726"/>
		<ellipse fill="#FFFFFF" cx="489.91" cy="134.902" rx="3.288" ry="7.451"/>
		<ellipse fill="#FFFFFF" cx="520.671" cy="135.226" rx="3.287" ry="7.451"/>
		<path fill="#FFFFFF" d="M467.052,156.453c7.447,16.843,24.547,29.08,43.268,26.831c15.832-1.902,29.256-14.505,33.587-29.726
			c1.326-4.662-5.911-6.638-7.232-1.994c-3.571,12.55-14.624,22.811-27.645,24.375c-15.743,1.892-29.391-9.451-35.501-23.271
			C471.576,148.252,465.115,152.072,467.052,156.453z"/>
		<path fill="#FDD193" d="M457.534,197.596c-0.104,0.084-0.207,0.169-0.312,0.254c12.102,11.101,28.236,17.876,45.953,17.876
			c0.098,0,0.194,0,0.291,0C485.731,215.65,469.6,208.785,457.534,197.596 M444.85,112.749c-6.141,10.219-9.674,22.187-9.674,34.978
			c0,17.036,6.266,32.609,16.616,44.541c0.12-0.089,0.238-0.178,0.357-0.266c-10.214-11.896-16.387-27.365-16.387-44.274
			c0-12.724,3.493-24.63,9.575-34.814C445.176,112.858,445.013,112.804,444.85,112.749 M503.176,79.726
			c-22.438,0-42.337,10.866-54.722,27.625c0.134,0.084,0.269,0.168,0.401,0.253c12.316-16.829,32.182-27.782,54.611-27.877
			C503.37,79.726,503.273,79.726,503.176,79.726"/>
		<path d="M452.149,192c-0.119,0.088-0.237,0.177-0.357,0.266c1.703,1.963,3.516,3.827,5.431,5.583
			c0.104-0.085,0.208-0.169,0.312-0.254C455.635,195.834,453.837,193.966,452.149,192"/>
		<path d="M448.454,107.351c-1.284,1.738-2.487,3.539-3.604,5.397c0.163,0.055,0.326,0.11,0.488,0.164
			c1.091-1.826,2.266-3.599,3.518-5.308C448.723,107.52,448.588,107.435,448.454,107.351"/>
		<path fill="#F9B469" d="M503.467,79.727c-22.43,0.096-42.295,11.049-54.611,27.877c-1.252,1.709-2.427,3.482-3.518,5.308
			c-6.082,10.184-9.575,22.09-9.575,34.814c0,16.91,6.173,32.378,16.387,44.274c1.688,1.966,3.485,3.834,5.385,5.595
			c12.065,11.189,28.197,18.054,45.933,18.13c3.646-0.016,7.22-0.331,10.709-0.898c-32.323-5.26-57-33.292-57-67.102
			s24.677-61.842,57-67.102C510.687,80.057,507.112,79.743,503.467,79.727"/>
		<path fill="#FBC780" d="M320.948,138.27c-0.032,0-0.065,0-0.098,0C320.883,138.27,320.915,138.27,320.948,138.27 M321.039,138.269
			c-0.014,0-0.028,0-0.042,0C321.011,138.269,321.024,138.269,321.039,138.269 M253.583,80.283c0.096,0.652,0.201,1.3,0.315,1.946
			l0,0C253.784,81.583,253.679,80.935,253.583,80.283 M253.482,79.575c0.017,0.122,0.033,0.243,0.051,0.364
			C253.516,79.818,253.499,79.696,253.482,79.575 M253.397,78.93c0.02,0.157,0.04,0.313,0.062,0.471
			C253.438,79.244,253.417,79.087,253.397,78.93 M253.355,78.599c0.014,0.106,0.026,0.211,0.04,0.317
			C253.382,78.81,253.369,78.706,253.355,78.599 M253.307,78.185c0.005,0.044,0.011,0.091,0.016,0.135
			C253.317,78.275,253.312,78.229,253.307,78.185 M253.268,77.844c0.007,0.06,0.014,0.12,0.021,0.181
			C253.281,77.964,253.274,77.904,253.268,77.844 M253.224,77.437c0.005,0.049,0.011,0.096,0.016,0.146
			C253.234,77.533,253.229,77.485,253.224,77.437 M253.14,76.578c0.026,0.285,0.054,0.567,0.083,0.85
			C253.193,77.145,253.166,76.863,253.14,76.578 M253.092,76.041c0.008,0.09,0.016,0.181,0.023,0.271
			C253.107,76.222,253.1,76.13,253.092,76.041 M253.006,74.895c0.013,0.199,0.027,0.396,0.042,0.594
			C253.033,75.292,253.019,75.094,253.006,74.895 M252.968,74.3c0.009,0.138,0.017,0.272,0.025,0.41
			C252.984,74.573,252.977,74.438,252.968,74.3 M252.928,73.541c0.001,0.007,0.001,0.013,0.001,0.02
			C252.929,73.553,252.929,73.547,252.928,73.541 M252.89,72.591c0.007,0.198,0.014,0.393,0.022,0.59
			C252.903,72.984,252.896,72.789,252.89,72.591 M252.851,70.27c0,0.225,0.001,0.446,0.003,0.67
			C252.852,70.715,252.851,70.494,252.851,70.27 M321.113,2.27L321.113,2.27L321.113,2.27 M320.999,2.27c0.012,0,0.027,0,0.039,0
			C321.025,2.27,321.012,2.27,320.999,2.27 M320.851,2.27L320.851,2.27L320.851,2.27c0.032,0,0.065,0,0.098,0
			C320.916,2.27,320.883,2.27,320.851,2.27"/>
		<path d="M254.275,84.181c0,0.004,0.001,0.006,0.002,0.01C254.276,84.187,254.275,84.186,254.275,84.181 M254.128,83.455
			c0.023,0.117,0.047,0.236,0.07,0.353C254.175,83.69,254.151,83.571,254.128,83.455 M253.898,82.229
			c0.073,0.41,0.149,0.817,0.229,1.224C254.048,83.046,253.972,82.639,253.898,82.229L253.898,82.229"/>
		<path fill="#F39038" d="M320.851,2.27L320.851,2.27c-37.336,0-67.643,30.088-67.997,67.341c-0.002,0.219-0.003,0.439-0.003,0.659
			l0,0c0,0.225,0.001,0.446,0.003,0.67c0.006,0.551,0.018,1.104,0.036,1.652c0.007,0.198,0.014,0.393,0.022,0.59
			c0.005,0.118,0.011,0.241,0.016,0.359c0.001,0.007,0.001,0.013,0.001,0.02c0.012,0.247,0.025,0.494,0.039,0.74
			c0.009,0.138,0.017,0.272,0.025,0.41c0.004,0.061,0.009,0.124,0.013,0.185c0.013,0.199,0.027,0.396,0.042,0.594
			c0.015,0.185,0.028,0.367,0.044,0.551c0.008,0.09,0.016,0.181,0.023,0.271c0.008,0.089,0.016,0.177,0.024,0.267
			c0.026,0.285,0.054,0.567,0.083,0.85c0.001,0.002,0.001,0.006,0.001,0.008c0.005,0.049,0.011,0.096,0.016,0.146
			c0.01,0.087,0.019,0.175,0.028,0.262c0.007,0.06,0.014,0.12,0.021,0.181c0.006,0.053,0.012,0.106,0.019,0.16
			c0.005,0.044,0.011,0.091,0.016,0.135c0.011,0.094,0.022,0.186,0.033,0.279c0.014,0.106,0.026,0.211,0.04,0.317
			c0,0.004,0.001,0.009,0.002,0.014c0.02,0.157,0.04,0.313,0.062,0.471c0.007,0.057,0.016,0.117,0.023,0.174
			c0.017,0.122,0.033,0.243,0.051,0.364c0.016,0.115,0.033,0.23,0.05,0.344c0.096,0.652,0.201,1.3,0.315,1.946
			c0.073,0.41,0.149,0.817,0.229,1.224v0.001c0.023,0.117,0.047,0.236,0.07,0.353c0.025,0.125,0.051,0.249,0.077,0.374
			c0,0.004,0.001,0.006,0.002,0.01c6.425,30.876,33.79,54.078,66.573,54.078l0,0c0.032,0,0.065,0,0.098,0c0.016,0,0.032,0,0.049,0
			c0.014,0,0.028,0,0.042,0c3.681-0.01,7.29-0.325,10.812-0.898c-32.323-5.26-57-33.292-57-67.102s24.677-61.842,57-67.102
			c-3.498-0.569-7.082-0.884-10.736-0.898h-0.001c-0.025,0-0.05,0-0.075,0c-0.012,0-0.027,0-0.039,0c-0.017,0-0.034,0-0.051,0
			C320.916,2.27,320.883,2.27,320.851,2.27"/>
		<path fill="#F6A64F" d="M572.148,407.893c-0.018,0-0.034,0-0.051,0C572.115,407.893,572.13,407.893,572.148,407.893
			 M572.264,271.893c3.654,0.015,7.238,0.329,10.736,0.898c-32.323,5.26-57,33.292-57,67.102c0,33.809,24.677,61.842,57,67.102
			c-3.522,0.572-7.132,0.888-10.813,0.898c31.701-0.085,58.302-21.865,65.741-51.274c1.354-5.352,2.072-10.954,2.072-16.726
			c0-2.113-0.096-4.202-0.285-6.267C636.559,299.094,607.586,272.026,572.264,271.893 M572.188,271.893c0.025,0,0.051,0,0.076,0
			C572.238,271.893,572.213,271.893,572.188,271.893 M572.098,271.893c0.017,0,0.033,0,0.051,0
			C572.13,271.893,572.116,271.893,572.098,271.893"/>
		<ellipse fill="#FFFFFF" cx="558.293" cy="322.902" rx="3.288" ry="7.451"/>
		<ellipse fill="#FFFFFF" cx="589.055" cy="323.226" rx="3.287" ry="7.451"/>
		<path fill="#FFFFFF" d="M535.436,344.454c7.447,16.843,24.547,29.079,43.268,26.83c15.832-1.902,29.256-14.505,33.587-29.726
			c1.326-4.662-5.911-6.638-7.232-1.994c-3.571,12.55-14.624,22.81-27.645,24.374c-15.743,1.892-29.391-9.449-35.501-23.27
			C539.96,336.252,533.499,340.073,535.436,344.454z"/>
		<path fill="#FBC780" d="M572,271.893c-1.111,0-2.215,0.027-3.312,0.08l0,0C569.785,271.919,570.889,271.893,572,271.893
			c0.032,0,0.065,0,0.098,0C572.065,271.893,572.032,271.893,572,271.893"/>
		<path fill="#FBC780" d="M572.098,407.893c-0.032,0-0.065,0-0.098,0C572.032,407.893,572.064,407.893,572.098,407.893
			 M572.187,407.893c-0.011,0-0.026,0-0.038,0C572.161,407.893,572.174,407.893,572.187,407.893 M572.264,271.893L572.264,271.893
			L572.264,271.893 M572.148,271.893c0.012,0,0.027,0,0.039,0C572.175,271.893,572.161,271.893,572.148,271.893"/>
		<path fill="#F39038" d="M572,271.893c-1.111,0-2.215,0.027-3.312,0.08c-2.055,0.099-4.089,0.289-6.092,0.565
			c-33.104,4.58-58.596,32.99-58.596,67.355c0,37.555,30.444,68,68,68l0,0c0.032,0,0.065,0,0.098,0c0.017,0,0.033,0,0.051,0
			c0.012,0,0.027,0,0.038,0c3.682-0.011,7.291-0.326,10.813-0.898c-32.323-5.26-57-33.293-57-67.102
			c0-33.81,24.677-61.842,57-67.102c-3.498-0.569-7.082-0.883-10.736-0.898l0,0c-0.025,0-0.051,0-0.076,0c-0.012,0-0.027,0-0.039,0
			c-0.018,0-0.034,0-0.051,0C572.065,271.893,572.032,271.893,572,271.893"/>
		<path fill="#F6A64F" d="M68.148,407.893c-0.018,0-0.034,0-0.051,0C68.115,407.893,68.13,407.893,68.148,407.893 M68.264,271.893
			c3.654,0.015,7.238,0.329,10.736,0.898c-32.323,5.26-57,33.292-57,67.102c0,33.809,24.677,61.842,57,67.102
			c-3.522,0.572-7.132,0.888-10.813,0.898c5.883-0.016,11.589-0.779,17.03-2.199c1.303-0.34,2.589-0.717,3.86-1.131
			C116.313,395.691,136,370.09,136,339.893c0-33.588-24.35-61.488-56.36-67.008c-1.346-0.232-2.709-0.425-4.08-0.577
			C73.162,272.043,70.729,271.902,68.264,271.893 M68.188,271.893c0.025,0,0.051,0,0.075,0
			C68.238,271.893,68.213,271.893,68.188,271.893 M68.098,271.893c0.017,0,0.033,0,0.051,0
			C68.13,271.893,68.116,271.893,68.098,271.893"/>
		<ellipse fill="#FFFFFF" cx="51.78" cy="322.902" rx="3.288" ry="7.451"/>
		<ellipse fill="#FFFFFF" cx="82.541" cy="323.226" rx="3.287" ry="7.451"/>
		<path fill="#FFFFFF" d="M28.922,344.454c7.447,16.843,24.547,29.079,43.268,26.83c15.832-1.902,29.256-14.505,33.587-29.726
			c1.326-4.662-5.911-6.638-7.232-1.994c-3.571,12.55-14.624,22.81-27.645,24.374c-15.743,1.892-29.391-9.449-35.501-23.27
			C33.446,336.252,26.985,340.073,28.922,344.454z"/>
		<path fill="#FBC780" d="M68.098,407.893c-0.032,0-0.065,0-0.098,0C68.032,407.893,68.064,407.893,68.098,407.893 M68.187,407.893
			c-0.011,0-0.026,0-0.038,0C68.161,407.893,68.174,407.893,68.187,407.893 M68.263,271.893L68.263,271.893L68.263,271.893
			 M68.148,271.893c0.012,0,0.027,0,0.039,0C68.175,271.893,68.161,271.893,68.148,271.893 M68,271.893
			c-35.442,0-64.551,27.116-67.715,61.734l0,0C3.449,299.009,32.558,271.893,68,271.893c0.032,0,0.065,0,0.098,0
			C68.064,271.893,68.032,271.893,68,271.893"/>
		<path fill="#F39038" d="M68,271.893c-35.442,0-64.551,27.116-67.715,61.734C0.097,335.691,0,337.78,0,339.893
			c0,37.555,30.444,68,68,68l0,0c0.032,0,0.065,0,0.098,0c0.017,0,0.033,0,0.051,0c0.012,0,0.027,0,0.038,0
			c3.682-0.011,7.291-0.326,10.813-0.898c-32.323-5.26-57-33.293-57-67.102c0-33.81,24.677-61.842,57-67.102
			c-3.498-0.569-7.082-0.883-10.736-0.898h-0.001c-0.024,0-0.05,0-0.075,0c-0.012,0-0.027,0-0.039,0c-0.018,0-0.034,0-0.051,0
			C68.065,271.893,68.032,271.893,68,271.893"/>
	</g>
</g>
</svg>
