<?xml version="1.0" encoding="utf-8"?>
<!-- Generator: Adobe Illustrator 16.0.0, SVG Export Plug-In . SVG Version: 6.00 Build 0)  -->
<!DOCTYPE svg PUBLIC "-//W3C//DTD SVG 1.1//EN" "http://www.w3.org/Graphics/SVG/1.1/DTD/svg11.dtd">
<svg version="1.1" xmlns="http://www.w3.org/2000/svg" xmlns:xlink="http://www.w3.org/1999/xlink" x="0px" y="0px" width="640px"
	 height="640px" viewBox="0 0 640 640" enable-background="new 0 0 640 640" xml:space="preserve">
<g id="fond">
</g>
<g id="couleurs">
</g>
<g id="traits">
	<g>
		<path fill="#FFE4B7" d="M121.526,494.276c0.426,1.192,0.895,2.412,1.413,3.617h1.335
			C123.225,496.666,122.285,495.447,121.526,494.276 M68.259,395.393H41.924c0.106,1.577,0.295,4.312,0.539,7.611
			c0.331,0.01,0.782,0.018,1.33,0.018c3.687,0,11.783-0.391,17.528-3.523C63.357,398.387,65.788,396.932,68.259,395.393
			 M188.235,395.393h-7.715c-6.85,1.125-20.335,3.771-41.229,9.675c-32.023,9.049-45.252,10.441-45.252,10.441l0,0
			c0,0-19.49,9.05-24.365,13.228c-4.873,4.178-15.315,15.316-15.315,15.316s-5.968-9.181-9.996-19.504
			c0.083,0.732,0.166,1.435,0.249,2.1c1.393,11.137,16.013,24.367,16.013,24.367s-2.785,9.049-4.178,18.1
			c-1.2,7.802-3.952,14.568-0.229,28.777h41.658c8.029-6.524,17.5-13.77,19.967-13.77c0.287,0,0.479,0.099,0.563,0.309
			c0.304,0.76,0.708,2.184,1.24,3.981c0.037-0.172,0.088-0.34,0.152-0.501c2.785-6.962,18.797-14.62,18.797-14.62l0,0
			c0,0,0.837-1.653,2.385-4.564c0.289-0.626,0.628-1.262,1.02-1.906C149.248,453.337,167.271,421.33,188.235,395.393 M640,395.393
			H489.061l6.675,12.459l29.935,53.606l-29.935,15.315c0,0-33.599-42.859-64.379-81.381H263.208
			c-1.247,0.874-2.521,1.77-3.806,2.677l-106.187,94.02l-3.803,5.804H640V395.393 M234.709,340.716l-35.896,39.677h2.595
			c19.681-21.096,29.623-33.51,34.152-39.582C235.301,340.782,235.017,340.75,234.709,340.716 M238.845,336.146l-2.247,2.484
			l0.185,0.517C238.271,337.084,238.845,336.146,238.845,336.146 M288.115,301.877l2.247,18.256c0,0,10.504,47.925-4.827,60.26
			h133.799c-7.662-9.526-14.806-18.332-20.782-25.579c-11.125-11.93-20.273-20.211-24.649-20.758
			c-1.288-0.161-2.851-0.269-4.635-0.329c-2.93,0.072-5.109,0.329-5.109,0.329l-69.619,4.874l0,0L288.115,301.877 M225.597,296.893
			h-2.017l15.265,39.253l0,0C238.845,336.146,232.812,318.046,225.597,296.893 M640,296.893H436.292l44.733,83.5H640V296.893 M640,0
			H0v640h640V517.893H155.646c1.648,6.487,9.563,33.019,30.289,40.332c23.671,8.354,50.126,6.266,51.518,12.531
			c0.197,0.889-0.545,2.105-2.029,3.521c-2.354,2.448-8.083,6.184-15.616,9.593c-12.271,5.812-28.709,11.132-41.837,11.132
			c-2.867,0-5.571-0.253-8.045-0.811c-8.867-1.998-17.83-7.935-25.684-15.203c-6.623-4.59-11.849-10.254-14.792-16.797
			c-5.347-7.436-8.908-14.376-9.651-18.586c-0.725-4.105-1.784-5.446-2.859-5.446c-2.024,0-4.104,4.751-4.104,4.751l-11.834,1.393
			l-11.173-26.41h-25.95c7.038,14.507,15.542,26.41,15.542,26.41s-0.283,3.107-3.008,6.264c-0.955,2.464-3.218,4.272-7.436,4.875
			l0,0c-0.957,0.342-1.991,0.516-3.102,0.516c-9.024,0-22.885-11.512-37.696-38.064H0v-20h18.474
			c-12.938-33.576-1.709-56.626-1.709-56.626L5.627,435.7c0,0-1.394-30.632-2.09-36.898c-0.174-1.568,2.142-2.657,5.709-3.408H0v-15
			h84.275c8.971-6.579,30.942-22.195,50.839-32.412c10.259-5.268,21.288-10.756,30.85-15.454l25.493-16.166l-0.248-19.468H0v-10
			h191.081l-0.769-60.375l-0.897-19.861l10.562,29.545l19.713,50.69h2.483c-6.592-19.196-13.52-38.954-17.441-48.909
			c-9.05-22.974-50.82-125.312,0.695-146.893c7.955-3.333,14.888-4.806,20.929-4.807c33.076-0.006,39.589,44.131,43.12,68.855
			c4.178,29.24,4.178,29.24,4.178,29.24l12.617,102.514h0.766c-7.969-56.747-18.895-139.649-14.775-140.108l129.488,85.631
			l29.185,54.477H640V0"/>
		<path fill="#FFFFFF" d="M18.474,497.893H0v20h28.18c-1.935-3.468-3.887-7.194-5.845-11.184
			C20.857,503.7,19.577,500.758,18.474,497.893 M97.876,497.893H56.218c0.596,2.272,1.357,4.736,2.317,7.424
			c1.521,4.26,3.375,8.521,5.344,12.576h25.95l-4.143-9.792C85.687,508.101,91.297,503.239,97.876,497.893 M124.274,497.893h-1.335
			c2.05,4.772,4.858,9.307,8.694,10.904c2.126,0.886,4.703,1.816,7.364,2.712C136.379,509.451,129.14,503.58,124.274,497.893
			 M640,497.893L640,497.893H149.413l-9.188,14.025c7.434,2.451,15.08,4.536,15.08,4.536s0.107,0.517,0.342,1.438H640V497.893"/>
		<path fill="#FFFFFF" d="M84.275,380.393H0v15h9.246c6.294-1.324,16.486-1.596,23.796-1.596c5.091,0,8.785,0.132,8.785,0.132
			s0.034,0.529,0.097,1.464h26.335c5.564-3.465,11.335-7.35,13.27-8.662l-1.411-3.245C80.117,383.486,81.632,382.332,84.275,380.393
			 M201.407,380.393h-2.595l-5.94,6.565c0.017,0.006,0.024,0.009,0.024,0.009l-0.043,0.012l-6.918,7.646
			c0,0-1.767,0.168-5.415,0.768h7.715c3.569-4.417,7.227-8.66,10.929-12.604C199.926,381.978,200.672,381.181,201.407,380.393
			 M419.334,380.393H285.535c-0.456,0.367-0.935,0.703-1.438,1.005c-4.636,2.781-12.233,7.933-20.889,13.995h168.148
			C427.27,390.279,423.236,385.245,419.334,380.393 M640,380.393L640,380.393H481.025l8.035,15H640V380.393"/>
		<path fill="#FFFFFF" d="M191.081,286.893H0v10h191.209L191.081,286.893 M222.174,286.893h-2.483l3.89,10h2.017
			C224.479,293.615,223.331,290.262,222.174,286.893 M287.037,286.893h-0.766l0.021,0.174c0.227,0.097,0.5,0.214,0.817,0.349
			C287.086,287.243,287.062,287.067,287.037,286.893 M640,286.893L640,286.893H430.935l5.357,10H640V286.893"/>
		<line fill="none" stroke="#FFFFFF" stroke-width="7" stroke-miterlimit="10" x1="0" y1="198.893" x2="640" y2="198.893"/>
		<line fill="none" stroke="#FFFFFF" stroke-width="5" stroke-miterlimit="10" x1="0" y1="112.893" x2="640" y2="112.893"/>
		<line fill="none" stroke="#FFFFFF" stroke-width="5" stroke-miterlimit="10" x1="0" y1="44.893" x2="640" y2="44.893"/>
		<path fill="#B3CAEA" d="M365.264,333.666c-23.344,0-70.725,5.265-70.725,5.265l0,0l0,0l69.619-4.874c0,0,2.18-0.257,5.109-0.329
			C368.034,333.685,366.693,333.666,365.264,333.666 M272.262,146.785c-4.119,0.458,6.807,83.361,14.775,140.108
			c0.024,0.174,0.049,0.35,0.073,0.523c6.635,2.82,32.624,13.537,59.642,20.187c21.643,5.327,50.821,3.48,61.264,16.011
			c10.441,12.532,68.922,127.402,68.922,127.402s-47.032-62.582-78.386-96.202c5.977,7.247,13.12,16.053,20.782,25.579
			c3.902,4.852,7.936,9.886,12.022,15c30.78,38.521,64.379,81.381,64.379,81.381l29.935-15.315l-29.935-53.606l-6.675-12.459
			l-8.035-15l-44.733-83.5l-5.357-10l-29.185-54.477L272.262,146.785"/>
		<path fill="#D3E4F6" d="M192.854,386.979l-99.277,27.388l0.463,1.143l0,0c0,0,13.229-1.393,45.252-10.441
			c20.895-5.904,34.38-8.55,41.229-9.675c3.648-0.6,5.415-0.768,5.415-0.768L192.854,386.979 M165.964,332.527
			c-9.562,4.698-20.591,10.187-30.85,15.454c-19.896,10.217-41.868,25.833-50.839,32.412c-2.644,1.938-4.158,3.093-4.158,3.093
			l1.411,3.245c0.436-0.295,0.677-0.46,0.677-0.46l7.98,19.718l-3.108-15.541c2.785-0.695,29.183-9.547,60.567-10.442
			c1.059-0.03,2.112-0.045,3.157-0.045c22.513,0,41.306,6.721,42.07,6.998l5.94-6.565l35.896-39.677
			c-12.911-1.426-67.124-7.437-68.963-8.051L165.964,332.527 M199.978,236.203l36.62,102.428l2.247-2.484l0,0l-15.265-39.253
			l-3.89-10L199.978,236.203 M190.312,226.518l0.769,60.375l0.128,10l0.248,19.468l2.832-1.796L190.312,226.518"/>
		<path fill="#D3E4F6" d="M140.98,468.728c-1.548,2.911-2.385,4.564-2.385,4.564l0.985,1.267
			C139.607,472.73,140.029,470.783,140.98,468.728 M226.356,86.284c-6.041,0.001-12.974,1.475-20.929,4.807
			c-51.516,21.582-9.745,123.919-0.695,146.893c3.922,9.955,10.85,29.713,17.441,48.909c1.157,3.369,2.305,6.722,3.423,10
			c7.215,21.153,13.248,39.253,13.248,39.253l0,0l0,0c0,0-0.574,0.938-2.062,3.001l0.573,1.604c2.268-5.105,3.089-11.179-0.6-17.138
			c-0.065-0.106-0.048-0.157,0.046-0.157c2.069,0,41.027,24.525,41.027,24.525l-50.124,5.568c0,0,6.215-5.258,9.541-12.554
			c-0.286-0.031-0.862-0.095-1.687-0.186c-4.529,6.072-14.472,18.486-34.152,39.582c-0.735,0.788-1.481,1.585-2.243,2.396
			c-3.702,3.943-7.359,8.187-10.929,12.604c-20.964,25.937-38.987,57.944-46.235,71.429c0.237-0.393,0.495-0.789,0.772-1.188
			c0,0,38.742-38.617,58.479-52.907c40.377-29.241,85.629-38.987,85.629-38.987l-27.478,24.33c1.285-0.907,2.559-1.803,3.806-2.677
			c8.655-6.062,16.253-11.214,20.889-13.995c0.504-0.302,0.982-0.638,1.438-1.005c15.331-12.335,4.827-60.26,4.827-60.26
			l-2.247-18.256l-2.628-15.16c0,0,0.276,0.122,0.806,0.349l-0.021-0.174l-12.617-102.514c0,0,0,0-4.178-29.24
			C265.945,130.415,259.433,86.278,226.356,86.284"/>
		<path fill="#748FC9" d="M284.793,215.708c0,0,17.403-54.999,22.277-55.694c4.874-0.696,46.646,29.935,46.646,29.935l34.808,30.632
			c0,0-14.619,11.139-17.403,20.189c-2.787,9.05-4.179,27.15-4.179,27.15S284.097,218.492,284.793,215.708z"/>
		<path fill="#B3CAEA" d="M401.75,232.416l39.684,7.657l4.873,58.479l13.922-5.57l85.631,158.728l-20.189,9.748l-88.414-160.817
			C437.256,300.641,398.27,237.289,401.75,232.416z"/>
		<path fill="#748FC9" d="M499.912,476.774l11.834,16.707l25.76-11.834l5.568,0.697l18.101-14.621l-15.315-16.013l-19.493,12.532
			C526.366,464.243,499.912,471.202,499.912,476.774z"/>
		<path fill="#748FC9" d="M401.75,232.416l41.074,77.971c0,0,1.395-9.746,3.482-11.835s-4.873-58.479-4.873-58.479
			S401.054,223.365,401.75,232.416z"/>
		<path fill="#FFFFFF" d="M82.205,386.271c0,0-0.241,0.165-0.677,0.46c-1.935,1.312-7.705,5.197-13.27,8.662
			c-2.471,1.539-4.901,2.994-6.938,4.105c-5.745,3.133-13.842,3.523-17.528,3.523c-0.548,0-0.999-0.008-1.33-0.018
			c0.481,6.49,1.18,15.168,1.899,21.545c4.028,10.323,9.996,19.504,9.996,19.504s10.442-11.139,15.315-15.316
			c4.875-4.178,24.365-13.228,24.365-13.228l0,0l-0.463-1.143l-1.625,0.448l-1.766-8.826L82.205,386.271"/>
		<path fill="#FFFFFF" d="M138.596,473.292c0,0-16.012,7.658-18.797,14.62c-0.064,0.161-0.115,0.329-0.152,0.501
			c0.503,1.701,1.122,3.737,1.88,5.862c0.759,1.171,1.698,2.39,2.748,3.617c4.865,5.687,12.104,11.558,14.724,13.616
			c0.407,0.138,0.816,0.273,1.227,0.409l9.188-14.025l3.803-5.804c0,0-13.791-6.674-13.635-17.53L138.596,473.292"/>
		<path fill="#748FC9" d="M33.042,393.797c-7.31,0-17.502,0.271-23.796,1.596c-3.567,0.751-5.883,1.84-5.709,3.408
			c0.696,6.267,2.09,36.898,2.09,36.898l11.138,5.567c0,0-11.229,23.05,1.709,56.626c1.104,2.865,2.384,5.807,3.861,8.816
			c1.958,3.989,3.91,7.716,5.845,11.184c14.812,26.553,28.672,38.064,37.696,38.064c1.11,0,2.145-0.174,3.102-0.516l0,0l0,0
			c-0.53,0.076-1.071,0.113-1.616,0.113c-19.488,0-47.853-47.251-49.205-64.858c0,0,18.101,27.848,29.238,30.632
			c11.14,2.786,18.797,2.786,18.797,2.786s13.683,17.526,10.222,26.452c2.725-3.156,3.008-6.264,3.008-6.264
			s-8.504-11.903-15.542-26.41c-1.969-4.056-3.823-8.316-5.344-12.576c-0.96-2.688-1.722-5.151-2.317-7.424
			c-3.724-14.209-0.972-20.976,0.229-28.777c1.393-9.051,4.178-18.1,4.178-18.1s-14.62-13.23-16.013-24.367
			c-0.083-0.665-0.166-1.367-0.249-2.1c-0.72-6.377-1.418-15.055-1.899-21.545c-0.244-3.3-0.433-6.034-0.539-7.611
			c-0.062-0.935-0.097-1.464-0.097-1.464S38.133,393.797,33.042,393.797"/>
		<path fill="#748FC9" d="M144.242,578.989c7.854,7.269,16.816,13.205,25.684,15.203c2.474,0.558,5.178,0.811,8.045,0.811
			c13.128,0,29.566-5.32,41.837-11.132c-9.533,4.314-21.958,8.107-34.08,8.107c-2.034,0-4.057-0.106-6.059-0.335
			C166.725,590.164,153.976,585.737,144.242,578.989 M117.843,484.124c-2.467,0-11.938,7.245-19.967,13.77
			c-6.579,5.346-12.189,10.208-12.189,10.208l4.143,9.792l11.173,26.41l11.834-1.393c0,0,2.079-4.751,4.104-4.751
			c1.075,0,2.135,1.341,2.859,5.446c0.743,4.21,4.305,11.15,9.651,18.586c-0.874-1.941-1.547-3.962-1.995-6.054
			c0,0,25.533,18.815,44.255,18.815c0.335,0,0.667-0.006,0.997-0.019c18.797-0.696,36.898-6.962,36.898-6.962l0,0
			c0.045,0,30.628,0.002,26.453,5.568c-0.172,0.229-0.385,0.476-0.635,0.736c1.484-1.416,2.227-2.633,2.029-3.521
			c-1.392-6.266-27.847-4.177-51.518-12.531c-20.726-7.313-28.641-33.845-30.289-40.332c-0.234-0.922-0.342-1.438-0.342-1.438
			s-7.646-2.085-15.08-4.536c-0.41-0.136-0.819-0.271-1.227-0.409c-2.661-0.896-5.238-1.826-7.364-2.712
			c-3.836-1.598-6.645-6.132-8.694-10.904c-0.519-1.205-0.987-2.425-1.413-3.617c-0.758-2.125-1.377-4.161-1.88-5.862
			c-0.532-1.798-0.937-3.222-1.24-3.981C118.322,484.222,118.13,484.124,117.843,484.124"/>
		<path fill="#FFFFFF" d="M511.746,493.481c0,0,14.62,20.189,10.443,25.063c-4.178,4.873-27.847,14.618-27.847,14.618
			s-48.733,10.444-45.252,13.925s16.012,2.089,16.012,2.089s-4.177,8.354,0,11.139c4.178,2.784,20.19-2.785,20.19-2.785
			s1.391,7.659,10.442,8.354c9.05,0.695,15.315-2.785,15.315-2.785s42.465-27.151,47.34-25.759
			c4.874,1.394,28.542,12.532,34.81,14.62c6.265,2.088,18.101,2.088,19.492-1.393s-31.328-18.796-31.328-18.796
			s10.443-8.354,15.317-7.657c4.872,0.694,40.378,7.656,39.681,4.872c-0.696-2.784-5.57-5.569-5.57-5.569l-26.454-9.052
			l-29.937-29.934l-13.227-16.709l-18.101,14.621l-5.568-0.697C537.506,481.647,511.05,492.088,511.746,493.481z"/>
		<path fill="#FFFFFF" d="M421.243,233.808c0,0-27.152-54.998-2.786-71.01c24.367-16.013,48.037-15.316,48.037-15.316l6.266,0.696
			c0,0,27.15-24.367,45.947-19.494c18.797,4.874,22.974,10.443,22.974,16.013c0,5.569-14.618,23.67-14.618,23.67
			s0.696-11.139-11.139-10.443c-11.836,0.697-26.456,9.746-38.986,20.886c-12.531,11.139-23.67,41.074-23.67,41.074
			s-13.228-24.367-17.405-20.19c-4.177,4.178-3.48,20.886-1.392,24.367c2.088,3.481,9.746,13.228,9.746,13.228L421.243,233.808z"/>
		<path fill="#FFE4B7" d="M441.434,240.073l4.873,58.479l11.138-4.873c0,0,57.086-33.416,68.922-37.594
			c11.835-4.177,38.291-19.493,34.112-34.112c-4.177-14.62-20.885-27.847-20.885-27.847l2.089-14.619l-25.062,7.658l-32.025-11.835
			c0,0-17.405,11.835-22.975,22.974c-5.569,11.138-11.835,15.315-11.835,15.315s-7.657-17.404-11.834-13.227
			c-4.177,4.177-4.873,14.62-4.873,14.62S440.041,235.895,441.434,240.073z"/>
		<path fill="#B6B5A9" d="M370.77,333.708c-0.518,0-1.02,0.007-1.502,0.019c1.784,0.061,3.347,0.168,4.635,0.329
			c4.376,0.547,13.524,8.828,24.649,20.758c-9.269-11.24-15.736-18.738-16.989-19.365
			C378.777,334.056,374.425,333.708,370.77,333.708 M288.448,296.893h-0.946l0.613,4.984l6.424,37.053
			C294.539,338.93,291.923,321.38,288.448,296.893"/>
		<path fill="#B2CAEA" d="M286.293,287.067l1.209,9.826h0.946c-0.434-3.061-0.88-6.22-1.338-9.477
			C286.793,287.281,286.52,287.164,286.293,287.067"/>
		<path fill="#79A4D8" d="M287.11,287.416c0.458,3.257,0.904,6.416,1.338,9.477c3.475,24.487,6.091,42.037,6.091,42.037l0,0
			c0,0,47.381-5.265,70.725-5.265c1.43,0,2.771,0.02,4.004,0.062c0.482-0.012,0.984-0.019,1.502-0.019
			c3.655,0,8.008,0.348,10.793,1.74c1.253,0.627,7.721,8.125,16.989,19.365c31.354,33.62,78.386,96.202,78.386,96.202
			s-58.48-114.87-68.922-127.402c-10.442-12.53-39.621-10.684-61.264-16.011C319.734,300.953,293.745,290.236,287.11,287.416"/>
		<path fill="#91B7E2" d="M285.487,286.718l2.628,15.16l-0.613-4.984l-1.209-9.826C285.764,286.839,285.487,286.718,285.487,286.718
			"/>
		<path fill="#D6CDB1" d="M236.598,338.63l-1.889,2.086c0.308,0.034,0.592,0.065,0.851,0.095c0.462-0.62,0.868-1.174,1.223-1.664
			L236.598,338.63 M191.457,316.361l-25.493,16.166c14.447-7.099,25.541-12.394,25.541-12.394L191.457,316.361 M189.415,206.657
			l0.897,19.861l-0.2-15.685l9.865,25.369L189.415,206.657"/>
		<path fill="#ADCDEE" d="M190.112,210.833l0.2,15.685l3.977,88.046l-2.832,1.796l0.048,3.772c0,0-11.094,5.295-25.541,12.394
			l-0.218,0.139c1.839,0.614,56.052,6.625,68.963,8.051l1.889-2.086l-36.62-102.428L190.112,210.833"/>
		<path fill="#ADCDEE" d="M236.782,339.147c-0.354,0.49-0.761,1.044-1.223,1.664c0.824,0.091,1.4,0.154,1.687,0.186
			c0.036-0.081,0.073-0.163,0.109-0.245L236.782,339.147"/>
		<path fill="#ADCDEE" d="M236.802,323.457c-0.094,0-0.111,0.051-0.046,0.157c3.688,5.959,2.867,12.032,0.6,17.138l0.096,0.268
			c0,0-0.069-0.008-0.205-0.022c-3.326,7.296-9.541,12.554-9.541,12.554l50.124-5.568
			C277.829,347.982,238.871,323.457,236.802,323.457"/>
		<path fill="#8BBBE5" d="M237.355,340.751c-0.036,0.082-0.073,0.164-0.109,0.245c0.136,0.015,0.205,0.022,0.205,0.022
			L237.355,340.751"/>
		<path fill="#D3E4F6" d="M192.872,386.958l-0.019,0.021l0.043-0.012C192.896,386.967,192.889,386.964,192.872,386.958"/>
		<path fill="#ADCDEE" d="M150.802,379.96c-1.045,0-2.099,0.015-3.157,0.045c-31.385,0.896-57.782,9.747-60.567,10.442l3.108,15.541
			l3.391,8.378l99.277-27.388l0.019-0.021C192.107,386.681,173.314,379.96,150.802,379.96"/>
		<polyline fill="#D3E4F6" points="90.186,405.989 91.951,414.815 93.576,414.367 90.186,405.989 		"/>
		<path fill="#D6CDB1" d="M142,466.822c-0.392,0.645-0.73,1.28-1.02,1.906C141.291,468.142,141.632,467.505,142,466.822
			 M259.402,398.07c-23.283,16.431-51.885,37.63-51.885,37.63l-54.302,56.39L259.402,398.07"/>
		<path fill="#ADCDEE" d="M286.88,373.74c0,0-45.252,9.746-85.629,38.987c-19.736,14.29-58.479,52.907-58.479,52.907
			c-0.277,0.398-0.535,0.795-0.772,1.188c-0.368,0.684-0.709,1.32-1.02,1.906c-0.951,2.055-1.373,4.002-1.399,5.831l13.635,17.53
			l0,0l54.302-56.39c0,0,28.602-21.199,51.885-37.63L286.88,373.74"/>
		<path fill="#D3E4F6" d="M139.581,474.559c-0.156,10.856,13.635,17.53,13.635,17.53L139.581,474.559"/>
		<path fill="#7B8193" d="M76.413,550.567c-1.553,1.798-3.897,3.611-7.436,4.875C73.195,554.839,75.458,553.031,76.413,550.567"/>
		<path fill="#3C5DA8" d="M18.156,490.697c1.353,17.607,29.717,64.858,49.205,64.858c0.545,0,1.086-0.037,1.616-0.113l0,0
			c3.538-1.264,5.883-3.077,7.436-4.875c3.461-8.926-10.222-26.452-10.222-26.452s-7.657,0-18.797-2.786
			C36.257,518.544,18.156,490.697,18.156,490.697"/>
		<path fill="#7B8193" d="M235.424,574.278c-2.881,2.748-8.561,6.251-15.616,9.593C227.341,580.461,233.07,576.726,235.424,574.278
			 M129.45,562.192c2.943,6.543,8.169,12.207,14.792,16.797C138.586,573.755,133.504,567.831,129.45,562.192"/>
		<path fill="#3C5DA8" d="M127.455,556.138c0.448,2.092,1.121,4.112,1.995,6.054c4.054,5.639,9.136,11.563,14.792,16.797
			c9.733,6.748,22.482,11.175,35.427,12.654c2.002,0.229,4.024,0.335,6.059,0.335c12.122,0,24.547-3.793,34.08-8.107
			c7.056-3.342,12.735-6.845,15.616-9.593c0.25-0.261,0.463-0.507,0.635-0.736c4.175-5.566-26.408-5.568-26.453-5.568l0,0
			c0,0-18.102,6.266-36.898,6.962c-0.33,0.013-0.662,0.019-0.997,0.019C152.988,574.954,127.455,556.138,127.455,556.138"/>
		<path d="M45.305,394.625c-5.115-1.705-9.496-2.9-14.194-3.677c-4.71-0.735-9.711-1.156-16.296-0.505
			c-1.485,0.171-3.573,0.402-6.238,1.055c-1.34,0.348-2.814,0.754-4.569,1.671c-0.216,0.109-0.442,0.241-0.674,0.387
			c-0.241,0.145-0.426,0.267-0.74,0.5c-0.608,0.446-1.106,0.927-1.581,1.486c-0.22,0.286-0.444,0.575-0.627,0.892l-0.27,0.479
			c-0.046,0.089-0.068,0.15-0.12,0.269c-0.083,0.206-0.181,0.408-0.239,0.624c-0.113,0.419-0.273,0.879-0.293,1.279l-0.11,1.022
			l-0.084,0.853c-0.021,0.276-0.015,0.519-0.023,0.781c-0.092,4.135,0.309,7.985,0.761,11.971c0.472,3.963,1.069,7.963,1.733,11.984
			c0.328,2.012,0.686,4.025,1.049,6.042l0.591,3.168l0.585,2.994l0.074,0.374c0.042,0.112,0.202,0.141,0.297,0.215l0.661,0.38
			l1.323,0.759c1.925,1.101,3.846,2.199,5.759,3.292l0.148,0.086l-0.001-0.001l-0.002-0.002L12.219,443l-0.01-0.006l0.002-0.018
			c-1.359,3.06-2.715,6.11-4.062,9.142l-0.278,0.627c-0.093,0.209-0.22,0.418-0.149,0.628l0.133,1.26l0.202,1.798
			c0.11,0.92,0.221,1.839,0.331,2.756c0.254,1.82,0.506,3.634,0.757,5.438c0.59,3.592,1.099,7.158,1.805,10.643
			c0.333,1.745,0.663,3.479,0.991,5.197c0.381,1.711,0.76,3.407,1.135,5.089c0.389,1.679,0.731,3.35,1.147,4.99
			c0.439,1.637,0.875,3.256,1.305,4.856c0.44,1.599,0.835,3.188,1.3,4.74c0.504,1.546,1.001,3.071,1.491,4.575
			c0.491,1.503,0.976,2.985,1.452,4.443c0.518,1.459,1.069,2.904,1.643,4.293c1.146,2.784,2.341,5.427,3.594,7.905
			c4.989,9.93,10.486,17.421,14.807,22.31c2.168,2.441,4.003,4.262,5.322,5.446c0.639,0.609,1.173,1.041,1.52,1.342
			c0.35,0.299,0.529,0.452,0.529,0.452s0.304,0.28,0.942,0.767c0.627,0.496,1.554,1.228,2.833,2.097
			c1.271,0.875,2.898,1.887,4.943,2.887c2.032,1.006,4.558,1.953,7.584,2.452c0.75,0.139,1.556,0.172,2.361,0.253
			c0.816,0.026,1.663,0.013,2.521-0.024c1.719-0.168,3.531-0.463,5.277-1.13c1.747-0.599,3.566-1.491,5.381-3.075
			c0.436-0.445,0.905-0.806,1.286-1.363c0.375-0.545,0.8-1.064,1.085-1.681c0.268-0.618,0.591-1.255,0.747-1.899
			c0.14-0.639,0.326-1.324,0.364-1.95c0.236-2.595-0.31-4.803-0.96-6.76c-0.668-1.97-1.485-3.8-2.385-5.533
			c-1.783-3.505-3.813-6.795-5.834-10.171c-4.055-6.71-8.175-13.658-11.116-21.097c-1.47-3.709-2.637-7.522-3.33-11.376
			c-0.18-0.962-0.281-1.93-0.43-2.894l-0.203-1.584l-0.162-1.51c-0.201-2.023-0.339-4.062-0.427-6.087
			c-0.171-4.051-0.119-8.066,0.229-11.93c0.35-3.855,0.991-7.584,2.101-10.879c0.129-0.419,0.28-0.818,0.436-1.212
			c0.147-0.4,0.302-0.793,0.478-1.163c0.17-0.376,0.327-0.761,0.522-1.106l0.275-0.531l0.068-0.134l0.228-0.383l0.416-0.61
			c0.558-0.809,1.096-1.634,1.663-2.419l0.844-1.181l0.421-0.588c0.067-0.098,0.147-0.197,0.204-0.293l-0.285-0.221
			c-0.773-0.603-1.545-1.201-2.312-1.798c-0.73-0.608-1.458-1.215-2.183-1.817c-0.415-0.389-0.829-0.774-1.24-1.159l-0.884-0.891
			c-0.587-0.589-1.134-1.212-1.687-1.812c-0.521-0.629-1.072-1.224-1.557-1.857c-0.246-0.314-0.49-0.627-0.732-0.938l-0.267-0.339
			l-0.145-0.194c-5.153-7.075-6.531-12.24-7.266-14.832c-0.175-0.684-0.345-1.35-0.511-1.998c-0.136-0.677-0.268-1.335-0.397-1.979
			c-0.304-1.285-0.433-2.518-0.683-3.703c-0.331-2.373-0.663-4.583-0.826-6.765c-0.172-2.18-0.293-4.341-0.237-6.615
			C44.422,399.616,44.572,397.208,45.305,394.625c-1.878,1.957-3.214,4.183-4.312,6.414c-1.079,2.251-1.845,4.577-2.378,7.026
			c-0.544,2.455-0.74,5.03-0.738,7.822c0.083,1.381,0.098,2.844,0.335,4.335c0.108,0.749,0.221,1.516,0.335,2.303
			c0.181,0.794,0.366,1.608,0.558,2.446c0.167,0.818,0.472,1.787,0.854,2.943c0.34,1.174,0.875,2.484,1.495,3.996
			c1.299,2.988,3.215,6.663,6.223,10.755l0.168,0.227l0.309,0.396c0.282,0.36,0.566,0.724,0.852,1.089
			c0.565,0.735,1.198,1.429,1.807,2.156c0.64,0.7,1.275,1.419,1.96,2.108c0.343,0.345,0.687,0.691,1.033,1.04l0.537,0.512
			l0.244,0.23l-0.02-0.018l-0.008-0.033l0.001-0.002l0.038-0.075l-0.097,0.186l-0.389,0.744c-0.271,0.495-0.484,1.002-0.712,1.508
			c-0.236,0.507-0.439,1.018-0.631,1.532c-0.201,0.514-0.395,1.03-0.557,1.55c-1.391,4.158-2.096,8.439-2.491,12.747
			c-0.387,4.311-0.438,8.658-0.253,13.015c0.095,2.179,0.242,4.359,0.461,6.55l0.177,1.648l0.202,1.57
			c0.169,1.133,0.296,2.277,0.506,3.4c0.812,4.503,2.152,8.841,3.783,12.952c3.268,8.237,7.665,15.578,11.726,22.302
			c2.018,3.361,3.999,6.59,5.555,9.654c0.802,1.533,1.444,3.02,1.913,4.394c0.483,1.374,0.683,2.63,0.589,3.403
			c-0.101,0.78-0.271,1.103-0.852,1.646c-0.578,0.502-1.548,1.083-2.623,1.423c-2.093,0.762-4.183,0.863-6.146,0.532
			c-1.959-0.324-3.77-0.964-5.312-1.737c-1.548-0.757-2.853-1.558-3.892-2.274c-1.044-0.707-1.825-1.323-2.354-1.74
			c-0.536-0.404-0.8-0.649-0.8-0.649s-0.153-0.133-0.453-0.389c-0.297-0.259-0.752-0.622-1.309-1.157
			c-1.143-1.025-2.76-2.634-4.707-4.828c-3.876-4.388-8.979-11.33-13.619-20.58c-1.165-2.305-2.272-4.761-3.329-7.334
			c-0.532-1.289-1.031-2.601-1.514-3.964c-0.452-1.39-0.912-2.801-1.378-4.233c-0.467-1.432-0.94-2.885-1.42-4.356
			c-0.444-1.486-0.822-3.021-1.245-4.558c-0.414-1.54-0.832-3.099-1.255-4.673c-0.4-1.582-0.731-3.205-1.106-4.829
			c-0.363-1.629-0.729-3.271-1.099-4.929c-0.317-1.67-0.638-3.354-0.96-5.051c-0.686-3.383-1.178-6.855-1.751-10.347
			c-0.243-1.75-0.487-3.51-0.733-5.277c-0.146-1.222-0.293-2.448-0.44-3.679c1.617-3.638,3.245-7.299,4.878-10.971
			c0.404-0.911,0.811-1.825,1.218-2.74l0.306-0.687l0.152-0.344l0.076-0.172l-0.153-0.097l-1.309-0.747
			c-1.695-0.969-3.396-1.94-5.101-2.915c-1.586-0.905-3.179-1.815-4.773-2.727l0.011,0.017l-0.523-2.815
			c-0.355-1.975-0.706-3.948-1.026-5.914c-0.649-3.929-1.231-7.825-1.683-11.609c-0.438-3.758-0.79-7.513-0.714-10.715
			c0.134-2.114,0.091-1.271,0.093-1.44l-0.021,0.018l0.136-0.088c0.064-0.042,0.137-0.087,0.229-0.132
			c0.689-0.375,1.728-0.716,2.7-0.959c1.984-0.498,3.852-0.733,5.148-0.892c5.869-0.645,10.707-0.983,15.282-1.614
			C35.6,396.328,39.994,395.513,45.305,394.625z"/>
		<path d="M42.521,401.414c0.354,0.996,1.142,1.755,2.054,2.331c0.923,0.598,1.959,0.882,3.003,1.123
			c2.095,0.394,4.118,0.22,6.068-0.05c3.861-0.647,7.389-1.935,10.744-3.556c1.666-0.807,3.218-1.688,4.864-2.611
			c1.627-0.927,3.315-1.905,4.931-2.987c3.277-2.15,6.764-4.587,10.475-7.431c2.522-1.919,6.626-5.042,15.154-11.532
			c2.759-2.026,5.99-4.398,9.532-7c3.553-2.577,7.49-5.219,11.539-8.055c2.042-1.378,4.171-2.669,6.29-4.034
			c1.062-0.676,2.13-1.354,3.199-2.034c1.069-0.679,2.132-1.384,3.237-1.963c2.189-1.22,4.377-2.438,6.539-3.644
			c1.091-0.594,2.132-1.225,3.244-1.779c1.125-0.544,2.24-1.084,3.344-1.618c8.838-4.252,16.843-8.271,22.851-10.769
			c5.951-2.619,9.658-4.25,9.658-4.25s3.144-1.27,8.296-3.35c0.644-0.26,1.319-0.533,2.023-0.817
			c0.189-0.076,0.381-0.152,0.574-0.23c0.366-0.139,0.737-0.279,1.111-0.421c0.748-0.284,1.511-0.573,2.287-0.868
			c0.776-0.294,1.566-0.594,2.369-0.898c0.402-0.153,0.807-0.307,1.215-0.461l0.615-0.233c0.182-0.094,0.507-0.094,0.402-0.379
			c-0.07-1.771-0.144-3.597-0.219-5.472c-0.167-4.221-0.353-8.883-0.549-13.813c-0.703-17.499-1.559-38.795-2.17-53.986
			c-0.602-14.344-0.974-23.221-1.168-27.858c-0.853-18.758-3.395-29.313-7.927-44.828c-3.267,15.83-4.946,26.557-4.282,45.322
			c0.181,4.637,0.526,13.516,1.085,27.861c0.618,15.191,1.484,36.487,2.197,53.985c0.157,3.819,0.307,7.431,0.442,10.7l0.01-0.007
			h0.003l0.001,0c-0.17,0.069-0.339,0.137-0.506,0.205c-0.719,0.292-1.408,0.572-2.066,0.839c-5.26,2.136-8.471,3.441-8.471,3.441
			s-3.794,1.659-9.885,4.324c-6.146,2.544-14.342,6.635-23.385,10.975c-1.129,0.545-2.271,1.096-3.422,1.651
			c-1.149,0.571-2.297,1.255-3.456,1.885c-2.316,1.288-4.658,2.59-7.003,3.895c-1.193,0.629-2.298,1.358-3.418,2.067
			s-2.237,1.418-3.35,2.124c-2.214,1.423-4.455,2.787-6.571,4.213c-4.171,2.916-8.253,5.659-11.884,8.298
			c-3.608,2.659-6.901,5.085-9.712,7.156c-4.3,3.277-7.484,5.705-9.912,7.556c-2.4,1.859-4.052,3.139-5.309,4.113
			c-3.712,2.903-6.915,5.5-9.82,8.052c-1.431,1.261-2.807,2.473-4.147,3.654c-1.319,1.173-2.595,2.416-3.825,3.548
			c-2.435,2.245-4.84,4.337-7.531,6.151c-1.347,0.849-2.778,1.703-4.36,2.161c-0.777,0.185-1.626,0.382-2.479,0.296
			C44.215,402.344,43.236,402.084,42.521,401.414z"/>
		<path d="M54.531,444.227c3.14-2.537,6.11-4.699,8.96-6.732c2.854-2.021,5.612-3.896,8.4-5.644
			c0.695-0.422,1.394-0.846,2.098-1.272c0.697-0.39,1.4-0.782,2.112-1.18c0.707-0.326,1.414-0.757,2.113-1.035
			c0.347-0.149,0.695-0.301,1.047-0.453c0.157-0.076,0.363-0.158,0.593-0.242l0.659-0.254c3.538-1.345,7.191-3.039,11.464-4.71
			c2.854-1.194,7.505-3.153,17.489-6.594c0.899-0.285,2.399-0.806,3.675-1.254c0.638-0.226,1.22-0.432,1.643-0.581
			c0.427-0.141,0.692-0.229,0.692-0.229s3.598-1.056,5.575-1.692c3.363-1.083,6.461-1.921,9.23-2.729
			c2.767-0.817,5.254-1.473,7.448-2.056c4.381-1.196,7.63-1.998,9.856-2.558c9.006-2.271,16-4.368,22.571-6.767
			c6.574-2.4,12.711-5.12,20.128-8.319c-8.06-0.65-14.854-0.868-21.935-0.463c-7.083,0.405-14.465,1.457-23.689,3.686
			c-2.279,0.548-5.602,1.349-10.093,2.561c-2.249,0.591-4.795,1.256-7.64,2.091c-2.846,0.825-6.02,1.681-9.491,2.795
			c-2.051,0.618-5.72,1.825-5.72,1.825s-0.276,0.082-0.721,0.215c-0.44,0.145-1.049,0.343-1.714,0.562
			c-1.33,0.438-2.891,0.96-3.809,1.293c-10.349,3.581-15.24,5.663-18.239,6.953c-4.456,1.798-8.275,3.897-11.776,5.834l-0.651,0.367
			c-0.209,0.114-0.431,0.245-0.683,0.412c-0.479,0.314-0.953,0.626-1.424,0.936c-0.946,0.618-1.712,1.308-2.536,1.955
			c-0.774,0.672-1.485,1.362-2.2,2.038c-0.67,0.7-1.321,1.398-1.954,2.098c-2.468,2.833-4.489,5.78-6.347,8.927
			C57.82,437.162,56.119,440.506,54.531,444.227z"/>
		<path d="M118.231,483.911c-5.105,1.728-9.333,3.323-13.588,5.376c-4.251,2.068-8.539,4.553-13.673,8.387
			c-1.02,0.77-2.405,1.825-4.067,3.203c-0.831,0.693-1.729,1.465-2.7,2.393c-0.246,0.245-0.496,0.495-0.749,0.748
			c-0.388,0.418-0.836,0.893-1.199,1.384c-0.764,0.982-1.37,2.078-1.519,3.318c-0.038,0.312-0.056,0.621,0.001,0.924l0.088,0.642
			c0.011,0.367,0.218,0.751,0.354,1.124l0.483,1.12l0.243,0.562l0.165,0.357c0.195,0.423,0.391,0.79,0.587,1.177
			c0.784,1.552,1.596,3.058,2.427,4.597c1.66,3.069,3.406,6.187,5.201,9.369c1.807,3.171,3.653,6.409,5.522,9.688
			c0.944,1.637,1.895,3.284,2.849,4.938c0.957,1.647,1.917,3.299,2.878,4.952l0.722,1.239l0.359,0.617
			c0.019,0.091,0.093-0.015,0.141-0.024l0.161-0.093l0.324-0.187l2.604-1.497c0.969-0.571,1.931-1.046,2.902-1.517l0.872-0.399
			l0.66-0.285c0.878-0.369,1.747-0.695,2.572-0.953c1.633-0.527,3.172-0.747,3.911-0.655c0.101,0.003,0.175,0.017,0.23,0.031
			l0.133,0.032l-0.001-0.009l-0.009-0.009c0.079,0.17,0.257,0.491,0.362,0.756c0.114,0.262,0.191,0.439,0.229,0.523
			c0.632,1.535,1.268,3.276,1.921,4.981c0.659,1.72,1.342,3.44,2.06,5.145c1.442,3.408,3.05,6.737,4.857,9.913
			c3.601,6.351,8.104,12.083,13.375,16.582c5.236,4.538,11.221,7.726,17.086,9.628c5.834,1.994,11.705,2.561,16.577,2.858
			c9.978,0.638,18.086,0.052,23.654-0.541c2.785-0.319,4.942-0.642,6.405-0.865c1.459-0.252,2.226-0.385,2.226-0.385
			s0.637-0.096,2.197-0.413c1.562-0.302,4.05-0.817,7.728-1.795c3.669-1.039,8.547-2.406,14.718-5.448
			c1.542-0.766,3.159-1.684,4.848-2.843c1.675-1.201,3.478-2.509,5.172-4.999c0.209-0.305,0.415-0.624,0.6-1.038
			c0.198-0.429,0.449-0.956,0.578-1.436c0.129-0.488,0.236-0.989,0.32-1.491c0.027-0.507,0.029-1.023,0.009-1.537
			c-0.242-2.049-1.316-4.037-3.026-5.428c-1.651-1.297-3.115-1.765-4.534-2.19c-1.419-0.402-2.728-0.596-4.047-0.775
			c-3.322-0.44-7.571-0.586-12.562-0.972c-4.979-0.389-10.708-1.03-16.731-2.598c-6.001-1.573-12.34-4.047-18.126-7.956
			c-0.729-0.476-1.462-0.953-2.198-1.433c-0.688-0.542-1.38-1.086-2.073-1.633c-0.679-0.562-1.43-1.05-2.06-1.677
			c-0.647-0.605-1.298-1.213-1.95-1.821c-0.322-0.308-0.661-0.601-0.974-0.92l-0.899-0.994l-1.811-1.988l-1.653-2.129l-0.828-1.064
			l-0.745-1.126c-2.069-2.948-3.723-6.179-5.112-9.464c-0.35-0.822-0.689-1.646-0.966-2.489c-0.299-0.836-0.6-1.668-0.832-2.516
			l-0.378-1.261l-0.315-1.265c-0.106-0.421-0.214-0.84-0.292-1.258l-0.129-0.63c-0.079-0.479-0.196-0.958-0.243-1.435
			c-0.117-0.955-0.233-1.908-0.35-2.859c-0.212-0.854,0.2-2.34-1.147-1.942c-0.962-0.023-1.946-0.026-2.88-0.08
			c-0.47-0.026-0.947-0.031-1.41-0.075l-1.158-0.126c-1.019-0.131-1.105-0.168-1.48-0.221c-0.331-0.045-0.656-0.125-0.98-0.185
			c-1.299-0.247-2.537-0.582-3.708-0.934c-2.34-0.717-4.354-1.631-6.003-2.502c-1.633-0.902-2.903-1.768-3.776-2.448
			c-0.519-0.435-1.07-0.808-1.541-1.242c-0.469-0.437-0.933-0.854-1.394-1.259c-0.89-0.935-1.747-1.85-2.604-2.696
			c-0.896-0.819-1.598-1.745-2.372-2.584c-0.761-0.852-1.559-1.65-2.228-2.53C123.637,491.963,120.883,488.586,118.231,483.911
			c0.146,5.401,1.217,10.049,3.192,14.562c0.441,1.166,1.064,2.251,1.699,3.38c0.649,1.117,1.273,2.311,2.148,3.39
			c0.838,1.111,1.711,2.258,2.694,3.436c0.564,0.57,1.143,1.153,1.735,1.753c0.602,0.592,1.295,1.107,1.975,1.677
			c1.133,0.897,2.772,2.033,4.852,3.188c2.09,1.122,4.619,2.266,7.49,3.15c1.437,0.436,2.948,0.843,4.532,1.148
			c0.396,0.074,0.791,0.167,1.198,0.226c0.463,0.066,0.56,0.108,1.821,0.272l0.188,0.023l0.025,0.003l-0.006-0.001l-0.006-0.001
			l-0.011-0.001l-0.006-0.017l-0.009-0.039l0.154,0.748c0.096,0.505,0.22,0.997,0.344,1.49l0.373,1.485l0.436,1.465
			c0.274,0.986,0.617,1.949,0.963,2.914c0.323,0.975,0.712,1.926,1.114,2.873c1.6,3.791,3.514,7.509,5.9,10.923l0.865,1.298
			l0.953,1.235l1.917,2.458l2.089,2.303l1.046,1.146c0.36,0.369,0.747,0.71,1.12,1.065c0.753,0.702,1.504,1.402,2.253,2.101
			c0.734,0.717,1.584,1.287,2.367,1.933c0.8,0.626,1.597,1.249,2.39,1.87c0.841,0.55,1.677,1.099,2.509,1.644
			c6.612,4.448,13.836,7.262,20.537,9.01c6.727,1.745,12.966,2.422,18.163,2.825c5.199,0.391,9.412,0.546,12.149,0.916
			c1.07,0.144,2.1,0.307,2.896,0.542c0.22,0.049,0.4,0.111,0.563,0.175c0.166,0.062,0.365,0.113,0.469,0.182
			c0.275,0.105,0.479,0.271,0.509,0.267l-0.003-0.006l0.001-0.003l0.005-0.04c-0.004,0.055-0.074,0.151-0.151,0.253
			c-0.523,0.818-1.74,1.894-2.971,2.726c-1.251,0.858-2.567,1.619-3.876,2.266c-5.257,2.602-9.812,3.917-13.169,4.86
			c-3.396,0.903-5.716,1.387-7.173,1.668c-1.454,0.299-2.051,0.388-2.051,0.388s-0.718,0.124-2.082,0.359
			c-1.37,0.207-3.392,0.508-6.008,0.806c-5.229,0.553-12.867,1.101-22.247,0.494c-1.174-0.054-2.368-0.187-3.593-0.279
			c-1.233-0.094-2.373-0.294-3.603-0.436c-1.205-0.192-2.42-0.45-3.656-0.706c-1.206-0.354-2.477-0.594-3.691-1.056
			c-4.939-1.609-9.887-4.241-14.307-8.072c-4.444-3.796-8.357-8.728-11.585-14.426c-1.62-2.848-3.084-5.875-4.427-9.049
			c-0.669-1.59-1.313-3.214-1.95-4.877c-0.644-1.676-1.252-3.361-2.014-5.216c-0.05-0.115-0.156-0.36-0.312-0.72
			c-0.155-0.359-0.374-0.838-0.809-1.609c-0.54-0.931-1.372-1.915-2.565-2.675c-0.59-0.381-1.276-0.702-2.013-0.928
			c-0.356-0.113-0.688-0.2-1.019-0.256c-0.341-0.07-0.674-0.118-0.994-0.143c-2.621-0.226-4.928,0.311-7.172,0.992
			c-1.119,0.351-2.214,0.764-3.291,1.217l-0.805,0.348l-0.4,0.179l-0.189,0.087l0.002-0.001l0.011-0.005l0.026,0.017
			c-0.945-1.639-1.887-3.271-2.823-4.895c-1.858-3.259-3.694-6.479-5.491-9.631c-1.78-3.155-3.514-6.249-5.136-9.243
			c-0.809-1.494-1.605-2.975-2.322-4.394c-0.181-0.354-0.374-0.718-0.522-1.044l-0.096-0.201l0.001,0.002l0.001,0.005l0.003,0.009
			l-0.009,0.009l0.01-0.01c0.178-0.179,0.353-0.354,0.525-0.527c0.738-0.711,1.521-1.393,2.26-2.013
			c1.485-1.241,2.797-2.255,3.753-2.992c4.858-3.706,8.671-6.761,12.099-9.925C111.439,491.078,114.532,487.827,118.231,483.911z"/>
		<path d="M119.797,487.565c3.883-1.2,7.262-3.043,10.421-4.947c1.549-0.992,3.024-2.042,4.515-3.104
			c1.412-1.12,2.798-2.281,4.191-3.487c1.381-1.213,2.635-2.558,3.97-3.925c1.345-1.354,2.602-2.862,3.88-4.462
			c2.493-3.175,4.919-6.673,7.449-10.661c1.355-2.159,3.39-5.401,5.911-9.421c1.251-2.002,2.623-4.197,4.092-6.549
			c1.426-2.265,2.876-4.567,4.349-6.905c1.646-2.6,3.325-5.231,5.051-7.874c3.429-5.311,7.047-10.674,10.816-16.097
			c1.927-2.669,3.815-5.43,5.848-8.09c1.006-1.342,2.017-2.689,3.032-4.044c1.044-1.322,2.094-2.65,3.148-3.985
			c1.038-1.354,2.145-2.638,3.244-3.939c1.114-1.283,2.173-2.653,3.344-3.882c1.149-1.256,2.304-2.517,3.463-3.782
			c1.233-1.286,2.472-2.578,3.714-3.874c9.98-10.378,20.242-21.051,30.654-31.878c1.848-1.922,3.699-3.848,5.554-5.776l1.969-2.048
			c0.059-0.09,0.217-0.16,0.193-0.267l-0.13-0.33l-0.26-0.662l-0.519-1.323l-2.01-5.126c-1.357-3.513-2.718-7.035-4.082-10.564
			c-1.356-3.536-2.716-7.079-4.077-10.626c-1.327-3.56-2.655-7.125-3.984-10.69c-2.628-7.142-5.361-14.255-7.898-21.413
			c-2.542-7.156-5.077-14.294-7.599-21.392c-2.517-7.05-5.022-14.3-7.569-21.272c-2.531-7.003-5.018-13.911-7.371-20.75
			c-4.704-13.671-8.9-27.075-12.017-40.071c-3.103-12.974-5.187-25.597-5.241-37.216c-0.026-5.796,0.493-11.322,1.725-16.29
			c1.194-4.986,3.196-9.328,5.823-12.776c1.308-1.734,2.783-3.241,4.403-4.51c1.622-1.263,3.308-2.394,5.138-3.242
			c3.601-1.788,7.505-2.769,11.272-3.358c3.725-0.543,7.121-0.575,10.22-0.187c3.1,0.352,5.827,1.241,8.225,2.189
			c4.798,1.95,8.153,4.535,10.349,6.356c1.081,0.948,1.914,1.666,2.436,2.208c0.535,0.521,0.812,0.789,0.812,0.789
			s0.283,0.258,0.79,0.817c0.512,0.554,1.293,1.351,2.235,2.489c1.906,2.243,4.594,5.72,7.45,10.642
			c1.426,2.457,2.889,5.274,4.287,8.427c0.695,1.57,1.385,3.243,1.994,4.928c0.103,0.292,0.074,0.211,0.079,0.223l-0.002-0.013
			l-0.001-0.012l0.027,0.371l0.057,0.774c0.075,1.037,0.151,2.091,0.229,3.164c0.608,8.584,1.446,18.258,2.285,28.902
			c0.899,10.634,2.027,22.2,3.147,34.522c0.519,6.163,1.279,12.503,1.989,19.009c0.722,6.506,1.46,13.175,2.215,19.983
			c0.39,3.406,0.732,6.839,1.17,10.318c0.438,3.482,0.902,6.989,1.394,10.518c0.979,7.06,2.052,14.209,3.168,21.428
			c2.207,14.433,4.693,29.161,6.474,43.934c0.869,7.374,1.562,14.785,1.573,21.968c-0.004,3.576-0.198,7.104-0.769,10.317
			c-0.249,1.637-0.693,3.089-1.146,4.465c-0.547,1.333-1.022,2.281-1.924,3.515c-1.844,2.468-4.404,5.06-7.024,7.524
			c-2.646,2.479-5.445,4.903-8.309,7.274c-5.722,4.751-11.654,9.34-17.6,13.854c-11.903,9.024-23.886,17.735-35.425,26.494
			c-5.769,4.391-11.44,8.767-16.922,13.31c-2.741,2.255-5.446,4.596-8.062,6.974c-1.3,1.19-2.576,2.388-3.831,3.588
			c-1.067,1.041-2.13,2.077-3.186,3.107c-8.993,8.954-15.732,16.771-19.086,20.694c-6.161,7.264-10.396,13.448-13.862,19.689
			c-1.728,3.124-3.26,6.266-4.677,9.606c-0.705,1.672-1.385,3.391-2.014,5.197c-0.312,0.904-0.614,1.829-0.88,2.787
			c-0.131,0.48-0.257,0.966-0.351,1.47c-0.066,0.493-0.229,1.041-0.021,1.537c0.04-0.49,0.408-0.861,0.679-1.243
			c0.296-0.375,0.618-0.731,0.938-1.08c0.646-0.695,1.309-1.356,1.969-2.002c1.322-1.288,2.638-2.509,3.927-3.71
			c2.584-2.397,5.077-4.71,7.565-7.136c4.986-4.845,9.94-10.16,15.995-17.155c3.287-3.77,9.878-11.368,18.482-19.919
			c1.005-0.98,2.016-1.966,3.032-2.957c1.191-1.139,2.396-2.27,3.619-3.389c2.446-2.222,4.967-4.404,7.61-6.579
			c5.255-4.355,10.826-8.655,16.517-12.985c11.403-8.656,23.38-17.363,35.422-26.493c6.021-4.572,12.062-9.242,18.028-14.196
			c2.985-2.475,5.945-5.032,8.858-7.763c2.91-2.764,5.784-5.574,8.523-9.217c1.381-1.833,2.695-4.278,3.536-6.503
			c0.772-2.234,1.389-4.463,1.727-6.6c0.755-4.305,0.946-8.425,0.957-12.46c-0.019-8.059-0.768-15.807-1.663-23.435
			c-1.842-15.237-4.343-29.981-6.543-44.361c-1.112-7.186-2.178-14.27-3.146-21.238c-0.486-3.484-0.945-6.94-1.377-10.364
			c-0.432-3.426-0.775-6.856-1.162-10.232c-0.751-6.761-1.487-13.384-2.205-19.845c-0.708-6.463-1.466-12.752-1.983-18.892
			c-1.119-12.263-2.247-23.773-3.146-34.358c-0.837-10.586-1.678-20.247-2.284-28.751c-0.077-1.063-0.154-2.109-0.229-3.137
			c-0.049-0.651-0.098-1.296-0.146-1.935l-0.061-0.77c-0.065-0.244-0.154-0.481-0.23-0.721c-0.139-0.401-0.275-0.8-0.413-1.198
			c-0.749-2.07-1.529-3.951-2.327-5.755c-1.597-3.593-3.255-6.785-4.891-9.601c-3.269-5.632-6.429-9.737-8.718-12.427
			c-1.129-1.357-2.081-2.336-2.704-3.006c-0.618-0.674-0.968-0.999-0.968-0.999s-0.34-0.331-1-0.975
			c-0.642-0.658-1.678-1.569-3.038-2.754c-2.77-2.292-7.07-5.652-13.597-8.327c-3.249-1.3-7.027-2.5-11.273-3
			c-4.224-0.543-8.885-0.485-13.634,0.219c-4.673,0.731-9.753,1.966-14.824,4.464c-5.045,2.461-10.082,6.24-13.88,11.304
			c-3.838,5.02-6.49,11.04-7.989,17.271c-1.544,6.247-2.113,12.731-2.09,19.27c0.07,13.099,2.341,26.484,5.566,40.043
			c3.249,13.564,7.561,27.315,12.334,41.206c2.388,6.944,4.898,13.924,7.428,20.926c2.561,7.017,4.961,13.97,7.522,21.153
			c2.535,7.143,5.085,14.326,7.642,21.527c2.552,7.203,5.296,14.348,7.937,21.529c1.336,3.584,2.671,7.168,4.005,10.747
			c1.368,3.567,2.734,7.129,4.099,10.685c1.373,3.557,2.744,7.105,4.11,10.645l0.065,0.166l0.001,0.003l-0.001-0.003l-0.002-0.006
			l-0.005-0.011l0.006-0.021l0.009-0.01c-0.029,0.031,0.147-0.153-0.323,0.338l-1.955,2.032
			c-10.417,10.833-20.685,21.511-30.669,31.894c-1.249,1.303-2.494,2.602-3.733,3.895c-1.256,1.37-2.506,2.734-3.751,4.094
			c-1.273,1.344-2.381,2.771-3.571,4.146c-1.17,1.384-2.347,2.756-3.433,4.169c-1.106,1.4-2.207,2.796-3.304,4.184
			c-1.057,1.409-2.107,2.812-3.153,4.206c-2.119,2.777-4.056,5.607-6.047,8.367c-3.873,5.574-7.575,11.065-11.056,16.461
			c-1.757,2.691-3.457,5.357-5.122,7.988c-1.484,2.36-2.947,4.686-4.387,6.973c-1.47,2.364-2.842,4.572-4.093,6.585
			c-2.486,4.009-4.491,7.242-5.827,9.396c-2.458,3.964-4.562,7.509-6.441,10.752c-0.94,1.589-1.817,3.144-2.758,4.616
			c-0.924,1.478-1.741,3.004-2.632,4.432c-0.9,1.418-1.765,2.855-2.629,4.314c-0.919,1.42-1.839,2.842-2.773,4.286
			C124.675,481.704,122.641,484.706,119.797,487.565z"/>
		<path d="M135.982,472.424c-2.141,3.525-3.182,5.576-2.229,6.867c1.032,1.397,6.673,8.008,6.673,8.008s5.485,6.74,6.674,8.008
			c1.098,1.17,3.302,0.516,7.156-0.955c2.142-3.526,3.183-5.576,2.23-6.868c-1.031-1.398-6.673-8.008-6.673-8.008
			s-5.484-6.74-6.674-8.008C142.042,470.299,139.838,470.954,135.982,472.424z"/>
		<path d="M82.202,381.573c-3.362,2.589-5.126,4.213-4.719,6.17c0.441,2.12,3.241,12.584,3.241,12.584s2.604,10.514,3.241,12.583
			c0.589,1.91,2.918,2.48,7.112,3.122c3.363-2.589,5.127-4.213,4.721-6.17c-0.439-2.12-3.241-12.584-3.241-12.584
			s-2.603-10.515-3.241-12.583C88.726,382.785,86.398,382.215,82.202,381.573z"/>
		<path d="M292.101,338.235c7.233,2.146,12.227,3.271,21.059,3.295c1.196-0.008,2.988,0.029,5.222-0.051
			c1.115-0.03,2.339-0.063,3.649-0.099c0.576-0.016,1.157-0.032,1.742-0.048c0.741-0.02,1.494-0.087,2.249-0.129
			c1.512-0.096,3.046-0.193,4.602-0.292c1.551-0.068,3.156-0.344,4.763-0.511c1.609-0.196,3.256-0.366,4.847-0.668
			c6.431-1.081,13.01-2.477,19.736-3.467c3.354-0.476,6.751-0.851,10.078-0.867c3.283-0.002,6.669,0.328,9.023,1.694l0.443,0.245
			c0.157,0.074,0.299,0.16,0.397,0.275c0.238,0.232,0.431,0.358,0.728,0.655c0.598,0.622,1.196,1.195,1.8,1.855
			c1.208,1.303,2.415,2.63,3.611,3.997c2.401,2.712,4.781,5.491,7.155,8.276c4.743,5.58,9.449,11.221,14.088,16.811
			c18.529,22.389,35.997,43.97,48.882,59.9c12.86,15.953,21.158,26.246,21.158,26.246s8.271,10.315,21.09,26.302
			c3.187,3.989,6.655,8.333,10.35,12.957c1.748,2.281,3.451,4.725,5.022,7.3c1.572,2.571,3.02,5.297,4.103,8.122
			c1.054,2.788,1.768,5.83,1.276,8.226c-0.245,1.187-0.754,2.14-1.591,2.931c-0.768,0.785-2.206,1.546-3.648,2.221
			c-2.959,1.346-6.274,2.444-9.632,3.466c-3.37,1.018-6.829,1.948-10.325,2.848c-7,1.793-14.154,3.448-21.312,5.186
			c-3.58,0.871-7.161,1.759-10.734,2.732c-1.787,0.488-3.572,0.999-5.359,1.56c-0.894,0.281-1.787,0.575-2.686,0.896l-0.697,0.253
			l-1.156,0.454c-0.755,0.318-1.654,0.69-2.369,1.091c-1.536,0.786-2.689,1.731-3.241,2.677c-0.314,0.472-0.459,0.953-0.573,1.485
			c-0.033,0.269-0.064,0.562-0.038,0.874c0.014,0.314,0.147,0.631,0.174,0.937c0.477,1.146,1.017,1.876,2.156,2.469
			c1.083,0.592,2.691,0.941,4.442,1.046c0.825,0.085,1.822,0.069,2.579,0.092l1.403-0.025c0.929-0.024,1.839-0.078,2.745-0.137
			c1.809-0.122,3.583-0.294,5.336-0.489c3.503-0.394,6.92-0.881,10.265-1.399c1.668-0.271,3.32-0.541,4.957-0.808
			c1.517-0.264,3.018-0.525,4.502-0.784c5.73-1.029,10.405-1.963,12.738-2.439c8.612-1.78,13.29-3.797,20.031-7.184
			c-7.54-0.167-12.58-0.09-21.147,1.592c-2.32,0.45-6.964,1.365-12.633,2.379c-1.467,0.255-2.95,0.514-4.448,0.773
			c-1.612,0.263-3.241,0.527-4.885,0.795c-3.286,0.51-6.635,0.985-10.018,1.366c-1.691,0.188-3.391,0.353-5.085,0.466
			c-0.847,0.055-1.694,0.105-2.53,0.127l-1.25,0.023c-0.118,0.001-0.027,0-0.051,0.001l0.011,0.035l0.024-0.009l0.688-0.249
			c0.809-0.29,1.641-0.564,2.482-0.829c1.684-0.529,3.406-1.022,5.146-1.498c3.479-0.948,7.021-1.827,10.577-2.692
			c7.115-1.729,14.292-3.39,21.382-5.208c3.546-0.912,7.07-1.86,10.562-2.915c3.492-1.069,6.941-2.193,10.371-3.751
			c1.706-0.828,3.459-1.632,5.188-3.264c1.7-1.57,2.854-3.801,3.265-5.952c0.435-2.165,0.296-4.219-0.032-6.101
			c-0.337-1.889-0.88-3.638-1.505-5.3c-1.273-3.312-2.873-6.289-4.57-9.071c-1.701-2.782-3.505-5.366-5.37-7.799
			c-3.722-4.656-7.216-9.029-10.427-13.046c-12.83-15.987-21.107-26.303-21.107-26.303s-8.297-10.301-21.156-26.266
			c-12.887-15.945-30.352-37.538-48.91-59.971c-4.647-5.603-9.364-11.258-14.133-16.869c-2.389-2.805-4.783-5.6-7.228-8.361
			c-1.211-1.384-2.457-2.757-3.723-4.121c-0.624-0.683-1.333-1.371-1.995-2.054c-0.343-0.347-0.87-0.776-1.307-1.146
			c-0.225-0.207-0.466-0.36-0.714-0.492l-0.737-0.422c-0.98-0.623-2.002-0.917-3.015-1.307c-0.507-0.183-1.007-0.26-1.511-0.392
			c-0.5-0.104-1.012-0.266-1.502-0.315c-1.983-0.302-3.928-0.432-5.812-0.412c-3.779,0.021-7.385,0.431-10.889,0.926
			c-6.988,1.032-13.592,2.437-19.871,3.49c-1.576,0.299-3.102,0.449-4.615,0.635c-1.522,0.156-2.988,0.418-4.503,0.484
			c-1.503,0.096-2.986,0.19-4.447,0.283c-0.732,0.041-1.453,0.107-2.178,0.126c-0.573,0.016-1.142,0.032-1.705,0.048
			c-1.281,0.037-2.479,0.071-3.569,0.104c-2.18,0.085-3.951,0.058-5.127,0.077C304.441,335.891,299.492,336.741,292.101,338.235z"/>
		<path d="M466.494,552.309c-1.287,1.386-2.348,2.834-2.88,4.744c-0.264,0.911-0.238,2.299,0.427,3.396
			c0.155,0.285,0.335,0.554,0.584,0.769c0.235,0.217,0.475,0.482,0.748,0.639c0.542,0.325,1.169,0.648,1.672,0.755l0.819,0.222
			c0.295,0.038,0.599,0.064,0.904,0.085c0.546,0.019,1.022,0.01,1.508-0.015c0.939-0.055,1.855-0.165,2.794-0.308
			c1.867-0.291,3.807-0.734,5.952-1.316c1.451-0.398,3.805-1.057,8.632-2.535c1.089-0.317,3.639-1.154,3.639-1.154
			s2.149-0.65,3.33-1.04c6.398-2.064,10.334-3.396,12.39-4.096c8.309-2.842,12.698-5.401,19.003-9.543
			c-7.51,0.704-12.515,1.391-20.816,4.137c-2.053,0.672-5.982,1.958-12.332,4.035c-1.174,0.382-3.291,1.069-3.291,1.069
			s-2.54,0.782-3.612,1.112c-4.769,1.468-7.065,2.12-8.473,2.521c-2.076,0.586-3.914,1.146-5.583,1.653
			c-1.62,0.472-3.318,1.047-4.062,1.065c-0.314,0.031-0.436,0.033-0.627,0.028c-0.156-0.021-0.338-0.029-0.47-0.139
			c-0.332-0.164-0.595-0.481-0.726-1.183C465.788,555.864,465.994,554.103,466.494,552.309z"/>
		<path d="M487.379,558.575c-0.703,1.734-0.868,3.733-0.076,5.605c0.804,1.884,2.591,3.262,4.442,3.961
			c0.462,0.155,0.937,0.305,1.423,0.447c0.48,0.123,0.95,0.169,1.443,0.248c1,0.187,1.948,0.135,2.977,0.144
			c1.022-0.009,2.011-0.185,3.092-0.31c1.063-0.184,2.16-0.501,3.324-0.8c0.633-0.165,1.338-0.464,2.211-0.767
			c0.863-0.312,1.864-0.66,2.895-1.133c1.039-0.464,2.22-0.925,3.406-1.509c0.729-0.353,1.465-0.708,2.206-1.065
			c0.969-0.454,1.911-0.951,2.864-1.447c1.92-0.978,3.827-2.018,5.757-3.077c3.851-2.126,7.753-4.374,11.714-6.684
			c3.968-2.304,7.998-4.683,12.119-6.97c1.029-0.584,2.065-1.144,3.106-1.688l1.564-0.829l1.567-0.761
			c1.056-0.545,2.08-0.947,3.106-1.37l0.384-0.157l0.338-0.09l0.673-0.191c0.483-0.164,0.808-0.193,1.266-0.207
			c1.797-0.06,4.079,0.515,6.276,1.235c2.225,0.75,4.475,1.672,6.726,2.686c4.511,2.021,9.019,4.355,13.697,6.619
			c2.35,1.128,4.721,2.256,7.31,3.238c2.687,1.018,5.392,1.617,8.177,2.006c2.812,0.324,5.652,0.536,8.908-0.301
			c0.82-0.235,1.682-0.553,2.575-1.125c0.864-0.54,1.871-1.519,2.367-2.745c0.516-1.213,0.509-2.628,0.273-3.628
			c-0.107-0.531-0.273-0.98-0.445-1.422l-0.279-0.62c-0.109-0.221-0.273-0.48-0.417-0.713l-0.229-0.354l-0.234-0.284l-0.481-0.558
			c-0.316-0.307-0.642-0.618-0.962-0.884c-0.637-0.519-1.266-0.953-1.889-1.353c-1.244-0.787-2.461-1.415-3.675-2.033
			c-2.422-1.208-4.812-2.282-7.172-3.371c-4.719-2.164-9.321-4.375-13.715-6.866c-4.379-2.5-8.571-5.23-12.394-8.325
			c-1.916-1.539-3.759-3.147-5.479-4.854c-0.88-0.834-1.699-1.723-2.52-2.602c-0.761-0.93-1.519-1.856-2.274-2.781
			c-1.55-1.779-2.938-3.837-4.36-5.793c-0.709-0.984-1.415-1.965-2.118-2.942c-0.691-0.99-1.354-2.006-2.027-3.002
			c-1.341-1.998-2.671-3.981-3.989-5.945c-1.285-1.995-2.558-3.971-3.817-5.928c-10.039-15.686-18.866-30.387-26.344-42.875
			c-7.44-12.517-13.499-22.852-17.699-30.057c-4.192-7.209-6.555-11.271-6.555-11.271s-3.489-6.053-9.568-16.597
			c-3.024-5.281-6.693-11.688-10.894-19.022c-2.095-3.673-4.321-7.578-6.666-11.69c-1.176-2.06-2.382-4.17-3.615-6.33
			c-1.199-2.173-2.34-4.422-3.551-6.703c-9.726-18.163-20.491-39.79-32.07-62.72c-5.736-11.499-11.65-23.35-17.639-35.353
			c-1.49-3.004-2.985-6.017-4.483-9.037l-1.026-2.067l0.008,0.015l-0.004,0.016c5.386,1.077,10.783,2.157,16.169,3.234
			c3.513,0.703,7.035,1.407,10.56,2.112l4.617,0.923c-0.001,0.192-0.08-0.807,0.152,1.78c0.649,7.146,1.296,14.258,1.933,21.261
			c0.618,6.791,1.217,13.369,1.77,19.436c0.367,3.953,0.673,7.239,0.844,9.083c0.837,8.723,2.269,13.583,4.745,20.708
			c1.15-7.455,1.683-12.493,0.934-21.224c-0.164-1.845-0.456-5.132-0.808-9.086c-0.551-6.067-1.147-12.646-1.764-19.437
			c-0.637-7.003-1.283-14.115-1.933-21.261l-0.324-3.57l-0.123-1.346l-0.061-0.673c-0.056-0.193,0.065-0.544-0.248-0.505
			l-2.652-0.531l-5.955-1.191c-3.524-0.705-7.048-1.409-10.561-2.111c-7.88-1.576-15.777-3.155-23.658-4.73l-2.496-0.499
			l-1.247-0.25l-0.156-0.031l-0.027,0.067l0.142,0.285l0.283,0.57l2.261,4.556c1.162,2.341,2.323,4.681,3.483,7.018
			c1.499,3.021,2.995,6.036,4.487,9.041c5.992,12.007,11.91,23.863,17.651,35.366c11.6,22.959,22.339,44.535,32.206,62.949
			c1.222,2.299,2.382,4.582,3.584,6.757c1.23,2.154,2.434,4.259,3.606,6.312c2.347,4.113,4.575,8.019,6.67,11.691
			c4.206,7.34,7.88,13.749,10.908,19.034c6.088,10.552,9.582,16.61,9.582,16.61s2.363,4.067,6.559,11.287
			c4.204,7.215,10.269,17.566,17.72,30.108c7.493,12.521,16.331,27.249,26.436,43.046c1.27,1.972,2.552,3.963,3.846,5.974
			c1.335,1.991,2.683,4,4.041,6.025c0.685,1.012,1.351,2.034,2.057,3.047c0.724,1.005,1.449,2.015,2.178,3.027
			c1.473,2.022,2.855,4.083,4.577,6.076c0.825,1.005,1.652,2.012,2.482,3.022c0.89,0.954,1.78,1.917,2.729,2.819
			c1.862,1.848,3.847,3.58,5.901,5.232c4.103,3.32,8.558,6.219,13.156,8.845c4.605,2.612,9.389,4.907,14.145,7.089
			c2.374,1.095,4.744,2.163,6.994,3.287c1.113,0.565,2.218,1.142,3.181,1.753c0.476,0.307,0.919,0.617,1.297,0.923
			c0.181,0.151,0.324,0.298,0.481,0.438l0.155,0.188l0.083,0.088l0.028,0.062l0.086,0.127l0.122,0.272
			c0.062,0.166,0.126,0.331,0.142,0.441c0.048,0.269,0.017,0.215,0.034,0.215c-0.002-0.013,0.042-0.024-0.185,0.137
			c-0.204,0.134-0.571,0.294-1.003,0.415c-1.811,0.494-4.285,0.437-6.609,0.135c-2.358-0.328-4.753-0.863-6.903-1.688
			c-2.251-0.851-4.549-1.935-6.832-3.033c-4.577-2.214-9.138-4.578-13.847-6.689c-2.354-1.06-4.757-2.051-7.266-2.896
			c-2.537-0.8-5.122-1.579-8.275-1.524c-0.771,0.015-1.681,0.13-2.364,0.351l-1.099,0.307l-0.546,0.159l-0.467,0.188
			c-1.238,0.501-2.478,1.003-3.581,1.571l-1.7,0.827l-1.633,0.865c-1.092,0.57-2.165,1.15-3.211,1.744
			c-4.223,2.344-8.262,4.729-12.22,7.028c-3.956,2.307-7.816,4.531-11.6,6.62c-1.892,1.04-3.76,2.06-5.615,3.004
			c-0.926,0.482-1.843,0.966-2.764,1.397c-0.708,0.343-1.411,0.683-2.108,1.02c-1.14,0.563-2.218,0.982-3.193,1.423
			c-0.977,0.452-1.86,0.758-2.631,1.042c-0.768,0.271-1.431,0.56-1.946,0.694c-0.957,0.246-1.842,0.553-2.712,0.769
			c-0.875,0.157-1.729,0.412-2.516,0.523c-0.78,0.098-1.569,0.296-2.263,0.305c-0.353,0.02-0.725,0.08-1.061,0.082
			c-0.326-0.014-0.655-0.02-0.992-0.02c-1.275-0.097-2.429-0.361-3.445-1.227C488.329,561.991,487.564,560.445,487.379,558.575z"/>
		<path d="M269.127,136.692c-1.701,4.172-2.349,6.757-0.646,8.963c0.926,1.198,3.824,4.674,6.783,7.77
			c0.728,0.778,1.524,1.525,2.219,2.221c0.354,0.347,0.691,0.679,1.011,0.992c0.36,0.313,0.699,0.608,1.01,0.878
			c1.261,1.071,2.073,1.762,2.073,1.762s3,2.264,6.299,4.755c3.333,2.424,7,4.984,8.268,5.777c2.333,1.457,4.817,0.601,8.84-1.441
			c0.232-4.5,0.191-7.096-1.962-8.658c-1.171-0.832-4.686-3.329-7.908-5.618c-3.161-2.336-6.034-4.46-6.034-4.46
			s-0.574-0.507-1.464-1.293c-0.225-0.197-0.469-0.411-0.729-0.639c-0.265-0.267-0.546-0.55-0.839-0.846
			c-0.585-0.601-1.227-1.202-1.871-1.9c-2.599-2.752-5.34-6.031-6.28-7.088C276.152,135.906,273.6,136.087,269.127,136.692z"/>
		<path d="M284.269,217.622c3.858-6.48,6.282-10.893,9.089-19.147c0.385-1.115,0.964-2.789,1.681-4.865
			c0.365-1.034,0.767-2.168,1.196-3.383c0.582-1.595,1.184-3.243,1.802-4.938c0.658-1.762,1.347-3.566,2.072-5.399
			c1.454-3.659,3.039-7.462,4.885-11.167c0.926-1.832,1.926-3.688,3.033-5.229c0.275-0.37,0.556-0.734,0.822-1.015
			c0.129-0.146,0.274-0.287,0.358-0.355l0.016-0.019l0.004,0.01l0.021,0.012l0.23,0.074c0.19,0.059,0.373,0.099,0.608,0.221
			l1.339,0.606l1.383,0.744c0.926,0.47,1.854,1.091,2.784,1.634c0.929,0.575,1.852,1.196,2.779,1.792l2.76,1.888
			c3.664,2.569,7.271,5.284,10.798,8.021c7.062,5.479,13.774,11.087,19.873,16.394c6.182,5.295,11.858,10.158,16.679,14.289
			c9.643,8.259,15.864,13.588,15.864,13.588s0.025,0.021,0.174,0.148l-0.003-0.002l-0.007-0.005l-0.001,0
			c-0.201,0.144-0.417,0.298-0.646,0.461c-0.442,0.328-0.913,0.677-1.412,1.047c-0.488,0.383-1.81,1.347-3.838,3.126
			c-1.999,1.812-4.852,4.286-7.685,8.59c-0.679,1.105-1.37,2.311-1.905,3.754c-0.331,0.722-0.443,1.384-0.646,2.093
			c-0.184,0.704-0.373,1.425-0.565,2.163c-0.357,1.472-0.528,2.977-0.814,4.567c-0.236,1.583-0.358,3.216-0.553,4.926
			c-0.128,1.702-0.243,3.467-0.335,5.298c-0.03,0.914-0.062,1.845-0.093,2.793c-0.02,0.474-0.03,0.952-0.031,1.434l-0.004,0.362
			l-0.001,0.099v0l0.007-0.011l0.007,0.003l0.003,0.002l0.002,0.001c-0.001,0,0.034,0.021-0.128-0.075
			c-0.916-0.537-1.847-1.083-2.792-1.638c-16.501-9.672-49.353-28.927-59.206-34.703
			C296.29,221.417,291.504,219.754,284.269,217.622c5.394,5.273,9.182,8.638,16.718,13.109c9.852,5.78,42.695,25.049,59.191,34.729
			c2.78,1.63,5.477,3.21,8.089,4.742c0.891,0.522,1.773,1.04,2.648,1.553l0.655,0.384l0.164,0.096l0.08,0.047l0.008-0.08
			l-0.008-0.384c-0.012-0.514-0.021-1.025-0.032-1.534c-0.042-2.049-0.1-4.082-0.079-6.003c0.002-0.813,0.004-1.619,0.006-2.418
			c0.001-0.465,0.012-0.925,0.03-1.381c0.03-0.913,0.06-1.809,0.089-2.689c0.087-1.754,0.197-3.443,0.316-5.061
			c0.184-1.599,0.298-3.161,0.516-4.613c0.262-1.428,0.42-2.856,0.729-4.114c0.163-0.623,0.322-1.23,0.479-1.824
			c0.162-0.58,0.274-1.221,0.499-1.657c0.347-0.958,0.866-1.87,1.387-2.72c2.223-3.406,4.814-5.741,6.621-7.36
			c1.844-1.62,3.072-2.52,3.521-2.874c0.462-0.343,0.897-0.666,1.308-0.97c0.211-0.15,0.415-0.296,0.613-0.438
			c0.409-0.282,0.805-0.556,1.188-0.82c1.567-1.039,3.003-1.921,4.246-2.688c0.154-0.096,0.306-0.189,0.454-0.281l0.22-0.136
			l0.106-0.066l-0.087-0.077c-0.246-0.21-0.481-0.413-0.708-0.606c-0.453-0.388-0.868-0.744-1.248-1.07
			c-0.76-0.651-1.382-1.184-1.889-1.619c-1.871-1.604-2.062-1.768-2.062-1.768s-6.206-5.323-15.826-13.574
			c-4.81-4.125-10.474-8.981-16.641-14.271c-6.169-5.373-12.962-11.053-20.122-16.612c-3.582-2.782-7.249-5.545-11.027-8.196
			l-2.863-1.96c-0.98-0.631-1.939-1.276-2.935-1.892c-1.021-0.599-1.974-1.236-3.054-1.793l-1.589-0.851l-1.724-0.78
			c-0.265-0.135-0.621-0.244-0.964-0.354l-0.565-0.176c-0.257-0.076-0.518-0.143-0.779-0.202l-0.391-0.081l-0.098-0.018
			l-0.103,0.015l-0.205-0.012l-0.408-0.021l-0.405,0.057c-0.539,0.084-1.06,0.274-1.544,0.533c-0.478,0.238-0.965,0.603-1.336,0.922
			c-0.337,0.292-0.584,0.541-0.825,0.806c-0.489,0.525-0.88,1.037-1.26,1.549c-1.455,2.037-2.505,4.036-3.518,6.025
			c-1.978,3.976-3.598,7.876-5.088,11.628c-0.742,1.875-1.444,3.714-2.112,5.507c-0.627,1.721-1.236,3.394-1.826,5.013
			c-0.433,1.231-0.836,2.381-1.204,3.429c-0.714,2.102-1.289,3.797-1.673,4.927C285.203,205.016,284.641,210.086,284.269,217.622z"
			/>
		<path d="M348.543,197.155c2.164-1.496,4.32-2.173,6.498-2.062c2.163,0.109,4.238,0.779,6.253,2.017
			c3.479,2.133,5.917,5.059,7.321,8.879c1.473,3.991,1.35,8.505-0.502,13.666c-1.967,5.483-4.964,9.105-8.978,10.599
			c-4.144,1.539-8.393,0.862-12.603-2.038c-2.584-1.781-4.475-4.1-5.672-6.913c-1.162-2.74-1.54-5.657-1.164-8.719
			c-2.912,2.267-6.017,3.491-9.266,3.609c-3.293,0.12-6.419-0.834-9.316-2.848c-4.712-3.27-7.255-7.434-7.68-12.327
			c-0.398-4.634,1.271-8.996,4.806-13.059c3.09-3.548,6.541-5.708,10.393-6.615c4.405-1.035,8.604-0.283,12.762,2.256
			c2.315,1.416,4.142,3.223,5.479,5.453C348.249,191.339,348.814,194.02,348.543,197.155z M337.19,191.281
			c-2.364-1.491-4.587-2.109-6.713-1.865c-2.153,0.246-3.885,1.195-5.205,2.879c-1.325,1.691-1.79,3.56-1.356,5.606
			c0.439,2.094,1.954,4.02,4.557,5.75c2.29,1.524,4.578,2.099,6.822,1.713c2.21-0.381,3.911-1.548,5.086-3.467
			c1.323-2.155,1.523-4.198,0.648-6.149C340.173,193.837,338.895,192.356,337.19,191.281z M356.811,204.734
			c-1.856-1.174-3.551-1.588-5.104-1.242c-1.572,0.349-2.824,1.379-3.761,3.118c-0.974,1.807-1.226,3.645-0.728,5.504
			c0.508,1.898,1.759,3.52,3.761,4.846c1.894,1.256,3.699,1.653,5.384,1.197c1.668-0.454,2.907-1.652,3.718-3.559
			c0.824-1.929,0.907-3.784,0.284-5.572C359.756,207.27,358.569,205.845,356.811,204.734z"/>
		<path d="M422.636,233.808c-1.33-3.811-2.286-7.342-3.151-10.729c-0.856-3.388-1.603-6.634-2.302-9.918
			c-0.694-3.284-1.349-6.609-1.902-10.153c-0.548-3.541-1.009-7.313-1.022-11.417c0.019-0.69-0.037-1.505,0.054-2.445
			c0.029-0.473,0.062-0.984,0.096-1.541c0.053-0.551,0.147-1.137,0.226-1.777c0.383-2.535,1.08-5.829,3.084-9.745
			c0.117-0.232,0.362-0.595,0.535-0.925c0.176-0.329,0.321-0.601,0.321-0.601s0.234-0.363,0.492-0.762
			c0.178-0.238,0.362-0.488,0.52-0.699c0.384-0.509,0.729-1.035,1.12-1.522c0.414-0.472,0.824-0.938,1.228-1.397
			c0.369-0.46,0.862-0.925,1.321-1.381c0.464-0.453,0.906-0.914,1.365-1.343c1.86-1.689,3.646-3.22,5.395-4.466
			c3.455-2.548,6.518-4.233,8.574-5.313c3.822-1.961,7.371-3.496,10.736-4.849c3.367-1.348,6.552-2.519,9.722-3.613
			c3.17-1.093,6.322-2.125,9.662-3.113c3.344-0.96,6.863-1.935,10.838-2.615c-3.849-1.269-7.562-2.03-11.193-2.548
			c-3.638-0.491-7.221-0.687-10.91-0.544c-3.688,0.144-7.485,0.642-11.526,1.631c-4.037,0.995-8.325,2.486-12.88,4.767
			c-2.452,1.254-6.112,3.243-10.287,6.301c-2.105,1.5-4.278,3.337-6.528,5.385c-0.557,0.519-1.097,1.073-1.658,1.622
			c-0.559,0.555-1.124,1.09-1.696,1.769c-0.569,0.65-1.146,1.309-1.729,1.976c-0.558,0.692-1.072,1.439-1.615,2.174
			c-0.134,0.185-0.279,0.386-0.43,0.594l-0.295,0.424c-0.337,0.599-0.645,1.144-0.645,1.144s-0.992,1.481-1.3,2.167
			c-2.913,5.681-3.85,10.333-4.359,13.769c-0.106,0.866-0.222,1.666-0.288,2.403c-0.044,0.736-0.084,1.413-0.12,2.039
			c-0.099,1.256-0.036,2.284-0.046,3.183c0.081,5.291,0.997,9.835,2.211,13.85c1.225,4.019,2.777,7.525,4.551,10.758
			c1.778,3.23,3.787,6.187,6.058,9.055C417.132,228.259,419.666,231.057,422.636,233.808z"/>
		<path d="M445.088,172.197c6.933-4.135,12.797-7.334,18.695-10.974c5.919-3.602,11.873-7.646,19.408-12.683
			c1.278-0.85,2.962-1.957,5.444-3.474c2.483-1.504,5.767-3.454,10.311-5.629c0.975-0.456,2.611-1.191,4.007-1.791
			c0.699-0.285,1.338-0.544,1.802-0.733c0.465-0.177,0.754-0.287,0.754-0.287s0.979-0.347,2.226-0.738
			c1.248-0.383,2.763-0.799,3.832-1.045c3.059-0.721,5.768-0.97,8.075-0.907c2.304,0.087,4.19,0.5,5.733,1.062
			c1.545,0.562,2.75,1.289,3.731,2.018c0.485,0.312,0.983,0.812,1.417,1.162c0.22,0.187,0.429,0.364,0.627,0.533
			c0.172,0.178,0.335,0.346,0.489,0.505c1.322,1.263,2.225,2.513,2.869,3.676c0.64,1.17,1.042,2.263,1.207,3.426
			c0.314,2.307-0.173,5.03-1.315,7.795c-0.538,1.388-1.23,2.78-2.008,4.175c-0.768,1.402-1.641,2.803-2.6,4.213
			c-1.921,2.822-4.141,5.72-6.91,8.651c3.836-1.297,7.273-2.927,10.458-4.882c1.593-0.98,3.119-2.057,4.569-3.285
			c1.455-1.219,2.85-2.573,4.121-4.165c1.271-1.583,2.469-3.369,3.373-5.516c0.908-2.127,1.563-4.599,1.634-7.327
			c0.075-2.726-0.554-5.628-1.749-8.265c-1.189-2.649-2.916-5.065-4.951-7.081c-0.251-0.257-0.515-0.528-0.794-0.814
			c-0.29-0.256-0.595-0.525-0.915-0.808c-0.669-0.559-1.285-1.175-2.215-1.828c-1.751-1.315-4.001-2.672-6.775-3.695
			c-2.767-1.027-6.031-1.707-9.575-1.835c-3.539-0.11-7.344,0.285-11.274,1.207c-1.392,0.3-3.28,0.842-4.799,1.34
			c-1.515,0.503-2.667,0.949-2.667,0.949s-0.349,0.123-0.907,0.321c-0.551,0.211-1.309,0.502-2.139,0.821
			c-1.639,0.67-3.531,1.504-4.616,2.056c-5.155,2.479-8.727,4.619-11.428,6.266c-2.692,1.66-4.493,2.861-5.854,3.786
			c-8.021,5.48-13.583,10.635-18.363,15.962C453.27,159.714,449.285,165.278,445.088,172.197z"/>
		<path d="M526.54,158.621c0.019-0.253,0.027-0.509,0.027-0.767c-0.039-0.235-0.093-0.469-0.152-0.708
			c-0.165-0.431-0.356-0.86-0.7-1.238c-0.332-0.42-0.666-0.698-1.046-1.029c-0.361-0.29-0.732-0.548-1.121-0.799
			c-1.522-0.942-3.049-1.505-4.59-1.877c-3.101-0.733-6.249-0.61-9.903,0.41c-1.979,0.557-5.856,1.81-10.332,3.77
			c-4.494,1.93-9.576,4.603-14.238,7.498c-4.662,2.927-8.862,5.992-11.867,8.594c-1.499,1.337-2.781,2.385-3.582,3.211
			c-0.802,0.824-1.254,1.288-1.254,1.288s-0.396,0.405-1.103,1.127c-0.735,0.697-1.663,1.815-2.804,3.178
			c-2.32,2.689-5.12,6.662-7.596,11.16c-2.491,4.494-4.574,9.537-5.967,14.127c-0.727,2.286-1.234,4.478-1.65,6.412
			c-0.194,0.979-0.365,1.879-0.494,2.731c-0.062,0.43-0.121,0.837-0.176,1.221c-0.049,0.418-0.093,0.73-0.135,1.229
			c5.275-3.209,6.373-3.876,8.462-5.147l0.189,0.083l0.093,0.044l0.046,0.023l0.006,0.003c1.667-3.292-2.264,4.489-1.857,3.684
			l0.008-0.017l0.016-0.034c0.083-0.181,0.171-0.357,0.264-0.529c0.092-0.171,0.188-0.338,0.286-0.5
			c0.102-0.166,0.216-0.334,0.24-0.389c0.191-0.334,0.396-0.636,0.609-0.908c0.293-0.426,0.542-0.724,0.795-0.991l0.049-0.067
			l-0.004-0.007l-0.012-0.008l-0.038-0.042l-0.159-0.198c-0.358-0.449-0.858-1.289-1.339-2.188
			c-0.512-0.889-1.018-1.901-1.608-2.948c-1.146-2.13-2.532-4.494-4.117-7.63c-2.28,2.634-3.969,5.159-4.831,8.19
			c-0.404,1.526-0.642,3.168-0.448,5.073c0.191,1.885,0.688,4.053,2.312,6.478c0.227,0.339,0.494,0.727,1.034,1.341
			c0.242,0.3,0.63,0.675,1.084,1.104c0.259,0.223,0.548,0.46,0.889,0.718c0.198,0.133,0.404,0.272,0.62,0.417
			c0.103,0.067,0.282,0.168,0.427,0.249l0.234,0.126c0.115,0.061,0.333,0.163,0.501,0.233l7.378,3.104l1.085-8.251
			c0.026-0.2,0.055-0.416,0.085-0.646c0.044-0.283,0.091-0.583,0.14-0.9c0.103-0.641,0.248-1.378,0.406-2.161
			c0.352-1.575,0.77-3.393,1.385-5.306c1.167-3.84,2.912-8.081,4.976-11.823c2.053-3.748,4.343-7.041,6.246-9.252
			c0.934-1.124,1.684-2.056,2.29-2.623c0.578-0.595,0.901-0.928,0.901-0.928s0.371-0.38,1.031-1.055
			c0.655-0.679,1.726-1.519,2.952-2.617c2.525-2.184,6.36-4.961,10.495-7.541c4.162-2.57,8.709-4.955,12.665-6.661
			c3.949-1.739,7.263-2.828,8.895-3.337c3.021-0.932,5.23-1.969,7.274-3.197c1.026-0.614,2.027-1.293,3.082-1.914
			c0.512-0.294,1.081-0.612,1.65-0.808C525.123,158.181,526.026,158.225,526.54,158.621z"/>
		<path d="M447.174,200.914c-0.701-1.827-1.685-3.255-3.037-4.277c-1.359-0.986-3.178-1.675-5.727-1.281
			c-0.344,0.069-0.773,0.162-1.273,0.283c-0.5,0.134-1.069,0.373-1.69,0.619c-0.601,0.295-1.26,0.665-1.905,1.109
			c-0.594,0.492-1.31,0.993-1.826,1.638c-0.274,0.317-0.555,0.641-0.841,0.971l-0.026,0.031l-0.007,0.008l-0.229,0.338l-0.008,0.012
			l-0.028,0.048l-0.059,0.097l-0.116,0.195l-0.117,0.196c-0.04,0.068-0.068,0.106-0.151,0.28c-0.138,0.285-0.27,0.579-0.392,0.878
			l-0.178,0.452l-0.083,0.229l-0.047,0.165c-0.115,0.427-0.233,0.866-0.334,1.299c-0.332,1.661-0.41,3.197-0.441,4.681
			c-0.008,2.931,0.317,5.584,0.631,7.534c0.151,0.975,0.311,1.768,0.426,2.319c0.114,0.551,0.179,0.862,0.179,0.862
			s0.071,0.309,0.198,0.858c0.118,0.55,0.318,1.336,0.582,2.287c0.532,1.902,1.357,4.462,2.585,7.093
			c1.213,2.626,2.858,5.35,4.976,7.449c0.266,0.259,0.525,0.513,0.779,0.76c0.289,0.231,0.571,0.457,0.844,0.675
			c0.521,0.444,1.132,0.793,1.67,1.111c0.517,0.335,1.091,0.545,1.564,0.743c0.474,0.202,0.892,0.346,1.255,0.415
			c2.611,0.676,4.887,0.011,6.254-1.163c1.451-1.127,2.2-2.777,2.667-4.627c-1.959-0.274-3.334-0.667-4.375-1.101
			c-1.062-0.369-1.638-0.748-2.382-0.963c-0.402-0.135-1.3-0.456-2.464-1.64c-0.583-0.552-1.174-1.358-1.766-2.214
			c-0.562-0.909-1.127-1.885-1.602-2.926c-0.972-2.061-1.688-4.217-2.146-5.823c-0.229-0.806-0.404-1.474-0.508-1.945
			c-0.111-0.468-0.175-0.732-0.175-0.732s-0.053-0.266-0.147-0.738c-0.096-0.472-0.228-1.151-0.352-1.981
			c-0.258-1.651-0.513-3.925-0.497-6.176c0.024-1.103,0.102-2.22,0.278-3.087c0.048-0.187,0.096-0.372,0.144-0.556l0.015-0.063
			l0.003,0.008l-0.006,0.015l-0.052,0.01l0.061-0.127l0.117-0.197l0.024-0.052l-0.096-0.124l-0.189-0.248l-0.189-0.247l-0.094-0.123
			l-0.023-0.031c-0.507-0.729,0.675,0.975,0.556,0.799l0.003-0.003l0.011-0.011c0.114-0.115,0.22-0.231,0.318-0.35
			c0.787-0.907,1.584-1.076,2.091-1.2c0.887-0.194,1.834-0.464,2.979-0.915C443.958,202.036,445.298,201.41,447.174,200.914z"/>
		<path d="M535.938,190.994c2.836,2.491,5.03,4.673,7.32,6.865c2.28,2.2,4.62,4.48,7.296,7.524c0.851,1.052,2.456,2.712,4.438,6.752
			c0.253,0.453,0.436,0.953,0.612,1.475c0.189,0.518,0.385,1.055,0.586,1.609c0.131,0.571,0.266,1.159,0.404,1.763
			c0.062,0.303,0.163,0.604,0.198,0.919c0.03,0.316,0.062,0.635,0.094,0.958c0.038,0.647,0.196,1.301,0.152,1.981
			c-0.017,0.678-0.034,1.37-0.052,2.071c-0.028,0.702-0.201,1.411-0.291,2.132c-0.054,0.36-0.107,0.723-0.161,1.087
			c-0.102,0.359-0.204,0.721-0.306,1.083c-0.213,0.724-0.39,1.465-0.628,2.195c-0.278,0.715-0.521,1.455-0.861,2.147
			c-0.609,1.422-1.394,2.761-2.263,4.039c-1.747,2.555-4.02,4.744-6.458,6.61c-4.937,3.695-10.342,6.207-14.221,8.062
			c-3.918,1.823-6.411,2.923-6.411,2.923s-2.083,0.932-5.496,2.458c-3.415,1.542-8.182,3.698-13.441,6.346
			c-2.633,1.316-5.385,2.761-8.153,4.295c-2.789,1.526-5.481,3.156-8.211,4.721c-5.422,3.15-10.677,6.204-15.054,8.746
			c-5.796,3.379-9.384,5.471-11.258,6.563c-3.794,2.2-6.607,4.208-9.144,6.315c-2.54,2.099-4.807,4.292-7.456,6.962
			c3.611-1.123,6.601-2.113,9.625-3.384c3.02-1.278,6.075-2.832,9.885-4.989c1.871-1.083,5.454-3.158,11.243-6.51
			c4.363-2.534,9.604-5.578,15.009-8.718c2.701-1.55,5.448-3.213,8.139-4.687c2.694-1.495,5.376-2.907,7.948-4.196
			c5.137-2.593,9.827-4.722,13.216-6.257c3.402-1.527,5.479-2.459,5.479-2.459c0,0,2.49-1.094,6.502-2.953
			c3.98-1.912,9.609-4.463,15.268-8.673c2.796-2.131,5.553-4.76,7.712-7.91c1.072-1.569,2.036-3.229,2.782-4.956
			c0.411-0.85,0.71-1.731,1.042-2.596c0.291-0.879,0.515-1.775,0.767-2.652c0.121-0.44,0.241-0.878,0.361-1.314
			c0.07-0.452,0.141-0.9,0.21-1.347c0.119-0.896,0.312-1.77,0.354-2.653c0.022-0.886,0.045-1.758,0.066-2.615
			c0.039-0.857-0.131-1.697-0.189-2.519c-0.044-0.411-0.088-0.817-0.131-1.218c-0.048-0.4-0.165-0.784-0.244-1.169
			c-0.181-0.766-0.355-1.512-0.525-2.236c-0.251-0.696-0.493-1.37-0.728-2.021c-0.229-0.655-0.465-1.277-0.769-1.834
			c-0.613-1.242-1.129-2.337-1.723-3.194c-0.57-0.872-1.005-1.668-1.498-2.254c-0.942-1.208-1.556-2.077-2.117-2.639
			c-1.555-1.771-3.118-3.152-4.634-4.322c-0.773-0.563-1.523-1.093-2.267-1.583c-0.767-0.454-1.52-0.879-2.268-1.283
			C542.657,192.91,539.605,191.864,535.938,190.994z"/>
		<path d="M480.591,173.241c1.269,2.304,2.2,3.628,4.345,4.344c2.322,0.775,14.037,4.387,14.037,4.387s2.93,0.917,6.151,1.925
			c3.307,0.877,6.913,1.834,8.114,2.152c2.156,0.543,3.634-0.077,5.99-1.321c-1.291-2.239-2.289-3.534-4.498-4.183
			c-0.596-0.165-1.786-0.496-3.237-0.898c-1.405-0.37-3.062-0.807-4.647-1.225c-3.225-0.989-6.155-1.889-6.155-1.889
			s-11.712-3.71-14.067-4.396C484.448,171.505,482.931,172.064,480.591,173.241z"/>
		<path d="M486.857,213.445c-0.507,1.516-0.676,2.884-0.549,4.225c0.137,1.343,0.617,2.68,1.665,4.109
			c0.558,0.772,1.766,2.301,3.626,3.812c0.451,0.39,0.982,0.731,1.5,1.113c0.531,0.366,1.123,0.678,1.701,1.023
			c0.598,0.313,1.229,0.58,1.852,0.868c0.63,0.242,1.263,0.462,1.894,0.671c2.545,0.774,5.054,1.01,6.869,1.041
			c1.819,0.012,2.97-0.112,2.97-0.112s1.162-0.073,2.912-0.368c1.751-0.288,4.074-0.843,6.407-1.637
			c4.699-1.541,9.332-4.113,10.828-5.024c2.763-1.686,3.805-3.566,4.795-6.587c-3.165,0.098-5.073,0.174-7.662,1.658
			c-1.394,0.798-5.664,3.157-9.804,4.519c-2.059,0.707-4.055,1.188-5.527,1.438c-1.473,0.255-2.42,0.32-2.42,0.32
			s-0.951,0.094-2.402,0.08c-1.447-0.032-3.388-0.229-5.289-0.813c-1.929-0.575-3.657-1.539-5-2.642
			c-1.342-1.082-2.26-2.216-2.697-2.792c-0.823-1.056-1.582-1.833-2.479-2.554C489.156,215.061,488.094,214.425,486.857,213.445z"/>
		<path d="M475.37,198.825c1.897-0.555,3.022-0.954,4.063-2.34c0.562-0.745,2.256-3.016,3.988-4.831
			c0.861-0.909,1.725-1.694,2.372-2.198c0.648-0.513,1.066-0.748,1.066-0.748s0.436-0.291,1.024-0.505
			c0.284-0.095,0.61-0.183,0.82-0.156c0.249,0.035,0.229-0.009,0.829,0.344c1.896,1.045,3.373,3.167,3.786,3.898
			c0.805,1.347,1.784,1.834,3.457,2.881c0.818-1.806,1.016-3.217,0.043-4.963c-0.266-0.472-0.842-1.405-1.731-2.434
			c-0.881-1.03-2.114-2.136-3.497-2.926c-0.367-0.195-0.606-0.381-1.203-0.593c-0.258-0.109-0.52-0.17-0.782-0.212
			c-0.263-0.051-0.521-0.089-0.76-0.083c-0.999-0.039-1.757,0.204-2.354,0.406c-0.591,0.219-1.009,0.445-1.305,0.6
			c-0.278,0.164-0.435,0.257-0.435,0.257s-0.639,0.363-1.467,1.012c-0.837,0.644-1.859,1.573-2.833,2.594
			c-1.954,2.037-3.735,4.439-4.31,5.255C475.094,195.588,475.077,196.866,475.37,198.825z"/>
		<path d="M491.446,196.499c-0.839,2.136-0.385,4.307,1.007,4.852c1.393,0.544,3.195-0.744,4.032-2.881
			c0.837-2.134,0.384-4.306-1.006-4.851C494.086,193.073,492.283,194.364,491.446,196.499z"/>
		<path d="M508.787,188.905c3.09,0.934,5.129,1.311,8.187,0.353c1.658-0.516,6.604-2.175,11.122-3.787
			c2.26-0.836,4.411-1.624,6.003-2.252c1.593-0.654,2.62-1.077,2.62-1.077s0.257-0.104,0.714-0.29
			c0.197-0.081,0.438-0.18,0.716-0.293l0.237-0.114c0.132-0.063,0.287-0.137,0.456-0.218l-0.017-0.002l0.004-0.022l-0.173,0.349
			c-0.118,0.217-0.234,0.433-0.349,0.645c-0.25,0.438-0.502,0.863-0.76,1.262c-1.026,1.603-2.044,2.807-2.552,3.392
			c-0.943,1.085-1.572,2.021-2.098,3.077c-0.533,1.052-0.946,2.23-1.661,3.677c1.61,0.143,3.017,0,4.317-0.444
			c1.3-0.451,2.509-1.221,3.695-2.513c0.643-0.699,1.877-2.139,3.131-4.087c0.314-0.486,0.627-1.008,0.938-1.555
			c0.154-0.287,0.311-0.578,0.468-0.872l0.281-0.579c0.098-0.205,0.181-0.352,0.302-0.657c0.952-2.142,1.544-4.507,1.059-6.047
			c-0.103-0.4-0.247-0.766-0.464-1.097c-0.204-0.337-0.474-0.672-0.827-0.94c-0.703-0.578-1.352-0.727-2-0.81
			c-0.162-0.023-0.344-0.002-0.512-0.006c-0.18,0.026-0.316-0.053-0.532,0.074c-0.397,0.172-0.786,0.34-1.163,0.502
			c-0.754,0.325-1.461,0.63-2.111,0.911c-0.648,0.28-1.24,0.536-1.763,0.761c-0.342,0.142-0.638,0.266-0.881,0.367
			c-0.432,0.177-0.675,0.277-0.675,0.277s-0.976,0.396-2.487,1.008c-1.529,0.596-3.646,1.361-5.852,2.172
			c-4.448,1.574-9.345,3.217-10.972,3.772C512.186,184.875,510.781,186.365,508.787,188.905z"/>
		<path d="M461.271,291.242c1.402,7.414,2.624,12.342,6.321,20.296c0.506,1.074,1.265,2.688,2.206,4.687
			c2.068,4.322,4.537,9.481,7.249,15.149c8.231,17.028,18.147,37.022,28.111,55.926c9.949,18.915,20.021,36.681,28.554,49.318
			c1.08,1.584,2.069,3.082,3.086,4.529c1.023,1.371,1.993,2.668,2.901,3.884c1.834,2.413,3.424,4.506,4.729,6.223
			c2.636,3.414,4.121,5.338,4.121,5.338s1.498,1.914,4.155,5.311c2.672,3.388,6.528,8.239,11.323,14.06
			c4.801,5.814,10.524,12.609,17.073,19.776c3.279,3.58,6.758,7.258,10.508,10.896c3.773,3.624,7.737,7.259,12.468,10.447
			l1.878,1.133c0.624,0.378,1.369,0.687,2.053,1.025c0.361,0.18,0.686,0.312,0.998,0.431l0.957,0.38l1.926,0.735
			c2.578,0.961,5.204,1.826,7.85,2.606c2.645,0.777,5.32,1.452,7.949,2.067c1.311,0.309,2.612,0.604,3.839,0.919
			c0.613,0.157,1.204,0.321,1.736,0.497c0.536,0.172,1.02,0.367,1.315,0.539c0.15,0.085,0.237,0.157,0.293,0.195l-0.006,0.003
			l0.003,0.014l0.009,0.119l0.003,0.019c3.305-0.257,0.938-0.033,1.685-0.073l0.074,0.131l0.036,0.066l-0.001-0.026l0.016-0.061
			c-0.03-0.037-0.507-0.337-0.938-1.149c-0.056-0.098-0.078-0.18-0.149-0.297l-0.014,0.004l-0.044,0.019
			c-0.048,0.017-0.107,0.039-0.2,0.061c-0.339,0.092-0.862,0.165-1.402,0.202c-2.23,0.142-4.771-0.053-7.213-0.288
			c-2.463-0.245-4.914-0.565-7.326-0.905c-2.345-0.349-4.646-0.692-6.897-1.027c-5.712-0.89-10.457-1.589-12.908-1.83
			c-1.13-0.116-2.211-0.197-3.314-0.205c-0.273-0.003-0.561,0.003-0.838,0.012c-0.261,0.023-0.518,0.047-0.771,0.069
			c-0.507,0.053-1.003,0.104-1.489,0.155c-0.483,0.062-0.962,0.1-1.42,0.193c-0.455,0.104-0.902,0.206-1.344,0.307
			c-0.877,0.215-1.73,0.41-2.535,0.724c-3.248,1.111-6.12,2.69-9.134,4.968c3.718-0.597,6.788-0.744,9.924-0.858
			c0.779-0.065,1.57-0.034,2.371-0.054c0.399-0.012,0.804-0.024,1.215-0.036c0.41-0.011,0.823,0.028,1.243,0.034
			c0.419,0.007,0.847,0.015,1.283,0.021c0.217,0,0.437,0.001,0.659,0.001c0.207,0.014,0.416,0.027,0.628,0.042
			c0.872,0.067,1.856,0.177,2.903,0.296c2.271,0.244,6.924,0.939,12.653,1.837c2.274,0.339,4.601,0.686,6.969,1.039
			c2.457,0.347,4.972,0.676,7.563,0.935c2.609,0.24,5.223,0.479,8.194,0.302c0.756-0.059,1.535-0.14,2.462-0.381
			c0.454-0.117,0.979-0.291,1.586-0.623c0.584-0.349,1.412-0.867,1.95-2.17c0.072-0.196,0.132-0.4,0.177-0.604l0.053-0.291
			l0.006-0.062l0.013-0.122c0.008-0.16-0.01,0.271,0.021-0.373l-0.004-0.105c-0.019-0.29-0.015-0.541-0.071-0.862
			c-0.099-0.62-0.28-1.278-0.604-1.855c-0.301-0.592-0.733-1.106-1.207-1.558c-0.447-0.394-0.9-0.705-1.327-0.945
			c-0.858-0.481-1.624-0.758-2.35-0.998c-0.73-0.24-1.424-0.43-2.102-0.604c-1.356-0.348-2.663-0.643-3.959-0.948
			c-2.588-0.605-5.129-1.246-7.648-1.986c-2.517-0.742-5.011-1.562-7.467-2.479l-1.836-0.7l-0.913-0.361
			c-0.314-0.119-0.608-0.241-0.845-0.367c-0.51-0.266-1.017-0.451-1.533-0.768l-1.551-0.934c-4.119-2.771-7.983-6.264-11.611-9.758
			c-3.63-3.52-7.045-7.125-10.271-10.646c-6.447-7.048-12.126-13.782-16.89-19.547c-4.76-5.771-8.595-10.59-11.251-13.955
			c-2.645-3.375-4.134-5.276-4.134-5.276s-1.476-1.913-4.094-5.309c-1.296-1.707-2.875-3.787-4.695-6.186
			c-0.899-1.205-1.857-2.489-2.871-3.847c-0.938-1.381-1.926-2.835-2.961-4.357c-8.277-12.27-18.312-29.956-28.197-48.772
			c-9.912-18.818-19.801-38.762-28.016-55.747c-4.246-8.866-7.73-16.14-9.47-19.772C468.98,301.205,465.981,297.132,461.271,291.242
			z"/>
		<path d="M509.309,490.698c0.331,0.706,0.903,1.172,1.349,1.599c0.483,0.416,0.91,0.738,1.356,0.981
			c0.861,0.48,1.693,0.628,2.571,0.386c0.972-0.256,3.74-1.17,6.219-2.06c2.47-0.904,4.716-1.727,4.716-1.727s2.238-0.817,4.7-1.717
			c2.455-0.912,5.12-1.932,5.994-2.305c1.614-0.688,2.038-2.362,2.452-5.316c-2.304-1.894-3.728-2.853-5.373-2.288
			c-0.891,0.307-3.532,1.316-5.954,2.234c-2.421,0.913-4.622,1.743-4.622,1.743s-2.21,0.783-4.641,1.645
			c-2.402,0.818-5.023,1.71-5.896,2.007c-0.787,0.28-1.273,0.798-1.665,1.612c-0.184,0.396-0.366,0.883-0.522,1.418
			C509.802,489.442,509.707,490.092,509.309,490.698z"/>
		<path d="M540.636,482.866c2.482,1.347,3.944,1.98,5.009,1.209c1.152-0.835,6.674-5.339,6.674-5.339s5.604-4.396,6.673-5.339
			c0.987-0.869,0.688-2.435-0.08-5.151c-2.481-1.346-3.943-1.98-5.009-1.209c-1.153,0.835-6.673,5.339-6.673,5.339
			s-5.606,4.396-6.674,5.339C539.569,478.583,539.867,480.149,540.636,482.866z"/>
		<path d="M296.629,340.325c3.965,0.782,7.62,1.43,11.163,1.965c3.544,0.548,6.979,0.969,10.511,1.209
			c3.532,0.25,7.152,0.402,11.084,0.356c3.95-0.121,8.205-0.396,12.96-0.852c0.778-0.062,1.791-0.193,2.975-0.367
			c1.173-0.18,2.532-0.402,4.088-0.708c3.115-0.572,7.098-1.559,12.042-2.461c2.917-0.513,6.227-0.954,9.413-0.729
			c3.203,0.221,6.106,1.178,8.776,3.248c1.335,1.033,2.609,2.355,3.788,3.902c1.477,1.845,2.967,3.706,4.454,5.564
			c3.004,3.75,5.999,7.49,8.869,11.073c2.871,3.583,5.617,7.011,8.121,10.135c2.506,3.122,4.797,5.871,6.711,8.22
			c3.836,4.678,6.225,7.592,6.225,7.592s7.979,9.771,18.17,22.252c10.227,12.445,22.673,27.593,31.551,38.397
			c9.149,11.067,14.812,17.917,17.771,21.494c1.349,1.617,2.651,3.14,3.912,4.571c2.253,2.587,4.393,5.043,6.425,7.377
			c2.771-1.325,5.391-2.604,7.851-3.833l0.224-0.112l0.119-0.066l0.238-0.133l0.475-0.266c0.313-0.179,0.626-0.356,0.937-0.533
			c0.617-0.36,1.229-0.717,1.833-1.069c2.412-1.433,4.7-2.889,6.955-4.407c4.508-3.038,8.881-6.324,13.838-10.162
			c-6.178,1.067-11.555,2.076-16.838,3.354c-2.643,0.639-5.261,1.344-7.945,2.157c-0.67,0.208-1.345,0.419-2.027,0.631
			c-0.645,0.208-1.296,0.417-1.956,0.63c-0.206-0.055-0.321-0.129-0.378-0.208c-0.017-0.107-0.021-0.191-0.019-0.254l0.011-0.082
			l0.004-0.016c-0.017-0.027,0.05,0.046-0.057-0.09l-0.434-0.562c-1.166-1.509-2.413-3.076-3.745-4.706
			c-2.945-3.584-8.585-10.447-17.697-21.536c-17.743-21.597-49.747-60.551-49.747-60.551s-2.38-2.916-6.201-7.598
			c-1.9-2.342-4.206-5.118-6.674-8.205c-2.466-3.087-5.17-6.473-7.996-10.012c-2.828-3.539-5.779-7.232-8.739-10.935
			c-1.493-1.869-2.988-3.74-4.471-5.597c-1.692-2.221-3.682-4.334-5.993-6.129c-2.303-1.799-4.929-3.243-7.606-4.196
			c-2.679-0.963-5.373-1.448-7.848-1.615c-4.978-0.323-9.107,0.329-12.438,0.905c-5.634,1.042-9.385,1.996-12.241,2.526
			c-1.423,0.285-2.592,0.48-3.593,0.642c-0.993,0.15-1.805,0.265-2.611,0.339c-4.585,0.481-8.66,1.041-12.438,1.693
			c-3.811,0.582-7.338,1.215-10.756,1.987c-3.417,0.782-6.747,1.623-10.188,2.568C304.044,338.081,300.499,339.158,296.629,340.325z
			"/>
		<path d="M394.09,223.366c4.153,15.622,7.442,25.97,16.421,42.458c1.53,2.789,4.02,7.326,9.193,16.755
			c10.14,18.38,34.161,61.924,34.161,61.924s20.065,36.471,31.189,56.688c6.947,12.563,11.247,20.34,13.493,24.4
			c9.144,16.4,16.134,24.708,27.121,36.562c-4.151-15.621-7.441-25.968-16.42-42.459c-2.233-4.068-6.51-11.856-13.419-24.44
			c-11.15-20.205-31.263-56.648-31.263-56.648s-23.979-43.567-34.102-61.958c-5.207-9.411-7.713-13.938-9.253-16.722
			C412.068,243.529,405.079,235.221,394.09,223.366z"/>
		<path d="M458.587,292.288c4.247,15.597,7.6,25.924,16.678,42.358c1.547,2.779,4.063,7.301,9.294,16.698
			c5.456,9.74,18.382,32.816,18.382,32.816s10.778,19.338,16.753,30.059c7.023,12.521,11.37,20.271,13.641,24.318
			c1.761,3.114,3.442,5.936,5.077,8.527c0.414,0.646,0.819,1.278,1.219,1.902l0.303,0.462l0.059,0.023l0.126,0.054
			c0.183,0.086,0.421,0.236,0.729,0.475c0.012,0.139-0.017,0.317-0.1,0.544c-0.041,0.113-0.097,0.238-0.167,0.377
			c-0.05,0.078-0.043,0.122-0.149,0.238l-0.619,0.541c-1.644,1.447-3.235,2.914-4.818,4.429c-3.167,3.03-6.301,6.25-9.749,9.872
			c4.744-1.584,8.989-3.055,13.077-4.636c2.043-0.791,4.048-1.609,6.056-2.483l0.753-0.33l1.229-0.639
			c0.866-0.461,1.736-0.924,2.611-1.389c1.781-0.958,3.642-1.98,5.577-3.063c-1.004-2.107-2.113-4.369-3.324-6.776
			c-0.307-0.605-0.616-1.216-0.927-1.831l-0.476-0.932l-0.235-0.5c-0.321-0.666-0.648-1.344-0.981-2.034
			c-1.351-2.751-2.873-5.661-4.603-8.793c-2.258-4.055-6.582-11.817-13.567-24.359c-6.001-10.706-16.826-30.018-16.826-30.018
			s-12.884-23.099-18.321-32.85c-5.265-9.379-7.798-13.892-9.354-16.665C476.688,312.342,469.647,304.076,458.587,292.288z"/>
	</g>
</g>
</svg>
