<?xml version="1.0" encoding="utf-8"?>
<!-- Generator: Adobe Illustrator 16.0.0, SVG Export Plug-In . SVG Version: 6.00 Build 0)  -->
<!DOCTYPE svg PUBLIC "-//W3C//DTD SVG 1.1//EN" "http://www.w3.org/Graphics/SVG/1.1/DTD/svg11.dtd">
<svg version="1.1" xmlns="http://www.w3.org/2000/svg" xmlns:xlink="http://www.w3.org/1999/xlink" x="0px" y="0px" width="640px"
	 height="640px" viewBox="0 0 640 640" enable-background="new 0 0 640 640" xml:space="preserve">
<g id="fond">
</g>
<g id="couleurs">
</g>
<g id="traits">
	<g>
		<path fill="#FFE4B7" d="M331.71,129.212c-3.115,0-5.942,0.501-8.591,1.316c-1.336,4.54-2.773,9.426-4.38,14.884
			c-1.605,5.562-4.673,16.295-7.496,34.188c-0.528,2.777-0.801,5.752-1.222,8.812c-0.196,1.533-0.396,3.094-0.599,4.68
			c-0.217,1.603-0.395,3.172-0.529,4.76c-0.579,6.375-0.771,13.169-0.619,20.099c0.292,13.868,2.02,28.255,4.231,41.159
			c2.206,12.912,4.85,24.36,6.874,32.573c2.036,8.212,3.419,13.203,3.419,13.203s1.146,4.285,3.209,11.4
			c2.231,0.247,5.643,0.48,9.849,0.48c5.597,0,12.601-0.414,20.084-1.76c4.304-1.08,9.116-2.434,14.489-4.113
			c9.486-2.964,17.528-8.391,24.325-15.188c3.785-4.027,7.082-8.145,9.706-11.685c2.17-3.106,4.164-6.334,5.997-9.621
			c10.44-20.01,16.153-43.278,18.148-52.472c-7.52-13.946-16.608-28.605-27.511-43.034c-1.213-2.004-2.461-3.931-3.742-5.79
			c-1.625-1.813-3.268-3.553-4.924-5.21c-19.469-19.469-33.754-29.919-44.885-34.883c-1.578-0.657-3.13-1.264-4.638-1.82
			C338.751,129.793,335.064,129.212,331.71,129.212 M640,0H0v273.701c60.035-97.817,167.43-148.808,167.43-148.808
			c0.632-0.671,1.447-0.992,2.438-0.992c0.439,0,0.914,0.063,1.42,0.188c0.451-1.133,0.992-2.357,1.632-3.597
			c12.794-85.749,90.844-86.266,90.844-86.266c13.333-3.333,7.333-18,7.333-18s-4.666-7.333,4-7.333s19.334,21.333,19.334,21.333
			s4-6.667,6.666-10s10-8,10-8v20.667l12-12.667c0,0,6-2.667,11.334-2.667s-8.667,20.667-8.667,20.667s14.667,6,44,20
			c18.666,8.909,33.553,22.947,49.299,45.55c5.049-0.206,10.033-0.307,14.929-0.307c95.677,0,162.271,38.675,206.01,95.176V0"/>
		<path fill="#FDD497" d="M355.94,315.006c-7.483,1.346-14.487,1.76-20.084,1.76c-4.206,0-7.617-0.233-9.849-0.48
			c0.182,0.627,0.371,1.276,0.567,1.946c4.599-0.062,12.068-0.321,20.519-1.24C349.776,316.469,352.715,315.814,355.94,315.006
			 M428.606,221.927c-1.995,9.194-7.708,32.462-18.148,52.472c11.399-20.436,16.518-43.089,18.249-52.284
			C428.673,222.051,428.641,221.991,428.606,221.927 M433.99,103.47c-4.896,0-9.88,0.102-14.929,0.307
			c8.998,12.917,18.276,28.631,28.701,47.783c9.085,16.69,15.624,37.593,20.32,58.369c44.47,6.441,132.211,33.093,143.347,142.964
			c15,148-51,271-237,287.107c-35.488,3.073-69.155,4.974-100.524,4.974c-133.04,0-224.719-34.186-238.476-158.081
			c-17-153.107,148-239,148-239c0.793-0.61,1.992-0.896,3.553-0.896c0.542,0,1.131,0.035,1.758,0.103
			c-5.771-15.857-10.775-35.105-14.079-58.366c-0.153,0.102-0.231,0.159-0.231,0.159l-0.424-5.001
			c-0.912-7.081-1.667-14.516-2.243-22.332c-0.263-3.564-0.438-7.018-0.529-10.385l-1.804-21.282c0,0,0.553-2.526,1.857-5.804
			c-0.506-0.125-0.98-0.188-1.42-0.188c-0.99,0-1.806,0.321-2.438,0.992c0,0-107.395,50.991-167.43,148.808
			c-17.47,28.464-30.936,60.902-36.57,97.192c-22.931,147.675-82.818,335.755,277.056,335.755c32.473,0,68.301-1.527,107.944-4.755
			c479-39,366-139,361-289c-2.496-74.891-23.197-154.526-69.43-214.247C596.261,142.145,529.667,103.47,433.99,103.47"/>
		<path fill="#FBC583" d="M364.431,337.56L364.431,337.56c0,4,8.666,8,8.666,8l6.879,1.146
			C376.509,346.066,366.093,343.656,364.431,337.56 M494.43,332.893l-10,2c0,0-3,16-15,19c-0.801,0.2-1.537,0.293-2.219,0.293
			c-9.521,0-7.781-18.293-7.781-18.293s-43,9-58,13c-3.75,1-6.896,1.375-9.505,1.375c-6.341,0-9.514-2.214-10.49-3.056
			c0.836,0.767,3.165,2.766,6.329,4.348c0.387,0.193,1.111,0.281,2.104,0.281c9.265,0,41.896-7.614,41.896-7.614
			s21.333,33.333,36,48s30.667,19.333,30.667,19.333l20.666-48l29.712-4.61l-21.379,1.943c0,0-14-4-23-9
			S494.43,332.893,494.43,332.893 M384.826,325.428l-16.396,5.465c0,0-3.419,2.279-3.935,5.784
			C365.549,333.854,374.156,329.663,384.826,325.428 M256.107,311.715c-0.548,0-0.174,1.276,1.655,4.512
			c0.357,0.632,0.651,1.212,0.886,1.743c0.363-0.064,0.702-0.102,1.021-0.102c0.527,0,0.999,0.103,1.427,0.359
			c1.108,0.665,3.469,2.435,6.126,4.501C262.796,317.692,257.293,311.715,256.107,311.715 M394.755,295.705
			c-6.797,6.797-14.839,12.224-24.325,15.188c-5.373,1.679-10.186,3.033-14.489,4.113c-3.226,0.809-6.164,1.463-8.847,1.986
			c7.231-0.787,15.183-2.057,22.67-4.099C378.967,310.383,387.705,303.205,394.755,295.705 M468.083,209.929
			c10.123,44.786,11.68,88.964,11.68,88.964l-19.333,4c0,0-8.055-36.816-31.723-80.778c-1.731,9.195-6.85,31.849-18.249,52.284
			c-1.833,3.286-3.827,6.515-5.997,9.621c4.171-5.628,6.636-9.793,6.636-9.793l11.191,38.181c4.962-1.564,8.142-2.515,8.142-2.515
			s59-12,74-12s32,23,41,42c7.476,15.782,5.292,18.455,4.338,18.907l7.996-1.24c0,0,6.666,6.333,1.666,67.333
			c-2.215,27.026-12.479,53.27-23.225,74.116c-5.41,13.331-11.429,25.385-17.774,34.551c-16.001,23.112-55.11,34.37-93.827,34.37
			c-12.353,0-24.666-1.146-36.175-3.419c-5.664,1.032-11.493,1.577-17.451,1.594c-0.019,0-0.037,0-0.055,0c-0.026,0-0.05,0-0.076,0
			c-0.047,0-0.093,0-0.14,0l0,0c-17.099,0-33.177-4.366-47.181-12.046c-28.016,2.184-48.43,12.834-48.43,12.834l-8.74,22.225
			c1.728-0.084,2.76-0.19,3.013-0.218l3.061-13.007c0,0,5.078-1.953,12.793-1.953c4.629,0,10.207,0.703,16.207,2.953
			c16,6,40,14,40,14l32-1c0,0,11.021-6.612,16.059-6.612c0.84,0,1.513,0.184,1.941,0.612c0.68,0.68,1.205,0.897,1.611,0.897
			c0.363,0,0.631-0.173,0.829-0.347c0.197-0.173,0.325-0.346,0.408-0.346c0.151,0,0.151,0.578,0.151,2.795c0,6-4,10-4,10s16-2,27-7
			c9.166-4.167,26.666-13.194,33.402-13.194c1.348,0,2.264,0.361,2.598,1.194c2,5-21,42-101,47
			c-8.887,0.556-16.89,0.803-24.088,0.803c-57.596,0-63.912-15.803-63.912-15.803l1.25-5.312
			c-3.301,10.896-8.822,23.465-16.727,23.465c-0.498,0-1.006-0.05-1.523-0.153c-3.409-0.682-10.85-2.346-20.697-5.037
			C180.908,614.48,87.616,586.333,81.097,495.56c-8.505-118.406,119.721-209.851,124.529-213.236
			c-5.8-9.276-11.658-20.859-16.886-35.224c-0.627-0.068-1.216-0.103-1.758-0.103c-1.561,0-2.76,0.286-3.553,0.896
			c0,0-165,85.893-148,239c13.757,123.896,105.436,158.081,238.476,158.081c31.369,0,65.036-1.9,100.524-4.974
			c186-16.107,252-139.107,237-287.107C600.294,243.022,512.553,216.37,468.083,209.929"/>
		<path fill="#EAE880" d="M223.43,381.893L223.43,381.893L223.43,381.893c-49,85,11,165,11,165s-59.7-13.381-77-70
			C135.43,404.893,223.43,381.893,223.43,381.893 M205.626,282.324c-4.809,3.385-133.034,94.83-124.529,213.236
			c6.52,90.772,99.812,118.92,145.636,127.296c-33.48-9.152-94.804-30.191-120.303-64.963c-33-45-17-102-17-102s23,68,81,105
			c39.528,25.217,75.638,28.337,91.082,28.337c1.959,0,3.586-0.051,4.845-0.112l8.74-22.225c0,0,20.414-10.65,48.43-12.834
			c-30.444-16.696-51.086-49.049-51.086-86.22l0,0l0,0c0-34.52,17.798-64.881,44.718-82.409c-0.128-0.086-0.256-0.172-0.384-0.258
			c-6.632-5.044-12.3-10.603-17.031-16.009c-4.739-5.409-8.598-10.644-11.741-15.186c-4.128-5.995-6.768-10.646-8.832-14.158
			c-1.98-3.555-3.311-6.015-4.266-7.912c-0.177-0.345-0.352-0.688-0.523-1.03l-1.285-1.317c0,0-2.651-3.167-5.873-6.832
			c-2.657-2.066-5.018-3.836-6.126-4.501c-0.428-0.256-0.899-0.359-1.427-0.359c-0.319,0-0.658,0.038-1.021,0.102
			c1.666,3.765,0.379,5.072-2.219,5.072c-5.927,0-18.667-6.815-18.667-6.815l0,0l0,0
			C237.763,316.227,221.931,308.404,205.626,282.324 M411.097,274.227c0,0-2.465,4.165-6.636,9.793
			c-2.624,3.541-5.921,7.658-9.706,11.685c-7.05,7.5-15.788,14.678-24.991,17.188c-7.487,2.042-15.438,3.312-22.67,4.099
			c-8.45,0.919-15.92,1.179-20.519,1.24c0.204,0.7,0.417,1.423,0.637,2.168c2.799,9.56,6.94,22.621,11.571,37.104
			c0.572,1.82,1.15,3.662,1.734,5.518c0.593,1.953,1.191,3.921,1.793,5.9c0.432,1.473,0.861,2.959,1.268,4.443
			c8.617-2.471,17.719-3.793,27.129-3.793c0.047,0,0.094,0,0.141,0c0.022,0,0.049,0,0.072,0c0.02,0,0.04,0,0.06,0
			c0.036,0,0.07,0.001,0.107,0.001c0,0,0.001,0,0.002,0c54.094,0.203,97.884,44.119,97.884,98.266
			c0,48.218-34.735,88.326-80.544,96.672c11.509,2.273,23.822,3.419,36.175,3.419c38.717,0,77.826-11.258,93.827-34.37
			c6.346-9.166,12.364-21.22,17.774-34.551c-13.508,26.205-27.775,43.884-27.775,43.884s11-36,11-82s-11-62-11-62l10.667-35.333
			l-20.666,48c0,0-16-4.666-30.667-19.333s-36-48-36-48s-32.632,7.614-41.896,7.614c-0.992,0-1.717-0.088-2.104-0.281
			c-3.164-1.582-5.493-3.581-6.329-4.348c-0.229-0.197-0.338-0.319-0.338-0.319l0,0c0,0-0.417-0.057-1.121-0.187l-6.879-1.146
			c0,0-8.666-4-8.666-8l0,0l0,0c-0.075-0.276-0.052-0.571,0.065-0.883c0.516-3.505,3.935-5.784,3.935-5.784l16.396-5.465
			c12.642-5.018,28.176-10.094,37.462-13.021L411.097,274.227"/>
		<path fill="#C8D400" d="M326.43,234.226c0,0,12.667,7,14.667,17.889s-9.334,24.111-9.334,24.111S321.097,257.56,326.43,234.226z"
			/>
		<path fill="#C8D400" d="M325.097,238.893c0,0-16,2-14.667,18.667s20,15.333,20,15.333L325.097,238.893"/>
		<path fill="#E1E044" d="M326.912,372.917l-0.002,0.001l0.024,0.074C326.927,372.966,326.92,372.941,326.912,372.917
			 M256.253,156.675c-4.304-0.001-8.08,1.495-10.823,5.218c-11.149,15.131-13.421,32.801-24.49,32.801
			c-2.83,0-6.234-1.154-10.51-3.801c-7.8-4.828-14.772-6.346-20.455-6.346c-8.514,0-14.134,3.404-15.313,4.187
			c3.304,23.261,8.308,42.509,14.079,58.366c5.228,14.364,11.086,25.948,16.886,35.224c16.305,26.081,32.137,33.903,32.137,33.903
			l0,0l0,0c0,0,12.74,6.815,18.667,6.815c2.598,0,3.885-1.308,2.219-5.072c-0.234-0.531-0.528-1.111-0.886-1.743
			c-1.829-3.235-2.203-4.512-1.655-4.512c1.186,0,6.688,5.977,11.115,11.013c3.222,3.665,5.873,6.832,5.873,6.832l1.285,1.317
			c-5.393-10.714-8.405-19.748-10.424-28.512c-2.022-9.056-3.025-17.887-3.239-28.357c5.079,9.121,9.681,16.404,14.064,24.197
			c4.437,7.761,8.681,16.01,14.141,26.402c0.911,1.77,2.169,4.054,4.021,7.354c1.927,3.245,4.389,7.563,8.164,13.025
			c2.876,4.131,6.377,8.862,10.58,13.652c4.193,4.793,9.129,9.602,14.699,13.841c0.166,0.12,0.334,0.24,0.502,0.362
			c-0.521-1.716-1.039-3.422-1.553-5.114c-0.572-1.828-1.14-3.641-1.701-5.434c-4.581-14.385-8.782-27.698-11.611-37.422
			c-2.854-9.725-4.479-15.846-4.479-15.846s-1.424-5.099-3.531-13.539c-2.094-8.441-4.841-20.241-7.158-33.697
			c-2.32-13.448-4.17-28.577-4.496-43.486c-0.167-7.45,0.035-14.838,0.675-21.879c0.15-1.769,0.347-3.502,0.568-5.145
			c0.213-1.661,0.423-3.297,0.628-4.903c0.425-3.083,0.712-6.069,1.226-8.897C286.938,170.251,269.215,156.677,256.253,156.675
			 M171.233,151.175c0.092,3.368,0.267,6.821,0.529,10.385c0.576,7.816,1.331,15.251,2.243,22.332L171.233,151.175 M342.907,131.19
			c1.508,0.556,3.06,1.163,4.638,1.82C345.936,132.292,344.391,131.689,342.907,131.19 M275.096,8.893c-8.666,0-4,7.333-4,7.333
			s6,14.667-7.333,18c0,0-78.05,0.517-90.844,86.266c2.776-5.384,7.404-11.079,14.559-11.079c3.393,0,7.352,1.28,11.952,4.48
			c14.01,9.746,20.229,15.412,25.889,15.412c3.631,0,7.03-2.331,12.111-7.412c9.628-9.628,21.45-18.708,30.186-18.708
			c3.059,0,5.739,1.113,7.814,3.708c6.067,7.585,21.341,22.073,30.981,25.575c2.968-7.987,6.342-14.557,10.219-20.474
			c1.348-1.951,2.684-3.854,4.097-5.705c0.741-0.904,1.482-1.809,2.229-2.717c0.742-0.903,1.507-1.794,2.334-2.659
			c0.813-0.87,1.625-1.743,2.469-2.604c0.874-0.835,1.758-1.679,2.654-2.536c1.857-1.647,3.765-3.326,5.948-4.79
			c-0.524,0.978-0.988,1.959-1.417,2.936c6.06,0.466,52.516,7.591,79.486,49.974c28,44,51,157,51,157s-29.466-84.716-68.076-127.79
			c1.281,1.859,2.529,3.786,3.742,5.79c10.902,14.429,19.991,29.088,27.511,43.034c0.034,0.063,0.066,0.124,0.101,0.188
			c23.668,43.961,31.723,80.778,31.723,80.778l19.333-4c0,0-1.557-44.179-11.68-88.964c-4.696-20.776-11.235-41.679-20.32-58.369
			c-10.425-19.152-19.703-34.866-28.701-47.783c-15.746-22.604-30.633-36.642-49.299-45.55c-29.333-14-44-20-44-20
			s14.001-20.667,8.667-20.667s-11.334,2.667-11.334,2.667l-12,12.667V12.227c0,0-7.334,4.667-10,8s-6.666,10-6.666,10
			S283.762,8.893,275.096,8.893"/>
		<path fill="#FFFFFF" d="M285.223,573.94c-7.715,0-12.793,1.953-12.793,1.953l-3.061,13.007c0.04-0.005,0.061-0.007,0.061-0.007
			l0,0l0,0c0,0-1.226,7.354-3.75,15.688l-1.25,5.312c0,0,6.316,15.803,63.912,15.803c7.198,0,15.201-0.247,24.088-0.803
			c80-5,103-42,101-47c-0.334-0.833-1.25-1.194-2.598-1.194c-6.736,0-24.236,9.027-33.402,13.194c-11,5-27,7-27,7s4-4,4-10
			c0-2.217,0-2.795-0.151-2.795c-0.083,0-0.211,0.173-0.408,0.346c-0.198,0.174-0.466,0.347-0.829,0.347
			c-0.406,0-0.932-0.218-1.611-0.897c-0.429-0.429-1.102-0.612-1.941-0.612c-5.038,0-16.059,6.612-16.059,6.612l-32,1
			c0,0-24-8-40-14C295.43,574.643,289.852,573.94,285.223,573.94"/>
		<path fill="#FFFFFF" d="M504.43,297.893c-15,0-74,12-74,12s-3.18,0.951-8.142,2.515c-9.286,2.927-24.82,8.003-37.462,13.021
			c-10.67,4.234-19.277,8.426-20.33,11.249c-0.117,0.312-0.141,0.606-0.065,0.883l0,0c1.662,6.096,12.078,8.506,15.545,9.146
			c0.704,0.13,1.121,0.187,1.121,0.187l0,0l0,0c0,0,0.108,0.122,0.338,0.319c0.977,0.842,4.149,3.056,10.49,3.056
			c2.609,0,5.755-0.375,9.505-1.375c15-4,58-13,58-13s-1.74,18.293,7.781,18.293c0.682,0,1.418-0.093,2.219-0.293c12-3,15-19,15-19
			l10-2c0,0,1,14,10,19s23,9,23,9l21.379-1.943l0.959-0.149c0.954-0.452,3.138-3.125-4.338-18.907
			C536.43,320.893,519.43,297.893,504.43,297.893"/>
		<path fill="#DECD30" d="M172.919,120.492c-0.64,1.24-1.181,2.464-1.632,3.597c0.351,0.087,0.716,0.202,1.098,0.347
			C172.548,123.104,172.726,121.786,172.919,120.492"/>
		<path fill="#DCC029" d="M171.287,124.089c-1.305,3.277-1.857,5.804-1.857,5.804l1.804,21.282
			c-0.266-9.693,0.155-18.585,1.151-26.738C172.003,124.292,171.638,124.176,171.287,124.089"/>
		<path fill="#DCC029" d="M174.006,183.892l0.424,5.001c0,0,0.078-0.058,0.231-0.159
			C174.435,187.14,174.216,185.524,174.006,183.892"/>
		<path fill="#C1D113" d="M267.615,103.186c-8.735,0-20.558,9.08-30.186,18.708c-5.081,5.082-8.48,7.412-12.111,7.412
			c-5.659,0-11.879-5.666-25.889-15.412c-4.601-3.2-8.56-4.48-11.952-4.48c-7.154,0-11.782,5.695-14.559,11.079
			c-0.193,1.294-0.371,2.611-0.534,3.944c-0.996,8.153-1.417,17.045-1.151,26.738l2.772,32.717c0.21,1.632,0.429,3.248,0.655,4.842
			c1.18-0.783,6.8-4.188,15.313-4.187c5.683,0,12.655,1.518,20.455,6.346c4.275,2.647,7.68,3.801,10.51,3.801
			c11.069,0,13.341-17.669,24.49-32.801c2.743-3.723,6.52-5.219,10.823-5.218c12.962,0.002,30.686,13.576,39.204,20.806
			c0.021-0.116,0.043-0.231,0.064-0.346c2.981-18.806,6.278-30.255,8.057-36.188c0.901-3.002,1.845-5.82,2.833-8.48
			c-9.641-3.501-24.914-17.99-30.981-25.575C273.354,104.299,270.674,103.186,267.615,103.186"/>
		<path fill="#DECD30" d="M347.545,133.01c11.131,4.963,25.416,15.414,44.885,34.883c1.656,1.657,3.299,3.396,4.924,5.21
			C382.526,151.592,363.451,139.634,347.545,133.01 M324.442,126.03c-0.431,1.466-0.871,2.962-1.323,4.499
			c2.648-0.815,5.476-1.317,8.591-1.316c3.354,0,7.041,0.581,11.197,1.979C335.561,128.481,329.129,126.92,324.442,126.03"/>
		<path fill="#C1D113" d="M334.943,93.919c-0.576,1.314-1.088,2.617-1.596,3.881c-0.411,1.115-0.816,2.213-1.218,3.299
			c-0.367,1.092-0.731,2.172-1.092,3.244c-0.376,1.053-0.705,2.121-1.026,3.184c-0.333,1.05-0.665,2.094-0.997,3.138
			c-0.622,2.105-1.227,4.204-1.899,6.282c-0.866,2.944-1.748,5.942-2.673,9.083c4.687,0.891,11.118,2.451,18.465,5.161
			c1.483,0.499,3.028,1.102,4.638,1.82c15.906,6.624,34.981,18.582,49.809,40.093c38.61,43.074,68.076,127.79,68.076,127.79
			s-23-113-51-157C387.459,101.51,341.003,94.385,334.943,93.919"/>
		<path fill="#E4B840" d="M269.369,588.9c-0.253,0.027-1.285,0.134-3.013,0.218l-14.593,37.109c0,0-9.94-0.613-25.031-3.371
			c9.848,2.691,17.288,4.355,20.697,5.037c0.518,0.104,1.025,0.153,1.523,0.153c7.904,0,13.426-12.569,16.727-23.465L269.369,588.9"
			/>
		<path fill="#D4DA3D" d="M89.43,455.893c0,0-16,57,17,102c25.499,34.771,86.822,55.811,120.303,64.963
			c15.091,2.758,25.031,3.371,25.031,3.371l14.593-37.109c-1.259,0.062-2.886,0.112-4.845,0.112
			c-15.444,0-51.554-3.12-91.082-28.337C112.43,523.893,89.43,455.893,89.43,455.893"/>
		<path fill="#EAE880" d="M269.43,588.893c0,0-0.021,0.002-0.061,0.007l-3.689,15.682
			C268.204,596.248,269.43,588.893,269.43,588.893"/>
		<path fill="#D4DA3D" d="M223.43,381.893c0,0-88,23-66,95c17.3,56.619,77,70,77,70S174.43,466.893,223.43,381.893"/>
		<path fill="#E4B840" d="M557.764,357.56l-7.996,1.24l0,0L557.764,357.56c0,0,2.667,5.333,3.333,35.333
			c0.49,22.068-9.842,69.028-24.892,106.116c10.745-20.847,21.01-47.09,23.225-74.116C564.43,363.893,557.764,357.56,557.764,357.56
			"/>
		<path fill="#D4DA3D" d="M557.764,357.56l-7.996,1.24c-0.194,0.093-0.338,0.093-0.338,0.093l-0.621,0.057l-29.712,4.61
			l-10.667,35.333c0,0,11,16,11,62s-11,82-11,82s14.268-17.679,27.775-43.884c15.05-37.088,25.382-84.048,24.892-106.116
			C560.431,362.893,557.764,357.56,557.764,357.56"/>
		<path fill="#EAE880" d="M549.768,358.8l-0.959,0.149l0.621-0.057C549.43,358.893,549.573,358.893,549.768,358.8L549.768,358.8"/>
		<path d="M274.227,34.927c1.227-4.21,1.994-7.975,2.266-11.919c0.123-1.976,0.13-3.998-0.15-6.19
			c-0.129-1.094-0.358-2.239-0.698-3.446c-0.095-0.304-0.19-0.61-0.287-0.919l-0.043-0.221c-0.011-0.099,0.03-0.075,0.043-0.102
			l0.157,0.017l0.01,0.014l-0.011,0.012c-0.05-0.008,0.114,0.028,0.224,0.051c0.116,0.024,0.235,0.048,0.355,0.073
			c0.235,0.09,0.479,0.182,0.73,0.278c0.517,0.137,1.027,0.492,1.602,0.765c2.42,1.424,5.305,4.594,7.391,8.35
			c0.257,0.472,0.513,0.942,0.766,1.406l0.379,0.692c0.068,0.13,0.114,0.196,0.199,0.376l0.327,0.753
			c0.868,2,1.709,3.939,2.507,5.779c0.792,1.961,1.542,3.816,2.232,5.525c0.345,0.855,0.676,1.674,0.989,2.451l0.058,0.144
			l0.076-0.133l0.151-0.278c0.101-0.186,0.2-0.369,0.299-0.549c0.197-0.363,0.39-0.716,0.575-1.057
			c1.272-2.322,2.508-4.642,3.71-6.757c1.172-2.063,2.566-4.258,3.288-5.379c1.177-1.808,2.335-3.481,3.463-4.997
			c1.13-1.514,2.228-2.874,3.276-4.05l0.373-0.408l-0.007,0.006l-0.004,0.003l-0.005,0.001v-0.012l-0.002,0.001l-0.003-0.006
			l0.006-0.027c-0.047,0.178-0.095,0.363-0.146,0.555c-0.113,0.441-0.234,0.913-0.363,1.415c-0.212,1.002-0.5,2.123-0.719,3.354
			c-0.492,2.462-0.943,5.362-1.312,8.648c-0.174,1.645-0.342,3.381-0.46,5.227c-0.026,0.467-0.054,0.94-0.081,1.418l-0.008,0.19
			l-0.005,0.1l-0.002,0.05c-6.356-2.295,8.658,3.143,7.114,2.578l0.006-0.007l0.011-0.014l0.193-0.246l0.414-0.519
			c0.572-0.696,1.157-1.408,1.754-2.134l0.001,0c1.945-2.321,4.237-4.896,6.467-7.208c2.23-2.31,4.398-4.354,6.017-5.725
			c2.963-2.559,5.628-4.266,7.472-4.986c0.927-0.386,1.582-0.464,1.903-0.453c0.2-0.03,0.246,0.039,0.335,0.021l0.126,0.033
			c-0.667-4.024-0.713-4.3-1.023-6.174c-0.902,0.995-1.08,1.223-1.301,1.477c-4.088,4.868-6.66,9.24-8.284,13.869
			c-0.78,2.319-1.324,4.724-1.309,7.299c0.023,1.283,0.193,2.609,0.66,3.872c0.457,1.26,1.264,2.421,2.325,3.19
			c-0.574-1.186-0.688-2.38-0.562-3.456c0.127-1.083,0.466-2.075,0.871-3.017c0.841-1.883,1.978-3.576,3.196-5.289
			c2.484-3.396,5.334-6.932,9.098-11.32c0.183-0.207,0.384-0.433,1.102-1.242c-0.311-1.875-0.356-2.15-1.023-6.175
			c-0.503-0.228-1.113-0.519-1.807-0.712c-0.687-0.153-1.501-0.329-2.287-0.303c-1.634-0.033-3.325,0.343-4.909,0.983
			c-3.213,1.278-6.381,3.459-9.75,6.332c-1.837,1.552-4.197,3.78-6.58,6.25c-2.381,2.471-4.786,5.179-6.833,7.627v0
			c-0.632,0.771-1.252,1.527-1.859,2.266l-0.45,0.565l-0.23,0.294l-0.016,0.021l-0.008,0.01c-1.552-0.553,13.469,4.868,7.111,2.568
			l0.001-0.035l0.003-0.071l0.007-0.15c0.023-0.429,0.048-0.854,0.071-1.273c0.106-1.698,0.263-3.329,0.422-4.863
			c0.341-3.068,0.755-5.762,1.2-8.003c0.197-1.131,0.456-2.126,0.644-3.036c0.113-0.444,0.221-0.862,0.32-1.254
			c0.06-0.224,0.116-0.441,0.172-0.649c0.112-0.396,0.221-0.776,0.325-1.142c0.511-1.468,0.985-2.694,1.335-3.66
			c0.178-0.483,0.332-0.901,0.462-1.253c0.091-0.321,0.354-0.729,0.47-0.975c0.948-1.791,1.788-3.377,2.532-4.781
			c0.19-0.356,0.374-0.701,0.552-1.034c0.091-0.168,0.18-0.334,0.268-0.497c0.081-0.157,0.227-0.375,0.094-0.32
			c-0.268-0.036-0.518-0.07-0.75-0.101c-0.7-0.094-1.192-0.16-1.537-0.207c-0.429-0.058-0.491-0.066-0.491-0.066
			s-0.94-0.127-2.71-0.368c-1.746-0.22-4.095-0.563-8.221,2.065c-0.509,0.33-1.029,0.641-1.574,1.119
			c-0.539,0.462-1.107,0.843-1.661,1.402c-0.556,0.538-1.137,1.057-1.709,1.646c-0.284,0.299-0.571,0.602-0.861,0.908
			c-0.16,0.175-0.323,0.351-0.486,0.53c-1.235,1.381-2.472,2.913-3.72,4.581c-1.246,1.669-2.499,3.476-3.762,5.412
			c-0.495,0.76-0.314,0.487-0.344,0.528l0.01-0.021l0.013,0.007c-0.042-0.092-0.088-0.189-0.134-0.29
			c-0.507-0.932-1.028-1.892-1.557-2.864c-2.452-4.378-6.149-8.789-10.234-11.195c-0.978-0.509-1.851-1.037-2.801-1.34
			c-0.463-0.166-0.909-0.327-1.341-0.482c-0.227-0.053-0.448-0.104-0.666-0.156c-0.226-0.051-0.391-0.094-0.764-0.155
			c-1.301-0.306-2.479-0.247-3.582-0.286c-1.14-0.105-2.019,0.167-2.906,0.266c-3.386,0.671-5.185,1.592-6.877,2.159
			c-0.395,0.147-0.786,0.292-1.174,0.437l-0.576,0.216c-0.146,0.054-0.054,0.021-0.058,0.023l0.047-0.014
			c0.055-0.016,0.168-0.052,0.068-0.009l-0.074,0.038l-0.04,0.021l-0.146,0.06c-0.618,0.254-1.219,0.5-1.799,0.738
			c-1.729,0.679-3.398,1.334-4.996,1.961c2.05,0.527,4.09,1.052,6.12,1.575l1.512,0.389l0.685,0.18l0.264,0.093l1.049,0.369
			c0.692,0.245,1.382,0.488,2.068,0.73l1.02,0.361c0.229,0.062,0.196,0.113,0.236,0.167l0.091,0.16
			c0.24,0.419,0.479,0.835,0.715,1.248l0.277,0.578c0.356,0.791,0.696,1.615,0.988,2.474c0.606,1.701,1.109,3.449,1.606,5.207
			C272.389,27.035,273.341,30.646,274.227,34.927z"/>
		<path d="M332.308,42.357c4.812,2.006,8.882,4.374,12.746,6.658c3.852,2.311,7.445,4.656,11.07,7.075
			c7.242,4.844,14.661,9.938,23.819,16.901c0.762,0.609,1.644,1.314,2.697,2.157c0.527,0.422,1.098,0.879,1.717,1.376
			c0.603,0.52,1.254,1.081,1.96,1.689s1.468,1.264,2.291,1.973c0.797,0.74,1.653,1.536,2.576,2.393
			c1.879,1.676,3.866,3.77,6.21,6.108c3.611,3.834,8.302,9.146,12.949,15.26c4.623,6.134,9.143,13.083,13.002,19.67
			c1.865,3.335,3.697,6.495,5.167,9.499c0.762,1.486,1.486,2.9,2.166,4.225c0.63,1.352,1.217,2.613,1.754,3.765
			c1.059,2.322,1.978,4.139,2.517,5.506c0.564,1.338,0.877,2.08,0.877,2.08s1.04,2.489,2.745,6.567
			c0.85,2.04,1.866,4.477,3.001,7.199c1.041,2.758,2.191,5.805,3.407,9.027c2.541,6.406,4.878,13.673,7.282,20.677
			c1.176,3.511,2.161,7.02,3.192,10.329c1.015,3.314,1.988,6.455,2.728,9.348c4.938,17.583,6.959,28.7,8.214,34.454
			c2.244,11.7,4.353,20.797,6.659,29.458c1.127,4.331,2.381,8.549,3.635,12.94c1.273,4.396,2.634,8.947,3.861,14.021
			c1.297-5.071,2.167-9.846,2.817-14.475c0.67-4.638,1.035-9.143,1.211-13.777c0.302-9.26-0.454-18.99-2.665-31.164
			c-1.238-5.979-3.311-17.527-8.4-35.716c-0.762-2.996-1.762-6.243-2.81-9.669c-1.064-3.42-2.089-7.048-3.306-10.673
			c-2.488-7.232-4.923-14.733-7.557-21.338c-1.265-3.322-2.46-6.463-3.543-9.307c-1.178-2.804-2.232-5.315-3.115-7.417
			c-1.771-4.2-2.854-6.763-2.854-6.763s-0.32-0.767-0.898-2.148c-0.539-1.381-1.531-3.381-2.646-5.842
			c-0.569-1.231-1.193-2.577-1.861-4.021c-0.723-1.421-1.493-2.938-2.304-4.531c-1.566-3.212-3.522-6.622-5.523-10.208
			c-4.137-7.102-9.015-14.627-14.044-21.306c-5.055-6.661-10.197-12.479-14.187-16.668c-2.577-2.576-4.772-4.864-6.849-6.716
			c-1.021-0.942-1.969-1.817-2.851-2.63c-0.912-0.782-1.756-1.505-2.539-2.176c-0.784-0.669-1.508-1.286-2.178-1.857
			c-0.689-0.548-1.323-1.051-1.909-1.517c-1.178-0.925-2.161-1.698-3.012-2.366c-10.248-7.643-19.435-12.087-28.525-14.855
			c-4.549-1.382-9.092-2.339-13.821-2.902C342.46,42.134,337.533,41.87,332.308,42.357z"/>
		<path d="M268.823,33.575c-5.097-1.249-10.01-1.723-14.779-1.837c-4.778-0.095-9.448,0.264-14.185,1.125
			c-9.44,1.739-19.347,5.416-30.026,13.154c-0.891,0.672-1.921,1.449-3.153,2.379c-1.179,0.997-2.551,2.157-4.176,3.532
			c-3.103,2.898-7.246,6.696-11.9,12.602c-5.058,6.278-11.036,15.386-15.645,25.979c-0.552,1.331-1.107,2.673-1.668,4.025
			c-0.556,1.354-1.145,2.708-1.599,4.107c-0.485,1.391-0.973,2.788-1.46,4.187l-0.726,2.102l-0.615,2.128
			c-1.73,5.667-3.045,11.358-4.162,16.892c-1.056,5.554-1.766,10.91-2.199,15.802c-0.409,4.894-0.603,9.32-0.641,13.04
			c-0.042,3.72,0.032,6.733,0.111,8.816c0.025,1.042,0.07,1.85,0.103,2.398c0.03,0.548,0.047,0.837,0.047,0.837
			s0.053,0.965,0.148,2.721c0.137,1.751,0.301,4.296,0.639,7.438c0.631,6.29,1.89,14.982,4.021,24.553
			c2.106,9.578,5.146,20.003,8.696,29.883c3.529,9.892,7.611,19.213,11.307,26.824c8.42,17.171,15.067,27.054,18.517,32.204
			c3.52,5.198,7.027,9.606,10.543,13.482c3.519,3.874,7.074,7.204,10.812,10.153c3.728,2.949,7.644,5.534,11.967,7.724
			c2.171,1.082,4.44,2.069,6.858,2.847c2.408,0.766,5.01,1.345,7.631,1.313c-2.325-1.205-4.157-2.775-5.825-4.391
			c-1.659-1.626-3.128-3.326-4.521-5.028c-2.771-3.431-5.229-6.895-7.72-10.471c-2.491-3.569-5.005-7.256-7.726-11.257
			c-2.717-4.002-5.664-8.302-8.904-13.193c-3.169-4.837-9.386-14.13-17.314-30.331c-3.473-7.18-7.322-15.968-10.644-25.261
			c-3.343-9.283-6.203-19.043-8.18-27.958c-2-8.912-3.181-16.952-3.774-22.745c-0.319-2.896-0.474-5.232-0.605-6.842
			c-0.092-1.61-0.142-2.496-0.142-2.496s-0.014-0.265-0.041-0.767c-0.028-0.503-0.068-1.244-0.088-2.197
			c-0.068-1.906-0.129-4.662-0.083-8.051c0.041-3.39,0.229-7.409,0.605-11.836c0.401-4.425,1.052-9.249,2.007-14.229
			c1.017-4.974,2.228-10.199,3.785-15.266l0.552-1.916l0.652-1.873c0.436-1.247,0.871-2.492,1.304-3.731
			c0.402-1.255,0.929-2.443,1.421-3.639c0.494-1.194,0.984-2.381,1.471-3.556c4.062-9.325,9.209-17.125,13.496-22.494
			c3.953-5.047,7.456-8.24,10.062-10.711c1.366-1.168,2.52-2.153,3.511-3c1.035-0.792,1.9-1.454,2.648-2.026
			c8.938-6.605,16.626-10.902,24.255-14.845c3.823-1.96,7.659-3.806,11.776-5.557C259.391,36.589,263.769,34.854,268.823,33.575z"/>
		<path d="M216.145,192.289c-0.752,10.43-0.795,17.507,1.625,29.464c0.412,2.025,1.093,5.319,2.622,12.144
			c1.454,6.395,4.003,17.149,6.583,26.239c0.629,2.275,1.304,4.439,1.881,6.418c0.294,0.989,0.573,1.93,0.835,2.812
			c0.286,0.878,0.554,1.696,0.798,2.444c0.983,2.991,1.597,4.854,1.597,4.854s0.129,0.39,0.364,1.099
			c0.26,0.705,0.637,1.728,1.104,2.999c0.472,1.27,1.035,2.787,1.664,4.481c0.721,1.68,1.519,3.537,2.361,5.5
			c3.571,8.087,9.558,16.469,14.078,22.253c5.89,7.45,9.911,11.702,12.006,13.92c4.247,4.485,7.948,7.628,11.728,10.267
			c3.782,2.629,7.619,4.809,12.342,7.064c-3.106-4.196-5.567-7.758-8.368-11.287c-2.791-3.534-5.875-7.072-9.934-11.446
			c-2.001-2.161-5.878-6.29-11.501-13.414c-1.09-1.371-2.203-2.936-3.426-4.554c-1.192-1.636-2.358-3.408-3.593-5.179
			c-0.568-0.91-1.142-1.828-1.714-2.745c-0.547-0.922-1.206-1.822-1.645-2.754c-0.483-0.923-0.962-1.838-1.433-2.737
			c-0.47-0.901-0.958-1.761-1.326-2.701c-0.79-1.829-1.538-3.558-2.215-5.124c-0.604-1.617-1.145-3.065-1.597-4.277
			c-0.452-1.213-0.815-2.19-1.065-2.864c-0.229-0.685-0.356-1.062-0.356-1.062s-0.588-1.808-1.533-4.709
			c-0.235-0.726-0.492-1.52-0.769-2.372c-0.253-0.862-0.524-1.783-0.809-2.75c-0.56-1.938-1.213-4.046-1.826-6.279
			c-2.513-8.914-5.021-19.542-6.482-25.855c-1.521-6.748-2.21-10.007-2.638-12.009C222.987,208.309,220.365,201.85,216.145,192.289z
			"/>
		<path d="M326.935,372.992l-0.024-0.074l0.002-0.001C326.92,372.941,326.927,372.966,326.935,372.992 M336.36,90.983
			c-2.184,1.464-4.091,3.142-5.948,4.79c-0.896,0.857-1.78,1.701-2.654,2.536c-0.844,0.861-1.655,1.734-2.469,2.604
			c-0.827,0.864-1.592,1.756-2.334,2.659c-0.746,0.909-1.487,1.813-2.229,2.717c-1.413,1.851-2.749,3.753-4.097,5.705
			c-3.877,5.917-7.251,12.487-10.219,20.474c-0.988,2.66-1.932,5.478-2.833,8.48c-1.778,5.933-5.075,17.382-8.057,36.188
			c-0.021,0.115-0.043,0.23-0.064,0.346c-0.514,2.828-0.801,5.814-1.226,8.897c-0.205,1.606-0.415,3.242-0.628,4.903
			c-0.222,1.642-0.418,3.376-0.568,5.145c-0.64,7.041-0.842,14.429-0.675,21.879c0.326,14.91,2.176,30.039,4.496,43.486
			c2.317,13.456,5.064,25.256,7.158,33.697c2.107,8.439,3.531,13.539,3.531,13.539s1.624,6.122,4.479,15.846
			c2.829,9.724,7.03,23.037,11.611,37.422c0.562,1.793,1.129,3.605,1.701,5.434c0.514,1.692,1.031,3.398,1.553,5.114
			c-0.168-0.122-0.336-0.242-0.502-0.362c-5.57-4.239-10.506-9.048-14.699-13.841c-4.203-4.79-7.704-9.521-10.58-13.652
			c-3.775-5.462-6.237-9.78-8.164-13.025c-1.853-3.301-3.11-5.585-4.021-7.354c-5.46-10.393-9.704-18.642-14.141-26.402
			c-4.384-7.793-8.985-15.077-14.064-24.197c0.214,10.47,1.217,19.301,3.239,28.357c2.019,8.764,5.031,17.798,10.424,28.512
			c0.172,0.342,0.347,0.686,0.523,1.03c0.955,1.897,2.285,4.357,4.266,7.912c2.064,3.513,4.704,8.163,8.832,14.158
			c3.144,4.542,7.002,9.776,11.741,15.186c4.731,5.406,10.399,10.965,17.031,16.009c0.128,0.086,0.256,0.172,0.384,0.258
			c8.065-5.251,16.951-9.351,26.42-12.064c-0.406-1.484-0.836-2.971-1.268-4.443c-0.602-1.979-1.2-3.947-1.793-5.9
			c-0.584-1.855-1.162-3.697-1.734-5.518c-4.631-14.483-8.772-27.545-11.571-37.104c-0.22-0.745-0.433-1.468-0.637-2.168
			c-0.196-0.67-0.386-1.319-0.567-1.946c-2.063-7.115-3.209-11.4-3.209-11.4s-1.383-4.99-3.419-13.203
			c-2.024-8.212-4.668-19.661-6.874-32.573c-2.212-12.904-3.939-27.292-4.231-41.159c-0.152-6.93,0.04-13.724,0.619-20.099
			c0.135-1.588,0.312-3.157,0.529-4.76c0.202-1.585,0.402-3.147,0.599-4.68c0.421-3.06,0.693-6.036,1.222-8.812
			c2.823-17.893,5.891-28.626,7.496-34.188c1.606-5.458,3.044-10.344,4.38-14.884c0.452-1.536,0.893-3.033,1.323-4.499
			c0.925-3.14,1.807-6.138,2.673-9.083c0.673-2.079,1.277-4.177,1.899-6.282c0.332-1.044,0.664-2.088,0.997-3.138
			c0.321-1.063,0.65-2.131,1.026-3.184c0.36-1.071,0.725-2.151,1.092-3.244c0.401-1.086,0.807-2.184,1.218-3.299
			c0.508-1.264,1.02-2.567,1.596-3.881C335.372,92.943,335.836,91.961,336.36,90.983"/>
		<path d="M270.85,119.349c-2.015,4.827-3.508,8.965-4.666,13.404c-1.144,4.442-1.991,9.193-2.441,15.313
			c-0.09,1.036-0.18,2.398-0.293,4.381c-0.134,1.98-0.26,4.584-0.388,8.104c-0.1,2.14-0.127,5.023-0.18,8.137
			c0.019,3.12,0.008,6.471,0.15,9.564c0.065,3.088,0.303,5.917,0.431,7.968c0.064,1.026,0.125,1.858,0.196,2.436
			c0.061,0.577,0.095,0.897,0.095,0.897s0.108,1.071,0.285,2.828c0.122,1.769,0.578,4.161,0.987,6.869
			c0.215,1.352,0.441,2.777,0.672,4.228c0.247,1.446,0.422,2.939,0.773,4.36c0.63,2.862,1.24,5.637,1.749,7.947
			c0.264,1.149,0.477,2.256,0.748,3.287c0.276,1.03,0.539,2.007,0.787,2.933c0.498,1.852,0.941,3.499,1.332,4.954
			c0.751,2.92,1.439,5.024,1.89,6.475c0.933,2.928,1.774,5.538,2.763,7.885c0.982,2.35,1.976,4.484,3.02,6.526
			c2.162,4.057,4.538,7.759,7.623,11.981c-0.745-5.172-1.271-9.479-2.153-13.907c-0.404-2.227-0.898-4.48-1.529-6.889
			c-0.637-2.406-1.273-5.009-2.155-7.875c-0.425-1.42-1.088-3.479-1.808-6.32c-0.378-1.416-0.805-3.02-1.285-4.822
			c-0.241-0.901-0.495-1.852-0.763-2.854c-0.264-1.003-0.466-2.07-0.72-3.183c-0.492-2.234-1.083-4.918-1.691-7.687
			c-0.346-1.379-0.509-2.8-0.75-4.188c-0.224-1.39-0.444-2.755-0.653-4.049c-0.4-2.59-0.854-4.896-0.972-6.562
			c-0.175-1.665-0.282-2.68-0.282-2.68s-0.03-0.304-0.086-0.851c-0.066-0.545-0.12-1.341-0.177-2.324
			c-0.114-1.966-0.333-4.665-0.387-7.649c-0.13-2.975-0.111-6.227-0.129-9.248c0.054-3.027,0.076-5.827,0.161-7.916
			c0.12-3.432,0.237-5.974,0.361-7.912c0.103-1.938,0.182-3.271,0.26-4.287c0.38-5.994,0.507-10.711,0.322-15.232
			C271.777,128.867,271.331,124.551,270.85,119.349z"/>
		<path d="M264.096,161.221c-1.902-1.803-3.974-3.204-6.244-4.228c-2.268-1-4.834-1.648-7.715-1.281
			c-1.423,0.188-2.921,0.625-4.3,1.418c-1.379,0.784-2.627,1.859-3.685,3.114c-2.045,2.544-3.315,5.662-3.971,9.002
			c-0.237,1.164-0.471,2.58-0.701,4.625c-0.244,2.051-0.468,4.729-0.574,8.332c-0.098,2.689-0.059,7.21,0.211,11.047
			c0.257,3.838,0.667,6.996,0.667,6.996s0.297,2.647,0.888,6.013c0.579,3.367,1.533,7.446,2.45,10.321
			c2.852,9.397,6.643,14.8,8.849,17.385c2.24,2.641,4.847,4.654,7.582,5.916c2.734,1.273,5.532,1.782,8.145,1.768
			c1.309-0.086,2.566-0.162,3.831-0.478c0.614-0.102,1.284-0.375,1.9-0.57c0.312-0.107,0.64-0.288,0.95-0.433
			c0.312-0.146,0.619-0.306,0.924-0.534c1.214-0.755,2.312-2.122,2.518-3.594c0.126-0.728,0.067-1.445-0.113-2.095
			c-0.172-0.653-0.444-1.264-0.805-1.809c0.109,1.287-0.152,2.534-0.755,3.284c-0.599,0.775-1.364,1.054-2.223,1.165
			c-1.695,0.233-3.734-0.226-5.599-0.699c-3.695-1.164-6.955-3.009-10.321-7.022c-1.61-1.964-4.699-6.181-7.274-14.609
			c-0.809-2.567-1.694-6.287-2.244-9.395c-0.562-3.106-0.858-5.574-0.858-5.574s-0.359-2.946-0.583-6.54
			c-0.236-3.594-0.261-7.824-0.194-10.323c0.094-3.35,0.295-5.812,0.509-7.66c0.201-1.858,0.405-3.111,0.571-3.964
			c0.478-2.618,1.236-4.654,2.116-6.203c0.927-1.49,1.961-2.544,3.491-3.256c1.509-0.733,3.445-1.072,5.573-1.082
			C259.243,160.256,261.586,160.522,264.096,161.221z"/>
		<path d="M325.555,234.161c-2.933,1.42-4.586,2.742-4.985,5.325c-0.225,1.404-0.673,5.652-0.585,9.587
			c0.039,0.983,0.078,1.945,0.113,2.833c0.049,0.889,0.158,1.706,0.22,2.399c0.073,0.693,0.134,1.263,0.176,1.66
			c0.067,0.396,0.104,0.619,0.104,0.619s0.145,0.893,0.367,2.277c0.09,0.695,0.304,1.501,0.513,2.382
			c0.233,0.876,0.398,1.841,0.731,2.797c0.322,0.958,0.65,1.937,0.971,2.889c0.334,0.947,0.787,1.829,1.142,2.656
			c0.683,1.669,1.509,2.921,1.884,3.561c0.357,0.585,0.75,1.063,1.183,1.454c0.442,0.383,0.991,0.64,1.549,0.853
			c1.134,0.413,2.462,0.563,4.046,0.581c0.352-1.639,0.646-2.878,0.684-3.937c0.027-0.535-0.043-0.998-0.133-1.485
			c-0.081-0.494-0.242-0.969-0.504-1.452c-0.272-0.53-0.934-1.522-1.473-2.89c-0.281-0.676-0.658-1.377-0.931-2.158
			c-0.266-0.784-0.539-1.59-0.807-2.378c-0.285-0.782-0.418-1.604-0.621-2.333c-0.181-0.737-0.372-1.407-0.448-2.003
			c-0.2-1.177-0.33-1.937-0.33-1.937s-0.031-0.19-0.086-0.527c-0.032-0.343-0.079-0.835-0.137-1.434
			c-0.047-0.6-0.141-1.3-0.176-2.073c-0.027-0.775-0.057-1.613-0.086-2.47c-0.062-3.443,0.335-7.208,0.47-8.451
			C328.649,238.192,327.534,236.756,325.555,234.161z"/>
		<path d="M378.908,241.59c-1.659,3.662-2.26,6.323-0.805,10.047c0.417,1.004,1.253,3.014,2.606,5.388
			c1.355,2.363,3.209,5.141,5.817,7.437c1.291,1.141,2.765,2.162,4.35,2.843c1.564,0.688,3.175,1.097,4.552,1.176
			c0.343,0.025,0.673,0.06,0.983,0.063c0.309-0.012,0.601-0.023,0.875-0.033c0.552-0.017,1.021-0.06,1.392-0.136
			c0.751-0.133,1.173-0.207,1.173-0.207c0,0,0.107-0.018,0.294-0.074c0.188-0.054,0.466-0.134,0.82-0.236
			c0.683-0.193,1.783-0.541,3.132-1.358c0.339-0.231,0.688-0.484,1.041-0.754c0.344-0.317,0.707-0.636,1.038-1.019
			c0.661-0.77,1.261-1.714,1.63-2.705c0.784-2.012,0.811-3.929,0.743-5.616c-0.226-3.35-0.905-6.166-1.294-8.541
			c-0.415-2.347-0.635-4.179-0.708-5.085c-0.161-1.676-0.509-2.925-1.085-4.208c-0.567-1.284-1.384-2.589-2.242-4.41
			c-3.154,2.458-4.784,5.133-4.552,9.231c0.054,1.116,0.305,3.316,0.746,5.836c0.422,2.497,1.057,5.386,1.194,7.61
			c0.06,1.084-0.04,1.959-0.199,2.3c-0.157,0.343-0.218,0.441-0.548,0.667c-0.338,0.197-0.781,0.381-1.182,0.481
			c-0.37,0.108-0.578,0.189-0.577,0.174c0,0-0.202,0.032-0.561,0.088c-0.181,0.047-0.394,0.058-0.634,0.057
			c-0.12,0.007-0.249,0.014-0.386,0.022c-0.135-0.002-0.271-0.03-0.418-0.039c-1.151-0.078-2.718-0.636-4.316-2.09
			c-1.601-1.393-3.076-3.504-4.166-5.417c-1.104-1.918-1.848-3.656-2.233-4.507C384.021,245.376,382.133,243.974,378.908,241.59z"/>
		<path d="M316.774,312.505c1.881,1.816,3.895,3.281,5.945,4.491c2.056,1.225,4.173,2.218,6.433,3.02
			c4.52,1.57,9.627,2.449,16.078,2.13c1.088-0.096,2.518-0.222,4.595-0.405c1.029-0.143,2.208-0.373,3.59-0.608
			c0.689-0.122,1.429-0.253,2.222-0.394c0.796-0.132,1.61-0.403,2.5-0.622c0.798-0.212,1.664-0.442,2.586-0.687
			c0.922-0.247,1.91-0.484,2.891-0.873c0.992-0.357,2.028-0.73,3.097-1.115c0.533-0.193,1.075-0.39,1.624-0.588
			c0.551-0.192,1.105-0.396,1.637-0.66c2.152-0.995,4.404-1.996,6.61-3.062c2.129-1.197,4.251-2.391,6.286-3.535
			c4.051-2.457,7.59-5.11,9.893-7.243c0.591-0.522,1.125-0.995,1.596-1.411c0.444-0.44,0.828-0.82,1.142-1.13
			c0.627-0.622,0.975-0.966,0.975-0.966s0.291-0.288,0.821-0.812c0.513-0.539,1.227-1.345,2.127-2.335
			c1.8-1.981,4.105-4.888,6.487-8.272c2.354-3.402,4.692-7.33,6.753-11.231c2.062-3.904,3.768-7.81,5.133-11.077
			c3.559-8.861,5.113-14.542,5.945-17.494c1.647-5.988,2.338-10.827,2.565-15.444c0.206-4.617-0.056-9.048-0.796-14.229
			c-1.77,4.912-3.413,8.896-4.898,13.132c-1.506,4.228-2.847,8.695-4.479,14.401c-0.821,2.811-2.33,8.244-5.702,16.619
			c-1.295,3.081-2.899,6.762-4.821,10.404c-1.92,3.641-4.08,7.282-6.232,10.408c-2.179,3.103-4.265,5.752-5.883,7.539
			c-0.809,0.894-1.459,1.614-1.907,2.11c-0.475,0.469-0.734,0.727-0.734,0.727s-0.312,0.307-0.874,0.861
			c-0.281,0.277-0.624,0.616-1.022,1.01c-0.419,0.367-0.896,0.785-1.423,1.247c-0.53,0.456-1.098,0.974-1.729,1.497
			c-0.65,0.497-1.344,1.027-2.073,1.584c-0.714,0.581-1.517,1.106-2.348,1.648c-0.847,0.532-1.636,1.153-2.611,1.653
			c-1.883,1.055-3.847,2.157-5.817,3.261c-2.027,0.971-4.087,1.881-6.055,2.798c-0.487,0.245-0.99,0.427-1.49,0.599
			c-0.497,0.179-0.988,0.355-1.472,0.53c-0.968,0.35-1.905,0.689-2.804,1.015c-0.89,0.36-1.774,0.567-2.602,0.789
			c-0.827,0.222-1.604,0.431-2.319,0.623c-0.797,0.197-1.53,0.451-2.238,0.565c-0.706,0.125-1.363,0.241-1.978,0.35
			c-1.228,0.211-2.277,0.425-3.19,0.557c-1.833,0.172-3.095,0.29-4.056,0.38c-5.676,0.332-10.114,0.248-14.43,0.079
			c-2.156-0.103-4.279-0.245-6.499-0.502c-0.557-0.068-1.119-0.138-1.689-0.208c-0.569-0.08-1.136-0.191-1.727-0.286
			C319.229,313.14,318.028,312.877,316.774,312.505z"/>
		<path d="M321.502,130.155c2.604-0.031,5.02,0.397,7.295,0.897c2.275,0.513,4.412,1.203,6.453,1.949
			c4.082,1.5,7.797,3.299,11.467,5.331c7.32,4.079,14.588,8.895,23.438,16.028c2.957,2.457,7.927,6.345,16.883,16.18
			c3.243,3.67,8.568,10.025,12.739,15.791c2.092,2.876,3.949,5.538,5.301,7.488c1.314,1.997,2.134,3.24,2.134,3.24
			s2.71,4.185,6.171,9.528c3.239,5.47,7.361,12.029,9.945,16.895c8.849,15.883,13.366,26.163,15.666,31.524
			c0.592,1.354,1.168,2.672,1.729,3.957c0.288,0.64,0.573,1.271,0.854,1.894c0.263,0.629,0.522,1.251,0.779,1.865
			c1.033,2.455,2.077,4.773,3.096,7.002c0.951,2.248,1.912,4.397,2.893,6.481c0.977,2.085,1.845,4.136,2.816,6.14
			c1.887,4.038,3.729,7.979,5.639,12.069c1.854,4.134,3.842,8.422,5.515,13.362c0.843-5.175,1.028-10.067,1.027-14.782
			c-0.05-4.713-0.38-9.281-1.051-13.906c-0.366-2.301-0.714-4.659-1.246-7.024c-0.536-2.364-1.133-4.785-1.804-7.292
			c-0.733-2.479-1.572-5.028-2.483-7.699c-0.231-0.667-0.466-1.341-0.703-2.023c-0.265-0.67-0.533-1.349-0.805-2.036
			c-0.56-1.369-1.132-2.772-1.722-4.215c-2.371-5.681-7.096-16.513-16.312-33.084c-2.682-5.094-6.979-11.895-10.381-17.562
			c-3.623-5.519-6.46-9.84-6.46-9.84s-0.84-1.295-2.189-3.374c-1.407-2.061-3.371-4.913-5.585-7.986
			c-4.416-6.164-10.156-13.063-13.735-17.029c-9.798-10.74-15.461-15.163-18.844-17.91c-10.125-8.014-19.769-12.532-29.39-14.598
			c-4.807-1.03-9.641-1.406-14.535-1.056c-2.444,0.178-4.903,0.519-7.36,1.125C326.292,128.101,323.809,128.894,321.502,130.155z"/>
		<path d="M209.39,280.761c-9.863,3.528-17.903,7.314-25.842,12.068c-7.921,4.793-15.747,10.663-24.699,19.264
			c-2.986,2.958-7.99,7.642-17.494,18.253c-2.148,2.346-4.339,5.025-6.748,7.809c-2.346,2.84-4.803,5.885-7.328,9.105
			c-2.448,3.284-5.106,6.632-7.598,10.28c-1.263,1.81-2.576,3.624-3.847,5.504c-1.241,1.901-2.497,3.826-3.765,5.769
			c-1.296,1.924-2.491,3.941-3.702,5.969c-1.201,2.032-2.468,4.043-3.632,6.129c-2.273,4.205-4.687,8.378-6.739,12.747
			c-4.385,8.587-7.953,17.563-11.14,26.236c-2.946,8.769-5.455,17.28-7.081,25.209c-0.411,1.98-0.812,3.913-1.202,5.792
			c-0.439,1.87-0.614,3.734-0.909,5.515c-0.264,1.786-0.52,3.512-0.765,5.172c-0.122,0.83-0.241,1.644-0.358,2.439
			c-0.071,0.803-0.141,1.587-0.208,2.354c-0.268,3.067-0.509,5.846-0.722,8.288c-0.135,1.219-0.135,2.361-0.166,3.412
			c-0.026,1.051-0.052,2.011-0.073,2.875c-0.086,3.457-0.134,5.374-0.134,5.374s-0.01,0.401-0.03,1.168
			c-0.045,0.758,0.029,1.922,0.054,3.401c0.051,1.483,0.047,3.3,0.23,5.417c0.075,1.058,0.155,2.19,0.24,3.393
			c0.082,1.202,0.268,2.471,0.41,3.806c0.616,5.334,1.671,11.711,3.625,18.665c1.926,6.952,4.699,14.496,8.585,22
			c3.864,7.504,8.718,15.021,14.496,21.928c5.719,6.962,12.294,13.328,19.182,18.996c13.824,11.328,28.902,19.648,41.752,25.502
			c8.753,3.966,16.01,6.699,21.787,8.708c5.779,2.009,10.077,3.32,13.035,4.182c11.974,3.486,21.675,4.955,30.931,5.426
			c9.257,0.411,18.129-0.096,28.481-1.686c-9.854-3.436-17.813-6.737-26.264-9.697c-8.431-3.019-17.314-5.77-28.63-9.188
			c-2.796-0.844-6.86-2.109-12.307-4.021c-5.445-1.91-12.266-4.495-20.428-8.2c-11.98-5.465-25.863-13.172-38.271-23.337
			c-6.182-5.086-12.011-10.729-17.021-16.823c-5.074-6.047-9.268-12.559-12.617-19.035c-6.735-12.981-9.573-25.921-10.618-35.28
			c-0.125-1.175-0.297-2.284-0.368-3.347c-0.076-1.062-0.147-2.062-0.214-2.996c-0.171-1.865-0.163-3.486-0.211-4.803
			c-0.022-1.322-0.099-2.329-0.054-3.042c0.019-0.704,0.027-1.073,0.027-1.073s0.048-1.762,0.134-4.938
			c0.021-0.795,0.044-1.677,0.069-2.643c0.028-0.966,0.025-2.016,0.155-3.137c0.199-2.245,0.426-4.799,0.676-7.618
			c0.062-0.705,0.125-1.427,0.189-2.164c0.11-0.732,0.223-1.481,0.338-2.245c0.229-1.527,0.466-3.115,0.712-4.759
			c0.273-1.638,0.426-3.354,0.84-5.077c0.362-1.731,0.736-3.513,1.118-5.339c1.501-7.309,3.84-15.178,6.571-23.307
			c2.978-8.049,6.288-16.4,10.404-24.434c1.914-4.082,4.191-7.998,6.319-11.943c1.094-1.958,2.292-3.851,3.42-5.763
			c1.139-1.906,2.262-3.806,3.488-5.621c1.196-1.833,2.381-3.648,3.552-5.443c1.2-1.775,2.446-3.492,3.64-5.204
			c2.35-3.451,4.88-6.627,7.194-9.744c2.396-3.058,4.729-5.954,6.957-8.657c2.293-2.652,4.368-5.206,6.415-7.446
			c9.047-10.13,13.818-14.635,16.645-17.491c8.478-8.311,15.016-14.954,21.018-21.613
			C196.936,295.168,202.356,288.471,209.39,280.761z"/>
		<path d="M258.018,623.174c5.635-8.806,10.199-16.254,14.341-24.372c2.071-4.059,4.036-8.285,5.976-12.933
			c0.97-2.323,1.933-4.752,2.9-7.318c0.863-2.444,1.748-4.946,2.655-7.515c0.939-2.73,1.903-5.531,2.894-8.41
			c0.118-0.348,0.239-0.705,0.708-2.088c-2.144-0.286-4.593-0.613-7.495-1.001c-1.472-0.186-2.919-0.486-4.566-0.756
			c-0.815-0.141-1.662-0.287-2.543-0.439c-0.439-0.077-0.879-0.194-1.332-0.293c-0.432-0.1-0.872-0.2-1.32-0.304
			c-3.399-0.799-7.851-2.065-13.727-4.156c-1.277-0.491-2.801-0.978-4.423-1.662c-1.628-0.669-3.397-1.396-5.237-2.151
			c-1.812-0.826-3.692-1.684-5.567-2.538c-1.86-0.89-3.679-1.857-5.442-2.739c-1.776-0.857-3.402-1.822-4.903-2.668
			c-1.499-0.847-2.854-1.612-3.993-2.257c-2.219-1.396-3.601-2.265-3.601-2.265s-1.151-0.735-3.039-1.939
			c-1.877-1.221-4.378-3.083-7.24-5.084c-0.356-0.252-0.717-0.508-1.082-0.767c-0.352-0.278-0.707-0.559-1.065-0.842
			c-0.718-0.566-1.447-1.143-2.184-1.724c-1.475-1.161-2.974-2.342-4.451-3.505c-2.832-2.479-5.577-4.881-7.862-6.881
			c-6.384-5.949-10.903-11.33-14.179-15.762c-3.259-4.447-5.367-7.903-6.697-10.328c-2.75-4.878-4.918-9.366-6.803-13.619
			c-1.878-4.256-3.472-8.279-4.928-12.301c-1.454-4.023-2.731-8.051-3.887-12.354c-1.105-4.308-2.163-8.882-2.536-14.081
			c-2.124,4.802-3.343,9.618-4.153,14.341c-0.766,4.734-1.069,9.444-0.813,14.274c0.256,4.828,1.033,9.789,2.505,15.006
			c1.476,5.213,3.649,10.688,6.806,16.422c1.532,2.848,3.964,6.896,7.719,12.049c3.769,5.134,8.957,11.318,16.163,18.037
			c2.475,2.167,5.447,4.77,8.513,7.455c1.604,1.258,3.233,2.536,4.835,3.792c0.801,0.626,1.596,1.247,2.376,1.857
			c0.391,0.305,0.778,0.606,1.161,0.905c0.397,0.28,0.79,0.558,1.178,0.83c3.116,2.167,5.848,4.164,7.896,5.481
			c2.061,1.299,3.318,2.092,3.318,2.092s1.499,0.954,3.904,2.485c1.238,0.71,2.71,1.555,4.339,2.488
			c1.632,0.93,3.402,1.984,5.339,2.936c1.923,0.975,3.907,2.035,5.941,3.015c2.054,0.94,4.113,1.884,6.098,2.794
			c2.012,0.854,3.971,1.63,5.761,2.363c1.786,0.744,3.478,1.284,4.892,1.812c6.51,2.306,11.476,3.706,15.378,4.612l0.009-0.024
			l0.004-0.002l0.059-0.007l0.046,0.02l0.025,0.021l0.013,0.014l-0.048,0.169l-0.073,0.246c-0.785,2.628-1.489,5.144-2.126,7.58
			c-1.271,4.873-2.269,9.426-3.08,13.909C259.748,604.063,258.869,612.754,258.018,623.174z"/>
		<path d="M274.901,575.223c5.2,0.337,9.294,1.439,13.442,2.533c2.062,0.62,4.152,1.197,6.341,2.003
			c1.111,0.343,2.214,0.84,3.4,1.257c0.577,0.248,1.169,0.502,1.776,0.762c0.305,0.127,0.613,0.256,0.926,0.386
			c0.304,0.148,0.611,0.3,0.923,0.452c0.924,0.446,2.137,1.031,3.899,1.883c0.948,0.484,2.059,0.931,3.354,1.458
			c1.291,0.563,2.784,1.063,4.496,1.675c3.511,1.188,8.254,2.569,13.43,3.711c5.176,1.136,10.779,2.072,15.97,2.697
			c5.189,0.63,9.961,0.974,13.455,1.058c1.74,0.078,3.166,0.067,4.152,0.062c0.985-0.001,1.531-0.002,1.531-0.002
			s0.399,0.006,1.141-0.029c0.739-0.028,1.815-0.071,3.159-0.124c0.68-0.059,1.427-0.123,2.232-0.192
			c0.803-0.062,1.671-0.145,2.612-0.283c1.867-0.262,3.937-0.661,6.098-1.257c2.161-0.59,4.413-1.381,6.622-2.336
			c2.208-0.937,4.39-2.072,6.347-3.022c0.961-0.463,1.905-0.882,2.529-1.049c0.73-0.17,0.416-0.067,0.476-0.104l-0.005-0.004
			l0.041,0.051l0.017,0.006l-0.007-0.01l0.003-0.021l-0.022,0.031l-0.164,0.244c-0.13,0.17-0.241,0.33-0.373,0.481
			c-0.231,0.294-0.452,0.517-0.489,0.565c-1.28,1.394-2.822,2.659-4.206,3.748c-1.405,1.093-2.724,2.031-3.902,2.849
			c-2.364,1.63-4.175,2.775-5.414,3.562c-5.034,3.168-8.96,5.781-12.556,8.519c-3.606,2.728-6.894,5.569-10.864,8.964
			c5.104-1.139,9.345-2.284,13.65-3.879c4.302-1.608,8.68-3.654,13.958-6.901c1.302-0.809,3.196-1.991,5.731-3.729
			c1.267-0.873,2.693-1.883,4.277-3.109c1.581-1.251,3.323-2.635,5.198-4.653c0.068-0.084,0.364-0.384,0.776-0.896
			c0.206-0.24,0.441-0.558,0.689-0.894c0.124-0.167,0.252-0.37,0.382-0.564c0.159-0.238,0.329-0.531,0.49-0.837
			c0.977-1.778,1.402-3.979,0.607-5.951c-0.351-0.982-1.026-1.87-1.73-2.714c-0.176-0.204-0.386-0.405-0.565-0.581
			c-0.184-0.171-0.338-0.333-0.575-0.507c-0.438-0.347-0.902-0.659-1.407-0.907c-1-0.504-2.118-0.797-3.258-0.816
			c-1.161-0.016-2.102,0.17-2.884,0.389c-1.583,0.453-2.736,1.024-3.855,1.551c-2.191,1.069-4.108,2.071-6.036,2.891
			c-1.913,0.831-3.789,1.489-5.593,1.986c-1.801,0.5-3.523,0.836-5.091,1.06c-1.553,0.234-3.049,0.294-4.236,0.425
			c-1.226,0.051-2.206,0.091-2.881,0.119c-0.673,0.035-1.046,0.03-1.046,0.03s-0.507-0.001-1.422-0.003
			c-0.915,0.001-2.235,0.01-3.877-0.069c-3.272-0.084-7.808-0.421-12.754-1.029c-4.946-0.604-10.302-1.506-15.214-2.586
			c-4.913-1.086-9.354-2.381-12.588-3.461c-1.563-0.558-2.944-1.014-4.082-1.512c-1.158-0.47-2.157-0.864-2.958-1.276
			c-1.779-0.845-3.003-1.427-3.936-1.869c-0.373-0.173-0.741-0.345-1.104-0.513c-0.374-0.144-0.742-0.285-1.106-0.425
			c-0.731-0.272-1.44-0.548-2.144-0.78c-1.428-0.401-2.773-0.83-4.112-1.051c-2.649-0.564-5.153-0.693-7.553-0.684
			C284.227,572.158,279.692,573.062,274.901,575.223z"/>
		<path d="M263.42,608.992c3.618,3.794,7.156,6.561,11.101,9.044c1.994,1.204,4.09,2.385,6.469,3.4
			c1.188,0.511,2.409,1.095,3.743,1.549c1.33,0.469,2.732,0.938,4.222,1.412c0.507,0.153,1.084,0.36,1.791,0.551
			c0.709,0.185,1.534,0.399,2.511,0.654c1.957,0.5,4.508,1.233,8.027,1.874c0.935,0.188,1.91,0.383,2.922,0.586
			c0.506,0.101,1.021,0.204,1.545,0.309c0.528,0.075,1.065,0.152,1.611,0.23c2.184,0.307,4.501,0.633,6.925,0.974
			c2.438,0.197,4.984,0.403,7.608,0.615c0.656,0.052,1.318,0.104,1.983,0.155c0.668,0.011,1.34,0.022,2.016,0.034
			c1.352,0.021,2.721,0.041,4.102,0.062c1.382,0.014,2.776,0.054,4.179,0.046c1.401-0.07,2.812-0.142,4.229-0.214
			s2.839-0.146,4.264-0.219c0.712-0.042,1.427-0.061,2.138-0.123l2.126-0.252c2.833-0.339,5.663-0.678,8.462-1.013
			c2.776-0.463,5.504-1.026,8.183-1.522c1.338-0.255,2.661-0.508,3.967-0.757c1.277-0.295,2.537-0.585,3.776-0.871
			c2.476-0.582,4.861-1.17,7.134-1.748c4.545-1.153,8.631-2.288,12.058-3.283s6.195-1.854,8.105-2.464
			c1.909-0.617,2.968-0.959,2.968-0.959s3.551-1.125,9.301-3.214c5.742-2.107,13.688-5.185,22.312-9.48
			c4.308-2.159,8.786-4.612,13.184-7.569c2.197-1.486,4.375-3.09,6.471-4.979c1.047-0.952,2.076-1.957,3.06-3.151
			c0.491-0.588,0.97-1.243,1.428-1.957l0.335-0.565c0.056-0.091,0.109-0.197,0.163-0.3l0.213-0.425
			c0.155-0.304,0.256-0.597,0.371-0.891c0.125-0.291,0.217-0.59,0.291-0.893c0.704-2.391,0.153-5.031-1.577-6.752
			c-0.437-0.41-0.868-0.84-1.365-1.182c-0.521-0.315-1.038-0.641-1.626-0.835c-0.57-0.221-1.163-0.403-1.826-0.506
			c-0.658-0.12-1-0.142-1.461-0.155c-1.749-0.066-3.232,0.146-4.606,0.416c-1.362,0.284-2.652,0.617-3.861,0.997
			c-4.851,1.513-9.002,3.319-12.799,4.896c-8.566,3.665-13.752,5.707-16.502,6.674c-2.794,1.016-5.139,1.815-7.56,2.65
			c-2.363,0.839-4.518,1.702-6.595,2.624c-4.169,1.816-7.961,3.993-12.593,6.396c5.238,0.048,9.596-0.267,14.129-0.804
			c2.267-0.285,4.575-0.661,7.054-1.167c2.431-0.469,5.279-1.216,8.202-2.25c2.924-0.993,8.441-3.155,16.949-6.789
			c3.733-1.554,7.843-3.313,12.036-4.614c1.049-0.331,2.084-0.591,3.092-0.804c0.998-0.205,1.962-0.302,2.679-0.272l0.268,0.006
			l0.112,0.022l-0.05-0.014l-0.012-0.007l-0.005-0.025l0.01-0.022v-0.001l-0.062,0.117l-0.149,0.253
			c-0.229,0.351-0.494,0.729-0.818,1.113c-0.63,0.772-1.422,1.557-2.258,2.315c-1.685,1.522-3.606,2.953-5.585,4.291
			c-3.972,2.677-8.197,5.006-12.287,7.058c-8.202,4.098-15.908,7.099-21.478,9.147c-5.582,2.036-9.046,3.139-9.046,3.139
			s-1.032,0.332-2.895,0.932c-1.864,0.593-4.568,1.428-7.919,2.397c-3.352,0.969-7.352,2.074-11.808,3.2
			c-2.228,0.565-4.567,1.139-6.997,1.708c-1.215,0.279-2.451,0.562-3.704,0.851c-1.246,0.235-2.509,0.474-3.786,0.715
			c-2.556,0.47-5.158,1.009-7.805,1.45c-2.664,0.316-5.358,0.636-8.056,0.956l-2.023,0.242c-0.676,0.059-1.354,0.074-2.031,0.114
			c-1.354,0.068-2.706,0.136-4.052,0.204s-2.686,0.138-4.017,0.206c-1.331,0.006-2.654-0.035-3.964-0.049
			c-1.311-0.02-2.609-0.039-3.892-0.059c-0.642-0.01-1.278-0.02-1.912-0.029c-0.631-0.051-1.257-0.1-1.879-0.149
			c-2.486-0.2-4.898-0.394-7.209-0.579c-2.294-0.321-4.487-0.629-6.554-0.919c-0.517-0.072-1.025-0.144-1.525-0.214
			c-0.495-0.099-0.982-0.196-1.461-0.292c-0.956-0.19-1.878-0.375-2.763-0.551c-3.33-0.598-5.736-1.288-7.586-1.753
			c-0.924-0.234-1.704-0.434-2.374-0.604c-0.668-0.176-1.213-0.368-1.692-0.508c-2.827-0.832-5.349-1.573-7.691-2.262
			c-2.368-0.637-4.526-1.292-6.686-1.842C272.557,611.537,268.371,610.638,263.42,608.992z"/>
		<path d="M412,267.254c-2.58,2.083-3.961,3.669-3.927,6.347c0.001,1.455,0.22,5.816,0.766,9.82
			c0.254,2.001,0.648,3.915,0.877,5.324c0.318,1.411,0.555,2.32,0.556,2.32c0,0,0.217,0.911,0.555,2.323
			c0.382,1.362,0.959,3.138,1.54,5.03c0.294,0.942,0.595,1.906,0.887,2.843c0.288,0.937,0.572,1.847,0.908,2.675
			c0.639,1.656,1.163,3.015,1.425,3.694c0.473,1.24,1.266,2.105,2.293,2.751c0.511,0.324,1.082,0.594,1.722,0.833
			c0.62,0.236,1.413,0.469,2.194,0.614c0.291-0.817,0.56-1.434,0.811-2.09c0.242-0.639,0.43-1.219,0.545-1.771
			c0.229-1.101,0.163-2.074-0.228-3.274c-0.233-0.632-0.7-1.897-1.27-3.44c-0.307-0.757-0.577-1.626-0.853-2.523
			c-0.281-0.894-0.57-1.813-0.854-2.712c-0.559-1.794-1.133-3.519-1.494-4.771c-0.303-1.231-0.497-2.025-0.497-2.025
			s-0.186-0.797-0.474-2.033c-0.189-1.276-0.535-2.977-0.76-4.804c-0.48-3.649-0.688-7.704-0.751-9.049
			C415.822,270.844,414.467,269.492,412,267.254z"/>
		<path d="M431.924,340.194c-0.154,2.622,0.08,5.078,0.422,7.422c0.369,2.341,0.886,4.593,1.607,6.836
			c1.446,4.484,3.604,9.007,7.159,14.189c0.619,0.864,1.434,1.999,2.616,3.648c1.272,1.573,2.826,3.742,5.192,6.426
			c0.544,0.64,1.447,1.733,2.268,2.613c0.827,0.874,1.511,1.596,1.511,1.596s0.561,0.614,1.276,1.398
			c0.36,0.391,0.76,0.823,1.147,1.242c0.406,0.396,0.801,0.781,1.129,1.102c1.698,1.655,3.234,3.152,4.617,4.501
			c0.693,0.673,1.348,1.309,1.965,1.909c0.65,0.565,1.261,1.098,1.833,1.598c2.294,1.992,3.982,3.459,5.141,4.465
			c2.425,1.941,4.684,3.558,6.802,5.009c2.174,1.386,4.272,2.527,6.325,3.591c4.211,1.971,8.36,3.572,13.487,4.721
			c-3.957-3.387-6.904-6.544-10.225-9.514c-1.608-1.565-3.321-3.061-5.19-4.657c-1.818-1.667-3.854-3.354-6.149-5.229
			c-1.103-0.968-2.709-2.379-4.893-4.297c-0.547-0.479-1.129-0.988-1.749-1.531c-0.591-0.576-1.216-1.188-1.878-1.834
			c-1.323-1.293-2.794-2.729-4.419-4.316c-0.313-0.307-0.691-0.675-1.081-1.056c-0.372-0.393-0.755-0.799-1.101-1.164
			c-0.692-0.73-1.235-1.302-1.235-1.302s-0.635-0.696-1.402-1.538c-0.766-0.845-1.605-1.883-2.139-2.471
			c-2.242-2.531-3.692-4.559-4.898-6.031c-1.114-1.535-1.881-2.591-2.465-3.396c-3.287-4.758-5.862-8.487-8.422-12.193
			c-1.251-1.811-2.459-3.593-3.692-5.481C434.275,344.548,433.008,342.563,431.924,340.194z"/>
		<path d="M470.084,455.683c4.055-3.296,7.697-6.473,11.074-9.684c1.68-1.612,3.331-3.212,4.92-4.858
			c1.566-1.663,3.104-3.351,4.628-5.092c1.546-1.725,2.994-3.563,4.457-5.476c1.454-1.917,2.95-3.888,4.396-6.019
			c2.804-4.326,5.831-8.981,8.609-14.624c0.484-0.945,1.045-2.039,1.715-3.348c0.334-0.655,0.695-1.364,1.089-2.135
			c0.36-0.775,0.749-1.614,1.17-2.523c0.84-1.82,1.811-3.925,2.942-6.38c1.129-2.457,2.301-5.352,3.712-8.631
			c0.734-1.692,1.427-3.618,2.203-5.578c0.786-1.949,1.518-4.057,2.242-6.173c0.366-1.055,0.739-2.102,1.057-3.203
			c0.271-0.891,0.538-1.774,0.802-2.644l-0.016,0.036c6.732-0.461,13.628-0.932,20.183-1.38c1.984-0.137,3.943-0.271,5.867-0.402
			l-0.027-0.003l-0.006-0.02l0.002-0.011l0.002,0.009c0.009,0.21,0.018,0.417,0.026,0.623c0.156,3.265,0.212,6.29,0.287,8.977
			c0.03,2.69,0.056,5.048,0.077,6.995c-0.026,3.896-0.042,6.149-0.042,6.149s-0.01,0.853-0.027,2.405
			c-0.05,1.55-0.121,3.799-0.209,6.591c-0.059,2.796-0.311,6.12-0.492,9.841c-0.076,1.863-0.285,3.808-0.434,5.838
			c-0.177,2.025-0.305,4.14-0.537,6.294c-0.5,4.304-0.902,8.866-1.637,13.44c-0.353,2.289-0.62,4.622-1.046,6.914
			c-0.423,2.292-0.846,4.586-1.266,6.862c-0.372,2.291-0.958,4.494-1.448,6.69c-0.528,2.182-0.953,4.365-1.535,6.428
			c-0.591,2.059-1.167,4.063-1.723,5.998c-0.276,0.968-0.547,1.917-0.812,2.848c-0.322,0.902-0.637,1.786-0.943,2.648
			c-0.735,2.076-1.436,4.053-2.102,5.935c-0.688,1.88-1.505,3.651-2.188,5.338c-0.714,1.681-1.353,3.286-2.017,4.77
			c-0.691,1.471-1.342,2.853-1.951,4.148c-0.607,1.297-1.176,2.509-1.705,3.637c-0.575,1.103-1.108,2.124-1.601,3.067
			c-0.985,1.885-1.807,3.457-2.475,4.736c-5.64,10.214-10.231,18.074-14.613,25.687c-1.118,1.884-2.166,3.809-3.309,5.666
			c-0.558,0.947-1.116,1.895-1.678,2.848c-0.579,0.945-1.161,1.896-1.748,2.854c-2.404,3.806-4.899,7.812-8.213,11.835
			c4.849-2.015,9.064-4.547,13.013-7.169c0.972-0.683,1.935-1.36,2.894-2.034c0.95-0.69,1.851-1.421,2.77-2.144
			c1.856-1.432,3.569-2.994,5.312-4.594c6.872-6.465,13.187-14.294,19.396-25.286c0.753-1.364,1.634-3.062,2.711-5.091
			c0.534-1.016,1.114-2.116,1.739-3.304c0.574-1.21,1.19-2.51,1.85-3.901c0.658-1.393,1.36-2.877,2.106-4.456
			c0.716-1.591,1.406-3.305,2.173-5.104c0.741-1.817,1.598-3.677,2.361-5.743c0.741-2.082,1.521-4.271,2.34-6.569
			c0.339-0.955,0.687-1.934,1.041-2.935c0.292-1.012,0.591-2.046,0.895-3.099c0.605-2.107,1.232-4.292,1.876-6.534
			c0.63-2.244,1.09-4.57,1.656-6.923c0.526-2.357,1.148-4.744,1.546-7.172c0.444-2.423,0.892-4.864,1.339-7.305
			c0.448-2.44,0.73-4.89,1.099-7.312c0.767-4.845,1.185-9.618,1.697-14.142c0.239-2.262,0.37-4.465,0.55-6.585
			c0.151-2.12,0.363-4.159,0.439-6.098c0.183-3.875,0.434-7.346,0.488-10.25c0.084-2.903,0.152-5.241,0.199-6.854
			c0.015-1.612,0.022-2.498,0.022-2.498s0.022-2.342,0.06-6.388c-0.017-2.023-0.038-4.474-0.062-7.271
			c-0.071-2.799-0.123-5.941-0.279-9.362c-0.027-0.629-0.056-1.266-0.084-1.907c-0.032-0.836-0.094-1.693-0.148-2.555
			c-0.111-1.724-0.225-3.478-0.339-5.259c-0.133-1.769-0.268-3.563-0.404-5.385l-0.105-1.377l-0.014-0.173l-0.141-0.027
			l-0.347,0.021l-0.694,0.04c-0.928,0.054-1.862,0.108-2.802,0.163c-3.76,0.219-7.611,0.443-11.535,0.671
			c-2.022,0.135-4.083,0.272-6.17,0.411c-9.736,0.656-19.978,1.347-29.979,2.021c-0.458,0.031-0.922,0.062-1.389,0.094
			c-0.223,0.027-0.496,0.008-0.675,0.071l-0.141,0.685c-0.195,0.947-0.394,1.911-0.594,2.889c-0.437,1.952-0.885,3.96-1.341,6.003
			c-0.045,0.229-0.148,0.58-0.23,0.885l-0.117,0.393l-0.209,0.688c-0.14,0.46-0.28,0.924-0.421,1.389
			c-0.263,0.926-0.604,1.88-0.934,2.831c-0.649,1.9-1.3,3.799-2.037,5.631c-0.722,1.829-1.345,3.592-2.038,5.202
			c-1.337,3.11-2.428,5.833-3.506,8.19c-1.08,2.357-2.005,4.378-2.805,6.126c-0.4,0.873-0.77,1.679-1.11,2.425
			c-0.365,0.723-0.701,1.388-1.012,2.002c-0.618,1.229-1.136,2.258-1.583,3.146c-2.527,5.286-5.094,9.916-7.16,14.376
			c-1.084,2.209-2.163,4.324-3.136,6.431c-0.967,2.116-1.908,4.177-2.838,6.211c-0.928,2.041-1.811,4.083-2.666,6.153
			c-0.879,2.055-1.765,4.116-2.625,6.247C473.905,446.449,472.123,450.868,470.084,455.683z"/>
		<path d="M553.828,358.429c-0.488-5.212-1.244-9.571-2.476-14.025c-1.26-4.446-3.018-9.006-5.993-14.477
			c-1.036-1.838-2.621-4.885-6.623-10.868c-1.871-2.75-4.2-5.904-7.06-9.173c-2.865-3.257-6.282-6.641-10.45-9.594
			c-4.151-2.934-9.25-5.33-14.818-6.164c-2.76-0.366-5.339-0.385-7.854-0.313c-2.511,0.081-4.944,0.271-7.305,0.515
			c-9.426,1.006-17.759,2.665-23.81,3.89c-6.041,1.25-9.77,2.129-9.77,2.129c0,0-12.531,2.795-28.293,7.13
			c-15.779,4.294-34.787,10.108-48.231,14.813c-8.851,3.086-14.257,5.269-17.211,6.704l-0.577,0.286
			c-0.325,0.174-0.649,0.346-0.971,0.517c-0.641,0.36-1.247,0.747-1.778,1.178c-0.517,0.442-0.948,0.919-1.246,1.477
			c-0.356,0.557-0.348,1.2-0.489,1.793c-0.055,0.621,0.076,1.299,0.105,1.929c0.132,0.64,0.263,1.272,0.392,1.897
			c0.163,0.574,0.306,0.907,0.457,1.329c0.154,0.402,0.365,0.786,0.551,1.168c1.575,3.062,4.414,5.147,7.134,5.943
			c2.756,0.827,5.342,0.619,7.744,0.111c2.427-0.479,4.691-1.495,7.027-2.628c-2.62-0.093-4.966-0.221-7.075-0.719
			c-2.093-0.448-3.984-1.094-5.385-2.082c-1.395-1.002-2.272-2.18-2.796-3.701c-0.053-0.199-0.137-0.381-0.18-0.589
			c-0.036-0.174-0.073-0.35-0.11-0.527l0.078-0.062l0.066,0.005l0.017,0.011l0.016-0.001l0.438-0.21
			c2.455-1.169,7.721-3.298,16.408-6.314c13.225-4.616,32.099-10.405,47.714-14.671c15.612-4.311,27.952-7.082,27.952-7.082
			c0,0,3.68-0.861,9.605-2.08c5.918-1.193,14.117-2.803,23.027-3.742c2.223-0.227,4.486-0.4,6.735-0.471
			c2.241-0.067,4.494-0.026,6.518,0.247c3.989,0.618,7.902,2.37,11.345,4.805c3.445,2.441,6.465,5.398,9.038,8.326
			c2.573,2.938,4.729,5.843,6.476,8.399c3.74,5.578,5.272,8.479,6.271,10.212c2.879,5.168,5.19,9.223,7.609,13.005
			C548.445,350.553,550.962,354.066,553.828,358.429z"/>
		<path d="M441.041,321.708c-5.226-0.22-9.621-0.195-14.192,0.244c-4.569,0.452-9.323,1.323-15.24,3.069
			c-2.001,0.621-5.269,1.52-11.976,3.997c-2.548,0.963-5.522,2.148-8.753,3.727c-1.614,0.794-3.294,1.682-5.011,2.763
			c-1.712,1.1-3.48,2.339-5.197,4.168c-0.848,0.936-1.701,2.042-2.346,3.525c-0.087,0.176-0.147,0.375-0.225,0.589
			c-0.085,0.248-0.163,0.5-0.233,0.752c-0.11,0.483-0.2,0.963-0.244,1.448c-0.043,0.967-0.025,1.96,0.288,2.872
			c0.458,1.89,1.853,3.444,3.592,4.345c0.829,0.459,1.978,0.814,2.555,0.933c0.696,0.162,1.335,0.246,1.968,0.317
			c2.465,0.215,4.635,0.062,6.731-0.152c2.088-0.227,4.085-0.542,6.014-0.889c7.69-1.423,14.411-3.17,19.32-4.377
			c4.883-1.235,7.925-2.004,7.925-2.004s2.538-0.636,6.698-1.678c4.157-1.029,9.928-2.449,16.408-3.873
			c6.479-1.425,13.676-2.831,20.659-3.79c6.979-0.965,13.75-1.429,19.249-1.211c1.098,0.042,2.136,0.106,3.116,0.19
			c0.247,0.016,0.485,0.045,0.723,0.069l0.293,0.032l-0.004-0.001l-0.013-0.003l0.004,0.049l0.046,0.209
			c0.104,0.432,0.175,0.856,0.298,1.256c0.556,1.577,0.996,2.966,1.477,4.112c0.546,1.12,1.002,2.053,1.373,2.812
			c0.356,0.779,0.872,1.438,1.294,2.128c0.458,0.665,0.847,1.357,1.348,1.938c0.996,1.159,1.876,2.329,2.933,3.237
			c0.511,0.467,1.012,0.926,1.506,1.377c0.507,0.431,1.046,0.803,1.56,1.187c1.018,0.785,2.092,1.416,3.153,2.013
			c1.039,0.63,2.168,1.067,3.24,1.565c1.118,0.419,2.214,0.854,3.377,1.166c2.292,0.672,4.718,1.144,7.332,1.31
			c-2.223-1.367-4.071-2.818-5.77-4.27c-0.862-0.7-1.645-1.472-2.445-2.174c-0.749-0.777-1.56-1.448-2.268-2.246
			c-0.734-0.767-1.484-1.515-2.175-2.35c-0.351-0.409-0.733-0.796-1.081-1.222c-0.339-0.431-0.684-0.867-1.035-1.312
			c-0.756-0.843-1.33-1.86-2.065-2.822c-0.37-0.48-0.627-1.048-0.968-1.579c-0.303-0.553-0.713-1.066-0.972-1.68
			c-0.283-0.591-0.632-1.316-1.05-2.187c-0.365-0.893-0.687-1.978-1.134-3.196c-0.097-0.31-0.144-0.647-0.223-0.986
			c-0.158-0.703-0.32-1.428-0.488-2.176c-0.181-0.807-0.368-1.638-0.561-2.493l-0.146-0.646l-0.045-0.153l-0.169-0.024l-0.34-0.049
			c-0.454-0.064-0.915-0.131-1.383-0.197c-0.935-0.135-1.895-0.273-2.89-0.391c-0.399-0.048-0.805-0.097-1.215-0.146
			c-0.272-0.029-0.549-0.062-0.826-0.08c-1.116-0.097-2.284-0.171-3.507-0.219c-6.129-0.245-13.343,0.268-20.632,1.277
			c-7.294,1.006-14.683,2.461-21.284,3.922c-6.604,1.459-12.431,2.903-16.614,3.946c-4.175,1.053-6.723,1.695-6.723,1.695
			s-3.035,0.763-7.907,1.986c-4.858,1.188-11.564,2.91-18.804,4.238c-1.805,0.323-3.641,0.607-5.451,0.802
			c-1.8,0.192-3.609,0.276-5.103,0.143c-0.354-0.044-0.699-0.088-0.971-0.155c-0.39-0.099-0.194-0.048-0.231-0.055l0.014,0.015
			l0.001,0.01l-0.002,0.01l-0.013,0.055l0.034-0.095c0.131-0.31,0.444-0.783,0.886-1.264c0.91-0.979,2.224-1.96,3.587-2.823
			c1.377-0.868,2.834-1.645,4.266-2.349c2.871-1.407,5.656-2.525,8.053-3.438c6.343-2.353,9.535-3.251,11.456-3.866
			c5.712-1.749,10.169-3.281,14.348-5.006C432.426,325.867,436.327,323.959,441.041,321.708z"/>
		<path fill="#C8D400" d="M370.923,566.105c-0.025,0-0.051,0-0.076,0C370.873,566.105,370.896,566.105,370.923,566.105
			 M371.089,369.574c5.281,0.021,10.46,0.475,15.514,1.297c-46.71,7.601-82.371,48.111-82.371,96.969
			c0,48.856,35.661,89.367,82.371,96.968c-5.09,0.827-10.305,1.282-15.625,1.298c5.958-0.017,11.787-0.562,17.451-1.594
			c45.809-8.346,80.544-48.454,80.544-96.672C468.973,413.693,425.183,369.777,371.089,369.574 M370.979,369.573
			c0.036,0,0.071,0.001,0.107,0.001C371.05,369.574,371.016,369.573,370.979,369.573 M370.848,369.573c0.023,0,0.048,0,0.072,0
			C370.896,369.573,370.87,369.573,370.848,369.573"/>
		<path fill="#FFFFFF" d="M352.018,443.286c0,5.946-2.128,10.767-4.752,10.767c-2.625,0-4.75-4.82-4.75-10.767
			c0-5.949,2.125-10.767,4.75-10.767C349.89,432.519,352.018,437.336,352.018,443.286z"/>
		<ellipse fill="#FFFFFF" cx="391.72" cy="443.754" rx="4.751" ry="10.768"/>
		<path fill="#FFFFFF" d="M420.745,494.793c-11.243-7.984-28.067-9.506-41.256-10.208c-19.431-1.033-40.191,2.443-57.795,11.037
			c-6.28,3.066-0.783,12.412,5.471,9.359c15.434-7.536,34.8-10.28,52.324-9.558c11.392,0.47,26.155,1.889,35.785,8.729
			C420.986,508.209,426.392,498.804,420.745,494.793z"/>
		<path fill="#D5DC56" d="M370.707,369.573c-9.41,0-18.512,1.322-27.129,3.793l0,0C352.195,370.895,361.297,369.573,370.707,369.573
			c0.047,0,0.094,0,0.141,0C370.801,369.573,370.754,369.573,370.707,369.573"/>
		<path fill="#D5DC56" d="M371.087,369.574h0.002C371.088,369.574,371.087,369.574,371.087,369.574 M370.92,369.573
			c0.02,0,0.04,0,0.06,0C370.96,369.573,370.939,369.573,370.92,369.573"/>
		<path fill="#E5BA5A" d="M370.847,566.105c-0.046,0-0.093,0-0.14,0C370.754,566.105,370.8,566.105,370.847,566.105
			 M370.978,566.105c-0.017,0-0.038,0-0.055,0C370.94,566.105,370.959,566.105,370.978,566.105"/>
		<path fill="#B2CB07" d="M370.707,369.573c-9.41,0-18.512,1.322-27.129,3.793c-9.469,2.714-18.354,6.813-26.42,12.064
			c-26.92,17.528-44.718,47.89-44.718,82.409c0,54.27,43.995,98.266,98.267,98.266l0,0c0.047,0,0.094,0,0.14,0
			c0.025,0,0.051,0,0.076,0c0.017,0,0.038,0,0.055,0c5.32-0.016,10.535-0.471,15.625-1.298
			c-46.71-7.601-82.371-48.111-82.371-96.968c0-48.857,35.661-89.368,82.371-96.969c-5.054-0.822-10.232-1.276-15.514-1.297h-0.002
			c-0.036,0-0.071-0.001-0.107-0.001c-0.02,0-0.04,0-0.06,0c-0.024,0-0.049,0-0.072,0
			C370.801,369.573,370.754,369.573,370.707,369.573"/>
		<ellipse transform="matrix(-0.9505 -0.3107 0.3107 -0.9505 659.8914 515.491)" cx="371.001" cy="205.19" rx="4.461" ry="10.047"/>
		
			<ellipse transform="matrix(-0.9505 -0.3107 0.3107 -0.9505 735.0884 549.7131)" cx="411.323" cy="216.314" rx="3.315" ry="7.468"/>
		<path d="M463.329,333.103c-4.084,1.835-6.318,3.613-6.407,6.891c-0.013,0.893,0.004,2.685,0.326,4.996
			c0.37,2.308,0.952,5.221,2.841,8.213c0.935,1.474,2.265,2.909,3.8,3.929c0.76,0.527,1.561,0.904,2.324,1.233
			c0.757,0.265,1.51,0.53,2.155,0.633c1.339,0.282,2.329,0.275,3.058,0.292c0.725-0.042,1.133-0.065,1.133-0.065
			s0.399-0.001,1.153-0.146c0.738-0.115,1.835-0.367,3.089-0.91c1.271-0.523,2.619-1.412,3.827-2.509
			c1.212-1.106,2.176-2.414,2.964-3.733c1.569-2.66,2.343-5.331,2.849-7.523c0.498-2.198,0.679-3.942,0.757-4.818
			c0.237-3.214-1.782-5.208-5.632-7.494c-3.722,2.476-5.812,3.73-6.15,6.192c-0.101,0.656-0.268,1.994-0.614,3.472
			c-0.332,1.472-0.876,3.109-1.487,4.117c-0.299,0.505-0.584,0.887-0.8,1.074c-0.221,0.181-0.351,0.3-0.475,0.337
			c-0.226,0.106-0.507,0.142-0.516,0.134c0,0-0.074-0.007-0.206,0.013c-0.126-0.02-0.38-0.014-0.508-0.059
			c-0.153-0.039-0.219-0.055-0.271-0.114c-0.061-0.051-0.189-0.149-0.395-0.471c-0.433-0.61-0.886-2.134-1.085-3.529
			c-0.206-1.424-0.254-2.733-0.283-3.383C468.688,337.446,466.744,335.984,463.329,333.103z"/>
	</g>
</g>
</svg>
