<?xml version="1.0" encoding="utf-8"?>
<!-- Generator: Adobe Illustrator 16.0.0, SVG Export Plug-In . SVG Version: 6.00 Build 0)  -->
<!DOCTYPE svg PUBLIC "-//W3C//DTD SVG 1.1//EN" "http://www.w3.org/Graphics/SVG/1.1/DTD/svg11.dtd">
<svg version="1.1" xmlns="http://www.w3.org/2000/svg" xmlns:xlink="http://www.w3.org/1999/xlink" x="0px" y="0px" width="640px"
	 height="640px" viewBox="0 0 640 640" enable-background="new 0 0 640 640" xml:space="preserve">
<g id="fond">
</g>
<g id="couleurs">
</g>
<g id="traits">
	<g>
		<rect fill="#FFE4B7" width="640" height="640"/>
		<polyline fill="#F7BDBE" points="67.136,132.307 157.494,527.284 573.43,449.893 512.768,47.424 305.43,88.893 67.136,132.307 		
			"/>
		<path fill="#FFE4B7" d="M118.43,107.893c0,0,15,56,26,53s7-22,7-22s13,25,24,24s13-12,13-12s12,18,24,16s12-25,12-25s13,12,23,10
			s10-33,10-33l-4-23l23-4c0,0,4-28-8-26s-20,10-20,10s-4-19-19-15s-16,19-16,19s-10-19-23-13s-16,19-16,19s-7.155-9.475-17-6
			c-17,6-8,28-8,28s-12-14-23-11S118.43,107.893,118.43,107.893z"/>
		<path fill="#FFE4B7" d="M284.43,47.893c0,0,6,38,11,41s24-5,24-5s-1.023,47.879,9,46c16-3,18-16,18-16s9.399,21.457,18,19
			c14-4,22-39,22-39s6.217,35.957,17.497,33.622c17.503-3.622,26.093-74.357,17.798-88.99S410.43,26.893,405.43,27.893s-19,15-19,15
			s-8-9-18-9s-18,16-18,16s-7.125-13.109-16-12c-16,2-17,22-17,22S287.43,34.893,284.43,47.893"/>
		<path fill="#FFFFFF" d="M331.254,223.755c0,0-47.107-62.349-117.076-31.867c-77.274,33.666-71.007,129.547,48.147,187.046
			c119.153,57.498,125.735,83.132,125.735,83.132s171.459-203.672,90.061-279.877C414.702,122.818,349.266,182.881,331.254,223.755z
			"/>
		<path fill="#FFE4B7" d="M454.43,26.893c0,0-23-8-23,28c0,34.132,9.615,70.767,16.308,69.883s14.692-22.883,18.692-57.883
			S465.43,28.893,454.43,26.893"/>
		<path fill="#F2928B" d="M97.43,640l5-71.107l100,5l-2,12c0,0-18,8-24,23s-14,31.107-14,31.107H97.43z"/>
		<path fill="#F2928B" d="M421.43,562.893l80-4l30,81.107h-37c0,0-16-27.107-38-46.107S421.43,562.893,421.43,562.893z"/>
		<path d="M138.327,97.395c-2.567-0.676-5.031-1.036-7.482-1.125c-2.451-0.07-4.912,0.128-7.496,1.002
			c-1.286,0.447-2.614,1.081-3.891,2.078c-1.269,0.986-2.482,2.398-3.247,4.158c-0.785,1.733-1.03,3.793-0.925,5.583
			c0.102,1.696,0.375,3.252,0.727,4.868c0.499,2.176,1.315,5.647,3.745,12.469c1.66,4.699,4.825,12.438,8.231,18.797
			c1.684,3.187,3.416,6.037,4.809,8.072c1.384,2.037,2.406,3.267,2.406,3.267s0.211,0.258,0.596,0.729
			c0.399,0.467,0.97,1.146,1.785,1.965c0.82,0.815,1.837,1.791,3.326,2.769c0.742,0.485,1.635,0.97,2.73,1.352
			c1.089,0.376,2.463,0.636,3.957,0.462c1.463-0.156,3.021-0.782,4.228-1.776c1.204-0.987,1.984-2.17,2.529-3.269
			c1.072-2.227,1.383-4.247,1.613-6.156c0.373-3.795,0.12-7.183-0.153-9.982c-0.521-4.923-1.289-8.766-1.925-11.799
			c-0.646-3.028-1.21-5.226-1.601-6.732c-1.607-6.088-3.45-10.687-5.634-14.855c-1.097-2.081-2.289-4.053-3.641-6.017
			C141.66,101.299,140.159,99.317,138.327,97.395c0.714,2.547,1.134,4.899,1.559,7.167c0.42,2.277,0.822,4.457,1.231,6.675
			c0.855,4.449,1.938,9.052,3.414,14.881c0.359,1.441,0.886,3.543,1.488,6.409c0.593,2.862,1.308,6.506,1.772,10.945
			c0.248,2.496,0.435,5.534,0.154,8.32c-0.142,1.359-0.437,2.695-0.818,3.439c-0.182,0.375-0.354,0.564-0.396,0.596l-0.061,0.02
			c-0.024,0.047-0.678-0.081-1.396-0.567c-0.715-0.459-1.427-1.104-1.998-1.676c-0.578-0.574-1.031-1.108-1.345-1.47
			c-0.309-0.375-0.479-0.581-0.479-0.581s-0.815-0.983-2.018-2.766c-1.206-1.773-2.771-4.359-4.329-7.327
			c-3.155-5.919-6.184-13.334-7.772-17.767c-2.311-6.462-3.056-9.62-3.509-11.498c-0.32-1.385-0.587-2.696-0.729-3.768
			c-0.113-0.975-0.104-1.608,0.043-2.252c0.242-1.218,1.253-2.506,2.803-3.631c1.532-1.121,3.411-2.083,5.472-2.93
			C133.486,98.772,135.754,97.998,138.327,97.395z"/>
		<path d="M146.541,89.181c-0.456,5.282-0.618,9.736-0.37,14.383c0.259,4.646,0.937,9.494,2.417,15.553
			c0.522,2.049,1.302,5.395,3.368,12.275c1.284,4.199,3.103,9.822,5.684,15.791c1.299,2.982,2.791,6.052,4.611,9.042
			c1.853,2.972,3.972,5.931,7.014,8.364c1.521,1.199,3.329,2.25,5.39,2.819c2.074,0.583,4.239,0.585,6.266,0.049
			c2.066-0.532,3.915-1.768,5.129-3.106c1.239-1.344,1.975-2.713,2.523-3.923c1.029-2.429,1.362-4.319,1.596-5.61
			c0.109-0.646,0.183-1.145,0.217-1.478c0.04-0.335,0.062-0.512,0.062-0.512s0.324-2.375,0.306-6.09
			c0-3.721-0.376-8.769-1.167-14.306c-1.547-11.086-4.716-24.141-7.279-33.354c-1.087-3.933-2.055-7.205-2.833-9.758
			c-0.396-1.276-0.738-2.375-1.021-3.285c-0.462-1.419-0.828-2.546-1.095-3.365c-0.649-0.513-1.185-0.933-1.652-1.265
			c-0.236-0.164-0.449-0.311-0.643-0.445c-0.13-0.085-0.246-0.162-0.353-0.232c-0.373-0.233-0.595-0.373-0.804-0.503
			c-2.999-1.796-5.999-2.915-8.993-3.391c-2.987-0.454-5.974-0.244-8.596,0.76c-2.636,0.964-4.796,2.678-6.378,4.694
			C148.343,84.313,147.271,86.639,146.541,89.181c3.689-3.831,7.549-5.733,11.157-5.874c1.817-0.107,3.65,0.191,5.637,0.783
			c1.979,0.616,4.137,1.584,6.401,2.974c0.156,0.099,0.321,0.205,0.599,0.381l0.182,0.119h-0.001l-0.002,0v0.013
			c0.08,0.256,0.171,0.547,0.271,0.872c0.273,0.889,0.603,1.961,0.985,3.208c0.755,2.5,1.699,5.71,2.761,9.564
			c2.502,9.024,5.606,21.813,7.088,32.343c0.759,5.259,1.105,9.928,1.111,13.203c0.02,3.285-0.242,5.155-0.243,5.155
			c0,0-0.017,0.14-0.05,0.406c-0.026,0.271-0.086,0.655-0.169,1.143c-0.167,0.965-0.46,2.371-1.038,3.716
			c-0.295,0.649-0.66,1.266-1.058,1.687c-0.406,0.425-0.775,0.66-1.321,0.813c-1.219,0.335-2.775,0.025-4.604-1.426
			c-1.811-1.425-3.581-3.737-5.117-6.247c-1.541-2.533-2.896-5.304-4.089-8.049c-2.381-5.505-4.138-10.898-5.381-14.928
			c-1.999-6.622-2.776-9.888-3.303-11.874c-1.501-5.882-2.861-10.463-4.427-14.771C150.376,98.085,148.611,94.054,146.541,89.181z"
			/>
		<path d="M175.977,82.336c-0.529,5.275-0.753,9.726-0.577,14.374c0.188,4.647,0.789,9.501,2.152,15.577
			c0.478,2.056,1.202,5.409,3.076,12.317c1.574,5.699,3.822,13.333,7.135,21.407c1.682,4.03,3.599,8.18,6.038,12.178
			c1.222,1.997,2.571,3.958,4.13,5.813c1.555,1.853,3.347,3.607,5.487,5.06c1.049,0.741,2.245,1.353,3.471,1.874
			c1.26,0.477,2.573,0.867,3.927,1.004c2.709,0.308,5.308-0.051,7.709-1.141c2.394-1.076,4.281-2.837,5.528-4.582
			c1.266-1.758,2.012-3.488,2.564-5.037c1.083-3.114,1.391-5.577,1.608-7.264c0.188-1.686,0.235-2.609,0.235-2.609
			s0.013-0.193,0.036-0.563c0.028-0.371,0.054-0.914,0.073-1.611c0.055-1.4,0.063-3.412-0.041-5.88
			c-0.194-4.939-0.934-11.673-2.271-19.065c-2.61-14.811-7.532-32.248-11.544-44.535c-0.525-1.581-1.015-3.056-1.383-4.166
			c-0.579-1.667-0.968-2.785-1.03-2.964c-0.617-0.574-1.226-1.119-1.808-1.594c-0.395-0.32-0.701-0.559-1.043-0.815
			c-0.66-0.5-1.292-0.933-1.886-1.331c-1.194-0.787-2.27-1.387-3.213-1.885c-1.904-0.975-3.31-1.501-4.42-1.855
			c-3.429-1.137-6.979-1.354-10.124-0.628c-3.158,0.703-5.745,2.359-7.643,4.25C178.363,72.547,176.88,77.164,175.977,82.336
			c1.631-2.098,3.192-3.895,4.81-5.409c1.632-1.492,3.271-2.722,4.972-3.613c3.427-1.755,6.833-2.254,11.672-0.664
			c0.771,0.252,1.777,0.635,3.219,1.377c0.716,0.385,1.545,0.847,2.481,1.467c0.465,0.314,0.963,0.656,1.476,1.047
			c0.245,0.19,0.498,0.388,0.76,0.592l0.021,0.019l-0.002-0.002l-0.001-0.001l0.009,0.027l0.055,0.161
			c0.075,0.221,0.158,0.468,0.25,0.737c0.358,1.084,0.835,2.525,1.346,4.069c3.923,12.042,8.771,29.215,11.295,43.464
			c1.297,7.116,1.993,13.476,2.177,17.988c0.099,2.257,0.093,4.056,0.046,5.279c-0.015,0.615-0.036,1.087-0.061,1.404
			c-0.02,0.318-0.03,0.485-0.03,0.485s-0.044,0.8-0.202,2.203c-0.172,1.386-0.462,3.417-1.214,5.537
			c-0.373,1.052-0.862,2.125-1.504,3.003c-0.646,0.884-1.399,1.539-2.333,1.967c-0.906,0.442-2.232,0.633-3.439,0.48
			c-1.227-0.127-2.525-0.655-3.845-1.558c-2.663-1.784-5.151-4.964-7.248-8.405c-2.116-3.467-3.896-7.294-5.462-11.056
			c-3.104-7.563-5.295-14.952-6.828-20.467c-1.827-6.699-2.552-9.979-3.038-11.979c-1.391-5.919-2.681-10.525-4.18-14.858
			C179.688,91.293,177.979,87.238,175.977,82.336z"/>
		<path d="M215.68,72.068c-0.857,5.233-1.344,9.666-1.434,14.321c-0.078,4.656,0.254,9.544,1.313,15.695
			c0.38,2.082,0.925,5.477,2.525,12.483c1.183,5.038,2.896,11.796,5.658,18.973c1.393,3.584,3.062,7.276,5.264,10.836
			c1.108,1.776,2.363,3.52,3.864,5.144c1.499,1.618,3.265,3.129,5.371,4.269c1.039,0.581,2.192,1.015,3.356,1.356
			c1.188,0.29,2.396,0.484,3.582,0.482c2.358,0.016,4.583-0.471,6.618-1.445c2.024-0.968,3.666-2.401,4.848-3.85
			c1.192-1.457,1.989-2.92,2.609-4.248c1.173-2.669,1.652-4.829,1.97-6.304c0.303-1.479,0.4-2.288,0.4-2.288
			c0.001,0,0.479-2.737,0.601-7.088c0.138-4.354-0.127-10.302-0.935-16.832c-1.546-13.085-5.153-28.502-8.18-39.367
			c-0.674-2.441-1.308-4.628-1.806-6.294c-0.253-0.834-0.467-1.539-0.631-2.078c-0.313-0.997-0.532-1.69-0.635-2.017
			c-0.438-0.458-0.848-0.91-1.282-1.312c-0.218-0.212-0.43-0.407-0.525-0.491c-0.124-0.11-0.245-0.218-0.364-0.324
			c-0.479-0.415-0.928-0.782-1.352-1.108c-0.843-0.659-1.593-1.155-2.234-1.574c-1.301-0.82-2.219-1.275-2.98-1.64
			c-3.297-1.567-6.846-2.173-10.068-1.783c-3.224,0.436-5.993,1.761-8.043,3.496C219.045,62.584,217.126,67.021,215.68,72.068
			c3.642-3.822,7.067-6.542,10.648-8.019c3.593-1.424,7-1.58,11.546,0.556c0.518,0.257,1.15,0.573,2.088,1.168
			c0.462,0.308,1.01,0.669,1.63,1.158c0.312,0.241,0.642,0.513,0.987,0.813c0.118,0.106,0.242,0.217,0.37,0.332l-0.003-0.002
			l-0.003-0.001l-0.001-0.001c0.004,0.014-0.019-0.059,0.038,0.125c0.156,0.522,0.361,1.204,0.604,2.011
			c0.48,1.62,1.098,3.756,1.755,6.143c2.949,10.619,6.483,25.732,7.965,38.191c0.778,6.223,1.021,11.75,0.904,15.635
			c-0.105,3.894-0.503,6.13-0.504,6.13c0.001,0-0.083,0.684-0.328,1.859c-0.246,1.166-0.651,2.851-1.427,4.604
			c-0.803,1.729-1.971,3.407-3.647,4.177c-0.822,0.401-1.928,0.649-3.01,0.638c-1.071-0.002-2.132-0.275-3.232-0.884
			c-2.216-1.178-4.424-3.682-6.212-6.591c-1.807-2.922-3.314-6.212-4.581-9.487c-2.532-6.572-4.194-13.052-5.337-17.882
			c-1.549-6.738-2.097-10.048-2.484-12.063c-1.09-5.967-2.122-10.629-3.37-15.036C218.838,81.23,217.372,77.084,215.68,72.068z"/>
		<path d="M250.592,80.966c1.679-0.754,3.027-1.264,4.132-1.926c1.108-0.654,1.973-1.438,2.776-2.584
			c0.439-0.612,1.316-1.863,2.519-3.095c1.188-1.248,2.723-2.396,4.146-2.867c1.414-0.511,2.743-0.42,3.824-0.112
			c0.533,0.135,0.986,0.342,1.302,0.468c0.165,0.056,0.26,0.128,0.339,0.165l0.114,0.061c0,0,0.665,0.294,1.491,1.027
			c0.826,0.724,1.814,1.966,2.515,3.697c0.729,1.698,1.162,3.797,1.37,5.631c0.215,1.839,0.219,3.417,0.234,4.199
			c-0.005,2.911,1.227,4.614,3.305,7.658c2.971-2.206,4.573-4.121,4.704-7.584c0.026-1.857,0.099-7.626-2.188-13.039
			c-1.086-2.687-2.931-5.141-4.643-6.595c-0.85-0.74-1.626-1.246-2.17-1.592c-0.552-0.328-0.877-0.485-0.877-0.485
			s-0.08-0.042-0.23-0.123c-0.15-0.074-0.372-0.21-0.657-0.322c-0.57-0.243-1.376-0.607-2.465-0.904
			c-1.072-0.31-2.425-0.552-3.931-0.556c-1.505-0.031-3.148,0.261-4.68,0.791c-1.537,0.53-2.956,1.306-4.178,2.166
			c-1.223,0.862-2.246,1.808-3.118,2.703c-1.735,1.799-2.824,3.415-3.361,4.223c-0.97,1.504-1.343,2.896-1.342,4.334
			C249.531,77.741,249.9,79.246,250.592,80.966z"/>
		<path d="M298.509,87.812c-0.069-4.915-0.259-7.979-2.515-12.328c-0.6-1.18-1.825-3.537-3.147-6.451
			c-1.331-2.908-2.738-6.392-3.676-9.697c-0.443-1.643-0.822-3.251-0.963-4.646c-0.131-1.375-0.167-2.615,0.017-3.402
			c0.285-1.685,0.823-1.782,0.769-1.883c0.115,0.043,0.143-0.481,1.748-0.852c0.934-0.212,2.045-0.316,3.282-0.225
			c1.236,0.087,2.607,0.461,4.002,1.046c2.8,1.175,5.624,3.304,7.813,5.397c2.21,2.081,3.851,4.066,4.671,5.043
			c1.508,1.821,2.889,3.12,4.453,4.231c1.56,1.119,3.313,2.024,5.451,3.23c0.09-2.465-0.062-4.535-0.581-6.519
			c-0.526-1.983-1.449-3.89-3.1-5.985c-0.903-1.127-2.729-3.378-5.357-5.866c-2.608-2.481-6.099-5.222-10.236-6.966
			c-2.061-0.861-4.273-1.469-6.424-1.627c-2.146-0.168-4.16,0.035-5.802,0.422c-0.396,0.062-0.887,0.263-1.289,0.389
			c-0.418,0.15-0.808,0.271-1.175,0.44c-0.74,0.4-1.379,0.752-1.873,1.101c-0.96,0.795-1.456,1.293-1.456,1.293
			c0,0-0.455,0.527-1.171,1.536c-0.323,0.509-0.613,1.158-0.962,1.909c-0.134,0.369-0.243,0.759-0.367,1.177
			c-0.125,0.418-0.251,0.862-0.3,1.293c-0.649,3.604,0,7.728,1.089,11.641c2.219,7.837,6.19,15.229,7.501,17.71
			C291.398,83.748,294.103,85.613,298.509,87.812z"/>
		<path d="M320.414,48.109c-1.937,4.936-3.357,9.159-4.444,13.683c-1.071,4.527-1.807,9.366-2.116,15.593
			c-0.087,2.112-0.291,5.54-0.289,12.719c0.025,4.652,0.163,10.913,1.003,17.759c0.422,3.422,1.041,6.996,2.05,10.589
			c1.065,3.573,2.417,7.27,5.221,10.576c1.413,1.624,3.325,3.094,5.536,3.89c1.111,0.376,2.219,0.615,3.342,0.673
			c0.567,0.024,1.123,0.049,1.696-0.023l0.844-0.091l0.826-0.182c2.2-0.528,3.987-1.693,5.264-2.863
			c1.292-1.184,2.187-2.39,2.926-3.487c1.418-2.208,2.174-4.026,2.698-5.275c0.499-1.251,0.73-1.945,0.73-1.945
			s0.875-2.324,1.8-6.116c0.943-3.792,1.875-9.048,2.537-14.924c1.377-11.755,1.671-25.983,1.548-36.116
			c-0.042-3.936-0.131-7.249-0.221-9.835c-0.101-2.732-0.151-3.899-0.309-6.642c-0.553-0.814-1.034-1.522-1.45-2.021
			c-0.098-0.124-0.19-0.241-0.278-0.353l-0.17-0.202c-0.108-0.127-0.205-0.242-0.294-0.346c-0.359-0.41-0.582-0.65-0.792-0.87
			c-2.465-2.58-5.266-4.5-8.359-5.506c-3.076-1.005-6.398-0.953-9.067,0.096c-2.706,0.996-4.755,2.718-6.357,4.65
			C322.676,43.483,321.457,45.678,320.414,48.109c2.062-1.664,4.058-2.982,6.006-3.932c1.941-0.956,3.843-1.513,5.598-1.574
			c1.758-0.1,3.347,0.308,5.02,1.117c1.665,0.828,3.439,2.184,5.199,4.066c0.149,0.159,0.307,0.332,0.562,0.626
			c0.097,0.115,0.212,0.253,0.355,0.424l0.012,0.018c-0.04-0.738,0.079,1.766,0.153,4.151c0.082,2.531,0.164,5.783,0.202,9.644
			c0.111,9.934-0.175,23.895-1.478,35.125c-0.625,5.616-1.495,10.529-2.337,13.938c-0.831,3.418-1.557,5.341-1.557,5.341
			s-0.199,0.588-0.604,1.601c-0.414,0.994-1.044,2.438-1.979,3.884c-0.473,0.699-1.019,1.404-1.609,1.94
			c-0.595,0.542-1.186,0.871-1.772,1.007l-0.224,0.059l-0.241,0.015c-0.153,0.037-0.336,0.008-0.516,0.006
			c-0.369-0.013-0.759-0.11-1.117-0.221c-0.707-0.27-1.439-0.77-2.179-1.606c-1.483-1.699-2.692-4.526-3.536-7.498
			c-0.842-3.008-1.412-6.225-1.797-9.374c-0.774-6.31-0.921-12.329-0.956-16.802c-0.011-6.922,0.174-10.274,0.237-12.328
			c0.24-6.068,0.245-10.848-0.031-15.424C321.562,57.736,321.015,53.369,320.414,48.109z"/>
		<path d="M353.271,44.686c-2.111,4.863-3.677,9.038-4.916,13.522c-1.229,4.488-2.123,9.301-2.646,15.511
			c-0.161,2.106-0.478,5.525-0.739,12.689c-0.172,5.563-0.272,13.058,0.509,21.257c0.399,4.099,1.03,8.379,2.186,12.669
			c0.584,2.144,1.305,4.292,2.268,6.399c0.973,2.1,2.159,4.185,3.829,6.048c1.649,1.849,3.779,3.502,6.21,4.382
			c0.599,0.22,1.196,0.429,1.866,0.561c0.635,0.169,1.328,0.237,2.013,0.287c0.681,0.046,1.396-0.008,2.075-0.08
			c0.682-0.126,1.369-0.234,1.991-0.477c2.568-0.875,4.378-2.45,5.662-3.892c1.304-1.468,2.18-2.9,2.921-4.203
			c1.44-2.614,2.231-4.751,2.775-6.226c0.268-0.738,0.467-1.312,0.587-1.701c0.126-0.389,0.192-0.594,0.192-0.594
			s0.934-2.741,1.96-7.232c1.046-4.491,2.137-10.729,2.971-17.723c1.711-13.989,2.383-30.983,2.465-43.109
			c0.003-2.616,0.005-4.958,0.007-6.745c-0.041-2.75-0.069-4.646-0.079-5.259c-0.917-0.792-1.766-1.554-2.58-2.182
			c-0.188-0.149-0.374-0.295-0.555-0.438c-0.109-0.083-0.216-0.164-0.321-0.243c-0.21-0.157-0.412-0.307-0.606-0.451
			c-0.777-0.572-1.441-1.025-2.013-1.404c-1.143-0.758-1.918-1.212-2.561-1.59c-2.927-1.663-5.805-2.858-8.77-3.417
			c-2.923-0.586-6.021-0.482-8.779,0.594c-2.759,1.116-4.915,3.202-6.083,5.545C353.909,39.534,353.424,42.05,353.271,44.686
			c1.367-2.268,2.881-4.123,4.502-5.399c1.624-1.298,3.323-1.843,4.958-1.975c3.296-0.157,7.155,1.275,11.98,4.073
			c0.53,0.321,1.174,0.702,2.139,1.35c0.481,0.323,1.047,0.71,1.706,1.198c0.256,0.193,0.533,0.402,0.834,0.628l0.005,0.005
			l-0.003-0.004l-0.001-0.002v0.044c0,0.086,0.001,0.175,0.002,0.267c0.002,0.366,0.005,0.77,0.008,1.208
			c-0.004,1.755-0.01,4.056-0.016,6.625c-0.091,11.93-0.748,28.687-2.39,42.225c-0.8,6.769-1.836,12.716-2.801,16.886
			c-0.949,4.18-1.77,6.585-1.77,6.584c0,0-0.059,0.181-0.171,0.524c-0.107,0.347-0.282,0.845-0.513,1.48
			c-0.464,1.262-1.164,3.095-2.244,5.038c-0.541,0.955-1.176,1.959-1.908,2.772c-0.728,0.832-1.53,1.396-2.222,1.619
			c-1.147,0.524-3.761-0.233-5.583-2.393c-1.928-2.156-3.364-5.601-4.338-9.216c-0.982-3.645-1.571-7.542-1.937-11.341
			c-0.728-7.616-0.646-14.847-0.489-20.214c0.243-6.929,0.538-10.272,0.674-12.324c0.449-6.059,0.61-10.835,0.493-15.417
			C354.083,54.346,353.685,49.964,353.271,44.686z"/>
		<path d="M390.236,37.841c-1.765,5-3.048,9.265-3.992,13.816c-0.934,4.554-1.521,9.406-1.677,15.625
			c-0.036,2.109-0.146,5.535-0.024,12.686c0.119,5.556,0.396,13.028,1.451,21.156c0.531,4.063,1.278,8.294,2.444,12.526
			c1.209,4.213,2.737,8.518,5.788,12.4c1.504,1.919,3.631,3.692,6.172,4.696c1.291,0.457,2.575,0.782,3.926,0.819
			c1.333,0.089,2.723-0.112,3.982-0.498c2.547-0.817,4.428-2.353,5.755-3.799c1.34-1.47,2.241-2.919,2.985-4.236
			c1.452-2.644,2.224-4.805,2.747-6.295c0.268-0.746,0.438-1.325,0.564-1.718c0.124-0.393,0.188-0.6,0.188-0.6
			s0.198-0.691,0.559-1.95c0.335-1.258,0.801-3.082,1.271-5.344c0.95-4.525,1.891-10.803,2.527-17.828
			c1.327-14.054,1.462-31.081,1.125-43.222c-0.063-1.983-0.123-3.808-0.168-5.188c-0.085-1.842-0.143-3.09-0.155-3.358
			c-0.166-0.346-0.33-0.687-0.49-1.021l-0.25-0.496l-0.21-0.387c-0.203-0.364-0.399-0.711-0.599-1.036
			c-0.393-0.655-0.783-1.242-1.156-1.782c-0.754-1.075-1.455-1.952-2.099-2.683c-1.285-1.464-2.327-2.347-3.156-3.03
			c-1.466-1.168-3.071-2.12-4.772-2.749c-1.696-0.636-3.456-0.943-5.137-0.97c-3.388,0.033-6.244,1.182-8.439,2.658
			C395.012,29.087,392.526,33.097,390.236,37.841c4.236-3.147,8.023-5.375,11.781-6.546c1.875-0.566,3.684-0.743,5.4-0.505
			c1.705,0.314,3.439,1.011,5.313,2.552c0.528,0.452,1.212,1.023,2.128,2.078c0.459,0.524,0.972,1.171,1.536,1.978
			c0.278,0.406,0.573,0.85,0.865,1.34c0.141,0.245,0.287,0.499,0.439,0.762l0.05,0.093l-0.002-0.002l-0.002-0.003l-0.001-0.002
			l-0.003-0.005c0.017,0.412,0.039,0.964,0.065,1.622c0.042,1.352,0.099,3.14,0.159,5.083c0.32,11.923,0.193,28.704-1.076,42.279
			c-0.607,6.789-1.499,12.756-2.37,16.94c-0.432,2.094-0.852,3.742-1.149,4.872c-0.317,1.116-0.492,1.729-0.492,1.729
			s-0.057,0.18-0.165,0.522c-0.11,0.34-0.261,0.852-0.49,1.481c-0.439,1.264-1.119,3.095-2.184,5.016
			c-0.532,0.947-1.165,1.924-1.891,2.711c-0.727,0.795-1.51,1.326-2.239,1.562c-0.375,0.102-0.746,0.18-1.202,0.138
			c-0.445,0.009-0.949-0.147-1.409-0.292c-0.913-0.384-1.896-1.076-2.809-2.25c-1.853-2.305-3.276-5.843-4.285-9.507
			c-1.017-3.695-1.716-7.601-2.211-11.413c-0.992-7.636-1.272-14.881-1.397-20.269c-0.129-6.948-0.035-10.308-0.021-12.368
			c0.092-6.085-0.05-10.87-0.465-15.438C391.707,47.426,391.02,43.077,390.236,37.841z"/>
		<path d="M432.678,37.841c-1.609,5.051-2.768,9.35-3.581,13.925c-0.804,4.577-1.255,9.44-1.243,15.659
			c0.02,2.108,0.001,5.534,0.308,12.678c0.253,5.403,0.697,12.664,1.898,20.555c0.605,3.945,1.415,8.051,2.657,12.162
			c0.628,2.055,1.371,4.114,2.348,6.147c0.994,2.025,2.16,4.059,3.944,5.903c0.866,0.924,1.952,1.767,3.146,2.465
			c1.232,0.678,2.614,1.147,4.011,1.353c2.733,0.375,5.617-0.325,7.641-1.641c2.061-1.279,3.452-2.839,4.535-4.281
			c1.074-1.457,1.874-2.848,2.516-4.12c1.277-2.547,2.014-4.628,2.511-6.064c0.483-1.438,0.724-2.236,0.724-2.236
			s0.194-0.668,0.55-1.882c0.34-1.215,0.8-2.977,1.292-5.165c0.986-4.377,2.029-10.46,2.815-17.278
			c1.626-13.64,2.23-30.205,2.24-42.03c-0.008-1.939-0.014-3.729-0.019-5.08c-0.038-2.153-0.064-3.609-0.07-3.911
			c-0.488-0.599-0.955-1.177-1.437-1.721c-0.24-0.256-0.475-0.508-0.706-0.756c-0.157-0.16-0.312-0.317-0.465-0.472
			c-0.548-0.547-1.076-1.024-1.573-1.462c-0.999-0.869-1.904-1.543-2.695-2.11c-1.596-1.118-2.787-1.741-3.727-2.217
			c-3.226-1.617-6.623-2.341-9.742-2.22c-3.133,0.084-5.917,1.049-8.203,2.372C437.743,29.125,434.97,33.113,432.678,37.841
			c2.139-1.574,4.157-2.838,6.125-3.853c1.979-0.993,3.909-1.709,5.82-2.153c1.915-0.431,3.803-0.613,5.772-0.369
			c1.965,0.222,4.047,0.798,6.315,1.958c0.659,0.346,1.506,0.787,2.692,1.626c0.587,0.428,1.27,0.936,2.029,1.6
			c0.376,0.335,0.78,0.7,1.189,1.111c0.092,0.093,0.188,0.189,0.287,0.289l-0.005-0.004l-0.002-0.003
			c0.002,0.24,0.005,0.563,0.009,0.948c0.003,1.323,0.008,3.075,0.013,4.975c-0.02,11.612-0.609,27.936-2.168,41.125
			c-0.753,6.597-1.743,12.394-2.654,16.468c-0.455,2.038-0.873,3.651-1.18,4.752c-0.317,1.094-0.491,1.695-0.491,1.695
			s-0.218,0.713-0.642,1.973c-0.432,1.25-1.088,3.056-2.089,5.04c-0.499,0.99-1.101,2.005-1.792,2.941
			c-0.688,0.933-1.497,1.744-2.281,2.222c-0.779,0.504-1.508,0.606-2.361,0.538c-0.395-0.073-0.773-0.194-1.183-0.408
			c-0.403-0.261-0.849-0.557-1.286-1.037c-0.893-0.9-1.738-2.282-2.471-3.798c-0.734-1.53-1.359-3.238-1.898-5.008
			c-1.071-3.553-1.83-7.34-2.393-11.038c-1.129-7.409-1.572-14.457-1.828-19.698c-0.308-6.944-0.305-10.308-0.344-12.368
			c-0.072-6.088-0.347-10.869-0.892-15.426C434.437,47.379,433.622,43.051,432.678,37.841z"/>
		<path d="M125.663,118.273c-10.596-0.09-19.45,0.005-28.65,0.826c-4.601,0.41-9.287,1.002-14.322,1.842
			c-2.517,0.42-5.121,0.902-7.845,1.455c-0.752,0.158-1.514,0.318-2.284,0.48c-1.383,0.314-2.784,0.633-4.202,0.956
			c-2.848,0.665-5.769,1.346-8.77,2.047c-0.575,0.137-1.176,0.279-1.801,0.427l-0.234,0.057l0.054,0.238l0.108,0.482
			c0.074,0.324,0.148,0.655,0.226,0.991c0.306,1.347,0.633,2.79,0.98,4.322c0.671,2.948,1.419,6.242,2.235,9.832
			c0.849,3.733,1.838,8.084,2.922,12.855c9.255,40.471,20.141,88.069,31.121,136.085c11.676,51.02,23.453,102.483,33.702,147.264
			c5.126,22.39,9.869,43.108,14.026,61.265c2.355,10.287,4.545,19.849,6.539,28.558c0.44,1.925,0.876,3.826,1.306,5.703l0.321,1.404
			l0.159,0.698l0.08,0.348l0.04,0.175l0.143,0.016c0.935-0.177,1.862-0.353,2.784-0.527c3.687-0.7,7.275-1.381,10.763-2.042
			c3.747-0.711,7.276-1.381,10.57-2.007c156.842-29.746,207.36-39.328,207.36-39.328s15.564-2.947,52.122-9.87
			c18.278-3.462,41.805-7.918,71.258-13.497c14.727-2.79,30.935-5.86,48.709-9.228c4.443-0.842,8.985-1.702,13.626-2.581
			c4.126-0.782,8.297-1.572,12.512-2.371c1.187-0.225,2.377-0.45,3.57-0.676l0.447-0.085l0.225-0.043
			c0.088-0.005,0.156-0.022,0.111-0.121l-0.144-0.901l-0.286-1.806c-0.384-2.412-0.769-4.836-1.156-7.272
			c-1.681-10.581-3.433-21.603-5.255-33.074c-8.283-52.142-24.231-152.54-39.702-249.926c-7.05-44.185-13.881-87.002-16.783-105.193
			c-0.506-3.023-0.995-5.948-1.457-8.71c-0.573-3.238-1.111-6.285-1.603-9.064c-4.662,0.991-9.074,1.964-13.218,2.916
			c-0.969,0.227-1.93,0.452-2.884,0.676c-0.521,0.145-1.038,0.289-1.551,0.432c-1.024,0.298-2.032,0.592-3.027,0.882
			c-3.974,1.194-7.713,2.46-11.388,3.828c-7.348,2.735-14.435,5.875-22.614,9.657c8.998,0.492,16.744,0.792,24.582,0.619
			c3.92-0.087,7.862-0.292,11.996-0.65c1.032-0.098,2.077-0.197,3.139-0.298c0.53-0.057,1.063-0.114,1.602-0.172l0.195-0.021
			l0.02,0.012l0.039,0.024l0.067,0.048c0.166,0.126,0.212,0.246,0.199,0.346c-0.05,0.122-0.093,0.192-0.126,0.23l-0.041,0.036
			l-0.008,0.003l0.001,0.035l0.05,0.334c0.068,0.447,0.137,0.898,0.205,1.353c2.883,18.193,9.666,61.019,16.666,105.211
			c15.494,97.383,31.467,197.777,39.763,249.916c1.531,9.629,3.003,18.879,4.416,27.76l0.005-0.018l0.012-0.002l0.005-0.001
			l-1.576,0.299c-4.641,0.881-9.182,1.741-13.626,2.584c-17.773,3.371-33.98,6.445-48.707,9.238
			c-29.451,5.586-52.977,10.048-71.255,13.515c-36.555,6.936-52.118,9.888-52.118,9.888s-50.521,9.57-207.369,39.28
			c-2.824,0.534-5.85,1.107-9.063,1.715l0.029,0.008c-1.522-6.663-3.193-13.979-4.992-21.85c-4.15-18.158-8.887-38.878-14.005-61.27
			c-10.241-44.782-22.011-96.248-33.678-147.269c-10.988-48.015-21.881-95.611-31.143-136.081c-1.099-4.768-2.1-9.116-2.959-12.847
			l-0.08-0.348c-0.024-0.105-0.007-0.028-0.013-0.052l-0.001,0.002l-0.002,0.004l-0.007,0.004l-0.018-0.006l-0.028-0.049
			l0.001-0.052c0.613-0.17,1.219-0.337,1.817-0.503c2.678-0.743,5.218-1.494,7.651-2.261c4.868-1.534,9.313-3.133,13.6-4.853
			C108.325,127.088,116.26,123.158,125.663,118.273z"/>
		<path d="M252.986,97.739c4.128,4.458,6.806,6.792,10.688,6.222c4.205-0.618,25.123-4.5,25.123-4.5s20.964-3.619,25.122-4.499
			c3.839-0.812,5.54-3.932,7.863-9.545c-4.127-4.459-6.805-6.792-10.688-6.224c-4.205,0.616-25.122,4.5-25.122,4.5
			s-20.965,3.618-25.123,4.499C257.012,89.006,255.31,92.125,252.986,97.739z"/>
		<path d="M104.784,297.964c-5.444,20.481-8.438,34.398-8.954,59.006c-0.074,4.17-0.195,10.953-0.446,25.052
			c-0.389,25.137-1.311,84.687-1.311,84.687s-0.833,49.844-1.295,77.477c-0.273,18.82-0.442,30.468-0.531,36.552
			c-0.271,24.615,2.275,38.62,7.062,59.264c5.445-20.479,8.438-34.396,8.957-59.008c0.106-6.083,0.31-17.73,0.64-36.549
			c0.423-27.634,1.186-77.479,1.186-77.479s0.984-59.549,1.4-84.686c0.2-14.099,0.297-20.883,0.356-25.053
			C112.116,332.615,109.571,318.609,104.784,297.964z"/>
		<path d="M198.564,519.753c-5.051,3.095-7.776,5.181-7.822,8.756c-0.05,3.872,0.5,23.248,0.5,23.248s0.284,19.381,0.501,23.247
			c0.199,3.57,3.013,5.537,8.191,8.411c5.052-3.095,7.776-5.181,7.824-8.756c0.052-3.872-0.5-23.247-0.5-23.247
			s-0.282-19.382-0.501-23.248C206.557,524.595,203.744,522.628,198.564,519.753z"/>
		<path d="M100.678,564.25c4.233,5.557,7.176,8.63,12.83,9.309c6.123,0.736,36.871,3.625,36.871,3.625s30.721,3.153,36.87,3.624
			c5.679,0.436,9.163-2.006,14.397-6.632c-4.233-5.558-7.176-8.63-12.83-9.311c-6.123-0.737-36.87-3.625-36.87-3.625
			s-30.722-3.155-36.871-3.624C109.396,557.183,105.912,559.623,100.678,564.25z"/>
		<path d="M381.336,485.527c-3.026,5.731-4.439,9.333-2.593,13.725c2,4.756,12.749,28.247,12.749,28.247s10.505,23.6,12.748,28.246
			c2.071,4.291,5.707,5.613,12.007,7.135c3.027-5.73,4.44-9.332,2.595-13.725c-1.999-4.757-12.748-28.246-12.748-28.246
			s-10.504-23.602-12.749-28.247C391.271,488.372,387.637,487.049,381.336,485.527z"/>
		<path d="M473.748,463.28c1.387,21.147,2.999,35.291,10.374,58.774c1.263,3.975,3.316,10.44,7.585,23.88
			c0.217,0.846,0.937,2.786,0.937,2.786s0.198,0.699,0.417,1.468c0.058,0.19,0.117,0.387,0.175,0.576
			c0.091,0.279,0.178,0.552,0.259,0.801c4.976,15.487,9.057,28.191,11.096,34.537c7.61,23.411,14.499,35.868,25.632,53.898
			c-1.386-21.146-2.998-35.288-10.372-58.775c-2.02-6.352-6.062-19.068-10.988-34.571c-0.079-0.249-0.165-0.521-0.254-0.802
			c-0.063-0.188-0.128-0.382-0.191-0.571c-0.269-0.753-0.513-1.437-0.513-1.437s-0.538-1.998-0.852-2.814
			c-4.316-13.424-6.394-19.883-7.67-23.853C491.771,493.77,484.883,481.312,473.748,463.28z"/>
		<path d="M412.141,560.827c4.642,4.969,7.771,7.64,13.133,7.59c5.809-0.054,34.872-1.125,34.872-1.125s29.071-0.804,34.871-1.124
			c5.355-0.296,8.306-3.162,12.617-8.42c-4.642-4.97-7.771-7.64-13.134-7.592c-5.808,0.053-34.871,1.125-34.871,1.125
			s-29.071,0.802-34.871,1.124C419.403,552.703,416.453,555.568,412.141,560.827z"/>
		<path d="M160.918,640c3.155-4.247,5.986-7.564,8.723-11.184c0.694-0.898,1.378-1.816,2.059-2.77
			c0.703-0.941,1.423-1.907,2.139-2.93c1.398-2.065,3.008-4.218,4.641-6.74c0.666-0.939,1.568-2.212,2.648-3.736
			c1.053-1.546,2.39-3.264,3.855-5.148c0.576-0.746,1.165-1.509,1.765-2.286c1.099-1.303,2.217-2.629,3.354-3.977
			c0.569-0.673,1.144-1.351,1.722-2.034c0.61-0.652,1.226-1.309,1.845-1.971c1.241-1.319,2.497-2.656,3.768-4.008
			c1.337-1.28,2.688-2.574,4.05-3.879c0.688-0.645,1.351-1.324,2.063-1.949c0.723-0.613,1.448-1.23,2.175-1.848
			c1.461-1.228,2.9-2.5,4.396-3.71c1.542-1.149,3.088-2.303,4.637-3.457c0.777-0.572,1.54-1.167,2.329-1.723l2.436-1.564
			c1.621-1.044,3.24-2.088,4.855-3.128c3.407-1.954,6.792-3.896,10.125-5.807c1.668-0.954,3.323-1.9,4.962-2.838
			c1.666-0.871,3.314-1.734,4.942-2.586c1.628-0.853,3.234-1.693,4.816-2.521c0.792-0.412,1.577-0.821,2.356-1.228
			c0.79-0.369,1.574-0.736,2.351-1.099c1.553-0.728,3.076-1.44,4.567-2.139c0.745-0.349,1.482-0.694,2.211-1.035
			c0.731-0.325,1.464-0.6,2.182-0.896c1.438-0.582,2.839-1.148,4.198-1.699c0.34-0.137,0.678-0.273,1.013-0.408
			c0.335-0.11,0.667-0.22,0.997-0.329c0.659-0.218,1.309-0.433,1.945-0.644c0.638-0.212,1.264-0.42,1.878-0.625
			c0.606-0.178,1.186-0.296,1.762-0.444c0.286-0.071,0.57-0.142,0.851-0.211l0.419-0.104c0.154-0.041,0.223-0.048,0.522-0.147
			c0.992-0.32,1.98-0.614,2.912-0.936c0.436-0.205,0.865-0.409,1.29-0.609c0.224-0.116,0.509-0.214,0.719-0.364
			c0.109-0.27,0.22-0.537,0.328-0.804c0.209-0.497,0.416-0.987,0.62-1.472c0.149-0.341,0.296-0.677,0.441-1.009
			c0.421-0.952,0.837-1.845,1.229-2.677c2.528-5.323,5.178-10.03,7.872-14.031c2.694-3.987,5.486-7.29,8.238-9.521
			c1.369-1.113,2.722-1.938,3.952-2.418c1.243-0.493,2.294-0.604,3.281-0.493c2.02,0.216,4.108,1.408,5.773,2.71
			c1.687,1.305,3.05,2.675,4.147,3.87c1.095,1.209,1.938,2.244,2.588,3.064c0.641,0.833,1.104,1.431,1.391,1.839
			c0.293,0.401,0.43,0.59,0.43,0.59s0.155,0.197,0.619,0.876c0.466,0.675,1.262,1.809,2.474,3.74
			c1.212,1.929,2.851,4.653,4.892,8.55c0.514,0.972,1.04,2.021,1.597,3.146c0.272,0.563,0.553,1.146,0.842,1.746
			c0.411,0.864,1.056,2.286,1.63,3.622c0.153,0.329,0.283,0.697,0.458,1c0.372,0.016,0.747,0.03,1.124,0.046
			c0.756,0.034,1.522,0.068,2.301,0.104c0.396,0.021,0.795,0.041,1.196,0.062l0.644,0.045c0.387,0.027,0.778,0.055,1.176,0.083
			c1.594,0.138,3.282,0.263,5.066,0.472c2.31,0.245,6.408,0.723,11.837,1.61c5.423,0.911,12.176,2.224,19.742,4.169
			c7.549,1.996,15.9,4.644,24.439,8.153c8.52,3.53,17.297,7.827,25.398,13.301c8.156,5.432,15.9,11.741,23.024,18.259
			c1.756,1.66,3.536,3.261,5.227,4.923c1.68,1.674,3.34,3.329,4.976,4.96c1.598,1.681,3.148,3.312,4.633,4.874
			c2.159,2.27,4.027,4.435,5.664,6.218c1.611,1.806,2.889,3.329,3.811,4.376c3.975,4.603,7.228,8.098,10.547,11.253
			c3.304,3.171,6.667,5.993,10.655,9.477c-1.893-4.951-3.728-9.024-6.013-13.081c-2.306-4.046-5.071-8.092-9.095-12.845
			c-0.933-1.082-2.231-2.648-3.877-4.506c-1.672-1.836-3.581-4.056-5.795-6.39c-1.524-1.605-3.116-3.282-4.757-5.011
			c-1.684-1.679-3.393-3.384-5.121-5.107c-1.742-1.713-3.583-3.371-5.397-5.084c-7.368-6.741-15.422-13.312-24.036-19.046
			c-8.61-5.807-17.856-10.329-26.777-14.021c-8.943-3.671-17.639-6.419-25.479-8.486c-15.717-4.032-27.952-5.457-32.763-5.968
			c-1.855-0.217-3.626-0.35-5.303-0.493c-0.421-0.029-0.836-0.059-1.245-0.088l-0.541-0.038l0.023,0.002h0.001
			c-0.011-0.021,0.052,0.108-0.127-0.269c-0.308-0.638-0.605-1.256-0.895-1.854c-0.589-1.189-1.146-2.299-1.689-3.326
			c-2.157-4.117-3.904-7.023-5.211-9.101c-1.305-2.078-2.177-3.321-2.688-4.06c-0.507-0.74-0.682-0.963-0.682-0.963
			s-0.151-0.208-0.474-0.653c-0.316-0.447-0.833-1.119-1.552-2.052c-0.732-0.928-1.689-2.105-2.975-3.524
			c-1.299-1.41-2.923-3.07-5.187-4.827c-1.125-0.88-2.463-1.756-4.039-2.571c-1.593-0.795-3.516-1.494-5.779-1.752
			c-2.278-0.265-4.803,0.103-7.009,0.989c-2.232,0.873-4.245,2.16-6.097,3.656c-3.697,3.017-6.852,6.859-9.849,11.27
			c-2.98,4.425-5.794,9.438-8.479,15.086c-0.417,0.883-0.859,1.83-1.312,2.85c-0.083,0.188-0.169,0.381-0.258,0.58l0.003-0.005
			c-0.143,0.02-0.289,0.041-0.439,0.062c-0.631,0.152-1.276,0.307-1.936,0.465c-0.695,0.177-1.43,0.336-2.132,0.542
			c-0.683,0.225-1.378,0.453-2.086,0.687c-5.707,1.812-11.727,4.495-18.15,7.55c-0.806,0.377-1.619,0.758-2.439,1.142
			c-0.799,0.415-1.604,0.833-2.415,1.256c-1.621,0.847-3.268,1.708-4.936,2.58s-3.356,1.756-5.063,2.648
			c-1.666,0.951-3.349,1.912-5.045,2.882c-3.391,1.944-6.835,3.919-10.302,5.906c-1.718,1.104-3.44,2.212-5.166,3.321l-2.587,1.667
			c-0.838,0.589-1.648,1.218-2.473,1.824c-1.642,1.226-3.282,2.449-4.916,3.669c-1.584,1.28-3.108,2.622-4.652,3.923
			c-0.769,0.654-1.535,1.307-2.299,1.958c-0.754,0.661-1.454,1.374-2.179,2.056c-1.437,1.377-2.861,2.743-4.271,4.095
			c-1.337,1.422-2.66,2.83-3.966,4.22c-0.651,0.696-1.298,1.389-1.94,2.076c-0.607,0.717-1.211,1.429-1.809,2.136
			c-1.192,1.417-2.385,2.797-3.52,4.18c-0.629,0.815-1.246,1.616-1.85,2.399c-1.534,1.979-2.929,3.787-4.026,5.409
			c-1.124,1.604-2.073,2.934-2.749,3.934c-1.688,2.657-3.199,5.023-4.351,7.369c-0.592,1.162-1.149,2.283-1.653,3.395
			c-0.48,1.126-0.927,2.229-1.347,3.326C162.858,630.389,161.717,634.753,160.918,640z"/>
		<path d="M239.638,578.624c3.926,3.581,7.604,6.207,11.678,8.564c4.105,2.298,8.678,4.273,14.743,6.031
			c2.072,0.526,5.414,1.516,12.512,2.95c5.003,0.919,13.499,2.196,20.821,2.456c1.823,0.135,3.578,0.068,5.173,0.108
			c1.597,0.004,3.038,0.05,4.251,0.013c2.425-0.121,3.936-0.196,3.936-0.196s1.265-0.06,3.337-0.157
			c2.068-0.16,4.938-0.521,8.158-0.866c6.402-0.981,14.158-2.55,19.497-4.369c2.343-0.658,4.401-1.438,6.263-2.119
			c0.93-0.341,1.809-0.662,2.639-0.966c0.812-0.345,1.576-0.669,2.293-0.974c1.431-0.615,2.683-1.124,3.734-1.609
			c1.042-0.508,1.911-0.931,2.618-1.274c5.703-2.82,9.851-5.673,13.371-8.854c0.897-0.767,1.723-1.608,2.545-2.441
			c0.828-0.824,1.613-1.702,2.388-2.611c1.552-1.805,3.059-3.768,4.481-6.007c-2.3,1.308-4.464,2.339-6.552,3.319
			c-1.04,0.494-2.054,0.979-3.082,1.436c-1.021,0.466-2.009,0.964-3.043,1.417c-4.06,1.949-8.256,3.965-13.611,6.538
			c-0.663,0.317-1.478,0.707-2.454,1.174c-0.985,0.449-2.16,0.917-3.498,1.49c-0.671,0.283-1.385,0.585-2.146,0.906
			c-0.776,0.281-1.599,0.58-2.47,0.896c-1.74,0.634-3.665,1.364-5.857,1.975c-4.992,1.696-12.246,3.163-18.235,4.106
			c-3.018,0.323-5.7,0.677-7.643,0.834c-1.948,0.098-3.137,0.157-3.137,0.157s-1.421,0.067-3.702,0.175
			c-1.142,0.03-2.501-0.021-4.005-0.028c-1.503-0.044-3.153,0.021-4.875-0.114c-6.903-0.26-14.941-1.483-19.686-2.325
			c-6.729-1.353-9.906-2.278-11.88-2.756c-5.773-1.612-10.316-2.811-14.742-3.786C249.055,580.674,244.758,579.94,239.638,578.624z"
			/>
		<path d="M435.623,260.785c-10.596-0.119-17.709,0.142-29.698,2.918c-1.463,0.342-3.586,0.838-6.19,1.448
			c-0.651,0.153-1.332,0.313-2.041,0.48c-0.177,0.042-0.355,0.084-0.536,0.126l-0.005,0l0.006-0.002l0.007,0.002l-0.044-0.026
			l-0.234-0.137c-0.342-0.2-0.726-0.431-1.086-0.662c-1.467-0.927-2.92-1.99-4.311-3.164c-2.763-2.357-5.314-5.183-7.064-8.458
			c-1.768-3.262-2.705-6.945-2.561-10.777c0.021-0.978,0.146-1.879,0.276-2.937c0.154-1.19,0.345-2.373,0.466-3.58
			c0.108-1.211,0.261-2.412,0.306-3.648l0.097-1.846l0.016-1.872c-0.025-2.507-0.145-5.05-0.663-7.674
			c-0.26-1.311-0.593-2.636-1.074-3.976c-0.221-0.667-0.562-1.349-0.851-2.016c-0.372-0.676-0.72-1.349-1.195-2.011
			c-0.903-1.324-2.208-2.621-3.868-3.563c-1.671-0.976-3.778-1.321-5.603-1.152c-0.952,0.052-1.77,0.301-2.611,0.535
			c-0.748,0.305-1.565,0.59-2.2,0.989l-0.996,0.578L363.075,211c-0.612,0.419-1.11,0.888-1.632,1.347
			c-2.026,1.865-3.557,3.911-4.882,5.978c-1.334,2.067-2.397,4.182-3.329,6.288c-1.863,4.217-3.117,8.404-4.084,12.428
			c-0.971,4.028-1.591,7.915-1.953,11.557c-0.375,3.643-0.525,7.042-0.531,10.129c0.014,1.545,0.038,3.011,0.105,4.395
			c0.021,0.691,0.078,1.363,0.114,2.012c0.014,0.199,0.026,0.396,0.04,0.588l0.02,0.229c0.009,0.108,0.006,0.067,0.007,0.074v-0.001
			l0.001-0.002l0.004,0.001l-0.008,0.001c-0.574,0.007-1.038,0.013-1.387,0.017c-8.49,0.134-13.105,0.419-15.606,0.547
			c-2.5,0.152-2.88,0.176-2.88,0.176c0,0-2.442,0.138-6.778,0.511c-4.336,0.385-10.566,0.979-18.142,2.258
			c-3.787,0.645-7.91,1.477-12.294,2.697c-2.191,0.616-4.448,1.335-6.755,2.243c-2.304,0.904-4.665,2.016-7.02,3.531
			c-1.173,0.782-2.345,1.668-3.463,2.757c-1.115,1.084-2.175,2.42-2.982,4.021c-0.399,0.8-0.733,1.665-0.96,2.572
			c-0.23,0.896-0.356,1.89-0.362,2.639c-0.029,0.808-0.083,1.613,0.029,2.442l0.125,1.236c0.045,0.412,0.167,0.817,0.253,1.227
			c0.733,3.286,2.504,6.273,4.662,8.584c2.166,2.334,4.676,4.107,7.256,5.559c5.189,2.861,10.698,4.611,16.22,5.785
			c5.528,1.186,11.101,1.79,16.611,1.972c5.512,0.165,10.966-0.102,16.296-0.962c0.667-0.119,1.332-0.237,1.993-0.354
			c0.664-0.143,1.324-0.286,1.982-0.428c0.68-0.17,1.382-0.375,2.066-0.564c0.688-0.204,1.381-0.486,2.064-0.731
			c0.685-0.272,1.37-0.626,2.045-0.944c0.674-0.4,1.347-0.77,1.997-1.245c0.648-0.502,1.294-0.969,1.884-1.615
			c0.293-0.318,0.606-0.579,0.865-0.956l0.625-0.853c0.443-0.617,0.781-1.364,1.105-2.062c0.244-0.755,0.537-1.492,0.615-2.268
			c0.055-0.384,0.113-0.768,0.143-1.145c-0.005-0.375-0.01-0.748-0.014-1.117c0.01-0.754-0.176-1.417-0.289-2.105
			c-0.635-2.67-1.943-4.601-3.19-6.094c-2.558-2.979-5.067-4.458-6.694-5.444c-3.06-1.732-5.962-2.703-8.665-3.322
			c-2.707-0.632-5.24-0.801-7.671-0.819c-4.867,0.06-9.378,0.98-14.387,2.687c5.234,0.842,9.408,1.928,13.604,3.138
			c2.084,0.65,4.196,1.273,6.367,2.121c2.17,0.831,4.445,1.798,6.732,3.125c1.198,0.725,3.052,1.909,4.532,3.67
			c0.739,0.86,1.339,1.884,1.526,2.781c0.003,0.213,0.121,0.448,0.081,0.64c-0.001,0.1,0.004,0.201,0.017,0.303
			c-0.015,0.096-0.042,0.187-0.05,0.282c0.016,0.199-0.12,0.365-0.143,0.564c-0.12,0.182-0.164,0.384-0.325,0.582
			c-0.019,0.021-0.126,0.159-0.205,0.281c-0.059,0.129-0.229,0.234-0.334,0.357c-0.2,0.254-0.543,0.474-0.839,0.719
			c-0.317,0.237-0.718,0.442-1.079,0.674c-0.432,0.187-0.828,0.408-1.283,0.587c-0.475,0.16-0.922,0.356-1.42,0.501
			c-0.509,0.139-1.019,0.278-1.531,0.418c-0.562,0.121-1.127,0.243-1.693,0.365c-0.576,0.102-1.155,0.205-1.736,0.308
			c-4.682,0.758-9.686,1.014-14.743,0.86c-5.057-0.166-10.194-0.725-15.173-1.793c-4.975-1.042-9.823-2.641-13.957-4.924
			c-2.052-1.146-3.896-2.492-5.297-4.009c-1.406-1.518-2.329-3.172-2.721-4.9c-0.042-0.219-0.127-0.427-0.144-0.651l-0.059-0.669
			c-0.082-0.438-0.027-0.903-0.016-1.36c0-0.516,0.052-0.779,0.128-1.1c0.076-0.312,0.194-0.621,0.35-0.935
			c0.598-1.26,2.006-2.565,3.66-3.657c3.398-2.19,7.589-3.641,11.537-4.765c3.989-1.113,7.875-1.906,11.476-2.521
			c7.211-1.225,13.271-1.81,17.481-2.187c4.217-0.366,6.604-0.503,6.604-0.503s0.371-0.022,2.812-0.17
			c2.441-0.125,6.963-0.403,15.265-0.533c0.34-0.003,0.793-0.008,1.353-0.015c1.134-0.001,2.483-0.003,4.037-0.005
			c0.785,0.009,1.622,0.019,2.509,0.029c0.444,0.005,0.901,0.011,1.37,0.017c0.233,0.002,0.471,0.005,0.711,0.008
			c0.222-0.014,0.587,0.103,0.428-0.251c-0.303-1.968-0.691-4.308-0.94-6.475c-0.047-0.502-0.095-1.013-0.144-1.534
			c-0.024-0.26-0.049-0.523-0.073-0.788l-0.029-0.452c-0.031-0.591-0.083-1.199-0.102-1.833c-0.061-1.264-0.081-2.61-0.094-4.028
			c0.008-2.836,0.15-5.962,0.495-9.298c0.333-3.337,0.903-6.882,1.785-10.525c0.876-3.644,2.019-7.417,3.62-11.03
			c0.799-1.804,1.699-3.584,2.759-5.217c1.044-1.638,2.231-3.178,3.527-4.362c1.263-1.164,2.735-2.004,3.585-2
			c0.433-0.017,0.71-0.014,1.035,0.193c0.323,0.213,0.744,0.526,1.137,1.12c0.821,1.127,1.43,2.977,1.801,4.892
			c0.392,1.935,0.498,4.057,0.518,6.178l-0.012,1.603l-0.087,1.619c-0.035,1.075-0.178,2.165-0.272,3.245
			c-0.107,1.082-0.285,2.167-0.422,3.246c-0.156,1.212-0.336,2.572-0.363,3.868c-0.215,5.258,1.142,10.533,3.525,14.889
			c2.365,4.396,5.596,7.914,8.954,10.78c1.692,1.428,3.432,2.697,5.212,3.822c0.438,0.28,0.906,0.562,1.333,0.811
			c0.262,0.147,0.521,0.294,0.778,0.439c0.704,0.4,1.417,0.736,2.113,1.074c0.335,0.28,0.73,0.053,1.101,0.002
			c0.374-0.082,0.744-0.162,1.112-0.242c0.364-0.08,0.726-0.158,1.084-0.236c0.18-0.043,0.358-0.085,0.535-0.128
			c0.708-0.168,1.389-0.331,2.039-0.486c2.602-0.624,4.723-1.132,6.183-1.483C419.732,268.601,426.207,265.645,435.623,260.785z"/>
		<path d="M284.684,309.044c-2.267,1.382-4.237,2.903-6.01,4.575c-1.765,1.681-3.345,3.526-4.644,5.775
			c-1.262,2.241-2.373,4.949-2.295,8.385c0.024,0.428,0.049,0.86,0.074,1.297c0.056,0.438,0.162,0.882,0.255,1.33
			c0.148,0.91,0.546,1.775,0.91,2.674c0.18,0.453,0.465,0.841,0.709,1.268c0.267,0.404,0.5,0.869,0.823,1.225
			c0.634,0.722,1.264,1.557,2.03,2.143c1.979,1.76,5.588,4.23,13.008,6.045c1.328,0.261,2.898,0.689,4.594,0.902
			c0.852,0.129,1.739,0.264,2.654,0.402c0.913,0.111,1.849,0.19,2.806,0.29c3.825,0.396,7.898,0.517,11.633,0.554
			c7.516,0.076,13.751-0.7,13.751-0.7s0.326-0.036,0.918-0.102c0.592-0.072,1.452-0.137,2.515-0.323
			c1.063-0.171,2.334-0.376,3.753-0.604c1.41-0.305,2.977-0.595,4.618-0.993c3.278-0.823,6.895-1.889,10.312-3.293
			c3.408-1.42,6.645-3.046,9.198-4.742c4.343-2.768,7.456-5.902,9.521-8.824c2.051-2.948,3.076-5.668,3.382-7.694
			c0.125-0.489,0.171-1.003,0.193-1.52c0.03-0.512,0.055-1.017,0.065-1.515c-0.046-0.508-0.102-1.011-0.165-1.504
			c-0.053-0.495-0.131-0.978-0.293-1.446c-0.139-0.47-0.285-0.931-0.438-1.382c-0.146-0.453-0.4-0.852-0.603-1.266
			c-0.222-0.403-0.423-0.818-0.671-1.184c-0.27-0.347-0.537-0.69-0.801-1.031c-2.207-2.646-4.871-3.974-7.346-4.811
			c-5.043-1.493-9.738-1.177-14.905-0.09c5.083,1.441,9.087,3.193,12.41,5.412c1.604,1.149,3.017,2.439,3.863,3.896
			c0.102,0.183,0.207,0.363,0.319,0.54c0.093,0.185,0.135,0.385,0.215,0.571c0.059,0.193,0.184,0.366,0.21,0.57
			c0.031,0.202,0.071,0.401,0.12,0.6c0.071,0.192,0.078,0.406,0.076,0.623c0.008,0.214,0.025,0.429,0.053,0.646
			c-0.029,0.23-0.058,0.463-0.074,0.699c-0.007,0.234-0.021,0.475-0.105,0.731c-0.062,0.25-0.125,0.529-0.186,0.84
			c-0.12,0.316-0.252,0.663-0.396,1.041c-0.331,0.756-0.786,1.654-1.506,2.645c-1.411,1.975-3.724,4.402-7.333,6.691
			c-2.103,1.396-4.881,2.79-7.852,4.036c-2.985,1.233-6.222,2.193-9.176,2.946c-1.481,0.363-2.909,0.629-4.188,0.913
			c-1.299,0.213-2.461,0.403-3.435,0.563c-0.97,0.176-1.768,0.236-2.312,0.305c-0.546,0.062-0.846,0.097-0.846,0.097
			s-5.735,0.696-12.806,0.61c-3.55-0.045-7.403-0.167-10.909-0.534c-0.876-0.09-1.736-0.179-2.571-0.264
			c-0.819-0.124-1.614-0.244-2.375-0.359c-1.544-0.188-2.851-0.56-4.017-0.773c-0.802-0.165-1.492-0.413-2.172-0.591
			c-0.335-0.095-0.66-0.187-0.974-0.275c-0.295-0.11-0.579-0.217-0.854-0.32c-0.549-0.206-1.058-0.396-1.531-0.575
			c-0.433-0.213-0.833-0.41-1.205-0.594c-1.468-0.741-2.287-1.371-2.843-1.858c-1.707-1.44-2.364-2.83-2.701-4.497
			c-0.339-1.668-0.119-3.626,0.327-5.589c0.452-1.973,1.136-3.982,1.987-6.062C282.314,313.485,283.334,311.318,284.684,309.044z"/>
		<path d="M293.924,342.929c-1.284,2.329-2.019,4.802-2.283,7.321c-0.27,2.521,0.007,5.147,0.985,7.706
			c0.962,2.558,2.678,5.01,5.03,6.965c2.343,1.973,5.254,3.479,8.558,4.491c0.562,0.157,1.21,0.339,1.987,0.557
			c0.777,0.188,1.681,0.355,2.754,0.577c1.069,0.188,2.304,0.346,3.742,0.524c1.429,0.101,3.074,0.286,4.932,0.295
			c0.558,0.014,1.164,0.029,1.81,0.047c0.64-0.012,1.319-0.024,2.03-0.037c0.71-0.019,1.45-0.037,2.215-0.057
			c0.757-0.05,1.537-0.103,2.332-0.155c1.596-0.082,3.226-0.27,4.854-0.447c1.641-0.156,3.221-0.4,4.754-0.604
			c3.06-0.433,5.851-0.899,7.875-1.293c2.026-0.361,3.285-0.657,3.285-0.657s1.057-0.203,2.784-0.605
			c0.863-0.212,1.896-0.464,3.047-0.745c1.149-0.33,2.423-0.64,3.762-1.07c2.682-0.795,5.64-1.884,8.473-3.18
			c2.831-1.3,5.53-2.889,7.653-4.591c2.146-1.715,3.977-3.678,5.225-5.89c1.25-2.2,1.904-4.561,1.995-6.647
			c0.098-2.094-0.247-3.875-0.696-5.303c-0.229-0.716-0.488-1.351-0.748-1.919c-0.303-0.592-0.447-0.97-0.963-1.699
			c-0.797-1.298-2.251-2.232-3.13-2.661c-0.98-0.508-1.82-0.77-2.646-1.023c-1.624-0.46-3.067-0.672-4.446-0.818
			c-2.748-0.276-5.198-0.231-7.565-0.049c-4.725,0.387-9.102,1.324-14.208,2.755c5.156,1.159,9.43,2.12,13.832,3.11
			c2.189,0.479,4.425,0.943,6.7,1.505c1.129,0.281,2.287,0.591,3.312,0.969c0.487,0.19,1,0.394,1.303,0.585
			c0.402,0.239,0.249,0.165,0.273,0.183c-0.065-0.117,0.15,0.279,0.265,0.525c0.125,0.286,0.254,0.604,0.364,0.957
			c0.217,0.706,0.361,1.536,0.318,2.457c-0.045,0.922-0.322,1.937-0.955,3.076c-0.634,1.137-1.734,2.369-3.259,3.583
			c-1.502,1.2-3.625,2.477-6.018,3.577c-2.393,1.098-5.004,2.078-7.447,2.808c-1.204,0.394-2.39,0.684-3.438,0.991
			c-1.069,0.266-2.027,0.504-2.829,0.703c-1.61,0.383-2.609,0.58-2.609,0.579c0,0-1.178,0.272-3.105,0.607
			c-1.918,0.365-4.584,0.801-7.522,1.207c-1.469,0.192-3.014,0.427-4.529,0.565c-1.522,0.162-3.05,0.339-4.515,0.41
			c-0.733,0.05-1.453,0.098-2.15,0.145c-0.694,0.018-1.368,0.035-2.013,0.052c-0.645,0.014-1.26,0.027-1.841,0.04
			c-0.574-0.014-1.114-0.025-1.611-0.037c-1.67-0.001-3.077-0.168-4.326-0.247c-1.224-0.153-2.275-0.281-3.164-0.434
			c-0.875-0.183-1.626-0.313-2.252-0.459c-0.613-0.167-1.127-0.307-1.57-0.428c-2.583-0.766-4.681-1.693-6.421-2.766
			c-1.748-1.069-3.132-2.304-4.297-3.786c-1.167-1.477-2.123-3.212-2.795-5.256C294.344,347.899,293.881,345.569,293.924,342.929z"
			/>
		<path d="M322.674,369.626c-1.06,2.44-1.416,5.065-1.108,7.665c0.326,2.598,1.453,5.174,3.281,7.297
			c1.839,2.104,4.279,3.731,7.025,4.828c2.754,1.103,5.816,1.711,9.16,1.911c2.257,0.104,5.969,0.293,13.275-0.673
			c0.414-0.024,1.363-0.233,1.363-0.233s0.339-0.043,0.712-0.09c0.233-0.036,0.478-0.075,0.684-0.107
			c4.176-0.716,7.99-1.597,11.186-2.69c3.197-1.096,5.762-2.388,7.434-3.428c3.062-1.902,5.73-4.754,6.848-8.198
			c0.543-1.718,0.647-3.45,0.495-5.03c-0.22-1.56-0.628-2.988-1.23-4.221c-1.171-2.496-2.819-4.385-4.628-6.06
			c-1.837-1.648-3.883-3.087-6.235-4.319c1.494,2.181,2.603,4.3,3.501,6.328c0.868,2.032,1.533,4.012,1.773,5.87
			c0.15,0.929,0.114,1.806,0.053,2.619c-0.134,0.8-0.34,1.524-0.681,2.204c-0.722,1.325-1.995,2.692-4.148,4.019
			c-1.169,0.7-3.087,1.679-5.764,2.593c-2.679,0.91-6.095,1.702-9.934,2.357c-0.191,0.032-0.416,0.069-0.632,0.105
			c-0.34,0.068-0.649,0.131-0.649,0.131s-0.894,0.104-1.264,0.174c-6.683,0.886-9.811,0.714-11.704,0.652
			c-5.604-0.293-9.555-1.232-12.684-3.089c-1.54-0.965-2.909-2.233-4.01-3.998C323.725,374.48,322.88,372.26,322.674,369.626z"/>
		<path d="M379.149,366.545c2.625-0.448,4.99-1.308,7.21-2.292c2.237-0.981,4.246-2.242,6.247-3.663
			c3.897-2.936,7.521-6.846,10.692-12.638c0.262-0.493,0.6-1.048,0.935-1.743c0.322-0.7,0.698-1.516,1.144-2.482
			c0.473-0.956,0.906-2.102,1.398-3.444c0.464-1.25,0.993-2.679,1.602-4.32c0.189-0.548,0.578-1.43,0.901-2.184
			c0.16-0.379,0.306-0.724,0.411-0.975c0.1-0.255,0.182-0.401,0.182-0.401s0.267-0.497,0.606-1.132
			c0.167-0.319,0.353-0.672,0.532-1.015c0.197-0.331,0.389-0.65,0.547-0.918c2.178-3.674,4.464-6.24,6.436-8.062
			c1.987-1.809,3.611-2.949,4.76-3.675c4.652-2.94,8.76-4.59,12.817-6.095c2.039-0.736,4.087-1.401,6.272-2.006
			c2.188-0.599,4.506-1.155,7.13-1.482c-2.48-0.946-4.912-1.535-7.3-1.906c-2.394-0.367-4.768-0.505-7.215-0.376
			c-2.446,0.132-4.971,0.527-7.635,1.314c-2.659,0.791-5.469,1.976-8.354,3.784c-1.427,0.886-3.46,2.287-5.933,4.531
			c-2.454,2.251-5.294,5.438-7.919,9.868c-0.193,0.319-0.431,0.703-0.657,1.105c-0.209,0.412-0.425,0.835-0.619,1.218
			c-0.383,0.767-0.684,1.367-0.684,1.367s-0.102,0.175-0.229,0.468c-0.133,0.292-0.314,0.693-0.514,1.133
			c-0.398,0.881-0.861,1.918-1.058,2.557c-0.614,1.665-1.149,3.113-1.616,4.381c-0.429,1.18-0.802,2.188-1.214,3.018
			c-0.383,0.844-0.706,1.556-0.983,2.167c-0.286,0.606-0.577,1.085-0.799,1.515c-2.695,5.031-5.197,8.724-7.755,12.236
			c-1.328,1.704-2.611,3.443-4.124,5.111C382.86,363.183,381.24,364.932,379.149,366.545z"/>
	</g>
</g>
</svg>
