<?xml version="1.0" encoding="utf-8"?>
<!-- Generator: Adobe Illustrator 16.0.0, SVG Export Plug-In . SVG Version: 6.00 Build 0)  -->
<!DOCTYPE svg PUBLIC "-//W3C//DTD SVG 1.1//EN" "http://www.w3.org/Graphics/SVG/1.1/DTD/svg11.dtd">
<svg version="1.1" xmlns="http://www.w3.org/2000/svg" xmlns:xlink="http://www.w3.org/1999/xlink" x="0px" y="0px" width="640px"
	 height="640px" viewBox="0 0 640 640" enable-background="new 0 0 640 640" xml:space="preserve">
<g id="fond">
</g>
<g id="couleurs">
</g>
<g id="traits">
	<g>
		<path fill="#FFE4B7" d="M494.061,311.278c10.467,10.023,18.386,22.967,22.348,38.008c6.677,25.348,0.635,51.052-14.184,70.35
			c1.71-1.195,3.194-2.288,4.436-3.244c1.587-1.158,2.754-2.149,3.572-2.795c0.812-0.652,1.243-0.998,1.243-0.998
			s0.433-0.344,1.213-1.03c0.775-0.692,1.969-1.656,3.397-2.987c2.918-2.634,6.85-6.536,11.275-11.811
			c2.238-2.63,4.554-5.579,6.945-8.766c2.352-3.212,4.738-6.687,7.019-10.414c2.266-3.733,4.396-7.733,6.21-11.947
			c1.805-4.21,3.295-8.655,4.04-13.182c0.44-2.263,0.545-4.532,0.578-6.78c-0.054-2.24-0.326-4.44-0.836-6.56
			c-0.573-2.096-1.392-4.09-2.452-5.943c-1.09-1.839-2.468-3.492-3.99-5.008c-3.144-2.955-6.988-5.231-11.09-6.811
			c-1.98-0.824-4.281-1.452-6.413-2.136c-2.103-0.656-4.166-1.301-6.185-1.931c-0.919-0.315-1.847-0.513-2.742-0.738
			c-0.896-0.221-1.767-0.435-2.609-0.643c-1.687-0.417-3.261-0.806-4.696-1.161c-1.43-0.389-2.747-0.603-3.89-0.823
			c-1.143-0.218-2.118-0.403-2.898-0.552c-1.439-0.276-2.798-0.559-4.092-0.849c-1.303-0.226-2.541-0.455-3.731-0.702
			C495.684,311.652,494.863,311.466,494.061,311.278 M257.702,302.637c-0.263,0.05-0.538,0.102-0.824,0.155
			c1.312,0.293,2.634,0.564,3.967,0.817C259.712,303.268,258.656,302.939,257.702,302.637 M517.764,491.559L517.764,491.559
			L517.764,491.559l-2.334,28.334l-0.086,0.027L505.097,640H200.43l-26-102.441l17.951,5.337l56.954,10.419l47.844,5.232
			l15.531,1.222c14.001,0.456,47.99,1.497,66.515,1.497c3.477,0,6.409-0.036,8.562-0.121c0.3-0.013,0.593-0.026,0.878-0.039
			c1.081-0.055,1.906-0.125,2.433-0.213c3.869-0.645,5.556-4.253,6.265-7.807c0.402-3.786,0.402-7.527,0.402-7.527
			s8.871-0.554,14.226-3.686c1.487-4.125-0.226-10.98-0.226-10.98l0,0l0,0l0,0c0,0,5.333-1.334,9.333-2s9.333-6,9.333-6l2-2.667l0,0
			L517.764,491.559L517.764,491.559 M412.43,230.226L412.43,230.226c0,0,17.86,0.589,37.928,1.873l16.072,0.794
			c0,0-0.066,0.122-0.198,0.354c11.73,0.963,22.828,2.171,30.198,3.646c23.333,4.667,75.333,22,75.333,22l-27.601,58.881
			c2.154,1.344,4.23,2.912,6.157,4.729c2.002,1.977,3.842,4.195,5.313,6.685c1.443,2.501,2.545,5.199,3.291,7.976
			c0.682,2.788,1.021,5.617,1.081,8.414c-0.026,2.779-0.184,5.549-0.69,8.196c-0.89,5.339-2.584,10.322-4.57,14.958
			c-1.998,4.637-4.303,8.943-6.721,12.923c-4.863,7.945-10.05,14.672-14.679,20.149c-4.626,5.512-8.931,9.786-12,12.546
			c-1.522,1.413-2.782,2.433-3.606,3.166c-0.83,0.727-1.287,1.09-1.287,1.09s-0.454,0.366-1.312,1.057
			c-0.862,0.683-2.101,1.73-3.768,2.952c-3.276,2.525-8.137,5.94-14.275,9.686c-6.138,3.747-13.6,7.735-21.953,11.543
			c-8.354,3.81-17.613,7.393-27.282,10.482c-2.422,0.759-4.863,1.508-7.332,2.2l-3.72,1.013l-1.876,0.481l-2.089,0.503l-1.852,0.412
			l-0.231,0.051l-0.22-0.077l-0.438-0.182l-0.875-0.362l-2.1-0.859c-1.155-0.476-2.312-0.934-3.467-1.372
			c-2.303-0.907-4.619-1.76-6.929-2.587c-9.234-3.308-18.346-6.124-26.787-8.28c-2.102-0.586-4.188-0.974-6.201-1.452
			c-1.008-0.228-2.003-0.452-2.983-0.673c-0.489-0.11-0.976-0.22-1.458-0.329c-0.245-0.062-0.478-0.099-0.707-0.132l-0.481-0.076
			c-0.818-0.131-1.61-0.257-2.371-0.378c-0.761-0.134-1.491-0.246-2.189-0.273c-1.37-0.082-2.615-0.245-3.696-0.245
			c-0.019,0-0.037,0-0.056,0c-1.093,0.008-2.026,0.014-2.772,0.019c-5.495,0.188-9.684,0.983-13.709,1.997
			c-1.904,0.521-3.806,1.063-5.736,1.803l-4.489,3.367l-1.562-0.293c-0.146,0.096-0.293,0.193-0.439,0.293
			c0.061-0.114,0.121-0.229,0.183-0.341l-15.94-2.989c-11.046,5.906-23.524,9.146-36.397,9.146c-7.041,0-14.198-0.969-21.305-3.003
			c-5.015-1.436-9.773-3.335-14.238-5.638l0.366,0.824c0,0-20.666,2.666-18,6.666s-2,6.667-2,6.667s-14,4.001-12,8.667
			s6,8.666,6,8.666l12,1.334l0.418,1.115c0.829-0.479,1.652-0.959,2.467-1.436c6.352-3.755,12.262-7.273,16.692-9.649
			c4.417-2.402,7.318-3.718,7.318-3.718s0.591-0.297,1.698-0.792c1.103-0.501,2.714-1.21,4.762-2.023
			c2.062-0.783,4.542-1.71,7.445-2.478c2.892-0.779,6.18-1.479,9.78-1.739c0.954-0.068,1.931-0.104,2.923-0.104
			c2.742,0,5.604,0.279,8.445,0.948c3.514,0.829,6.956,1.714,10.405,2.603c6.868,1.779,13.497,3.607,19.003,5.203
			c8.858,2.566,14.305,4.346,17.146,5.294c5.744,1.932,10.131,3.888,14.098,6.226c1.979,1.178,3.859,2.442,5.693,3.942
			c0.914,0.754,1.821,1.558,2.672,2.499c0.423,0.467,0.835,0.969,1.182,1.54c0.338,0.55,0.652,1.25,0.518,1.903
			c-0.194-0.624-0.687-0.972-1.172-1.274c-0.49-0.298-1.018-0.528-1.547-0.733c-1.056-0.412-2.131-0.72-3.189-1.01
			c-2.123-0.573-4.21-1.047-6.34-1.576c-4.266-1.042-8.721-2.275-14.356-4.107c-2.787-0.899-8.133-2.63-16.884-5.158
			c-5.439-1.569-12.001-3.38-18.797-5.144c-3.384-0.875-6.883-1.775-10.222-2.566c-2.214-0.523-4.476-0.749-6.696-0.749
			c-0.78,0-1.558,0.028-2.324,0.081c-5.917,0.457-11.213,2.24-14.938,3.677c-1.867,0.738-3.358,1.391-4.384,1.855
			c-1.027,0.455-1.586,0.735-1.586,0.735s-2.692,1.224-6.931,3.537c-4.253,2.289-10.003,5.722-16.444,9.54
			c-3.23,1.895-6.638,3.873-10.229,5.71c-3.609,1.813-7.364,3.552-11.485,4.631c-2.062,0.569-4.224,0.812-6.215,0.955
			c-0.732,0.026-1.454,0.041-2.163,0.041c-1.221,0-2.402-0.043-3.532-0.146c-3.585-0.283-6.736-0.875-9.386-1.461
			c-3.505-0.795-6.035-1.53-7.944-2.13c-1.911-0.594-3.212-1.034-4.195-1.384c-5.758-2.026-10.019-4.208-13.846-6.612
			c-5.23,1.059-10.456,1.569-15.617,1.569h-0.004l0,0l0,0c-0.005,0-0.01,0-0.015,0c-34.673-0.003-66.373-23.06-75.947-57.99
			c-0.011-0.039-0.02-0.071-0.03-0.109c-0.021-0.079-0.043-0.16-0.064-0.239c-0.002-0.008-0.005-0.019-0.007-0.026
			c-0.021-0.074-0.04-0.149-0.061-0.224c-0.016-0.06-0.03-0.116-0.046-0.175l0,0c-1.776-6.742-2.623-13.511-2.62-20.169
			c0.011-22.777,9.97-44.272,26.707-59.051c-3.069-2.683-5.562-5.813-7.911-10.364c-1.148-2.273-3.447-6.827-6.251-12.377
			c-1.391-2.781-2.906-5.812-4.468-8.931c-1.425-2.946-2.871-5.934-4.319-8.926l-1.146-2.374l-0.287-0.593l-0.143-0.296
			l-0.072-0.148l0.104-0.107l1.046-0.8c1.387-1.059,2.77-2.115,4.145-3.166c1.37-1.052,2.837-2.048,4.233-3.062
			c0.567-0.403,1.133-0.804,1.694-1.203c0.367-0.254,0.731-0.507,1.093-0.758c1.461-0.963,2.886-1.901,4.254-2.803
			c2.747-1.781,5.314-3.315,7.474-4.668c4.397-2.546,7.234-4.188,7.234-4.188s0.696-0.435,1.98-1.113
			c1.279-0.69,3.115-1.683,5.348-2.889c2.216-1.241,4.896-2.558,7.816-3.991c1.458-0.72,2.977-1.469,4.533-2.237
			c1.558-0.771,3.151-1.442,4.765-2.186c6.457-2.908,13.207-5.947,18.929-8.524c1.432-0.641,2.799-1.254,4.081-1.828
			c1.314-0.531,2.541-1.027,3.659-1.479c2.242-0.892,4.051-1.611,5.256-2.09c2.23-0.871,4.28-1.495,6.239-1.913
			c0.979-0.209,1.937-0.367,2.882-0.478c0.869-0.096,1.764-0.115,2.64-0.115c0.084,0,0.168,0,0.252,0
			c1.923,0.019,3.834,0.204,5.817,0.519c0.995,0.161,1.996,0.343,3.048,0.573c1.081,0.257,2.166,0.554,3.253,0.884
			c-0.763,0.858-1.494,1.681-2.203,2.478c-0.687,0.811-1.358,1.603-2.02,2.339c-0.117,0.131-0.235,0.262-0.353,0.39l60.958,35.201
			c7.073-9.267,45.618-15.075,45.618-15.075l13.877,21.72c5.704,1.865,11.057,4.341,15.997,7.331
			c0.941,0.127,1.877,0.199,2.789,0.199c1.415,0,2.771-0.174,4.003-0.584c8-2.667,12-16,12-16s6.942-2.136,15.399-6.868
			c-0.574-0.04-1.152-0.083-1.732-0.132c0,0,17.154-13.855,29.49-27.096C402.058,244.228,412.43,230.226,412.43,230.226
			 M125.796,165.654c-3.661-16.975-3.983-36.354,1.3-58.093c23.333-96,158-102.667,158-102.667s0.897-0.028,2.554-0.028
			c14.491,0,87.086,2.147,124.779,44.028c42,46.667,48.667,75.333,48.667,75.333s7.402,11.876,15.459,24.353l14.358,21.538
			c1.47,2.075,2.734,3.779,3.704,4.964l1.812,1.812l0,0l0,0c1.759,0.704-0.751,2.892-3.515,4.803
			c-3.078,3.703-7.781,8.196-12.484,8.196c-1.04,0-2.439-0.107-4.089-0.293c-2.386,0.689-4.845,1.171-7.051,1.171
			c-1.282,0-2.479-0.163-3.527-0.544c-7.334-2.667-22.667-6.667-22.667-6.667l0,0l0,0l0,0c0,0,2.762-49.752-4.346-66.161
			c-2.609-3.028-5.729-4.408-8.468-4.408c-1.898,0-3.614,0.663-4.853,1.901c-3.752,3.752-7.505,11.904-7.955,12.9
			c-0.044,0.58-0.093,1.21-0.147,1.883c-0.376,5.957-1.87,25.39-5.872,35.859c-1.391,3.935-3.053,6.541-5.026,6.693
			c-0.095,0.007-0.189,0.011-0.284,0.011c-8.456,0-11.804-29.388-19.716-33.344c-6.502-3.251-22.251-10.906-27.922-13.659
			l-27.077,41.657c0,0-1.553,3.364-6.106,6.275c-0.521,3.295-0.834,6.758-0.895,10.393c-0.666,40,8,70,8,70
			s-4.167,1.302-8.431,1.302c-2.559,0-5.152-0.469-6.902-1.969c-4.667-4-61.333-34.667-61.333-34.667l-34.667-34.667
			c0,0-2.666,20,2.667,33.333s20.666,34.667,16.666,36c-0.5,0.167-1.104,0.239-1.778,0.239c-4.721,0-12.888-3.573-12.888-3.573
			l-48-50.667c0,0-10.667,14-2.667,27.333s26.001,26,14.667,27.333c0,0-50.035-29.094-63.422-85.499
			c-0.161,0.488-0.316,0.75-0.466,0.75c-0.156,0-0.306-0.292-0.445-0.92C125.199,166.857,125.34,166.126,125.796,165.654 M640,0H0
			v640h640V0"/>
		<path fill="#E7DAED" d="M347.586,445.526c-1.976,0.757-3.981,1.72-6.051,3.074l1.562,0.293L347.586,445.526 M362.469,401.112
			c-6.361,19.775-20.027,35.307-37.131,44.451l15.94,2.989c2.411-4.429,5.775-7.598,9.757-10.075
			c4.123-2.498,9.174-4.261,15.668-4.545c0.876-0.012,1.973-0.027,3.258-0.045c0.031,0,0.063,0,0.095,0
			c1.261,0,2.682,0.167,4.261,0.264c0.813,0.036,1.647,0.16,2.514,0.306c0.867,0.138,1.771,0.28,2.703,0.428l0.55,0.088
			c0.265,0.04,0.528,0.083,0.772,0.145c0.5,0.112,1.005,0.226,1.513,0.339c1.016,0.229,2.048,0.46,3.093,0.694
			c2.084,0.494,4.257,0.901,6.421,1.502c0.287,0.073,0.575,0.147,0.863,0.222C379.522,429.123,368.808,416.503,362.469,401.112"/>
		<path fill="#E7DAED" d="M105.088,309.348l-0.042,0.03l0.007-0.004l0.028-0.016L105.088,309.348 M158.015,280.925
			c-3.407,1.532-6.937,3.119-10.382,4.668c-1.574,0.721-3.182,1.393-4.657,2.121c-1.479,0.725-2.922,1.432-4.308,2.111
			c-2.776,1.351-5.327,2.587-7.431,3.758c-2.122,1.134-3.869,2.067-5.084,2.716c-1.224,0.636-1.883,1.045-1.883,1.045
			s-2.677,1.566-6.827,3.994c-2.023,1.283-4.45,2.743-7.016,4.419c-1.276,0.846-2.604,1.727-3.966,2.631
			c-0.333,0.232-0.667,0.465-1.003,0.7l-0.355,0.25l0.243,0.487c1.56,3.121,3.074,6.151,4.464,8.933
			c2.759,5.573,5.021,10.144,6.152,12.427c1.812,3.741,2.817,6.996,3.295,10.264c6.819-4.404,14.441-7.824,22.718-10.004l0,0
			c6.727-1.771,13.485-2.618,20.129-2.619c20.444-0.002,39.852,8.009,54.307,21.744c8.224-22.292,25.897-38.783,47.086-46.177
			c-0.921-0.265-1.808-0.528-2.652-0.782c-1.333-0.253-2.655-0.524-3.967-0.817c-7.878,1.464-24.744,4.203-40.71,4.203
			c-8.717,0-17.167-0.816-23.738-3.102C176.072,298.204,163.762,286.95,158.015,280.925 M466.231,233.248
			c-2.693,4.725-32.847,55.061-94.933,55.061c-2.658,0-5.361-0.091-8.137-0.283c-8.457,4.732-15.399,6.868-15.399,6.868
			s-4,13.333-12,16c-1.231,0.41-2.588,0.584-4.003,0.584c-0.912,0-1.848-0.072-2.789-0.199c13.85,8.381,24.493,20.813,30.789,35.237
			c7.918-26.167,28.83-47.731,57.207-55.206l0,0c0.031-0.008,0.062-0.016,0.094-0.024c0.008-0.002,0.018-0.005,0.025-0.007
			c0.026-0.007,0.05-0.013,0.077-0.02c0.004-0.001,0.008-0.002,0.013-0.003c6.877-1.792,13.785-2.649,20.577-2.65
			c17.832-0.001,34.903,5.904,48.773,16.287c1.261-0.137,2.519-0.226,3.802-0.306c0.884-0.069,1.772-0.098,2.676-0.098
			c1.447,0,2.932,0.074,4.491,0.171c1.267,0.083,2.583,0.187,3.961,0.328c1.365,0.206,2.794,0.443,4.3,0.717
			c0.815,0.149,1.835,0.336,3.03,0.555c1.194,0.224,2.572,0.445,4.062,0.843c1.498,0.366,3.14,0.768,4.898,1.198
			c0.879,0.215,1.787,0.438,2.722,0.667c0.933,0.234,1.899,0.442,2.857,0.767c2.103,0.655,4.251,1.324,6.44,2.006
			c2.255,0.727,4.493,1.322,6.919,2.316c2.525,0.978,5.052,2.206,7.478,3.718l27.601-58.881c0,0-52-17.333-75.333-22
			C489.06,235.419,477.962,234.211,466.231,233.248 M412.43,230.226c0,0-10.372,14.002-21.51,30.571
			c2.851-3.061,5.444-6.088,7.51-8.904C409.43,236.893,412.43,230.226,412.43,230.226 M412.43,230.226l37.928,1.873
			C430.29,230.815,412.43,230.226,412.43,230.226"/>
		<path fill="#C5ABD3" d="M312.974,303.947l0.002,0.003c3.085,1.013,6.063,2.208,8.935,3.56c-3.017-0.356-6.021-0.53-9.008-0.53
			c-1.365,0-2.729,0.037-4.084,0.109c-2.702,0.379-6.158,0.817-9.85,1.167c-27.944,5.156-51.984,25.582-60.335,54.756
			c-1.595,5.569-2.534,11.171-2.866,16.723c0.961,2.547,1.8,5.166,2.509,7.856c2.151,8.168,2.939,16.373,2.504,24.376
			c6.996,18.179,20.771,33.543,39.157,42.2c-4.097-0.485-8.207-1.288-12.302-2.459c-5.015-1.436-9.773-3.335-14.238-5.638l0,0
			c4.465,2.303,9.224,4.202,14.238,5.638c7.106,2.034,14.264,3.003,21.305,3.003c12.873,0,25.352-3.24,36.397-9.146
			c17.104-9.145,30.77-24.676,37.131-44.451c-1.269-3.079-2.36-6.27-3.263-9.562c-0.032-0.116-0.063-0.231-0.095-0.348
			c-0.024-0.09-0.049-0.181-0.072-0.271c-0.017-0.062-0.031-0.119-0.048-0.181l0,0c-1.834-6.962-2.709-13.951-2.706-20.827
			c0.004-8.031,1.206-15.91,3.475-23.409c-6.296-14.424-16.939-26.856-30.789-35.237
			C324.03,308.288,318.678,305.812,312.974,303.947"/>
		<path fill="#FFFFFF" d="M280.084,354.784c-1.287,4.499-3.938,7.682-5.923,7.112c-1.985-0.567-2.549-4.671-1.262-9.168
			c1.286-4.499,3.937-7.681,5.922-7.114C280.807,346.183,281.372,350.287,280.084,354.784z"/>
		
			<ellipse transform="matrix(0.9614 0.2751 -0.2751 0.9614 112.04 -71.2556)" fill="#FFFFFF" cx="310.006" cy="363.732" rx="3.738" ry="8.47"/>
		<path fill="#FFFFFF" d="M244.793,370.235c2.609,18.96,15.566,36.831,34.393,41.896c19.235,5.175,40.156-4.481,50.521-21.169
			c2.909-4.685-4.468-8.961-7.361-4.303c-8.76,14.104-26.102,21.23-42.349,16.859c-15.39-4.141-24.916-20.534-26.982-35.55
			C252.267,362.543,244.054,364.862,244.793,370.235z"/>
		<path fill="#C9B0D5" d="M263.497,304.392c-21.188,7.394-38.862,23.885-47.086,46.177l0,0
			C224.634,328.28,242.313,311.787,263.497,304.392L263.497,304.392"/>
		<path fill="#AD8BBF" d="M240.78,411.965c-0.37,6.798-1.622,13.449-3.67,19.806l13.986,9.122l2.301,5.176
			c4.465,2.303,9.224,4.202,14.238,5.638c4.095,1.171,8.205,1.974,12.302,2.459C261.551,445.508,247.776,430.144,240.78,411.965
			 M263.498,304.392c-21.185,7.395-38.864,23.888-47.087,46.177c8.367,7.951,15.074,17.822,19.356,29.164
			c0.332-5.552,1.271-11.153,2.866-16.723c8.351-29.174,32.391-49.6,60.335-54.756c-3.894,0.369-8.052,0.639-11.872,0.639
			C280.594,308.893,270.961,306.544,263.498,304.392 M312.976,303.95l1.454,2.276c0,0-2.211,0.385-5.611,0.862
			c1.355-0.072,2.719-0.109,4.084-0.109c2.986,0,5.991,0.174,9.008,0.53C319.039,306.158,316.061,304.962,312.976,303.95"/>
		<path fill="#E7DAED" d="M312.71,559.769l39.72,3.124c0,0,23.394-1.21,35.356-1.748c-2.152,0.085-5.085,0.121-8.562,0.121
			C360.7,561.266,326.711,560.225,312.71,559.769 M249.335,553.315l14.095,2.578l33.749,2.654L249.335,553.315 M397.361,553.086
			c-0.709,3.554-2.396,7.162-6.265,7.807c-0.526,0.088-1.352,0.158-2.433,0.213c2.963-0.131,5.09-0.213,5.766-0.213
			C396.116,560.893,396.95,556.965,397.361,553.086 M411.764,530.893L411.764,530.893c0,0,1.713,6.855,0.226,10.98
			c0.517-0.303,1-0.629,1.44-0.98C418.43,536.893,411.764,530.893,411.764,530.893 M432.43,520.226l-2,2.667
			c0,0-5.333,5.334-9.333,6s-9.333,2-9.333,2s9.333-2,14.666-2S432.43,520.226,432.43,520.226 M515.344,519.92l-59.914,18.973
			c0,0,5,19-29,33c-28.619,11.784-64.316,16.482-104.72,16.482c-7.597,0-15.367-0.166-23.28-0.482c-50-2-110-23-110-23l-7-24
			l10.951,2.003l-17.951-5.337l26,102.441h304.667L515.344,519.92 M517.764,491.559L517.764,491.559L517.764,491.559"/>
		<path fill="#E7DAED" d="M237.11,431.771c-7.388,22.929-25.131,42.027-49.187,50.356c1.893,0.624,3.9,1.305,6.088,2.05
			c0.934,0.321,2.163,0.728,3.954,1.277c1.79,0.556,4.15,1.233,7.343,1.953c2.407,0.527,5.239,1.047,8.289,1.284
			c0.959,0.088,1.931,0.121,2.913,0.121c0.583,0,1.171-0.012,1.762-0.03c1.574-0.126,3.098-0.279,4.667-0.716
			c3.165-0.816,6.553-2.339,9.882-4.018c2.482-1.266,4.949-2.648,7.36-4.041l-0.418-1.115l-12-1.334c0,0-4-4-6-8.666
			s12-8.667,12-8.667s4.666-2.667,2-6.667s18-6.666,18-6.666l-0.366-0.824l-2.301-5.176L237.11,431.771"/>
		<path fill="#E7DAED" d="M477.764,308.893c0,0,30.666,0.667,43.333,4.667s34.001,8,32.667,29.333s-14,43.333-14,43.333
			s-26.666,33.333-46,40s-8-16.667-8-16.667L477.764,308.893z"/>
		<path fill="#FFE4B7" d="M299.097,282.227c0,0-38.545,5.808-45.618,15.075l7.951,4.591c0,0-1.359,0.295-3.728,0.744
			c0.954,0.302,2.01,0.63,3.143,0.972c0.845,0.254,1.731,0.517,2.652,0.782l0.001,0c7.463,2.152,17.096,4.501,23.599,4.501
			c3.82,0,7.979-0.27,11.872-0.639c3.691-0.35,7.147-0.787,9.85-1.167c3.4-0.477,5.611-0.862,5.611-0.862l-1.454-2.276l-0.002-0.003
			L299.097,282.227"/>
		<path fill="#FFE4B7" d="M238.43,448.227c0,0,10.666-1.999,20.666-0.666s15.334,1.333,15.334,1.333s2-6.667,10-6
			s39.333,5.333,39.333,5.333l16,4l-19.333,9.334C320.43,461.561,239.764,452.893,238.43,448.227z"/>
		<path fill="#C5ABD3" d="M443.096,183.561L443.096,183.561c0,0,15.333,4,22.667,6.667c1.048,0.381,2.245,0.544,3.527,0.544
			c2.206,0,4.665-0.482,7.051-1.171C465.301,188.354,443.096,183.561,443.096,183.561 M496.429,176.895c0,0-1.358,2.208-3.515,4.803
			C495.678,179.787,498.188,177.598,496.429,176.895L496.429,176.895 M490.913,170.118l2.517,3.775l1.188,1.189
			C493.647,173.897,492.383,172.193,490.913,170.118 M272.43,149.893c0,0-6.075,29.502-20.646,29.502
			c-1.072,0-2.188-0.159-3.354-0.502c-14.166-4.167-35.277-16.666-42.5-16.667c-1.444,0-2.333,0.5-2.5,1.667
			c-0.827,5.789-13.966,17.733-28.102,17.733c-2.957,0-5.957-0.522-8.898-1.733c-13.086-5.389-31.506-14.925-38.381-14.925
			c-0.388,0-0.74,0.03-1.051,0.094c-0.226,1.332-0.445,2.36-0.657,3c13.387,56.405,63.422,85.499,63.422,85.499
			c11.334-1.333-6.667-14-14.667-27.333s2.667-27.333,2.667-27.333l48,50.667c0,0,8.167,3.573,12.888,3.573
			c0.674,0,1.278-0.073,1.778-0.239c4-1.333-11.333-22.667-16.666-36s-2.667-33.333-2.667-33.333l34.667,34.667
			c0,0,56.666,30.667,61.333,34.667c1.75,1.5,4.344,1.969,6.902,1.969c4.264,0,8.431-1.302,8.431-1.302s-8.666-30-8-70
			c0.061-3.635,0.374-7.098,0.895-10.393c-3.472,2.219-8.688,4.174-16.289,4.174c-2.028,0-4.226-0.139-6.604-0.449
			C286.288,174.788,272.43,149.893,272.43,149.893 M417.475,127.793c-0.029,0.065-0.045,0.1-0.045,0.1s-0.031,0.646-0.103,1.783
			C417.382,129.003,417.431,128.373,417.475,127.793 M438.75,117.4c7.107,16.408,4.346,66.161,4.346,66.161
			s3.334-48.668-0.666-59.668C441.453,121.207,440.178,119.057,438.75,117.4 M224.429,51.728c-21.153,0-38.438-8.23-38.438-8.23
			S212.99,17.999,266.987,7.5c7.132-1.387,14.499-1.988,21.915-1.988c48.734,0,99.579,25.987,99.579,25.987
			s-19.96-7.365-44.992-7.365c-5.791,0-11.856,0.395-18.005,1.365c-28.498,4.5-47.997,12-77.996,22.499
			C239.71,50.72,231.833,51.728,224.429,51.728 M287.649,4.866c-1.656,0-2.554,0.028-2.554,0.028s-134.667,6.667-158,102.667
			c-5.283,21.738-4.961,41.118-1.3,58.093c0.283-0.294,0.688-0.488,1.202-0.592c2.015-11.924,4.432-48.169,4.432-48.169
			s18.738-25.765,38.29-25.765c6,0,12.075,2.425,17.71,8.765c16.575,18.646,29.812,26.324,41.027,26.324
			c5.024,0,9.642-1.54,13.973-4.324c12.423-7.986,18.548-30.146,29.551-30.146c1.396,0,2.872,0.357,4.449,1.146
			c10.456,5.228,15.895,16.594,23.393,16.594c2.541,0,5.317-1.304,8.607-4.594c11.074-11.074,17.795-26.503,24.488-26.503
			c1.164,0,2.327,0.466,3.512,1.503c8,7,34,27,34,27l-11.923,18.343c5.671,2.753,21.42,10.408,27.922,13.659
			c7.912,3.956,11.26,33.344,19.716,33.344c0.095,0,0.189-0.003,0.284-0.011c1.974-0.152,3.636-2.758,5.026-6.693
			c-1.365,3.572-3.022,6.099-5.026,6.693c0,0,0.94-24.119-1.999-41.334c-6.326-37.054,6.952-61.858,19.162-61.858
			c1.3,0,2.587,0.281,3.838,0.858c13,6,30,50,30,50l19.125,28.688c-8.057-12.477-15.459-24.353-15.459-24.353
			s-6.667-28.667-48.667-75.333C374.735,7.013,302.141,4.866,287.649,4.866"/>
		<path fill="#E2BEA8" d="M125.796,165.654c-0.456,0.472-0.597,1.203-0.366,2.239c0.14,0.628,0.289,0.92,0.445,0.92
			c0.149,0,0.305-0.263,0.466-0.75C126.151,167.264,125.97,166.463,125.796,165.654 M356.429,124.228c0,0-25.897,15.98-31.105,48.94
			c4.554-2.911,6.106-6.275,6.106-6.275l27.077-41.657C357.2,124.602,356.429,124.228,356.429,124.228"/>
		<path fill="#B090C2" d="M126.998,165.062c-0.514,0.104-0.919,0.298-1.202,0.592c0.174,0.81,0.355,1.61,0.545,2.409
			C126.553,167.422,126.772,166.394,126.998,165.062 M332.918,78.39c-6.693,0-13.414,15.429-24.488,26.503
			c-3.29,3.291-6.066,4.594-8.607,4.594c-7.498,0-12.937-11.366-23.393-16.594c-1.577-0.789-3.053-1.146-4.449-1.146
			c-11.003,0-17.128,22.16-29.551,30.146c-4.331,2.784-8.948,4.324-13.973,4.324c-11.215,0-24.452-7.678-41.027-26.324
			c-5.635-6.34-11.71-8.765-17.71-8.765c-19.552,0-38.29,25.765-38.29,25.765s-2.417,36.245-4.432,48.169
			c0.311-0.063,0.663-0.094,1.051-0.094c6.875,0,25.295,9.536,38.381,14.925c2.941,1.211,5.941,1.733,8.898,1.733
			c14.136,0,27.274-11.944,28.102-17.733c0.167-1.167,1.056-1.667,2.5-1.667c7.223,0,28.334,12.5,42.5,16.667
			c1.165,0.343,2.281,0.502,3.354,0.502c14.571,0,20.646-29.502,20.646-29.502s13.858,24.895,30,27
			c2.379,0.31,4.576,0.449,6.604,0.449c7.602,0,12.817-1.956,16.289-4.174c5.208-32.96,31.105-48.94,31.105-48.94
			s0.771,0.374,2.078,1.008l11.923-18.343c0,0-26-20-34-27C335.245,78.856,334.082,78.39,332.918,78.39"/>
		<path fill="#E2BEA8" d="M492.914,181.697c-2.475,1.71-5.151,3.197-5.151,3.197s-5.484,2.991-11.422,4.706
			c1.649,0.186,3.049,0.293,4.089,0.293C485.133,189.893,489.836,185.4,492.914,181.697 M494.617,175.082
			c0.853,1.041,1.477,1.679,1.812,1.812l0,0L494.617,175.082 M476.555,148.581c5.094,7.889,10.45,16.021,14.358,21.538
			L476.555,148.581 M417.327,129.676c-0.745,9.157-2.519,26.371-5.872,35.859C415.457,155.066,416.951,135.633,417.327,129.676
			 M433.288,112.223c-0.064,0-0.128,0.001-0.192,0.004c-14,0.667-15.333,11.333-15.333,11.333s-0.089,1.604-0.288,4.232
			c0.45-0.996,4.203-9.147,7.955-12.9c1.238-1.238,2.954-1.901,4.853-1.901c2.739,0,5.858,1.38,8.468,4.408
			C437.346,114.161,435.559,112.224,433.288,112.223"/>
		<path fill="#B090C2" d="M423.592,69.035c-12.21,0-25.488,24.805-19.162,61.858c2.939,17.215,1.999,41.334,1.999,41.334
			c2.004-0.594,3.661-3.121,5.026-6.693c3.354-9.488,5.127-26.702,5.872-35.859c0.071-1.136,0.103-1.783,0.103-1.783
			s0.016-0.035,0.045-0.1c0.199-2.627,0.288-4.232,0.288-4.232s1.333-10.667,15.333-11.333c0.064-0.003,0.128-0.004,0.192-0.004
			c2.271,0,4.058,1.938,5.462,5.177c1.428,1.656,2.703,3.807,3.68,6.493c4,11,0.666,59.668,0.666,59.668l0,0
			c0,0,22.205,4.793,33.245,6.039c5.938-1.714,11.422-4.706,11.422-4.706s2.677-1.487,5.151-3.197
			c2.156-2.595,3.515-4.803,3.515-4.803c-0.335-0.134-0.959-0.772-1.812-1.812l-1.188-1.189l-2.517-3.775
			c-3.908-5.517-9.265-13.649-14.358-21.538l-19.125-28.688c0,0-17-44-30-50C426.179,69.315,424.892,69.035,423.592,69.035"/>
		<path fill="#E7C3AA" d="M388.664,561.106c-0.285,0.013-0.578,0.026-0.878,0.039C388.095,561.133,388.389,561.121,388.664,561.106
			 M297.179,558.547l9.251,1.012c0,0,2.354,0.082,6.28,0.21L297.179,558.547 M192.381,542.896l6.716,1.997l22,5.333l28.238,3.089
			L192.381,542.896 M411.989,541.874c-5.354,3.132-14.226,3.686-14.226,3.686s0,3.741-0.402,7.527
			c0.758-3.795,0.402-7.527,0.402-7.527s4,0,10.666-0.666C410.316,544.705,411.402,543.501,411.989,541.874 M517.764,491.559
			l-85.334,28.667l0,0c0,0,28-6,45.334-13.333C495.076,499.569,517.708,491.579,517.764,491.559 M517.764,491.559l-2.42,28.361
			l0.086-0.027L517.764,491.559"/>
		<path fill="#D3BBDB" d="M517.764,491.559L517.764,491.559c-0.056,0.02-22.688,8.01-40,15.334
			c-17.334,7.333-45.334,13.333-45.334,13.333l0,0c0,0-0.667,8.667-6,8.667s-14.666,2-14.666,2l0,0c0,0,6.666,6,1.666,10
			c-0.44,0.352-0.924,0.678-1.44,0.98c-0.587,1.628-1.673,2.831-3.56,3.02c-6.666,0.666-10.666,0.666-10.666,0.666
			s0.355,3.732-0.402,7.527c-0.411,3.879-1.245,7.807-2.932,7.807c-0.676,0-2.803,0.082-5.766,0.213
			c-0.275,0.015-0.569,0.027-0.878,0.039c-11.963,0.538-35.356,1.748-35.356,1.748l-39.72-3.124c-3.926-0.128-6.28-0.21-6.28-0.21
			l-9.251-1.012l-33.749-2.654l-14.095-2.578l-28.238-3.089l-22-5.333l-6.716-1.997l-10.951-2.003l7,24c0,0,60,21,110,23
			c7.913,0.316,15.684,0.482,23.28,0.482c40.403,0,76.101-4.698,104.72-16.482c34-14,29-33,29-33l59.914-18.973L517.764,491.559"/>
		<path fill="#E7C3AA" d="M192.521,262.101c-0.145,0.16-0.29,0.317-0.435,0.473c6.136,6.109,28.424,27.245,51.677,36.319
			c4.08,1.592,8.519,2.873,13.115,3.899c0.286-0.053,0.562-0.105,0.824-0.155c-3.21-1.017-5.271-1.744-5.271-1.744
			c-0.22-1.247,0.173-2.445,1.048-3.591L192.521,262.101"/>
		<path fill="#D3BBDB" d="M192.086,262.574c-1.054,1.132-2.103,2.161-3.201,3.104c-0.687,0.597-1.392,1.125-2.133,1.688
			c-0.741,0.572-1.519,1.117-2.343,1.639c-1.649,1.044-3.488,1.996-5.618,2.891c-1.156,0.478-2.892,1.195-5.044,2.084
			c-1.077,0.442-2.26,0.927-3.524,1.446c-1.258,0.568-2.599,1.174-4.002,1.809c-2.566,1.154-5.343,2.402-8.206,3.69
			c5.747,6.025,18.058,17.279,34.415,22.968c6.571,2.286,15.021,3.102,23.738,3.102c15.966,0,32.832-2.739,40.71-4.203
			c-4.597-1.026-9.035-2.307-13.115-3.899C220.51,289.819,198.222,268.683,192.086,262.574"/>
		<path fill="#E7C3AA" d="M253.479,297.302c-0.875,1.146-1.268,2.344-1.048,3.591c0,0,2.062,0.728,5.271,1.744
			c2.368-0.449,3.728-0.744,3.728-0.744L253.479,297.302"/>
		<path fill="#E7C3AA" d="M390.92,260.797c-12.336,13.241-29.49,27.096-29.49,27.096c0.58,0.048,1.158,0.092,1.732,0.132
			c7.91-4.425,17.146-11.122,23.268-20.465C387.925,265.277,389.429,263.015,390.92,260.797 M450.357,232.099
			c5.234,0.335,10.617,0.717,15.874,1.148c0.132-0.232,0.198-0.354,0.198-0.354L450.357,232.099"/>
		<path fill="#D3BBDB" d="M412.43,230.226L412.43,230.226c0,0-3,6.667-14,21.667c-2.065,2.816-4.659,5.843-7.51,8.904
			c-1.491,2.218-2.995,4.48-4.49,6.763c-6.121,9.343-15.357,16.04-23.268,20.465c2.775,0.192,5.479,0.283,8.137,0.283
			c62.086,0,92.239-50.335,94.933-55.061c-5.257-0.431-10.64-0.813-15.874-1.148L412.43,230.226L412.43,230.226"/>
		<path fill="#B090C2" d="M288.902,5.511c-7.416,0-14.783,0.602-21.915,1.988c-53.997,10.5-80.996,35.998-80.996,35.998
			s17.284,8.23,38.438,8.23c7.404,0,15.281-1.008,23.06-3.73c29.999-10.5,49.498-17.999,77.996-22.499
			c6.148-0.971,12.214-1.365,18.005-1.365c25.032,0,44.992,7.365,44.992,7.365S337.637,5.511,288.902,5.511"/>
		<path d="M186.429,136.894c3.304,9.787,6.641,17.844,10.942,25.872c4.334,8.013,9.651,16.033,17.676,25.33
			c1.367,1.569,3.135,3.649,5.867,6.558c1.358,1.46,2.891,3.174,4.812,5.078c1.9,1.918,4.024,4.147,6.659,6.563
			c1.591,1.476,3.244,3.134,5.191,4.757c0.956,0.825,1.94,1.676,2.952,2.549c0.506,0.436,1.019,0.878,1.537,1.325
			c0.518,0.421,1.041,0.848,1.57,1.279c4.233,3.445,8.905,7.105,13.849,10.795c9.879,7.389,20.851,14.871,31.464,21.149
			c10.648,6.265,20.81,11.37,29.628,13.931c1.088,0.33,2.204,0.593,3.269,0.83c0.512,0.13,1.088,0.21,1.613,0.305
			c0.541,0.072,0.993,0.213,1.879,0.246c0.783,0.052,1.54,0.102,2.27,0.149c0.366,0.042,0.718,0.02,1.061-0.009
			c0.344-0.023,0.681-0.045,1.011-0.067c1.338-0.022,2.479-0.311,3.504-0.57c0.524-0.102,0.936-0.37,1.367-0.529
			c0.418-0.185,0.817-0.344,1.174-0.517c0.688-0.394,1.281-0.718,1.709-1.039c0.874-0.647,1.252-1.084,1.252-1.084
			s0.084-0.085,0.247-0.252c0.149-0.18,0.371-0.447,0.663-0.798c0.555-0.721,1.271-1.865,1.839-3.525
			c0.581-1.65,0.918-3.885,0.84-6.558c-0.008-0.666-0.079-1.349-0.117-2.058c-0.046-0.449-0.094-0.912-0.143-1.389
			c-0.11-0.884-0.238-1.796-0.391-2.718c-1.22-7.334-3.576-16.226-5.252-26.278c-1.707-10.002-2.65-21.058-1.729-31.541
			c0.44-5.237,1.321-10.313,2.543-15.024c1.23-4.709,2.8-9.053,4.511-12.874c1.644-3.779,3.747-7.231,5.397-10.347
			c0.435-0.771,0.815-1.551,1.261-2.256c0.449-0.703,0.885-1.386,1.309-2.048c0.844-1.327,1.638-2.575,2.382-3.745
			c0.376-0.582,0.721-1.16,1.088-1.691c0.382-0.52,0.752-1.021,1.107-1.504c0.711-0.968,1.369-1.865,1.978-2.694
			c0.605-0.83,1.161-1.59,1.668-2.285c0.532-0.672,1.044-1.25,1.485-1.787c7.12-8.699,13.195-14.994,19.267-20.92
			c0.769-0.729,1.51-1.498,2.282-2.218l2.351-2.129l1.177-1.092l1.221-1.035c0.822-0.704,1.648-1.412,2.481-2.125
			c0.864-0.684,1.736-1.373,2.618-2.07c0.886-0.714,1.827-1.344,2.771-2.051c1.915-1.34,3.935-2.718,6.225-3.887
			c-2.592-0.041-5.097,0.254-7.525,0.614c-1.2,0.215-2.422,0.386-3.586,0.661c-1.174,0.281-2.334,0.56-3.484,0.835
			c-1.134,0.327-2.251,0.683-3.373,1.039l-1.678,0.549l-1.627,0.64c-1.086,0.445-2.171,0.89-3.259,1.336
			c-1.073,0.479-2.108,1.028-3.171,1.563c-8.422,4.362-16.587,10.605-24.745,20.387c-0.506,0.603-1.09,1.26-1.696,2.015
			c-0.577,0.775-1.209,1.626-1.898,2.553c-0.688,0.929-1.433,1.935-2.237,3.021c-0.401,0.543-0.817,1.107-1.248,1.691
			c-0.413,0.595-0.802,1.233-1.225,1.881c-0.834,1.303-1.724,2.692-2.67,4.17c-0.473,0.739-0.959,1.501-1.459,2.286
			c-0.496,0.787-0.921,1.639-1.405,2.493c-0.943,1.719-1.939,3.532-2.989,5.443c-1.057,1.868-2.125,4.033-3.134,6.301
			c-2.042,4.546-3.919,9.729-5.378,15.318c-1.452,5.589-2.482,11.579-2.99,17.668c-1.06,12.198,0.071,24.667,1.932,35.468
			c1.831,10.795,4.298,20.151,5.287,26.197c0.125,0.75,0.222,1.434,0.303,2.062c0.032,0.295,0.062,0.573,0.092,0.833l0.004-0.001
			l0.001,0v-0.001l0.003-0.004c0.1,0.018-0.25-0.05-0.541-0.098c-0.303-0.058-0.592-0.083-0.946-0.18
			c-0.681-0.157-1.406-0.321-2.216-0.572c-3.195-0.9-7.257-2.566-11.688-4.674c-4.439-2.145-9.287-4.774-14.277-7.732
			c-9.988-5.925-20.543-13.13-30.049-20.247c-4.758-3.554-9.262-7.081-13.34-10.395c-0.51-0.414-1.014-0.824-1.511-1.228
			c-0.473-0.408-0.939-0.811-1.4-1.208c-0.922-0.794-1.82-1.567-2.691-2.318c-1.769-1.46-3.316-3.013-4.789-4.369
			c-2.434-2.219-4.435-4.318-6.219-6.108c-1.799-1.771-3.257-3.396-4.544-4.77c-2.589-2.731-4.288-4.707-5.604-6.186
			c-7.729-8.773-13.926-15.62-20.224-21.877C200.292,149.664,193.92,143.979,186.429,136.894z"/>
		<path d="M359.763,126.227c4.531,2.444,7.95,4.902,11.474,7.359c3.486,2.502,7.08,5.083,11.059,8.824
			c0.334,0.32,0.72,0.689,1.182,1.132c0.471,0.436,0.914,1.023,1.504,1.67c0.289,0.328,0.602,0.68,0.938,1.062
			c0.294,0.41,0.61,0.851,0.95,1.326c0.335,0.478,0.724,0.972,1.091,1.531c0.329,0.58,0.681,1.199,1.058,1.862
			c0.179,0.313,0.372,0.653,0.579,1.015c0.2,0.411,0.411,0.847,0.633,1.303c0.45,0.908,0.92,1.907,1.4,2.949
			c0.966,2.083,1.952,4.344,2.843,6.472c0.896,2.123,1.719,4.11,2.4,5.611c0.69,1.51,1.275,2.537,1.275,2.537
			s0.098,0.202,0.363,0.616c0.128,0.203,0.285,0.451,0.469,0.74l0.166,0.233c0.072,0.094,0.147,0.191,0.225,0.292
			c0.195,0.248,0.41,0.504,0.646,0.763c0.472,0.521,1.012,0.933,1.628,1.389c0.651,0.373,1.362,0.767,2.189,0.924
			c1.604,0.427,3.567,0.356,5.225-0.766c0.396-0.311,0.797-0.625,1.202-0.943c0.355-0.368,0.715-0.74,1.078-1.116
			c0.308-0.334,0.45-0.551,0.684-0.837c0.223-0.272,0.4-0.54,0.59-0.811c0.765-1.085,1.383-2.184,1.966-3.275
			c1.132-2.182,1.996-4.328,2.636-6.133c1.621-4.643,2.399-8.502,2.895-11.565c0.478-3.066,0.672-5.339,0.755-6.899
			c0.184-3.157,0.098-5.984-0.222-8.575c-0.126-1.298-0.376-2.533-0.59-3.73c-0.279-1.19-0.521-2.347-0.877-3.464
			c-1.344-4.474-3.286-8.495-6.08-12.828c0.437,5.146,0.422,9.345,0.418,13.666c0.02,1.078-0.039,2.172-0.021,3.282
			c-0.047,1.116-0.019,2.251-0.072,3.433c-0.04,2.359-0.147,4.888-0.34,7.712c-0.088,1.396-0.274,3.43-0.707,6.161
			c-0.446,2.723-1.154,6.167-2.561,10.182c-0.555,1.552-1.299,3.384-2.199,5.125c-0.455,0.855-0.938,1.715-1.445,2.431
			c-0.125,0.181-0.248,0.374-0.374,0.521l-0.331,0.426l-0.021,0.027l0.03,0.032l0.043,0.05l-0.041-0.047l-0.069-0.094
			c-0.095-0.152-0.177-0.282-0.244-0.389c-0.137-0.197-0.215-0.357-0.215-0.357s-0.092-0.173-0.257-0.486
			c-0.168-0.287-0.403-0.838-0.7-1.454c-0.588-1.31-1.383-3.249-2.286-5.415c-0.898-2.166-1.927-4.544-2.938-6.729
			c-0.504-1.095-0.998-2.145-1.475-3.101c-0.234-0.479-0.459-0.938-0.67-1.37c-0.258-0.453-0.499-0.877-0.722-1.269
			c-0.476-0.828-0.92-1.602-1.337-2.327c-0.456-0.696-0.929-1.31-1.347-1.9c-0.426-0.584-0.821-1.126-1.188-1.631
			c-0.41-0.465-0.789-0.896-1.141-1.295c-0.715-0.786-1.279-1.495-1.84-2.016c-0.557-0.526-1.021-0.966-1.423-1.347
			c-4.811-4.424-9.389-6.728-13.817-8.242C369.352,127.012,364.937,126.261,359.763,126.227z"/>
		<path d="M417.764,132.893c0.815-2.442,1.749-4.581,2.71-6.556c0.973-1.966,1.992-3.773,3.135-5.379
			c1.134-1.596,2.442-2.987,3.791-3.741c0.679-0.372,1.338-0.578,2.083-0.651c0.379-0.025,0.774-0.037,1.217,0.008
			c0.395,0.043,1.057,0.136,1.192,0.238c0.177,0.002,0.377,0.186,0.652,0.304c0.271,0.232,0.62,0.466,1.034,0.976
			c0.824,0.967,1.929,2.738,2.912,5.676c0.624,1.753,1.272,4.288,1.81,7.104c0.537,2.819,0.947,5.927,1.226,8.809
			c0.56,5.771,0.622,10.608,0.622,10.608s0.109,4.04-0.062,9.202c-0.147,5.159-0.652,11.427-1.304,15.77
			c-0.312,2.192-0.67,4.068-1.085,5.78c-0.409,1.715-0.832,3.235-1.248,4.567c-0.823,2.668-1.562,4.595-2.072,5.91
			c-2.109,5.311-3.903,9.405-5.723,13.184c-0.922,1.876-1.869,3.688-3.073,5.292c-0.607,0.79-1.285,1.532-2.123,1.974
			c-0.812,0.499-1.968,0.396-3.028-0.408c0.299,0.553,0.657,1.158,1.27,1.534c0.28,0.235,0.633,0.326,0.98,0.469
			c0.347,0.06,0.732,0.166,1.084,0.139c1.469-0.002,2.759-0.54,3.884-1.13c2.253-1.229,4.05-2.83,5.689-4.578
			c3.247-3.536,5.912-7.783,8.286-13.586c0.576-1.439,1.395-3.545,2.311-6.482c0.463-1.467,0.936-3.148,1.396-5.064
			c0.468-1.916,0.889-4.117,1.224-6.461c0.718-4.721,1.226-11.275,1.365-16.667c0.162-5.39,0.026-9.616,0.027-9.615
			c0,0-0.039-5.045-0.614-11.182c-0.289-3.068-0.72-6.412-1.312-9.533c-0.593-3.122-1.333-6.022-2.113-8.195
			c-1.211-3.57-2.719-6.276-4.413-8.244c-0.827-0.989-1.782-1.759-2.634-2.365c-0.957-0.559-1.757-1.006-2.588-1.217
			c-0.295-0.086-0.589-0.171-0.88-0.256c-0.309-0.092-0.507-0.089-0.763-0.136c-0.492-0.056-0.949-0.156-1.453-0.15
			c-0.979-0.053-1.969,0.021-2.928,0.189c-1.93,0.354-3.689,1.218-5.029,2.285c-1.349,1.071-2.323,2.296-3.074,3.506
			c-0.745,1.216-1.293,2.432-1.683,3.633c-0.796,2.402-1.108,4.738-1.199,7.106C417.189,127.928,417.338,130.343,417.764,132.893z"
			/>
		<path d="M338.539,217.856c-0.633,3.573-0.651,6.041,1.209,9.365c0.511,0.898,1.564,2.683,3.113,4.764
			c1.551,2.068,3.596,4.483,6.427,6.322c1.412,0.906,3.087,1.633,4.852,1.875c1.766,0.275,3.498-0.066,4.754-0.544
			c0.316-0.124,0.621-0.243,0.9-0.366c0.258-0.144,0.502-0.28,0.73-0.407c0.227-0.132,0.438-0.255,0.632-0.369
			c0.177-0.13,0.339-0.25,0.485-0.358c0.289-0.22,0.515-0.392,0.668-0.509c0.156-0.114,0.223-0.194,0.223-0.194
			s0.295-0.284,0.819-0.789c0.493-0.526,1.167-1.329,1.794-2.388c1.285-2.116,2.144-5.195,2.334-8.227
			c0.432-6.113-1.11-12.138-1.611-14.121c-0.996-3.655-2.721-5.417-5.666-7.539c-0.782,3.536-1.211,5.694-0.387,9.06
			c0.427,1.786,1.761,7.396,1.401,12.146c-0.146,2.367-0.769,4.363-1.466,5.513c-0.345,0.583-0.686,0.987-0.932,1.259
			c-0.26,0.254-0.406,0.397-0.406,0.397c0.008,0.01-0.158,0.131-0.453,0.346l-0.239,0.186c-0.092,0.049-0.192,0.104-0.299,0.161
			c-0.104,0.062-0.217,0.127-0.335,0.196c-0.115,0.043-0.238,0.088-0.366,0.136c-0.513,0.181-1.057,0.313-1.722,0.201
			c-0.663-0.094-1.479-0.407-2.338-0.963c-1.729-1.108-3.467-3.027-4.767-4.789c-1.319-1.763-2.285-3.363-2.765-4.159
			C343.371,221.102,341.565,219.847,338.539,217.856z"/>
		<path d="M251.763,264.227c-0.158,3.449,0.215,5.806,2.566,8.537c0.65,0.732,1.976,2.185,3.856,3.773
			c1.891,1.566,4.367,3.313,7.314,4.292c1.461,0.487,3.011,0.793,4.494,0.806c1.475-0.007,2.859-0.183,3.953-0.548
			c0.565-0.141,1.037-0.352,1.462-0.525c0.432-0.165,0.781-0.34,1.057-0.499c0.561-0.307,0.876-0.48,0.876-0.48
			s0.298-0.193,0.821-0.547c0.526-0.34,1.253-0.915,2.056-1.701c0.811-0.783,1.641-1.843,2.373-3.084
			c0.702-1.254,1.271-2.688,1.637-4.164c0.728-2.964,0.667-5.996,0.372-8.432c-0.284-2.452-0.797-4.353-1.049-5.302
			c-1.016-3.467-2.796-5.07-5.789-6.793c-0.633,3.382-1.041,5.373-0.243,8.392c0.192,0.816,0.618,2.461,0.839,4.437
			c0.242,1.971,0.246,4.275-0.229,6.206c-0.238,0.963-0.586,1.825-0.984,2.556c-0.427,0.71-0.88,1.311-1.345,1.757
			c-0.46,0.45-0.874,0.795-1.2,1c-0.316,0.214-0.493,0.338-0.493,0.338s-0.187,0.099-0.518,0.274
			c-0.162,0.099-0.364,0.2-0.603,0.281c-0.236,0.092-0.498,0.222-0.798,0.283c-1.176,0.363-2.831,0.449-4.681-0.206
			c-1.848-0.6-3.768-1.897-5.289-3.162c-1.526-1.282-2.685-2.524-3.261-3.139C256.852,266.261,254.955,265.514,251.763,264.227z"/>
		<path d="M300.43,292.227c1.041,4.459,2.216,7.307,5.893,10.32c2.01,1.608,8.13,6.399,14.941,9.492
			c3.382,1.558,6.975,2.643,9.896,2.922c1.449,0.158,2.704,0.131,3.578,0.077c0.885-0.097,1.383-0.152,1.383-0.152
			s0.123,0,0.361-0.056c0.237-0.052,0.586-0.127,1.032-0.224c0.446-0.082,0.984-0.249,1.6-0.478
			c0.306-0.114,0.641-0.217,0.975-0.368c0.327-0.162,0.673-0.333,1.035-0.512c1.417-0.751,3.035-1.886,4.36-3.44
			c1.349-1.531,2.44-3.384,3.225-5.296c1.584-3.848,2.045-7.852,2.186-11.136c0.131-3.296-0.07-5.93-0.191-7.24
			c-0.229-2.421-0.839-4.256-1.763-5.898c-0.932-1.636-2.18-3.099-3.844-4.677c-0.762,2.151-1.426,3.859-1.808,5.587
			c-0.391,1.726-0.508,3.458-0.361,5.616c0.078,1.166,0.235,3.511,0.118,6.283c-0.108,2.759-0.548,5.975-1.597,8.48
			c-1.024,2.548-2.571,4.121-3.992,4.816c-0.177,0.091-0.347,0.179-0.508,0.262c-0.163,0.077-0.329,0.115-0.477,0.173
			c-0.294,0.116-0.556,0.209-0.793,0.242c-0.456,0.105-0.716,0.168-0.722,0.154c0,0-0.275,0.028-0.766,0.078
			c-0.502,0.023-1.239,0.043-2.19-0.064c-1.89-0.179-4.645-0.973-7.475-2.288c-5.715-2.585-11.498-7.038-13.377-8.48
			C307.652,293.7,304.917,293.087,300.43,292.227z"/>
		<path d="M374.43,276.893c3.139-0.879,5.083-1.85,6.773-4.548c0.922-1.461,3.499-5.976,5.323-10.404
			c0.924-2.206,1.715-4.356,2.22-5.977c0.274-0.801,0.447-1.481,0.589-1.946c0.136-0.467,0.212-0.73,0.212-0.73
			s0.293-1.059,0.689-2.719c0.38-1.665,0.816-3.949,1.078-6.385c0.244-2.439,0.309-5.022,0.186-7.217
			c-0.08-1.096-0.173-2.096-0.277-2.93c-0.136-0.832-0.245-1.502-0.317-1.949c-0.681-3.279-2.37-4.888-5.143-6.528
			c-0.922,3.151-1.492,4.874-0.999,7.637c0.055,0.376,0.138,0.941,0.239,1.643c0.081,0.704,0.153,1.55,0.223,2.48
			c0.099,1.868,0.047,4.09-0.157,6.219c-0.224,2.129-0.601,4.156-0.933,5.645c-0.348,1.486-0.603,2.441-0.603,2.441
			s-0.071,0.237-0.197,0.658c-0.132,0.42-0.287,1.03-0.542,1.758c-0.464,1.465-1.196,3.427-2.05,5.451
			c-1.687,4.065-4.084,8.269-4.896,9.648C374.35,271.703,374.359,273.647,374.43,276.893z"/>
		<path d="M159.095,191.56c-1.523,3.581-1.814,7.498-1.52,11.118c0.306,3.649,1.169,7.108,2.377,10.48
			c2.464,6.734,6.312,13.17,12.045,20.38c1.553,1.951,3.927,4.839,6.896,8.308c0.522,0.61,1.069,1.25,1.64,1.916l-0.011-0.007
			l-0.054-0.077l0.096,0.026l0.036,0.021l0.005,0.003l-0.153-0.096l-0.397-0.251l-0.791-0.516c-0.531-0.338-1.051-0.705-1.577-1.06
			c-2.096-1.44-4.159-2.997-6.179-4.652c-4.039-3.309-7.907-7.009-11.514-11.05c-7.229-8.07-13.413-17.507-18.095-27.833
			c-4.696-10.325-7.842-21.534-9.501-33.016c-0.807-5.747-1.261-11.56-1.384-17.381c-0.026-1.455-0.022-2.913-0.026-4.366
			l0.156-4.327c0.027-2.89,0.381-5.74,0.63-8.593c0.095-1.432,0.347-2.836,0.558-4.246c0.215-1.409,0.429-2.815,0.643-4.218
			c0.296-1.387,0.592-2.771,0.887-4.151c0.287-1.383,0.569-2.765,0.978-4.109c0.373-1.354,0.745-2.705,1.116-4.053
			c0.363-1.351,0.878-2.648,1.306-3.971l0.669-1.971l0.334-0.984l0.392-0.96c0.521-1.28,1.04-2.556,1.559-3.828
			c0.481-1.288,1.124-2.5,1.698-3.738c0.6-1.226,1.143-2.475,1.779-3.672c0.652-1.189,1.302-2.374,1.949-3.555
			c0.329-0.587,0.63-1.188,0.98-1.76l1.062-1.706c0.706-1.135,1.409-2.266,2.109-3.392c0.762-1.087,1.52-2.169,2.274-3.247
			c1.452-2.195,3.16-4.182,4.721-6.24c6.527-8.031,13.85-14.882,21.236-20.728c7.403-5.841,14.92-10.645,22.082-14.597
			c7.167-3.954,13.982-7.06,20.097-9.549c3.044-1.283,5.959-2.3,8.624-3.301c2.702-0.896,5.157-1.787,7.415-2.451
			c4.491-1.412,8.057-2.329,10.474-2.977c2.433-0.588,3.721-0.899,3.721-0.899s1.283-0.341,3.734-0.837
			c2.443-0.532,6.052-1.269,10.69-1.993c1.161-0.17,2.385-0.35,3.67-0.538c0.643-0.095,1.301-0.191,1.973-0.29
			c0.677-0.072,1.367-0.146,2.073-0.222c1.411-0.151,2.882-0.309,4.408-0.473c1.528-0.151,3.12-0.225,4.763-0.348
			c6.57-0.417,14.047-0.603,22.219-0.085c16.316,0.953,35.537,4.376,55.055,12.156c9.773,3.811,19.542,8.78,29.011,14.719
			c4.692,3.035,9.338,6.268,13.809,9.805c4.449,3.559,8.765,7.357,12.87,11.405c4.063,4.087,7.916,8.413,11.47,12.972
			c0.865,1.155,1.769,2.287,2.607,3.462l2.477,3.551l2.325,3.643c0.775,1.202,1.53,2.542,2.297,3.805
			c6.092,10.267,11.67,20.797,16.78,31.426c5.155,10.621,9.733,21.35,14.91,31.875c2.622,5.251,5.447,10.465,8.937,15.386
			c1.731,2.46,3.678,4.818,5.79,7.015c1.041,1.11,2.176,2.143,3.311,3.153l1.754,1.459l1.341,1.002
			c0.321,0.237,0.642,0.473,0.959,0.707l0.228,0.149l0.225,0.147c0.093,0.061,0.022,0.015,0.042,0.027l-0.008-0.023l0.016-0.018
			l0.01-0.004l-0.031,0.02l-0.155,0.097l-0.154,0.096c-0.041,0.028-0.103,0.064-0.214,0.123c-1.495,0.847-3.119,1.517-4.564,2.02
			c-1.452,0.508-2.749,0.868-3.796,1.122c-3.872,0.955-7.458,1.468-10.772,1.757c-1.663,0.159-3.258,0.215-4.816,0.252
			c-0.39,0.004-0.776,0.009-1.161,0.013c-0.405-0.016-0.809-0.032-1.209-0.048c-0.812-0.024-1.614-0.047-2.412-0.071
			c-0.808-0.008-1.609-0.016-2.409-0.023c-0.805,0-1.559-0.104-2.352-0.14c-1.568-0.11-3.207-0.124-4.761-0.395
			c-0.791-0.112-1.624-0.191-2.439-0.328c-0.802-0.187-1.612-0.375-2.435-0.566c-0.828-0.209-1.589-0.552-2.455-0.855
			c-0.39-0.21-0.783-0.423-1.18-0.637c-0.22-0.102-0.367-0.258-0.563-0.393c-0.19-0.141-0.377-0.284-0.536-0.469
			c0.054,0.236,0.154,0.462,0.26,0.679c0.109,0.214,0.193,0.471,0.338,0.658c0.278,0.412,0.555,0.819,0.828,1.223
			c0.642,0.689,1.279,1.466,1.992,2.084c0.717,0.599,1.445,1.194,2.187,1.783c0.753,0.531,1.525,0.987,2.297,1.474
			c1.544,1.029,3.137,1.718,4.748,2.465c0.807,0.353,1.623,0.766,2.445,1.051c0.827,0.277,1.657,0.556,2.493,0.836
			c0.847,0.265,1.698,0.531,2.56,0.8c0.436,0.128,0.862,0.265,1.315,0.382c0.468,0.104,0.939,0.208,1.413,0.313
			c1.901,0.378,3.881,0.66,5.938,0.759c4.119,0.223,8.562-0.084,13.437-1.23c1.32-0.308,2.964-0.749,4.884-1.408
			c1.922-0.666,4.113-1.526,6.568-2.904c0.139-0.073,0.322-0.182,0.523-0.307l0.578-0.363l0.579-0.375
			c0.184-0.116,0.452-0.337,0.675-0.502c0.459-0.366,0.967-0.7,1.399-1.103c0.426-0.409,0.856-0.821,1.291-1.238
			c1.604-1.758,2.7-3.888,2.88-6.268c0.102-1.181-0.038-2.431-0.463-3.572c-0.073-0.299-0.205-0.574-0.346-0.847
			c-0.138-0.274-0.264-0.555-0.411-0.826c-0.379-0.5-0.688-1.044-1.132-1.52l-0.69-0.706c-0.233-0.239-0.477-0.468-0.736-0.625
			c-0.511-0.355-1.024-0.712-1.542-1.072c-0.517-0.36-1.037-0.722-1.561-1.085l-0.822-0.608l-1.02-0.759l-1.335-1.113
			c-0.866-0.779-1.739-1.561-2.552-2.435c-1.648-1.717-3.214-3.595-4.666-5.663c-2.923-4.115-5.507-8.83-7.986-13.803
			c-4.92-9.994-9.586-20.901-14.847-31.744c-5.227-10.871-10.985-21.743-17.262-32.315c-0.804-1.326-1.536-2.628-2.4-3.974
			l-2.565-4.016l-2.72-3.899c-0.92-1.288-1.902-2.525-2.852-3.788c-3.883-4.98-8.068-9.675-12.467-14.094
			c-4.439-4.376-9.089-8.466-13.874-12.289c-4.805-3.799-9.783-7.265-14.81-10.51c-10.134-6.357-20.567-11.651-30.993-15.715
			C342.521,4.436,322.035,0.795,304.65-0.211c-8.707-0.545-16.668-0.347-23.661,0.101c-1.748,0.13-3.442,0.213-5.067,0.374
			c-1.625,0.174-3.188,0.343-4.689,0.504c-0.751,0.081-1.485,0.161-2.204,0.239c-0.716,0.104-1.415,0.207-2.098,0.308
			c-1.366,0.201-2.667,0.392-3.901,0.574c-4.925,0.772-8.735,1.553-11.32,2.117c-2.593,0.528-3.947,0.887-3.947,0.887
			s-1.362,0.329-3.934,0.949c-2.554,0.683-6.321,1.651-11.067,3.139c-2.386,0.703-4.983,1.639-7.84,2.588
			c-2.821,1.054-5.902,2.132-9.129,3.487c-6.479,2.634-13.711,5.924-21.353,10.136c-7.637,4.21-15.688,9.344-23.678,15.641
			c-7.973,6.302-15.933,13.736-23.09,22.534c-1.721,2.253-3.579,4.437-5.187,6.849c-0.829,1.186-1.663,2.377-2.5,3.573
			c-0.773,1.24-1.55,2.486-2.33,3.737l-1.17,1.881c-0.385,0.632-0.722,1.294-1.086,1.942c-0.715,1.304-1.432,2.613-2.151,3.927
			c-0.703,1.322-1.311,2.701-1.973,4.057c-0.636,1.369-1.339,2.713-1.878,4.135c-0.573,1.407-1.148,2.819-1.725,4.234l-0.432,1.063
			l-0.371,1.087l-0.744,2.179c-0.475,1.461-1.036,2.901-1.441,4.391c-0.41,1.488-0.822,2.979-1.235,4.475
			c-0.445,1.488-0.763,3.008-1.081,4.532c-0.323,1.522-0.648,3.047-0.974,4.575c-0.236,1.542-0.475,3.087-0.712,4.634
			c-0.231,1.548-0.502,3.095-0.611,4.659c-0.28,3.122-0.654,6.25-0.693,9.394l-0.167,4.717c0.002,1.566-0.002,3.131,0.027,4.699
			c0.13,6.271,0.618,12.566,1.497,18.818c1.8,12.494,5.244,24.814,10.43,36.215c5.168,11.404,12.016,21.864,20.044,30.824
			c4.007,4.488,8.307,8.604,12.832,12.31c2.262,1.854,4.581,3.604,6.961,5.239c0.599,0.404,1.188,0.817,1.795,1.206l0.904,0.589
			l1.164,0.724c2.315,1.44,4.627,2.691,6.911,3.84c2.256,1.064,4.487,2.035,6.502,2.665c2.012,0.636,3.845,1.019,5.376,1.091
			c1.514,0.048,2.729-0.179,3.741-0.614c0.492-0.238,0.915-0.543,1.396-0.854c0.493-0.297,1.028-0.689,1.458-1.456
			c0.577-0.622,0.754-1.165,0.949-1.616c0.181-0.465,0.287-0.904,0.362-1.371c0.136-0.93,0.139-1.95-0.21-3.25
			c-0.333-1.287-1.157-2.894-2.334-4.625c-0.55-0.852-1.266-1.766-1.935-2.657c-0.438-0.552-0.876-1.101-1.312-1.648
			c-1.655-2.021-3.352-3.996-4.95-5.857c-1.043-1.21-2.043-2.372-2.997-3.48c-2.934-3.406-5.214-6.152-6.711-7.995
			c-5.519-6.802-9.758-11.986-13.564-17.045c-1.881-2.54-3.655-5.049-5.208-7.841C160.817,198.521,159.446,195.429,159.095,191.56z"
			/>
		<path d="M216.942,182.272c-1.338,7.631-1.964,14.174-1.687,21.112c0.128,3.472,0.562,7.048,1.401,10.937
			c0.235,0.974,0.445,1.962,0.742,2.979c0.311,1.018,0.637,2.057,0.987,3.12c0.424,1.072,0.87,2.167,1.342,3.286
			c0.295,0.565,0.593,1.138,0.896,1.718c0.154,0.289,0.311,0.579,0.467,0.872c0.159,0.3,0.319,0.59,0.468,0.809
			c1.662,2.595,4.367,6.817,9.987,15.593c0.929,1.51,2.297,3.464,3.744,5.596c0.363,0.532,0.733,1.073,1.106,1.62l0.454,0.662
			l-0.019-0.03c-0.031,0.031,0.028-0.322-0.058,0.679l-0.025,0.181l-0.017,0.078l-0.001,0.017c0.103,0.039,0.286,0.075,0.407,0.103
			c0.275,0.064,0.548,0.143,0.816,0.234c0.27,0.091,0.534,0.197,0.795,0.315c0.219,0.073,0.41,0.137,0.609,0.23
			c0.197,0.09,0.389,0.196,0.572,0.317c0.102,0.074,0.17,0.108,0.227,0.132l0.182,0.106c0.119,0.079,0.23,0.175,0.331,0.285
			l0.106,0.105l0.068,0.063l0.109,0.18l-0.007-0.033l0.009-0.026c-0.017-0.089-0.024-0.205-0.014-0.297
			c0.009-0.096,0.031-0.186,0.065-0.266l0.026-0.059l0.004-0.007c-0.193,0.666,1.632-5.574,0.896-3.078l0.146-0.564l0.072-0.278
			l-0.006-0.002l-0.013-0.003l-0.097-0.027l-0.334-0.099c-0.184-0.058-0.362-0.115-0.535-0.17c-0.417-0.141-0.806-0.273-1.16-0.393
			c-1.441-0.507-2.352-0.871-2.352-0.871s-3.042-1.173-6.83-3.025c-3.802-1.813-8.271-4.368-11.361-6.332
			c-5.536-3.48-9.677-6.783-12.852-9.479c-1.601-1.337-2.9-2.593-4.05-3.632c-1.103-1.086-2.021-1.992-2.77-2.729
			c-5.917-6.096-10.244-11.138-14.411-16.071c-4.142-4.952-8.146-9.798-12.454-16.235c0.784,7.694,2.357,14.236,5.121,20.7
			c2.783,6.451,6.798,12.88,13.347,19.756c0.829,0.829,1.847,1.846,3.068,3.067c1.271,1.166,2.718,2.568,4.49,4.061
			c3.518,3.008,8.104,6.671,14.208,10.518c3.402,2.185,8.337,4.98,12.56,6.967c4.2,2.025,7.66,3.33,7.66,3.33
			s1.015,0.416,2.713,1.027c0.434,0.15,0.907,0.314,1.415,0.49c0.293,0.094,0.596,0.191,0.907,0.291
			c0.139,0.042,0.28,0.084,0.424,0.127l0.097,0.028l0.173,0.047l0.255,0.054c0.342,0.068,0.696,0.118,1.054,0.146
			c0.359,0.027,0.709,0.037,1.076,0.018c0.438-0.046,0.89-0.129,1.332-0.252c0.436-0.123,0.89-0.282,1.266-0.474
			c0.36-0.194,0.718-0.42,1.056-0.673c0.17-0.126,0.334-0.259,0.492-0.396l0.233-0.209l0.162-0.172
			c0.207-0.227,0.405-0.467,0.594-0.716c0.17-0.229,0.402-0.555,0.487-0.725c0.107-0.194,0.211-0.392,0.31-0.594
			c0.726-1.572,0.868-2.631,1.012-3.597c0.108-0.992,0.175-1.64,0.151-3.125c-0.009-0.65-0.05-1.3-0.101-1.947l-0.038-0.487
			c-0.036-0.155,0.03-0.342-0.099-0.47l-0.541-0.837l-1.083-1.675l-0.373-0.564l-0.272-0.4c-0.362-0.533-0.723-1.061-1.075-1.58
			c-1.407-2.078-2.743-3.975-3.665-5.442c-5.521-8.551-8.177-12.665-9.81-15.193c-1.939-3.043-3.237-6.465-4.467-9.713
			c-1.2-3.262-2.317-6.377-3.375-9.474C221.554,195.616,219.33,189.625,216.942,182.272z"/>
		<path d="M189.096,256.227c0.875,2.432,1.886,4.615,2.965,6.666c1.072,2.063,2.252,3.977,3.57,5.87
			c2.631,3.794,5.941,7.39,10.68,11.364c0.817,0.655,1.868,1.546,3.448,2.771c0.807,0.592,1.739,1.275,2.826,2.073
			c0.545,0.398,1.128,0.825,1.754,1.283c0.646,0.427,1.338,0.884,2.077,1.372c3.721,2.654,10.449,6.402,16.342,9.249
			c3.011,1.281,5.723,2.545,7.756,3.297c2.039,0.737,3.31,1.196,3.31,1.196s1.062,0.388,2.803,1.023
			c1.744,0.603,4.183,1.307,6.911,2.159c2.732,0.831,5.815,1.575,8.785,2.367c3.007,0.644,5.9,1.369,8.349,1.792
			c2.308,0.402,4.381,0.84,6.272,1.099c1.891,0.273,3.571,0.515,5.056,0.729c2.987,0.315,5.18,0.587,6.693,0.691
			c6.116,0.517,10.97,0.245,15.503-0.448c4.522-0.736,8.793-1.895,13.567-3.888c-5.126-0.476-9.282-1.259-13.65-1.835
			c-4.361-0.623-8.916-1.048-14.741-1.6c-1.44-0.113-3.533-0.387-6.382-0.693c-1.419-0.208-3.024-0.444-4.83-0.708
			c-1.808-0.249-3.793-0.674-6-1.059c-2.342-0.408-5.116-1.107-7.998-1.717c-2.849-0.759-5.807-1.462-8.433-2.253
			c-2.617-0.811-4.98-1.481-6.632-2.047c-1.636-0.591-2.635-0.952-2.635-0.952s-1.19-0.435-3.104-1.134
			c-1.907-0.711-4.442-1.914-7.267-3.116c-5.517-2.692-11.826-6.205-15.326-8.68c-0.694-0.456-1.344-0.882-1.952-1.282
			c-0.587-0.429-1.135-0.829-1.646-1.202c-1.022-0.745-1.899-1.384-2.657-1.936c-1.486-1.144-2.476-1.974-3.249-2.58
			c-4.477-3.682-8.032-6.529-11.46-9.255c-1.724-1.346-3.419-2.669-5.192-4.053C192.84,259.403,191.002,257.959,189.096,256.227z"/>
		<path d="M346.43,296.227c5.031-1.188,9.184-2.645,13.32-4.593c4.128-1.975,8.259-4.492,13.064-8.3
			c1.597-1.326,4.274-3.398,9.432-8.17c1.051-1.011,2.511-2.318,3.994-3.829c1.468-1.526,3.105-3.109,4.503-4.668
			c1.404-1.554,2.686-2.973,3.616-4.003c0.889-1.067,1.442-1.732,1.442-1.732s0.466-0.554,1.229-1.462
			c0.76-0.912,1.844-2.15,2.951-3.65c0.564-0.739,1.16-1.518,1.766-2.311c0.614-0.787,1.221-1.601,1.775-2.434
			c1.125-1.653,2.264-3.225,3.122-4.591c5.086-7.957,7.586-13.262,8.868-16.023c2.594-5.601,4.016-10.266,4.841-14.791
			c0.796-4.525,1.076-8.946,0.741-14.107c-2.115,4.695-4.195,8.372-6.171,12.298c-2.004,3.911-3.973,8.026-6.469,13.278
			c-1.233,2.59-3.606,7.584-8.401,15.075c-1.674,2.538-4.096,6.046-6.261,8.799c-1.029,1.413-2.062,2.602-2.779,3.474
			c-0.722,0.869-1.161,1.399-1.161,1.399s-0.531,0.63-1.383,1.641c-0.892,0.977-2.12,2.323-3.465,3.797
			c-1.338,1.481-2.907,2.985-4.307,4.44c-1.415,1.44-2.808,2.689-3.803,3.664c-4.917,4.562-7.466,6.552-8.979,7.835
			c-4.553,3.682-8.072,6.629-11.337,9.606C353.296,289.823,350.304,292.831,346.43,296.227z"/>
		<path d="M192.43,262.226c-5.155,0.303-9.472,0.785-13.908,1.675c-4.438,0.897-9.004,2.221-14.631,4.417
			c-1.524,0.593-3.808,1.498-6.622,2.659c-1.405,0.586-2.946,1.229-4.596,1.917c-1.82,0.787-3.67,1.586-5.549,2.398
			c-2.093,0.936-4.217,1.886-6.371,2.85c-4.292,1.961-8.673,4.044-13.121,6.245c-17.766,8.829-36.684,19.567-54.637,32.997
			c-8.98,6.693-17.664,14.119-25.708,22.277c-7.989,8.205-15.315,17.196-21.259,27.016c-5.913,9.82-10.402,20.472-12.828,31.396
			c-1.188,5.463-1.867,10.967-2.078,16.397c-0.022,1.357-0.098,2.711-0.074,4.058c0.039,1.346,0.079,2.687,0.118,4.021
			c0.053,1.336,0.229,2.686,0.34,4.019c0.071,0.666,0.108,1.335,0.209,1.994l0.33,1.969c0.367,2.635,1.053,5.173,1.67,7.695
			c0.795,2.467,1.494,4.943,2.499,7.263c0.878,2.376,2.005,4.595,3.063,6.81c0.551,1.095,1.177,2.137,1.756,3.195
			c0.295,0.525,0.59,1.05,0.883,1.572c0.301,0.517,0.637,1.008,0.951,1.51c5.062,8.026,10.903,14.739,16.73,20.298
			c5.826,5.572,11.551,10.144,16.78,13.88c5.229,3.738,9.9,6.766,13.812,9.099c3.885,2.389,7.021,4.061,9.119,5.268
			c2.134,1.134,3.265,1.734,3.265,1.734s1.123,0.617,3.271,1.72c2.16,1.075,5.314,2.708,9.428,4.615
			c4.096,1.949,9.15,4.17,15.016,6.629c5.889,2.397,12.592,5.028,20.035,7.65c14.884,5.247,32.664,10.633,52.283,15.393
			c19.615,4.767,41.049,8.966,63.132,12.218c22.081,3.262,44.806,5.607,66.974,6.859c11.083,0.633,22.028,0.959,32.682,1.01
			c5.326,0.042,10.58-0.032,15.741-0.151c2.581-0.048,5.139-0.167,7.671-0.246c2.349-0.114,4.674-0.227,6.974-0.339
			c1.995-0.128,3.901-0.25,5.688-0.364c1.787-0.143,3.455-0.275,4.977-0.396c1.521-0.112,2.895-0.269,4.092-0.381
			c0.599-0.06,1.153-0.114,1.661-0.164c0.281-0.029,0.55-0.058,0.805-0.084c0.439-0.067,0.867-0.062,1.247-0.184
			c1.598-0.675,2.103-1.019,2.932-1.544c0.764-0.517,1.492-1.085,2.177-1.767c1.344-1.344,2.621-3.261,2.817-5.742
			c0.143-2.393-0.823-4.664-2.556-5.965c-0.435-0.341-0.818-0.6-1.152-0.772c-0.353-0.199-0.694-0.362-1.027-0.501
			c-0.67-0.288-1.308-0.487-1.933-0.657c-2.488-0.637-4.779-0.761-7.129-0.748c-2.343,0.03-4.729,0.235-7.283,0.619
			c2.431,0.855,4.605,1.738,6.646,2.623c2.024,0.889,3.959,1.792,5.607,2.807c0.402,0.255,0.788,0.514,1.107,0.776
			c0.166,0.13,0.313,0.259,0.433,0.384c0.152,0.13,0.209,0.248,0.216,0.278c0.056,0.209-0.032,0.39-0.132,0.468
			c-0.094-0.002-0.266,0.397-0.877,0.898c-0.298,0.251-0.68,0.518-1.104,0.781c-0.368,0.235-1.143,0.613-0.929,0.499
			c-1.438,0.13-3.599,0.323-6.275,0.564c-1.489,0.115-3.124,0.241-4.873,0.377c-1.753,0.11-3.622,0.229-5.579,0.352
			c-2.259,0.109-4.543,0.22-6.85,0.331c-2.491,0.077-5.004,0.194-7.545,0.241c-5.081,0.116-10.258,0.19-15.512,0.148
			c-10.507-0.051-21.32-0.372-32.277-0.997c-21.916-1.236-44.414-3.555-66.266-6.779c-21.854-3.214-43.057-7.364-62.43-12.065
			c-19.377-4.696-36.9-10.001-51.528-15.152c-7.315-2.574-13.889-5.152-19.657-7.498c-5.742-2.405-10.685-4.573-14.679-6.474
			c-4.016-1.859-7.082-3.447-9.187-4.493c-2.091-1.07-3.18-1.669-3.18-1.669s-1.098-0.584-3.17-1.686
			c-2.029-1.17-5.077-2.794-8.824-5.102c-3.781-2.256-8.275-5.174-13.282-8.756c-5.009-3.578-10.451-7.936-15.932-13.181
			c-5.487-5.231-10.896-11.485-15.513-18.809c-0.287-0.458-0.597-0.906-0.87-1.377c-0.265-0.474-0.53-0.95-0.797-1.428
			c-0.523-0.961-1.098-1.906-1.594-2.896c-0.947-2-1.975-4.001-2.753-6.129c-0.909-2.082-1.517-4.291-2.236-6.491
			c-0.538-2.247-1.161-4.504-1.479-6.846l-0.297-1.75c-0.091-0.586-0.119-1.181-0.183-1.773c-0.095-1.191-0.258-2.369-0.305-3.587
			c-0.035-1.222-0.071-2.448-0.107-3.681c-0.022-1.232,0.051-2.469,0.07-3.711c0.195-4.964,0.815-9.99,1.902-14.994
			c2.226-10.001,6.354-19.836,11.89-29.03c5.564-9.19,12.504-17.726,20.152-25.577c7.703-7.811,16.083-14.985,24.803-21.481
			c17.427-13.038,35.967-23.576,53.416-32.249c4.37-2.162,8.675-4.211,12.896-6.141c2.119-0.948,4.208-1.883,6.267-2.805
			c1.849-0.8,3.669-1.587,5.459-2.362c1.622-0.681,3.138-1.317,4.519-1.896c2.774-1.131,5.012-2.043,6.503-2.651
			c5.516-2.217,9.753-4.171,13.691-6.283C184.396,267.182,188.024,264.905,192.43,262.226z"/>
		<path d="M297.763,482.893c9.816,3.178,16.455,5.056,28.353,6.182c2.015,0.198,5.292,0.519,12.104,1.187
			c9.195,0.938,24.682,2.646,37.71,4.696c6.515,1.013,12.403,2.119,16.603,3.063c4.207,0.938,6.705,1.693,6.705,1.693
			s0.521,0.158,1.468,0.446c0.921,0.307,2.3,0.738,3.809,1.389c0.354,0.17,0.765,0.335,1.121,0.526
			c0.107,0.056,0.217,0.113,0.329,0.172l0.002,0.001l-0.009-0.006l0.003-0.011l0.004-0.003c-0.039,0.015,0.116-0.043-0.186,0.063
			c-0.514,0.191-1.1,0.369-1.719,0.527c-2.483,0.648-5.437,1.049-8.446,1.35c-3.027,0.287-6.157,0.472-9.259,0.578
			c-6.203,0.219-12.273,0.181-17.328,0.093c-9.089-0.178-14.729-0.469-17.672-0.587c-11.913-0.55-18.74,0.322-28.924,1.974
			c9.773,3.314,16.515,5.142,28.545,5.818c2.976,0.148,8.667,0.459,17.905,0.647c5.144,0.096,11.328,0.136,17.756-0.095
			c3.214-0.112,6.49-0.306,9.74-0.617c3.258-0.336,6.466-0.749,9.673-1.582c0.803-0.208,1.606-0.447,2.43-0.753
			c0.38-0.112,1.157-0.494,1.753-0.768c0.648-0.274,1.172-0.691,1.755-1.024c1.005-0.813,1.875-1.701,2.37-2.744
			c0.479-1.038,0.698-2.197,0.583-3.291c-0.113-2.233-1.621-3.972-3.374-5.251c-0.456-0.304-0.904-0.603-1.344-0.896
			c-0.217-0.119-0.431-0.236-0.643-0.353l-0.419-0.219c-0.556-0.289-1.062-0.496-1.561-0.729c-1.957-0.835-3.483-1.301-4.546-1.653
			c-1.056-0.319-1.636-0.494-1.636-0.494s-2.766-0.839-7.172-1.828c-4.407-0.999-10.465-2.146-17.102-3.186
			c-13.271-2.104-28.868-3.833-38.135-4.755c-6.855-0.686-10.157-0.973-12.186-1.149C314.846,480.294,307.927,481.1,297.763,482.893
			z"/>
		<path d="M392.43,508.227c4.959,1.4,9.002,2.741,13.212,3.973c2.094,0.613,4.218,1.235,6.512,1.907
			c2.261,0.679,4.694,1.382,7.194,2.361c0.833,0.339,1.966,0.771,3.355,1.557c0.346,0.195,0.68,0.427,1.066,0.659
			c0.327,0.257,0.729,0.516,1.051,0.819c0.724,0.591,1.236,1.307,1.502,2.006c0.08,0.112,0.057,0.246,0.096,0.371
			c0.026,0.128,0.088,0.254,0.062,0.41l0.001,0.112l0.005,0.015l0.01-0.005l0.001-0.007l0.004-0.007l-0.027,0.015l-0.167,0.135
			c-0.317,0.219-0.768,0.495-1.354,0.74c-1.147,0.506-2.61,0.941-4.118,1.294c-1.515,0.353-3.091,0.642-4.629,0.864
			c-3.07,0.462-5.965,0.712-8.062,0.882c-2.108,0.145-3.421,0.234-3.421,0.234s-4.409,0.26-10.095,0.341
			c-5.682,0.101-12.627,0.027-17.585-0.084c-9.102-0.212-14.743-0.492-17.688-0.612c-11.92-0.544-18.746,0.346-28.926,2.02
			c9.781,3.293,16.525,5.103,28.549,5.771c2.974,0.151,8.664,0.452,17.889,0.673c5.024,0.126,12.08,0.188,17.899,0.067
			c5.815-0.099,10.399-0.388,10.399-0.388c-0.001,0.001,1.366-0.065,3.571-0.23c2.206-0.171,5.243-0.42,8.618-0.918
			c1.686-0.24,3.459-0.557,5.264-0.974c1.809-0.426,3.645-0.938,5.518-1.756c0.93-0.399,1.895-0.923,2.854-1.614
			c0.248-0.202,0.494-0.402,0.739-0.602c0.248-0.199,0.532-0.528,0.778-0.798c0.26-0.28,0.486-0.577,0.679-0.896
			c0.189-0.319,0.411-0.618,0.536-0.96c0.139-0.335,0.277-0.669,0.378-1.007c0.059-0.35,0.116-0.695,0.174-1.036
			c0.095-0.337,0.049-0.687,0.063-1.023l-0.012-0.486l-0.019-0.384c-0.004-0.506-0.12-0.996-0.224-1.469
			c-0.115-0.467-0.191-0.936-0.376-1.332c-0.941-2.521-2.447-4.166-3.712-5.246c-0.64-0.58-1.258-0.994-1.829-1.416
			c-0.575-0.358-1.11-0.711-1.608-0.989c-1.994-1.112-3.375-1.615-4.423-2.031c-3.099-1.171-5.874-1.748-8.449-2.144
			c-2.575-0.379-4.951-0.518-7.256-0.509C401.823,506.568,397.479,507.137,392.43,508.227z"/>
		<path d="M411.096,530.227c0.876,2.409,1.252,4.731,1.113,6.705c-0.048,0.49-0.117,0.953-0.225,1.383
			c-0.046,0.216-0.135,0.412-0.192,0.61c-0.057,0.229-0.143,0.254-0.207,0.375c-0.13,0.193-0.328,0.326-0.523,0.399
			c-0.218,0.087-0.307,0.047-0.73,0.202c-1.5,0.477-3.647,0.789-5.906,1.069c-2.294,0.278-4.846,0.52-7.733,0.785
			c-1.962,0.164-5.159,0.469-11.917,0.663c-1.727,0.036-5.817,0.121-5.817,0.121s-3.433-0.021-5.336-0.032
			c-9.069-0.092-14.695-0.389-17.629-0.511c-11.879-0.582-18.67,0.188-28.896,1.562c9.678,3.579,16.444,5.519,28.504,6.229
			c2.983,0.154,8.691,0.473,17.953,0.573c1.944,0.036,5.459-0.021,5.459-0.021s4.203,0.005,5.981-0.08
			c6.971-0.21,10.358-0.543,12.44-0.739c3.075-0.314,5.829-0.771,8.4-1.458c1.285-0.346,2.525-0.746,3.739-1.245
			c1.214-0.503,2.405-1.082,3.609-1.954c0.542-0.392,1.374-1.071,1.887-1.804c0.554-0.729,0.88-1.591,0.966-2.469
			c0.034-0.418,0.101-0.925,0.053-1.248c-0.033-0.351-0.046-0.702-0.11-1.037c-0.114-0.677-0.296-1.315-0.512-1.93
			C414.542,533.95,413.006,531.965,411.096,530.227z"/>
		<path d="M293.268,458.069c-0.992,0-1.969,0.036-2.923,0.104c-3.601,0.261-6.889,0.96-9.78,1.739
			c-2.903,0.768-5.383,1.694-7.445,2.478c-2.048,0.813-3.659,1.522-4.762,2.023c-1.107,0.495-1.698,0.792-1.698,0.792
			s-2.901,1.315-7.318,3.718c-4.431,2.376-10.341,5.895-16.692,9.649c-0.814,0.477-1.638,0.956-2.467,1.436
			c-2.411,1.393-4.878,2.775-7.36,4.041c-3.329,1.679-6.717,3.201-9.882,4.018c-1.569,0.437-3.093,0.59-4.667,0.716
			c-0.591,0.019-1.179,0.03-1.762,0.03c-0.982,0-1.954-0.033-2.913-0.121c-3.05-0.237-5.882-0.757-8.289-1.284
			c-3.192-0.72-5.553-1.397-7.343-1.953c-1.791-0.55-3.021-0.956-3.954-1.277c-2.188-0.745-4.195-1.426-6.088-2.05
			c-1.795,0.621-3.623,1.183-5.487,1.681c-0.006,0.002-0.011,0.003-0.017,0.005c-0.023,0.006-0.049,0.013-0.071,0.019
			c-0.021,0.006-0.04,0.011-0.061,0.017c-0.013,0.003-0.03,0.008-0.044,0.012c-0.037,0.01-0.074,0.02-0.111,0.029l0,0
			c-0.028,0.007-0.054,0.014-0.082,0.021c-1.476,0.387-2.952,0.729-4.428,1.028c3.827,2.404,8.088,4.586,13.846,6.612
			c0.983,0.35,2.284,0.79,4.195,1.384c1.909,0.6,4.439,1.335,7.944,2.13c2.649,0.586,5.801,1.178,9.386,1.461
			c1.13,0.103,2.312,0.146,3.532,0.146c0.709,0,1.431-0.015,2.163-0.041c1.991-0.143,4.153-0.386,6.215-0.955
			c4.121-1.079,7.876-2.817,11.485-4.631c3.592-1.837,6.999-3.815,10.229-5.71c6.441-3.818,12.191-7.251,16.444-9.54
			c4.238-2.313,6.931-3.537,6.931-3.537s0.559-0.28,1.586-0.735c1.025-0.465,2.517-1.117,4.384-1.855
			c3.726-1.437,9.021-3.22,14.938-3.677c0.767-0.053,1.544-0.081,2.324-0.081c2.221,0,4.482,0.226,6.696,0.749
			c3.339,0.791,6.838,1.691,10.222,2.566c6.796,1.764,13.357,3.574,18.797,5.144c8.751,2.528,14.097,4.259,16.884,5.158
			c5.636,1.832,10.091,3.065,14.356,4.107c2.13,0.529,4.217,1.003,6.34,1.576c1.059,0.29,2.134,0.598,3.189,1.01
			c0.529,0.205,1.057,0.436,1.547,0.733c0.485,0.303,0.978,0.65,1.172,1.274c0.135-0.653-0.18-1.354-0.518-1.903
			c-0.347-0.571-0.759-1.073-1.182-1.54c-0.851-0.941-1.758-1.745-2.672-2.499c-1.834-1.5-3.714-2.765-5.693-3.942
			c-3.967-2.338-8.354-4.294-14.098-6.226c-2.842-0.948-8.288-2.728-17.146-5.294c-5.506-1.596-12.135-3.424-19.003-5.203
			c-3.449-0.889-6.892-1.773-10.405-2.603C298.872,458.348,296.01,458.069,293.268,458.069"/>
		<path d="M395.763,460.227c-9.24-4.599-15.64-7.339-27.403-9.787c-1.994-0.41-5.238-1.078-12-2.389
			c-7.13-1.394-19.171-3.617-29.49-5.264c-10.311-1.676-18.922-2.715-18.922-2.715s-1.805-0.213-4.762-0.562
			c-2.969-0.318-7.091-0.752-11.816-0.981c-2.365-0.11-4.876-0.176-7.526-0.068c-1.332,0.063-2.686,0.152-4.145,0.391
			c-0.392,0.062-0.65,0.09-1.187,0.227c-0.609,0.166-1.268,0.279-1.81,0.521c-0.554,0.231-1.171,0.384-1.639,0.718l-0.747,0.442
			c-0.249,0.147-0.424,0.362-0.639,0.54c-0.454,0.341-0.722,0.818-1.037,1.26c-0.283,0.471-0.587,0.935-0.73,1.471
			c-0.339,1.045-0.397,2.164-0.227,3.229c0.174,1.068,0.607,2.098,1.275,3.012c0.281,0.482,0.729,0.878,1.089,1.314
			c0.438,0.383,0.841,0.791,1.306,1.146l0.578,0.429c0.152,0.116,0.299,0.204,0.448,0.305c0.298,0.198,0.593,0.388,0.881,0.553
			c0.581,0.351,1.146,0.648,1.698,0.927c1.105,0.557,2.158,1.012,3.158,1.409c4.595,1.802,8.276,2.742,11.2,3.506
			c2.921,0.734,5.07,1.201,6.547,1.514c5.974,1.244,10.721,1.703,15.253,1.772c4.532,0.056,8.855-0.283,13.979-0.92
			c-4.818-1.836-8.815-3.392-13.072-4.732c-4.252-1.352-8.766-2.487-14.516-3.746c-1.419-0.314-3.487-0.776-6.256-1.48
			c-2.747-0.721-6.271-1.648-10.21-3.202c-0.85-0.338-1.717-0.717-2.549-1.139c-0.417-0.209-0.831-0.429-1.21-0.659
			c-0.2-0.113-0.38-0.23-0.556-0.349l-0.262-0.176l-0.118-0.088l0.003,0.003l0.008,0.045l-0.012,0.005l-0.046,0.011
			c0.063-0.021,0.421-0.086,0.643-0.114c0.993-0.168,2.122-0.25,3.246-0.303c2.269-0.097,4.598-0.045,6.812,0.056
			c4.439,0.206,8.457,0.617,11.339,0.92c2.887,0.333,4.649,0.536,4.649,0.536c0,0.001,8.427,1.039,18.63,2.715
			c10.203,1.645,22.163,3.864,29.256,5.226c6.721,1.312,9.954,1.944,11.941,2.332C378.546,460.405,385.448,460.495,395.763,460.227z
			"/>
		<path d="M105.046,309.377l0.042-0.03l-0.007,0.01l-0.028,0.016L105.046,309.377 M184.726,254.917c-0.876,0-1.771,0.019-2.64,0.115
			c-0.945,0.111-1.902,0.269-2.882,0.478c-1.959,0.418-4.009,1.042-6.239,1.913c-1.205,0.479-3.014,1.198-5.256,2.09
			c-1.118,0.452-2.345,0.947-3.659,1.479c-1.282,0.574-2.649,1.187-4.081,1.828c-5.722,2.577-12.472,5.616-18.929,8.524
			c-1.613,0.744-3.207,1.415-4.765,2.186c-1.557,0.769-3.075,1.518-4.533,2.237c-2.92,1.434-5.601,2.75-7.816,3.991
			c-2.232,1.206-4.068,2.198-5.348,2.889c-1.284,0.678-1.98,1.113-1.98,1.113s-2.837,1.643-7.234,4.188
			c-2.159,1.353-4.727,2.887-7.474,4.668c-1.368,0.902-2.793,1.84-4.254,2.803c-0.361,0.251-0.726,0.504-1.093,0.758
			c-0.562,0.399-1.127,0.8-1.694,1.203c-1.396,1.014-2.863,2.01-4.233,3.062c-1.375,1.05-2.758,2.106-4.145,3.166l-1.046,0.8
			l-0.104,0.107l0.072,0.148l0.143,0.296l0.287,0.593l1.146,2.374c1.448,2.992,2.895,5.98,4.319,8.926
			c1.562,3.119,3.077,6.149,4.468,8.931c2.804,5.55,5.103,10.104,6.251,12.377c2.35,4.551,4.842,7.682,7.911,10.364
			c2.914-2.573,6.03-4.939,9.339-7.077c-0.478-3.268-1.483-6.522-3.295-10.264c-1.131-2.283-3.394-6.854-6.152-12.427
			c-1.39-2.781-2.904-5.812-4.464-8.933l-0.243-0.487l0.355-0.25c0.336-0.235,0.67-0.468,1.003-0.7
			c1.361-0.904,2.689-1.785,3.966-2.631c2.565-1.676,4.992-3.136,7.016-4.419c4.15-2.427,6.827-3.994,6.827-3.994
			s0.659-0.409,1.883-1.045c1.215-0.649,2.962-1.583,5.084-2.716c2.104-1.171,4.654-2.408,7.431-3.758
			c1.386-0.679,2.828-1.386,4.308-2.111c1.476-0.728,3.083-1.4,4.657-2.121c3.445-1.549,6.975-3.136,10.382-4.668
			c2.863-1.288,5.64-2.536,8.206-3.69c1.403-0.634,2.744-1.24,4.002-1.809c1.265-0.519,2.447-1.004,3.524-1.446
			c2.152-0.889,3.888-1.606,5.044-2.084c2.13-0.896,3.969-1.847,5.618-2.891c0.824-0.522,1.602-1.067,2.343-1.639
			c0.741-0.563,1.446-1.091,2.133-1.688c1.099-0.943,2.147-1.973,3.201-3.104c0.145-0.156,0.29-0.313,0.435-0.473
			c0.117-0.128,0.235-0.259,0.353-0.39c0.661-0.736,1.333-1.528,2.02-2.339c0.709-0.797,1.44-1.62,2.203-2.478
			c-1.087-0.331-2.172-0.627-3.253-0.884c-1.052-0.229-2.053-0.412-3.048-0.573c-1.983-0.315-3.895-0.5-5.817-0.519
			C184.894,254.917,184.81,254.917,184.726,254.917"/>
		<path d="M277.763,448.893c-3.471-3.224-6.048-5.025-10.927-5.729c-2.653-0.356-10.604-1.379-18.28-0.984
			c-1.923,0.108-3.833,0.314-5.634,0.632c-1.805,0.33-3.522,0.828-5.006,1.421c-0.759,0.366-1.429,0.628-2.047,1.044
			c-0.303,0.192-0.586,0.371-0.847,0.537c-0.261,0.185-0.498,0.396-0.709,0.568c-0.423,0.359-0.748,0.625-0.952,0.885
			c-0.207,0.238-0.316,0.365-0.316,0.365s-0.107,0.128-0.311,0.37c-0.211,0.227-0.476,0.627-0.777,1.178
			c-0.148,0.276-0.325,0.563-0.477,0.921c-0.138,0.377-0.276,0.793-0.405,1.243c-0.153,0.426-0.192,0.986-0.232,1.553
			c-0.014,0.285-0.038,0.579-0.021,0.876c0.034,0.297,0.078,0.602,0.132,0.912c0.059,0.306,0.11,0.636,0.203,0.932
			c0.104,0.284,0.217,0.573,0.34,0.865c0.235,0.62,0.552,1.098,0.889,1.597c0.334,0.54,0.705,0.91,1.089,1.341
			c0.388,0.453,0.784,0.755,1.195,1.124c1.645,1.371,3.421,2.365,5.224,3.239c3.607,1.726,7.354,2.891,10.54,3.787
			c3.185,0.886,5.801,1.459,7.112,1.73c4.84,0.975,7.868,0.135,12.218-1.738c-3.61-3.056-5.969-4.841-10.549-5.882
			c-1.235-0.288-3.719-0.85-6.667-1.677c-2.935-0.824-6.384-1.921-9.263-3.3c-1.43-0.681-2.722-1.444-3.571-2.155
			c-0.188-0.176-0.438-0.348-0.541-0.5c-0.127-0.151-0.311-0.305-0.341-0.408c-0.073-0.109-0.169-0.215-0.149-0.253l-0.049-0.066
			l0.017-0.018l-0.025-0.003l0.023-0.004l0.003-0.046l0.024-0.113l0.09-0.137c0.049-0.192,0.235-0.294,0.208-0.298
			c0.018,0.003,0.038-0.118,0.345-0.33c0.071-0.054,0.126-0.121,0.223-0.189c0.111-0.066,0.232-0.139,0.361-0.215
			c0.217-0.177,0.64-0.314,1.012-0.513c0.872-0.333,2.021-0.686,3.411-0.935c1.396-0.239,2.98-0.412,4.645-0.502
			c6.702-0.345,14.377,0.6,16.882,0.884C270.521,451.458,273.338,450.561,277.763,448.893z"/>
		<path d="M238.43,459.559c-2.697-2.105-4.784-3.05-7.763-2.171c-0.807,0.252-2.418,0.788-4.368,1.757
			c-1.926,0.99-4.294,2.437-6.148,4.86c-0.915,1.197-1.633,2.652-1.983,4.09c-0.095,0.358-0.173,0.711-0.211,1.061
			c-0.022,0.174-0.044,0.346-0.066,0.516l-0.029,0.253l-0.006,0.314c-0.003,0.419,0.011,0.827,0.037,1.216
			c0.062,0.393,0.144,0.771,0.23,1.13c0.176,0.709,0.483,1.312,0.737,1.815c0.284,0.456,0.55,0.861,0.777,1.151
			c0.461,0.533,0.738,0.818,0.738,0.818s1.1,1.131,2.79,2.071c1.688,0.972,3.88,1.766,6.115,2.343
			c4.472,1.166,9.188,1.568,10.771,1.674c2.91,0.172,4.667-1.104,7.045-3.564c-2.3-2.522-3.72-3.937-6.393-4.209
			c-1.429-0.149-5.826-0.557-9.453-1.499c-1.81-0.455-3.385-1.055-4.249-1.558c-0.229-0.121-0.416-0.232-0.547-0.334
			c-0.151-0.097-0.274-0.18-0.334-0.245c-0.156-0.131-0.241-0.192-0.226-0.192c0,0-0.041-0.066-0.145-0.159l-0.075-0.113
			l-0.002-0.031l-0.01,0.004l0.014-0.022l-0.012-0.007l0.015-0.071l0.022-0.146c0.003-0.102,0.031-0.198,0.062-0.295
			c0.101-0.393,0.292-0.809,0.644-1.27c0.684-0.929,2.082-1.911,3.435-2.589c1.364-0.685,2.637-1.135,3.267-1.359
			C235.47,463.994,236.506,462.376,238.43,459.559z"/>
		<path d="M493.004,304.487c-0.903,0-1.792,0.029-2.676,0.098c-1.283,0.08-2.541,0.168-3.802,0.306
			c2.633,1.971,5.148,4.103,7.534,6.387c0.803,0.188,1.623,0.374,2.468,0.548c1.19,0.248,2.429,0.477,3.731,0.702
			c1.294,0.291,2.652,0.573,4.092,0.849c0.78,0.148,1.756,0.334,2.898,0.552c1.143,0.22,2.46,0.434,3.89,0.823
			c1.436,0.354,3.01,0.744,4.696,1.161c0.843,0.208,1.714,0.422,2.609,0.643c0.896,0.225,1.823,0.423,2.742,0.738
			c2.019,0.63,4.082,1.274,6.185,1.931c2.132,0.684,4.433,1.312,6.413,2.136c4.102,1.579,7.946,3.855,11.09,6.811
			c1.522,1.516,2.9,3.169,3.99,5.008c1.061,1.854,1.879,3.848,2.452,5.943c0.51,2.119,0.782,4.319,0.836,6.56
			c-0.033,2.248-0.138,4.518-0.578,6.78c-0.745,4.526-2.235,8.972-4.04,13.182c-1.813,4.214-3.944,8.214-6.21,11.947
			c-2.28,3.728-4.667,7.202-7.019,10.414c-2.392,3.187-4.707,6.136-6.945,8.766c-4.426,5.274-8.357,9.177-11.275,11.811
			c-1.429,1.331-2.622,2.295-3.397,2.987c-0.78,0.687-1.213,1.03-1.213,1.03s-0.431,0.346-1.243,0.998
			c-0.818,0.646-1.985,1.637-3.572,2.795c-1.241,0.956-2.726,2.049-4.436,3.244c-10.552,13.741-25.553,24.234-43.578,29.034
			c-0.014,0.003-0.027,0.007-0.041,0.011c-0.021,0.006-0.04,0.011-0.062,0.017c-0.038,0.01-0.075,0.02-0.112,0.029l0,0l0,0
			c-0.127,0.033-0.257,0.067-0.384,0.1c-0.034,0.01-0.068,0.018-0.103,0.027c-6.788,1.744-13.594,2.578-20.297,2.578h-0.004l0,0l0,0
			c-0.006,0-0.008,0-0.014,0c-16.199-0.002-31.773-4.879-44.886-13.558c-0.288-0.074-0.576-0.148-0.863-0.222
			c-2.164-0.601-4.337-1.008-6.421-1.502c-1.045-0.234-2.077-0.466-3.093-0.694c-0.508-0.113-1.013-0.227-1.513-0.339
			c-0.244-0.062-0.508-0.104-0.772-0.145l-0.55-0.088c-0.933-0.147-1.836-0.29-2.703-0.428c-0.866-0.146-1.7-0.27-2.514-0.306
			c-1.579-0.097-3-0.264-4.261-0.264c-0.031,0-0.063,0-0.095,0c-1.285,0.018-2.382,0.033-3.258,0.045
			c-6.494,0.284-11.545,2.047-15.668,4.545c-3.981,2.478-7.346,5.646-9.757,10.075c-0.062,0.112-0.122,0.227-0.183,0.341
			c0.146-0.1,0.293-0.197,0.439-0.293c2.069-1.354,4.075-2.317,6.051-3.074c1.931-0.739,3.832-1.282,5.736-1.803
			c4.025-1.014,8.214-1.809,13.709-1.997c0.746-0.005,1.68-0.011,2.772-0.019c0.019,0,0.037,0,0.056,0
			c1.081,0,2.326,0.163,3.696,0.245c0.698,0.027,1.429,0.14,2.189,0.273c0.761,0.121,1.553,0.247,2.371,0.378l0.481,0.076
			c0.229,0.033,0.462,0.07,0.707,0.132c0.482,0.109,0.969,0.219,1.458,0.329c0.98,0.221,1.976,0.445,2.983,0.673
			c2.014,0.479,4.1,0.866,6.201,1.452c8.441,2.156,17.553,4.973,26.787,8.28c2.31,0.827,4.626,1.68,6.929,2.587
			c1.155,0.438,2.312,0.896,3.467,1.372l2.1,0.859l0.875,0.362l0.438,0.182l0.22,0.077l0.231-0.051l1.852-0.412l2.089-0.503
			l1.876-0.481l3.72-1.013c2.469-0.692,4.91-1.441,7.332-2.2c9.669-3.09,18.928-6.673,27.282-10.482
			c8.354-3.808,15.815-7.796,21.953-11.543c6.139-3.745,10.999-7.16,14.275-9.686c1.667-1.222,2.905-2.27,3.768-2.952
			c0.857-0.69,1.312-1.057,1.312-1.057s0.457-0.363,1.287-1.09c0.824-0.733,2.084-1.753,3.606-3.166
			c3.069-2.76,7.374-7.034,12-12.546c4.629-5.478,9.815-12.204,14.679-20.149c2.418-3.979,4.723-8.286,6.721-12.923
			c1.986-4.636,3.681-9.619,4.57-14.958c0.507-2.647,0.664-5.417,0.69-8.196c-0.06-2.797-0.399-5.626-1.081-8.414
			c-0.746-2.776-1.848-5.475-3.291-7.976c-1.472-2.489-3.312-4.708-5.313-6.685c-1.927-1.817-4.003-3.386-6.157-4.729
			c-2.426-1.513-4.952-2.74-7.478-3.718c-2.426-0.994-4.664-1.589-6.919-2.316c-2.189-0.682-4.338-1.351-6.44-2.006
			c-0.958-0.325-1.925-0.533-2.857-0.767c-0.935-0.229-1.843-0.452-2.722-0.667c-1.759-0.43-3.4-0.832-4.898-1.198
			c-1.489-0.398-2.867-0.619-4.062-0.843c-1.195-0.219-2.215-0.406-3.03-0.555c-1.506-0.273-2.935-0.511-4.3-0.717
			c-1.378-0.142-2.694-0.246-3.961-0.328C495.936,304.561,494.451,304.487,493.004,304.487"/>
		<path d="M410.43,232.227c5.047,1.052,9.235,1.974,13.663,2.615c4.425,0.647,9.081,1.044,15.029,1.226
			c1.611,0.057,4.028,0.142,7.026,0.247c1.498,0.066,3.142,0.138,4.901,0.216c1.532,0.079,3.091,0.159,4.673,0.24
			c1.755,0.106,3.537,0.213,5.345,0.322c3.611,0.246,7.321,0.51,11.11,0.845c15.156,1.299,31.621,3.378,48.315,6.677
			c16.68,3.307,33.612,7.873,49.323,14.281c7.827,3.239,15.369,6.885,22.282,11.104c6.888,4.238,13.261,8.906,18.601,14.146
			c5.355,5.209,9.858,10.813,13.131,16.639c3.316,5.799,5.545,11.702,6.899,17.296c1.354,5.623,1.891,10.801,2.03,15.652
			c0.061,1.195,0.119,2.351,0.175,3.466c0.028,0.557,0.056,1.104,0.082,1.64c-0.005,0.536-0.011,1.062-0.017,1.576
			c-0.021,2.06-0.039,3.946-0.056,5.647c-0.018,0.85,0.005,1.655-0.044,2.409c-0.055,0.753-0.106,1.457-0.154,2.113
			c-0.095,1.311-0.175,2.423-0.24,3.323c-0.129,1.802-0.197,2.756-0.197,2.756s-0.004,0.24-0.064,0.701
			c-0.063,0.46-0.158,1.143-0.281,2.036s-0.274,1.997-0.453,3.297c-0.089,0.65-0.185,1.35-0.287,2.097
			c-0.053,0.373-0.106,0.758-0.162,1.154c-0.081,0.393-0.164,0.796-0.249,1.211c-0.34,1.66-0.717,3.501-1.128,5.51
			c-0.103,0.502-0.207,1.015-0.313,1.538c-0.127,0.519-0.282,1.04-0.426,1.575c-0.294,1.068-0.599,2.178-0.913,3.324
			c-0.32,1.146-0.628,2.336-0.985,3.55c-0.416,1.195-0.845,2.427-1.285,3.692c-0.438,1.267-0.89,2.566-1.352,3.899
			c-0.548,1.3-1.108,2.632-1.682,3.993c-4.593,10.874-11.589,23.103-21.554,34.654c-4.85,5.875-10.541,11.457-16.604,16.917
			c-1.549,1.332-3.107,2.673-4.674,4.021c-1.572,1.342-3.252,2.577-4.885,3.881c-0.822,0.646-1.646,1.292-2.473,1.939
			c-0.825,0.649-1.703,1.235-2.555,1.858c-1.715,1.23-3.437,2.465-5.163,3.702c-1.776,1.171-3.557,2.346-5.342,3.521l-2.683,1.762
			l-2.755,1.667c-1.839,1.109-3.68,2.22-5.521,3.331l-5.643,3.15l-2.824,1.567l-2.872,1.481c-1.914,0.986-3.825,1.972-5.732,2.955
			c-1.939,0.926-3.874,1.851-5.804,2.772l-2.89,1.381c-0.975,0.436-1.947,0.869-2.919,1.302c-1.944,0.862-3.882,1.721-5.812,2.575
			c-1.932,0.85-3.891,1.616-5.82,2.422c-1.939,0.783-3.846,1.616-5.782,2.346c-1.934,0.738-3.854,1.473-5.762,2.202
			c-0.953,0.364-1.903,0.729-2.851,1.09c-0.955,0.341-1.907,0.68-2.854,1.018c-1.896,0.675-3.778,1.344-5.642,2.006
			c-1.857,0.683-3.731,1.268-5.572,1.886c-1.721,0.569-3.423,1.133-5.106,1.69c-7.493,2.383-13.671,4.247-16.775,5.122
			c-11.427,3.355-17.633,6.263-26.765,11.099c10.303,0.008,17.311-0.319,28.922-3.603c3.152-0.854,9.422-2.728,17.027-5.141
			c1.71-0.565,3.438-1.138,5.186-1.716c1.87-0.627,3.771-1.221,5.66-1.914c1.896-0.674,3.809-1.354,5.736-2.039
			c0.965-0.344,1.932-0.688,2.903-1.035c0.964-0.368,1.932-0.738,2.902-1.109c1.942-0.742,3.897-1.49,5.865-2.242
			c1.972-0.743,3.918-1.593,5.895-2.391c1.969-0.822,3.964-1.604,5.938-2.471c1.97-0.873,3.949-1.75,5.935-2.63
			c0.992-0.442,1.986-0.886,2.981-1.33l2.957-1.413c1.975-0.944,3.954-1.891,5.938-2.839c1.956-1.008,3.916-2.019,5.878-3.03
			l2.943-1.52l2.902-1.609l5.797-3.239c1.896-1.145,3.793-2.288,5.687-3.432l2.836-1.718l2.771-1.818
			c1.843-1.216,3.681-2.43,5.515-3.64c1.788-1.282,3.57-2.561,5.347-3.834c0.882-0.646,1.788-1.253,2.646-1.927
			c0.857-0.673,1.714-1.344,2.568-2.014c1.696-1.354,3.436-2.639,5.073-4.035c1.632-1.404,3.255-2.801,4.868-4.188
			c6.324-5.696,12.275-11.542,17.381-17.723c10.47-12.149,17.908-25.124,22.776-36.672c0.606-1.447,1.2-2.862,1.78-4.243
			c0.491-1.415,0.971-2.795,1.438-4.14c0.465-1.345,0.918-2.652,1.358-3.923c0.38-1.289,0.708-2.552,1.048-3.767
			c0.333-1.217,0.655-2.394,0.966-3.528c0.151-0.568,0.314-1.123,0.448-1.672c0.114-0.555,0.226-1.098,0.334-1.63
			c0.435-2.129,0.833-4.08,1.192-5.839c0.089-0.439,0.176-0.867,0.261-1.283c0.06-0.419,0.117-0.826,0.173-1.221
			c0.108-0.79,0.21-1.529,0.305-2.217c0.188-1.374,0.348-2.541,0.477-3.486c0.129-0.944,0.228-1.667,0.294-2.153
			c0.063-0.486,0.068-0.739,0.068-0.739s0.073-1.007,0.212-2.906c0.069-0.949,0.154-2.122,0.255-3.505
			c0.05-0.69,0.104-1.435,0.161-2.229c0.051-0.794,0.03-1.64,0.049-2.533c0.019-1.788,0.039-3.771,0.062-5.937
			c0.006-0.541,0.011-1.093,0.017-1.656c-0.027-0.562-0.056-1.135-0.084-1.719c-0.058-1.168-0.117-2.379-0.179-3.632
			c-0.139-4.943-0.726-10.875-2.236-17.102c-1.507-6.242-4.007-12.872-7.707-19.342c-3.656-6.501-8.638-12.7-14.475-18.376
			c-5.826-5.712-12.662-10.715-19.971-15.213c-7.332-4.476-15.234-8.294-23.384-11.667c-16.343-6.668-33.729-11.342-50.769-14.724
			c-17.054-3.371-33.788-5.48-49.171-6.796c-3.846-0.338-7.608-0.605-11.272-0.854c-1.832-0.109-3.64-0.218-5.42-0.324
			c-1.604-0.082-3.184-0.163-4.738-0.242c-1.784-0.075-3.45-0.145-4.97-0.208c-3.038-0.114-5.49-0.18-7.124-0.212
			c-6.033-0.124-10.771,0.183-15.244,0.848C419.609,229.79,415.39,230.789,410.43,232.227z"/>
		<path d="M542.431,320.893c12.812-16.182,20.886-27.451,30.896-49.232c0.423-0.923,0.913-1.991,1.498-3.268
			c0.328-0.728,0.684-1.514,1.07-2.37c0.649-1.494,1.353-3.109,2.113-4.86c0.762-1.752,1.583-3.642,2.471-5.683
			c0.222-0.511,0.447-1.031,0.678-1.561c0.115-0.265,0.231-0.532,0.349-0.802l0.177-0.407l0.089-0.205l0.024-0.095l-0.101-0.049
			c-1.075-0.523-2.189-1.065-3.344-1.628c-2.324-1.09-4.74-2.344-7.472-3.53c-1.248-0.538-2.538-1.094-3.873-1.669
			c-0.774-0.321-1.575-0.652-2.402-0.995c-2.158-0.887-5.083-1.924-8.237-3.106c-3.166-1.12-6.609-2.169-9.76-3.203
			c-1.569-0.536-3.102-0.928-4.492-1.311c-1.392-0.38-2.648-0.723-3.705-1.012c-2.115-0.576-3.434-0.935-3.434-0.935
			s-0.274-0.077-0.775-0.217c-0.503-0.129-1.221-0.37-2.134-0.571c-1.824-0.417-4.359-0.996-7.203-1.645
			c-2.851-0.614-5.979-1.455-9.087-1.908c-3.093-0.523-6.091-1.03-8.587-1.452c-4.658-0.872-8.821-1.25-12.59-1.743
			c-3.765-0.436-7.114-0.928-10.073-1.172c-5.917-0.542-10.271-0.94-13.258-1.214c-6.044-0.43-11.447-0.616-16.463-0.61
			c-5.019,0.089-9.648,0.327-14.153,0.777c-9.008,0.966-17.521,2.569-27.557,5.007c9.993,2.545,18.283,4.78,27.062,6.43
			c4.385,0.858,8.886,1.623,13.773,2.223c4.878,0.683,10.141,1.242,16.048,1.721c2.912,0.283,7.155,0.694,12.923,1.253
			c2.891,0.246,6.117,0.732,9.77,1.159c3.634,0.481,7.738,0.859,12.092,1.688c2.358,0.399,5.19,0.879,8.113,1.374
			c2.938,0.414,5.894,1.203,8.59,1.766c2.69,0.594,5.089,1.124,6.814,1.504c0.865,0.182,1.541,0.406,2.018,0.523
			c0.473,0.129,0.732,0.2,0.732,0.2s1.239,0.349,3.229,0.909c0.995,0.279,2.178,0.61,3.487,0.978
			c1.308,0.369,2.753,0.744,4.222,1.258c2.947,0.989,6.188,1.985,9.146,3.035c2.929,1.105,5.676,2.068,7.669,2.862
			c0.759,0.313,1.493,0.617,2.204,0.91l0.385,0.158l0.004,0.001l0.008,0.001l-0.007-0.008l0.012-0.024l0.009-0.006
			c-0.291,0.648-0.56,1.244-0.808,1.795c-0.575,1.282-1.056,2.354-1.472,3.28C549.327,287.097,546.166,300.595,542.431,320.893z"/>
		<path d="M175.763,537.56c-0.146,0.867-0.379,1.657-0.57,2.418c-0.199,0.735-0.392,1.444-0.579,2.136
			c-0.375,1.385-0.652,2.616-0.803,3.792c-0.185,1.23-0.229,2.402-0.099,3.581c0.065,0.589,0.175,1.181,0.333,1.781
			c0.142,0.619,0.312,1.271,0.543,1.932c0.256,0.716,0.639,1.79,1.114,3.123c0.235,0.669,0.522,1.382,0.78,2.183
			c0.251,0.806,0.52,1.665,0.801,2.565c0.567,1.798,1.186,3.757,1.821,5.774c0.56,2.062,1.135,4.183,1.697,6.257
			c0.55,2.08,1.135,4.093,1.596,5.989c0.437,1.906,0.838,3.657,1.179,5.145c0.684,2.974,1.124,4.893,1.124,4.893
			s0.107,0.48,0.297,1.334c0.187,0.85,0.497,2.105,0.678,3.476c0.207,1.421,0.519,3.005,0.749,4.888
			c0.212,1.909,0.441,3.975,0.676,6.088c0.805,8.576,1.354,18.11,1.578,21.275c0.432,5.851,3.261,9.036,8.417,13.812
			c4.804-5.121,7.359-8.654,7.163-14.641c-0.099-3.245-0.655-12.968-1.535-21.993c-0.264-2.278-0.521-4.505-0.76-6.563
			c-0.265-2.078-0.655-4.098-0.919-5.754c-0.258-1.716-0.575-2.947-0.776-3.837c-0.204-0.887-0.319-1.386-0.319-1.386
			s-0.444-2.002-1.134-5.103c-0.346-1.551-0.754-3.377-1.197-5.364c-0.473-1.986-1.079-4.128-1.651-6.322
			c-0.59-2.193-1.193-4.436-1.78-6.615c-0.687-2.174-1.354-4.285-1.965-6.223c-0.309-0.968-0.604-1.892-0.88-2.759
			c-0.285-0.866-0.613-1.674-0.882-2.41c-0.561-1.469-1.013-2.654-1.314-3.443c-0.288-0.727-0.585-1.396-0.934-2.021
			c-0.373-0.627-0.769-1.205-1.189-1.741c-0.841-1.072-1.782-1.976-2.84-2.766c-1.122-0.798-2.374-1.471-3.739-2.06
			c-0.666-0.293-1.439-0.574-2.221-0.817C177.445,537.947,176.63,537.701,175.763,537.56z"/>
		<path d="M519.763,488.893c-1.537,1.476-2.975,2.925-4.165,4.347c-1.188,1.417-2.225,2.822-3.12,4.304s-1.648,3.039-2.269,4.764
			c-0.311,0.861-0.587,1.765-0.832,2.721c-0.215,0.952-0.391,1.955-0.536,3.021c-0.291,2.313-0.874,6.944-1.586,12.59
			c-0.326,2.823-0.765,5.903-1.059,9.069c-0.283,3.166-0.573,6.423-0.857,9.606c-0.562,6.37-1.099,12.45-1.495,16.938
			c-0.196,2.244-0.357,4.09-0.47,5.375c-0.063,0.64-0.085,1.151-0.104,1.497s-0.029,0.529-0.029,0.529s-0.177,2.934-0.451,7.48
			c-0.121,2.273-0.33,4.951-0.435,7.866c-0.076,2.915-0.159,6.068-0.243,9.296c-0.034,1.613-0.1,3.245-0.108,4.874
			c0.005,1.629,0.011,3.255,0.016,4.858c0.025,3.207-0.009,6.322,0.071,9.18c0.185,5.714,0.28,10.4,0.473,12.74
			c0.276,4.32,1.135,7.674,2.692,10.782c1.52,3.102,3.679,5.981,6.508,9.271c2.129-3.79,3.808-6.862,4.912-10.07
			c1.066-3.194,1.622-6.508,1.473-10.691c-0.123-2.262-0.181-6.808-0.35-12.342c-0.071-2.768-0.035-5.785-0.063-8.892
			c-0.007-1.553-0.015-3.128-0.021-4.706c0.005-1.577,0.065-3.154,0.095-4.715c0.071-3.121,0.142-6.172,0.206-8.991
			c0.09-2.817,0.283-5.396,0.39-7.59c0.241-4.387,0.397-7.217,0.397-7.217s0.01-0.177,0.03-0.511s0.044-0.822,0.109-1.458
			c0.117-1.267,0.286-3.086,0.491-5.299c0.406-4.424,0.957-10.418,1.534-16.697c0.285-3.14,0.577-6.351,0.86-9.473
			c0.292-3.119,0.721-6.114,1.033-8.881c0.646-5.526,1.177-10.06,1.441-12.324c0.113-1.046,0.176-2.043,0.199-2.998
			c0.051-0.942,0.056-1.847,0.018-2.726c-0.078-1.756-0.331-3.408-0.739-5.05s-0.972-3.274-1.671-4.991
			C521.409,492.667,520.657,490.916,519.763,488.893z"/>
		<path fill="#C5ABD3" d="M437.648,451.431h-0.004l0,0H437.648 M458.048,448.826c-0.034,0.01-0.068,0.018-0.103,0.027
			C457.979,448.843,458.014,448.835,458.048,448.826 M458.605,448.68c-0.021,0.005-0.041,0.011-0.062,0.017
			C458.565,448.691,458.584,448.686,458.605,448.68 M359.206,391.55c0.902,3.292,1.994,6.482,3.263,9.562
			c6.339,15.392,17.054,28.011,30.276,36.762c13.112,8.679,28.687,13.556,44.886,13.558
			C401.83,451.423,369.091,427.617,359.206,391.55 M359.039,390.932c0.023,0.09,0.048,0.181,0.072,0.271
			C359.087,391.113,359.062,391.022,359.039,390.932 M417.061,291.285c-0.032,0.008-0.062,0.016-0.094,0.024
			C416.998,291.301,417.029,291.293,417.061,291.285 M417.163,291.258c-0.027,0.007-0.051,0.013-0.077,0.02
			C417.111,291.271,417.137,291.265,417.163,291.258 M437.753,288.604c-6.792,0.001-13.7,0.858-20.577,2.65
			c4.266-1.111,8.542-1.849,12.797-2.26c-35.811,15.943-55.827,55.915-45.519,95.05c9.619,36.519,42.58,60.663,78.65,60.663
			c2.581,0,5.181-0.123,7.786-0.375l0,0l0,0c-3.904,1.736-7.984,3.202-12.244,4.337c18.025-4.8,33.026-15.293,43.578-29.034
			c14.818-19.298,20.86-45.002,14.184-70.35c-3.962-15.041-11.881-27.984-22.348-38.008c-2.386-2.284-4.901-4.416-7.534-6.387
			C472.656,294.509,455.585,288.603,437.753,288.604"/>
		<path fill="#FFFFFF" d="M417.548,354.293c1.256,4.766,0.568,9.072-1.534,9.626c-2.103,0.555-4.82-2.856-6.074-7.62
			c-1.257-4.766-0.57-9.072,1.531-9.627C413.574,346.12,416.293,349.53,417.548,354.293z"/>
		
			<ellipse transform="matrix(0.967 -0.2547 0.2547 0.967 -73.3755 125.8892)" fill="#FFFFFF" cx="449.449" cy="346.293" rx="3.936" ry="8.919"/>
		<path fill="#FFFFFF" d="M393.854,387.207c5.017,6.288,11.874,11.492,18.878,15.329c13.312,7.295,28.096,7.541,41.886,1.473
			c16.456-7.24,26.981-25.944,27.313-43.633c0.109-5.792-8.868-5.782-8.977,0c-0.254,13.528-8.163,27.932-20.658,34.792
			c-18.279,10.036-39.902,0.973-52.095-14.309C396.591,376.333,390.282,382.73,393.854,387.207z"/>
		<path fill="#C9B0D5" d="M417.086,291.278c-0.008,0.002-0.018,0.004-0.025,0.007C417.068,291.283,417.078,291.28,417.086,291.278
			 M417.176,291.255c-0.005,0.001-0.009,0.002-0.013,0.003C417.165,291.257,417.173,291.255,417.176,291.255"/>
		<path d="M437.631,451.431c0.006,0,0.008,0,0.014,0l0,0C437.639,451.431,437.637,451.431,437.631,451.431 M457.945,448.853
			c-6.786,1.743-13.597,2.577-20.297,2.578C444.352,451.431,451.157,450.597,457.945,448.853 M458.432,448.726
			c-0.127,0.033-0.257,0.067-0.384,0.1C458.175,448.793,458.305,448.759,458.432,448.726 M458.544,448.697
			c-0.037,0.01-0.075,0.02-0.112,0.029C458.469,448.716,458.506,448.707,458.544,448.697 M458.646,448.669
			c-0.014,0.003-0.027,0.007-0.041,0.011C458.619,448.676,458.633,448.672,458.646,448.669"/>
		<path fill="#AD8BBF" d="M429.973,288.995c-4.255,0.412-8.531,1.149-12.797,2.26c-0.003,0-0.011,0.002-0.013,0.003
			c-0.026,0.007-0.052,0.013-0.077,0.02c-0.008,0.002-0.018,0.004-0.025,0.007c-0.031,0.008-0.062,0.016-0.094,0.024l0,0
			c-28.377,7.475-49.289,29.039-57.207,55.206c-2.269,7.499-3.471,15.378-3.475,23.409c-0.003,6.876,0.872,13.865,2.706,20.827l0,0
			c0.017,0.062,0.031,0.119,0.048,0.181c0.023,0.09,0.048,0.181,0.072,0.271c0.031,0.116,0.062,0.231,0.095,0.348
			c9.885,36.066,42.624,59.873,78.425,59.881c0.006,0,0.008,0,0.014,0h0.004c6.7-0.001,13.511-0.835,20.297-2.578
			c0.034-0.01,0.068-0.018,0.103-0.027c0.127-0.032,0.257-0.066,0.384-0.1l0,0l0,0c0.037-0.01,0.075-0.02,0.112-0.029
			c0.021-0.006,0.041-0.012,0.062-0.017c0.014-0.004,0.027-0.008,0.041-0.011c4.26-1.135,8.34-2.601,12.244-4.337
			c-2.605,0.252-5.205,0.375-7.786,0.375c-36.07,0-69.031-24.145-78.65-60.663C374.146,344.91,394.162,304.938,429.973,288.995"/>
		<path fill="#C5ABD3" d="M162.006,486.508h-0.004l0,0H162.006 M182.133,483.889L182.133,483.889
			c-0.028,0.007-0.054,0.014-0.082,0.021C182.079,483.903,182.104,483.896,182.133,483.889L182.133,483.889 M182.288,483.848
			c-0.015,0.004-0.029,0.008-0.044,0.012C182.258,483.856,182.275,483.851,182.288,483.848 M182.42,483.813
			c-0.023,0.006-0.048,0.013-0.071,0.019C182.371,483.826,182.396,483.819,182.42,483.813 M86.04,428.518
			c9.574,34.931,41.274,57.987,75.947,57.99C127.317,486.501,95.613,463.446,86.04,428.518 M85.945,428.169
			c0.021,0.079,0.043,0.16,0.064,0.239C85.988,428.33,85.967,428.249,85.945,428.169 M85.878,427.919
			c0.021,0.074,0.04,0.149,0.061,0.224C85.918,428.069,85.898,427.994,85.878,427.919 M162.104,328.825
			c-6.644,0.001-13.402,0.848-20.129,2.619c4.199-1.105,8.408-1.835,12.596-2.24c-34.68,15.438-54.063,54.147-44.08,92.047
			c9.315,35.366,41.236,58.748,76.169,58.748c2.499,0,5.015-0.119,7.538-0.363l0,0l0,0c-3.752,1.667-7.671,3.078-11.762,4.173
			c1.864-0.498,3.692-1.06,5.487-1.681c24.056-8.329,41.799-27.428,49.187-50.356c2.048-6.356,3.3-13.008,3.67-19.806
			c0.436-8.003-0.353-16.208-2.504-24.376c-0.709-2.69-1.548-5.31-2.509-7.856c-4.282-11.342-10.989-21.213-19.356-29.164l0,0
			C201.956,336.833,182.549,328.823,162.104,328.825"/>
		<path fill="#FFFFFF" d="M142.54,392.439c1.216,4.615,0.55,8.785-1.486,9.322c-2.036,0.536-4.668-2.767-5.883-7.381
			c-1.216-4.613-0.553-8.784,1.483-9.321C138.691,384.523,141.325,387.826,142.54,392.439z"/>
		<path fill="#FFFFFF" d="M177.118,383.721c1.215,4.612,0.55,8.786-1.487,9.323c-2.037,0.535-4.669-2.77-5.883-7.383
			c-1.217-4.613-0.555-8.784,1.483-9.32C173.269,375.805,175.901,379.107,177.118,383.721z"/>
		<path fill="#FFFFFF" d="M119.595,424.312c4.896,6.136,11.595,11.208,18.44,14.932c12.952,7.046,27.343,7.195,40.694,1.207
			c15.775-7.076,25.837-25.11,26.16-42.122c0.106-5.609-8.587-5.599-8.693,0c-0.256,13.481-8.239,27.524-20.73,34.069
			c-17.563,9.201-38.127,0.299-49.725-14.232C122.245,413.784,116.135,419.978,119.595,424.312z"/>
		<path d="M182.244,483.86c-0.038,0.01-0.073,0.019-0.111,0.029C182.17,483.879,182.207,483.87,182.244,483.86 M182.349,483.832
			c-0.021,0.006-0.04,0.011-0.061,0.017C182.309,483.842,182.328,483.837,182.349,483.832 M182.437,483.808
			c-0.005,0.002-0.012,0.003-0.017,0.005C182.426,483.811,182.431,483.81,182.437,483.808"/>
		<path fill="#DCB7A5" d="M177.623,484.939c-5.228,1.058-10.458,1.569-15.617,1.569
			C167.167,486.508,172.393,485.998,177.623,484.939L177.623,484.939"/>
		<path d="M182.051,483.911c-1.476,0.387-2.952,0.729-4.428,1.028l0,0C179.099,484.64,180.575,484.297,182.051,483.911"/>
		<path fill="#AD8BBF" d="M154.571,329.204c-4.188,0.405-8.396,1.135-12.596,2.24l0,0c-8.276,2.18-15.898,5.6-22.718,10.004
			c-3.309,2.138-6.425,4.504-9.339,7.077c-16.737,14.778-26.696,36.273-26.707,59.051c-0.003,6.658,0.844,13.427,2.62,20.169l0,0
			c0.016,0.059,0.03,0.115,0.046,0.175c0.021,0.074,0.04,0.149,0.061,0.224c0.002,0.008,0.005,0.019,0.007,0.026
			c0.021,0.079,0.043,0.16,0.064,0.239c0.011,0.038,0.02,0.07,0.03,0.109c9.573,34.928,41.277,57.983,75.947,57.99
			c0.005,0,0.01,0,0.015,0h0.004c5.159,0,10.39-0.512,15.617-1.569c1.476-0.299,2.952-0.642,4.428-1.028
			c0.028-0.008,0.054-0.015,0.082-0.021l0,0c0.038-0.011,0.073-0.02,0.111-0.029c0.015-0.004,0.029-0.008,0.044-0.012
			c0.021-0.006,0.04-0.011,0.061-0.017c0.023-0.006,0.048-0.013,0.071-0.019c0.005-0.002,0.012-0.003,0.017-0.005
			c4.091-1.095,8.01-2.506,11.762-4.173c-2.523,0.244-5.039,0.363-7.538,0.363c-34.933,0-66.854-23.382-76.169-58.748
			C100.508,383.351,119.892,344.642,154.571,329.204"/>
		<path d="M332.43,254.893c-3.042-4.156-5.343-7.733-7.962-11.304c-2.6-3.584-5.468-7.189-9.229-11.7
			c-1.243-1.553-3.373-4-7.373-9.41c-1.941-2.678-5.183-7.213-7.678-11.247c-1.279-1.996-2.359-3.87-3.187-5.207
			c-0.774-1.366-1.257-2.216-1.257-2.216s-0.399-0.714-1.055-1.884c-0.643-1.177-1.486-2.838-2.459-4.687
			c-0.914-1.877-1.947-3.951-2.872-5.996c-0.896-2.057-1.826-4.026-2.474-5.717c-0.841-2.071-1.605-3.943-2.197-5.664
			c-0.613-1.713-1.196-3.225-1.605-4.595c-0.438-1.361-0.816-2.542-1.142-3.554s-0.534-1.874-0.738-2.566
			c-0.409-1.4-0.796-2.725-1.166-3.991c-0.343-1.271-0.691-2.478-1.05-3.637c-0.183-0.578-0.362-1.146-0.54-1.705
			c-0.164-0.561-0.326-1.113-0.487-1.66c-0.331-1.089-0.677-2.147-1.04-3.191c-0.709-2.09-1.349-4.145-2.151-6.268
			c-0.733-2.134-1.499-4.363-2.338-6.801c-0.37,2.536-0.738,4.905-0.94,7.206c-0.14,2.292-0.289,4.541-0.211,6.83
			c0.046,1.143,0.115,2.302,0.211,3.493c0.054,0.597,0.107,1.199,0.162,1.811c0.077,0.609,0.177,1.225,0.275,1.854
			c0.202,1.257,0.435,2.56,0.703,3.923c0.282,1.36,0.67,2.762,1.063,4.249c0.207,0.731,0.423,1.641,0.759,2.709
			c0.338,1.067,0.732,2.313,1.187,3.748c0.43,1.444,1.035,3.036,1.679,4.838c0.621,1.812,1.421,3.779,2.303,5.955
			c0.677,1.779,1.648,3.845,2.595,6.001c0.974,2.143,2.061,4.312,3.027,6.273c1.023,1.932,1.916,3.666,2.594,4.893
			c0.691,1.219,1.112,1.964,1.112,1.964s0.5,0.891,1.303,2.322c0.854,1.4,1.976,3.363,3.303,5.449
			c2.59,4.218,5.956,8.952,7.999,11.725c4.174,5.627,6.398,8.165,7.709,9.767c3.963,4.654,7.493,7.937,11.128,10.702
			C324.035,250.35,327.776,252.639,332.43,254.893z"/>
	</g>
</g>
</svg>
