<?xml version="1.0" encoding="utf-8"?>
<!-- Generator: Adobe Illustrator 16.0.0, SVG Export Plug-In . SVG Version: 6.00 Build 0)  -->
<!DOCTYPE svg PUBLIC "-//W3C//DTD SVG 1.1//EN" "http://www.w3.org/Graphics/SVG/1.1/DTD/svg11.dtd">
<svg version="1.1" xmlns="http://www.w3.org/2000/svg" xmlns:xlink="http://www.w3.org/1999/xlink" x="0px" y="0px" width="640px"
	 height="640px" viewBox="0 0 640 640" enable-background="new 0 0 640 640" xml:space="preserve">
<g id="fond">
</g>
<g id="couleurs">
</g>
<g id="traits">
	<g>
		<path fill="#FFE4B7" d="M270.574,576.442c-0.35,1.098-0.635,1.96-0.834,2.549c5.913,0.14,12.361,0.235,18.949,0.235
			c12.295,0,25.074-0.333,35.74-1.333c-5.524,0.474-11.304,0.673-17.11,0.673C294.445,578.566,281.414,577.586,270.574,576.442
			 M245.08,573.075c-1.968,3.03-3.65,4.818-3.65,4.818s10.238,0.603,24.418,0.997L245.08,573.075 M192.606,408.07l-16.177,8.823
			l-16,14l-32,30l28,27l27,30l50-8c0,0,6,15,15,33c0.889,1.777,1.534,3.546,1.975,5.289c0.169-3.36-0.071-6.58-0.975-9.289l0,0
			c-8-16-17-33-17-33l0,0l-14.473-42.992c0.013,0.381-0.021,0.583-0.106,0.583c-0.196,0-0.661-1.096-1.421-3.591
			c-0.375-1.231-0.646-2.562-0.824-3.979l-12.732-37.823C199.777,413.006,196.317,409.223,192.606,408.07 M267.349,340.258
			c0.374,0,0.734-0.117,1.081-0.365c7-5,10-16,10-16l3-39l108,21l3,62l-23.839,7.063l35.348,154.075l4.491,17.861l0,0l2,4
			c0,0-0.178,0.202-0.524,0.581L438.43,640h-203h4l2-62.107l0,0l0,0c0,0-12,0-20,1c-0.228,0.028-0.466,0.042-0.717,0.042
			c-8.577,0-30.482-16.27-37.283-24.042c-7-8-107-79-112.992-85.658s9.992-29.342,27.992-52.342s40-44,40-44
			c1.162-1.162,2.453-1.686,3.841-1.686c1.369,0,2.832,0.511,4.351,1.425l-3.191-4.739c0,0,28-32,53-48s52-23,52-23
			S260.174,340.258,267.349,340.258 M166.43,43.893l18-4c0,0,2.38-0.265,6.275-0.264c6.816,0,18.271,0.81,29.725,5.264
			c18,7,13,8,18,27c-38,9-44,60-44,60l4,48c0,0-8,3-13,6c-4.456,2.673-6.529,18.847,0.148,33.659
			c9.265,8.057,17.852,14.341,17.852,14.341l22,6l0,0c0,0,7,5,15,11s7,23,7,23s-1.875-0.395-5.133-1.195
			c-2.046,1.913-4.867,2.195-4.867,2.195s-56-17-74-35s-39-52-39-52s5.199-8.838,11.09-16.972
			c5.831-11.862,13.783-31.034,17.91-54.028c7-39-69-66-69-66c-0.467-6.533,10.609-8.276,22.556-8.276
			c13.653,0,28.444,2.276,28.444,2.276l15-5L166.43,43.893 M640,0H0v640h640V0"/>
		<path fill="#CABEC3" d="M640,333.618c0,0-57.911,23.685-70.58,23.134c-12.668-0.551-38.556-11.016-53.978-18.177
			c-15.423-7.16-28.091-22.582-34.149-17.074c-6.06,5.508,40.759,38.556,36.352,45.166c-4.406,6.609-112.678,20.367-112.362,29.191
			c0.551,15.423,76.561-11.016,80.968-4.957c4.406,6.059-29.743,18.177-45.166,23.685c-15.422,5.508-39.657,13.219-34.7,22.032
			c4.958,8.812,53.979-12.118,63.893-14.32c9.914-2.204,14.871-8.263,18.176-4.407s-70.501,36.904-64.442,49.021
			c6.058,12.117,66.095-30.846,72.705-32.498c6.609-1.652,7.161,0.552,6.609,3.306c-0.551,2.754-55.631,34.7-50.122,41.86
			c5.508,7.16,55.079-28.642,68.299-39.106s49.571-43.514,61.689-47.368c12.117-3.856,56.81-16.524,56.81-16.524V333.618z"/>
		<path fill="#CABEC3" d="M640,407.425l-77.189,45.717c0,0-104.101,39.656-101.347,50.122c2.754,10.465,63.342-23.685,67.748-18.177
			c4.406,5.509-78.214,39.658-72.154,50.674c6.059,11.017,70.502-33.599,73.807-25.888c3.306,7.711-72.705,40.209-63.893,52.326
			c8.813,12.117,66.646-40.759,72.706-33.048c6.059,7.711-51.226,41.31-41.861,50.674c9.364,9.363,89.78-73.808,96.391-67.198
			c6.609,6.609-7.161,53.979,7.16,53.428c14.32-0.551,7.711-77.111,15.973-87.026c8.263-9.914,22.66-20.38,22.66-20.38V407.425z"/>
		<path fill="#B4A2AB" d="M249.43,538.893L249.43,538.893c0.903,2.709,1.144,5.929,0.975,9.289c0.979,3.874,0.949,7.624,0.343,11.08
			C252.416,553.192,252.91,545.853,249.43,538.893L249.43,538.893 M202.873,418.091l12.732,37.823
			c-0.223-1.769-0.301-3.674-0.252-5.683c-1.162-4.422-2.686-9.53-4.513-14.639C208.605,429.34,205.914,423.087,202.873,418.091
			 M281.43,284.893l-3,39c0,0-3,11-10,16c-0.347,0.248-0.707,0.365-1.081,0.365c-7.175,0-18.919-43.365-18.919-43.365s-27,7-52,23
			s-53,48-53,48l3.191,4.739c12.847,7.729,29.809,44.261,29.809,44.261l0,0l16.177-8.823c-0.773-0.241-1.558-0.367-2.352-0.367
			c-0.875,0-1.761,0.153-2.659,0.476c-3.204,2.276-5.166,3.715-5.166,3.715c1.755-1.907,3.479-3.109,5.166-3.715
			c12.144-8.627,42.131-29.285,50.834-29.285l0,0l0,0c0,0-22.442,44.882-23.076,71.339c1.628,6.197,2.549,11.049,2.604,12.669
			l14.473,42.992l0,0l0,0l-3-22c4,2,36,7,46,29c8.329,18.323-1.379,52.604-4.855,63.549c10.84,1.145,23.871,2.124,36.745,2.124
			c5.807,0,11.586-0.199,17.11-0.673l0,0c8.395-0.787,18.165-3.294,28.013-6.565c25.143-10.198,55.987-24.435,55.987-24.435l0,0
			l-4.491-17.861l2.491,10.861l-18,15c0,0,0-38-17-90s-40-92-40-92l36-3l1.161,5.063l23.839-7.063l-3-62L281.43,284.893"/>
		<path fill="#DED3D3" d="M225.43,239.893c0,0,14,12,18,23c1.875,5.157,0.674,8.116-1.133,9.805
			c3.258,0.801,5.133,1.195,5.133,1.195s1-17-7-23S225.43,239.893,225.43,239.893 M190.705,39.629c-3.896,0-6.275,0.264-6.275,0.264
			l-18,4l-16-4l-15,5c0,0-14.791-2.276-28.444-2.276c-11.946,0-23.022,1.743-22.556,8.276c0,0,76,27,69,66
			c-4.127,22.994-12.079,42.166-17.91,54.028c5.022-6.933,10.548-13.354,13.786-13.355c0.415,0,0.79,0.104,1.124,0.327
			c0,0,4,29,21,48c4.118,4.603,9.229,9.38,14.148,13.659c-6.678-14.812-4.604-30.985-0.148-33.659c5-3,13-6,13-6l-4-48
			c0,0,6-51,44-60c-5-19,0-20-18-27C208.977,40.439,197.521,39.629,190.705,39.629"/>
		<path fill="#DED3D3" d="M409.905,551.474c-4.65,5.09-39.731,42.181-83.476,52.419c-12.61,2.951-24.283,4.031-34.616,4.031
			c-28.179,0-46.384-8.031-46.384-8.031l-4-22l0,0l-2,62.107h-4h203L409.905,551.474 M408.43,546.893
			c0,0-30.845,14.236-55.987,24.435C380.133,562.129,408.43,546.893,408.43,546.893"/>
		<path fill="#FFFFFF" d="M389.43,305.893l71-17c0,0-1-68-4-79s-21-28-21-28s-46,2-44-11s19-8,26-9s22-2,22-2s10-50,20-48s10,2,10,2
			s13-10,17-7s14-1,16,3s3,8,3,8s9-8,12-1s1,31,1,31l-8,13c0,0,8,22-2,29s-13,14-13,14s19,104,17,111s-20,18-20,18l-100,35
			L389.43,305.893z"/>
		<path fill="#FFFFFF" d="M142.271,371.208c-1.388,0-2.679,0.523-3.841,1.686c0,0-22,21-40,44s-33.984,45.684-27.992,52.342
			s105.992,77.658,112.992,85.658c6.801,7.772,28.706,24.042,37.283,24.042c0.251,0,0.489-0.014,0.717-0.042c8-1,20-1,20-1l0,0l0,0
			c0,0,1.683-1.788,3.65-4.818l-0.65-0.182c0,0,4.15-5.746,6.317-13.631c0.606-3.456,0.637-7.206-0.343-11.08
			c-0.44-1.743-1.086-3.512-1.975-5.289c-9-18-15-33-15-33l-50,8l-27-30l-28-27l32-30l16-14c0,0-16.962-36.531-29.809-44.261
			C145.103,371.718,143.64,371.208,142.271,371.208"/>
		<path fill="#D0B193" d="M245.12,573.012c-0.014,0.021-0.026,0.042-0.04,0.062l20.768,5.815c1.268,0.035,2.566,0.069,3.893,0.101
			c0.199-0.589,0.484-1.451,0.834-2.549C257.579,575.069,247.741,573.458,245.12,573.012 M232.43,505.893c0,0,9,17,17,33
			C245.43,526.893,232.43,505.893,232.43,505.893"/>
		<path fill="#957E89" d="M229.43,483.893l3,22l0,0c0,0,13,21,17,33l0,0c3.48,6.96,2.986,14.299,1.317,20.369
			c-0.98,5.591-3.468,10.413-5.627,13.75c2.621,0.445,12.459,2.057,25.454,3.43c3.477-10.945,13.185-45.226,4.855-63.549
			C265.43,490.893,233.43,485.893,229.43,483.893"/>
		<path fill="#D0C5CC" d="M250.747,559.262c-2.167,7.885-6.317,13.631-6.317,13.631l0.65,0.182c0.014-0.021,0.026-0.041,0.04-0.062
			C247.279,569.675,249.767,564.853,250.747,559.262"/>
		<path fill="#D0B193" d="M198.43,404.893l-5.823,3.177c3.711,1.153,7.171,4.937,10.267,10.021L198.43,404.893"/>
		<path fill="#957E89" d="M187.596,408.178c-1.688,0.605-3.411,1.808-5.166,3.715C182.43,411.893,184.392,410.455,187.596,408.178
			 M238.43,378.893c-8.703,0-38.69,20.658-50.834,29.285c0.898-0.322,1.784-0.476,2.659-0.476c0.794,0,1.578,0.126,2.352,0.367
			l5.823-3.177l4.443,13.198c3.041,4.996,5.732,11.249,7.968,17.502c1.827,5.108,3.351,10.217,4.513,14.639
			C215.987,423.775,238.43,378.893,238.43,378.893"/>
		<path fill="#D0B193" d="M215.605,455.915c0.178,1.417,0.449,2.747,0.824,3.979c0.76,2.495,1.225,3.591,1.421,3.591
			c0.085,0,0.119-0.202,0.106-0.583L215.605,455.915"/>
		<path fill="#957E89" d="M215.354,450.232c-0.049,2.009,0.029,3.914,0.252,5.683l2.352,6.986
			C217.902,461.281,216.981,456.429,215.354,450.232"/>
		<polyline fill="#D0B193" points="368.591,374.957 365.43,375.893 403.938,529.032 368.591,374.957 		"/>
		<path fill="#957E89" d="M367.43,369.893l-36,3c0,0,23,40,40,92s17,90,17,90l18-15l-2.491-10.861L365.43,375.893l3.161-0.937
			L367.43,369.893"/>
		<path fill="#DDBD97" d="M347.979,573.119c-8.079,2.379-16.128,4.139-23.549,4.774l0,0c-10.666,1-23.445,1.333-35.74,1.333
			c-6.588,0-13.036-0.096-18.949-0.235c-0.199,0.589-0.311,0.902-0.311,0.902l-3.582-1.003c-14.18-0.395-24.418-0.997-24.418-0.997
			l0,0c0,0,32.113,4.313,59.837,4.313c12.324,0,23.777-0.852,31.163-3.313C336.834,577.424,342.183,575.417,347.979,573.119
			 M408.43,546.893L408.43,546.893L408.43,546.893l1.476,4.581c0.347-0.379,0.524-0.581,0.524-0.581L408.43,546.893"/>
		<path fill="#9E878F" d="M352.442,571.328c-9.848,3.271-19.618,5.778-28.013,6.565l0,0l0,0c7.421-0.636,15.47-2.396,23.549-4.774
			C349.44,572.54,350.932,571.94,352.442,571.328 M408.43,546.893L408.43,546.893L408.43,546.893"/>
		<path fill="#C1B0AF" d="M408.43,546.893L408.43,546.893L408.43,546.893c0,0-28.297,15.236-55.987,24.435
			c-1.511,0.612-3.002,1.212-4.464,1.791c-5.796,2.299-11.145,4.306-15.549,5.774c-7.386,2.462-18.839,3.313-31.163,3.313
			c-27.724,0-59.837-4.313-59.837-4.313l4,22c0,0,18.205,8.031,46.384,8.031c10.333,0,22.006-1.08,34.616-4.031
			c43.744-10.238,78.825-47.329,83.476-52.419L408.43,546.893"/>
		<path fill="#B59379" d="M265.848,578.89l3.582,1.003c0,0,0.111-0.313,0.311-0.902C268.414,578.959,267.115,578.925,265.848,578.89
			"/>
		<path fill="#DDBD97" d="M185.578,219.552c0.816,1.81,1.763,3.599,2.852,5.341c8.89,14.223,31.211,15.012,36.061,15.012
			c0.605,0,0.939-0.012,0.939-0.012l0,0l0,0l-22-6C203.43,233.893,194.843,227.608,185.578,219.552 M135.52,170.921
			c-5.891,8.134-11.09,16.972-11.09,16.972s21,34,39,52s74,35,74,35s2.821-0.282,4.867-2.195
			c-11.405-2.803-39.754-10.582-63.867-23.805c-31-17-50-65-50-65S131.461,179.178,135.52,170.921"/>
		<path fill="#C1B0AF" d="M149.306,157.566c-3.238,0.001-8.764,6.422-13.786,13.355c-4.059,8.257-7.09,12.972-7.09,12.972
			s19,48,50,65c24.113,13.223,52.462,21.001,63.867,23.805c1.807-1.688,3.008-4.647,1.133-9.805c-4-11-18-23-18-23l0,0
			c0,0-0.334,0.012-0.939,0.012c-4.85,0-27.171-0.79-36.061-15.012c-1.089-1.742-2.035-3.531-2.852-5.341
			c-4.92-4.278-10.03-9.056-14.148-13.659c-17-19-21-48-21-48C150.096,157.67,149.721,157.566,149.306,157.566"/>
		<path fill="#FFFFFF" d="M656.924,106.23c0,0-33.913-4.06-46.935-13.293c-13.02-9.234-31.854-87.6-40.585-86.394
			s9.643,60.773,7.589,62.658s-2.054,1.885-2.054,1.885l-3.835-0.716c0,0-19.575-25.768-26.985-40.759s-10.157-24.578-18.75-21.078
			c-12.313,5.017,29.778,62.262,30.26,65.754c0.483,3.493-2.666,5.174-3.967,6.065c-1.3,0.892-49.264-64.197-58.877-55.217
			c-6.363,5.943,46.896,58.651,49.57,62.553c2.674,3.901-1.534,8.22-1.534,8.22s-59.345-40.56-62.932-30.455
			s56.847,41.795,64.146,48.261s14.877,17.52,15.052,22.655c0.176,5.137-31.465,44.03-24.37,51.592
			c7.095,7.561,34.001-42.423,49.512-43.498c15.511-1.076,60.052,7.235,65.083,13.278L656.924,106.23z"/>
		<path fill="#DED3D3" d="M121.134,313.518c0,0,3.336,25.021-10.564,31.137s-45.594,2.78-49.485-2.224c-3.893-5.004,0-11.12,0-11.12
			s26.134,0.187,18.72-5.745c-7.414-5.931-25.206-22.241-25.206-22.241s21.5-21.5,42.998-13.345
			C119.095,298.135,121.134,313.518,121.134,313.518z"/>
		<path d="M135.321,42.763c2.958,1.527,4.923,3.12,6.82,4.091c0.951,0.52,1.839,0.866,2.8,1.141c0.477,0.131,0.953,0.199,1.459,0.26
			c0.51,0.074,1.037,0.105,1.592,0.092c1.197-0.041,3.642-0.009,6.653,0.263c3.012,0.357,6.597,0.904,9.991,1.891
			c0.849,0.238,1.694,0.431,2.509,0.691c0.812,0.275,1.604,0.543,2.366,0.801c0.76,0.263,1.496,0.485,2.179,0.746
			c0.68,0.278,1.317,0.539,1.903,0.779c1.174,0.476,2.139,0.868,2.811,1.14c0.66,0.317,1.031,0.496,1.031,0.496
			s1.481,0.726,3.777,1.851c2.25,1.229,5.402,2.886,8.394,4.848c1.575,0.922,2.969,2.022,4.418,3.018
			c0.744,0.488,1.328,1.055,1.979,1.555c0.612,0.521,1.293,0.989,1.797,1.498c1.054,0.998,2.066,1.883,2.722,2.672
			c0.356,0.384,0.679,0.731,0.96,1.033c0.237,0.304,0.44,0.564,0.603,0.772c1.264,1.521,2.432,2.264,4.138,2.983
			c0.864,0.372,1.806,0.737,2.876,1.287c0.261,0.137,0.535,0.289,0.822,0.458c0.275,0.166,0.538,0.342,0.826,0.551
			c0.566,0.42,1.132,0.891,1.622,1.578c1.481-0.807,2.604-2.199,3.359-3.549c0.77-1.383,1.235-2.87,1.392-4.316
			c0.044-0.369,0.073-0.742,0.088-1.12c0-0.356-0.019-0.709-0.05-1.071c-0.068-0.709-0.17-1.482-0.378-2.182
			c-0.424-1.379-1.069-2.858-2.067-4.143c-0.268-0.36-0.602-0.811-0.994-1.339c-0.408-0.489-0.891-1.02-1.424-1.619
			c-1.05-1.249-2.396-2.478-3.872-3.864c-0.731-0.717-1.544-1.299-2.358-1.985c-0.824-0.644-1.651-1.397-2.535-1.986
			c-1.758-1.224-3.545-2.583-5.358-3.646c-3.588-2.32-7.086-4.132-9.697-5.527c-2.679-1.287-4.407-2.117-4.407-2.117
			s-0.431-0.21-1.195-0.583c-0.792-0.331-1.929-0.805-3.311-1.382c-0.692-0.287-1.445-0.599-2.248-0.931
			c-0.811-0.316-1.7-0.599-2.612-0.921c-0.916-0.314-1.87-0.641-2.848-0.976c-0.986-0.318-2.03-0.574-3.069-0.868
			c-4.145-1.209-8.69-1.949-12.578-2.376c-3.915-0.35-7.187-0.342-8.831-0.215c-0.759,0.052-1.474,0.144-2.149,0.276
			c-0.678,0.145-1.322,0.368-1.929,0.606c-1.21,0.462-2.296,1.18-3.271,2.019C138.098,37.17,136.437,39.573,135.321,42.763z"/>
		<path d="M171.143,42.763c1.616,0.378,2.949,0.958,4.136,1.448c1.181,0.496,2.225,0.978,3.176,1.316
			c1.948,0.75,3.585,1.032,5.642,0.775c2.161-0.375,9.241-0.663,15.927,1.289c0.829,0.232,1.654,0.406,2.452,0.668
			c0.797,0.271,1.575,0.534,2.322,0.788c1.546,0.458,2.736,1.081,3.836,1.524c0.541,0.231,1.034,0.441,1.469,0.627
			c0.421,0.229,0.786,0.429,1.085,0.592c0.601,0.324,0.938,0.507,0.938,0.507s0.337,0.185,0.936,0.513
			c0.613,0.292,1.425,0.879,2.435,1.541c0.504,0.332,1.053,0.694,1.638,1.079c0.562,0.432,1.157,0.89,1.779,1.368
			c0.613,0.491,1.283,0.949,1.918,1.51c0.636,0.559,1.287,1.133,1.946,1.713c5.303,4.644,10.094,10.995,11.65,13.086
			c0.74,0.961,1.508,1.742,2.352,2.393c0.863,0.64,1.783,1.155,2.832,1.585c2.099,0.87,4.66,1.372,7.903,2.173
			c1.246-3.121,1.93-5.806,1.975-8.264c0.02-1.232-0.119-2.426-0.483-3.588c-0.346-1.176-0.902-2.335-1.715-3.503
			c-1.72-2.545-7.306-9.986-13.869-15.715c-0.82-0.713-1.631-1.418-2.421-2.106c-0.793-0.686-1.645-1.283-2.422-1.892
			c-0.791-0.597-1.539-1.181-2.267-1.707c-0.757-0.496-1.467-0.961-2.12-1.388c-1.311-0.847-2.366-1.57-3.184-1.973
			c-0.793-0.431-1.24-0.674-1.24-0.674s-0.445-0.245-1.236-0.68c-0.396-0.216-0.879-0.479-1.436-0.783
			c-0.585-0.261-1.247-0.556-1.975-0.88c-1.455-0.618-3.187-1.467-5.044-2.042c-0.933-0.32-1.903-0.653-2.898-0.995
			c-1.001-0.331-2.075-0.582-3.138-0.879c-2.107-0.631-4.396-0.993-6.577-1.422c-2.243-0.272-4.407-0.58-6.464-0.608
			c-2.027-0.141-3.93,0.011-5.5,0.053c-1.591,0.171-2.868,0.292-3.721,0.444c-3.154,0.54-5.508,1.942-7.26,3.953
			c-0.873,1.047-1.603,2.215-2.183,3.583C171.768,39.552,171.298,41.076,171.143,42.763z"/>
		<path d="M215.073,125.218c2.238,1.737,3.862,2.622,6.578,2.449c1.473-0.093,5.89-0.506,9.96-1.449
			c2.035-0.465,3.982-1.06,5.42-1.635c1.438-0.578,2.361-1.088,2.361-1.088s0.23-0.127,0.641-0.352
			c0.408-0.249,0.997-0.589,1.692-1.136c0.694-0.541,1.501-1.245,2.252-2.334l0.281-0.413l0.265-0.503
			c0.086-0.178,0.173-0.328,0.251-0.536c0.076-0.219,0.146-0.442,0.21-0.669c0.148-0.444,0.164-0.94,0.2-1.421
			c-0.034-0.481-0.052-0.98-0.217-1.447c-0.127-0.479-0.343-0.927-0.595-1.36c-0.246-0.403-0.521-0.747-0.795-1.049
			c-0.544-0.573-1.109-1.031-1.645-1.372c-1.081-0.712-2.1-1.161-3.024-1.53c-1.848-0.724-3.329-1.068-4.075-1.253
			c-2.748-0.612-4.502,0.079-6.919,1.554c1.966,2.032,3.185,3.203,5.584,3.819c0.636,0.177,1.955,0.505,3.362,1.065
			c0.698,0.276,1.426,0.618,1.982,0.988c0.297,0.18,0.494,0.372,0.642,0.514l0.114,0.131l-0.001-0.005
			c-0.015,0.014,0.082-0.13-0.208,0.346c-0.253,0.389-0.679,0.796-1.08,1.103c-0.395,0.319-0.798,0.555-1.066,0.723
			c-0.287,0.16-0.449,0.25-0.449,0.25s-0.651,0.358-1.795,0.814c-1.147,0.453-2.812,0.958-4.625,1.367
			c-3.629,0.833-7.806,1.235-9.185,1.364C218.633,122.396,217.255,123.419,215.073,125.218z"/>
		<path d="M241.432,98.184c1.147,1.94,2.121,2.995,3.9,3.11c0.968,0.049,3.877,0.139,6.661-0.36
			c0.696-0.128,1.375-0.253,2.016-0.449c0.635-0.154,1.225-0.369,1.728-0.573c0.249-0.099,0.477-0.188,0.678-0.268
			c0.201-0.105,0.376-0.196,0.52-0.271c0.285-0.153,0.445-0.239,0.445-0.239s0.161-0.086,0.446-0.239
			c0.281-0.172,0.681-0.477,1.159-0.833c0.488-0.328,0.976-0.948,1.519-1.532c0.473-0.633,0.97-1.386,1.304-2.448
			c0.345-1.052,0.366-2.467-0.08-3.617c-0.436-1.179-1.135-1.946-1.736-2.514c-1.234-1.105-2.244-1.54-2.743-1.789
			c-1.849-0.805-3.235-0.191-5.001,1.208c0.949,2.037,1.402,3.187,2.59,3.776c0.302,0.156,0.959,0.511,1.366,0.896
			c0.198,0.182,0.311,0.356,0.292,0.354c-0.013,0.014,0.014-0.065-0.019,0.071c-0.034,0.131-0.193,0.427-0.393,0.691
			c-0.116,0.109-0.22,0.219-0.312,0.327c-0.085,0.112-0.178,0.216-0.307,0.289c-0.231,0.159-0.395,0.312-0.54,0.403
			c-0.159,0.083-0.249,0.129-0.249,0.129s-0.09,0.046-0.249,0.129c-0.079,0.043-0.175,0.095-0.286,0.155
			c-0.128,0.047-0.274,0.101-0.435,0.16c-0.312,0.125-0.692,0.267-1.156,0.372c-0.438,0.137-0.958,0.225-1.488,0.321
			c-2.137,0.384-4.699,0.324-5.531,0.32C243.969,95.739,243.051,96.619,241.432,98.184z"/>
		<path d="M296.177,69.797c5.109,1.146,9.248,2.294,13.557,3.348c4.305,1.063,8.771,2.112,14.399,3.549
			c1.512,0.428,3.797,1.03,6.545,2.003c1.389,0.448,2.854,1.08,4.446,1.695c0.722,0.323,1.455,0.651,2.2,0.985
			c0.809,0.339,1.59,0.754,2.389,1.162c1.62,0.782,3.192,1.732,4.812,2.685c3.196,1.987,6.291,4.33,9.198,7.128
			c0.712,0.711,1.512,1.364,2.168,2.134c0.684,0.75,1.371,1.504,2.062,2.262c1.267,1.592,2.577,3.187,3.647,4.932
			c2.222,3.441,3.935,7.213,4.924,11.182c1,3.966,1.278,8.113,0.936,12.222c-0.685,8.249-3.728,16.201-7.243,23.181
			c-3.573,6.993-7.611,13.124-11.185,18.25c-3.593,5.12-6.737,9.252-8.92,12.144c-2.2,2.892-3.44,4.521-3.44,4.521
			s-0.742,0.976-2.092,2.75c-1.356,1.757-3.266,4.302-5.73,7.431c-4.881,6.289-11.914,14.837-19.701,24.698
			c-3.875,4.946-7.934,10.223-11.765,15.936c-0.945,1.443-1.922,2.861-2.808,4.383l-1.358,2.252
			c-0.441,0.764-0.849,1.561-1.273,2.341c-1.714,3.106-3.154,6.481-4.264,10.034c-0.231,0.917-0.464,1.832-0.694,2.745
			c-0.124,0.478-0.202,0.87-0.289,1.277l-0.258,1.219c-0.345,1.623-0.687,3.237-1.025,4.837c-0.679,3.201-1.346,6.35-1.997,9.419
			c-1.3,6.14-2.532,11.963-3.653,17.255c-1.91,9.082-3.093,14.703-3.71,17.639c-2.456,11.888-2.545,18.902-2.181,29.37
			c4.572-9.396,7.341-15.866,9.923-27.756c0.628-2.941,1.829-8.572,3.771-17.669c1.124-5.304,2.362-11.141,3.667-17.295
			c0.651-3.077,1.32-6.233,2-9.442c0.339-1.604,0.682-3.222,1.026-4.849l0.259-1.222c0.086-0.408,0.171-0.833,0.266-1.162
			l0.538-2.123c0.897-2.842,2.094-5.729,3.649-8.538c0.383-0.703,0.742-1.413,1.145-2.11l1.256-2.08
			c0.807-1.395,1.738-2.746,2.626-4.104c3.623-5.411,7.583-10.575,11.398-15.45c7.671-9.728,14.765-18.366,19.692-24.727
			c2.485-3.16,4.441-5.772,5.799-7.533c1.338-1.763,2.074-2.732,2.074-2.732s1.244-1.632,3.453-4.529
			c2.203-2.914,5.396-7.101,9.109-12.381c3.692-5.292,7.924-11.681,11.775-19.206c1.91-3.769,3.694-7.839,5.146-12.204
			c1.444-4.361,2.542-9.038,2.944-13.917c0.411-4.87,0.086-9.942-1.141-14.809c-1.211-4.872-3.314-9.481-5.953-13.563
			c-1.283-2.077-2.795-3.937-4.277-5.783c-0.792-0.87-1.58-1.735-2.363-2.595c-0.764-0.883-1.644-1.613-2.453-2.417
			c-3.285-3.16-6.885-5.885-10.478-8.112c-1.821-1.078-3.6-2.142-5.405-3.017c-0.895-0.456-1.771-0.916-2.667-1.294
			c-0.829-0.37-1.646-0.733-2.448-1.091c-1.76-0.682-3.389-1.372-4.915-1.863c-3.03-1.061-5.529-1.708-7.188-2.157
			c-6.159-1.51-11.142-1.904-15.817-1.667C305.609,67.616,301.219,68.417,296.177,69.797z"/>
		<path d="M252.246,79.26c2.092,1.927,3.279,2.92,4.705,2.514c0.769-0.214,3.021-1.016,5.108-1.682
			c2.098-0.635,4.004-1.212,4.004-1.212s0.479-0.138,1.22-0.353c0.744-0.199,1.741-0.542,2.802-0.779
			c2.118-0.486,4.426-1.027,5.188-1.24c1.406-0.393,1.918-1.918,2.656-4.684c-1.704-2.193-2.852-3.329-4.37-3.037
			c-0.822,0.158-3.272,0.732-5.515,1.269c-1.124,0.262-2.15,0.626-2.928,0.846c-0.771,0.234-1.27,0.386-1.27,0.386
			s-1.998,0.581-4.196,1.219c-2.186,0.679-4.538,1.516-5.316,1.804C252.907,74.847,252.514,76.476,252.246,79.26z"/>
		<path d="M274.551,92.776c2.974-3.079,4.658-5.184,5.334-9.244c0.364-2.197,1.389-8.815,2.478-14.819
			c0.539-3.004,1.104-5.843,1.55-7.915c0.231-1.027,0.422-1.873,0.555-2.461c0.145-0.573,0.226-0.896,0.226-0.896
			s0.085-0.321,0.234-0.891c0.077-0.279,0.16-0.644,0.275-1.02c0.048-0.149,0.098-0.309,0.151-0.477l-0.004,0.015l-0.024,0.028
			l-0.005-0.004c0,0-0.053-0.07,0.203,0.292c0.366,0.527,0.718,1.105,1.057,1.686c0.674,1.173,1.269,2.397,1.77,3.542
			c1.01,2.293,1.639,4.268,1.94,5.24c0.559,1.805,1.207,3.135,2.075,4.411c0.855,1.288,1.959,2.479,3.137,4.268
			c1.352-1.666,2.188-3.382,2.602-5.13c0.404-1.761,0.376-3.609-0.226-5.776c-0.327-1.175-1.046-3.492-2.234-6.209
			c-0.594-1.36-1.299-2.822-2.154-4.31c-0.435-0.744-0.893-1.496-1.416-2.248c-0.187-0.281-0.7-0.987-1.203-1.562
			c-0.476-0.625-1.022-1.132-1.56-1.648c-1.104-0.958-2.277-1.668-3.467-1.946c-1.167-0.307-2.462-0.187-3.536,0.274l-0.397,0.167
			l-0.354,0.221c-0.238,0.14-0.466,0.29-0.658,0.48c-0.194,0.19-0.42,0.321-0.58,0.554c-0.151,0.248-0.302,0.493-0.449,0.734
			c-0.583,0.972-1.194,1.801-1.489,2.908c-0.181,0.51-0.354,0.997-0.517,1.459c-0.1,0.272-0.124,0.364-0.163,0.49
			c-0.038,0.123-0.074,0.243-0.11,0.359c-0.138,0.461-0.221,0.837-0.308,1.158c-0.163,0.635-0.255,0.993-0.255,0.993
			s-0.092,0.356-0.254,0.99c-0.145,0.625-0.353,1.523-0.604,2.616c-0.479,2.177-1.077,5.114-1.636,8.183
			c-1.13,6.138-2.163,12.825-2.467,15.059C271.505,86.465,272.52,89.007,274.551,92.776z"/>
		<path d="M286.716,132.653c0.316,1.808,0.846,3.46,1.542,5.005c0.704,1.543,1.585,2.998,2.793,4.326
			c1.195,1.327,2.748,2.542,4.766,3.36c1.007,0.409,2.133,0.673,3.329,0.801c1.2,0.116,2.46,0.032,3.739-0.203
			c0.848-0.194,1.984-0.449,3.447-1.104c0.759-0.303,1.486-0.745,2.416-1.216c0.46-0.236,0.905-0.561,1.408-0.871
			c0.501-0.315,1.033-0.656,1.555-1.078c1.315-0.907,3.271-2.719,4.775-4.38c1.473-1.687,2.52-3.185,2.52-3.185
			c0.001,0,0.246-0.298,0.587-0.819c0.337-0.523,0.844-1.232,1.341-2.062c1.012-1.652,2.112-3.722,2.793-5.235
			c2.823-6.208,3.788-10.27,4.376-12.352c1.103-4.247,1.474-7.671,1.514-10.919c0.014-3.249-0.294-6.344-0.997-9.944
			c-1.062,3.498-2.102,6.333-3.019,9.329c-0.941,2.989-1.772,6.133-2.849,10.111c-0.566,1.943-1.503,5.778-4.077,11.419
			c-0.626,1.373-1.606,3.231-2.49,4.697c-0.436,0.738-0.873,1.355-1.164,1.82c-0.294,0.462-0.504,0.716-0.504,0.716
			c-0.001,0-0.925,1.292-2.18,2.715c-1.282,1.389-2.898,2.886-3.955,3.626c-0.423,0.35-0.853,0.621-1.255,0.874
			c-0.405,0.248-0.762,0.52-1.129,0.705c-0.728,0.361-1.361,0.756-1.884,0.957c-1.05,0.479-1.78,0.628-2.329,0.77
			c-3.219,0.656-5.672-0.214-8.105-1.628c-1.205-0.712-2.363-1.586-3.521-2.604C289.003,135.261,287.837,134.095,286.716,132.653z"
			/>
		<path d="M192.429,125.893c-4.841,4.772-7.266,8.267-6.8,13.782c0.249,2.998,1.355,11.95,2.938,20.107
			c1.504,8.165,3.526,15.532,3.526,15.532s0.46,1.848,1.286,4.702c0.827,2.854,2.017,6.715,3.543,10.725
			c1.513,4.01,3.295,8.179,5.152,11.643c0.887,1.739,1.832,3.293,2.594,4.596c0.84,1.282,1.518,2.315,1.969,3.003
			c0.935,1.237,1.884,2.249,2.945,3.041c1.106,0.775,2.244,1.361,3.483,1.767c1.289,0.379,2.642,0.593,4.07,0.669
			c1.487,0.03,3.063-0.098,4.695-0.35c-0.065-1.731-0.065-3.205-0.081-4.507c0.029-1.364,0.024-2.546-0.082-3.602
			c-0.075-1.103-0.233-2.117-0.563-3.047c-0.305-0.969-0.733-1.931-1.391-2.87c-0.336-0.541-0.84-1.353-1.465-2.36
			c-0.31-0.509-0.621-1.102-0.973-1.715c-0.349-0.618-0.731-1.267-1.082-1.998c-1.508-2.821-3.045-6.395-4.385-9.899
			c-1.353-3.5-2.448-6.975-3.217-9.557c-0.769-2.584-1.207-4.28-1.207-4.28s-1.796-6.763-3.176-14.427
			c-1.451-7.643-2.499-16.113-2.86-18.921C200.673,132.723,197.678,130.121,192.429,125.893z"/>
		<path d="M202.907,186.722c-1.5-2.148-3.357-3.911-5.633-5.145c-2.249-1.227-5.144-1.837-8.067-1.134
			c-2.933,0.669-5.494,2.552-7.43,4.824c-0.996,1.143-1.835,2.408-2.604,3.764c-0.361,0.699-0.747,1.329-1.082,2.191
			c-0.168,0.412-0.339,0.829-0.512,1.251c-0.144,0.431-0.263,0.875-0.393,1.323c-0.193,0.606-0.339,1.316-0.476,2.171
			c-0.184,0.855-0.222,1.846-0.315,3.022c-0.048,2.329,0.143,5.397,1.265,9.156c0.568,2.15,1.958,5.557,3.463,8.229
			c0.383,0.663,0.749,1.297,1.082,1.875c0.357,0.561,0.68,1.066,0.95,1.493c0.546,0.85,0.92,1.35,0.92,1.35s1.163,1.751,2.861,3.807
			c1.678,2.073,3.916,4.421,5.627,5.98c7.364,6.725,13.409,9.245,16.608,10.331c1.621,0.568,3.26,0.918,4.844,1.158
			c0.802,0.078,1.614,0.162,2.361,0.175c0.73-0.02,1.447-0.038,2.151-0.057c0.349-0.015,0.695-0.03,1.039-0.045
			c0.346-0.026,0.704-0.096,1.049-0.145c0.694-0.109,1.372-0.225,2.034-0.348c0.675-0.17,1.348-0.404,1.995-0.615
			c0.326-0.121,0.643-0.194,0.964-0.357l0.946-0.481l0.917-0.492c0.301-0.161,0.584-0.417,0.868-0.625
			c0.563-0.442,1.12-0.848,1.575-1.43l0.688-0.813c0.222-0.271,0.379-0.607,0.561-0.907c0.169-0.312,0.356-0.607,0.49-0.929
			c0.113-0.327,0.227-0.655,0.341-0.986l0.156-0.488l0.088-0.505c0.051-0.33,0.102-0.662,0.152-0.996
			c0.01-0.672,0.057-1.327-0.043-1.979c-0.137-1.298-0.487-2.566-1.054-3.747c-0.053,1.304-0.323,2.502-0.721,3.554
			c-0.169,0.534-0.459,1.004-0.679,1.462l-0.432,0.623l-0.203,0.298l-0.251,0.259c-1.279,1.39-2.8,1.985-4.532,2.283
			c-0.429,0.081-0.844,0.174-1.339,0.168c-0.469,0.028-0.939,0.056-1.415,0.084c-0.51-0.027-1.02-0.046-1.534-0.057
			c-0.259-0.011-0.509,0.004-0.779-0.021c-0.273-0.032-0.55-0.063-0.828-0.096c-0.555-0.053-1.119-0.106-1.695-0.161
			c-0.559-0.07-1.073-0.181-1.632-0.267c-1.111-0.261-2.284-0.547-3.526-1.001c-1.229-0.404-3.024-1.151-5.367-2.475
			c-2.343-1.319-5.208-3.311-8.396-6.221c-1.475-1.36-3.431-3.396-4.896-5.182c-1.485-1.772-2.494-3.264-2.494-3.264
			s-0.321-0.434-0.777-1.162c-0.228-0.364-0.499-0.796-0.799-1.275c-0.277-0.488-0.581-1.024-0.899-1.584
			c-1.248-2.252-2.355-5.011-2.809-6.66c-0.877-2.923-0.978-5.082-0.965-6.667c0.077-0.779,0.075-1.453,0.204-1.994
			c0.045-0.275,0.086-0.528,0.125-0.762c0.046-0.231,0.118-0.432,0.166-0.625c0.076-0.283,0.151-0.562,0.226-0.838
			c0.101-0.264,0.199-0.525,0.297-0.783c0.149-0.499,0.468-1.091,0.694-1.63c0.51-1.068,1.021-2.049,1.567-2.892
			c1.087-1.711,2.207-2.981,3.556-3.807C193.771,184.177,198.274,184.354,202.907,186.722z"/>
		<path d="M223.184,238.765c1.087,0.213,1.986,0.784,2.767,1.408c0.784,0.637,1.477,1.351,2.121,2.093
			c1.284,1.49,2.379,3.085,3.4,4.68c2.029,3.206,3.759,6.452,5.407,9.726c0.82,1.638,1.615,3.289,2.379,4.957
			c0.383,0.833,0.757,1.671,1.117,2.512c0.177,0.419,0.354,0.84,0.532,1.263l0.13,0.316l0.008,0.099l-0.02,0.132
			c-0.13,0.651-0.445,0.827-0.846,0.641c-0.104-0.06-0.163-0.117-0.192-0.156l-0.026-0.048l-0.004-0.016l-0.014-0.008l-0.533-0.085
			c-1.8-0.308-4.221-0.76-7.772-1.683c-3.545-0.932-8.235-2.29-14.424-4.644c-4.266-1.632-8.978-3.639-13.864-6.076
			c-4.896-2.462-9.927-5.227-14.897-8.661c-10.118-6.629-20.044-14.872-28.434-23.664c-2.16-2.142-4.072-4.449-6.022-6.638
			c-0.994-1.08-1.851-2.25-2.76-3.354c-0.884-1.124-1.806-2.197-2.626-3.317c-3.344-4.438-6.259-8.759-8.677-12.756
			c-1.17-2.012-2.299-3.912-3.225-5.718c-0.483-0.898-0.938-1.765-1.335-2.601l-0.068-0.14l-0.001,0v0l-0.001,0l0.001,0.005
			l-0.006,0.013l-0.007,0.003l-0.023,0.027c0.182-0.203,0.354-0.396,0.517-0.578c4.15-4.645,7.461-9.174,10.236-13.479
			c2.773-4.302,4.972-8.382,6.725-12.167c1.753-3.787,3.05-7.277,4.088-10.398c0.983-3.145,1.722-5.918,2.221-8.348
			c1.052-4.849,1.304-8.25,1.51-10.379c0.089-1.068,0.095-1.833,0.125-2.324c0.021-0.492,0.03-0.717,0.03-0.717
			s0.011-0.242,0.031-0.714c0.031-0.472,0.044-1.174,0.023-2.096c-0.018-0.921-0.005-2.062-0.062-3.406
			c-0.104-1.341-0.167-2.895-0.357-4.628c-0.242-1.727-0.409-3.665-0.854-5.734c-0.211-1.036-0.378-2.131-0.655-3.241
			c-0.282-1.109-0.576-2.26-0.88-3.452c-1.352-4.754-3.341-10.089-6.329-15.538c-2.978-5.448-6.926-11.005-11.827-16.224
			c-4.924-5.189-10.73-10.09-17.271-14.398c-3.269-2.156-6.704-4.194-10.291-6.084c-0.902-0.46-1.809-0.924-2.72-1.389
			c-0.92-0.442-1.845-0.886-2.774-1.332l-0.991-0.452l0.015,0.005c0.03,0.018,0.153,0.026,0.062,0.055l-0.056,0.024
			c0.628-0.09,1.254-0.18,1.878-0.27c1.009-0.143,2.017-0.212,3.015-0.313c1.999-0.114,3.97-0.174,5.879-0.066
			c3.823,0.173,7.398,0.803,10.541,1.653c3.155,0.818,5.834,1.997,8.015,2.948c3.65,1.722,6.771,3.734,9.513,5.671
			c2.69,2.031,5.007,3.984,6.951,5.859c0.961,0.962,1.878,1.792,2.705,2.683c0.823,0.906,1.587,1.745,2.291,2.519
			c1.409,1.548,2.584,2.838,3.54,3.889c7.384,8.715,12.403,15.776,16.33,22.918c2.033,3.575,3.565,7.232,4.66,11.292
			c0.136,0.515,0.272,1.032,0.409,1.551c0.085,0.525,0.17,1.053,0.255,1.583c0.074,0.535,0.211,1.093,0.241,1.64
			c0.037,0.557,0.074,1.118,0.112,1.683c0.071,2.269-0.031,4.707-0.839,7.191c1.896-1.828,3.258-4.124,4.333-6.46
			c0.25-0.6,0.497-1.196,0.743-1.788c0.25-0.601,0.387-1.211,0.581-1.822c0.178-0.62,0.354-1.235,0.529-1.848
			c0.111-0.622,0.223-1.241,0.333-1.858c0.834-4.973,0.7-10.061-0.386-14.945c-2.049-9.883-6.989-19.458-15.219-29.345
			c-1.037-1.201-2.35-2.631-3.908-4.369c-0.782-0.865-1.63-1.802-2.544-2.813c-0.931-1.008-2.062-2.061-3.204-3.201
			c-2.334-2.259-5.16-4.671-8.515-7.197c-3.427-2.445-7.395-5.007-12.155-7.255c-2.843-1.266-6.37-2.791-10.567-3.896
			c-4.177-1.136-8.958-1.977-14.024-2.204c-2.533-0.136-5.129-0.067-7.749,0.092c-1.304,0.124-2.622,0.225-3.932,0.407l-1.966,0.283
			c-0.183,0.029-0.285,0.036-0.535,0.084l-0.851,0.175l-1.703,0.35c-2.297,0.404-4.484,1.084-6.701,1.688
			c-1.087,0.323-2.092,0.71-3.141,1.062l-1.551,0.542l-1.442,0.595c-3.894,1.563-7.31,3.312-10.019,5.102
			c-4.701,3.03-9.354,6.03-13.945,8.991l-1.062,0.682c-0.405,0.128,0.204,0.192,0.512,0.277l1.058,0.246
			c1.407,0.327,2.812,0.654,4.213,0.98c2.704,0.629,5.398,1.256,8.083,1.88c2.733,0.604,4.938,1.222,7.287,1.833
			c1.23,0.291,2.139,0.653,3.183,0.983c1.016,0.337,2.03,0.673,3.042,1.008c1.896,0.726,3.781,1.445,5.628,2.183
			c0.892,0.388,1.782,0.775,2.67,1.162l1.064,0.467l0.619,0.282c0.815,0.391,1.628,0.78,2.436,1.167
			c0.798,0.406,1.591,0.811,2.38,1.214c3.135,1.649,6.109,3.414,8.914,5.26c5.615,3.69,10.454,7.798,14.483,12.028
			c4,4.257,7.127,8.674,9.474,12.955c2.354,4.284,3.901,8.431,4.979,12.175c0.243,0.951,0.479,1.87,0.705,2.754
			s0.349,1.752,0.521,2.574c0.368,1.643,0.481,3.173,0.686,4.538c0.153,1.37,0.195,2.596,0.288,3.655
			c0.046,1.062,0.031,1.963,0.05,2.69c0.021,0.728,0.013,1.284-0.015,1.658c-0.018,0.374-0.025,0.565-0.025,0.565
			s-0.016,0.711-0.123,2.41c-0.174,1.694-0.362,4.389-1.219,8.293c-0.398,1.955-1.005,4.202-1.805,6.771
			c-0.857,2.556-1.922,5.432-3.387,8.594c-1.465,3.16-3.322,6.605-5.688,10.27c-2.358,3.658-5.229,7.574-8.72,11.475
			c-0.181,0.199-0.371,0.408-0.571,0.628c-0.424,0.473-0.821,0.861-1.264,1.326c-0.846,0.915-1.872,1.861-2.963,2.888
			c-0.55,0.514-1.118,1.046-1.706,1.595c-0.293,0.273-0.59,0.551-0.892,0.833c-0.126,0.061-0.018,0.166,0.002,0.255l0.105,0.268
			l0.221,0.564c0.592,1.513,1.203,3.102,1.92,4.782c0.358,0.838,0.688,1.703,1.094,2.576c0.391,0.826,0.791,1.67,1.199,2.533
			c0.471,0.989,0.99,1.987,1.54,3.013c1.066,2.081,2.324,4.214,3.646,6.483c2.703,4.487,5.936,9.288,9.632,14.2
			c0.909,1.239,1.919,2.427,2.896,3.668c1.001,1.22,1.955,2.509,3.044,3.702c2.141,2.417,4.257,4.955,6.624,7.315
			c9.223,9.678,20.112,18.717,31.173,25.963c2.698,1.877,5.545,3.608,8.323,5.211c2.785,1.604,5.555,3.057,8.258,4.41
			c5.412,2.693,10.598,4.894,15.311,6.688c6.83,2.586,12.064,4.096,16.121,5.146c4.06,1.039,6.965,1.571,9.225,1.931
			c0.699,0.098,1.393,0.195,2.08,0.291c0.865,0.084,1.723,0.168,2.57,0.251c0.854,0.109,1.663,0.074,2.479,0.113
			c0.403,0.006,0.813,0.033,1.202,0.02c0.383-0.025,0.763-0.049,1.14-0.073c0.376-0.025,0.749-0.049,1.12-0.074
			c0.366-0.029,0.693-0.111,1.037-0.164c0.677-0.121,1.364-0.213,1.928-0.431c1.244-0.313,2.139-0.904,3.101-1.385
			c0.693-0.476,1.345-1.038,1.915-1.693c0.588-0.653,1.095-1.499,1.428-2.277c0.66-1.583,0.863-3.19,0.74-4.925
			c-0.263-3.477-1.981-7.247-3.897-10.517l-0.734-1.217l-0.356-0.569l-0.241-0.346c-0.323-0.458-0.649-0.906-0.979-1.342
			c-0.658-0.876-1.33-1.714-2.015-2.523c-1.366-1.62-2.781-3.127-4.25-4.557c-2.942-2.852-6.085-5.425-9.633-7.701
			c-1.778-1.127-3.657-2.188-5.716-3.035c-1.029-0.419-2.108-0.783-3.234-1.01C225.469,238.51,224.271,238.432,223.184,238.765z"/>
		<path d="M246.84,275.937c-0.41,5.218-0.556,9.612-0.299,14.197c0.271,4.584,0.942,9.367,2.421,15.351
			c0.526,2.025,1.286,5.326,3.407,12.135c1.208,3.775,2.766,8.327,4.927,12.804c1.104,2.238,2.319,4.463,4.019,6.561
			c0.858,1.044,1.841,2.071,3.153,2.964c0.216,0.152,0.158,0.104,0.223,0.145l0.115,0.066l-0.002-0.001l-0.005-0.008
			c3.747,29.157,7.304,56.836,7.304,56.836s0.245,1.923,0.851,6.673c0.303,2.375,0.695,5.456,1.193,9.357
			c0.27,2.109,0.566,4.44,0.895,7.009c0.152,1.188,0.308,2.404,0.467,3.648c0.079,0.622,0.16,1.251,0.241,1.887l0.03,0.239
			l0.033,0.099h0.121l0.484-0.001c0.324-0.001,0.65-0.002,0.979-0.002c2.169-0.005,4.433-0.01,6.794-0.016
			c1.814-0.003,4.005-0.007,6.878-0.012c1.107-0.002,2.281-0.005,3.528-0.007c0.623-0.002,1.266-0.003,1.927-0.005
			c0.154-0.009,0.354,0.021,0.476-0.021l-0.071-0.501c-0.047-0.337-0.095-0.679-0.145-1.025c-0.352-2.495-0.743-5.278-1.184-8.401
			c-1.362-9.659-3.393-24.059-4.624-32.791c-1.312-9.198-2.125-14.892-2.549-17.865c-1.759-12.024-4.077-18.658-7.997-28.357
			c-1.082,10.405-1.472,17.421,0.166,29.463c0.415,2.976,1.211,8.671,2.496,17.873c1.234,8.732,3.27,23.13,4.635,32.789
			c0.03,0.217,0.061,0.431,0.09,0.641l0.042,0.294v-0.002l-0.001-0.006v-0.011l0.015-0.002l0.007,0.001
			c-0.483,0.002-0.938,0.003-1.368,0.005c-0.871,0.003-1.642,0.005-2.339,0.008c-2.038,0.005-1.251,0.004-1.403,0.004l0.002,0.01
			c-0.28-2.181-0.534-4.159-0.764-5.95c-0.501-3.9-0.896-6.98-1.202-9.355c-0.61-4.749-0.857-6.673-0.857-6.673
			s-3.689-28.924-7.574-59.394c-0.059-0.455-0.118-0.918-0.178-1.387l-0.089-0.698c0.035-0.149-0.163-0.128-0.262-0.18l-0.359-0.11
			c-0.5-0.152-1.006-0.308-1.518-0.465l-0.6-0.227c-0.167-0.067-0.494-0.175-0.469-0.193c-0.371-0.249-0.896-0.741-1.413-1.382
			c-1.057-1.285-2.098-3.104-3.027-5.009c-1.867-3.852-3.366-8.158-4.512-11.729c-2.029-6.482-2.791-9.715-3.32-11.667
			c-1.495-5.798-2.843-10.324-4.401-14.574C250.678,284.71,248.921,280.733,246.84,275.937z"/>
		<path d="M249.542,293.509c-10.127,2.641-16.854,4.923-27.359,11.151c-1.089,0.66-2.597,1.575-4.419,2.68
			c-0.909,0.556-1.896,1.159-2.949,1.802c-0.525,0.323-1.067,0.655-1.624,0.997c-0.654,0.413-1.325,0.836-2.013,1.27
			c-21.571,13.545-46.447,30.518-68.916,50.592l-4.197,3.772c-1.385,1.275-2.703,2.628-4.055,3.936
			c-2.688,2.638-5.394,5.248-7.911,7.946c-5.106,5.36-10.04,10.778-14.749,16.193c-9.418,10.831-17.949,21.643-25.189,31.971
			c-7.221,10.354-13.252,20.103-17.24,29.318c-0.98,2.324-1.836,4.612-2.429,7.032c-0.293,1.214-0.526,2.459-0.599,3.847
			c-0.026,0.705-0.025,1.431,0.102,2.263c0.05,0.407,0.172,0.905,0.309,1.367c0.158,0.457,0.328,0.908,0.567,1.32
			c0.222,0.446,0.487,0.746,0.753,1.085c0.247,0.301,0.522,0.642,0.736,0.861c0.386,0.372,0.764,0.737,1.136,1.097
			c0.736,0.688,1.404,1.235,2.068,1.822c1.311,1.081,2.509,2.07,3.597,2.914c6.834,5.372,13.105,9.906,18.782,14.041
			c5.682,4.113,10.78,7.743,15.333,10.973c9.134,6.411,16.056,11.27,21.225,14.897c10.374,7.198,13.715,9.516,13.715,9.516
			s1.385,0.956,7.685,5.307c3.155,2.167,7.54,5.18,13.599,9.343c2.99,2.042,6.394,4.367,10.265,7.012
			c-0.337-0.459,0.812,1.13,1.536,2.07c0.799,1.04,1.637,2.095,2.518,3.159c1.768,2.128,3.686,4.332,5.842,6.554
			c0.699,0.72,1.521,1.6,2.542,2.559c1.001,0.978,2.147,2.078,3.495,3.238c2.648,2.359,5.995,5.067,10.25,7.694
			c0.531,0.328,1.071,0.662,1.619,1.001c0.552,0.334,1.157,0.616,1.747,0.933c1.2,0.606,2.388,1.298,3.747,1.8
			c1.345,0.519,2.658,1.173,4.164,1.542c1.466,0.415,3.017,0.917,4.463,1.161c0.739,0.15,1.485,0.303,2.239,0.457
			c0.761,0.14,1.541,0.251,2.322,0.379c1.556,0.277,3.196,0.419,4.854,0.593c3.35,0.247,6.907,0.326,10.798-0.467
			c1.946-0.422,3.96-0.987,6.13-2.378c0.278-0.194,0.73-0.509,1.021-0.78c0.326-0.282,0.633-0.587,0.894-0.929
			c0.228-0.349,0.477-0.756,0.646-1.089l0.374-0.771c0.463-0.915,0.799-1.812,1.156-2.719c0.384-0.905,0.673-1.823,0.952-2.748
			c0.271-0.926,0.614-1.851,0.826-2.795c0.215-0.944,0.431-1.895,0.647-2.85l0.323-1.438c0.089-0.482,0.145-0.969,0.218-1.454
			c0.137-0.974,0.274-1.951,0.413-2.935l0.205-1.479c0.054-0.495,0.062-0.991,0.096-1.488c0.091-1.989,0.255-4.002,0.277-6.024
			c-0.07-2.018-0.142-4.053-0.214-6.104c-0.009-1.021-0.126-2.062-0.247-3.105c-0.13-1.041-0.193-2.094-0.398-3.133
			c-0.609-4.188-1.709-8.365-3.187-12.453c-1.489-4.086-3.392-8.077-5.789-11.852c-0.585-0.951-1.229-1.875-1.888-2.798
			c-0.339-0.458-0.664-0.919-1.029-1.371l-0.962-1.179l-1.036-1.158l-1.056-1.131c-0.511,0.04-1.031,0.108-1.546,0.161l-2.917,0.322
			l-3.146,0.438c-2.099,0.3-4.202,0.601-6.31,0.901c-2.111,0.336-4.226,0.673-6.343,1.011l-3.179,0.509l-3.239,0.647l-6.368,1.291
			c-2.015,0.396-3.969,0.888-6.03,1.212c-2.059,0.322-4.103,0.686-6.168,0.976c-1.396,0.189-2.79,0.378-4.182,0.566l0.008,0.009
			l-0.845-0.888l-2.176-2.288c-2.898-3.046-5.779-6.074-8.637-9.076c-8.14-8.554-15.998-16.812-23.215-24.396
			c-4.365-4.571-7.954-8.329-9.89-10.356c-8.421-8.762-14.162-12.813-22.99-18.427c5.168,9.096,8.929,15.031,17.261,23.878
			c1.929,2.034,5.503,5.806,9.852,10.393c7.215,7.585,15.072,15.845,23.211,24.399c2.856,3.003,5.737,6.031,8.636,9.077
			c1.896,1.993,3.798,3.992,5.704,5.995l0.169,0.052l0.196-0.023l0.391-0.047l0.782-0.094l1.565-0.188l2.082-0.266l3.2-0.434
			c2.135-0.301,4.274-0.679,6.415-1.016c2.138-0.338,4.319-0.873,6.477-1.304l1.617-0.341l1.509-0.3l3.017-0.602l3.014-0.605
			l3.113-0.498c2.076-0.331,4.149-0.662,6.219-0.992c2.082-0.298,4.16-0.595,6.233-0.892l3.104-0.433l0.188-0.025h-0.002
			l-0.003,0.001h-0.005l-0.009-0.003l0.022,0.03c0.294,0.359,0.569,0.754,0.853,1.134c0.553,0.775,1.103,1.562,1.605,2.382
			c4.117,6.522,6.72,13.908,7.841,21.263c0.187,0.914,0.233,1.847,0.351,2.765c0.108,0.918,0.216,1.833,0.22,2.774
			c0.067,1.865,0.133,3.717,0.199,5.551c-0.021,1.828-0.177,3.63-0.25,5.42c-0.029,0.445-0.033,0.895-0.081,1.336l-0.187,1.311
			c-0.122,0.871-0.244,1.738-0.364,2.602c-0.064,0.43-0.11,0.864-0.188,1.288l-0.286,1.252c-0.188,0.833-0.375,1.661-0.561,2.484
			c-0.181,0.825-0.478,1.593-0.706,2.386c-0.236,0.791-0.479,1.571-0.791,2.294c-0.29,0.738-0.567,1.491-0.899,2.132l-0.19,0.407
			l-0.012,0.025l0.002-0.002l-0.005,0.001c-0.731,0.479-2.02,0.946-3.333,1.203c-2.672,0.562-5.672,0.552-8.544,0.328
			c-1.449-0.157-2.872-0.27-4.282-0.524c-0.703-0.115-1.399-0.212-2.089-0.339c-0.691-0.141-1.374-0.28-2.051-0.419
			c-1.406-0.237-2.538-0.644-3.73-0.969c-1.189-0.269-2.297-0.843-3.402-1.26c-1.114-0.396-2.139-1.006-3.158-1.517
			c-0.504-0.271-1.016-0.501-1.495-0.792c-0.478-0.297-0.948-0.589-1.411-0.877c-1.879-1.094-3.522-2.372-5.076-3.488
			c-1.5-1.213-2.906-2.294-4.102-3.402c-1.23-1.056-2.289-2.071-3.214-2.974c-0.942-0.881-1.706-1.701-2.356-2.368
			c-2.002-2.061-3.795-4.122-5.442-6.104c-0.822-0.993-1.599-1.972-2.337-2.933c-0.361-0.481-0.717-0.955-1.066-1.422
			c-0.233-0.326-0.465-0.65-0.694-0.972c-0.193-0.229-0.305-0.536-0.561-0.697l-0.74-0.504c-3.98-2.718-7.479-5.107-10.555-7.208
			c-6.051-4.155-10.432-7.164-13.582-9.328c-6.292-4.342-7.675-5.296-7.675-5.296s-3.335-2.315-13.689-9.504
			c-5.155-3.621-12.06-8.469-21.17-14.866c-4.537-3.22-9.617-6.837-15.263-10.927c-5.627-4.098-11.898-8.637-18.512-13.839
			c-1.06-0.823-2.18-1.751-3.401-2.759c-0.563-0.501-1.218-1.04-1.776-1.564c-0.268-0.257-0.54-0.519-0.818-0.785
			c-0.136-0.189-0.236-0.256-0.236-0.256l-0.002,0.004l-0.006-0.06c-0.028-0.142-0.034-0.42-0.022-0.729
			c0.032-0.641,0.168-1.464,0.383-2.339c0.429-1.762,1.152-3.747,2.024-5.802c3.571-8.276,9.42-17.819,16.444-27.86
			c7.055-10.058,15.429-20.669,24.687-31.312c4.63-5.32,9.484-10.649,14.51-15.924c2.496-2.674,5.108-5.188,7.707-7.737
			c1.31-1.267,2.579-2.572,3.926-3.812l4.089-3.673c21.894-19.566,46.493-36.381,67.819-49.775c0.679-0.43,1.342-0.85,1.988-1.259
			c0.55-0.339,1.085-0.669,1.604-0.989c1.039-0.639,2.014-1.239,2.912-1.792c1.796-1.104,3.282-2.018,4.355-2.678
			C236.604,305.164,241.838,300.583,249.542,293.509z"/>
		<path d="M129.238,458.422c8.827-5.604,14.617-9.438,23.473-17.588c0.751-0.689,1.736-1.596,3.169-2.913
			c1.43-1.319,3.379-2.955,5.966-5.223c2.345-2.145,8.167-6.805,8.167-6.806c0,0,1.223-0.971,2.784-2.211
			c0.391-0.311,0.801-0.639,1.22-0.972c0.433-0.307,0.874-0.618,1.308-0.925c0.866-0.617,1.706-1.215,2.404-1.713
			c1.844-1.315,3.512-2.506,5.014-3.578c1.574-1.061,2.974-2.005,4.211-2.838c2.472-1.671,4.29-2.9,5.539-3.744
			c10.063-6.858,15.123-11.781,21.905-19.754c-9.72,3.861-16.219,6.456-26.309,13.185c-1.245,0.831-3.059,2.044-5.524,3.691
			c-1.231,0.826-2.626,1.762-4.193,2.813c-1.581,1.124-3.337,2.372-5.278,3.751c-0.734,0.523-1.617,1.151-2.527,1.8
			c-0.454,0.326-0.916,0.656-1.369,0.981c-0.43,0.348-0.853,0.688-1.254,1.013c-1.602,1.297-2.855,2.312-2.855,2.312
			c0.001,0.001-6.083,4.752-8.436,6.972c-2.646,2.324-4.642,4.01-6.095,5.36c-1.452,1.352-2.452,2.281-3.213,2.989
			C138.403,443.421,134.415,449.327,129.238,458.422z"/>
		<path d="M177.226,413.137c-2.004-4.819-3.896-9.245-5.831-13.479c-0.968-2.117-1.947-4.187-2.957-6.234l-1.54-3.058
			c-0.515-1.023-1.06-2.026-1.65-3.001c-2.317-3.937-4.839-7.882-7.733-12.037c-1.443-2.072-2.998-4.221-4.634-6.404
			c0.038-0.105,0.108-0.108,0.131-0.104l0.005,0.001l0.051-0.039c0.106-0.09,0.222-0.187,0.348-0.293
			c0.338-0.287,0.731-0.621,1.197-1.017c2.978-2.515,6.848-5.859,12.174-10.246c1.319-1.033,4.311-3.645,4.311-3.645
			s1.099-0.855,2.306-1.797c0.667-0.535,1.363-1.094,1.954-1.567c6.153-5.051,11.885-9.397,16.654-13.101
			c4.819-3.582,8.743-6.374,11.333-8.289c2.423-1.639,4.705-3.155,6.854-4.682c1.072-0.769,2.119-1.519,3.145-2.254
			c1.079-0.733,2.135-1.451,3.172-2.156c4.121-2.857,7.829-5.661,11.356-8.522c1.764-1.382,3.486-2.785,5.198-4.227
			c1.717-1.42,3.399-2.979,5.156-4.366c1.755-1.423,3.512-2.957,5.39-4.474c1.908-1.492,3.876-3.031,5.928-4.636
			c-2.565,0.466-5.042,0.932-7.453,1.408c-2.393,0.525-4.692,1.162-6.981,1.771c-2.32,0.589-4.439,1.369-6.615,2.108
			c-2.161,0.755-4.309,1.547-6.47,2.391c-4.236,1.734-8.495,3.676-13.021,5.953c-1.126,0.58-2.272,1.17-3.444,1.773
			c-1.176,0.668-2.377,1.389-3.6,2.123c-2.438,1.48-5.007,3.051-7.631,4.793c-2.724,1.967-6.863,4.882-11.883,8.593
			c-4.917,3.791-10.839,8.272-17.106,13.407c-0.601,0.487-1.31,1.061-1.987,1.61c-1.198,1.002-2.289,1.913-2.289,1.913
			s-3.164,2.508-4.442,3.637c-5.413,4.473-9.338,7.878-12.354,10.446c-5.189,4.548-8.761,7.677-11.479,10.06l-0.847,0.748
			l-0.42,0.373l-0.21,0.186l-0.103,0.093l0.088,0.109c0.473,0.583,0.942,1.162,1.408,1.737c0.935,1.147,1.857,2.28,2.769,3.398
			c1.822,2.211,3.6,4.365,5.335,6.471c1.805,2.087,3.526,4.006,5.237,5.849c3.413,3.674,6.708,6.949,10.052,10.039
			c0.849,0.764,1.663,1.54,2.46,2.324l2.442,2.311c1.644,1.528,3.32,3.039,5.05,4.558
			C169.507,406.731,173.18,409.804,177.226,413.137z"/>
		<path d="M461.766,288.778c-10.454,0.167-17.403,0.347-29.215,2.762c-2.009,0.355-5.262,1.059-12.052,2.263
			c-1.734,0.281-3.767,0.611-5.994,0.972c-1.113,0.182-2.275,0.371-3.475,0.566c-1.197,0.206-2.433,0.399-3.696,0.537
			c-2.523,0.313-5.141,0.637-7.752,0.961c-1.305,0.163-2.608,0.325-3.897,0.485c-1.289,0.129-2.563,0.192-3.812,0.29
			c-2.494,0.179-4.881,0.35-7.057,0.506c-1.087,0.075-2.122,0.147-3.092,0.214c-0.959,0.009-1.854,0.018-2.673,0.026
			c-1.636,0.018-2.964,0.032-3.882,0.042c-0.926-0.033-1.439-0.051-1.439-0.051s-1.719-0.068-4.536-0.181
			c-1.406-0.027-3.099-0.198-4.984-0.333c-1.887-0.153-3.969-0.276-6.175-0.541c-8.822-0.852-19.555-2.461-27.183-3.812
			c-9.083-1.581-14.682-2.74-17.609-3.314c-5.916-1.206-10.614-1.864-15.136-2.239c-4.523-0.375-8.879-0.384-14.096-0.506
			c4.573,2.564,8.524,4.479,12.785,6.159c4.264,1.681,8.87,3.05,14.85,4.332c2.961,0.611,8.624,1.802,17.848,3.414
			c7.742,1.383,18.671,3.01,27.754,3.872c2.26,0.267,4.424,0.392,6.373,0.545c1.954,0.136,3.693,0.306,5.173,0.333
			c2.946,0.11,4.744,0.177,4.744,0.177s0.537,0.02,1.506,0.056c0.977-0.007,2.389-0.018,4.128-0.031
			c0.87-0.007,1.822-0.015,2.843-0.024c1.007-0.066,2.08-0.138,3.209-0.213c2.255-0.157,4.728-0.329,7.313-0.509
			c1.291-0.099,2.618-0.165,3.946-0.296c1.323-0.162,2.66-0.327,4-0.491c2.679-0.33,5.364-0.661,7.953-0.98
			c1.299-0.142,2.56-0.34,3.78-0.549c1.223-0.2,2.408-0.394,3.544-0.58c2.271-0.373,4.344-0.714,6.112-1.004
			c6.915-1.235,10.211-1.963,12.253-2.346C446.096,296.719,452.597,293.831,461.766,288.778z"/>
		<path d="M196.148,398.607c-2.93,7.089-4.261,11.678-2.157,18.259c2.278,7.129,14.438,42.574,14.438,42.574
			s11.911,35.531,14.438,42.574c2.334,6.504,6.183,9.337,12.819,13.18c2.931-7.088,4.262-11.677,2.159-18.26
			c-2.276-7.128-14.438-42.573-14.438-42.573s-11.909-35.531-14.438-42.574C206.635,405.284,202.787,402.451,196.148,398.607z"/>
		<path d="M365.114,371.235c0.496,20.919,1.504,34.938,7.811,58.407c1.082,3.973,2.841,10.437,6.498,23.869
			c4.153,15.104,13.994,50.888,13.994,50.888s8.179,29.968,12.713,46.581c4.939,17.915,7.996,29.003,9.593,34.794
			c6.543,23.408,12.824,35.98,23.063,54.227c-0.495-20.917-1.503-34.935-7.81-58.408c-1.579-5.795-4.603-16.893-9.488-34.822
			c-4.571-16.604-12.817-46.553-12.817-46.553s-9.78-35.799-13.909-50.91c-3.704-13.421-5.486-19.878-6.582-23.847
			C381.636,402.055,375.354,389.483,365.114,371.235z"/>
		<path d="M241.432,571.968c4.311,2.975,8.523,5.416,12.704,7.572c1.057,0.527,2.103,1.049,3.143,1.568
			c1.063,0.477,2.12,0.949,3.174,1.422c2.116,0.96,4.284,1.751,6.493,2.557c4.427,1.569,9.097,2.841,14.254,3.837
			c2.576,0.515,5.297,0.829,8.145,1.205c2.863,0.28,5.885,0.452,9.079,0.577c1.088-0.005,2.346-0.011,3.851-0.019
			c0.753-0.005,1.567-0.011,2.453-0.017c0.886,0.002,1.843-0.011,2.886-0.1c2.082-0.144,4.49-0.31,7.3-0.503
			c1.403-0.188,2.908-0.389,4.521-0.604c0.808-0.109,1.642-0.223,2.505-0.34c0.432-0.06,0.87-0.119,1.316-0.181
			c0.443-0.091,0.895-0.184,1.353-0.278c0.592-0.073,1.954-0.457,1.954-0.457s0.49-0.079,1.028-0.167l0.404-0.077
			c0.232-0.05,0.458-0.099,0.665-0.144c1.056-0.227,2.101-0.45,3.132-0.671c0.986-0.271,1.961-0.539,2.922-0.803
			c1.917-0.536,3.782-1.058,5.587-1.562c1.774-0.573,3.49-1.128,5.14-1.662c1.652-0.529,3.238-1.039,4.714-1.601
			c5.977-2.104,10.663-4.066,13.805-5.338c11.493-4.913,19.918-9.933,27.381-15.423c7.431-5.531,13.976-11.517,21.089-19.207
			c-9.863,3.451-18.139,5.928-26.574,8.98c-8.454,3.003-17.083,6.52-27.988,11.053c-2.971,1.165-7.406,2.998-12.992,4.944
			c-1.388,0.525-2.86,0.992-4.395,1.479c-1.532,0.493-3.125,1.006-4.773,1.536c-1.66,0.461-3.375,0.937-5.138,1.426
			c-0.881,0.242-1.773,0.487-2.677,0.735c-0.887,0.186-1.784,0.374-2.691,0.564c-0.179,0.036-0.373,0.077-0.572,0.118l-0.344,0.082
			c-0.452,0.122-0.864,0.234-0.864,0.234s-1.203,0.159-1.693,0.316c-0.394,0.083-0.78,0.165-1.161,0.246
			c-0.389,0.052-0.771,0.104-1.146,0.153c-0.752,0.103-1.479,0.2-2.182,0.296c-1.405,0.193-2.715,0.374-3.937,0.542
			c-2.478,0.177-4.602,0.328-6.438,0.459c-0.916,0.086-1.77,0.099-2.562,0.099c-0.791,0.009-1.518,0.018-2.189,0.024
			c-1.344,0.02-2.467,0.035-3.438,0.049c-2.881-0.071-5.606-0.139-8.209-0.203c-2.608-0.166-5.105-0.183-7.515-0.322
			c-4.846-0.232-9.328-0.448-13.727-0.659c-2.205-0.127-4.41-0.166-6.61-0.305c-1.106-0.046-2.216-0.093-3.332-0.139
			c-1.116-0.062-2.239-0.123-3.373-0.185C251.362,572.831,246.622,572.575,241.432,571.968z"/>
		<path d="M241.431,571.967c-5.174,2.989-7.992,5.047-8.266,8.859c-0.296,4.129-0.986,24.844-0.986,24.844
			s-0.954,20.703-0.986,24.844c-0.03,3.822,2.616,6.097,7.537,9.486c5.175-2.989,7.993-5.046,8.268-8.859
			c0.297-4.129,0.986-24.844,0.986-24.844s0.955-20.703,0.986-24.844C248.998,577.631,246.353,575.357,241.431,571.967z"/>
		<path d="M339.434,617.926c-2.294,1.491-3.51,2.441-3.342,3.69c0.182,1.354,1.48,8.062,1.48,8.062s1.17,6.73,1.481,8.061
			c0.287,1.228,1.761,1.684,4.435,2.262c2.295-1.491,3.51-2.44,3.344-3.69c-0.182-1.354-1.481-8.062-1.481-8.062
			s-1.169-6.731-1.481-8.061C343.581,618.96,342.107,618.504,339.434,617.926z"/>
		<path d="M463.793,305c2.077-10.254,3.117-17.217,2.555-29.368c-0.082-1.645-0.206-4.114-0.36-7.176
			c-0.294-5.17-0.645-11.34-1.03-18.12c-0.578-9.375-1.238-19.583-2.178-30.136c-0.233-2.638-0.504-5.303-0.81-7.994
			c-0.169-1.356-0.315-2.694-0.534-4.085c-0.101-0.688-0.2-1.377-0.343-2.108l-0.2-1.081l-0.296-1.212
			c-0.051-0.306-0.319-1.047-0.577-1.632c-0.062-0.142-0.14-0.322-0.197-0.429l-0.152-0.253l-0.305-0.506
			c-0.408-0.703-0.819-1.276-1.23-1.886c-0.828-1.189-1.669-2.31-2.529-3.401c-1.722-2.182-3.488-4.276-5.32-6.297
			c-1.841-2.017-3.701-3.989-5.678-5.868c-1.987-1.879-4.004-3.696-6.371-5.378l-0.929-0.62c-0.308-0.206-0.606-0.412-0.991-0.606
			c-0.744-0.388-1.366-0.788-2.426-1.114c-0.49-0.155-0.945-0.341-1.492-0.403c-0.572-0.101-0.971-0.116-1.389-0.142
			c-0.815-0.039-1.52-0.026-2.203-0.002c-2.704,0.108-5.111,0.359-7.494,0.56c-4.728,0.418-9.172,0.74-13.235,0.667
			c-2.025-0.037-3.952-0.169-5.694-0.448c-1.735-0.276-3.302-0.708-4.443-1.282c-1.16-0.581-1.786-1.213-2.115-1.837
			c-0.114-0.142-0.152-0.334-0.215-0.511c-0.09-0.158-0.097-0.383-0.135-0.586c-0.109-0.463-0.06-0.559-0.027-0.746
			c0.072-0.288,0.332-0.749,0.972-1.249c0.604-0.491,1.397-0.94,2.178-1.293c1.583-0.711,3.046-1.127,4.031-1.393
			c0.992-0.267,1.54-0.382,1.54-0.382s0.538-0.132,1.897-0.392c1.36-0.254,3.558-0.625,6.911-0.962
			c3.352-0.334,7.865-0.625,13.802-0.673c2.968-0.023,6.292,0.015,9.987,0.153c0.86,0.039,1.731,0.079,2.613,0.119
			c0.975,0.059,1.96,0.119,2.959,0.18c2.814,1.088,2.038-2.119,2.453-3.981c0.122-1.037,0.246-2.086,0.372-3.149
			c0.068-0.533,0.138-1.073,0.208-1.619c0.147-1.065,0.299-2.156,0.453-3.273c0.412-2.819,1.01-6.689,1.893-11.299
			c0.892-4.6,2.041-9.972,3.771-15.588c0.871-2.792,1.9-5.663,3.214-8.287c0.655-1.294,1.398-2.542,2.185-3.478
			c0.387-0.467,0.784-0.857,1.12-1.101c0.34-0.249,0.576-0.327,0.697-0.344l0.092-0.008c0.029,0.005,0.021-0.02,0.239,0.019
			l0.979,0.127c0.674,0.019,1.265,0.296,1.901,0.434c0.326,0.053,0.602,0.241,0.903,0.359c0.294,0.139,0.602,0.247,0.893,0.398
			l0.84,0.532l0.427,0.257l0.394,0.327c2.125,1.69,3.936,4.153,5.178,7.033c1.264,2.865,2.085,6.039,2.494,9.224
			c0.11,0.795,0.146,1.596,0.228,2.391c0.013,0.81,0.06,1.549,0.055,2.409c-0.006,1.71-0.042,3.395-0.136,5.031
			c-0.093,1.635-0.236,3.229-0.472,4.727l-0.122,0.733l-0.085,0.466c-0.065,0.299-0.13,0.597-0.195,0.892
			c-0.277,1.147-0.619,2.2-1.015,2.932c-0.387,0.767-0.782,1.144-0.998,1.285c-0.221,0.115-0.391,0.196-0.846,0.17
			c-0.211-0.007-0.467-0.05-0.729-0.108c-0.135-0.035-0.266-0.069-0.394-0.102l-0.113-0.055c-0.083-0.028-0.169-0.101-0.27-0.156
			c-0.097-0.115-0.203-0.134-0.303-0.273c-0.506-0.514-1.071-1.425-1.528-2.408c-0.465-0.99-0.872-2.055-1.223-3.131
			c-0.72-2.146-1.284-4.291-1.855-6.4c-1.095-4.247-2.219-8.415-3.305-13.522c-1.438,5.037-2.272,9.41-2.465,14.139
			c-0.066,2.371,0.013,4.83,0.513,7.564c0.243,1.365,0.608,2.805,1.197,4.346c0.608,1.532,1.397,3.215,2.984,4.916
			c0.29,0.343,0.755,0.702,1.195,1.077c0.493,0.355,1.059,0.741,1.734,1.046c0.345,0.149,0.706,0.294,1.079,0.431
			c0.299,0.081,0.606,0.165,0.922,0.25c0.644,0.15,1.354,0.278,2.164,0.319c0.801,0.048,1.709-0.008,2.657-0.212
			c0.952-0.217,1.932-0.608,2.823-1.164c1.784-1.134,3.014-2.771,3.816-4.334c0.833-1.589,1.311-3.174,1.703-4.765
			c0.1-0.399,0.174-0.792,0.262-1.193l0.109-0.595l0.154-0.92c0.29-1.852,0.45-3.68,0.555-5.503
			c0.105-1.824,0.143-3.639,0.149-5.453c0.007-0.902-0.044-1.93-0.067-2.894c-0.091-0.971-0.144-1.95-0.276-2.921
			c-0.501-3.885-1.482-7.759-3.126-11.486c-1.622-3.712-4.086-7.313-7.555-10.064c-0.215-0.172-0.424-0.35-0.645-0.515l-0.706-0.449
			l-1.423-0.878c-0.492-0.26-1.015-0.473-1.523-0.703c-0.518-0.211-1.013-0.482-1.557-0.607c-1.072-0.282-2.135-0.668-3.221-0.748
			l-1.62-0.196c-0.213-0.04-0.657-0.043-1.062-0.032c-0.405-0.003-0.803,0.069-1.201,0.126c-1.591,0.278-2.945,0.982-3.986,1.745
			c-1.051,0.771-1.855,1.61-2.552,2.443c-1.387,1.674-2.333,3.347-3.173,4.987c-1.636,3.283-2.749,6.463-3.705,9.513
			c-1.872,6.1-3.052,11.676-3.975,16.455c-0.911,4.777-1.521,8.756-1.941,11.658c-0.158,1.149-0.313,2.271-0.465,3.368
			c-0.07,0.537-0.139,1.066-0.206,1.59l0.001-0.005l0.003-0.004l0.003,0h0.002c-0.018,0,0.096,0.004-0.249-0.009
			c-3.833-0.143-7.268-0.181-10.353-0.155c-6.167,0.051-10.923,0.357-14.525,0.717c-3.602,0.363-6.049,0.774-7.592,1.064
			c-1.543,0.296-2.18,0.452-2.18,0.452s-0.629,0.131-1.829,0.451c-1.199,0.33-2.967,0.806-5.282,1.839
			c-1.156,0.533-2.466,1.214-3.877,2.343c-0.699,0.567-1.432,1.255-2.101,2.178c-0.666,0.907-1.265,2.053-1.579,3.353
			c-0.159,0.651-0.235,1.314-0.26,1.987c0.004,0.326,0.016,0.655,0.034,0.986c0.025,0.319,0.082,0.585,0.127,0.884
			c0.1,0.583,0.187,1.167,0.419,1.772c0.199,0.603,0.408,1.209,0.751,1.785c0.162,0.289,0.325,0.58,0.489,0.873
			c0.188,0.273,0.396,0.534,0.602,0.8c0.401,0.554,0.872,1.007,1.362,1.451c0.977,0.895,2.061,1.552,3.156,2.115
			c2.203,1.085,4.451,1.635,6.696,2.005c2.248,0.359,4.511,0.506,6.802,0.55c4.578,0.083,9.288-0.27,14.075-0.688
			c2.376-0.201,4.822-0.444,7.069-0.53c0.555-0.021,1.096-0.024,1.528-0.003c0.205,0.012,0.432,0.024,0.477,0.042
			c0.085-0.018,0.204,0.08,0.313,0.111c0.163,0.008,0.618,0.284,0.998,0.48c0.188,0.082,0.409,0.238,0.629,0.388l0.659,0.439
			c1.793,1.272,3.637,2.908,5.429,4.609c1.801,1.713,3.55,3.567,5.272,5.456c1.719,1.897,3.381,3.872,4.961,5.875
			c0.789,1.001,1.549,2.018,2.246,3.02c0.335,0.497,0.701,1.01,0.959,1.466l0.214,0.351l0.107,0.175
			c-0.364,0.224,3.71-2.024,1.748-0.925l-0.464,0.279c-0.312,0.181-0.628,0.352-0.948,0.513l-0.349,0.17l-0.003,0.002l-0.004,0.003
			l0.004,0.004c0.001-0.055,0.042,0.144,0.067,0.25l0.18,0.733l0.162,0.888c0.115,0.579,0.207,1.21,0.299,1.841
			c0.196,1.242,0.34,2.552,0.499,3.833c0.294,2.591,0.558,5.194,0.787,7.792c0.924,10.393,1.585,20.572,2.163,29.903
			c0.646,11.309,1.178,20.586,1.442,25.219C459.133,288.159,460.823,294.968,463.793,305z"/>
		<path d="M470.553,113.729c2.145-0.508,3.844-0.663,5.369-0.946c1.524-0.263,2.869-0.636,4.36-1.084
			c0.202-0.063,0.455-0.152,0.745-0.191c0.29-0.052,0.625-0.151,0.98-0.153c0.18-0.018,0.367-0.036,0.562-0.056
			c0.19,0.011,0.389,0.021,0.594,0.033c0.206-0.004,0.417,0.008,0.628,0.066l0.288,0.052l0.046,0l-0.013-0.003
			c0.098,0.113,0.397,0.608,0.609,1.118c0.469,1.068,0.857,2.491,1.158,3.908c0.599,2.869,0.883,5.824,1.032,7.995
			c0.146,2.179,0.177,3.6,0.177,3.6s0.045,1.417,0.028,3.62c-0.022,2.2-0.122,5.192-0.411,8.277
			c-0.281,3.071-0.758,6.288-1.419,8.646c-0.161,0.588-0.338,1.106-0.505,1.521c-0.056,0.139-0.055,0.139-0.051,0.131l0.002-0.001
			l0.005-0.002l0.036,0.014l0.026,0.026c-0.195,0.012-0.387,0.024-0.573,0.037c-0.43,0.005-0.842,0.021-1.246,0.067
			c-0.81,0.114-1.575,0.182-2.366,0.399c-1.572,0.327-3.189,0.934-5.334,1.45c1.238,1.845,2.589,3.205,4.164,4.233
			c0.804,0.465,1.655,0.931,2.642,1.194c0.49,0.143,1.005,0.274,1.552,0.375l0.421,0.05l0.215,0.022l0.108,0.01h0.186
			c0.512-0.008,1.037-0.016,1.576-0.024c0.292-0.008,0.622-0.017,0.985-0.026c0.188,0.013,0.362-0.037,0.539-0.1
			c0.18-0.05,0.365-0.124,0.556-0.204c0.759-0.333,1.542-0.892,2.229-1.705c0.334-0.417,0.662-0.877,0.949-1.4
			c0.16-0.249,0.278-0.534,0.418-0.812c0.144-0.285,0.271-0.574,0.331-0.736c0.317-0.777,0.577-1.562,0.8-2.358
			c0.888-3.182,1.368-6.704,1.679-10.085c0.619-6.737,0.363-12.839,0.363-12.839s-0.024-1.528-0.173-3.909
			c-0.158-2.385-0.438-5.611-1.152-9.097c-0.375-1.751-0.826-3.556-1.639-5.449c-0.432-0.965-0.881-1.887-1.745-2.986
			c-0.957-1.208-2.228-2.123-3.6-2.535c-0.331-0.084-0.662-0.157-0.991-0.22c-0.248-0.044-0.492-0.087-0.734-0.129
			c-0.459-0.094-0.909-0.128-1.349-0.136c-0.438-0.013-0.861-0.025-1.269-0.037c-0.4,0.035-0.785,0.068-1.151,0.1
			c-0.742,0.047-1.368,0.206-1.923,0.325c-0.562,0.108-1.007,0.261-1.363,0.381c-2.65,0.894-4.259,2.323-5.365,3.911
			C471.45,109.671,470.824,111.523,470.553,113.729z"/>
		<path d="M488.801,113.729c2.163-0.188,3.838-0.084,5.304-0.068c1.189,0.011,2.349,0.022,3.828,0.037
			c0.487,0.067,1.212,0.027,2.387,0.954c-0.008,0.006-0.034-0.048,0.089,0.157c0.102,0.167,0.235,0.473,0.362,0.833
			c0.261,0.721,0.491,1.695,0.671,2.737c0.366,2.097,0.535,4.503,0.609,6.695c0.072,2.199,0.043,4.209,0.002,5.66
			c-0.057,1.453-0.091,2.348-0.091,2.348s-0.061,1.198-0.21,3.081c-0.153,1.881-0.409,4.45-0.811,7.148
			c-0.396,2.686-0.947,5.55-1.629,7.757c-0.247,0.776-0.142,0.435-0.162,0.507l0.008-0.008l0.016,0.012l-0.001,0.003l-0.003,0.001
			c-0.005-0.001,0.023,0.013-0.07-0.031c-1.639-0.761-3.143-1.322-4.762-1.574c-1.613-0.3-3.364-0.327-5.537-0.429
			c0.621,2.095,1.322,3.77,2.314,5.254c1.033,1.454,2.317,2.743,4.502,3.849c0.056,0.033,0.246,0.114,0.434,0.197
			c0.192,0.084,0.416,0.183,0.69,0.303c0.274,0.12,0.601,0.262,0.998,0.435c0.408,0.149,0.89,0.326,1.464,0.537
			c0.625,0.029,1.354,0.12,2.146,0.111c0.789-0.124,1.679-0.521,2.406-1.129c0.742-0.618,1.407-1.505,1.952-2.589
			c0.536-1,1.064-2.586,1.214-3.085c0.894-2.919,1.458-6.024,1.891-8.966c0.854-5.858,1.048-10.973,1.048-10.973
			s0.043-0.958,0.111-2.515c0.052-1.56,0.094-3.721,0.022-6.15c-0.076-2.433-0.241-5.118-0.702-7.805
			c-0.235-1.347-0.529-2.688-1.018-4.059c-0.246-0.686-0.529-1.373-0.943-2.094c-0.38-0.687-1.003-1.529-1.691-2.143
			c-0.914-0.69-1.6-1.285-2.445-1.658c-0.398-0.2-0.774-0.383-1.131-0.541c-0.378-0.115-0.73-0.222-1.06-0.322
			c-0.662-0.214-1.234-0.285-1.729-0.334c-0.492-0.05-0.912-0.109-1.237-0.082c-0.775,0.022-1.518,0.068-2.15,0.247
			c-0.323,0.078-0.643,0.155-0.938,0.253c-0.285,0.11-0.56,0.226-0.825,0.346c-1.062,0.479-1.881,1.115-2.573,1.815
			C490.188,109.864,489.337,111.608,488.801,113.729z"/>
		<path d="M506.373,118.46c1.977,0.597,3.45,1.242,4.778,1.695c1.304,0.465,2.526,0.78,3.441,1.062
			c0.247,0.073,0.551,0.2,0.75,0.359c0.208,0.154,0.369,0.344,0.586,0.908c0.188,0.548,0.384,1.827,0.466,3.103
			c0.092,1.303,0.118,2.715,0.11,4.106c-0.031,2.792-0.195,5.504-0.364,7.499c-0.171,1.996-0.318,3.282-0.318,3.281
			c0,0-0.096,0.899-0.295,2.335c-0.196,1.436-0.491,3.413-0.904,5.537c-0.414,2.112-0.94,4.417-1.59,6.293
			c-0.154,0.479-0.329,0.9-0.49,1.285c-0.084,0.174-0.164,0.379-0.242,0.522l-0.05,0.089l0.009-0.014l0.016-0.023l0.018-0.005
			l0.02-0.002c0.011-0.001,0.04-0.004-0.12,0.009c-0.222,0.018-0.429,0.036-0.623,0.052c-0.367,0.001-0.684,0.001-0.957,0.002
			c-0.562,0.022-0.898-0.024-1.158-0.045c-1.483-0.121-2.305-0.06-3.235,0.086c-0.464,0.053-1.012,0.108-1.636-0.104
			c-0.62-0.205-1.374-0.664-1.927-1.535c-0.714,0.772-1.092,1.839-1.105,2.958c-0.025,1.133,0.396,2.287,1.075,3.237
			c1.397,1.926,3.634,2.972,6.054,3.228c0.438,0.05,1.028,0.121,1.812,0.109c0.397,0,0.856,0.001,1.389,0.002
			c0.688-0.051,1.472-0.109,2.368-0.176c0.192-0.045,0.388-0.09,0.587-0.137l0.302-0.07l0.076-0.018l0.038-0.009l0.009-0.002
			l-0.013-0.06l0.02-0.006l0.151-0.048c0.203-0.064,0.409-0.13,0.619-0.196c0.199-0.09,0.381-0.226,0.574-0.346
			c0.747-0.516,1.432-1.208,2.015-2.054c0.149-0.206,0.289-0.448,0.427-0.68c0.113-0.205,0.228-0.412,0.343-0.62
			c0.173-0.33,0.297-0.63,0.448-0.956c0.27-0.631,0.521-1.265,0.725-1.886c0.854-2.5,1.405-5.038,1.86-7.381
			c0.445-2.336,0.749-4.453,0.95-5.991c0.206-1.537,0.302-2.494,0.302-2.494c0.001,0,0.166-1.367,0.357-3.494
			c0.19-2.128,0.382-5.017,0.425-8.098c0.013-1.546-0.011-3.139-0.122-4.749c-0.136-1.631-0.26-3.194-0.88-5.126
			c-0.631-1.896-1.945-3.695-3.361-4.686c-1.401-1.028-2.653-1.413-3.425-1.623c-1.454-0.372-2.679-0.344-3.723-0.165
			c-1.046,0.187-1.925,0.542-2.708,1C508.689,115.354,507.471,116.689,506.373,118.46z"/>
		<path d="M513.807,160.363c-1.647,4.958-3.308,8.915-4.972,12.979c-0.2,0.508-0.403,1.02-0.606,1.536
			c-0.223,0.504-0.447,1.014-0.675,1.53c-0.47,1.018-0.819,2.124-1.364,3.162c-0.518,1.044-0.977,2.197-1.527,3.296
			c-0.544,1.078-1.176,2.2-1.889,3.382c-0.989,1.58-2.596,4.243-7.053,9.128c-0.899,0.96-1.869,1.967-2.936,2.991
			c-0.268,0.254-0.538,0.513-0.812,0.775l-0.418,0.39l-0.628,0.567c-0.27,0.24-0.54,0.481-0.813,0.724
			c-0.314,0.267-0.632,0.536-0.951,0.807c-0.328,0.275-0.658,0.551-0.99,0.83l-0.249,0.209l-0.124,0.104l0.02,0.153l0.135,0.635
			c1.021,4.861,2.145,10.204,3.326,15.832c1.021,4.95,2.092,10.15,3.179,15.428c2.154,10.561,4.323,21.44,6.21,31.256
			c1.896,9.814,3.489,18.567,4.551,24.856c0.53,3.145,0.957,5.676,1.202,7.411c0.263,1.739,0.407,2.695,0.407,2.695
			s0.169,0.972,0.362,2.688c0.104,0.861,0.232,1.917,0.382,3.145c0.087,0.627,0.082,1.189,0.135,1.847
			c0.021,0.635,0.129,1.341,0.094,2.021c-0.055,0.669-0.031,1.413-0.136,2.111c-0.057,0.345-0.115,0.698-0.174,1.057
			c-0.028,0.18-0.057,0.361-0.085,0.544l-0.163,0.508c-0.103,0.344-0.206,0.693-0.312,1.049c-0.138,0.339-0.32,0.66-0.473,1.002
			l-0.235,0.515c-0.083,0.172-0.218,0.323-0.322,0.488c-0.219,0.328-0.44,0.661-0.664,0.999c-2.063,2.609-5.682,5.076-9.907,7.28
			c-8.526,4.402-19.013,8.282-29.06,12.126c-10.114,3.665-19.947,7.074-28.123,9.98c-8.813,2.806-14.269,4.541-17.118,5.448
			c-5.743,1.904-10.208,3.507-14.336,5.415c-2.065,0.949-4.052,1.955-6.09,3.053c-2.039,1.087-4.14,2.225-6.425,3.512
			c2.606-0.065,5.018-0.13,7.332-0.287c2.309-0.168,4.532-0.39,6.798-0.703c4.527-0.64,9.244-1.572,15.058-3.435
			c2.877-0.906,8.388-2.642,17.29-5.445c8.266-2.93,18.231-6.387,28.436-10.091c10.122-3.889,20.596-7.726,29.944-12.545
			c1.165-0.635,2.319-1.208,3.438-1.931c0.56-0.344,1.116-0.686,1.667-1.024c0.551-0.338,1.082-0.761,1.615-1.134
			c2.143-1.459,4.09-3.354,5.755-5.366c0.376-0.555,0.746-1.103,1.111-1.643c0.175-0.276,0.371-0.533,0.52-0.822
			c0.142-0.293,0.282-0.583,0.423-0.872c0.27-0.581,0.559-1.147,0.783-1.721c0.181-0.586,0.358-1.164,0.533-1.73
			c0.083-0.285,0.166-0.566,0.248-0.846c0.048-0.278,0.096-0.553,0.144-0.826c0.088-0.546,0.174-1.082,0.258-1.606
			c0.146-1.044,0.13-2.001,0.19-2.938c0.037-0.93-0.076-1.753-0.106-2.564c-0.059-0.788-0.078-1.594-0.167-2.23
			c-0.16-1.304-0.297-2.425-0.408-3.339c-0.211-1.84-0.382-2.808-0.382-2.808s-0.146-0.98-0.414-2.764
			c-0.252-1.792-0.681-4.357-1.215-7.542c-1.068-6.372-2.662-15.18-4.558-25.034c-1.887-9.857-4.054-20.767-6.208-31.35
			c-1.089-5.29-2.161-10.5-3.183-15.46c-0.896-4.274-1.748-8.332-2.523-12.024l-0.005,0.006l0.016-0.014l0.112-0.102
			c0.251-0.233,0.498-0.463,0.741-0.69c0.303-0.29,0.603-0.575,0.896-0.857c1.175-1.13,2.241-2.239,3.233-3.303
			c4.93-5.409,6.83-8.544,7.995-10.452c0.843-1.427,1.568-2.841,2.161-4.259c0.58-1.397,0.958-2.726,1.378-4.013
			c0.444-1.279,0.617-2.545,0.88-3.76c0.115-0.61,0.231-1.21,0.324-1.807c0.062-0.599,0.124-1.192,0.185-1.782
			C514.925,170.01,514.677,165.527,513.807,160.363z"/>
		<path d="M240.25,436.625c1.268-0.32,2.491-0.553,3.669-0.776c1.188-0.207,2.332-0.406,3.447-0.602
			c2.28-0.293,4.4-0.713,6.614-1.048c2.225-0.31,4.427-0.813,6.854-1.255c2.437-0.416,5.003-1.037,7.907-1.668
			c0.989-0.195,2.29-0.452,4.179-0.825c1.894-0.354,4.348-0.949,7.745-1.386c1.742-0.232,5.855-0.892,5.855-0.892
			s0.862-0.12,1.965-0.273c1.104-0.146,2.464-0.251,3.427-0.366c9.115-1.059,14.771-1.269,17.722-1.505
			c2.984-0.147,5.641-0.272,8.11-0.526c2.469-0.228,4.74-0.396,6.971-0.721c4.453-0.513,8.685-1.347,13.874-1.844
			c-2.415-1.019-4.725-1.751-6.976-2.43c-2.252-0.586-4.465-1.16-6.747-1.526c-2.28-0.343-4.646-0.687-7.203-0.811
			c-2.555-0.098-5.319-0.163-8.404-0.042c-3.04,0.21-8.889,0.414-18.239,1.492c-0.991,0.105-2.381,0.229-3.52,0.395
			c-1.139,0.179-2.03,0.319-2.03,0.319s-4.271,0.585-6.068,0.878c-3.51,0.459-6.075,1.081-8.042,1.457
			c-1.964,0.401-3.314,0.677-4.344,0.888c-3.023,0.689-5.679,1.532-8.124,2.316c-2.44,0.811-4.621,1.842-6.722,2.812
			c-2.097,0.996-4.049,2.227-6.034,3.445c-0.976,0.673-1.952,1.366-2.941,2.086C242.214,434.963,241.22,435.748,240.25,436.625z"/>
		<path d="M284.35,283.034c3.876,3.529,7.767,6.476,11.679,9.115c3.921,2.635,7.903,4.939,12.178,6.947
			c2.124,1.044,4.352,1.923,6.648,2.836c2.325,0.821,4.72,1.687,7.284,2.361c2.542,0.752,5.248,1.313,8.095,1.89
			c2.849,0.468,5.969,0.957,8.952,1.207c2.067,0.196,4.783,0.455,8.729,0.83c3.947,0.37,9.122,0.892,16.135,1.349
			c3.469,0.27,9.308,0.707,14.312,0.922c0.625,0.032,1.235,0.062,1.827,0.092l0.11,0.006h0.009l-0.003-0.001l-0.006-0.002
			l-0.011-0.004l-0.017-0.014l0.009-0.014l-0.012,0.008h-0.012l-0.006-0.003c0.045,0.443,0.093,0.904,0.142,1.378
			c0.461,4.34,1.021,9.621,1.422,13.389c1.905,17.456,3.084,28.26,3.699,33.902c0.004-0.007,0.114,0.06,0.118,0.151l-0.058,0.186
			c-0.065,0.017-0.03,0.021-0.177,0.056l-0.477,0.105l-0.945,0.212c-0.627,0.145-1.246,0.288-1.86,0.431
			c-4.908,1.161-9.403,2.418-13.749,3.811s-8.543,2.92-12.853,4.627c-2.154,0.854-4.337,1.753-6.579,2.706
			c-1.119,0.483-2.255,0.974-3.411,1.474c-0.576,0.257-1.157,0.516-1.744,0.777l-0.882,0.405l-0.441,0.21l-0.221,0.111l-0.109,0.062
			l-0.059,0.051l0.068,0.014l0.009-0.009l0.12-0.002l0.241,0.005l0.483,0.02l0.961,0.052c0.638,0.039,1.27,0.078,1.896,0.116
			c1.253,0.079,2.483,0.156,3.695,0.233c2.424,0.148,4.774,0.28,7.085,0.382c4.62,0.205,9.077,0.296,13.633,0.217
			s9.21-0.326,14.226-0.79c0.626-0.062,1.259-0.123,1.898-0.185l0.962-0.1l0.485-0.052l0.79-0.103
			c2.568-0.361,5.191-0.729,7.879-1.107c1.36-0.199,2.737-0.401,4.131-0.606c0.698-0.104,1.402-0.209,2.109-0.315
			c-0.025-0.665-0.123-1.392-0.183-2.094c-0.29-2.854-0.587-5.779-0.892-8.787c-0.668-6.303-1.948-18.37-4.017-37.868
			c-1.073-9.799-3.009-27.474-3.009-27.474s-0.014-0.127-0.039-0.369l-0.021-0.203l-0.012-0.117l-0.064-0.073
			c-0.177-0.009-0.38-0.019-0.608-0.03c-0.916-0.045-2.239-0.11-3.87-0.189c-1.642-0.081-3.594-0.177-5.753-0.284
			c-1.562-0.083-3.274-0.173-5.064-0.268c-4.872-0.243-10.61-0.695-14.018-0.91c-6.882-0.438-11.968-0.941-15.847-1.29
			c-3.88-0.345-6.549-0.582-8.582-0.763c-3.074-0.229-5.647-0.548-8.238-0.779c-2.561-0.339-5.018-0.576-7.382-0.931
			c-2.375-0.274-4.648-0.667-6.896-0.941c-2.228-0.368-4.433-0.627-6.598-0.988c-4.351-0.638-8.633-1.305-13.103-2.072
			C294.075,285.164,289.41,284.331,284.35,283.034z"/>
		<path fill="#FFFFFF" d="M0,285.717c0,0,78.32-17.236,91.108-12.232s60.05,41.145,67.278,48.93
			c7.229,7.784,27.244,20.572,17.792,26.133c-9.452,5.56-68.945-50.042-80.066-52.266c-11.12-2.224-30.58,5.004-31.137,7.228
			c-0.556,2.224,43.369,20.573,36.142,31.137c-7.229,10.564-59.494-12.789-65.61-11.121C29.391,325.195,0,337.983,0,337.983V285.717
			z"/>
		<path fill="#CABEC3" d="M106.042,640c0,0-2.232-34.082,4.457-48.576c6.689-14.492,80.271-47.384,77.483-55.744
			c-2.787-8.362-57.975,20.627-60.203,18.953c-2.229-1.673-2.229-1.673-2.229-1.673l-0.001-3.901c0,0,21.74-23.97,35.119-34.004
			c13.377-10.035,22.296-14.493,17.279-22.299c-7.19-11.184-55.742,40.696-59.087,41.809c-3.345,1.115-5.575-1.671-6.69-2.787
			c-1.114-1.113,54.071-60.203,43.479-68.008c-7.01-5.164-49.054,56.86-52.396,60.205c-3.346,3.345-8.362,0-8.362,0
			s28.985-65.777,18.393-67.45c-10.59-1.673-30.657,63.549-35.674,71.91c-5.016,8.363-7.164,14.344-12.18,15.458
			c-5.018,1.115-29.867-44.362-36-36c-6.131,8.361,21.424,50.645,25.325,65.693c3.902,15.052,3.903,60.361-1.112,66.414H106.042z"/>
	</g>
</g>
</svg>
