<?xml version="1.0" encoding="utf-8"?>
<!-- Generator: Adobe Illustrator 16.0.0, SVG Export Plug-In . SVG Version: 6.00 Build 0)  -->
<!DOCTYPE svg PUBLIC "-//W3C//DTD SVG 1.1//EN" "http://www.w3.org/Graphics/SVG/1.1/DTD/svg11.dtd">
<svg version="1.1" xmlns="http://www.w3.org/2000/svg" xmlns:xlink="http://www.w3.org/1999/xlink" x="0px" y="0px" width="640px"
	 height="640px" viewBox="0 0 640 640" enable-background="new 0 0 640 640" xml:space="preserve">
<g id="fond">
</g>
<g id="couleurs">
</g>
<g id="traits">
	<g>
		<rect fill="#FFE4B7" width="640" height="640"/>
		<path fill="#FBC583" d="M324.43,0c0,0-25,86.893-8,118.893s61,75,125,40s197.101-34.578,198.57-18c2.57,29-3.57,94-3.57,94l-68,27
			l-222,10l-111-34L146.43,0H324.43z"/>
		<path fill="#FBC583" d="M0,600.893c0,0,59-86,97-81s136,95,252,62s154-126,207-129s80.57-6,80.57-6v-130l-395.57,79l-175-7l-66,4
			V600.893z"/>
		<path fill="#E86DA6" d="M0,113.893c0,0,58.43,78,86.43,111s45,65,65,55s76-56,76-56l67-38c0,0-9-45-39-90S192.43,0,192.43,0H0
			V113.893z"/>
		<path fill="#E86DA6" d="M0,235.893l107.43,45c0,0-37,63-57,110s-16,35-16,35l27,15c0,0-31,62-39,63s-22.43-2-22.43-2V235.893z"/>
		<path fill="#E86DA6" d="M588.43,304.893l20,59l31.57-14v-142l-39.57,20C600.43,227.893,596.43,295.893,588.43,304.893z"/>
		<path fill="#F3B2D1" d="M38.43,422.893c0.3,3.148,66,47,66,47l25-45l-18-9l43-109l-54-15
			C100.43,291.893,36.43,401.893,38.43,422.893z"/>
		<path fill="#F3B2D1" d="M176.43,271.893l13,22l115-55l-24-40C280.43,198.893,170.43,251.893,176.43,271.893z"/>
		<path fill="#F3B2D1" d="M254.43,349.893c0,0,33-40,90-64s99-29,112-19s23,39,36,36s13-3,13-3s3,14,20,16s23-3,23-3s6,4,12,0
			s10-8,10-8h18l12,52l-43,8l-32,35c0,0-119-90-150-77S271.43,382.893,254.43,349.893z"/>
		<path fill="#F3B2D1" d="M186.43,491.893c0,0-32-9-8-29s35-13,36,3s-8,31-8,31L186.43,491.893z"/>
		<path fill="#F3B2D1" d="M215.43,503.893c0,0,7-35,26-30s14,19,14,19l-7,29C248.43,521.893,213.43,512.893,215.43,503.893z"/>
		<path fill="#F3B2D1" d="M267.43,485.893c0,0,10-12,21-1s12,22,12,22l-7,25c0,0-41-2-40-14S261.43,485.893,267.43,485.893z"/>
		<path fill="#F3B2D1" d="M301.43,523.893c0,0,5-25,20-24s23,20,23,20l1,17c0,0-37,20-42-8"/>
		<path fill="#FFFFFF" d="M339.43,242.893c0,0,91-62,110-55s22,18,22,18s23-27,37-22s17,13,17,13s7-18,22-13s15,10,15,10s10-7,24-2
			s14,21,14,21s0,95-20,94s-10-9-10-9s-7,16-10,15s-12,0-12,0s-5,7-17,5s-26-18-26-18s-11,5-18,1s-31-34-31-34s-20-7-26-5
			s-40,4-40,4S351.43,242.893,339.43,242.893z"/>
		<path fill="#FFFFFF" d="M152.43,313.893c0,0,78-43,106-56s52-22,65-21s67,24,67,24l-56,32c0,0-83,40-76,56s33,7,54,0s71-32,71-32
			s36,14,54,25s96,54,92,65s-34,37-43,35s-9-2-9-2s1,11-8,19s-35,13-35,13s-4,16-12,20s-30,5-30,5s-4,13-15,18s-33,5-33,5
			s-9-22-19-20s-21,13-21,13s-4-30-21-30s-23,7-23,7s-16-17-19-16s-19,7-19,7s1-24-11-26s-25,4-25,4l-75-43L152.43,313.893z"/>
		<path d="M-0.001,114.894c6.101,14.231,11.602,25.98,18.342,37.723c6.756,11.735,14.766,23.469,26.193,37.498
			c3.896,4.738,10.157,12.49,23.73,28.245c6.806,7.933,18.493,21.133,29.067,32.033c5.273,5.458,10.269,10.35,14.023,13.849
			c3.751,3.5,6.229,5.625,6.229,5.625s0.515,0.449,1.452,1.264c0.945,0.813,2.325,1.989,4.111,3.429
			c1.797,1.438,3.98,3.142,6.689,4.992c1.354,0.925,2.849,1.885,4.565,2.857c0.941,0.518,1.515,0.86,3.291,1.692
			c1.461,0.642,2.952,1.257,4.511,1.695c3.105,0.904,6.41,1.195,9.655,0.532c0.807-0.173,1.611-0.394,2.384-0.688
			c0.389-0.142,0.775-0.289,1.142-0.472c0.185-0.089,0.375-0.167,0.556-0.266l0.506-0.384c1.352-1.025,2.712-2.058,4.078-3.095
			l1.025-0.778l0.515-0.39l0.274-0.234l1.052-0.908l2.109-1.823c1.438-1.213,2.732-2.445,4.067-3.662
			c2.61-2.407,5.181-4.778,7.625-7.032c1.195-1.109,2.359-2.189,3.482-3.232c1.115-0.996,2.189-1.956,3.213-2.869
			c2.472-2.192,4.808-4.317,7.125-6.129c1.146-0.934,2.262-1.844,3.35-2.73c1.099-0.873,2.115-1.788,3.213-2.545
			c2.148-1.573,4.178-3.059,6.093-4.46c0.956-0.702,1.884-1.384,2.783-2.044c0.942-0.616,1.854-1.212,2.738-1.79
			c3.53-2.315,6.595-4.324,9.222-6.046c2.734-1.611,5.014-2.955,6.869-4.047c1.867-1.124,3.685-2.216,5.456-3.282
			c0.886-0.535,1.742-1.088,2.615-1.599c0.878-0.505,1.746-1.003,2.603-1.496c3.423-1.985,6.651-3.937,9.735-5.879
			c6.296-3.672,11.941-7.419,17.528-11c11.11-7.291,21.425-14.853,34.212-23.553c-15.397,1.694-28.287,4.077-41.416,7.966
			c-6.598,1.879-13.165,4.391-20.221,7.28c-3.48,1.559-7.07,3.244-10.81,5.078c-0.933,0.462-1.877,0.93-2.833,1.403
			c-0.949,0.489-1.891,1.034-2.852,1.563c-1.91,1.086-3.869,2.201-5.883,3.346c-1.981,1.15-4.415,2.563-7.335,4.258
			c-2.858,1.856-6.192,4.021-10.034,6.516c-0.959,0.626-1.949,1.272-2.973,1.939c-0.996,0.725-2.022,1.472-3.081,2.243
			c-2.115,1.544-4.357,3.181-6.731,4.914c-1.207,0.838-2.343,1.843-3.56,2.807c-1.205,0.979-2.442,1.985-3.712,3.017
			c-2.587,2.032-5.101,4.308-7.773,6.675c-1.099,0.978-2.288,2.007-3.456,3.074c-1.15,1.066-2.345,2.172-3.569,3.307
			c-2.406,2.222-4.936,4.559-7.504,6.932c-1.268,1.159-2.545,2.38-3.821,3.454c-1.035,0.9-2.07,1.799-3.097,2.691l0.016,0.037
			l0.012,0.01c0.332,0.17-0.471-0.237-0.869-0.465c-0.957-0.536-1.955-1.162-2.92-1.816c-1.932-1.304-3.724-2.678-5.213-3.86
			c-1.492-1.191-2.695-2.204-3.522-2.908c-0.827-0.712-1.281-1.104-1.281-1.104s-2.167-1.878-5.597-5.109
			c-3.43-3.227-8.104-7.841-13.128-13.077c-10.071-10.45-21.487-23.383-28.213-31.112c-13.337-15.44-19.567-23.086-23.456-27.719
			c-11.421-13.736-20.986-24.029-30.772-33.25C22.049,132.751,12.05,124.602-0.001,114.894z"/>
		<path d="M193.097,0.001c-1.006,12.66-0.819,20.707,5.432,31.248c6.771,11.417,41.677,67.988,41.677,67.988
			s2.162,3.548,5.514,9.046c1.558,2.719,3.392,5.921,5.389,9.408c1,1.742,2.041,3.556,3.108,5.416
			c0.528,0.932,1.086,1.865,1.608,2.827c0.499,0.973,1.002,1.954,1.507,2.941c2.028,3.946,4.102,7.982,6.117,11.906
			c1.908,3.968,3.632,7.874,5.289,11.427c1.708,3.539,2.973,6.852,4.119,9.6c1.142,2.749,2.063,4.965,2.677,6.442
			c2.017,5.496,4.709,9.441,7.785,13.026c1.572,1.792,3.438,3.486,5.332,5.23c0.973,0.876,2.007,1.772,3.109,2.712
			c1.081,0.921,2.141,1.879,3.336,3.009c0.659-1.374,1.299-2.841,1.802-4.237c0.494-1.371,0.938-2.718,1.327-4.051
			c0.816-2.698,1.242-5.194,1.492-7.758c0.553-5.168-0.269-10.178-2.311-16.253c-0.615-1.608-1.576-4.005-2.768-6.979
			c-1.206-2.966-2.567-6.551-4.369-10.321c-1.755-3.796-3.602-7.971-5.638-12.193c-2.146-4.16-4.354-8.438-6.511-12.623
			c-0.541-1.045-1.079-2.085-1.611-3.115c-0.557-1.016-1.146-2-1.708-2.984c-1.134-1.961-2.239-3.874-3.301-5.711
			c-2.128-3.672-4.081-7.043-5.74-9.907c-3.384-5.488-5.567-9.029-5.567-9.029s-34.617-56.85-41.73-68.077
			C211.895,8.624,204.812,4.809,193.097,0.001z"/>
		<path d="M-10.571,237.895c3.263,9.454,5.872,14.924,13.146,18.148c7.879,3.492,47.787,19.901,47.787,19.901
			s39.759,16.768,47.787,19.9c1.854,0.724,3.601,1.141,5.32,1.292c0.43,0.038,0.857,0.059,1.285,0.064l0.642-0.004l0.32-0.011
			l0.142-0.016l0.048-0.056c0.26-0.299,0.617-0.642,1.046-0.917c0.769-0.67,2.443-0.808,3.898-1.19
			c0.197-0.038,0.387-0.081,0.569-0.128c0.199-0.037,0.393-0.078,0.577-0.125c0.207-0.03,0.398-0.071,0.591-0.107
			c0.104,0.004,0.202-0.064,0.327,0.018l0.368,0.207c0.989,0.551,2.037,1.111,3.146,1.69c0.704-1.033,1.365-2.02,1.979-2.972
			c0.354-0.309,0.488-1.372,0.562-2.053c0.036-0.395,0.052-0.766,0.054-1.12c0.001-0.375-0.012-0.73-0.034-1.067
			c-0.095-1.387-0.342-2.64-0.669-3.806c-0.267-1.108-0.916-2.395-1.646-3.544c-0.187-0.292-0.386-0.579-0.595-0.862
			c-0.207-0.285-0.42-0.578-0.687-0.787c-0.509-0.461-1.051-0.922-1.624-1.381l-0.216-0.172l-0.126-0.128l-0.218-0.235l-0.449-0.458
			c-0.305-0.3-0.621-0.589-0.95-0.867c-1.319-1.114-2.846-2.061-4.664-2.868c-7.878-3.494-47.787-19.9-47.787-19.9
			s-39.758-16.771-47.787-19.9C4.159,231.549-1.562,233.549-10.571,237.895z"/>
		<path d="M106.429,287.892c-10.618,11.266-19.219,20.936-27.425,31.681c-4.121,5.357-8.043,11.061-12.059,17.375
			c-4.014,6.315-8.099,13.258-12.436,21.172c-1.479,2.669-3.307,6.333-6.022,11.565c-1.351,2.626-2.912,5.661-4.733,9.202
			c-0.91,1.771-1.885,3.669-2.931,5.706c-0.523,1.019-1.063,2.071-1.623,3.161c-0.278,0.553-0.565,1.081-0.851,1.679
			c-0.282,0.602-0.568,1.213-0.859,1.834c-1.202,2.495-3.028,6.704-4.466,10.289c-1.451,3.585-2.56,6.553-2.56,6.553
			s-0.998,2.462-2.203,5.62c-1.209,3.157-2.621,7.014-3.569,9.783c-2.319,6.641-4.288,12.688-5.979,18.174
			c-0.845,2.743-1.619,5.347-2.33,7.813c-0.351,1.236-0.689,2.436-1.019,3.599c-0.385,1.414-0.757,2.783-1.117,4.109
			c-2.261,8.521-3.895,15.959-4.794,21.878c-0.466,2.977-0.711,5.527-0.852,7.745c-0.05,1.085-0.068,2.083-0.07,3.007
			c0.044,0.86,0.032,1.757,0.119,2.456c0.249,2.993,0.926,5.214,1.762,6.972c0.872,1.714,1.84,3.059,3.096,4.105
			c0.317,0.297,0.634,0.592,0.947,0.885c0.345,0.283,0.73,0.54,1.162,0.812c0.433,0.262,0.928,0.558,1.498,0.801
			c0.56,0.284,1.196,0.478,1.735,0.631c1.105,0.311,1.974,0.36,2.809,0.365c0.827-0.002,1.601-0.094,2.371-0.26
			c3.04-0.659,6.224-2.368,9.758-5.762c3.511-3.381,7.112-8.288,10.288-13.302c3.192-5.017,6.008-10.124,8.399-14.844l0.223-0.438
			l0.105-0.214l0.062-0.147l0.247-0.588l0.488-1.181c0.317-0.789,0.636-1.58,0.955-2.372c0.626-1.589,1.234-3.191,1.83-4.813
			c2.376-6.487,4.564-13.275,6.711-20.715c-5.381,5.502-10.324,10.556-15.104,15.443c-1.182,1.214-2.353,2.417-3.519,3.615
			l-1.733,1.79l-0.861,0.892l-0.43,0.445l-0.107,0.111l-0.063,0.045l-0.118,0.076c-1.23,0.77-2.147,1.136-2.825,1.232
			c-1.356,0.192-1.747-0.69-1.734-1.715c0.003-0.259,0.029-0.52,0.066-0.803c0.026-0.296,0.152-0.637,0.249-0.849
			c0.204-0.447,0.332-0.597,0.36-0.629l0.053,0.011c0.516-1.83,1.066-3.781,1.652-5.857c0.677-2.328,1.416-4.796,2.224-7.404
			c1.616-5.216,3.505-10.995,5.725-17.332c0.942-2.626,2.264-6.308,3.35-9.333c1.115-3.005,1.988-5.356,1.988-5.356
			s1.111-2.783,2.508-6.1c1.387-3.325,3.081-7.146,4.075-9.37c0.254-0.544,0.505-1.08,0.751-1.607
			c0.25-0.527,0.546-1.077,0.811-1.602c0.541-1.056,1.063-2.077,1.569-3.064c1.011-1.976,1.953-3.816,2.833-5.534
			c1.756-3.437,3.261-6.382,4.563-8.931c2.622-5.098,4.34-8.609,5.787-11.284c4.224-7.895,7.773-15.051,10.845-21.816
			c3.073-6.765,5.643-13.148,8.033-19.444C98.782,315.251,102.327,302.818,106.429,287.892z"/>
		<path d="M102.43,289.561c8.894,5.233,16.409,9.463,24.569,13.249c4.08,1.894,8.321,3.676,12.977,5.418
			c1.168,0.425,2.357,0.857,3.573,1.3c0.611,0.213,1.229,0.429,1.853,0.646l0.235,0.081l0.105,0.037l0.002,0.006l0.006,0.023
			l0.007,0.042c0.01,0.102-0.057,0.14-0.08,0.148l-0.016,0l-0.004-0.006c-0.042,0.088,0.167-0.385-0.395,0.872
			c-1.572,3.554-3.636,8.216-6.422,14.511c-3.432,7.776-9.136,20.905-13.852,32.168c-1.185,2.813-2.317,5.503-3.35,7.956
			c-1.008,2.469-1.918,4.699-2.684,6.576c-1.531,3.753-2.484,6.091-2.484,6.091s-0.806,1.953-2.127,5.154
			c-1.267,3.242-3.026,7.748-5.001,12.803c-0.492,1.264-0.999,2.562-1.514,3.884c-0.479,1.361-0.967,2.747-1.458,4.145
			c-0.976,2.803-1.969,5.654-2.946,8.462c-1.866,5.607-3.395,11.092-4.641,15.724c-1.21,4.552-2.206,8.727-2.988,12.562
			c-0.189,0.964-0.374,1.9-0.553,2.811c-0.082,0.46-0.164,0.913-0.244,1.359c-0.064,0.378-0.127,0.752-0.19,1.124
			c-0.067,0.416-0.146,0.828-0.199,1.239c-0.219,1.636-0.501,3.245-0.625,4.756c-0.078,0.761-0.155,1.51-0.23,2.247
			c-0.038,0.714-0.076,1.416-0.113,2.106c-0.111,1.415-0.038,2.625-0.049,3.865c0.001,0.615,0.077,1.137,0.111,1.694
			c0.055,0.533,0.063,1.116,0.152,1.579c0.164,0.945,0.269,1.938,0.504,2.687c0.103,0.396,0.204,0.785,0.304,1.167
			c0.122,0.341,0.242,0.674,0.36,1.001c0.958,2.593,2.14,4.038,3.261,5.164c0.562,0.565,1.207,1.063,1.921,1.518
			c0.364,0.219,0.745,0.426,1.157,0.616c0.408,0.18,0.819,0.425,1.273,0.55c0.232,0.046,0.438,0.188,0.691,0.153l0.688,0.176
			c0.446,0.092,0.884,0.12,1.257,0.12c0.765,0.015,1.407-0.077,2.028-0.22c1.232-0.286,2.373-0.817,3.549-1.631
			c1.169-0.834,2.353-1.987,3.498-3.475c1.146-1.479,2.245-3.266,3.257-5.178c1.013-1.908,1.95-3.9,2.804-5.892
			c0.85-1.996,1.631-3.967,2.335-5.887c0.43-1.12,0.5-1.486,0.678-2.078c0.155-0.559,0.31-1.114,0.464-1.669
			c2.358-8.878,3.584-17.472,4.546-27.755c-5.657,8.618-10.44,15.738-15.062,23.234c-0.289,0.466-0.579,0.934-0.87,1.403
			c-0.271,0.436-0.656,1.101-0.691,1.011c-0.224,0.146-0.417,0.239-0.581,0.292c-0.329,0.105-0.547,0.047-0.684-0.09
			c-0.275-0.254-0.223-0.896-0.162-0.966l0.038-0.02l0.003,0.021l0.001,0.001h0.001l0.023-0.134c0.072-0.396,0.146-0.8,0.22-1.208
			c0.163-0.82,0.33-1.665,0.502-2.533c0.716-3.481,1.648-7.375,2.796-11.68c1.187-4.361,2.662-9.667,4.438-15.015
			c0.917-2.645,1.849-5.33,2.764-7.969c0.46-1.32,0.915-2.629,1.363-3.915c0.501-1.294,0.992-2.565,1.471-3.803
			c1.914-4.952,3.62-9.366,4.848-12.542c1.292-3.17,2.081-5.104,2.081-5.104s0.952-2.308,2.481-6.012
			c0.764-1.853,1.672-4.054,2.677-6.491c1.033-2.432,2.166-5.098,3.35-7.885c4.709-11.159,10.405-24.216,13.773-31.971
			c2.758-6.269,4.8-10.911,6.357-14.45c2.979-6.691,5.029-11.296,6.59-14.802c0.304-0.683,0.604-1.36,0.904-2.034l0.111-0.252
			l-0.223-0.098l-0.532-0.155l-1.06-0.308c-1.408-0.405-2.798-0.805-4.17-1.2c-2.735-0.77-5.399-1.52-8.003-2.253
			c-0.646-0.178-1.288-0.355-1.927-0.532c-0.523-0.141-1.045-0.281-1.562-0.42c-0.643-0.157-1.277-0.313-1.905-0.467
			c-1.261-0.292-2.495-0.577-3.705-0.856c-4.854-1.075-9.381-1.891-13.834-2.526C121.345,290.564,112.739,290.017,102.43,289.561z"
			/>
		<path d="M105.098,469.559c-0.369-6.296-1.008-10.006-4.755-12.723c-4.06-2.943-24.832-17.042-24.832-17.042
			s-20.625-14.312-24.831-17.041c-3.885-2.521-7.575-1.781-13.582,0.139c0.367,6.297,1.006,10.006,4.754,12.725
			c4.058,2.945,24.831,17.042,24.831,17.042s20.624,14.313,24.832,17.041C95.398,472.218,99.089,471.48,105.098,469.559z"/>
		<path d="M170.43,266.894c-2.695,4.517-4.004,7.138-2.786,8.75c1.319,1.746,8.521,9.981,8.521,9.981s7.004,8.404,8.521,9.981
			c1.4,1.456,4.195,0.575,9.078-1.379c2.696-4.517,4.005-7.138,2.788-8.75c-1.318-1.747-8.521-9.981-8.521-9.981
			s-7.003-8.405-8.521-9.981C178.107,264.059,175.314,264.94,170.43,266.894z"/>
		<path d="M272.429,194.894c-0.125,0.642-0.465,1.227-0.736,1.753c-0.277,0.536-0.541,1.047-0.795,1.538
			c-0.49,0.971-0.884,1.854-1.145,2.662c-0.521,1.627-0.512,2.991,0.224,4.337c1.679,2.949,10.087,17.712,10.087,17.712
			s2.049,3.759,4.302,7.894c2.254,4.137,4.712,8.654,5.585,10.127c1.613,2.721,4.837,3.009,10.479,2.976
			c3.131-4.696,4.642-7.57,3.231-10.422c-0.764-1.544-3.234-6.087-5.533-10.238c-2.317-4.144-4.424-7.911-4.424-7.911
			s-2.093-3.787-4.394-7.951c-2.323-4.158-4.959-8.691-5.938-10.185c-0.893-1.374-2.18-2.128-3.963-2.488
			c-0.896-0.182-1.909-0.261-3.07-0.263c-0.581,0-1.198,0.019-1.851,0.071C273.825,194.564,273.127,194.593,272.429,194.894z"/>
		<path d="M151.764,316.227c9.904-2.894,16.453-5.088,26.904-10.913c1.771-0.985,4.652-2.588,10.641-5.919
			c12.41-6.888,33.425-18.3,51.58-27.445c9.07-4.587,17.418-8.615,23.51-11.45c6.091-2.838,9.919-4.503,9.919-4.503
			s3.195-1.426,8.472-3.607c5.271-2.138,12.675-5.149,21.006-7.403c2.072-0.533,4.206-1.015,6.287-1.294
			c0.516-0.061,1.045-0.143,1.536-0.161c0.506-0.042,1.003-0.069,1.459-0.053c0.428-0.021,1.031,0.046,1.597,0.094l1.712,0.148
			c1.146,0.12,2.285,0.147,3.452,0.34c1.163,0.174,2.33,0.348,3.496,0.522c2.332,0.292,4.676,0.857,6.997,1.282
			c9.291,1.927,18.246,4.477,25.658,6.711c8.693,2.634,14.022,4.488,16.816,5.406c11.281,3.826,18.06,4.912,28.291,6.243
			c-8.416-5.972-14.385-9.637-25.769-13.625c-2.824-0.96-8.21-2.851-17.057-5.54c-7.551-2.282-16.676-4.885-26.356-6.891
			c-2.441-0.448-4.851-1.025-7.362-1.345c-1.245-0.185-2.49-0.369-3.732-0.553c-1.234-0.202-2.53-0.245-3.785-0.373l-1.891-0.159
			c-0.633-0.051-1.221-0.122-1.99-0.106c-0.739-0.019-1.433,0.02-2.108,0.074c-0.695,0.034-1.337,0.129-1.989,0.209
			c-2.584,0.35-4.968,0.901-7.255,1.49c-9.062,2.467-16.562,5.558-21.987,7.758c-5.398,2.238-8.64,3.691-8.64,3.691
			s-3.9,1.69-10.071,4.557c-6.173,2.864-14.606,6.922-23.747,11.535c-18.298,9.198-39.404,20.648-51.853,27.585
			c-6,3.366-8.887,4.985-10.661,5.981C164.413,304.467,159.16,309.027,151.764,316.227z"/>
		<path d="M459.097,268.893c-6.557-4.146-12.556-6.983-19.139-9.152c-6.602-2.105-13.879-3.564-23.348-3.607
			c-0.802,0.008-1.73,0.018-2.841,0.029c-1.113,0.052-2.407,0.085-3.943,0.183c-3.07,0.206-7.115,0.564-12.536,1.627
			c-4.995,0.998-10.847,2.598-16.914,5.425c-0.739,0.347-1.566,0.72-2.253,1.061c-0.688,0.34-1.383,0.683-2.084,1.03
			c-1.416,0.687-2.857,1.387-4.321,2.098c-2.956,1.41-6.001,2.863-9.104,4.343c-12.462,5.904-25.913,12.311-38.156,18.545
			c-12.252,6.217-23.294,12.29-31.183,17.029c-3.949,2.358-7.116,4.368-9.296,5.788c-2.182,1.415-3.376,2.237-3.376,2.237
			s-1.001,0.688-2.822,1.94c-1.812,1.272-4.433,3.143-7.605,5.667c-3.16,2.553-6.908,5.696-10.718,10.086
			c-1.88,2.229-3.814,4.765-5.366,8.113c-0.768,1.671-1.403,3.611-1.7,5.787c-0.294,2.165-0.175,4.65,0.601,6.958
			c0.7,2.207,2.109,4.609,4.05,6.345c1.929,1.763,4.171,2.845,6.269,3.51c4.224,1.261,8.033,1.232,11.664,1.016
			c7.23-0.559,13.887-2.262,20.329-4.115c12.821-3.811,24.591-8.561,34.342-12.567c12.789-5.324,20.557-8.796,24.632-10.567
			c8.226-3.617,14.436-6.876,20.177-10.244c2.873-1.68,5.626-3.386,8.49-5.11c1.434-0.851,2.896-1.713,4.438-2.509
			c0.771-0.39,1.564-0.782,2.392-1.09c0.833-0.309,1.695-0.617,2.658-0.519c-0.82-0.554-1.86-0.722-2.808-0.834
			c-0.972-0.119-1.918-0.131-2.853-0.127c-1.864,0.023-3.652,0.179-5.398,0.378c-3.481,0.42-6.79,1.042-10.114,1.842
			c-6.645,1.61-13.37,3.941-21.64,7.479c-4.093,1.731-11.876,5.182-24.474,10.414c-9.58,3.933-21.143,8.576-33.162,12.148
			c-5.98,1.742-12.162,3.254-17.835,3.679c-2.794,0.203-5.501,0.071-7.327-0.5c-0.895-0.288-1.498-0.642-1.849-0.965
			c-0.352-0.333-0.56-0.631-0.796-1.28c-0.194-0.553-0.223-1.115-0.132-1.836c0.105-0.716,0.329-1.55,0.743-2.439
			c0.812-1.783,2.15-3.647,3.593-5.342c2.943-3.413,6.274-6.271,9.117-8.56c2.87-2.289,5.311-4.04,7.005-5.233
			c1.711-1.18,2.651-1.828,2.651-1.828s1.126-0.772,3.206-2.117c2.075-1.348,5.107-3.267,8.925-5.54
			c7.619-4.564,18.417-10.489,30.499-16.606c12.076-6.135,25.41-12.475,37.885-18.382c3.123-1.489,6.188-2.951,9.162-4.37
			c1.492-0.725,2.961-1.438,4.403-2.139c0.723-0.357,1.439-0.712,2.148-1.062c0.709-0.352,1.293-0.604,1.934-0.909
			c5.008-2.344,9.976-3.72,14.291-4.588c4.687-0.925,8.26-1.257,10.986-1.448c1.364-0.092,2.523-0.125,3.516-0.18
			c0.997-0.018,1.83-0.033,2.551-0.045c8.519-0.048,15.286,0.264,21.836,0.366c3.311,0.065,6.534,0.128,9.869,0.194
			C451.734,268.48,455.245,268.571,459.097,268.893z"/>
		<path d="M401.097,322.893c7.663,6.91,12.976,11.327,23.427,17.152c1.77,0.987,4.648,2.595,10.633,5.936
			c13.411,7.517,35.935,20.348,54.514,32.092c9.292,5.858,17.58,11.465,23.286,15.789c2.86,2.153,5.069,3.98,6.516,5.272
			c1.446,1.293,2.162,2.028,2.162,2.028c0.001,0,0.171,0.151,0.438,0.446c0.269,0.293,0.706,0.728,1.154,1.279
			c0.471,0.535,0.987,1.265,1.24,1.779l0.091,0.174l0.002,0.043l0.003,0.002l0.004,0.001l0.079-0.017l0.324-0.056l0.165-0.021
			l0.084-0.008c-1.27,0.223-0.352,0.067-0.635,0.119l0.001,0.01l0.004,0.079l0.024,0.318c0.083,0.414,0.022,0.92,0.016,1.439
			c-0.131,1.08-0.461,2.357-1.047,3.758c-0.618,1.4-1.483,2.897-2.543,4.431c-2.16,3.057-5.135,6.22-8.661,9.148
			c-3.519,2.935-7.592,5.67-11.962,7.843c-4.342,2.137-9.114,3.792-13.433,3.911l-0.799,0.018l-0.764-0.055
			c-0.52-0.012-0.993-0.105-1.462-0.195c-0.494-0.049-0.887-0.248-1.332-0.354c-0.468-0.156-1.059-0.444-1.58-0.657
			c-0.537-0.229-1.073-0.458-1.606-0.686c-0.541-0.273-1.08-0.544-1.616-0.814c-1.073-0.539-2.137-1.056-3.182-1.657
			c-4.197-2.256-8.119-4.706-11.676-6.896c-7.68-4.824-12.334-8.036-14.793-9.648c-9.887-6.666-16.177-9.472-25.743-13.337
			c6.641,7.899,11.446,12.959,21.37,19.796c2.479,1.661,7.155,4.91,14.994,9.844c3.652,2.253,7.641,4.749,12.101,7.149
			c1.085,0.624,2.259,1.199,3.434,1.789c0.587,0.294,1.178,0.591,1.771,0.888c0.634,0.272,1.271,0.546,1.91,0.821
			c0.665,0.271,1.232,0.553,1.984,0.812c0.799,0.233,1.613,0.544,2.415,0.653c0.808,0.157,1.616,0.294,2.405,0.325
			c0.397,0.026,0.799,0.063,1.193,0.076l1.167-0.019c3.108-0.084,6.037-0.699,8.812-1.544c2.776-0.853,5.407-1.952,7.916-3.189
			c5.005-2.496,9.524-5.544,13.495-8.855c3.97-3.312,7.387-6.908,10.047-10.677c1.314-1.902,2.445-3.838,3.315-5.825
			c0.847-2.009,1.423-4.07,1.645-6.102c0.055-1.044,0.116-2.027-0.024-3.012c-0.061-0.498-0.058-0.886-0.268-1.587
			c-0.085-0.304-0.177-0.636-0.277-0.892c-0.105-0.231-0.209-0.459-0.311-0.683c-0.852-1.701-1.662-2.666-2.313-3.45
			c-0.653-0.793-1.173-1.308-1.521-1.685c-0.349-0.378-0.536-0.545-0.536-0.545s-0.877-0.899-2.497-2.35s-3.996-3.415-6.986-5.672
			c-5.972-4.533-14.409-10.245-23.812-16.185c-18.789-11.896-41.39-24.779-54.871-32.309c-6.02-3.332-8.915-4.935-10.695-5.921
			C417.747,327.476,411.106,325.408,401.097,322.893z"/>
		<path d="M481.096,438.893c-2.972,4.204-5.745,7.389-8.528,10.702c-2.817,3.274-5.675,6.702-9.643,10.493
			c-0.681,0.629-1.581,1.447-2.954,2.524c-1.391,1.036-3.252,2.365-5.97,3.598c-0.986,0.453-2.347,0.938-3.839,1.355
			c-1.506,0.349-3.141,0.66-4.675,0.692c-0.382,0.017-0.757,0.033-1.118,0.049c-0.368-0.015-0.723-0.028-1.062-0.042
			c-0.339-0.013-0.661-0.025-0.964-0.037c-0.306-0.035-0.592-0.067-0.853-0.098c-0.522-0.059-0.946-0.105-1.239-0.139
			c-0.295-0.054-0.459-0.083-0.459-0.083s-0.547-0.103-1.443-0.27c-0.896-0.221-2.148-0.476-3.542-0.933
			c-2.796-0.831-6.153-2.229-8.512-3.354c-3.935-1.89-7.024-3.717-9.439-5.206c-2.416-1.491-4.147-2.686-5.341-3.494
			c-4.809-3.306-8.628-5.883-12.423-8.172c-3.782-2.312-7.544-4.323-11.995-6.921c2.721,4.392,5.294,7.919,8.333,11.32
			c3.06,3.384,6.609,6.649,11.645,10.187c1.25,0.865,3.068,2.134,5.641,3.732c2.573,1.596,5.875,3.562,10.203,5.645
			c2.59,1.249,6.355,2.81,9.628,3.767c1.616,0.516,3.133,0.826,4.207,1.076c1.098,0.197,1.768,0.318,1.768,0.318
			s0.2,0.037,0.561,0.104c0.369,0.045,0.901,0.11,1.558,0.19c0.329,0.038,0.688,0.08,1.074,0.124c0.394,0.02,0.812,0.04,1.254,0.062
			c0.441,0.018,0.904,0.036,1.383,0.056c0.482-0.004,0.985-0.031,1.497-0.05c2.053-0.046,4.267-0.437,6.282-0.917
			c2-0.546,3.797-1.206,5.076-1.804c3.54-1.613,5.843-3.281,7.548-4.561c1.673-1.321,2.741-2.308,3.543-3.064
			c4.66-4.548,7.254-8.892,9.143-13.146C479.28,448.318,480.438,444.024,481.096,438.893z"/>
		<path d="M437.096,472.227c-0.98,2.379-2.328,4.237-3.699,5.89c-1.408,1.632-2.828,3.069-4.398,4.4
			c-0.754,0.688-1.616,1.292-2.408,1.972c-0.894,0.594-1.711,1.287-2.668,1.895c-0.967,0.598-1.885,1.305-2.986,1.892
			c-0.53,0.317-1.073,0.642-1.63,0.975c-0.565,0.321-1.18,0.607-1.786,0.934c-0.414,0.219-0.893,0.471-1.466,0.773
			c-0.591,0.274-1.298,0.564-2.123,0.928c-0.413,0.18-0.859,0.374-1.341,0.585c-0.487,0.217-0.892,0.288-1.389,0.467
			c-0.467,0.19-1.037,0.261-1.628,0.38c-0.579,0.148-1.253,0.182-1.966,0.24c-0.656,0.095-1.605,0.022-2.608,0.033
			c-0.508-0.021-1.046-0.092-1.578-0.132c-0.267-0.023-0.532-0.046-0.796-0.069c-0.267-0.043-0.529-0.086-0.787-0.128
			c-0.517-0.081-1.011-0.159-1.461-0.23c-0.452-0.1-0.861-0.189-1.205-0.265c-0.688-0.151-1.117-0.246-1.117-0.246
			c0,0.001-1.435-0.382-3.26-0.968c-1.824-0.599-4.037-1.427-5.6-2.1c-4.036-1.697-7.229-3.366-9.734-4.715
			c-2.5-1.368-4.317-2.434-5.557-3.181c-5.022-3.005-9.015-5.327-12.975-7.338c-3.943-2.039-7.853-3.762-12.499-5.991
			c3.067,4.156,5.895,7.474,9.165,10.644c3.291,3.146,7.041,6.158,12.274,9.361c1.29,0.796,3.192,1.926,5.836,3.383
			c2.655,1.438,6.043,3.221,10.455,5.081c1.698,0.743,4.16,1.654,6.231,2.314c2.077,0.65,3.749,1.072,3.749,1.071
			c0,0,0.505,0.118,1.315,0.308c0.406,0.093,0.889,0.202,1.423,0.324c0.548,0.092,1.148,0.193,1.777,0.299
			c0.314,0.052,0.636,0.105,0.96,0.158c0.334,0.033,0.671,0.066,1.008,0.099c0.678,0.059,1.349,0.142,2.012,0.17
			c1.342,0.007,2.567,0.069,3.519-0.058c0.998-0.08,1.929-0.146,2.816-0.351c0.882-0.174,1.704-0.305,2.464-0.584
			c0.737-0.247,1.52-0.463,2.064-0.707c0.553-0.241,1.064-0.465,1.538-0.673c0.947-0.42,1.752-0.76,2.432-1.082
			c0.669-0.356,1.228-0.655,1.71-0.913c0.709-0.39,1.408-0.742,2.062-1.149c0.641-0.43,1.266-0.85,1.877-1.26
			c1.234-0.787,2.285-1.757,3.315-2.628c1.023-0.884,1.884-1.898,2.749-2.815c0.78-1.021,1.566-1.97,2.199-3.023
			c1.322-2.055,2.275-4.265,2.955-6.575C436.983,477.303,437.351,474.808,437.096,472.227z"/>
		<path d="M395.096,496.227c-1.673,0.874-3.039,1.393-4.183,2.08c-1.147,0.677-2.085,1.475-3.026,2.677
			c-0.507,0.653-1.54,1.957-2.978,3.387c-1.428,1.438-3.265,2.985-5.176,4.257c-1.904,1.285-3.875,2.278-5.349,2.97
			c-0.754,0.313-1.375,0.571-1.807,0.751c-0.433,0.178-0.688,0.254-0.688,0.254s-0.25,0.086-0.694,0.238
			c-0.442,0.156-1.079,0.38-1.878,0.588c-0.396,0.112-0.827,0.234-1.286,0.364c-0.468,0.105-0.965,0.217-1.482,0.333
			c-1.026,0.262-2.177,0.409-3.338,0.614c-4.687,0.713-9.966,0.558-11.718,0.473c-1.619-0.054-2.916,0.138-4.209,0.696
			c-1.293,0.486-2.576,1.28-4.188,2.318c1.224,1.423,2.319,2.543,3.548,3.369c1.241,0.756,2.612,1.28,4.413,1.404
			c1.938,0.161,7.855,0.348,13.292-0.493c1.354-0.238,2.682-0.424,3.895-0.731c0.606-0.141,1.189-0.275,1.738-0.403
			c0.544-0.156,1.055-0.303,1.523-0.438c0.942-0.255,1.702-0.523,2.23-0.714c0.529-0.186,0.828-0.291,0.828-0.291
			s0.303-0.09,0.824-0.299c0.521-0.214,1.27-0.521,2.18-0.893c1.79-0.82,4.19-2.02,6.531-3.588c2.348-1.553,4.618-3.457,6.375-5.236
			c1.77-1.771,3.036-3.397,3.637-4.229c1.117-1.534,1.641-2.996,1.763-4.522C395.986,499.642,395.74,498.024,395.096,496.227z"/>
		<path d="M110.43,416.893c4.265,2.896,7.682,5.457,11.401,7.861c1.858,1.204,3.741,2.464,5.851,3.676
			c2.09,1.248,4.307,2.627,6.878,4.021c0.863,0.485,1.947,1.193,3.556,2.174c0.802,0.493,1.729,1.063,2.811,1.729
			c1.094,0.65,2.219,1.544,3.583,2.483l0.179,0.101l0.072,0.08l0.031,0.027l0.14,0.098c3.045,2.131,6.134,4.394,8.634,6.191
			c1.242,0.935,2.437,1.655,3.454,2.323c1.023,0.659,1.896,1.222,2.594,1.672c5.187,3.269,9.563,5.283,13.845,6.839
			c4.314,1.485,8.533,2.571,13.64,3.392c-4.109-3.104-7.376-5.866-10.97-8.454c-3.556-2.657-7.409-5.188-12.332-8.361
			c-0.663-0.435-1.492-0.977-2.465-1.613c-0.966-0.642-2.11-1.335-3.278-2.224c-2.396-1.738-5.123-3.737-8.56-6.16l-0.148-0.106
			l-0.039-0.022l-0.106-0.046l-0.166-0.144c-1.462-1.007-2.691-1.967-3.846-2.652c-1.146-0.702-2.129-1.304-2.979-1.823
			c-1.705-1.03-2.863-1.772-3.774-2.273c-2.709-1.438-5.136-2.713-7.473-3.696c-2.354-0.946-4.535-1.79-6.729-2.426
			C119.847,418.292,115.565,417.454,110.43,416.893z"/>
		<path d="M168.432,473.559c3.187-2.185,6.22-3.943,9.132-5.562c2.919-1.607,5.74-3.043,8.598-4.356
			c2.85-1.317,5.763-2.496,8.786-3.375c3.014-0.835,6.162-1.367,9.088-0.831c0.968,0.211,2.293,0.509,3.887,1.487
			c0.189,0.118,0.387,0.24,0.592,0.368c0.172,0.146,0.352,0.297,0.537,0.454c0.095,0.075,0.19,0.152,0.289,0.231
			c0.079,0.091,0.16,0.185,0.242,0.279c0.157,0.193,0.38,0.348,0.507,0.589c0.649,0.846,1.222,1.991,1.549,3.721
			c0.169,0.75,0.263,2.203,0.263,3.507c-0.028,1.317-0.165,2.468-0.165,2.468c0-0.001-0.014,0.231-0.093,0.63
			c-0.077,0.396-0.148,0.94-0.283,1.564c-0.258,1.245-0.636,2.779-0.964,3.885c-1.33,4.553-3.07,8.437-4.494,11.373
			c-0.359,0.715-0.693,1.377-1,1.985l0.008-0.005l0.01,0.001l0.01,0.01c-0.645-0.197-1.04-0.318-1.397-0.428
			c-8.265-2.613-14.701-4.678-20.628-6.831c-2.966-1.088-5.798-2.215-8.487-3.747c-1.319-0.783-2.62-1.66-3.741-2.817
			C169.57,477.007,168.648,475.504,168.432,473.559c-0.734,1.802-0.671,3.967-0.076,5.862c0.588,1.91,1.566,3.605,2.646,5.147
			c2.211,3.05,4.858,5.495,7.717,7.651c2.869,2.164,5.992,4.049,9.486,5.77c3.495,1.729,7.362,3.284,11.793,4.72
			c0.632,0.196,1.33,0.413,2.471,0.768c1.795,0.549,4.273,1.221,8.021,2.192c0.632-1.034,1.581-2.588,2.819-4.614
			c0.607-1.036,1.259-2.221,1.959-3.537c0.415-0.793,0.772-1.491,1.192-2.345c1.624-3.34,3.61-7.699,5.251-13.274
			c0.416-1.342,0.882-3.293,1.189-4.938c0.161-0.817,0.254-1.577,0.34-2.11c0.088-0.532,0.107-0.877,0.107-0.877
			s0.236-1.582,0.311-3.601c0.053-2.029-0.101-4.502-0.465-6.023c-0.615-3.335-1.993-6.363-3.741-8.614
			c-0.396-0.594-0.895-1.068-1.336-1.561c-0.228-0.24-0.451-0.476-0.671-0.706c-0.231-0.213-0.47-0.406-0.699-0.603
			c-0.464-0.386-0.911-0.765-1.354-1.097c-0.457-0.295-0.897-0.578-1.321-0.851c-3.394-2.047-6.075-2.632-8.067-3.02
			c-2.972-0.51-5.766-0.339-8.231,0.122c-2.472,0.471-4.684,1.199-6.644,2.09c-3.924,1.785-7.031,3.995-9.726,6.382
			c-2.696,2.39-4.991,4.97-7.109,7.778C172.189,467.089,170.229,470.125,168.432,473.559z"/>
		<path d="M215.099,501.56c2.214-3.165,4.458-5.857,6.646-8.343c2.206-2.468,4.394-4.715,6.677-6.729
			c2.271-1.993,4.687-3.808,7.133-4.865c1.219-0.52,2.408-0.84,3.561-0.917c1.156-0.071,2.304,0.061,3.641,0.537
			c0.886,0.389,2.167,0.898,3.898,2.243c1.614,1.34,3.428,3.145,4.316,6.562c0.026,0.219,0.221,0.719,0.205,0.729
			c0,0,0.005,0.194,0.027,0.403l0.02,0.157c0.019,0.101,0.036,0.198,0.053,0.288c0.551,4.298-0.599,8.999-1.983,12.734
			c-1.386,3.758-3.022,6.808-4.065,8.62l-0.002,0.141l-0.008,0.013l-0.005,0.007l-0.14-0.001l-0.659-0.016
			c-0.439-0.017-0.873-0.032-1.303-0.049c-0.859-0.048-1.704-0.099-2.528-0.175c-3.301-0.293-6.32-0.776-9.209-1.501
			c-1.441-0.371-2.851-0.804-4.254-1.318c-1.392-0.531-2.764-1.157-4.143-1.903c-1.364-0.761-2.706-1.668-4.047-2.743
			C217.613,504.338,216.338,503.055,215.099,501.56c0.391,1.888,0.951,3.718,1.71,5.448c0.783,1.711,1.725,3.34,2.835,4.838
			c1.122,1.481,2.381,2.855,3.766,4.099c1.395,1.225,2.9,2.332,4.511,3.313c3.228,1.949,6.846,3.397,10.877,4.341
			c1.009,0.239,2.046,0.433,3.111,0.604c0.534,0.077,1.074,0.16,1.625,0.22l0.831,0.09l0.609,0.051l0.748,0.04
			c1.002,0.051,2.02,0.081,3.032,0.052c0.506-0.017,1.015-0.033,1.526-0.05l0.772-0.026c0.243-0.038,0.574,0.079,0.674-0.226
			c1.194-1.682,2.437-3.472,3.557-5.39c1.397-2.391,3.261-5.795,5.039-10.536c0.873-2.363,1.71-5.045,2.267-8.104
			c0.542-3.053,0.861-6.497,0.364-10.271c-0.026-0.163-0.054-0.341-0.083-0.523l-0.053-0.281c-0.082-0.371-0.157-0.708-0.157-0.708
			s-0.014-0.244-0.074-0.541s-0.14-0.645-0.21-0.845c-0.824-3.277-2.271-6.026-3.822-8.128c-1.539-2.149-3.219-3.582-4.65-4.776
			c-2.877-2.231-5.334-3.306-7.26-4.045c-2.906-1.028-6.104-1.315-8.966-0.863c-2.877,0.44-5.356,1.526-7.388,2.794
			c-2.057,1.27-3.65,2.764-5.034,4.266c-1.393,1.504-2.493,3.074-3.478,4.646c-1.941,3.156-3.289,6.382-4.362,9.753
			C216.371,494.181,215.573,497.711,215.099,501.56z"/>
		<path d="M253.098,512.227c1.914-3.355,3.879-6.257,5.823-8.95c1.937-2.692,3.908-5.146,5.944-7.46
			c4.084-4.484,8.87-8.816,13.907-8.109c0.901,0.063,2.151,0.347,4.078,1.297c1.93,1.005,4.55,2.616,6.724,5.717
			c0.567,0.896,1.516,2.428,2.054,3.941c0.569,1.489,0.88,2.832,0.881,2.832c0-0.001,0.257,1.114,0.438,2.613
			c0.212,1.488,0.254,3.388,0.25,4.755c-0.083,5.084-1.024,9.517-1.91,12.886c-0.222,0.846-0.451,1.628-0.67,2.345
			c-0.03,0.097-0.06,0.191-0.088,0.284v0.003l0.004-0.002l0.011,0.002l0.007,0.01c-1.869-0.311-3.637-0.604-5.326-0.886
			c-1.915-0.335-3.74-0.654-5.501-0.963c-3.502-0.638-6.727-1.217-9.821-1.875c-3.103-0.654-6.089-1.356-9.036-2.44
			c-1.456-0.56-2.914-1.207-4.289-2.117C255.219,515.196,253.93,513.991,253.098,512.227c-0.106,1.941,0.535,3.94,1.499,5.631
			c0.97,1.7,2.206,3.167,3.515,4.489c2.651,2.607,5.604,4.625,8.733,6.342c3.14,1.729,6.493,3.136,10.191,4.362
			c1.851,0.603,3.789,1.16,5.839,1.663c1.025,0.251,2.078,0.489,3.162,0.714c0.544,0.107,1.094,0.217,1.651,0.326
			c0.279,0.052,0.561,0.104,0.845,0.156c0.53,0.088,1.063,0.177,1.602,0.266c1.335,0.229,2.86,0.451,7.967,1.078
			c0.575-1.402,1.43-3.237,2.389-5.745c0.248-0.617,0.467-1.302,0.715-2.005c0.119-0.353,0.24-0.714,0.365-1.083
			c0.089-0.281,0.181-0.568,0.273-0.861c0.263-0.847,0.535-1.767,0.801-2.766c1.049-3.992,2.208-9.198,2.332-15.786
			c0.029-1.779-0.054-4.305-0.373-6.41c-0.28-2.1-0.696-3.749-0.696-3.749s-0.119-0.494-0.311-1.287
			c-0.2-0.79-0.545-1.881-0.968-3.061c-0.822-2.382-2.361-5.021-3.392-6.494c-1.835-2.688-3.944-4.636-5.836-6.156
			c-0.487-0.365-0.956-0.718-1.409-1.058c-0.455-0.337-0.923-0.593-1.36-0.874c-0.441-0.271-0.867-0.531-1.276-0.782
			c-0.433-0.23-0.865-0.438-1.273-0.643c-3.283-1.622-6.018-2.267-8.143-2.431c-3.129-0.319-6.253,0.195-8.855,1.234
			c-2.636,1.025-4.698,2.538-6.423,4.07c-1.736,1.546-3.065,3.201-4.202,4.848c-1.156,1.643-2.022,3.319-2.825,4.972
			c-1.519,3.336-2.551,6.658-3.26,10.118C253.661,504.76,253.217,508.352,253.098,512.227z"/>
		<path d="M303.098,530.227c1.157-3.685,2.53-6.903,3.962-9.85c1.454-2.926,2.997-5.608,4.768-7.861
			c1.753-2.253,3.751-4.035,5.728-4.69c0.992-0.346,1.996-0.489,3.218-0.426c1.21,0.075,2.672,0.35,4.257,0.92
			c1.04,0.396,2.389,0.955,4.14,2.234c1.727,1.294,3.909,3.351,6.068,7.117c0.269,0.528,0.977,1.771,0.977,1.771
			s0.202,0.464,0.424,0.974c0.135,0.312,0.276,0.636,0.396,0.911c2.012,4.744,3.027,9.66,3.361,13.526
			c0.018,0.238,0.035,0.474,0.052,0.706c0.016,0.226,0.025,0.521,0.024,0.44l0.003-0.006l0.009-0.006l0.01,0.004l0.002,0.002
			c-0.021,0.008,0.061-0.02-0.09,0.033c-0.282,0.098-0.55,0.191-0.801,0.278c-3.726,1.257-7.111,1.931-10.239,2.251
			c-1.567,0.162-3.075,0.223-4.544,0.181c-1.472-0.03-2.914-0.138-4.335-0.368c-2.858-0.415-5.674-1.239-8.563-2.55
			C309.035,534.51,306.081,532.696,303.098,530.227c1.477,3.571,3.383,6.762,5.811,9.527c2.422,2.762,5.378,5.104,8.869,6.763
			c6.965,3.371,15.893,4.022,25.502,0.898c0.324-0.109,0.669-0.227,1.033-0.349c0.611-0.229,1.256-0.469,1.933-0.721
			c0.698-0.28,1.435-0.568,2.165-0.914c0.729-0.339,1.355-0.848,1.85-1.39c1.093-1.188,1.701-2.876,1.879-4.87
			c0.094-0.992,0.128-2.039,0.091-3.117l-0.024-0.712l-0.024-0.482c-0.022-0.318-0.045-0.641-0.067-0.968
			c-0.449-5.144-1.633-10.957-4.235-17.177c-0.093-0.214-0.194-0.446-0.298-0.687c-0.076-0.166-0.155-0.338-0.232-0.505
			c-0.318-0.665-0.64-1.258-0.64-1.258s-0.19-0.439-0.454-0.962c-0.254-0.524-0.587-1.13-0.803-1.478
			c-2.968-5.195-6.398-8.586-9.325-10.73c-2.96-2.149-5.362-3.143-7.167-3.799c-2.651-0.923-5.433-1.425-8.274-1.352
			c-2.832,0.072-5.681,0.858-8.006,2.189c-2.339,1.324-4.146,3.077-5.473,4.868c-1.329,1.803-2.25,3.646-2.949,5.461
			c-1.382,3.64-1.869,7.183-2.016,10.752C302.134,522.787,302.391,526.414,303.098,530.227z"/>
		<path d="M337.097,243.561c9.854-3.059,16.362-5.345,26.739-11.274c1.406-0.8,3.517-2,6.134-3.489
			c1.311-0.739,2.748-1.55,4.288-2.419c3.327-1.847,6.875-3.817,10.59-5.879c7.587-4.141,15.897-8.577,24.557-12.855
			c8.646-4.244,17.688-8.516,26.589-11.478c1.103-0.333,2.211-0.686,3.291-0.963l1.609-0.387c0.544-0.143,1.001-0.158,1.503-0.249
			c1.963-0.276,3.93-0.254,5.85,0.158l0.722,0.126l0.712,0.205c0.472,0.146,0.949,0.25,1.415,0.421
			c0.926,0.369,1.857,0.694,2.746,1.176c1.805,0.857,3.503,1.988,5.122,3.181c3.224,2.44,6.069,5.285,8.588,8.15
			c2.52,2.872,4.722,5.772,6.672,8.503c3.898,5.47,6.781,10.282,8.794,13.621c1.976,3.377,3.089,5.279,3.089,5.279
			s1.093,1.926,3.031,5.345c0.967,1.724,2.146,3.824,3.504,6.247c0.689,1.216,1.425,2.514,2.202,3.885
			c0.781,1.352,1.604,2.776,2.466,4.267c1.66,2.909,3.35,6.133,4.898,9.637c1.547,3.498,2.973,7.291,3.9,11.266
			c0.925,3.954,1.363,8.155,0.585,11.952c-0.729,3.816-2.853,6.966-6.195,9.168l-1.302,0.78l-1.394,0.692l-1.451,0.602
			c-0.136,0.03-0.267,0.072-0.397,0.122c-0.145,0.013-0.286,0.035-0.428,0.068c-1.18,0.129-2.969-0.399-4.741-1.417
			c-1.786-0.99-3.566-2.39-5.27-3.887c-1.707-1.51-3.344-3.172-4.918-4.894c-3.151-3.446-6.054-7.136-8.774-10.808
			c-1.361-1.838-2.672-3.682-3.938-5.512c-0.628-0.919-1.25-1.83-1.866-2.731c-0.576-0.866-1.146-1.723-1.71-2.571
			c-4.301-6.532-7.604-12.067-9.263-14.821c-3.05-5.099-5.644-8.983-8.357-12.54c-2.706-3.562-5.538-6.787-8.925-10.676
			c1.171,5.028,2.332,9.202,3.912,13.438c1.588,4.234,3.607,8.534,6.659,13.753c1.66,2.821,5.006,8.459,9.411,15.164
			c0.579,0.871,1.164,1.751,1.756,2.641c0.635,0.929,1.275,1.867,1.922,2.814c1.306,1.888,2.66,3.797,4.077,5.71
			c2.837,3.826,5.875,7.698,9.298,11.443c1.713,1.871,3.521,3.712,5.502,5.466c1.994,1.745,4.107,3.443,6.647,4.864
			c1.251,0.719,2.652,1.346,4.197,1.814c1.543,0.46,3.297,0.746,5.17,0.561c0.468-0.066,0.936-0.143,1.399-0.229
			c0.46-0.125,0.919-0.266,1.373-0.414l1.962-0.813c0.64-0.303,1.274-0.631,1.908-0.95c0.622-0.362,1.241-0.73,1.853-1.112
			c2.422-1.593,4.625-3.695,6.28-6.164c1.682-2.459,2.732-5.252,3.283-7.983c1.097-5.51,0.425-10.69-0.638-15.317
			c-1.092-4.648-2.687-8.835-4.373-12.648c-1.69-3.815-3.498-7.255-5.261-10.339c-0.867-1.498-1.695-2.928-2.481-4.286
			c-0.767-1.351-1.492-2.629-2.173-3.827c-1.36-2.42-2.54-4.52-3.508-6.242c-1.964-3.456-3.07-5.403-3.07-5.403
			s-1.104-1.951-3.148-5.391c-2.064-3.429-5.019-8.378-9.13-14.159c-2.059-2.886-4.402-5.984-7.158-9.131
			c-2.761-3.139-5.934-6.346-9.771-9.255c-1.938-1.431-4.016-2.818-6.356-3.943c-1.138-0.606-2.387-1.068-3.631-1.548
			c-0.628-0.229-1.294-0.391-1.943-0.586l-0.986-0.274l-1.019-0.19c-0.685-0.108-1.358-0.283-2.06-0.327
			c-0.699-0.051-1.4-0.103-2.104-0.154c-0.704-0.029-1.414,0.028-2.123,0.045c-0.354,0.019-0.711,0.019-1.063,0.056l-1.054,0.151
			c-2.873,0.373-5.243,1.154-7.745,1.903c-9.705,3.235-18.821,7.579-27.656,11.902c-8.808,4.351-17.195,8.83-24.848,13.009
			c-3.742,2.08-7.315,4.067-10.667,5.93c-1.549,0.878-2.994,1.698-4.312,2.445c-2.625,1.512-4.743,2.731-6.154,3.543
			C349.565,231.595,344.371,236.239,337.097,243.561z"/>
		<path d="M472.431,206.894c1.857-1.784,3.677-3.244,5.433-4.609c1.763-1.357,3.47-2.607,5.226-3.82
			c1.755-1.213,3.548-2.401,5.503-3.581c1.958-1.167,4.068-2.359,6.512-3.383c0.83-0.334,1.918-0.798,3.546-1.234
			c1.623-0.438,3.788-0.901,6.736-0.896c0.612-0.011,1.249,0.065,1.908,0.089c0.67,0.083,1.368,0.206,2.081,0.306
			c1.458,0.129,2.854,0.632,4.343,0.986c2.862,0.987,5.635,2.508,7.891,4.534c2.264,2.01,4.035,4.466,5.213,6.863
			c0.58,1.2,1.056,2.365,1.387,3.425c0.075,0.261,0.148,0.515,0.22,0.762l0.084,0.34l0.04,0.164l0.092,0.427
			c0.217,0.636,0.419,1.231,0.606,1.782c4.197,12.536,7.084,22.635,8.978,29.529c1.881,6.906,2.78,10.641,2.78,10.641
			s0.727,2.853,1.788,7.547c1.06,4.692,2.456,11.233,3.615,18.59c1.142,7.337,2.089,15.569,1.766,23.244
			c-0.181,3.8-0.719,7.504-1.874,10.343c-0.574,1.41-1.305,2.538-2.092,3.277c-0.789,0.744-1.619,1.153-2.608,1.363
			c-0.198,0.032-0.28,0.082-0.565,0.112c-0.255,0.033-0.506,0.065-0.755,0.098c-0.496,0.065-0.981,0.104-1.453,0.155
			c-0.944,0.073-1.841,0.129-2.687,0.14c-1.693,0.032-3.189-0.049-4.498-0.187c-2.618-0.28-4.485-0.761-5.751-1.119
			c-5.101-1.524-8.835-3.499-12.33-5.694c-1.741-1.112-3.414-2.308-5.062-3.708c-0.82-0.703-1.638-1.455-2.416-2.297
			c-0.389-0.422-0.771-0.865-1.117-1.345c-0.174-0.24-0.34-0.489-0.477-0.752c-0.067-0.131-0.131-0.267-0.166-0.405
			c-0.033-0.132-0.063-0.297,0.104-0.354c-0.186-0.047-0.313,0.195-0.337,0.35c-0.041,0.172-0.049,0.342-0.051,0.51
			c-0.002,0.336,0.033,0.663,0.081,0.983c0.095,0.643,0.246,1.26,0.419,1.862c0.348,1.203,0.8,2.337,1.312,3.426
			c1.033,2.173,2.324,4.159,3.904,6.006c3.159,3.66,7.533,6.931,13.923,8.898c1.575,0.465,3.909,1.075,7.13,1.43
			c1.607,0.174,3.435,0.276,5.476,0.24c1.021-0.012,2.092-0.076,3.217-0.163c0.561-0.059,1.138-0.105,1.723-0.182
			c0.293-0.037,0.59-0.075,0.89-0.114c0.272-0.026,0.736-0.133,1.102-0.204c2.23-0.439,4.615-1.616,6.416-3.363
			c1.823-1.735,3.068-3.857,3.937-5.974c1.708-4.27,2.227-8.648,2.454-12.969c0.187-4.323,0.001-8.622-0.366-12.792
			c-0.361-4.173-0.902-8.221-1.506-12.033c-1.21-7.623-2.649-14.31-3.738-19.103c-1.091-4.792-1.834-7.692-1.834-7.692
			s-0.911-3.808-2.812-10.822c-1.919-7.015-4.82-17.212-9.086-29.979c-0.142-0.417-0.295-0.87-0.459-1.352
			c-0.065-0.273-0.134-0.555-0.204-0.845c-0.103-0.355-0.207-0.721-0.314-1.096c-0.455-1.465-1.076-2.999-1.847-4.589
			c-1.553-3.163-3.912-6.477-7.014-9.235c-3.086-2.777-6.896-4.859-10.671-6.135c-1.91-0.493-3.767-1.098-5.562-1.277
			c-0.897-0.128-1.764-0.27-2.618-0.369c-0.876-0.042-1.722-0.127-2.537-0.117c-3.929-0.006-6.793,0.623-8.896,1.197
			c-2.115,0.581-3.489,1.173-4.535,1.609c-3.073,1.329-5.535,2.973-7.624,4.658c-2.085,1.698-3.785,3.479-5.258,5.327
			c-1.474,1.85-2.706,3.784-3.814,5.847C474.229,202.233,473.239,204.437,472.431,206.894z"/>
		<path d="M523.098,192.227c1.764-1.875,3.804-2.927,5.731-3.728c1.956-0.775,3.886-1.23,5.859-1.565
			c3.986-0.562,8.192-0.659,13.726-0.176c0.103,0.009,0.271,0.012,0.333,0.027l0.177,0.04l0.195,0.025l0.215,0.079
			c0.301,0.067,0.675,0.291,1.156,0.591c0.477,0.37,1.063,0.854,1.716,1.642c0.648,0.789,1.365,1.817,2.107,3.135
			c1.568,2.754,3.254,7.018,4.654,11.843c1.417,4.825,2.594,10.192,3.519,15.171c0.923,4.983,1.596,9.584,2.047,12.931
			c0.424,3.353,0.688,5.441,0.688,5.441s0.848,7.004,1.515,16.007c0.692,8.997,1.152,19.989,1.165,27.783
			c0.018,4.515-0.078,8.157-0.259,10.945c-0.091,1.387-0.206,2.577-0.342,3.453c-0.157,0.877-0.374,1.658-0.497,2.271
			c-0.673,2.454-1.568,4.475-2.607,6.214c-1.032,1.748-2.248,3.189-3.648,4.396c-1.397,1.207-2.984,2.217-4.876,2.84
			c-1.879,0.603-4.124,0.85-6.575-0.033c1.726,1.934,4.268,3.047,6.81,3.329c2.562,0.291,5.165-0.167,7.584-1.226
			c4.877-2.088,8.954-6.834,10.84-13.469c0.188-0.835,0.464-1.811,0.692-3.082c0.204-1.281,0.331-2.628,0.438-4.168
			c0.207-3.068,0.309-6.846,0.294-11.496c-0.001-8.02-0.483-19.188-1.205-28.351c-0.695-9.163-1.58-16.32-1.58-16.32
			s-0.266-2.138-0.691-5.57c-0.454-3.431-1.134-8.154-2.081-13.318c-0.95-5.164-2.167-10.769-3.688-15.96
			c-1.51-5.191-3.359-9.971-5.356-13.475c-0.944-1.672-1.93-3.112-2.948-4.336c-1.022-1.225-2.138-2.219-3.215-3.003
			c-1.138-0.755-2.217-1.325-3.275-1.63c-0.26-0.079-0.51-0.154-0.749-0.226c-0.252-0.045-0.492-0.089-0.725-0.131
			c-0.232-0.036-0.455-0.071-0.669-0.104c-0.209-0.029-0.307-0.023-0.457-0.035c-6.401-0.512-11.729,0.387-16.225,2.512
			c-2.232,1.11-4.248,2.521-5.96,4.296C525.248,187.577,523.777,189.712,523.098,192.227z"/>
		<path d="M561.764,196.894c0.663,0.055,1.303-0.172,1.903-0.313c0.6-0.166,1.188-0.329,1.769-0.49
			c1.149-0.323,2.252-0.622,3.328-0.888c2.151-0.534,4.195-0.95,6.242-1.241c4.088-0.544,8.202-0.81,13.024,0.518
			c0.812,0.243,1.88,0.575,3.366,1.272c0.229,0.117,0.615,0.378,1.128,1.048c0.505,0.658,1.079,1.68,1.618,3.032
			c1.01,2.5,1.939,6.399,2.528,10.762c0.605,4.365,0.923,9.183,1.058,13.631c0.128,4.452,0.086,8.538,0.006,11.505
			c-0.076,2.967-0.172,4.817-0.172,4.817s-0.251,6.197-1.056,14.079c-0.771,7.883-2.213,17.418-3.668,24.065
			c-1.874,8.755-3.776,13.808-4.871,16.198c-0.552,1.218-1.109,2.31-1.656,3.186c-0.139,0.201-0.269,0.447-0.402,0.608
			c-0.14,0.182-0.228,0.342-0.442,0.58c-0.377,0.433-0.727,0.9-1.095,1.288c-1.437,1.639-2.824,2.957-4.158,3.772
			c-0.67,0.407-1.303,0.671-1.987,0.769c-0.68,0.094-1.471,0.027-2.31-0.345c-1.691-0.729-3.431-2.38-4.819-4.521
			c0.102,1.29,0.38,2.536,0.812,3.733c0.436,1.195,1.05,2.35,1.962,3.381c0.895,1.033,2.18,1.895,3.667,2.326
			c1.489,0.439,3.099,0.401,4.524,0.073c2.88-0.679,5.22-2.198,7.336-3.99c0.553-0.446,1.032-0.936,1.557-1.429
			c0.243-0.218,0.554-0.577,0.841-0.899c0.308-0.333,0.527-0.66,0.794-1.001c0.987-1.353,1.765-2.773,2.467-4.275
			c1.398-2.975,3.49-8.624,5.46-17.802c1.541-6.985,3.009-16.819,3.787-24.935c0.812-8.112,1.052-14.498,1.052-14.498
			s0.104-1.905,0.19-4.97c0.091-3.065,0.146-7.292,0.021-11.942c-0.24-9.299-1.353-20.29-4.143-27.084
			c-0.738-1.833-1.596-3.465-2.681-4.883c-1.071-1.41-2.451-2.62-3.975-3.342c-2.027-0.946-3.52-1.404-4.654-1.727
			c-3.375-0.916-6.55-1.016-9.349-0.656c-2.805,0.368-5.265,1.156-7.461,2.19c-2.204,1.028-4.161,2.296-6.009,3.746
			c-0.925,0.725-1.822,1.498-2.714,2.308c-0.441,0.403-0.89,0.813-1.346,1.231C562.77,196.181,562.346,196.645,561.764,196.894z"/>
		<path d="M590.43,299.56c-3.559,6.36-5.311,10.514-3.897,16.723c1.53,6.726,9.951,40.219,9.951,40.219s0.918,3.725,4.615,18.724
			c3.66-1.651,13.241-5.975,22.863-10.316c6.016-2.721,12.05-5.468,14.421-6.597c5.75-2.736,7.926-6.685,10.714-13.418
			c-6.901-2.344-11.304-3.31-17.153-0.793c-2.412,1.038-8.456,3.764-14.468,6.493c-1.503,0.683-3.004,1.365-4.445,2.021
			c-0.36,0.164-0.717,0.327-1.069,0.487l-0.229,0.104h0.002h0.003h0.013l0.014,0.021l-0.007,0.021l-0.002,0.002h-0.001
			c-0.002-0.009,0.008,0.034-0.02-0.078c-0.075-0.299-0.104-0.418-0.104-0.418s-8.168-33.557-9.951-40.219
			C600.03,306.385,596.545,303.526,590.43,299.56z"/>
		<path d="M601.098,227.561c4.394,3.293,7.052,4.925,9.54,3.722c2.695-1.304,15.824-8.521,15.824-8.521s13.252-6.988,15.824-8.521
			c2.375-1.415,2.476-4.533,2.146-10.013c-4.395-3.294-7.053-4.926-9.542-3.723c-2.696,1.302-15.824,8.52-15.824,8.52
			s-13.253,6.987-15.824,8.521C600.867,218.961,600.767,222.079,601.098,227.561z"/>
		<path d="M608.431,357.559c-5.062-3.095-8.431-4.687-13.91-4.047c-2.967,0.347-11.862,1.533-20.015,2.632
			c-8.801,1.193-16.802,2.277-16.802,2.277s-0.079,0.011-2.606,0.348c-0.12,0.171-0.72,1.028-1.691,2.416
			c-0.415,0.579-0.91,1.269-1.473,2.054c-0.334,0.45-0.71,0.955-1.118,1.505c-1.645,2.197-3.896,5.081-6.328,7.992
			c-4.831,5.869-10.504,11.66-12.494,13.505c-0.925,0.938-1.706,1.791-2.341,2.704c-0.318,0.456-0.604,0.921-0.861,1.401
			c-0.267,0.463-0.51,0.935-0.731,1.431c-0.45,0.979-0.792,2.094-1.165,3.237c-0.37,1.151-0.724,2.431-1.131,3.879
			c1.458,0.097,2.82,0.132,4.114,0.078c1.302-0.048,2.453-0.258,3.611-0.544c0.574-0.148,1.142-0.324,1.7-0.539
			c0.542-0.227,1.079-0.488,1.615-0.788c1.071-0.602,2.162-1.347,3.209-2.339c2.295-1.997,8.442-8.275,13.535-14.503
			c2.573-3.098,4.933-6.149,6.67-8.495c0.607-0.832,1.116-1.528,1.483-2.032l0.022-0.04v-0.001c0.021-0.003-0.049,0.009,0.049-0.002
			c0.823-0.107,2.006-0.262,3.442-0.449c2.874-0.377,6.768-0.888,10.846-1.423c8.156-1.075,17.052-2.262,20.006-2.705
			C601.522,364.292,604.356,361.874,608.431,357.559z"/>
	</g>
</g>
</svg>
