<?xml version="1.0" encoding="utf-8"?>
<!-- Generator: Adobe Illustrator 16.0.0, SVG Export Plug-In . SVG Version: 6.00 Build 0)  -->
<!DOCTYPE svg PUBLIC "-//W3C//DTD SVG 1.1//EN" "http://www.w3.org/Graphics/SVG/1.1/DTD/svg11.dtd">
<svg version="1.1" xmlns="http://www.w3.org/2000/svg" xmlns:xlink="http://www.w3.org/1999/xlink" x="0px" y="0px" width="640px"
	 height="640px" viewBox="0 0 640 640" enable-background="new 0 0 640 640" xml:space="preserve">
<g id="reseau">
</g>
<g id="couleurs">
</g>
<g id="traits">
	<g>
		<path fill="#FFF26B" d="M169.17,313.741c-11.152,34.147-43.261,58.818-81.133,58.818c-2.695,0-5.364-0.125-7.995-0.37
			c1.293,3.007,3.267,7.592,6.061,14.087c5.728,13.39,16.06,37.541,16.06,37.541s6.85,15.962,12.508,29.148
			c15.653-18.688,39.162-30.572,65.447-30.572c17.889,0,34.491,5.504,48.208,14.912c1.272-2.168,2.52-4.294,2.52-4.294
			s2.681-4.627,4.167-7.191c1.17-1.998,2.228-3.804,3.179-5.428C209.086,396.645,190.5,360.493,190.5,320
			c0-1.55,0.027-3.093,0.081-4.629c-0.511-0.038-1.033-0.077-1.567-0.117c-2.955-0.233-8.285-0.654-8.285-0.654
			s-6.371-0.468-9.061-0.666C170.776,313.866,169.946,313.801,169.17,313.741 M508.687,104.595c-2.796,0-5.21,0.37-6.814,0.961
			c-13.732,5.06-24.748,18.967-24.748,18.967l39.878-12.429l3.09,8.491c3.574-0.457,7.222-0.692,10.921-0.692
			c0.745,0,1.491,0.009,2.231,0.028c-0.018-0.061-0.035-0.123-0.054-0.184C529.762,108.161,517.371,104.595,508.687,104.595
			 M191.092,307.538C197.362,241.863,252.683,190.5,320,190.5c27.881,0,53.705,8.812,74.837,23.801
			c8.271,2.062,13.372,5.037,16.927,8.592c9.334,9.333,18.667,20.667,18.667,20.667s-1.105,1.705-2.966,4.157
			C441.378,268.361,449.5,293.232,449.5,320c0,5.753-0.376,11.426-1.104,16.98l11.367-1.421l0.559,2.606
			c11.092-5.416,12.775-13.273,12.775-13.273l1.333-11.333c0,0,26.001,14.667,12.667,44.667
			c-8.635,19.428-30.692,31.587-51.863,31.587c-1.991,0-3.973-0.107-5.937-0.326c-15.573,24.441-39.12,43.312-66.976,52.939
			c0.819,10.152,1.441,19.8,1.441,19.8l-8,18.667c0,0-2.617-18.004-15.884-32.909c-6.482,0.999-13.118,1.517-19.88,1.517
			c-28.191,0-54.278-9.008-75.54-24.303c-0.814,1.399-1.701,2.924-2.665,4.581c-1.503,2.556-4.213,7.165-4.213,7.165
			s-1.564,2.694-2.969,5.114c18.841,15.652,30.837,39.259,30.837,65.667c0,47.129-38.205,85.334-85.333,85.334
			s-85.333-38.205-85.333-85.334c0-17.598,5.328-33.953,14.458-47.538c-5.867-13.709-14.25-33.297-14.25-33.297
			s-10.363-24.139-16.108-37.521c-3.598-8.43-5.824-13.646-6.987-16.371c-0.309-0.73-0.604-1.442-0.885-2.138
			c-38.97-7.892-68.308-42.337-68.308-83.635c0-47.128,38.205-85.333,85.333-85.333s85.333,38.205,85.333,85.333
			c0,6.463-0.72,12.763-2.081,18.815c0.316,0.023,0.64,0.047,0.973,0.072c2.688,0.21,9.057,0.708,9.057,0.708
			s5.333,0.387,8.289,0.602C190.112,307.462,190.607,307.5,191.092,307.538 M320,0C143.268,0,0,143.269,0,320
			C0,496.73,143.268,640,320,640c77.858,0,149.231-27.813,204.713-74.038c-11.538,5.82-24.576,9.098-38.38,9.098
			c-47.128,0-85.333-38.205-85.333-85.334c0-47.127,38.205-85.332,85.333-85.332s85.333,38.205,85.333,85.332
			c0,14.417-3.574,27.997-9.887,39.905C610.502,473.48,640,400.178,640,320c0-43.061-8.503-84.129-23.926-121.629
			c0.18,2.261,0.271,4.547,0.271,6.854c0,47.128-38.205,85.333-85.333,85.333s-85.333-38.205-85.333-85.333
			c0-17.583,5.319-33.926,14.436-47.505c-0.239-0.672-0.466-1.347-0.678-2.021c-0.216-0.685-0.431-1.395-0.643-2.124
			c-0.765-2.345-1.334-4.531-1.584-6.359c-1.494-7.316-1.739-14.724,2.277-17.014l18.535-16.456c0,0,14.766-14.648,32.88-14.647
			c3.97,0,8.103,0.704,12.273,2.419c9.067,3.729,14.069,10.839,16.292,18.787c16.221,1.596,31.109,7.734,43.374,17.125
			C525.038,54.363,428.87,0,320,0"/>
		<path fill="#FFFFFF" d="M409.941,291.101c9.921-2.841,16.486-5.066,26.901-10.998c1.761-1.011,4.627-2.655,10.582-6.072
			c2.333-1.352,7.86-4.554,7.86-4.554s4.642-2.654,7.215-4.126c7.935-4.587,12.846-7.426,15.41-8.909
			c10.357-6.036,15.575-10.599,23.008-17.756c-9.92,2.84-16.484,5.065-26.901,10.997c-2.569,1.475-7.489,4.299-15.438,8.863
			c-2.563,1.488-7.188,4.172-7.188,4.172s-5.543,3.175-7.883,4.516c-5.943,3.438-8.803,5.093-10.561,6.11
			C422.594,279.379,417.375,283.942,409.941,291.101z"/>
		<path fill="#FFFFFF" d="M539.469,120.306c3.466,12.392,0.176,26.818-4.994,33.64c-6.377,3.139-17.543,7.235-25.697,10.089
			c-3.165,1.222-6.378,2.436-9.462,3.559l48.585,12.445l9.437-6.26l2.574,0.628l-1.124,3.49c0.234-0.014,0.521-0.023,0.854-0.023
			c3.403,0,11.791,1.036,20.714,10c4.784,4.806,6.985,11.527,6.479,18.829c3.194,0.724,5.82,2.128,6.603,4.306
			c1.972,5.48-11.98,14.956-15.338,17.392c1.884,1.227,3.063,2.917,3.114,4.809c0.108,3.944-5.547,8.428-11.619,8.593
			c-0.111,0.003-0.223,0.004-0.332,0.004c-3.839,0-6.276-1.858-7.527-4.231l-14.318,7.25c0,0-1.468,0.315-3.254,0.315
			c-2.275,0-5.066-0.512-5.998-2.841c-1.667-4.159,4.812-8.562,4.812-8.562l5.733,0.13c-0.342-0.598-0.523-1.299-0.518-2.11
			c0.005-0.64,0.035-1.252,0.091-1.838c-2.031-0.233-3.59-0.603-4.052-1.175c-1.716-2.124,0.219-8.086,8.043-12.302
			c2.014-1.084,3.92-1.725,5.654-2.014c1.336-1.68,2.266-3.526,2.275-5.979c0.029-6.832-4.681-11.387-7-13.215l-0.142,0.44
			l-1.967-0.204l-5.006-9.108l-65.786-12.036c0,0-6.082,2.776-9.164,2.776c-0.736,0-1.302-0.159-1.571-0.552l0,0
			c-0.375-0.344-1.231-1.722-2.33-3.745c-2.182-3.749-5.086-9.342-7.122-15.085c-9.116,13.579-14.436,29.921-14.436,47.505
			c0,47.128,38.205,85.333,85.333,85.333s85.333-38.205,85.333-85.333c0-2.307-0.092-4.593-0.271-6.854
			c-1.972-24.82-14.563-46.647-33.231-60.94C570.578,128.04,555.689,121.902,539.469,120.306 M531.013,119.893
			c-3.699,0-7.347,0.236-10.921,0.692l9.254,25.432c0,0,9.082-8.327,3.898-26.096C532.504,119.902,531.758,119.893,531.013,119.893"
			/>
		<path fill="#FFFFFF" d="M294.633,131.738c-0.177,10.318,0.037,17.247,2.671,28.939c0.453,1.979,1.189,5.2,2.721,11.894
			c0.612,2.626,2.062,8.847,2.062,8.847s1.185,5.214,1.842,8.104c2.072,8.928,3.355,14.454,4.025,17.339
			c2.752,11.667,5.594,17.989,10.271,27.187c0.179-10.317-0.035-17.245-2.67-28.94c-0.661-2.888-1.927-8.417-3.973-17.351
			c-0.676-2.886-1.894-8.092-1.894-8.092s-1.421-6.228-2.021-8.857c-1.555-6.688-2.303-9.906-2.763-11.884
			C302.153,147.259,299.312,140.937,294.633,131.738z"/>
		<path fill="#FFFFFF" d="M171.289,306.041c-0.589,2.615-1.296,5.182-2.119,7.7c0.776,0.061,1.606,0.125,2.498,0.194
			c2.689,0.198,9.061,0.666,9.061,0.666s5.33,0.421,8.285,0.654c0.534,0.04,1.057,0.079,1.567,0.117
			c0.093-2.632,0.264-5.244,0.511-7.833c-0.484-0.038-0.979-0.076-1.484-0.115c-2.956-0.214-8.289-0.602-8.289-0.602
			s-6.369-0.498-9.057-0.708C171.929,306.088,171.605,306.064,171.289,306.041"/>
		<path fill="#FFFFFF" d="M101.016,210.157c8.308-6.122,13.685-10.498,21.378-19.688c1.298-1.562,3.41-4.102,7.801-9.381
			c8.446-10.205,28.457-34.381,28.457-34.381s16.772-20.216,26.071-31.424c5.837-7.066,9.449-11.44,11.336-13.724
			c7.602-9.269,10.901-15.364,15.371-24.665c-8.307,6.121-13.683,10.496-21.378,19.688c-1.894,2.278-5.52,6.641-11.377,13.689
			c-9.284,11.22-26.03,31.459-26.03,31.459s-20.034,24.156-28.491,34.353c-4.371,5.295-6.475,7.843-7.767,9.409
			C108.786,194.759,105.486,200.855,101.016,210.157z"/>
		<path fill="#FFFFFF" d="M71.012,370.861c0.281,0.695,0.576,1.407,0.885,2.138c1.163,2.725,3.39,7.941,6.987,16.371
			c5.745,13.382,16.108,37.521,16.108,37.521s8.383,19.588,14.25,33.297c1.684-2.505,3.496-4.915,5.428-7.222
			c-5.658-13.187-12.508-29.148-12.508-29.148s-10.332-24.151-16.06-37.541c-2.794-6.495-4.768-11.08-6.061-14.087
			C76.98,371.905,73.971,371.459,71.012,370.861"/>
		<path fill="#FFFFFF" d="M503.42,138.618c-7.809-6.747-13.266-11.021-23.931-16.49c-1.811-0.92-4.755-2.418-10.875-5.531
			c-11.821-5.979-39.826-20.143-39.826-20.143s-23.427-11.882-36.415-18.47c-8.183-4.128-13.247-6.684-15.893-8.018
			c-10.721-5.362-17.396-7.23-27.455-9.532c7.809,6.747,13.265,11.021,23.932,16.491c2.641,1.342,7.697,3.913,15.868,8.065
			c12.996,6.57,36.438,18.422,36.438,18.422s27.991,14.191,39.807,20.182c6.131,3.091,9.081,4.579,10.895,5.493
			C486.686,134.448,493.36,136.316,503.42,138.618z"/>
		<path fill="#FFFFFF" d="M540.369,438.771c4.173-9.438,6.669-15.905,8.785-27.702c0.353-2,0.926-5.254,2.116-12.016
			c2.268-13.052,7.64-43.972,7.64-43.972s4.526-25.876,7.036-40.221c1.56-9.031,2.525-14.621,3.029-17.541
			c1.999-11.82,1.837-18.749,1.103-29.042c-4.174,9.438-6.67,15.904-8.787,27.703c-0.514,2.918-1.495,8.505-3.082,17.531
			c-2.491,14.349-6.983,40.23-6.983,40.23s-5.402,30.914-7.684,43.964c-1.166,6.767-1.728,10.021-2.072,12.023
			C539.472,421.547,539.633,428.478,540.369,438.771z"/>
		<path fill="#FFFFFF" d="M235.43,549.893c10.053,2.331,16.873,3.57,28.858,3.438c2.03-0.028,5.334-0.075,12.199-0.174
			c17-0.278,57.274-0.938,57.274-0.938s33.711-0.522,52.4-0.812c9.164-0.16,14.836-0.26,17.798-0.312
			c11.984-0.252,18.761-1.71,28.733-4.36c-10.053-2.332-16.872-3.571-28.858-3.439c-2.963,0.043-8.635,0.125-17.799,0.258
			c-18.688,0.309-52.399,0.866-52.399,0.866s-40.274,0.63-57.275,0.896c-6.865,0.122-10.168,0.181-12.198,0.217
			C252.18,545.785,245.403,547.242,235.43,549.893z"/>
		<path fill="#FFFFFF" d="M392.17,386.928c5.115,8.963,8.836,14.812,17.07,23.521c1.4,1.471,3.678,3.864,8.411,8.838
			c1.867,1.946,6.29,6.555,6.29,6.555s3.682,3.879,5.722,6.029c6.34,6.618,10.264,10.715,12.313,12.854
			c8.322,8.627,13.994,12.612,22.712,18.133c-5.114-8.962-8.835-14.811-17.07-23.521c-2.044-2.146-5.955-6.254-12.275-12.892
			c-2.054-2.137-5.76-5.992-5.76-5.992s-4.401-4.63-6.259-6.585c-4.751-4.957-7.037-7.342-8.442-8.808
			C406.56,396.435,400.889,392.45,392.17,386.928z"/>
		<path fill="#FFFFFF" d="M238.19,420.392c-0.951,1.624-2.009,3.43-3.179,5.428c-1.486,2.564-4.167,7.191-4.167,7.191
			s-1.247,2.126-2.52,4.294c2.17,1.488,4.269,3.075,6.288,4.753c1.404-2.42,2.969-5.114,2.969-5.114s2.71-4.609,4.213-7.165
			c0.964-1.657,1.851-3.182,2.665-4.581C242.32,423.659,240.229,422.056,238.19,420.392"/>
		<path fill="#FFD900" d="M376.132,238.579c-22.271,0-56.327,6.021-69.022,31.251c-1.534,8.104-4.086,21.742-5.904,32.266
			c-1.553,36.12,8.491,42.092,23.226,62.13c16.667,22.667,35.334,52,36.667,64.667c0.422,4.013,0.845,8.827,1.225,13.533
			c27.855-9.627,51.402-28.498,66.976-52.939c-9.398-1.049-18.344-4.653-25.534-11.261c0,0,14-15.333,18.667-27.333
			s3.333-29.333,3.333-29.333s8.183,11.014,17.844,16.178c0.101-0.116,0.156-0.178,0.156-0.178l4.633-0.579
			c0.728-5.555,1.104-11.228,1.104-16.98c0-26.768-8.122-51.64-22.035-72.284c-4.769,6.287-14.494,17.487-23.261,17.487
			c-0.824,0-1.639-0.099-2.44-0.31c0,0,7.333-20.667-8-24.667C390.276,239.317,383.924,238.58,376.132,238.579 M320,190.5
			c-67.317,0-122.638,51.363-128.908,117.038c-0.247,2.589-0.418,5.202-0.511,7.833c-0.054,1.537-0.081,3.08-0.081,4.629
			c0,40.492,18.586,76.645,47.69,100.392c2.039,1.664,4.13,3.267,6.27,4.806C265.722,440.493,291.809,449.5,320,449.5
			c6.762,0,13.397-0.518,19.88-1.517c-5.666-6.365-13.274-12.167-23.449-15.758c-10.837-3.824-21.269-8.53-30.861-13.555
			c-1.079,0.96-1.806,1.555-1.806,1.555s-18.469-10.072-34.114-24.323c-3.949-3.046-7.283-5.878-9.886-8.343
			c-12.666-12-22-39.334-22-39.334s-6-38.667-4-44.667s-1.333-18-1.333-18l1.92-8.64c-0.951-1.738-1.075-3.132,0.747-3.36l0,0
			c0,0,3.333-5.333,3.333-7.333s0-14,0-14l3.769,0.655c0.144-0.797,0.231-1.322,0.231-1.322l12.789,1.599
			c6.516-7.408,35-36.205,87.211-40.265c15.146-1.178,27.744-1.719,38.265-1.719c15.281,0,26.18,1.141,34.142,3.127
			C373.705,199.312,347.881,190.5,320,190.5"/>
		<circle fill="#FFFFFF" cx="284.655" cy="89.107" r="85.333"/>
		<path fill="#C5D6D2" d="M199.489,99.025c10.071-2.273,20.316-6.436,24.143-9.457c7.513-5.93,9.53-41.415,15.441-40.793
			c7.511,0.79,1.133,27.481,6.667,28.667c5.533,1.186,44.706-21.479,48.264-17.129c3.56,4.349-29.198,20.157-24.06,21.343
			c5.14,1.186,39.478-6.715,42.245-0.785s-42.796,12.95-38.449,16.904c4.351,3.954,36.276-1.1,36.474,5.235
			c0.396,12.652-46.032,6.083-42.474,10.432c3.558,4.348,28.636,13.685,23.102,19.22c-5.536,5.535-20.954-7.907-32.813-8.698
			c-4.062-0.271-29.801,0.651-46.928,8.929C208.239,134.275,198.125,99.333,199.489,99.025z"/>
		<ellipse fill="#FFD900" cx="256.445" cy="92.335" rx="6.523" ry="3.163"/>
		
			<ellipse transform="matrix(0.8764 -0.4816 0.4816 0.8764 -18.9928 138.3536)" fill="#FFD900" cx="260.004" cy="106.173" rx="6.523" ry="3.163"/>
		
			<ellipse transform="matrix(0.8764 -0.4816 0.4816 0.8764 -12.3918 141.9274)" fill="#FFD900" cx="270.283" cy="95.103" rx="6.523" ry="3.163"/>
		
			<ellipse transform="matrix(0.8764 -0.4816 0.4816 0.8764 -16.9901 146.1501)" fill="#FFD900" cx="276.213" cy="106.173" rx="6.524" ry="3.162"/>
		
			<ellipse transform="matrix(0.8764 -0.4816 0.4816 0.8764 -10.6308 156.695)" fill="#FFD900" cx="299.935" cy="99.057" rx="6.524" ry="3.162"/>
		
			<ellipse transform="matrix(0.8764 -0.4816 0.4816 0.8764 10.6141 177.004)" fill="#FFD900" cx="350.144" cy="67.824" rx="6.524" ry="3.163"/>
		
			<ellipse transform="matrix(0.8764 -0.4816 0.4816 0.8764 -7.1045 141.177)" fill="#FFD900" cx="271.468" cy="84.428" rx="6.524" ry="3.163"/>
		
			<ellipse transform="matrix(0.8764 -0.4816 0.4816 0.8764 8.5606 153.1881)" fill="#FFD900" cx="302.701" cy="59.917" rx="6.524" ry="3.162"/>
		
			<ellipse transform="matrix(0.9988 0.049 -0.049 0.9988 2.3943 -15.7398)" fill="#FFD900" cx="322.074" cy="40.94" rx="6.524" ry="3.162"/>
		
			<ellipse transform="matrix(0.9208 -0.3899 0.3899 0.9208 4.1446 111.7854)" fill="#FFD900" cx="277.399" cy="45.685" rx="6.523" ry="3.162"/>
		
			<ellipse transform="matrix(0.9852 0.1711 -0.1711 0.9852 18.9195 -54.577)" fill="#FFD900" cx="326.026" cy="82.452" rx="6.524" ry="3.162"/>
		
			<ellipse transform="matrix(0.8747 0.4847 -0.4847 0.8747 95.3182 -146.8133)" fill="#FFD900" cx="331.563" cy="110.917" rx="6.523" ry="3.162"/>
		
			<ellipse transform="matrix(0.8746 0.4848 -0.4848 0.8746 102.6787 -140.4324)" fill="#FFD900" cx="322.865" cy="128.313" rx="6.523" ry="3.162"/>
		<path fill="#FFFFFF" d="M106.942,367.208c-0.376,0-0.76-0.015-1.149-0.043c-4.193-0.307-7.473-2.203-7.324-4.236
			c0.138-1.846,3.051-3.166,6.722-3.166c0.373,0,0.754,0.014,1.141,0.042c4.19,0.309,7.47,2.203,7.322,4.237
			C113.517,365.885,110.608,367.208,106.942,367.208 M87.496,366.43c-0.376,0-0.76-0.014-1.149-0.042
			c-4.193-0.307-7.473-2.203-7.325-4.237c0.139-1.844,3.049-3.165,6.718-3.165c0.375,0,0.757,0.014,1.146,0.042
			c4.19,0.309,7.47,2.203,7.321,4.236C94.07,365.107,91.162,366.43,87.496,366.43 M67.27,364.096c-0.375,0-0.758-0.014-1.147-0.042
			c-4.192-0.307-7.473-2.202-7.324-4.236c0.139-1.845,3.049-3.165,6.716-3.165c0.375,0,0.758,0.014,1.146,0.042
			c4.191,0.308,7.471,2.201,7.322,4.235C73.847,362.774,70.938,364.096,67.27,364.096 M120.945,361.763
			c-0.377,0-0.761-0.014-1.15-0.043c-4.193-0.306-7.473-2.202-7.324-4.236c0.137-1.845,3.048-3.165,6.716-3.165
			c0.375,0,0.757,0.014,1.146,0.042c4.19,0.307,7.47,2.202,7.322,4.236C127.519,360.44,124.61,361.763,120.945,361.763
			 M55.604,356.32c-0.376,0-0.76-0.015-1.149-0.043c-4.193-0.307-7.473-2.203-7.324-4.237c0.137-1.844,3.049-3.165,6.717-3.165
			c0.375,0,0.758,0.014,1.146,0.042c4.19,0.308,7.47,2.203,7.321,4.236C62.179,354.996,59.271,356.32,55.604,356.32 M82.051,356.319
			c-0.376,0-0.76-0.015-1.149-0.043c-4.192-0.308-7.472-2.203-7.324-4.237c0.138-1.844,3.049-3.165,6.718-3.165
			c0.375,0,0.757,0.014,1.146,0.042c4.19,0.308,7.47,2.203,7.322,4.236C88.627,354.995,85.718,356.319,82.051,356.319
			 M103.564,356.109c-0.378,0-0.762-0.014-1.153-0.043c-4.192-0.307-7.472-2.202-7.324-4.235c0.138-1.845,3.048-3.166,6.716-3.166
			c0.375,0,0.758,0.014,1.146,0.042c4.191,0.308,7.471,2.203,7.322,4.237C110.136,354.786,107.229,356.109,103.564,356.109
			 M127.169,350.874c-0.377,0-0.762-0.015-1.152-0.043c-4.193-0.307-7.473-2.202-7.324-4.236c0.138-1.844,3.049-3.165,6.718-3.165
			c0.374,0,0.756,0.014,1.145,0.042c4.191,0.308,7.471,2.203,7.321,4.236C133.741,349.549,130.835,350.874,127.169,350.874
			 M93.721,346.985c-0.377,0-0.761-0.015-1.15-0.043c-4.193-0.306-7.473-2.202-7.324-4.236c0.138-1.845,3.048-3.165,6.715-3.165
			c0.375,0,0.758,0.014,1.146,0.042c4.191,0.307,7.471,2.203,7.322,4.236C100.294,345.662,97.387,346.985,93.721,346.985
			 M113.167,344.651c-0.377,0-0.761-0.015-1.151-0.043c-4.193-0.306-7.473-2.201-7.324-4.236c0.137-1.845,3.048-3.164,6.715-3.164
			c0.375,0,0.758,0.014,1.146,0.042c4.191,0.307,7.471,2.201,7.322,4.235C119.739,343.328,116.832,344.651,113.167,344.651
			 M129.746,341.962c-0.376,0-0.76-0.015-1.149-0.043c-4.193-0.307-7.473-2.203-7.323-4.237c0.138-1.844,3.048-3.165,6.716-3.165
			c0.375,0,0.757,0.014,1.146,0.042c4.191,0.308,7.471,2.203,7.322,4.236C136.322,340.638,133.413,341.962,129.746,341.962
			 M138.057,332.984c-0.376,0-0.76-0.015-1.149-0.043c-4.192-0.308-7.472-2.203-7.324-4.236c0.138-1.845,3.048-3.166,6.717-3.166
			c0.375,0,0.757,0.014,1.146,0.042c4.19,0.308,7.47,2.203,7.322,4.237C144.632,331.661,141.724,332.984,138.057,332.984
			 M111.055,333.597c-0.414,0-0.837-0.016-1.267-0.047c-4.621-0.338-8.235-2.428-8.072-4.669c0.151-2.032,3.358-3.488,7.402-3.488
			c0.413,0,0.835,0.015,1.263,0.046c4.618,0.339,8.232,2.428,8.069,4.669C118.301,332.139,115.096,333.597,111.055,333.597
			 M126.969,321.831c-0.755,0-1.392-0.212-1.845-0.657c-1.623-1.601-0.265-5.612,3.032-8.962c2.377-2.415,5.116-3.829,7.068-3.829
			c0.754,0,1.391,0.211,1.844,0.657c1.623,1.598,0.268,5.612-3.03,8.961C131.66,320.417,128.921,321.831,126.969,321.831
			 M147.088,320.007c-0.987,0-1.821-0.276-2.414-0.859c-2.124-2.095-0.347-7.345,3.968-11.729c3.112-3.161,6.696-5.011,9.25-5.011
			c0.987,0,1.821,0.276,2.414,0.859c2.125,2.092,0.351,7.345-3.966,11.728C153.228,318.158,149.643,320.007,147.088,320.007
			 M151.831,297.228c-0.785,0-1.447-0.219-1.918-0.683c-1.688-1.665-0.275-5.837,3.153-9.321c2.473-2.512,5.32-3.981,7.351-3.981
			c0.784,0,1.446,0.22,1.918,0.683c1.688,1.663,0.278,5.835-3.151,9.319C156.71,295.758,153.861,297.228,151.831,297.228
			 M38.348,291.188l6.657-2.218l-6.657-18.856c0,0,65.444-23.293,82.637-23.849c0.324-0.011,0.652-0.016,0.981-0.016
			c17.145,0,41.169,13.881,41.169,13.881s-7.21,34.939-48.806,50.47c-41.596,15.527-65.443,17.746-65.443,17.746l-1.109-19.965
			l-5.547-0.507l-34.467,8.352l-3.667-15c7.054-5.291,29.16-9.056,34.291-9.873L38.348,291.188L38.348,291.188 M88.037,201.893
			c-47.128,0-85.333,38.205-85.333,85.333c0,41.298,29.338,75.744,68.308,83.635c2.959,0.599,5.969,1.044,9.03,1.328
			c2.631,0.245,5.3,0.37,7.995,0.37c37.872,0,69.98-24.671,81.133-58.818c0.823-2.518,1.53-5.084,2.119-7.7
			c1.361-6.052,2.081-12.352,2.081-18.815C173.37,240.098,135.165,201.893,88.037,201.893"/>
		<path fill="#C5D6D2" d="M38.387,291.354c-5.131,0.817-27.237,4.583-34.291,9.873l3.667,15l34.467-8.352L38.387,291.354"/>
		<path fill="#AEBCB6" d="M118.171,304.024c-0.735,0-1.355-0.206-1.797-0.64c-1.581-1.56-0.258-5.469,2.954-8.733
			c2.316-2.353,4.985-3.73,6.887-3.73c0.735,0,1.355,0.206,1.797,0.64c1.582,1.558,0.261,5.467-2.952,8.731
			C122.742,302.647,120.073,304.024,118.171,304.024 M137.802,290.581c-0.78,0-1.438-0.218-1.906-0.679
			c-1.679-1.656-0.274-5.804,3.135-9.268c2.459-2.498,5.29-3.958,7.309-3.958c0.78,0,1.438,0.218,1.907,0.679
			c1.679,1.653,0.277,5.802-3.134,9.266C142.652,289.12,139.82,290.581,137.802,290.581 M123.52,288.994
			c-0.812,0-1.496-0.227-1.982-0.706c-1.745-1.721-0.285-6.034,3.259-9.635c2.557-2.597,5.501-4.116,7.6-4.116
			c0.811,0,1.495,0.227,1.982,0.706c1.745,1.719,0.287,6.033-3.258,9.634C128.563,287.475,125.618,288.994,123.52,288.994
			 M122.186,275.748c-0.936,0-1.93-0.084-2.95-0.262c-4.762-0.828-8.3-3.37-7.898-5.678c0.316-1.814,2.968-2.943,6.398-2.943
			c0.937,0,1.931,0.084,2.951,0.261c4.76,0.827,8.297,3.368,7.896,5.678C128.268,274.618,125.616,275.748,122.186,275.748
			 M137.091,270.525c-0.739,0-1.375-0.202-1.852-0.627c-1.866-1.67-0.59-6.145,2.85-9.996c2.56-2.868,5.6-4.583,7.758-4.583
			c0.739,0,1.375,0.202,1.853,0.627c1.866,1.667,0.593,6.144-2.848,9.995C142.289,268.81,139.248,270.525,137.091,270.525
			 M110.032,259.483c-0.919,0-1.895-0.083-2.897-0.257c-4.677-0.812-8.15-3.309-7.757-5.576c0.312-1.782,2.916-2.891,6.284-2.891
			c0.92,0,1.896,0.083,2.897,0.256c4.674,0.812,8.147,3.308,7.754,5.576C116.004,258.373,113.401,259.483,110.032,259.483
			 M121.966,246.249c-0.329,0-0.657,0.005-0.981,0.016c-17.192,0.555-82.637,23.849-82.637,23.849l6.657,18.856l-6.657,2.218
			c0,0,48.071-12.979,63.21-12.98c1.122,0,2.062,0.071,2.789,0.225c10.537,2.218,4.033,5.371,0.553,7.764
			c-8.873,6.1-62.67,21.678-62.67,21.678l-3.882-16.687l0.039,0.166l3.843,16.521l5.547,0.507l1.109,19.965
			c0,0,23.848-2.219,65.443-17.746c41.596-15.531,48.806-50.47,48.806-50.47S139.11,246.248,121.966,246.249"/>
		<path fill="#84A096" d="M101.558,278.208c-15.139,0.001-63.21,12.98-63.21,12.98l0,0l3.882,16.687c0,0,53.797-15.578,62.67-21.678
			c3.48-2.393,9.984-5.546-0.553-7.764C103.619,278.279,102.68,278.208,101.558,278.208"/>
		<path fill="#748C82" d="M117.735,266.865c-3.431,0-6.082,1.129-6.398,2.943c-0.401,2.309,3.137,4.851,7.898,5.678
			c1.021,0.177,2.015,0.262,2.95,0.262c3.431,0,6.082-1.13,6.397-2.944c0.4-2.31-3.137-4.851-7.896-5.678
			C119.666,266.949,118.672,266.865,117.735,266.865"/>
		<path fill="#748C82" d="M105.662,250.76c-3.368,0-5.973,1.109-6.284,2.891c-0.394,2.267,3.08,4.763,7.757,5.576
			c1.003,0.174,1.979,0.257,2.897,0.257c3.369,0,5.972-1.11,6.281-2.891c0.394-2.269-3.08-4.764-7.754-5.576
			C107.558,250.842,106.582,250.76,105.662,250.76"/>
		<path fill="#748C82" d="M132.396,274.537c-2.099,0-5.043,1.519-7.6,4.116c-3.544,3.601-5.004,7.914-3.259,9.635
			c0.486,0.479,1.171,0.706,1.982,0.706c2.099,0,5.044-1.519,7.601-4.117c3.545-3.601,5.003-7.915,3.258-9.634
			C133.891,274.764,133.206,274.537,132.396,274.537"/>
		<path fill="#748C82" d="M145.847,255.318c-2.158,0-5.198,1.716-7.758,4.583c-3.439,3.851-4.716,8.326-2.85,9.996
			c0.477,0.426,1.112,0.627,1.852,0.627c2.157,0,5.198-1.716,7.761-4.585c3.44-3.851,4.714-8.327,2.848-9.995
			C147.222,255.52,146.586,255.318,145.847,255.318"/>
		<path fill="#748C82" d="M146.339,276.676c-2.019,0-4.85,1.461-7.309,3.958c-3.409,3.464-4.813,7.612-3.135,9.268
			c0.468,0.461,1.126,0.679,1.906,0.679c2.019,0,4.851-1.461,7.311-3.96c3.411-3.463,4.812-7.613,3.134-9.266
			C147.777,276.894,147.119,276.676,146.339,276.676"/>
		<path fill="#748C82" d="M126.215,290.922c-1.901,0-4.57,1.377-6.887,3.73c-3.212,3.264-4.535,7.173-2.954,8.733
			c0.441,0.434,1.062,0.64,1.797,0.64c1.902,0,4.571-1.377,6.889-3.732c3.213-3.264,4.534-7.173,2.952-8.731
			C127.57,291.127,126.95,290.922,126.215,290.922"/>
		<path fill="#ADBCB6" d="M160.417,283.243c-2.03,0-4.878,1.47-7.351,3.981c-3.429,3.483-4.841,7.656-3.153,9.321
			c0.471,0.463,1.133,0.683,1.918,0.683c2.03,0,4.879-1.47,7.353-3.983c3.43-3.483,4.839-7.656,3.151-9.319
			C161.863,283.462,161.201,283.243,160.417,283.243"/>
		<path fill="#ADBCB6" d="M135.225,308.383c-1.952,0-4.691,1.414-7.068,3.829c-3.297,3.35-4.655,7.361-3.032,8.962
			c0.453,0.445,1.09,0.657,1.845,0.657c1.952,0,4.691-1.413,7.069-3.83c3.298-3.349,4.653-7.363,3.03-8.961
			C136.615,308.594,135.979,308.383,135.225,308.383"/>
		<path fill="#ADBCB6" d="M157.892,302.408c-2.554,0-6.138,1.85-9.25,5.011c-4.314,4.385-6.092,9.635-3.968,11.729
			c0.593,0.583,1.427,0.859,2.414,0.859c2.555,0,6.14-1.849,9.252-5.013c4.316-4.383,6.091-9.636,3.966-11.728
			C159.713,302.684,158.879,302.408,157.892,302.408"/>
		<path fill="#ADBCB6" d="M109.118,325.393c-4.044,0-7.251,1.456-7.402,3.488c-0.163,2.241,3.451,4.331,8.072,4.669
			c0.43,0.031,0.853,0.047,1.267,0.047c4.041,0,7.246-1.458,7.396-3.489c0.163-2.241-3.451-4.33-8.069-4.669
			C109.953,325.408,109.531,325.393,109.118,325.393"/>
		<path fill="#ADBCB6" d="M136.3,325.539c-3.669,0-6.579,1.321-6.717,3.166c-0.147,2.033,3.132,3.929,7.324,4.236
			c0.39,0.028,0.773,0.043,1.149,0.043c3.667,0,6.575-1.323,6.711-3.166c0.147-2.034-3.132-3.93-7.322-4.237
			C137.057,325.552,136.675,325.539,136.3,325.539"/>
		<path fill="#ADBCB6" d="M53.848,348.875c-3.668,0-6.58,1.321-6.717,3.165c-0.148,2.034,3.131,3.931,7.324,4.237
			c0.39,0.028,0.773,0.043,1.149,0.043c3.666,0,6.574-1.324,6.71-3.167c0.148-2.033-3.131-3.929-7.321-4.236
			C54.605,348.888,54.223,348.875,53.848,348.875"/>
		<path fill="#ADBCB6" d="M65.514,356.653c-3.667,0-6.577,1.32-6.716,3.165c-0.148,2.034,3.132,3.93,7.324,4.236
			c0.39,0.028,0.772,0.042,1.147,0.042c3.668,0,6.577-1.322,6.713-3.166c0.148-2.034-3.131-3.928-7.322-4.235
			C66.271,356.667,65.889,356.653,65.514,356.653"/>
		<path fill="#ADBCB6" d="M80.295,348.874c-3.669,0-6.58,1.321-6.718,3.165c-0.147,2.034,3.132,3.93,7.324,4.237
			c0.39,0.028,0.773,0.043,1.149,0.043c3.667,0,6.576-1.324,6.712-3.167c0.147-2.033-3.132-3.929-7.322-4.236
			C81.052,348.887,80.67,348.874,80.295,348.874"/>
		<path fill="#ADBCB6" d="M85.739,358.986c-3.669,0-6.579,1.321-6.718,3.165c-0.147,2.034,3.132,3.931,7.325,4.237
			c0.39,0.028,0.773,0.042,1.149,0.042c3.666,0,6.574-1.323,6.71-3.166c0.148-2.033-3.131-3.928-7.321-4.236
			C86.496,359,86.114,358.986,85.739,358.986"/>
		<path fill="#ADBCB6" d="M101.803,348.665c-3.668,0-6.578,1.321-6.716,3.166c-0.147,2.033,3.132,3.929,7.324,4.235
			c0.392,0.029,0.775,0.043,1.153,0.043c3.665,0,6.571-1.323,6.706-3.165c0.148-2.034-3.131-3.93-7.322-4.237
			C102.561,348.678,102.178,348.665,101.803,348.665"/>
		<path fill="#ADBCB6" d="M105.19,359.763c-3.671,0-6.584,1.32-6.722,3.166c-0.148,2.033,3.131,3.93,7.324,4.236
			c0.39,0.028,0.773,0.043,1.149,0.043c3.666,0,6.574-1.323,6.711-3.166c0.147-2.034-3.132-3.929-7.322-4.237
			C105.944,359.777,105.563,359.763,105.19,359.763"/>
		<path fill="#ADBCB6" d="M91.961,339.541c-3.667,0-6.577,1.32-6.715,3.165c-0.148,2.034,3.131,3.931,7.324,4.236
			c0.39,0.028,0.773,0.043,1.15,0.043c3.666,0,6.573-1.323,6.709-3.166c0.148-2.033-3.131-3.93-7.322-4.236
			C92.719,339.554,92.336,339.541,91.961,339.541"/>
		<path fill="#ADBCB6" d="M125.41,343.429c-3.669,0-6.58,1.321-6.718,3.165c-0.148,2.034,3.131,3.93,7.324,4.236
			c0.391,0.028,0.775,0.043,1.152,0.043c3.666,0,6.572-1.324,6.707-3.166c0.149-2.033-3.13-3.929-7.321-4.236
			C126.166,343.443,125.784,343.429,125.41,343.429"/>
		<path fill="#ADBCB6" d="M119.187,354.319c-3.668,0-6.579,1.32-6.716,3.165c-0.148,2.034,3.131,3.931,7.324,4.236
			c0.39,0.029,0.773,0.043,1.15,0.043c3.665,0,6.573-1.323,6.709-3.166c0.147-2.034-3.132-3.93-7.322-4.236
			C119.943,354.333,119.562,354.319,119.187,354.319"/>
		<path fill="#ADBCB6" d="M111.406,337.208c-3.667,0-6.578,1.319-6.715,3.164c-0.148,2.035,3.131,3.931,7.324,4.236
			c0.391,0.028,0.774,0.043,1.151,0.043c3.665,0,6.572-1.323,6.708-3.166c0.148-2.034-3.131-3.929-7.322-4.235
			C112.164,337.221,111.781,337.208,111.406,337.208"/>
		<path fill="#ADBCB6" d="M127.989,334.517c-3.668,0-6.578,1.321-6.716,3.165c-0.149,2.034,3.13,3.931,7.323,4.237
			c0.39,0.028,0.773,0.043,1.149,0.043c3.667,0,6.576-1.324,6.711-3.167c0.148-2.033-3.131-3.929-7.322-4.236
			C128.746,334.531,128.364,334.517,127.989,334.517"/>
		<path fill="#AEBCB6" d="M499.315,167.594c-3.423,1.248-6.689,2.385-9.553,3.299c-12.278,3.918-16.607,6.189-18.774,6.189
			c-0.598,0-1.031-0.173-1.421-0.531l0,0l0,0c0.27,0.393,0.835,0.552,1.571,0.552c3.082,0,9.164-2.776,9.164-2.776l65.786,12.036
			l5.006,9.108l1.967,0.204l0.142-0.44l0,0l-0.142,0.44l-1.967-0.204l-1.332-2.911l7.574-18.781l-9.437,6.26L499.315,167.594
			 M458.795,153.576c0.212,0.729,0.427,1.439,0.643,2.124c0.212,0.674,0.438,1.349,0.678,2.021
			c2.036,5.744,4.94,11.336,7.122,15.085C464.733,168.199,460.972,160.248,458.795,153.576 M477.124,124.523
			c0,0,11.016-13.907,24.748-18.967c1.604-0.591,4.019-0.961,6.814-0.961c8.685,0,21.075,3.566,24.504,15.142
			c0.019,0.061,0.036,0.124,0.054,0.184c5.184,17.769-3.898,26.096-3.898,26.096l-9.254-25.432l-3.09-8.491L477.124,124.523
			 M510.903,99.1c-18.114-0.001-32.88,14.647-32.88,14.647l-18.535,16.456c-4.017,2.29-3.771,9.698-2.277,17.014
			c-0.23-1.687-0.189-3.07,0.219-3.99c0,0,11.333,12.667,31.333,14.667c1.82,0.182,3.879,0.262,6.083,0.262
			c15.477,0,38.251-3.928,38.251-3.928l0,0l0,0c0,0-11.78,4.967-24.319,9.809c8.154-2.854,19.32-6.95,25.697-10.089
			c5.17-6.822,8.46-21.249,4.994-33.64c-2.223-7.947-7.225-15.058-16.292-18.787C519.006,99.804,514.873,99.101,510.903,99.1"/>
		<path fill="#FFF26B" d="M489.834,221.183c0,0-19.957,3.161-22.302,0.868c-2.343-2.294-0.87-9.679,7.874-15.804
			c8.746-6.124,16.478-4.013,18.03,0.356c1.55,4.37,2.757,8.105,2.757,8.105L489.834,221.183z"/>
		<path fill="#FFF26B" d="M488.334,226.144l-21.6,2.039c0,0-7.112,6.162-4.542,10.89c2.567,4.728,11.393,1.719,11.393,1.719
			l17.068-11.317L488.334,226.144z"/>
		<path fill="#FFF26B" d="M492.146,231.029c-0.75,0.406-25.963,14.107-21.257,21.576c4.704,7.466,25.981,1.4,25.981,1.4
			s-3.548-7.125-2.337-12.633c1.209-5.508,3.663-8.134,3.663-8.134L492.146,231.029z"/>
		<path fill="#FFF26B" d="M500.49,235.164c0,0-4.921,9.34,0.347,17.809c5.269,8.467,20.793,2.695,28.964-7.408
			c8.173-10.108,15.791-24.909-17.234-21.293C479.542,227.888,500.49,235.164,500.49,235.164z"/>
		<path fill="#FFF26B" d="M509.982,217.177l26.035-21.953c0,0,7.086,3.247,7.198,10.637c0.113,7.39-10.947,14.462-10.947,14.462
			l-20.726,1.685L509.982,217.177z"/>
		<path fill="#FFF26B" d="M499.803,217.017c0,0-6.547-19.085-1.612-23.531c4.936-4.446,22.343-5.965,25.569,0.515
			c3.228,6.481-13.292,20.455-16.205,23.214C504.644,219.973,499.803,217.017,499.803,217.017z"/>
		<path fill="#FFD900" d="M512.283,222.2c0.682,4.69-5.439,10.832-12.66,11.879c-7.221,1.049-11.051-3.809-11.732-8.498
			c-0.355-2.455,6.341-9.435,10.086-9.979C505.197,214.555,511.604,217.509,512.283,222.2z"/>
		<path fill="#FFD900" d="M557.928,214.429c-1.734,0.289-3.641,0.929-5.654,2.014c-7.824,4.216-9.759,10.178-8.043,12.302
			c0.462,0.572,2.021,0.941,4.052,1.175C549.063,221.581,554.691,218.495,557.928,214.429"/>
		<path fill="#FFD900" d="M542.976,233.738c0,0-6.479,4.404-4.812,8.562c0.932,2.329,3.723,2.841,5.998,2.841
			c1.786,0,3.254-0.315,3.254-0.315l14.318-7.25c-0.267-0.507-0.479-1.038-0.641-1.579c-1.884,0.39-3.694,0.594-5.332,0.594
			c-3.354,0-5.984-0.856-7.053-2.724L542.976,233.738"/>
		<path fill="#FFD900" d="M563.708,238.556c-0.659,0.263-22.833,9.144-19.668,15.775c3.165,6.629,21.345,3.678,21.345,3.678
			s-2.242-6.235-0.706-10.671c1.534-4.437,3.816-6.37,3.816-6.37L563.708,238.556z"/>
		<path fill="#FFD900" d="M570.206,242.784c0,0-4.976,7.244-1.44,14.757c3.533,7.511,16.928,4.245,24.664-3.315
			c7.737-7.564,15.472-19.062-12.184-19.276C553.593,234.736,570.206,242.784,570.206,242.784z"/>
		<path fill="#FFD900" d="M579.798,228.834l23.654-15.625c0,0,5.544,3.372,4.919,9.492c-0.623,6.12-10.453,10.895-10.453,10.895
			l-17.299-0.617L579.798,228.834z"/>
		<path fill="#FFD900" d="M586.834,206.703c-0.396,5.696-2.439,11.746-6.192,17.517c-0.876,1.346-1.977,2.606-3.239,3.766
			c0.242,0.131,0.474,0.27,0.696,0.415c3.357-2.436,17.31-11.912,15.338-17.392C592.654,208.832,590.028,207.427,586.834,206.703"/>
		<path fill="#FFF26B" d="M577.402,227.986c-4.367,4.015-10.673,6.845-16.309,8.012c0.161,0.541,0.374,1.072,0.641,1.579
			c1.251,2.373,3.688,4.231,7.527,4.231c0.109,0,0.221-0.001,0.332-0.004c6.072-0.166,11.728-4.649,11.619-8.593
			c-0.051-1.892-1.23-3.582-3.114-4.809C577.876,228.256,577.645,228.117,577.402,227.986"/>
		<path fill="#DCE6E4" d="M559.642,177.874c-0.334,0-0.62,0.01-0.854,0.023l-5.584,17.337c2.319,1.828,7.029,6.383,7,13.215
			c-0.01,2.453-0.939,4.3-2.275,5.979c0.754-0.125,1.476-0.184,2.159-0.184c3.854,0,6.516,1.869,7.058,4.242
			c0.857,3.764,1.492,6.968,1.492,6.968l-5.885,4.736c0,0-2.549,0.103-5.762,0.103c-2.814,0-6.139-0.079-8.708-0.375
			c-0.056,0.586-0.086,1.199-0.091,1.838c-0.006,0.811,0.176,1.512,0.518,2.11l12.037,0.272c-0.014-0.168-0.022-0.335-0.027-0.501
			c-0.056-2.064,6.157-7.186,9.306-7.271c0.157-0.004,0.313-0.006,0.469-0.006c0.215,0,0.429,0.004,0.641,0.012
			c-0.733-3.983-2.511-15.63,1.214-18.269c1.823-1.292,5.286-1.992,8.898-1.992c1.893,0,3.826,0.191,5.588,0.591
			c0.507-7.302-1.694-14.022-6.479-18.829C571.433,178.91,563.045,177.874,559.642,177.874"/>
		<path fill="#DCC500" d="M560.087,214.245c-0.684,0-1.405,0.059-2.159,0.184c-3.236,4.066-8.864,7.152-9.646,15.491
			c2.569,0.295,5.894,0.375,8.708,0.375c3.213,0,5.762-0.103,5.762-0.103l5.885-4.736c0,0-0.635-3.205-1.492-6.968
			C566.603,216.114,563.941,214.245,560.087,214.245"/>
		<path fill="#DCC500" d="M548.709,233.868c1.068,1.867,3.698,2.724,7.053,2.724c1.638,0,3.448-0.204,5.332-0.594
			c-0.182-0.612-0.296-1.237-0.348-1.857L548.709,233.868"/>
		<path fill="#DCC500" d="M581.246,206.112c-3.612,0-7.075,0.699-8.898,1.992c-3.725,2.639-1.947,14.286-1.214,18.269
			c2.383,0.09,4.556,0.678,6.269,1.613c1.263-1.16,2.363-2.42,3.239-3.766c3.753-5.771,5.797-11.82,6.192-17.517
			C585.072,206.304,583.139,206.112,581.246,206.112"/>
		<path fill="#E2DB63" d="M570.493,226.361c-0.155,0-0.312,0.002-0.469,0.006c-3.148,0.086-9.361,5.207-9.306,7.271
			c0.005,0.167,0.014,0.333,0.027,0.501c0.052,0.62,0.166,1.245,0.348,1.857c5.636-1.167,11.941-3.997,16.309-8.012
			c-1.713-0.935-3.886-1.523-6.269-1.613C570.922,226.365,570.708,226.361,570.493,226.361"/>
		<path fill="#FFFFFF" d="M486.333,404.393c-47.128,0-85.333,38.205-85.333,85.332c0,47.129,38.205,85.334,85.333,85.334
			c13.804,0,26.842-3.277,38.38-9.098c5.39-2.719,10.451-5.991,15.11-9.744c-3.65,2.733-9.536,6.632-17.894,10.676
			c-15.5,7.5-37.5,7.5-37.5,7.5l-17-40.5l59.5-23l17.45,41.382c6.991-6.491,12.894-14.143,17.399-22.645
			c6.312-11.908,9.887-25.488,9.887-39.905C571.666,442.598,533.461,404.393,486.333,404.393"/>
		<polygon fill="#FFD900" points="467.43,503.393 467.43,533.893 526.93,510.893 510.93,487.893 		"/>
		<polygon fill="#C5D6D2" points="472.93,504.393 509.43,493.393 518.93,510.893 473.93,526.893 		"/>
		<path fill="#AEBCB6" d="M480.93,480.393c0,0,4.432,4.515,7,16.5c1.5,7,1.5,14.5,1.5,14.5l9-3.5c0,0-3.5-19.5-10.5-29.5
			S480.93,480.393,480.93,480.393z"/>
		<path fill="#FFD900" d="M493.482,570.273c-0.721,0-1.385-0.38-1.385-0.38s-16-34.334-14.667-36
			c0.031-0.039,0.072-0.059,0.12-0.059c2.007-0.003,18.198,32.779,17.547,35.059C494.786,569.982,494.112,570.273,493.482,570.273
			 M504.097,565.227c0,0-16.001-33.333-13.667-35.333s2.334-2,2.334-2s16.666,35.999,15.333,36.666S504.097,565.227,504.097,565.227
			 M518.059,564.024c-0.754,0-1.356-0.316-1.628-1.131c0,0-14-36.666-12.667-37.666c1.105-0.83,2.213-2.578,3.318-2.578
			c0.228,0,0.455,0.074,0.682,0.244c1.333,1,16,38.334,14,39.667C520.578,563.35,519.157,564.024,518.059,564.024 M532.563,556.267
			c-0.319,0-0.6-0.106-0.8-0.373c0,0-15.334-35.668-14.667-37.334c0.596-1.487,1.456-3.771,2.345-3.771
			c0.107,0,0.215,0.033,0.322,0.104c1,0.666,16,39.666,16,39.666S533.844,556.267,532.563,556.267 M526.93,510.893l-59.5,23l17,40.5
			c0,0,22,0,37.5-7.5c8.357-4.044,14.243-7.942,17.894-10.676c3.12-2.337,4.606-3.824,4.606-3.824l-0.05-0.118L526.93,510.893"/>
		<path fill="#C5D6D2" d="M438.93,531.393c0,0,2-22,11.5-29s7-20,13.5-18.5s-1,14-3,22s6.166,6,6.166,6l0.334,22l14.333,33.667
			c0,0-15.882,4.922-27.667,0.666c-12-4.333-13.333-5-31.333-21.666c-10.964-10.151-16.333-22.667-16.333-22.667L438.93,531.393z"/>
		<path fill="#AEBCB6" d="M464.284,452.969c0,0-18.979,3.006-21.208,0.824c-2.229-2.182-0.828-9.203,7.488-15.029
			c8.316-5.822,15.669-3.816,17.146,0.34c1.475,4.156,2.622,7.707,2.622,7.707L464.284,452.969z"/>
		<path fill="#AEBCB6" d="M462.857,457.686l-20.54,1.939c0,0-6.764,5.859-4.319,10.355c2.441,4.496,10.834,1.635,10.834,1.635
			l16.231-10.762L462.857,457.686z"/>
		<path fill="#AEBCB6" d="M466.482,462.333c-0.713,0.385-24.689,13.414-20.215,20.518c4.474,7.1,24.708,1.332,24.708,1.332
			s-3.374-6.777-2.223-12.014c1.15-5.238,3.483-7.736,3.483-7.736L466.482,462.333z"/>
		<path fill="#AEBCB6" d="M474.418,466.264c0,0-4.68,8.883,0.33,16.936s19.773,2.564,27.544-7.045
			c7.771-9.611,15.017-23.688-16.39-20.248C454.497,459.344,474.418,466.264,474.418,466.264z"/>
		<path fill="#AEBCB6" d="M483.445,449.159l24.758-20.877c0,0,6.739,3.088,6.846,10.115c0.107,7.027-10.41,13.754-10.41,13.754
			l-19.71,1.602L483.445,449.159z"/>
		<path fill="#AEBCB6" d="M473.765,449.006c0,0-6.227-18.148-1.533-22.377s21.247-5.672,24.315,0.49
			c3.069,6.162-12.641,19.451-15.41,22.076C478.368,451.819,473.765,449.006,473.765,449.006z"/>
		<path fill="#FFD900" d="M485.633,453.936c0.648,4.459-5.173,10.301-12.039,11.297c-6.867,0.996-10.51-3.623-11.157-8.082
			c-0.338-2.334,6.029-8.973,9.591-9.488C478.895,446.667,484.986,449.475,485.633,453.936z"/>
		<path fill="#C5D6D2" d="M515.43,494.226c0,0,3.333-11.667,7.333-10s-1.667,18.667-1.667,18.667L515.43,494.226z"/>
		<path fill="#C5D6D2" d="M525.096,507.56c0,0,7-22.334,12.667-18.334s-8,28.334-8,28.334L525.096,507.56z"/>
		<path fill="#C5D6D2" d="M530.763,520.56c0,0,9.667-19.334,14-16.667s-10,25-10,25L530.763,520.56z"/>
		<path fill="#C5D6D2" d="M536.152,533.78c0,0,9.943-10.554,12.61-5.887s-8.667,13.667-8.667,13.667L536.152,533.78z"/>
		<g>
			<defs>
				<path id="SVGID_1_" d="M94.784,507.725c0-47.127,38.205-85.332,85.333-85.332s85.333,38.205,85.333,85.332
					c0,47.129-38.205,85.334-85.333,85.334S94.784,554.854,94.784,507.725"/>
			</defs>
			<clipPath id="SVGID_2_">
				<use xlink:href="#SVGID_1_"  overflow="visible"/>
			</clipPath>
			<path clip-path="url(#SVGID_2_)" fill="#FFFFFF" d="M160.17,513.092c-0.092-6.68,0.622-13.418,2.695-19.498
				c4.688-13.754,21.883-39.701,21.883-39.701l4.689,1.25c0,0-14.785,34.856-16.035,43.297c-0.361,2.442,0.409,6.232,1.688,10.386
				l52.062-28.982l3.271,4.074l-44.834,52.281l-6.47,36.174l-18.497-11.854c0,0,5.444-11.671,2.631-23.862
				c-0.088-0.382-0.176-0.768-0.263-1.159l-27.954-1.89l-11.425-18.574L160.17,513.092 M180.117,422.393
				c-26.285,0-49.794,11.884-65.447,30.572c-1.932,2.307-3.744,4.717-5.428,7.222c-9.13,13.585-14.458,29.94-14.458,47.538
				c0,47.129,38.205,85.334,85.333,85.334s85.333-38.205,85.333-85.334c0-26.408-11.996-50.015-30.837-65.667
				c-2.02-1.678-4.118-3.265-6.288-4.753C214.608,427.897,198.006,422.393,180.117,422.393"/>
			<path clip-path="url(#SVGID_2_)" fill="#AEBCB6" d="M233.964,541.143c-7.199-3.449-14.215-1.141-18.68,1.26
				c-1.903-14.88-9.614-36.148-12.236-46.344c-1.885-7.328-0.844-16.221,1.489-25.006c12.944-7.562,17.677,3.84,17.677,3.84
				s4.5-8.75-2.5-13.75c-3.274-2.339-8.049-2.451-11.213-2.199c5.617-14.655,12.881-26.551,12.881-26.551l-11-4.667
				c0,0-1.967,3.969-4.701,9.812l0.033-0.145c0,0-3.75-7-12.5-7.5c-6.79-0.388-11.5,6-11.5,6s8.5-2,14.25,2.25
				c1.717,1.269,3.533,6.379,4.73,10.338c-5.086,11.492-10.471,24.844-11.48,31.912c-2,14,11.168,67.666,11.168,67.666
				l-8.168,44.834c10.5-1.5,25.5-8.5,25.5-8.5s-1.402-15.082-1.858-28.502C221.276,547.092,233.964,541.143,233.964,541.143z"/>
			<path clip-path="url(#SVGID_2_)" fill="#FFD900" d="M44.526,562.57l79.087-47.536c0,0,11.254,14.771,11.35,17.736
				c0.095,2.964-80.522,49.065-80.522,49.065S44.901,571.163,44.526,562.57z"/>
			<path clip-path="url(#SVGID_2_)" fill="#FFD900" d="M108.399,636.591l52.225-76.072c0,0,16.369,8.769,17.686,11.427
				c1.317,2.656-52.895,78.06-52.895,78.06S112.306,644.252,108.399,636.591z"/>
			<path clip-path="url(#SVGID_2_)" fill="#AEBCB6" d="M134.963,532.77c0,0,8.833,8.343,14.147,12.719
				c5.314,4.377,16.567,9.377,16.567,9.377l-1.876,6.564c0,0-14.691-3.75-21.256-9.063c-6.565-5.314-10.63-16.881-10.63-16.881
				L134.963,532.77z"/>
			<path clip-path="url(#SVGID_2_)" fill="#AEBCB6" d="M162.992,535.498c0.087,0.392,0.175,0.777,0.263,1.159
				c2.813,12.191-2.631,23.862-2.631,23.862l18.497,11.854l6.47-36.174l-0.67,0.781L162.992,535.498 M184.748,453.893
				c0,0-17.194,25.947-21.883,39.701c-2.073,6.08-2.787,12.818-2.695,19.498l8.023-0.427l6.897-3.84
				c-1.279-4.153-2.05-7.943-1.688-10.386c1.25-8.44,16.035-43.297,16.035-43.297L184.748,453.893"/>
			<path clip-path="url(#SVGID_2_)" fill="#C5D6D2" d="M174.23,528.973c-1.067,0-2.228-0.166-3.404-0.517
				c-3.97-1.184-6.63-4.021-5.939-6.338c0.486-1.63,2.501-2.568,5.037-2.568c1.067,0,2.227,0.167,3.403,0.518
				c3.971,1.184,6.63,4.021,5.939,6.338C178.781,528.036,176.766,528.973,174.23,528.973 M227.153,479.843l-52.062,28.982
				l-6.897,3.84l-8.023,0.427l-36.557,1.941l11.425,18.574l27.954,1.89l21.929,1.482l0.67-0.781l44.834-52.281L227.153,479.843"/>
			<path clip-path="url(#SVGID_2_)" fill="#97B6AD" d="M169.924,519.55c-2.536,0-4.551,0.938-5.037,2.568
				c-0.69,2.316,1.97,5.154,5.939,6.338c1.177,0.351,2.337,0.517,3.404,0.517c2.535,0,4.551-0.938,5.036-2.567
				c0.69-2.316-1.969-5.154-5.939-6.338C172.15,519.717,170.991,519.55,169.924,519.55"/>
		</g>
		<path fill="#C5D6D2" d="M214.351,276.92l-1.92,8.64c0,0,3.333,12,1.333,18s4,44.667,4,44.667s9.334,27.334,22,39.334
			c2.603,2.465,5.937,5.297,9.886,8.343c-10.437-9.506-19.618-20.872-21.219-32.343c0,0,28.666,18,39.333,25.333
			c5.812,3.996,8.459,5.617,10.741,5.617c1.906,0,3.56-1.13,6.593-2.95c6.666-4,20.666-8,20.666-8s7.1,3.944,11.288,3.944
			c1.257,0,2.25-0.354,2.712-1.278c1.701-3.401,8.705-7.768,11.173-7.768c0.434,0,0.728,0.136,0.827,0.435c0.667,2,14,20,14,20
			s-9.332,3.999-14.666,7.333c-4.718,2.949-3.698,11.114-10.781,11.114c-0.925,0-1.986-0.14-3.219-0.447
			c-8.591-2.147-16.75-8.619-20.993-8.619c-1.025,0-1.821,0.378-2.341,1.286c-1.827,3.197-5.846,7.021-8.194,9.111
			c9.593,5.024,20.024,9.73,30.861,13.555c10.175,3.591,17.783,9.393,23.449,15.758c13.267,14.905,15.884,32.909,15.884,32.909
			l8-18.667c0,0-0.622-9.647-1.441-19.8c-0.38-4.706-0.803-9.521-1.225-13.533c-1.333-12.667-20-42-36.667-64.667
			c-14.734-20.038-24.778-26.01-23.226-62.13c-1.374,7.955-2.329,14.133-2.107,14.797c0.432,1.296-4.737,5.393-9.881,5.393
			c-2.792,0-5.576-1.207-7.453-4.726c-4.338-8.135-8.236-23.328-14.563-23.33c-1.451,0-3.028,0.798-4.77,2.663
			c-6.703,7.182-13.063,16.084-17.597,16.084c-1.779,0-3.276-1.369-4.403-4.751c-3.17-9.508-6.339-16.087-9.509-16.087
			c-0.83,0-1.66,0.451-2.491,1.42c-0.596,0.695-1.177,0.991-1.734,0.991c-3.185,0-5.599-9.657-5.599-9.657
			S216.186,280.269,214.351,276.92 M218.431,252.227c0,0,0,12,0,14s-3.333,7.333-3.333,7.333c5.333-0.667,8-4.666,8-7.333
			s-2.666-5.333-2-8c0.425-1.7,0.85-3.943,1.102-5.345L218.431,252.227 M360.695,211.174c-10.521,0-23.118,0.541-38.265,1.719
			c-52.211,4.061-80.695,32.857-87.211,40.265l3.211,0.401l10.667-12.667c0,0,5.157-2.379,10.818-2.38
			c4.719,0,9.787,1.652,12.515,7.713c4.866,10.812-2.106,26.889,1.128,26.889c0.754,0,2.062-0.873,4.205-2.889
			c9.13-8.593,10.04-21.08,13.185-21.08c0.76,0,1.648,0.727,2.815,2.413c6,8.667,14.667,11.333,14.667,11.333
			s-0.522,2.718-1.321,6.938c12.695-25.23,46.751-31.252,69.022-31.251c7.792,0,14.145,0.738,17.632,1.647
			c15.333,4,8,24.667,8,24.667c0.802,0.211,1.616,0.31,2.44,0.31c8.767,0,18.492-11.2,23.261-17.487
			c1.86-2.452,2.966-4.157,2.966-4.157s-9.333-11.333-18.667-20.667c-3.555-3.555-8.656-6.529-16.927-8.592
			C386.875,212.315,375.977,211.174,360.695,211.174"/>
		<path fill="#C5D6D2" d="M474.431,313.56l-1.333,11.333c0,0-1.684,7.857-12.775,13.273l1.441,6.727c0,0-2.666,8,6,14.667
			s-4,19.333-4,19.333s-17.948,7.614-26.334,7.614c-0.897,0-1.688-0.088-2.332-0.281c-6.666-2-3.334-14.666,6-18.666
			s6.666-10-1.334-13.334c-7.455-3.106,2.458-14.896,3.844-16.488c-9.661-5.164-17.844-16.178-17.844-16.178
			s1.334,17.333-3.333,29.333s-18.667,27.333-18.667,27.333c7.19,6.607,16.136,10.212,25.534,11.261
			c1.964,0.219,3.945,0.326,5.937,0.326c21.171,0,43.229-12.159,51.863-31.587C500.432,328.226,474.431,313.56,474.431,313.56"/>
		<path fill="#C6B807" d="M215.098,273.56L215.098,273.56c-1.822,0.228-1.698,1.623-0.747,3.36L215.098,273.56L215.098,273.56
			 M307.109,269.831c-2.393,4.754-4.025,10.189-4.679,16.396c-0.618,5.875-1.021,11.132-1.226,15.87
			C303.023,291.572,305.575,277.935,307.109,269.831 M222.431,251.56c0,0-0.088,0.525-0.231,1.322l11.564,2.011
			c0,0,0.483-0.629,1.456-1.735L222.431,251.56"/>
		<path fill="#97B6AD" d="M259.916,238.513c-5.661,0-10.818,2.38-10.818,2.38l-10.667,12.667l-3.211-0.401
			c-0.973,1.105-1.456,1.735-1.456,1.735l-11.564-2.011c-0.252,1.402-0.677,3.645-1.102,5.345c-0.666,2.667,2,5.333,2,8
			s-2.667,6.667-8,7.333l0,0l-0.747,3.36c1.835,3.349,6.747,7.973,6.747,7.973s2.414,9.657,5.599,9.657
			c0.558,0,1.139-0.296,1.734-0.991c0.831-0.969,1.661-1.421,2.491-1.42c3.17,0,6.339,6.579,9.509,16.087
			c1.127,3.382,2.624,4.751,4.403,4.751c4.533,0,10.894-8.902,17.597-16.084c1.741-1.865,3.318-2.664,4.77-2.663
			c6.327,0.001,10.226,15.195,14.563,23.33c1.877,3.519,4.661,4.726,7.453,4.726c5.144,0,10.312-4.097,9.881-5.393
			c-0.222-0.664,0.733-6.842,2.107-14.797c0.204-4.738,0.607-9.994,1.226-15.87c0.653-6.207,2.286-11.642,4.679-16.396
			c0.799-4.219,1.321-6.938,1.321-6.938s-8.667-2.667-14.667-11.333c-1.167-1.686-2.056-2.413-2.815-2.413
			c-3.145,0-4.055,12.487-13.185,21.08c-2.143,2.016-3.451,2.889-4.205,2.889c-3.234,0,3.738-16.076-1.128-26.889
			C269.703,240.166,264.635,238.513,259.916,238.513"/>
		<path fill="#C6B807" d="M249.649,395.903c15.646,14.251,34.114,24.323,34.114,24.323s0.727-0.595,1.806-1.555
			C271.249,411.17,258.798,402.959,249.649,395.903"/>
		<path fill="#97B6AD" d="M228.431,363.56c1.601,11.471,10.782,22.837,21.219,32.343c9.148,7.057,21.6,15.268,35.92,22.769
			c2.349-2.091,6.367-5.914,8.194-9.111c0.52-0.908,1.315-1.286,2.341-1.286c4.243,0,12.402,6.472,20.993,8.619
			c1.232,0.308,2.294,0.447,3.219,0.447c7.083,0,6.063-8.165,10.781-11.114c5.334-3.334,14.666-7.333,14.666-7.333s-13.333-18-14-20
			c-0.1-0.299-0.394-0.435-0.827-0.435c-2.468,0-9.472,4.366-11.173,7.768c-0.462,0.924-1.455,1.278-2.712,1.278
			c-4.188,0-11.288-3.944-11.288-3.944s-14,4-20.666,8c-3.033,1.82-4.687,2.95-6.593,2.95c-2.282,0-4.929-1.621-10.741-5.617
			C257.097,381.56,228.431,363.56,228.431,363.56"/>
		<path fill="#CBCD5D" d="M459.764,335.56l-11.367,1.421c-0.115,0.881-0.238,1.752-0.371,2.627c1.557,0.475,3.126,0.745,4.682,0.745
			c1.484,0,2.954-0.246,4.391-0.793c1.154-0.439,2.228-0.907,3.225-1.394L459.764,335.56"/>
		<path fill="#C6B807" d="M448.396,336.981l-4.633,0.579c0,0-0.056,0.062-0.156,0.178c1.446,0.774,2.927,1.416,4.418,1.87
			C448.158,338.733,448.281,337.862,448.396,336.981"/>
		<path fill="#97B6AD" d="M443.607,337.738c-1.386,1.592-11.299,13.382-3.844,16.488c8,3.334,10.668,9.334,1.334,13.334
			s-12.666,16.666-6,18.666c0.645,0.193,1.435,0.281,2.332,0.281c8.386,0,26.334-7.614,26.334-7.614s12.666-12.666,4-19.333
			s-6-14.667-6-14.667l-1.441-6.727c-0.997,0.486-2.07,0.954-3.225,1.394c-1.437,0.547-2.906,0.793-4.391,0.793
			c-1.556,0-3.125-0.271-4.682-0.745C446.534,339.154,445.054,338.512,443.607,337.738"/>
		<path fill="#F7C500" d="M477.551,533.834c-0.048,0-0.089,0.02-0.12,0.059c-1.333,1.666,14.667,36,14.667,36s0.664,0.38,1.385,0.38
			c0.63,0,1.304-0.291,1.615-1.38C495.749,566.614,479.558,533.832,477.551,533.834"/>
		<path fill="#F7C500" d="M492.764,527.894c0,0,0,0-2.334,2s13.667,35.333,13.667,35.333s2.667,0,4-0.667
			S492.764,527.894,492.764,527.894"/>
		<path fill="#F7C500" d="M507.082,522.649c-1.105,0-2.213,1.748-3.318,2.578c-1.333,1,12.667,37.666,12.667,37.666
			c0.271,0.814,0.874,1.131,1.628,1.131c1.099,0,2.52-0.674,3.705-1.464c2-1.333-12.667-38.667-14-39.667
			C507.537,522.723,507.31,522.649,507.082,522.649"/>
		<path fill="#F7C500" d="M519.441,514.79c-0.889,0-1.749,2.283-2.345,3.771c-0.667,1.666,14.667,37.334,14.667,37.334
			c0.2,0.267,0.48,0.373,0.8,0.373c1.28,0,3.2-1.707,3.2-1.707s-15-39-16-39.666C519.656,514.823,519.549,514.79,519.441,514.79"/>
		<path fill="#D9D15E" d="M457.211,147.216c0.25,1.829,0.819,4.015,1.584,6.359C458.209,151.555,457.655,149.39,457.211,147.216"/>
		<path fill="#D4DCD9" d="M467.237,172.806c1.099,2.023,1.955,3.401,2.33,3.745C469.023,175.76,468.201,174.463,467.237,172.806
			 M508.777,164.035c-5.766,2.018-10.026,3.415-10.026,3.415l0.564,0.145C502.399,166.471,505.612,165.257,508.777,164.035"/>
		<path fill="#8FA29A" d="M457.43,143.227c-0.408,0.92-0.449,2.303-0.219,3.99c0.444,2.174,0.998,4.338,1.584,6.359
			c2.177,6.672,5.938,14.623,8.442,19.23c0.964,1.657,1.786,2.954,2.33,3.745l0,0c0.39,0.358,0.823,0.531,1.421,0.531
			c2.167,0,6.496-2.271,18.774-6.189c2.863-0.914,6.13-2.051,9.553-3.299l-0.564-0.145c0,0,4.261-1.397,10.026-3.415
			c12.539-4.841,24.319-9.809,24.319-9.809s-22.774,3.928-38.251,3.928c-2.204,0-4.263-0.08-6.083-0.262
			C468.763,155.893,457.43,143.227,457.43,143.227"/>
		<path fill="#8FA29A" d="M557.337,173.779L557.337,173.779l-7.574,18.781l1.332,2.911l1.967,0.204l0.142-0.44
			c-0.757-0.597-1.26-0.903-1.26-0.903l6.102-16.364c0,0,0.26-0.042,0.742-0.07l1.124-3.49L557.337,173.779"/>
		<path fill="#7A958A" d="M558.787,177.897c-0.482,0.028-0.742,0.07-0.742,0.07l-6.102,16.364c0,0,0.503,0.306,1.26,0.903
			L558.787,177.897"/>
		<path d="M398.798,265.15c3.87,0.229,7.481,0.129,10.986-0.243c3.508-0.374,6.916-1.057,10.396-2.268
			c1.733-0.643,3.496-1.362,5.263-2.407c1.761-1.042,3.573-2.264,5.274-4.074c1.684-1.777,3.318-4.146,4.175-7.162
			c0.882-3,0.751-6.468-0.192-9.472c-0.672-2.25-1.952-4.782-3.845-7.434c-2.096-2.877-4.924-5.255-8.073-7.441
			c-0.796-0.509-1.609-1.03-2.439-1.561l-0.156-0.099l-0.299-0.167l-1.09-0.597c-0.729-0.397-1.462-0.795-2.198-1.195
			c-1.487-0.688-2.981-1.444-4.503-2.082c-6.085-2.594-12.458-4.579-19.015-6.212c-13.116-3.245-26.973-5.067-40.983-5.741
			c-14.01-0.697-28.188-0.171-41.923,1.663c-6.868,0.893-13.618,2.196-20.159,3.846c-6.535,1.669-12.883,3.637-18.867,6.134
			c-5.962,2.468-11.7,5.417-16.782,8.837c-5.099,3.406-9.603,7.229-13.452,11.239c-0.479,0.504-0.955,1.004-1.426,1.5
			c-0.452,0.517-0.899,1.029-1.344,1.538c-0.905,1-1.71,2.069-2.531,3.087c-0.793,1.047-1.566,2.08-2.281,3.137
			c-0.295,0.438-0.587,0.873-0.875,1.302l0.004-0.006l0.018-0.005l0.01,0.007c-0.391-0.229-0.776-0.457-1.156-0.68
			c-0.79-0.451-1.568-0.896-2.337-1.335c-7.135-4.078-14.069-8.041-20.696-11.828c-0.828-0.474-1.652-0.944-2.471-1.412
			c-0.704-0.329-2.108-1.514-1.331-0.039c0.57,1.738,1.134,3.453,1.689,5.144c1.111,3.37,2.19,6.644,3.233,9.807
			c1.086,3.209,2.207,6.369,3.345,9.412c0.566,1.521,1.151,3.018,1.723,4.464c0.214,0.527,0.424,1.042,0.627,1.543l-0.007-0.019
			l0.011,0.003l0.005,0.001c-0.181-0.014-0.186-0.014,0.007,0.001c-0.371-0.025-0.737-0.049-1.092-0.073
			c-0.809-0.05-1.59-0.091-2.332-0.114c-1.475-0.058-2.791-0.044-3.727-0.03c-1.908,0.079-2.24,0.077,0.382-0.004
			c-1.648,0.032-3.304,0.124-5.059,0.378c-1.766,0.292-3.604,0.603-5.945,1.839c-0.268,0.131-0.598,0.349-0.913,0.571
			c-0.32,0.234-0.604,0.417-0.933,0.716c-0.333,0.31-0.652,0.638-0.954,0.976c-0.297,0.312-0.604,0.812-0.864,1.239
			c-0.548,0.846-0.876,1.967-1.061,2.955c-0.06,0.483-0.092,0.974-0.097,1.46l0.001,0.363c-0.105-0.75,0.146,1.13,0.122,0.941
			l0.007,0.03l0.013,0.059l0.053,0.236l0.026,0.12c0.055,0.204,0.117,0.41,0.188,0.615c0.143,0.409,0.318,0.815,0.521,1.2
			c0.102,0.192,0.209,0.38,0.321,0.561l0.085,0.134l0.051,0.07l0.097,0.129l0.401,0.509l0.422,0.488
			c0.13,0.136,0.24,0.235,0.363,0.352c0.237,0.221,0.49,0.452,0.728,0.647c0.875,0.683,1.681,1.188,2.399,1.579
			c2.88,1.548,5.24,2.315,7.546,3.089c0.566,0.178,1.118,0.35,1.656,0.519l-0.003-0.001l0.001-0.004l0.003,0l-0.011,0.007
			c-0.172,0.117-0.308,0.209-0.406,0.276c-0.548,0.375-0.69,0.475-0.441,0.303c0.112-0.076,0.4-0.272,0.859-0.585l-0.226,0.152
			c-0.413,0.281-0.811,0.549-1.212,0.855c-0.79,0.582-1.571,1.225-2.372,2.045c-0.206,0.22-0.398,0.422-0.599,0.653
			c-0.219,0.272-0.428,0.547-0.626,0.821c-0.093,0.119-0.207,0.3-0.319,0.493c-0.105,0.188-0.21,0.374-0.313,0.559
			c-0.104,0.209-0.183,0.322-0.293,0.612c-0.104,0.26-0.196,0.523-0.278,0.788c-0.081,0.273-0.153,0.507-0.211,0.81
			c-0.057,0.345-0.094,0.695-0.11,1.043c-0.016,0.35-0.017,0.688,0.011,1.032c0.046,0.37,0.117,0.742,0.21,1.104
			c0.094,0.362,0.21,0.714,0.342,1.047c0.135,0.294,0.285,0.568,0.448,0.84c0.312,0.524,0.741,1.097,1.022,1.349
			c0.314,0.318,0.646,0.613,0.98,0.88l0.063,0.05l0.031,0.024l0.283,0.197l0.037,0.024l0.075,0.049l0.147,0.096
			c0.194,0.126,0.38,0.248,0.559,0.364l0.139,0.089l0.252,0.143c0.168,0.091,0.333,0.181,0.493,0.268
			c0.323,0.172,0.636,0.329,0.936,0.474c1.5,0.607,0.866,0.326,0.992,0.386v0v0c-0.004,0.01,0.015-0.036-0.029,0.074
			c-0.013,0.034-0.028,0.079-0.171,0.485c-0.184,0.457-0.319,1.117-0.574,2.082c-0.243,0.965-0.604,2.236-0.823,3.902
			c-0.02,0.123-0.043,0.273-0.2,1.271c-0.215,1.005-0.329,2.833-0.548,6.325c-0.009,0.564,0.018,1.422,0.035,2.566
			c0.012,0.572,0.025,1.214,0.039,1.925c0.006,0.714,0.028,1.492,0.134,2.315c0.184,1.654,0.329,3.59,0.631,5.728
			c0.398,2.105,0.771,4.477,1.325,7.015c0.323,1.251,0.661,2.556,1.012,3.912c0.176,0.678,0.355,1.368,0.539,2.072
			c0.092,0.352,0.185,0.706,0.278,1.064c0.115,0.348,0.231,0.698,0.35,1.053c0.47,1.415,0.957,2.88,1.459,4.39
			c0.502,1.512,0.999,3.079,1.661,4.613c0.626,1.553,1.27,3.149,1.93,4.786c0.331,0.818,0.666,1.647,1.005,2.485
			c0.383,0.813,0.771,1.637,1.162,2.469c0.785,1.665,1.587,3.368,2.407,5.106c0.424,0.871,0.794,1.745,1.275,2.638
			c0.483,0.892,0.972,1.793,1.466,2.702c3.994,7.239,9.231,14.541,15.757,21.2c0.817,0.83,1.641,1.665,2.469,2.505
			c0.848,0.817,1.729,1.607,2.6,2.419c1.722,1.652,3.604,3.14,5.449,4.721c3.796,3.007,7.747,5.986,11.954,8.682
			c8.362,5.485,17.455,10.294,26.856,14.682c9.39,4.399,19.154,8.342,28.65,12.449c4.728,2.063,9.42,4.188,13.588,6.6
			c2.1,1.188,4.015,2.493,5.507,3.82c0.719,0.594,1.533,1.481,2.269,2.304c0.738,0.841,1.419,1.722,2.069,2.622
			c2.568,3.624,4.287,7.779,5.195,12.205c0.927,4.433,1.013,9.089,0.58,13.842c-0.106,1.2-0.247,2.392-0.401,3.703
			c-0.074,0.669-0.16,1.318-0.219,2.322l-0.015,0.438l-0.004,0.223l0.014,0.392l0.027,0.392c0.016,0.159,0.012,0.197,0.051,0.454
			c0.059,0.351,0.144,0.704,0.254,1.05c0.334,0.699-0.253-0.112,0.901,1.79c0.186,0.188-0.391-0.385,0.733,0.831
			c0.974,0.9,1.9,1.259,2.175,1.344c0.536,0.192,0.956,0.276,1.234,0.314c0.336,0.052,0.705,0.078,0.894,0.076
			c0.227,0.004,0.478-0.002,0.684-0.018l0.507-0.057c0.358-0.049,0.549-0.099,0.828-0.161c0.931-0.238,1.502-0.5,2.055-0.762
			c0.539-0.265,1.01-0.535,1.437-0.812c0.862-0.553,1.594-1.132,2.269-1.735c1.347-1.208,2.456-2.512,3.412-3.878
			c3.816-5.506,5.103-11.745,5.272-17.453c0.144-5.755-0.811-11.144-2.177-16.165c-0.347-1.255-0.72-2.489-1.119-3.703l-0.305-0.905
			l-0.261-0.758l-0.187-0.519c-0.243-0.693-0.501-1.369-0.758-2.036c-1.029-2.653-2.112-5.185-3.211-7.397
			c-1.101-2.234-2.061-4.351-3.064-6.232c-1.014-1.877-1.932-3.577-2.737-5.068c-0.841-1.473-1.614-2.716-2.217-3.732
			c-4.866-7.991-9.79-13.635-15.128-18.195c-1.336-1.139-2.733-2.184-4.127-3.207c-1.449-0.978-2.868-1.959-4.419-2.825
			c-3.054-1.753-6.348-3.389-10.081-4.479c2.763,2.693,4.826,5.49,6.777,8.173c0.986,1.323,1.868,2.707,2.791,4.014
			c0.881,1.342,1.76,2.681,2.65,4.039c3.487,5.446,7.094,11.1,11.507,18.51c0.547,0.945,1.252,2.092,2.022,3.459
			c0.742,1.388,1.587,2.97,2.521,4.716c0.929,1.749,1.819,3.737,2.844,5.821c1.04,2.099,1.965,4.29,2.877,6.639
			c0.225,0.585,0.45,1.177,0.659,1.777c0.216,0.625,0.433,1.254,0.65,1.886c0.342,1.042,0.659,2.092,0.95,3.147
			c1.153,4.214,1.87,8.553,1.759,12.716c-0.102,4.136-1.113,8.133-3.146,11.019c-0.497,0.716-1.059,1.356-1.615,1.854
			c-0.274,0.248-0.553,0.46-0.77,0.597c-0.109,0.073-0.197,0.117-0.233,0.136l-0.011,0.006c0.013,0.037-0.043-0.074,0.032,0.08
			c0.132,0.282,0.246,0.572,0.357,0.868c0.235,0.597,0.443,1.216,0.598,1.848c0.17,0.604,0.248,1.267,0.253,1.76
			c-0.014,0.145-0.006,0.242-0.022,0.35c-0.025,0.119-0.044,0.209-0.062,0.273l-0.051,0.188l-0.088-0.014
			c0.285-0.074,0.374-0.182,0.584-0.225c0.184-0.051,0.372-0.071,0.559-0.062c0.599-0.091,1.363-0.196,2.039-0.193
			c0.349-0.004,0.696,0.009,1.043,0.036c0.381-0.014,1.608-0.016,1.36-0.022l0.003-0.044c0.016-0.28,0.08-0.909,0.153-1.521
			c0.146-1.248,0.31-2.623,0.432-4.001c0.505-5.542,0.445-11.438-0.776-17.28c-1.188-5.836-3.562-11.626-7.105-16.615
			c-0.891-1.24-1.827-2.444-2.83-3.588c-1.023-1.143-1.99-2.212-3.284-3.331c-2.457-2.174-4.967-3.809-7.448-5.229
			c-4.977-2.867-9.918-5.071-14.801-7.209c-9.77-4.22-19.31-8.07-28.377-12.316c-9.06-4.224-17.643-8.773-25.395-13.855
			c-15.598-10.041-27.496-22.58-34.393-35.36c-0.434-0.797-0.863-1.586-1.289-2.366c-0.426-0.783-0.792-1.647-1.185-2.454
			c-0.771-1.636-1.528-3.237-2.267-4.803c-0.37-0.782-0.736-1.556-1.098-2.32c-0.314-0.779-0.624-1.549-0.931-2.309
			c-0.614-1.519-1.213-3-1.795-4.44c-0.623-1.432-1.07-2.859-1.528-4.238c-0.46-1.379-0.906-2.715-1.338-4.008
			c-0.107-0.322-0.215-0.643-0.321-0.96c-0.083-0.321-0.165-0.639-0.247-0.954c-0.163-0.63-0.323-1.248-0.48-1.855
			c-0.316-1.213-0.621-2.381-0.913-3.5c-0.488-2.243-0.805-4.299-1.166-6.143c-0.259-1.843-0.374-3.472-0.54-4.883
			c-0.098-0.708-0.112-1.351-0.113-1.935c-0.012-0.586-0.021-1.114-0.031-1.585c-0.016-0.941-0.046-1.653-0.041-2.111
			c0.196-2.772,0.255-4.236,0.435-4.977c0.12-0.761,0.139-0.875,0.153-0.969c0.155-1.293,0.434-2.196,0.607-2.899
			c0.185-0.697,0.271-1.2,0.405-1.5l0.075-0.21c0.021-0.058,0.035-0.103,0.099-0.247c0.098-0.229,0.168-0.394,0.22-0.516
			c0.104-0.244,0.136-0.317,0.162-0.38c0.652-1.471,1.092-2.824,2.084-4.19l0.159-0.251l-0.074-0.189l-0.258-0.345
			c-0.171-0.228-0.338-0.452-0.503-0.672c-0.285-0.38-0.561-0.749-0.826-1.104c-0.584-0.781-1.088-1.454-1.521-2.033
			c-0.401-0.536-0.673-0.899-0.857-1.146c-0.949-1.268-0.999-1.335-0.999-1.335s-0.023-0.031-0.243-0.324
			c-0.113-0.152-0.278-0.373-0.518-0.692c-0.153-0.205-0.331-0.442-0.535-0.716c-0.103-0.137-0.213-0.284-0.329-0.44l-0.187-0.25
			l-0.055-0.073l-0.101,0.008l-0.21,0.023c-0.566,0.042-1.203,0.181-1.909,0.164c-0.176-0.044-0.355-0.09-0.54-0.137l-0.1-0.038
			l-0.177-0.062l-0.059-0.033l-0.039-0.003l-0.023,0.002l-0.127-0.082c-0.178-0.116-0.364-0.237-0.559-0.363l-0.147-0.096
			l-0.074-0.048l-0.038-0.024c-0.503,0.871-1.008,1.745-1.514,2.621c-0.119,0.205-0.277,0.401-0.478,0.576
			c-0.271,0.205-0.253,0.245-0.395,0.331l-0.195,0.09l0.01,0.004l-0.021,0.01l0.202-0.012l0.184,0.042
			c0.1,0.017,0.271,0.042,0.395,0.083c0.133,0.041,0.26,0.094,0.377,0.16c0.044,0.032,0.129,0.069,0.24,0.11l0.294,0.132
			c0.191,0.095,0.376,0.203,0.552,0.323l0.257,0.189c0.088,0.067,0.239,0.148,0.354,0.226c0.244,0.158,0.482,0.328,0.713,0.509
			l0.339,0.281l0.017,0.036l0.079-0.078c0.144-0.147,0.469-0.444,0.927-0.775c0.212-0.165,0.478-0.341,0.745-0.525l0.101-0.069
			l0.242-0.15l0.521-0.321c0.358-0.214,0.687-0.439,1.086-0.654c-0.458,0.25-0.812,0.491-1.161,0.7
			c-0.171,0.105-0.331,0.205-0.482,0.298l-0.205,0.127l-0.08,0.056c-0.206,0.141-0.351,0.24-0.431,0.295
			c-0.162,0.109-0.068,0.047,0.286-0.195l0.146-0.1l0.081-0.057l0.214-0.132c0.31-0.191,0.66-0.407,1.055-0.65
			c0.81-0.477,1.837-1.065,3.11-1.706c2.55-1.306,5.965-2.898,11.08-4.889c2.555-1.019,5.357-2.137,8.413-3.355
			c1.523-0.607,3.109-1.24,4.759-1.898c0.807-0.322,1.628-0.649,2.466-0.984l0.312-0.124l0.11-0.057l-0.15-0.028l-0.595-0.11
			c-0.397-0.074-0.799-0.149-1.204-0.225c-3.438-0.641-7.124-1.328-11.061-2.062c-3.949-0.752-8.205-1.474-12.229-2.398
			c-2.029-0.464-4.085-0.943-6.131-1.502c-1.057-0.269-2-0.562-3.013-0.849c-0.52-0.162-1.047-0.325-1.58-0.491
			c-1.918-0.622-4.016-1.388-5.468-2.188c-0.365-0.193-0.604-0.372-0.729-0.455l0.01,0l-0.018,0.027l-0.146,0.164l-0.301,0.32
			c-0.197,0.206-0.445,0.419-0.63,0.598c-0.142,0.163-0.297,0.317-0.464,0.461c-0.299,0.299-0.834,0.509-0.908,0.796
			c-0.099,0.129-0.221,0.243-0.363,0.332l-0.227,0.115l-0.127-0.096l-0.255-0.193l-0.064-0.048l-0.032-0.024
			c-0.434-0.033,3.655,0.172,1.913,0.089l-0.1,0.016c-0.136,0.016-0.288,0.009-0.449-0.026c-0.119-0.03-0.051-0.008-0.078-0.013
			l-0.032-0.003l-0.037-0.014l0.151,0.074l0.118,0.087l0.047,0.046l0.134,0.097c0.188,0.143,0.344,0.305,0.468,0.478
			c0.031,0.067,0.207,0.23,0.304,0.356c0.112,0.135,0.216,0.275,0.311,0.418s0.18,0.29,0.256,0.439
			c0.035,0.097,0.288,0.458,0.297,0.48c0.043-0.042,0.938-0.353,1.949-0.48c1.034-0.151,2.257-0.23,3.545-0.253
			c-2.011,0.062-1.739,0.063-0.303,0.004c0.739-0.009,1.785-0.024,3.044,0.027c0.625,0.019,1.303,0.055,2.008,0.098l0.535,0.035
			c0.263,0.021,0.527,0.041,0.794,0.062c0.742,0.066,1.491,0.133,2.245,0.2c-3.856-0.345-3.272-0.283-0.464-0.047
			c1.488,0.152,3.594,0.376,6.098,0.757c0.63,0.098,1.281,0.199,1.948,0.303l0.254,0.042l0.128,0.021l0.044-0.08l0.097-0.417
			c0.061-0.26,0.121-0.523,0.183-0.789c0.174-0.753,0.354-1.532,0.535-2.317c-0.225,0.972-0.407,1.766-0.552,2.392
			c-0.105,0.457-0.196,0.853-0.274,1.188c-0.37-0.003-0.764-0.113-1.026-0.142c-1.089-0.163-1.012-0.153,0.106,0.018
			c0.142,0.024,0.3,0.051,0.475,0.08c0.087,0.015,0.179,0.03,0.274,0.046l0.146,0.024l0.045-0.103
			c0.075-0.323,0.161-0.696,0.259-1.118c0.138-0.598,0.308-1.333,0.507-2.197c0.165-0.714,0.379-1.64,0.635-2.747
			c0.22-0.935,0.457-1.946,0.711-3.027c0.096-0.409,0.192-0.824,0.291-1.246c0.057-0.239,0.112-0.479,0.169-0.722l0.043-0.182
			l0.011-0.046l0.279-0.02l0.616-0.034l0.309-0.017l-0.025-0.06l-0.062-0.122l-0.123-0.245c-0.323-0.652-0.677-1.316-0.988-1.984
			c-0.299-0.667-0.601-1.342-0.907-2.027c-0.251-0.598-0.506-1.203-0.764-1.816c-0.116-0.288-0.234-0.578-0.354-0.873l0.001,0.002
			l0.007,0.016l-0.031,0.005l-0.005-0.002c0.432,0.255,0.869,0.514,1.312,0.776c1.674,0.99,3.392,2.005,5.152,3.046
			c0.88,0.52,1.771,1.047,2.672,1.58c0.451,0.267,0.904,0.535,1.36,0.804l0.687,0.405l0.331,0.197l0.164,0.098l0.096-0.178
			c0.986-2.067,1.995-4.181,3.025-6.338c0.567-0.98,1.141-1.97,1.72-2.97l0.108-0.188l0.164-0.261l0.108-0.16l0.217-0.32
			l0.435-0.646c0.585-0.865,1.233-1.726,1.892-2.599c0.694-0.852,1.359-1.748,2.131-2.592c0.375-0.43,0.753-0.863,1.134-1.3
			c0.4-0.42,0.805-0.844,1.212-1.271c3.271-3.402,7.125-6.676,11.518-9.606c4.393-2.947,9.298-5.478,14.713-7.725
			c5.388-2.25,11.218-4.056,17.27-5.601c6.061-1.527,12.375-2.75,18.85-3.588c12.938-1.727,26.445-2.233,39.781-1.567
			c13.329,0.636,26.533,2.388,38.716,5.403c6.081,1.51,11.913,3.342,17.2,5.595c1.327,0.554,2.567,1.192,3.842,1.771
			c0.598,0.327,1.194,0.652,1.787,0.976l0.89,0.482l0.243,0.133l0.119,0.077c0.636,0.407,1.26,0.805,1.871,1.195
			c2.332,1.608,4.191,3.241,5.188,4.629c1.151,1.614,1.874,3.051,2.139,3.957c0.394,1.283,0.439,2.216,0.281,3.138
			c-0.16,0.92-0.606,1.923-1.321,2.969c-1.459,2.103-3.801,4.094-6.227,5.906c-2.476,1.806-5.123,3.516-7.992,5.187
			C405.392,261.864,402.312,263.544,398.798,265.15z"/>
		<path d="M361.651,465.562c1.549-3.557,2.592-7.032,3.421-10.439c0.382-1.706,0.763-3.406,0.991-5.113l0.364-2.574
			c0.098-0.861,0.151-1.727,0.217-2.601c0.468-6.982-0.058-14.498-2.611-23.633c-0.227-0.771-0.487-1.663-0.8-2.729
			c-0.161-0.532-0.317-1.113-0.522-1.734c-0.225-0.614-0.466-1.278-0.729-1.999c-0.533-1.438-1.119-3.112-1.868-5.04
			c-0.843-1.89-1.805-4.05-2.911-6.532c-0.952-1.895-2.065-3.911-3.214-6.079c-0.296-0.537-0.57-1.098-0.896-1.639
			c-0.337-0.533-0.679-1.075-1.024-1.623c-0.694-1.096-1.406-2.221-2.134-3.37c-1.418-2.363-3.099-4.51-4.745-6.862
			c-0.416-0.581-0.835-1.167-1.258-1.756c-0.443-0.575-0.89-1.153-1.339-1.735c-0.901-1.162-1.812-2.339-2.733-3.526
			c-3.763-4.671-7.86-9.4-11.988-13.853c-4.101-4.476-8.076-8.737-11.125-13.001c-3.081-4.246-5.216-8.642-6.793-12.94
			c-0.682-2.208-1.446-4.246-1.87-6.325c-0.248-1.02-0.487-2.005-0.718-2.952c-0.25-0.938-0.358-1.906-0.535-2.793
			c-0.306-1.798-0.63-3.407-0.838-4.854c-0.182-1.458-0.338-2.717-0.466-3.746c-0.259-2.058-0.401-3.199-0.401-3.199
			s-0.017-0.136-0.05-0.4c-0.019-0.123-0.045-0.305-0.081-0.544c-0.055-0.383-0.13-0.996-0.208-1.802
			c-0.147-1.62-0.31-4.036-0.254-7.048c0.083-5.996,1.051-14.487,4.587-22.981c0.851-2.134,1.949-4.208,3.122-6.277
			c1.223-2.039,2.581-4.039,4.116-5.926c3.052-3.791,6.796-7.114,10.876-9.886c8.394-5.688,17.795-9.245,25.806-11.058
			c6.251-1.405,11.447-1.863,15.532-1.973c4.092-0.116,7.085,0.102,9.121,0.276c4.114,0.395,7.736,0.945,10.939,1.676
			c1.609,0.352,3.109,0.757,4.476,1.213c1.362,0.446,2.646,0.954,3.598,1.481c0.221,0.13,0.422,0.255,0.654,0.377
			c0.148,0.134,0.32,0.174,0.513,0.371c0.346,0.433,0.879,0.87,1.128,1.325c0.7,0.914,1.139,1.886,1.213,3.119
			c0.196,2.477-1.434,5.785-4.166,8.459c1.857-0.553,3.606-1.395,5.173-2.565c1.558-1.168,2.972-2.729,3.82-4.771
			c0.177-0.517,0.42-1.037,0.515-1.588c0.1-0.55,0.201-1.116,0.262-1.686c0.004-0.558-0.007-1.127-0.032-1.704
			c-0.009-0.585-0.171-1.093-0.269-1.652c-0.188-1.149-0.647-2.064-1.044-3.102c-0.226-0.514-0.616-1.091-0.954-1.628
			c-0.355-0.461-0.729-0.938-1.116-1.379c-1.55-1.694-3.23-2.892-4.99-3.961c-1.763-1.065-3.613-1.937-5.562-2.667
			c-3.898-1.491-8.191-2.451-13.019-2.963c-2.386-0.23-5.867-0.499-10.577-0.38c-4.705,0.115-10.654,0.627-17.826,2.234
			c-9.202,2.075-20,6.144-29.78,12.773c-4.976,3.375-9.636,7.518-13.438,12.248c-1.911,2.355-3.603,4.845-5.11,7.375
			c-1.456,2.556-2.794,5.125-3.833,7.723c-4.293,10.388-5.352,20.307-5.451,27.311c-0.06,3.522,0.133,6.364,0.318,8.354
			c0.099,0.998,0.195,1.78,0.275,2.339c0.022,0.146,0.041,0.274,0.058,0.385l0.024,0.157l-0.002-0.017l-0.01-0.083l0.006,0.047
			c0,0,0.15,1.222,0.421,3.425c0.137,1.102,0.303,2.448,0.496,4.011c0.222,1.564,0.572,3.355,0.908,5.327
			c0.193,0.987,0.312,2.016,0.592,3.097c0.26,1.078,0.529,2.2,0.809,3.361c0.48,2.323,1.364,4.792,2.182,7.385
			c0.416,1.297,1.031,2.595,1.562,3.934c0.283,0.665,0.544,1.346,0.856,2.016c0.341,0.66,0.685,1.325,1.031,1.997
			c0.349,0.67,0.701,1.346,1.056,2.027c0.343,0.688,0.797,1.312,1.196,1.979c0.835,1.304,1.635,2.68,2.594,3.905
			c3.674,5.126,7.958,9.672,11.997,14.101c4.077,4.405,7.901,8.837,11.461,13.25c0.866,1.118,1.725,2.227,2.572,3.321
			c0.423,0.548,0.844,1.092,1.262,1.633c0.398,0.557,0.794,1.109,1.187,1.658c1.537,2.2,3.187,4.306,4.415,6.382
			c0.654,1.031,1.294,2.039,1.917,3.021c0.312,0.49,0.621,0.975,0.925,1.452c0.294,0.484,0.536,0.987,0.801,1.469
			c1.026,1.942,2.032,3.744,2.892,5.438c0.994,2.22,1.859,4.152,2.616,5.842c0.671,1.726,1.197,3.225,1.682,4.51
			c0.239,0.644,0.46,1.237,0.664,1.786c0.187,0.556,0.327,1.076,0.474,1.552c0.287,0.954,0.527,1.752,0.735,2.44
			c2.368,8.16,3.833,14.682,5.293,20.995c0.185,0.792,0.368,1.58,0.551,2.365l0.495,2.369c0.374,1.586,0.655,3.183,0.991,4.825
			C360.724,458.27,361.354,461.709,361.651,465.562z"/>
		<path d="M261.673,303.673c-0.369,2.34-0.462,4.567-0.416,6.704c0.051,2.143,0.252,4.217,0.623,6.317
			c0.76,4.192,2.141,8.516,4.722,13.615c0.465,0.848,1.076,1.961,1.964,3.579c0.425,0.82,1.013,1.709,1.666,2.766
			c0.677,1.041,1.372,2.286,2.319,3.611c0.83,1.173,1.926,2.763,3.156,4.444c1.302,1.624,2.701,3.37,3.988,4.977
			c1.375,1.526,2.63,2.92,3.541,3.933c0.458,0.503,0.822,0.919,1.087,1.194c0.271,0.268,0.422,0.417,0.422,0.417
			s2.008,2.001,4.571,4.558c1.168,1.193,2.463,2.515,3.72,3.798c1.165,1.353,2.248,2.704,3.18,3.804
			c4.809,6.325,6.692,10.944,7.71,13.275c2.017,4.778,3.369,8.632,4.688,12.367c0.3,0.938,0.623,1.867,0.955,2.805
			c0.3,0.941,0.604,1.892,0.915,2.866c0.591,1.954,1.193,4.002,1.636,6.324c1.345-4.551,1.808-8.662,1.659-12.938
			c-0.195-4.278-1.049-8.813-3.254-14.188c-1.113-2.616-3.215-7.809-8.599-14.902c-1.031-1.239-2.246-2.751-3.556-4.257
			c-1.396-1.416-2.834-2.875-4.132-4.191c-2.431-2.399-4.334-4.277-4.334-4.277s-0.142-0.142-0.396-0.396
			c-0.248-0.26-0.587-0.654-1.015-1.13c-0.852-0.955-2.025-2.27-3.312-3.71c-1.2-1.507-2.507-3.146-3.722-4.669
			c-1.13-1.584-2.176-3.049-2.954-4.141c-0.888-1.233-1.529-2.39-2.163-3.356c-0.609-0.98-1.162-1.805-1.556-2.563
			c-0.832-1.494-1.405-2.521-1.841-3.305c-2.38-4.676-4.245-8.339-6.076-11.936c-0.898-1.779-1.779-3.526-2.661-5.372
			C263.332,307.843,262.443,305.908,261.673,303.673z"/>
		<path d="M427.159,322.474c1.565,3.55,3.424,6.687,5.567,9.552c2.165,2.851,4.638,5.454,7.836,7.635
			c1.588,1.098,3.408,2.04,5.458,2.774c2.047,0.725,4.385,1.219,6.93,1.158c2.532-0.042,5.228-0.634,7.733-1.786
			c2.53-1.133,4.797-2.827,6.746-4.797c0.323-0.331,0.722-0.7,1.058-1.086c0.327-0.384,0.68-0.799,1.065-1.251
			c0.383-0.454,0.797-0.945,1.248-1.479c0.454-0.531,0.871-1.182,1.361-1.846c1.913-2.673,4.355-6.424,6.161-12.211
			c0.869-2.666,1.575-6.07,1.724-9.503c0.054-1.721,0.054-3.429-0.131-5.08c-0.075-0.825-0.191-1.623-0.344-2.435
			c-0.068-0.388-0.164-0.819-0.271-1.25l-0.064-0.24l-0.033-0.119l-0.004-0.015c9.289-4.616-12.657,6.279-10.396,5.159l0.001,0.001
			l0.004,0.006l0.009,0.011l0.083,0.117l0.202,0.288c2.258,3.283,4.273,6.922,5.906,10.268c1.626,3.378,2.885,6.57,3.804,9.307
			c0.924,2.739,1.478,5.026,1.836,6.616c0.201,0.794,0.288,1.419,0.371,1.843c0.078,0.424,0.119,0.648,0.119,0.648
			s0.087,0.409,0.195,1.155c0.073,0.745,0.271,1.829,0.361,3.169c0.258,2.679,0.321,6.407-0.328,10.423
			c-0.653,4.012-2.113,8.262-4.3,12.012c-2.158,3.769-5.026,7.002-7.666,9.483c-2.297,2.021-4.481,3.817-6.604,5.145
			c-2.077,1.404-4.043,2.418-5.788,3.277c-3.519,1.665-6.277,2.409-8.161,2.905c-3.837,0.938-7.353,1.397-10.684,1.636
			c-3.331,0.237-6.479,0.228-9.606,0.094c-3.126-0.144-6.242-0.401-9.503-0.875c-3.259-0.488-6.686-1.109-10.362-2.289
			c2.71,2.781,5.616,5.008,8.604,6.922c2.999,1.908,6.141,3.449,9.55,4.655c3.41,1.195,7.103,2.048,11.212,2.34
			c4.103,0.292,8.633,0.042,13.545-1.11c2.408-0.602,5.949-1.55,10.405-3.64c4.448-2.108,9.756-5.286,15.381-10.399
			c3.308-3.083,7.021-7.244,9.892-12.265c2.906-4.988,4.859-10.747,5.691-16.016c0.84-5.278,0.72-10.002,0.398-13.312
			c-0.125-1.667-0.358-2.979-0.461-3.896c-0.136-0.909-0.239-1.401-0.239-1.401s-0.049-0.271-0.141-0.784
			c-0.098-0.512-0.209-1.274-0.439-2.219c-0.42-1.904-1.075-4.626-2.142-7.818c-1.061-3.194-2.501-6.866-4.346-10.716
			c-1.879-3.856-4.055-7.837-6.816-11.872c-0.094-0.133-0.188-0.268-0.284-0.405l-0.169-0.236l-0.024-0.033l-0.012-0.017
			l-0.003-0.004c2.26-1.125-19.688,9.773-10.397,5.16l-0.001-0.001l-0.005-0.013l-0.007-0.026c0.031,0.144,0.071,0.305,0.108,0.532
			c0.076,0.411,0.153,0.907,0.196,1.422c0.122,1.027,0.111,2.183,0.084,3.336c-0.096,2.324-0.577,4.694-1.187,6.574
			c-1.252,4.077-3.033,6.861-4.484,8.884c-0.372,0.504-0.666,0.997-1.021,1.406c-0.349,0.414-0.668,0.795-0.964,1.147
			c-0.294,0.354-0.563,0.679-0.813,0.979c-0.248,0.292-0.464,0.473-0.667,0.69c-1.19,1.235-2.358,2.159-3.499,2.77
			c-1.138,0.63-2.244,1.024-3.42,1.244c-2.337,0.444-5.036,0.053-7.787-0.774c-2.758-0.845-5.558-2.117-8.422-3.683
			C433.149,326.727,430.191,324.867,427.159,322.474z"/>
		<path d="M282.311,348.617c-2.173-0.948-4.296-1.611-6.431-2.048c-2.137-0.429-4.301-0.631-6.625-0.4
			c-2.296,0.249-4.879,0.906-7.329,2.856c-1.207,0.966-2.321,2.305-3.055,3.886c-0.748,1.575-1.128,3.327-1.215,5.071
			c-0.051,1.132-0.018,2.82,0.531,4.974c0.56,2.146,1.691,4.73,3.764,7.631c0.251,0.397,0.731,1.008,1.156,1.511
			c0.21,0.254,0.402,0.485,0.542,0.653c0.147,0.158,0.239,0.257,0.239,0.257s1.166,1.386,1.899,2.054
			c3.294,3.249,6.4,5.288,8.924,6.763c2.541,1.456,4.556,2.271,5.935,2.826c5.633,2.137,10.742,2.386,15.216,1.253
			c4.478-1.118,8.289-3.917,10.754-7.936c-2.046,1.208-4.024,1.905-5.904,2.307c-1.882,0.403-3.681,0.516-5.498,0.42
			c-3.615-0.199-7.352-0.921-11.989-2.718c-1.133-0.475-2.8-1.153-4.93-2.383c-2.107-1.238-4.742-2.982-7.436-5.648
			c-0.591-0.563-1.57-1.631-1.57-1.631s-0.07-0.081-0.185-0.213c-0.104-0.137-0.249-0.324-0.408-0.529
			c-0.325-0.406-0.694-0.887-0.896-1.176c-1.592-2.226-2.337-4.003-2.676-5.292c-0.319-1.301-0.335-2.089-0.319-2.812
			c0.104-2.011,0.594-3.268,1.567-4.345c0.966-1.089,2.439-1.978,4.089-2.669c1.654-0.696,3.471-1.235,5.427-1.679
			C277.849,349.16,279.956,348.796,282.311,348.617z"/>
		<path d="M386.763,285.227c3.442-0.499,5.456-0.899,7.282-3.006c0.496-0.566,1.478-1.715,2.716-3.027
			c1.23-1.309,2.74-2.793,4.18-3.901c0.713-0.556,1.416-1.017,1.946-1.267c0.363-0.167,0.243-0.113,0.257-0.123l-0.003-0.004
			l0.001-0.009l-0.002,0.001l-0.003,0.001c-0.006-0.023-0.009,0.026,0.069,0.242c0.094,0.414,0.189,1.011,0.219,1.766
			c0.019,0.763-0.018,1.653-0.109,2.595c-0.372,3.81-1.659,8.234-2.051,9.667c-0.752,2.686,0.025,4.581,1.497,7.73
			c3.192-1.396,5.045-2.625,5.98-5.507c0.488-1.579,1.908-6.279,2.386-11.127c0.114-1.218,0.166-2.449,0.127-3.646
			c-0.051-1.205-0.214-2.395-0.486-3.465c-0.155-0.512-0.333-1.141-0.617-1.711c-0.129-0.278-0.258-0.534-0.381-0.765
			c-0.149-0.214-0.285-0.41-0.408-0.587c-0.243-0.355-0.435-0.632-0.597-0.791c-0.154-0.167-0.236-0.254-0.236-0.254
			c0,0-0.312-0.371-1.006-0.858c-0.641-0.549-1.793-1.086-3.271-1.215c-0.369-0.044-0.757-0.05-1.163-0.008
			c-0.406,0.026-0.824,0.071-1.253,0.182c-0.847,0.168-1.846,0.576-2.363,0.833c-1.24,0.596-2.308,1.324-3.311,2.092
			c-2.003,1.539-3.727,3.258-5.126,4.749c-1.396,1.49-2.451,2.752-2.967,3.393C386.18,279.576,386.178,281.793,386.763,285.227z"/>
		<path fill="#FFFFFF" d="M367.795,315.779c0,0,17.58-14.375,29.768-11.205c12.188,3.17,5.881,7.777,5.881,7.777
			S385.176,329.896,367.795,315.779z"/>
		<path fill="#FFFFFF" d="M370.364,322.018c0,0,5.044,18.803,18.803,15.592c13.758-3.21,14.217-23.848,14.217-23.848
			S389.626,330.73,370.364,322.018z"/>
		<path d="M339.056,243.137c1.44,1.666,2.508,3.067,3.774,4.107c1.248,1.046,2.628,1.767,4.494,2.226
			c2.016,0.496,8.124,1.94,13.55,3.676c1.354,0.435,2.684,0.848,3.883,1.283c1.212,0.415,2.315,0.809,3.233,1.175
			c1.862,0.691,3.013,1.205,3.014,1.205c0,0,0.29,0.126,0.805,0.35c0.519,0.22,1.26,0.539,2.118,0.975
			c0.866,0.426,1.912,0.903,2.95,1.514c0.531,0.3,1.083,0.588,1.651,0.926c0.568,0.363,1.15,0.736,1.74,1.113
			c1.165,0.769,2.417,1.484,3.53,2.301c1.118,0.811,2.205,1.598,3.201,2.32c0.967,0.751,1.81,1.472,2.538,2.053
			c0.737,0.576,1.293,1.069,1.653,1.405c0.681,0.608,1.358,1.076,2.061,1.444c0.664,0.391,1.36,0.679,2.124,0.903
			c1.509,0.469,3.209,0.651,5.386,1.115c0.254-2.21,0.13-4.117-0.354-5.79c-0.252-0.831-0.599-1.626-1.066-2.411
			c-0.49-0.745-1.104-1.469-1.869-2.202c-0.408-0.407-1.041-0.987-1.862-1.647c-0.815-0.669-1.775-1.494-2.862-2.343
			c-1.112-0.808-2.325-1.688-3.572-2.594c-1.248-0.908-2.611-1.693-3.904-2.536c-0.651-0.412-1.296-0.818-1.924-1.216
			c-0.651-0.385-1.326-0.738-1.953-1.088c-1.262-0.724-2.438-1.258-3.435-1.74c-0.994-0.493-1.82-0.844-2.396-1.084
			c-0.575-0.245-0.899-0.383-0.899-0.383s-1.289-0.583-3.308-1.348c-1.006-0.407-2.196-0.84-3.496-1.292
			c-1.297-0.476-2.71-0.923-4.154-1.392c-5.775-1.868-12.167-3.376-14.313-3.822c-1.979-0.411-3.624-0.323-5.249,0.162
			C342.535,240.999,340.889,241.837,339.056,243.137z"/>
		<path d="M406.763,274.56c2.927,5.438,4.692,10.169,6.643,14.969c0.921,2.41,1.858,4.865,2.871,7.518
			c0.958,2.658,1.968,5.501,2.974,8.719c0.154,0.549,0.333,1.184,0.546,1.944c0.23,0.756,0.452,1.646,0.686,2.706
			c0.122,0.529,0.254,1.1,0.396,1.716c0.112,0.621,0.231,1.289,0.36,2.008c0.14,0.718,0.271,1.49,0.358,2.324
			c0.093,0.833,0.238,1.719,0.314,2.673c0.042,0.626,0.088,1.306,0.137,2.029c0.024,0.361,0.05,0.734,0.076,1.118
			c0.003,0.383,0.007,0.776,0.01,1.179c0.007,0.805,0.014,1.644,0.021,2.51c-0.044,0.864-0.088,1.755-0.134,2.663
			c-0.273,3.619-0.793,7.509-1.751,10.991c-0.371,1.765-0.992,3.389-1.436,4.899c-0.486,1.5-1.068,2.812-1.481,3.939
			c-0.4,1.133-0.891,1.993-1.152,2.616c-0.284,0.614-0.442,0.955-0.442,0.955s-0.134,0.285-0.376,0.804
			c-0.222,0.527-0.638,1.251-1.136,2.159c-0.512,0.9-1.061,2.008-1.785,3.189c-0.74,1.174-1.559,2.471-2.423,3.841
			c-1.826,2.62-3.96,5.445-6.309,7.941c-2.356,2.482-4.796,4.741-6.978,6.444c-4.006,3.194-7.615,5.31-10.533,6.84
			c-2.941,1.497-5.167,2.492-6.729,3.094c-6.285,2.524-11.389,4.17-16.313,5.828c-2.467,0.82-4.9,1.62-7.463,2.402
			c-2.566,0.771-5.252,1.57-8.279,2.19c2.978,0.875,5.824,1.4,8.598,1.762c2.778,0.351,5.5,0.494,8.297,0.416
			c5.582-0.174,11.524-1.134,18.624-3.902c1.76-0.661,4.28-1.763,7.616-3.454c3.315-1.727,7.438-4.13,12.041-7.792
			c2.507-1.951,5.32-4.546,8.023-7.408c2.696-2.876,5.145-6.118,7.215-9.123c0.957-1.526,1.861-2.97,2.681-4.276
			c0.802-1.318,1.422-2.565,1.988-3.576c0.553-1.021,1.01-1.834,1.264-2.432c0.272-0.586,0.422-0.908,0.422-0.908
			s0.181-0.385,0.506-1.077c0.302-0.704,0.845-1.67,1.313-2.958c0.481-1.281,1.138-2.77,1.702-4.482
			c0.523-1.728,1.221-3.583,1.665-5.614c1.103-4.001,1.73-8.503,2.042-12.693c0.052-1.051,0.103-2.081,0.152-3.082
			c-0.009-1.002-0.017-1.973-0.024-2.903c-0.006-0.465-0.012-0.92-0.018-1.363c-0.03-0.442-0.06-0.872-0.088-1.29
			c-0.061-0.835-0.117-1.619-0.169-2.341c-0.092-1.099-0.254-2.117-0.366-3.076c-0.105-0.96-0.256-1.845-0.416-2.667
			c-0.15-0.824-0.291-1.589-0.421-2.301c-0.164-0.703-0.315-1.354-0.456-1.958c-0.273-1.21-0.532-2.223-0.796-3.08
			c-0.251-0.861-0.46-1.582-0.641-2.204c-2.359-7.279-5.405-12.498-8.848-16.912C415.83,281.712,411.93,278.012,406.763,274.56z"/>
		<ellipse transform="matrix(0.9468 -0.322 0.322 0.9468 -71.7583 129.4196)" cx="355.4" cy="281.66" rx="2.709" ry="5.176"/>
		<ellipse transform="matrix(0.9468 -0.3219 0.3219 0.9468 -66.8602 138.0643)" cx="384.096" cy="271.227" rx="2.709" ry="5.176"/>
	</g>
</g>
</svg>
