<?xml version="1.0" encoding="utf-8"?>
<!-- Generator: Adobe Illustrator 16.0.0, SVG Export Plug-In . SVG Version: 6.00 Build 0)  -->
<!DOCTYPE svg PUBLIC "-//W3C//DTD SVG 1.1//EN" "http://www.w3.org/Graphics/SVG/1.1/DTD/svg11.dtd">
<svg version="1.1" xmlns="http://www.w3.org/2000/svg" xmlns:xlink="http://www.w3.org/1999/xlink" x="0px" y="0px" width="640px"
	 height="640px" viewBox="0 0 640 640" enable-background="new 0 0 640 640" xml:space="preserve">
<g id="couleurs">
</g>
<g id="traits">
	<g>
		<path fill="#FFF26B" d="M0,571.893v-116c0,0,36.43-31,66.43-42s106-23,106-23l1,28c0,0-62,31-62,34c0,2.998-26.971,111.88-27,112
			l0,0l0,0l0,0c0,0-24,9-44,9S0,571.893,0,571.893L0,571.893 M114.43,201.893c8.258-10.24,16.951-14.26,25.434-14.26
			c17.196,0,33.521,16.527,43.566,31.26c15,22-3,34-3,34s30,4,12,40c-1.137,2.274-2.33,4.326-3.567,6.172l52.567,41.828l-17,12
			l-52.118-40.137c-3.404,1.208-6.791,1.677-9.995,1.677c-11.022,0-19.887-5.54-19.887-5.54s-25.922,23.241-54.104,23.241
			c-1.625,0-3.261-0.077-4.896-0.241c-30-3-21-38-21-38s-3.9,1.418-8.939,1.418c-6.928,0-16.008-2.682-20.061-15.418
			c-7-22,15-38,15-38s-20-18,7-39c9.296-7.23,19.182-9.6,28.153-9.6C100.669,193.294,114.43,201.893,114.43,201.893 M479.383,32.167
			c6.108-12.383,17.523-24.579,38.798-24.579c10.938,0,24.48,3.224,41.249,11.305c81.729,39.387,80.067,97.198,17.939,109.461
			c18.562,21.643,34.39,50.135,38.176,80.053c2.041,4.728,1.885,8.486,1.885,8.486l-1.073,8.05
			c-0.201,6.516-1.039,13.053-2.607,19.556l-4.319,32.394l-38,49l-17,5c0,0-7.84-6.098-12.138-6.098
			c-0.307,0-0.596,0.031-0.862,0.098l0,0c-5,4-13,11-13,11s-8-4-13-4l0,0c-6,2-10,6-10,6s-6.188-1.688-11.391-1.688
			c-1.734,0-3.359,0.188-4.609,0.688c-5,2-10,7-10,7s-2.816-1.522-6.748-4h-5.252c0,0-3.02-3.604-6.718-8.503
			c-7.169-5.854-13.349-12.814-11.97-18.693c-2.023-4.579-2.175-7.882,1.598-7.882c0.333,0,0.694,0.025,1.09,0.078
			c0.872,0.116,1.778,0.256,2.712,0.417c1.601-1.061,3.213-1.451,4.719-1.451c4.198,0,7.569,3.034,7.569,3.034
			s1.797,0.998,4.548,2.445c10.864,3.104,20.452,6.555,20.452,6.555l12.532-0.895c2.597-3.364,4.468-7.105,4.468-7.105
			s27.401-7.729,42.746-23.775c2.54-2.721,4.739-5.576,6.372-8.512c0.311-0.563,0.605-1.135,0.882-1.713l0,0
			c0.273-0.578,0.541-1.153,0.802-1.723c9.184-20.311,4.671-31.614-5.383-33.908c-0.762-0.151-1.568-0.275-2.419-0.37l0,0
			c-2.399-0.2-4.721-0.28-6.896-0.28c-8.704,0-15.104,1.28-15.104,1.28s-7.075,13.756-14.57,24.759
			c-4.778,7.311-9.468,13.397-11.838,13.397c-0.218,0-0.415-0.051-0.592-0.157l0,0c-3.567,1.189-11.852,2.064-19.926,2.064
			c-1.558,0-3.109-0.033-4.616-0.102c-1.581,0.124-3.111,0.198-4.546,0.198c-4.645,0-8.286-0.776-9.388-3.173
			c-1.562-1.22-1.659-2.853,0.476-4.987l0,0c3.757-8.587,10.972-11.414,16.849-12.189c9.284-5.555,18.151-9.811,18.151-9.811l0,0
			c0,0,1.34-1.768,3.742-4.693c6.293-8.438,17.963-26.746,14.258-42.307c-5-21-17-42-17-42s1-22-20-34s-61-30-61-30s-22,8-29,10
			c-3.695,1.056-9.061,3.504-13.305,5.582l-6.695,3.418l0,0c0,0-26.464,3.576-39.469,8.914c-10.148,6.23-14.748,18.044-16.83,27.875
			c-0.557,7.056-1.701,16.21-1.701,16.21l0,0c0,0-7.765-3.039-15.447-5.584c-4.227-1.175-8.684-2.068-12.468-2.068
			c-3.906,0-7.095,0.95-8.58,3.523c-0.333,0.634-0.489,1.083-0.504,1.126c0,0.001-0.001,0.002-0.001,0.003c-4,12,13,23,13,23
			s-12,34-13,43c0,0-116-61-94-147c11.824-46.223,78.256-56.915,137.17-56.915c50.699,0,95.83,7.915,95.83,7.915
			s33.809,13.763,70.164,31.467l-12.164-8.467l0,0l0,0c0,0,0.049-0.967,0.248-2.632C473.321,49.152,475.283,34.363,479.383,32.167
			 M640,0H0v640h640v-56.107l-10.797,0.815c0.799,0.12,1.227,0.185,1.227,0.185l-189,14c0,0-12,8-17,9c-1,0.2-2.32,0.28-3.792,0.28
			c-5.888,0-14.208-1.28-14.208-1.28l0,0l-255,27c0,0,4.587-1.301,11.952-3.455l-76.952,7.455l-5-42c4-6,331-22,331-22l0,0l0,0l0,0
			l-4.122,22.672c3.243-10.104,9.122-23.672,9.122-23.672l24,26l-18-25l0,0c1.095-5.473,23.459-9.148,43.48-11.355
			C530.236,550.628,640,535.893,640,535.893V0"/>
		<path fill="#FFFFFF" d="M139.863,187.633c-8.482,0-17.176,4.02-25.434,14.26c0,0-13.761-8.599-30.847-8.6
			c-8.972,0-18.857,2.369-28.153,9.6c-27,21-7,39-7,39s-22,16-15,38c4.053,12.736,13.133,15.418,20.061,15.418
			c5.039,0,8.939-1.418,8.939-1.418s-9,35,21,38c1.635,0.164,3.271,0.241,4.896,0.241c28.183,0,54.104-23.241,54.104-23.241
			s8.864,5.54,19.887,5.54c3.204,0,6.591-0.468,9.995-1.677l-34.882-26.863l-2-6c0,0-10-9-8-15c0.546-1.637,2.354-2.231,4.699-2.231
			c6.251,0,16.301,4.231,16.301,4.231l40.433,32.172c1.237-1.846,2.431-3.897,3.567-6.172c18-36-12-40-12-40s18-12,3-34
			C173.385,204.16,157.06,187.633,139.863,187.633"/>
		<path fill="#E9A5CA" d="M515.43,331.893c-5,0-10,6-10,6s-5.556-3.472-9.723-3.473c-0.833,0-1.61,0.14-2.277,0.473c-4,2-11,5-11,5
			h-9.748c3.932,2.478,6.748,4,6.748,4s5-5,10-7c1.25-0.5,2.875-0.688,4.609-0.688c5.203,0,11.391,1.688,11.391,1.688
			S509.43,333.893,515.43,331.893L515.43,331.893L515.43,331.893 M544.129,323.949c-0.949,0-1.865,0.277-2.699,0.944l0,0l0,0
			c0.267-0.066,0.556-0.098,0.862-0.098c4.298,0,12.138,6.098,12.138,6.098l0,0C554.43,330.893,548.874,323.949,544.129,323.949
			 M448.742,312.697c-1.379,5.878,4.801,12.838,11.97,18.693C456.413,325.697,451.199,318.257,448.742,312.697 M458.86,303.859
			c-1.506,0-3.118,0.39-4.719,1.451c5.175,0.89,11.179,2.412,16.836,4.028c-2.751-1.447-4.548-2.445-4.548-2.445
			S463.059,303.859,458.86,303.859 M551.176,284.118c-15.345,16.046-42.746,23.775-42.746,23.775s-1.871,3.741-4.468,7.105
			l1.468-0.105l10-6C515.43,308.893,537.939,298.301,551.176,284.118 M499.579,276.424c-2.876,0-7.299,0.657-12.071,1.315
			c-3.169,0.436-6.494,0.873-9.62,1.117c1.507,0.069,3.059,0.102,4.616,0.102c8.074,0,16.358-0.875,19.926-2.064l0,0l0,0
			C501.874,276.56,500.886,276.424,499.579,276.424 M558.43,273.893c-0.276,0.578-0.571,1.149-0.882,1.713
			C557.863,275.038,558.158,274.467,558.43,273.893 M464.43,270.893c-2.135,2.134-2.038,3.768-0.476,4.987
			C463.396,274.668,463.489,273.042,464.43,270.893 M499.43,248.893c0,0-8.867,4.256-18.151,9.811
			c1.424-0.188,2.768-0.255,3.966-0.255c3.075,0,5.186,0.444,5.186,0.444L499.43,248.893 M553.849,238.263
			c10.054,2.294,14.566,13.597,5.383,33.908C567.129,254.877,568.735,241.222,553.849,238.263 M540.398,237.206
			c-8.719,0-10.969,1.688-10.969,1.688s-7.386,13.765-14.57,24.759c7.495-11.003,14.57-24.759,14.57-24.759s6.399-1.28,15.104-1.28
			c2.176,0,4.497,0.08,6.896,0.28l0,0l0,0C546.93,237.393,543.305,237.206,540.398,237.206 M616.356,224.943l-2.607,19.556
			C615.317,237.997,616.155,231.459,616.356,224.943 M283.43,158.893c-4.335,0-6.582,3.132-7.495,4.87
			c1.485-2.573,4.674-3.523,8.58-3.523c3.784,0,8.241,0.893,12.468,2.068C291.441,160.473,285.943,158.893,283.43,158.893
			 M314.131,151.683c-1.888,8.922-1.701,16.21-1.701,16.21l0,0l0,0C312.43,167.893,313.574,158.739,314.131,151.683
			 M367.652,114.671c-4.001,0-12.891,0.889-30.223,6.222c-2.374,0.73-4.523,1.72-6.469,2.914
			c13.005-5.338,39.469-8.914,39.469-8.914l0,0C370.43,114.893,369.652,114.671,367.652,114.671 M318.6,26.979
			c-58.914,0-125.346,10.691-137.17,56.915c-22,86,94,147,94,147c1-9,13-43,13-43s-17-11-13-23c0-0.001,0.001-0.002,0.001-0.003
			c-0.001,0.002-0.001,0.003-0.001,0.003s-48-24-36-73c4.056-16.56,25.694-22.04,52.576-22.04c52.66,0,125.424,21.04,125.424,21.04
			l-40.305,20.582c4.244-2.077,9.609-4.526,13.305-5.582c7-2,29-10,29-10s40,18,61,30s20,34,20,34s12,21,17,42
			c3.705,15.562-7.965,33.869-14.258,42.307c11.482-13.984,47.227-54.407,76.689-54.413c0.863,0,1.716,0.034,2.568,0.105
			c21.755,1.813,29.998,11.294,33.115,18.514c-3.786-29.918-19.614-58.41-38.176-80.053c-0.967,0.191-1.943,0.37-2.939,0.539
			L484.594,66.36c-36.355-17.705-70.164-31.467-70.164-31.467S369.299,26.979,318.6,26.979"/>
		<path fill="#E9A5CA" d="M472.678,55.261c-0.199,1.665-0.248,2.632-0.248,2.632S472.508,56.883,472.678,55.261 M518.181,7.588
			c-21.274,0-32.689,12.196-38.798,24.579c0.335-0.179,0.684-0.274,1.047-0.274c0,0,52.08,45.456,86,48
			c3.076,0.231,5.94,0.337,8.605,0.337c31.987,0,35.395-15.337,35.395-15.337s17,28,2,39s-38,25-38,25l-102-71l0,0l12.164,8.467
			l89.836,62.533c0.996-0.168,1.973-0.348,2.939-0.539c62.128-12.264,63.789-70.074-17.939-109.461
			C542.661,10.812,529.119,7.588,518.181,7.588"/>
		<path fill="#E9A5CA" d="M132.129,262.662c-2.345,0-4.153,0.595-4.699,2.231c-2,6,8,15,8,15l2,6l34.882,26.863l52.118,40.137l17-12
			l-17,12l-52-42l28-2l41,32l-52.567-41.828l-40.433-32.172C148.43,266.893,138.38,262.662,132.129,262.662"/>
		<path fill="#F3CBE1" d="M172.43,390.893c0,0-76,12-106,23s-66.43,42-66.43,42v116l0,0l0,0v-87c0,0,9.364,16.155,45.207,16.155
			c1.993,0,4.063-0.05,6.223-0.155c33.337-1.626,53-24,53-24l0,0l0,0l-20,88c0.029-0.12,27-109.002,27-112c0-3,62-34,62-34
			L172.43,390.893"/>
		<path fill="#F3CBE1" d="M301.43,349.893c0,0,8,4,17,7s40,16,40,16s23,5,42,0s29-9,29-9l19-3l-8,26c0,0-48,32-54,29s-40-7-40-7
			l-36-4v-13l-4-10l2-11L301.43,349.893z"/>
		<path fill="#F9E1EE" d="M412.43,573.893c0,0-327,16-331,22l5,42l76.952-7.455c20.782-6.077,63.683-18.946,88.048-28.545
			c18.065-7.116,51-21,51-21L412.43,573.893"/>
		<path fill="#F9E1EE" d="M423.43,573.893L423.43,573.893l18,25l0,0L423.43,573.893 M640,535.893L640,535.893
			c0,0-109.764,14.735-173.09,26.645c16.562-1.825,31.52-2.645,31.52-2.645s14,6,43,11c26.554,4.578,79.098,12.51,87.773,13.815
			L640,583.893V535.893"/>
		<path fill="#F9E1EE" d="M417.43,572.893c0,0-5.879,13.568-9.122,23.672l0,0l-1.878,10.328l0,0l0,0c0,0,8.32,1.28,14.208,1.28
			c1.472,0,2.792-0.08,3.792-0.28c5-1,17-9,17-9l0,0L417.43,572.893"/>
		<polygon fill="#FFFFFF" points="110.764,569.227 116.764,524.56 370.764,502.227 390.097,549.996 		"/>
		<polygon fill="#FFFFFF" points="270.431,437.56 273.764,501.56 364.431,490.227 347.764,431.56 		"/>
		<polygon fill="#FFFFFF" points="424.431,438.227 521.764,413.56 555.764,501.56 445.097,530.893 		"/>
		<path fill="#FFFFFF" d="M382.43,185.893c1.414-4.243,62-71,62-71l26,5l-66,88C404.43,207.893,380.43,191.893,382.43,185.893z"/>
		<polygon fill="#FFFFFF" points="320.43,168.893 352.43,117.893 368.43,118.893 336.43,174.893 		"/>
		<path fill="#FFFFFF" d="M427.43,212.893c3-1,58-84,58-84l9,9l-45,75H427.43z"/>
		<path fill="#F2B862" d="M479.383,32.167c-4.1,2.196-6.062,16.985-6.705,23.093C473.209,50.829,474.807,41.446,479.383,32.167"/>
		<path fill="#DF7DB0" d="M480.43,31.893c-0.363,0-0.712,0.095-1.047,0.274c-4.576,9.278-6.174,18.662-6.705,23.093
			c-0.17,1.622-0.248,2.632-0.248,2.632l0,0l102,71c0,0,23-14,38-25s-2-39-2-39s-3.407,15.337-35.395,15.337
			c-2.665,0-5.529-0.106-8.605-0.337C532.51,77.349,480.43,31.893,480.43,31.893"/>
		<path fill="#F2B862" d="M275.935,163.763c-0.199,0.345-0.368,0.721-0.504,1.126C275.445,164.847,275.602,164.397,275.935,163.763
			 M296.982,162.309c7.683,2.546,15.447,5.584,15.447,5.584S305.131,164.575,296.982,162.309 M330.961,123.807
			c-2.373,0.974-4.297,2.006-5.531,3.086c-8,7-11,13-11,19c0,1.461-0.119,3.517-0.299,5.79
			C316.213,141.851,320.812,130.037,330.961,123.807 M377.125,111.475c-3.797,1.858-6.695,3.418-6.695,3.418L377.125,111.475"/>
		<path fill="#DF7DB0" d="M292.006,69.853c-26.882,0-48.521,5.48-52.576,22.04c-12,49,36,73,36,73s0-0.001,0.001-0.003
			c0.136-0.405,0.305-0.781,0.504-1.126c0.913-1.738,3.16-4.87,7.495-4.87c2.514,0,8.012,1.58,13.553,3.416
			c8.148,2.267,15.447,5.584,15.447,5.584l0,0c0,0-0.187-7.289,1.701-16.21c0.18-2.272,0.299-4.328,0.299-5.79c0-6,3-12,11-19
			c1.234-1.08,3.158-2.112,5.531-3.086c1.945-1.194,4.095-2.184,6.469-2.914c17.332-5.333,26.222-6.222,30.223-6.222
			c2,0,2.777,0.222,2.777,0.222l0,0c0,0,2.898-1.561,6.695-3.418l40.305-20.582C417.43,90.893,344.666,69.853,292.006,69.853"/>
		<path fill="#F2B862" d="M460.712,331.39c3.698,4.898,6.718,8.503,6.718,8.503h5.252
			C469.177,337.684,464.784,334.715,460.712,331.39 M541.43,324.893c-4,1-10,7-10,7s-4.444-0.889-9.186-0.889
			c-2.37,0-4.814,0.222-6.814,0.889c5,0,13,4,13,4S536.43,328.893,541.43,324.893 M470.978,309.338
			c7.25,3.812,21.131,10.739,26.269,10.739c0.473,0,0.871-0.059,1.184-0.184c1.941-0.776,3.883-2.76,5.532-4.895l-12.532,0.895
			C491.43,315.893,481.842,312.441,470.978,309.338 M450.34,304.815c-3.772,0-3.621,3.303-1.598,7.882
			c0.145-0.614,0.371-1.216,0.688-1.804c1.478-2.744,3.09-4.508,4.712-5.583c-0.934-0.161-1.84-0.301-2.712-0.417
			C451.034,304.84,450.673,304.815,450.34,304.815 M463.954,275.88c1.102,2.397,4.743,3.173,9.388,3.173
			c1.435,0,2.965-0.074,4.546-0.198C471.705,278.572,466.25,277.673,463.954,275.88 M557.548,275.606
			c-1.633,2.936-3.832,5.791-6.372,8.512C553.678,281.502,555.857,278.667,557.548,275.606 M559.231,272.17
			c-0.261,0.57-0.528,1.145-0.802,1.723l0,0l0,0C558.708,273.312,558.975,272.737,559.231,272.17 M514.859,263.652
			c-4.462,6.549-9.071,12.121-12.43,13.241c0.177,0.106,0.374,0.157,0.592,0.157C505.392,277.05,510.081,270.963,514.859,263.652
			 M481.278,258.704c-5.877,0.776-13.092,3.603-16.849,12.189l0,0l0,0C468.475,266.848,474.973,262.477,481.278,258.704
			 M613.749,244.499c-1.082,4.486-2.512,8.958-4.319,13.394c-22,54-42,69-42,69l-13,4l17-5l38-49L613.749,244.499 M503.172,244.2
			c-2.402,2.925-3.742,4.693-3.742,4.693l0,0l0,0C499.43,248.893,500.973,247.149,503.172,244.2 M551.43,237.893
			c0.851,0.094,1.657,0.218,2.419,0.37C553.074,238.086,552.267,237.963,551.43,237.893 M615.545,208.407
			c0.693,5.478,0.982,10.996,0.812,16.536l1.073-8.05C617.43,216.893,617.586,213.135,615.545,208.407"/>
		<path fill="#DF7DB0" d="M579.861,189.788c-29.463,0.006-65.207,40.428-76.689,54.413c-2.199,2.949-3.742,4.693-3.742,4.693l0,0
			l-9,10c0,0-2.11-0.444-5.186-0.444c-1.198,0-2.542,0.067-3.966,0.255c-6.306,3.773-12.804,8.145-16.849,12.189l0,0
			c-0.94,2.149-1.033,3.775-0.476,4.987c2.296,1.792,7.751,2.692,13.934,2.975c3.126-0.244,6.451-0.681,9.62-1.117
			c4.772-0.658,9.195-1.315,12.071-1.315c1.307,0,2.295,0.136,2.851,0.469l0,0c3.358-1.12,7.968-6.692,12.43-13.241
			c7.185-10.995,14.57-24.759,14.57-24.759s2.25-1.688,10.969-1.688c2.906,0,6.531,0.188,11.031,0.688l0,0
			c0.837,0.07,1.645,0.193,2.419,0.37c14.887,2.959,13.28,16.615,5.383,33.908c-0.257,0.567-0.523,1.141-0.802,1.723l0,0
			c-0.271,0.574-0.566,1.145-0.882,1.713c-1.69,3.061-3.87,5.896-6.372,8.512c-13.236,14.183-35.746,24.775-35.746,24.775l-10,6
			l-1.468,0.105c-1.649,2.135-3.591,4.119-5.532,4.895c-0.312,0.125-0.711,0.184-1.184,0.184c-5.138,0-19.019-6.927-26.269-10.739
			c-5.657-1.616-11.661-3.138-16.836-4.028c-1.622,1.075-3.234,2.839-4.712,5.583c-0.316,0.588-0.543,1.19-0.688,1.804
			c2.457,5.56,7.671,13,11.97,18.693c4.072,3.325,8.465,6.294,11.97,8.503h9.748c0,0,7-3,11-5c0.667-0.333,1.444-0.473,2.277-0.473
			c4.167,0.001,9.723,3.473,9.723,3.473s5-6,10-6l0,0c2-0.667,4.444-0.889,6.814-0.889c4.741,0,9.186,0.889,9.186,0.889s6-6,10-7
			l0,0c0.834-0.667,1.75-0.944,2.699-0.944c4.745,0,10.301,6.944,10.301,6.944l0,0l13-4c0,0,20-15,42-69
			c1.808-4.437,3.237-8.908,4.319-13.394l2.607-19.556c0.171-5.541-0.118-11.059-0.812-16.536
			c-3.117-7.22-11.36-16.701-33.115-18.514C581.577,189.822,580.725,189.788,579.861,189.788"/>
		<path fill="#F6C064" d="M84.43,564.893c0,0-25,5-43,5s-41.43,2-41.43,2s20.43,2,40.43,2S84.43,564.893,84.43,564.893
			 M84.43,564.893L84.43,564.893L84.43,564.893"/>
		<path fill="#E8A1C7" d="M104.43,476.893c0,0-19.663,22.374-53,24c-2.159,0.105-4.229,0.155-6.223,0.155
			C9.364,501.048,0,484.893,0,484.893v87l0,0c0,0,23.43-2,41.43-2s43-5,43-5l0,0l0,0L104.43,476.893"/>
		<path fill="#FDD568" d="M406.43,606.893l-243.048,23.545c-7.365,2.154-11.952,3.455-11.952,3.455L406.43,606.893"/>
		<path fill="#F3C6DE" d="M412.43,573.893L412.43,573.893l-110,7c0,0-32.935,13.884-51,21
			c-24.365,9.599-67.266,22.468-88.048,28.545l243.048-23.545c-0.655-1.311,0.299-5.408,1.878-10.328L412.43,573.893"/>
		<path fill="#F3C6DE" d="M408.308,596.565c-1.579,4.92-2.533,9.018-1.878,10.328l0,0L408.308,596.565"/>
		<path fill="#FDD568" d="M629.203,584.708L441.43,598.893l189-14C630.43,584.893,630.002,584.829,629.203,584.708 M466.91,562.538
			c-20.021,2.207-42.386,5.883-43.48,11.355l0,0C425.626,571.148,442.945,567.044,466.91,562.538"/>
		<path fill="#F3C6DE" d="M498.43,559.893c0,0-14.958,0.819-31.52,2.645c-23.965,4.507-41.284,8.61-43.48,11.355l18,25
			l187.773-14.185c-8.676-1.306-61.22-9.237-87.773-13.815C512.43,565.893,498.43,559.893,498.43,559.893"/>
		<polyline fill="#DA6AA5" points="200.43,308.893 172.43,310.893 224.43,352.893 241.43,340.893 200.43,308.893 		"/>
		<path fill="#FFFFFF" d="M215.43,43.893c0,0-23-15-7-28s23,0,23,0s19-19,37-9s4,18,4,18L215.43,43.893z"/>
		<path fill="#FFFFFF" d="M182.43,105.893c0,0-29-23-42-7s4,27,4,27s-21,9-11,29s25,7,25,7s-2,21,16,17s21-16,21-16
			S182.43,145.893,182.43,105.893z"/>
		<path d="M-9.569,463.894c9.494-4.033,17.407-7.323,25.413-11.259c8.014-3.91,16.102-8.496,26.171-14.534
			c1.714-1,3.939-2.39,7.231-4.221c1.642-0.928,3.532-2.03,5.768-3.187c1.114-0.593,2.309-1.229,3.59-1.91
			c1.289-0.63,2.665-1.302,4.137-2.021c0.516-0.25,1.076-0.521,1.673-0.811c0.597-0.275,1.231-0.532,1.894-0.822
			c1.333-0.556,2.749-1.227,4.276-1.813c1.536-0.567,3.131-1.155,4.721-1.742c1.613-0.569,3.296-1.077,4.868-1.598
			c3.133-1.063,6.149-1.853,8.273-2.504c2.135-0.642,3.498-0.992,3.498-0.992s1.135-0.298,2.993-0.786
			c1.856-0.492,4.438-1.175,7.367-1.879c2.919-0.725,6.156-1.524,9.321-2.25c3.156-0.748,6.221-1.462,8.782-2.032
			c17.746-3.992,28.841-6.149,34.612-7.33c2.922-0.595,5.682-1.181,8.308-1.779c0.328-0.076,0.654-0.151,0.979-0.227l0.484-0.113
			l0.198-0.049l0.051-0.021l0.423-0.174l0.453-0.195c0.145-0.066,0.368-0.15,0.384-0.197c0.241-0.212,0.714-0.549,1.348-0.873
			c0.249,0.036,0.5,0.233,0.73,0.68c0.115,0.223,0.226,0.509,0.327,0.868c0.051,0.181,0.1,0.379,0.146,0.598l-0.086,1.627
			c-0.12,2.229-0.205,4.47-0.262,6.753c-0.112,4.565-0.115,9.301-0.072,14.46c2.38-4.578,4.527-8.799,6.498-12.918
			c0.986-2.06,1.928-4.094,2.833-6.136c0.23-0.529,0.439-0.978,0.682-1.575l0.907-2.603c0.609-1.775,1.229-3.632,1.855-5.565
			c1.255-3.867,2.543-8.041,3.856-12.498l0.062-0.209l0.024-0.098l-0.091,0.01l-0.365,0.042l-0.737,0.085
			c-0.498,0.059-0.997,0.117-1.498,0.177c-1.025,0.127-2.059,0.255-3.101,0.384c-2.17,0.292-4.374,0.589-6.621,0.892
			c-2.162,0.323-4.365,0.652-6.616,0.988c-1.843,0.289-3.726,0.585-5.654,0.888c-2.688,0.417-5.497,0.899-8.454,1.471
			c-5.849,1.136-17.039,3.276-35.063,7.316c-2.603,0.567-5.723,1.294-8.94,2.064c-3.219,0.746-6.532,1.58-9.521,2.339
			c-2.989,0.736-5.653,1.458-7.57,1.982c-1.917,0.519-3.086,0.835-3.086,0.835s-1.399,0.349-3.65,1.007
			c-2.254,0.672-5.341,1.459-8.752,2.591c-1.706,0.555-3.474,1.082-5.267,1.707c-1.799,0.659-3.603,1.32-5.341,1.958
			c-1.729,0.665-3.356,1.425-4.869,2.066c-0.751,0.331-1.482,0.636-2.146,0.946c-0.652,0.321-1.266,0.623-1.83,0.901
			c-1.61,0.791-3.117,1.531-4.528,2.225c-1.371,0.731-2.648,1.414-3.841,2.051c-2.404,1.254-4.384,2.413-6.112,3.399
			c-3.476,1.952-5.768,3.403-7.551,4.469c-10.426,6.396-17.937,12.297-24.595,18.46C2.706,449.392-3.066,455.875-9.569,463.894z"/>
		<path d="M-10.57,569.894c4.263,5.611,7.414,8.745,13.465,9.483c3.271,0.447,13.157,1.346,22.421,1.617
			c2.333,0.027,4.613,0.054,6.722,0.078c2.155-0.066,4.164-0.188,5.854-0.267c0.848-0.044,1.619-0.084,2.301-0.119
			c0.677-0.044,1.233-0.128,1.706-0.173c0.936-0.104,1.464-0.163,1.464-0.163s8.468-0.761,17.632-2.742
			c4.591-0.922,9.326-2.229,13.316-3.419c3.981-1.24,7.21-2.404,8.802-3.058c2.95-1.163,4.996-2.813,6.594-4.964
			c1.579-2.169,2.771-4.862,3.724-8.274c-3.39-0.938-5.997-1.839-8.451-2.151c-2.458-0.342-4.718-0.131-7.375,0.793
			c-1.427,0.521-4.313,1.526-7.884,2.628c-3.587,1.054-7.848,2.245-12.005,3.092c-8.285,1.825-15.997,2.581-15.997,2.581
			s-0.481,0.05-1.334,0.139c-0.424,0.038-0.953,0.114-1.539,0.146c-0.581,0.023-1.24,0.05-1.963,0.079
			c-1.447,0.059-3.151,0.128-5.008,0.203c-1.922-0.032-4.001-0.067-6.129-0.103c-8.571-0.283-18.083-1.136-21.245-1.442
			C-1.351,563.383-4.931,565.634-10.57,569.894z"/>
		<path d="M176.431,390.227c9.212-4.648,15.246-7.992,24.497-15.551c1.571-1.272,4.128-3.344,9.442-7.649
			c5.938-4.752,16.009-12.714,24.854-18.899c4.409-3.062,8.553-5.733,11.48-7.173c0.361-0.177,0.706-0.346,1.031-0.505
			c0.307-0.124,0.595-0.242,0.865-0.352c0.488-0.223,1.134-0.405,1.564-0.559c0.922-0.291,1.435-0.452,1.435-0.452
			c-0.001-0.001,1.722-0.537,4.633-1.262c2.909-0.724,7.019-1.603,11.669-2.302c4.646-0.711,9.839-1.221,14.796-1.275
			c4.935-0.061,9.71,0.404,12.975,1.532c1.772,0.602,3.04,1.396,3.704,2.111c0.354,0.354,0.53,0.699,0.694,1.026
			c0.049,0.042,0.097,0.273,0.145,0.402c0.049,0.151,0.097,0.301,0.144,0.448c0.098,0.293,0.193,0.577,0.285,0.852
			c0.561,2.181,0.303,3.418,0.03,4.145c-0.287,0.746-0.705,1.394-1.293,2.001c-0.581,0.604-1.333,1.147-2.126,1.58
			c-0.198,0.101-0.396,0.218-0.586,0.302l-0.271,0.129l-0.078,0.062c-0.566,0.161-1.124,0.319-1.675,0.477
			c-1.12,0.327-2.204,0.668-3.271,1.025c-4.266,1.428-8.234,3.112-12.944,5.218c5.147,0.347,9.454,0.553,13.95,0.417
			c1.124-0.034,2.26-0.09,3.424-0.17c0.592-0.048,1.191-0.096,1.801-0.145c0.277-0.028,0.576-0.105,0.794-0.156
			c0.213-0.048,0.401-0.101,0.592-0.154c0.39-0.103,0.753-0.235,1.13-0.365c1.481-0.546,2.977-1.342,4.393-2.565
			c1.406-1.212,2.705-2.904,3.483-4.965c0.816-2.006,1.187-5.285,0.232-8.802c-0.135-0.423-0.273-0.86-0.416-1.312
			c-0.073-0.226-0.148-0.454-0.224-0.686c-0.093-0.249-0.117-0.429-0.278-0.75c-0.514-1.189-1.247-2.381-2.197-3.368
			c-1.897-2.016-4.348-3.308-6.899-4.189c-4.72-1.594-10.14-2.001-15.595-1.957c-5.458,0.065-10.971,0.624-15.893,1.384
			c-4.924,0.749-9.263,1.686-12.378,2.468s-5.013,1.378-5.013,1.378s-0.567,0.178-1.593,0.498c-0.531,0.188-1.094,0.334-1.935,0.686
			c-0.399,0.161-0.843,0.331-1.28,0.521c-0.411,0.199-0.846,0.409-1.302,0.629c-3.601,1.777-7.882,4.562-12.486,7.739
			c-9.146,6.377-19.296,14.396-25.28,19.215c-5.372,4.324-7.921,6.443-9.49,7.743C186.735,376.356,182.392,381.802,176.431,390.227z
			"/>
		<path d="M297.097,352.227c1.317,1.387,2.085,2.632,2.851,3.613c0.749,1,1.462,1.755,2.365,2.529
			c0.478,0.436,1.395,1.302,2.048,2.725c0.2,0.331,0.3,0.755,0.441,1.168c0.174,0.396,0.204,0.895,0.31,1.359
			c0.122,0.442,0.12,1.037,0.179,1.569c0.073,0.544,0.024,1.092,0.038,1.633c-0.033,2.165-0.485,4.218-0.981,5.687
			c-0.257,0.731-0.472,1.335-0.663,1.74c-0.178,0.41-0.278,0.641-0.278,0.641s-0.115,0.225-0.318,0.623
			c-0.198,0.399-0.512,0.966-0.927,1.617c-0.096,0.157-0.224,0.355-0.316,0.484l0.01-0.017l0.002-0.008l0.004-0.002l0.002-0.001
			l0.002-0.001h-0.007l-0.118-0.003c-0.631-0.019-1.277-0.036-1.932-0.055c-5.233-0.146-10.941-0.296-12.843-0.313
			c-3.511-0.033-5.536,1.263-8.533,3.677c2.866,2.567,4.82,3.968,8.328,4.121c1.899,0.083,7.607,0.233,12.842,0.362
			c0.654,0.017,1.301,0.032,1.932,0.048c1.202-0.009,2.375-0.019,3.501-0.026c0.671,0.183,0.932-0.49,1.318-0.853
			c0.369-0.405,0.71-0.829,1.032-1.252c0.333-0.405,0.626-0.854,0.919-1.266c0.195-0.28,0.326-0.488,0.471-0.725
			c0.569-0.907,0.986-1.675,1.256-2.221c0.272-0.545,0.426-0.852,0.426-0.852s0.14-0.313,0.388-0.87
			c0.259-0.551,0.568-1.373,0.923-2.38c0.692-2.017,1.351-4.896,1.41-7.973c-0.006-0.768,0.04-1.547-0.047-2.317
			c-0.076-0.782-0.082-1.517-0.264-2.345c-0.162-0.807-0.258-1.597-0.545-2.369c-0.25-0.771-0.475-1.52-0.843-2.207
			c-1.299-2.818-3.236-4.635-4.192-5.411c-1.822-1.447-3.623-1.912-5.289-1.863C300.326,350.568,298.698,351.134,297.097,352.227z"
			/>
		<path d="M303.764,381.56c-0.321,2.787-0.525,4.312,0.498,5.219c0.393,0.358,1.458,1.265,2.18,2.12
			c0.374,0.425,0.612,0.809,0.721,0.996c0.034,0.103,0.025,0.033,0.021,0.034l0.012-0.005c0.005,0.385,0.01,0.7,0.014,0.956
			c0.001,0.275,0.021,0.495,0.006,0.647c-0.025,0.308-0.035,0.416-0.035,0.416c0,0.001-0.025,0.417-0.105,1.035
			c-0.058,0.297-0.127,0.646-0.201,1.027c-0.11,0.352-0.229,0.732-0.352,1.121c-0.564,1.495-1.622,2.653-2.029,2.981
			c-0.357,0.315-0.448,0.817-0.49,1.583c-0.049,0.781,0.013,1.817-0.238,3.201c0.982,1.005,2.045,1.601,2.993,1.816
			c0.97,0.222,1.883,0.037,2.733-0.61c0.22-0.186,0.547-0.471,0.942-0.834c0.359-0.394,0.825-0.844,1.236-1.406
			c0.888-1.095,1.638-2.548,2.196-3.958c0.245-0.708,0.45-1.408,0.623-2.052c0.12-0.643,0.229-1.233,0.322-1.734
			c0.123-0.991,0.151-1.624,0.151-1.624s0.014-0.169,0.053-0.646c0.021-0.239,0.005-0.542,0.007-0.943
			c-0.006-0.421-0.013-0.938-0.021-1.571c-0.049-0.316-0.101-0.749-0.206-1.26c-0.118-0.503-0.357-1.142-0.595-1.64
			c-0.498-0.993-1.145-1.896-1.789-2.643c-1.294-1.511-2.627-2.583-3.18-3.023C307.854,379.722,306.228,380.214,303.764,381.56z"/>
		<path d="M82.432,596.227c8.932-18.606,14.324-31.378,19.291-54.83c2.126-10.244,6.383-30.753,11.573-55.755
			c1.193-5.775,2.414-11.681,3.657-17.694c0.619-3,1.245-6.027,1.876-9.079l-0.004,0.017c0.016-0.004-0.047,0.036,0.054-0.032
			c0.803-0.525,1.608-1.053,2.417-1.582c10.257-6.574,21.529-12.6,33.244-17.955c1.47-0.664,2.915-1.387,4.41-2.006
			c1.492-0.627,2.987-1.254,4.483-1.883c1.497-0.629,2.995-1.259,4.495-1.89c1.502-0.626,3.044-1.159,4.565-1.745l4.585-1.723
			c1.532-0.568,3.05-1.18,4.614-1.662c3.107-1.024,6.218-2.05,9.33-3.075c1.547-0.545,3.135-0.95,4.71-1.4l4.73-1.33l4.729-1.332
			c1.575-0.442,3.183-0.755,4.771-1.139c3.185-0.736,6.365-1.472,9.54-2.205c3.192-0.64,6.401-1.159,9.589-1.744
			c6.357-1.299,12.782-1.856,19.109-2.694l2.373-0.295c0.79-0.094,1.586-0.114,2.377-0.176c1.584-0.104,3.164-0.207,4.74-0.311
			c3.152-0.209,6.287-0.416,9.402-0.623c3.168-0.079,6.316-0.158,9.441-0.237c3.126-0.05,6.235-0.206,9.31-0.167
			c6.147,0.048,12.209-0.068,18.117,0.185c23.644,0.61,45.29,2.863,62.798,6.973c2.192,0.494,4.276,1.093,6.345,1.61
			c1.995,0.625,4.018,1.147,5.844,1.815c0.921,0.322,1.864,0.613,2.71,0.961c0.38,0.146,0.758,0.292,1.133,0.437l0.057,0.021
			l-0.003-0.008c1.335,7.039,2.493,13.144,3.444,18.154c2.002,10.552,3.131,16.496,3.131,16.496s1.569,8.298,5.542,29.299
			c1.987,10.501,4.575,24.177,7.869,41.579c1.646,8.702,3.47,18.335,5.482,28.968c0.252,1.329,0.507,2.674,0.764,4.035l0.049,0.255
			l0.003,0.016l-0.001-0.001v-0.003l-0.002-0.005l0.008-0.015l0.012-0.001c-1.423,0.112-2.861,0.227-4.315,0.342
			c-3.088,0.244-6.242,0.494-9.464,0.75c-50.468,4.01-213.504,16.965-256.134,20.353C115.343,585.91,102.001,589.674,82.432,596.227
			c20.357,3.383,34.126,4.995,58.035,3.219c15.2-1.196,51.865-4.082,89.229-7.022c66.755-5.312,134.759-10.724,166.908-13.281
			c8.1-0.644,15.858-1.261,23.287-1.851c1.479-0.118,2.951-0.234,4.414-0.351c0.731-0.059,1.461-0.116,2.188-0.174l1.09-0.087
			l0.136-0.011l-0.003-0.117l-0.051-0.269l-0.102-0.535c-0.541-2.852-1.075-5.672-1.604-8.46c-0.777-4.104-1.538-8.113-2.28-12.031
			c-2.016-10.632-3.842-20.265-5.491-28.966c-3.3-17.401-5.893-31.076-7.884-41.576c-3.983-20.999-5.558-29.296-5.558-29.296
			s-1.124-5.945-3.119-16.499c-0.499-2.638-1.053-5.564-1.656-8.757c-0.302-1.597-0.617-3.261-0.943-4.988
			c-0.163-0.863-0.33-1.743-0.499-2.639c-0.085-0.448-0.17-0.899-0.257-1.355l-0.064-0.342l-0.13-0.601
			c-0.1-0.45-0.2-0.902-0.3-1.355c-0.401-1.815-0.81-3.66-1.225-5.535l-0.077-0.352c-0.04-0.107-0.194-0.127-0.285-0.195
			l-0.636-0.339l-1.272-0.678c-0.834-0.472-1.762-0.855-2.652-1.288c-0.898-0.41-1.822-0.883-2.691-1.213
			c-0.576-0.223-1.155-0.447-1.739-0.674c-1.071-0.434-2.132-0.766-3.218-1.146c-2.172-0.785-4.381-1.365-6.658-2.071
			c-2.271-0.577-4.6-1.238-6.98-1.778c-19.04-4.467-41.547-6.763-65.961-7.416c-6.109-0.26-12.321-0.147-18.646-0.198
			c-3.164-0.038-6.339,0.117-9.545,0.167c-3.205,0.08-6.434,0.16-9.683,0.241c-3.289,0.215-6.6,0.431-9.928,0.647
			c-1.664,0.109-3.332,0.22-5.005,0.33c-0.835,0.064-1.675,0.09-2.509,0.188l-2.504,0.307c-6.674,0.872-13.453,1.477-20.15,2.832
			c-3.358,0.614-6.74,1.165-10.103,1.839c-3.342,0.771-6.69,1.542-10.043,2.315c-1.672,0.403-3.363,0.737-5.021,1.2l-4.974,1.396
			l-4.976,1.398c-1.656,0.474-3.326,0.903-4.952,1.473c-3.271,1.077-6.541,2.154-9.808,3.23c-1.643,0.509-3.238,1.148-4.849,1.744
			l-4.817,1.81c-1.6,0.615-3.218,1.179-4.797,1.835c-1.577,0.662-3.152,1.323-4.726,1.983c-1.573,0.661-3.144,1.321-4.712,1.98
			c-1.57,0.652-3.094,1.409-4.64,2.108c-12.346,5.649-24.146,11.938-35.248,19.054l-2.077,1.356l-0.26,0.169l-0.359,0.246
			l-0.917,0.642l-1.832,1.28l-1.865,1.317l-0.479,0.343l-0.224,0.182l-0.062,0.288l-0.246,1.151
			c-0.329,1.535-0.656,3.066-0.984,4.595c-0.633,3.065-1.261,6.106-1.883,9.12c-1.242,6.014-2.461,11.919-3.653,17.694
			c-5.142,25.012-9.359,45.529-11.466,55.778C81.713,561.742,81.604,575.604,82.432,596.227z"/>
		<path d="M406.431,604.894c4.199,3.02,8.64,5.217,13.514,6.423c2.431,0.586,5.056,0.883,7.731,0.696
			c1.235-0.115,2.49-0.239,3.75-0.402c1.223-0.242,2.468-0.49,3.712-0.788l0.912-0.27l0.236-0.072l0.349-0.132l0.701-0.267
			c0.926-0.369,1.938-0.695,2.812-1.158c0.916-0.447,1.838-0.896,2.765-1.35l0.703-0.35l0.644-0.394l1.301-0.802
			c1.788-1.076,3.419-2.243,5.235-3.477l0.681-0.473c0.193-0.067,0.046-0.188-0.012-0.295l-0.207-0.327
			c-0.279-0.439-0.56-0.881-0.841-1.324c-0.576-0.9-1.157-1.809-1.744-2.726c-1.22-1.877-2.464-3.791-3.734-5.748
			c-0.656-0.995-1.319-2.001-1.989-3.019c-0.399-0.557-0.804-1.12-1.212-1.69c-1.593-2.189-3.296-4.455-5.131-6.824
			c-3.484-4.463-8.717-11.164-20.937-26.812c-0.853,2.505-1.756,5.161-3.147,9.25c-3.537,10.408-8.11,23.869-11.915,35.065
			c-53.679,5.965-119.957,13.33-119.957,13.33s-92.507,10.199-143.792,15.854c-18.216,2.043-29.49,3.307-35.379,3.967
			c-1.216,0.148-2.405,0.293-3.565,0.434c-0.58,0.076-1.153,0.15-1.719,0.225l-0.423,0.057c-0.099,0.013-0.085,0.014-0.083,0.015
			l-0.002,0.006l-0.011,0.024c-0.036,0.07-0.128,0.174-0.328,0.315c-0.113,0.024-0.261-0.012-0.449-0.155l-0.149-0.128
			c-0.114-0.444-0.228-0.886-0.341-1.324c-0.242-0.914-0.481-1.818-0.719-2.712c-0.977-3.572-2.027-6.979-3.169-10.354
			c-2.282-6.751-4.931-13.378-8.09-20.956c-0.761,8.175-1.316,15.289-1.486,22.414c-0.085,3.562-0.073,7.127,0.058,10.828
			c0.04,0.925,0.08,1.858,0.12,2.804c0.029,0.491,0.058,0.986,0.087,1.484c0.095,0.899,0.188,1.805,0.284,2.717
			c0.394,3.678,0.844,7.572,1.352,11.669c3.732-0.293,7.825-0.653,12.209-1.071c2.581-0.248,5.298-0.51,8.141-0.782
			c5.891-0.644,17.168-1.874,35.391-3.862c51.281-5.692,143.78-15.96,143.78-15.96s70.182-7.732,127.021-13.994
			c0.675-0.075,1.354-0.149,2.036-0.226l0.513-0.057c0.167-0.023,0.382,0.012,0.388-0.214l0.335-0.983
			c0.446-1.315,0.897-2.645,1.353-3.985c0.693-2.042,1.399-4.12,2.111-6.218c0.932-2.744,1.881-5.541,2.822-8.316
			c0.772-2.279,1.539-4.54,2.277-6.721l-0.021,0.039l-0.011,0.014l-0.027-0.062c1.436,1.818,2.392,3.029,3.156,3.998
			c1.858,2.351,3.648,4.548,5.391,6.62c0.42,0.493,0.836,0.981,1.246,1.464l0.127,0.01c0.099,0.017,0.226,0.055,0.391,0.124
			l0.274,0.128l0.253,0.17c0.047,0.112,0.066,0.252,0.045,0.414c-0.019,0.168-0.082,0.354-0.191,0.576
			c-0.06,0.117-0.108,0.213-0.182,0.331l-0.056,0.088l-0.03,0.045l-0.146,0.098l-0.616,0.408c-0.848,0.492-1.689,0.98-2.529,1.468
			l-2.621,1.293c-1.613,0.777-3.413,1.346-5.439,1.736C416.193,605.471,411.52,605.599,406.431,604.894z"/>
		<path d="M442.431,600.228c20.366,3.35,34.138,4.94,58.04,3.125c4.049-0.32,10.636-0.843,24.325-1.927
			c3.561-0.238,11.978-1.013,11.978-1.013s7.058-0.494,10.965-0.835c18.268-1.507,29.574-2.439,35.479-2.927
			c23.887-2.055,37.223-5.841,56.782-12.424c-20.364-3.351-34.135-4.94-58.041-3.127c-5.907,0.47-17.217,1.368-35.489,2.82
			c-3.911,0.292-10.956,0.941-10.956,0.941s-8.432,0.589-11.983,0.926c-13.687,1.134-20.271,1.679-24.318,2.014
			C475.328,589.859,461.992,593.644,442.431,600.228z"/>
		<path d="M418.431,569.561c20.547,1.947,34.396,2.592,58.118-0.855c4.018-0.598,10.553-1.568,24.137-3.588
			c7.496-1.078,25.227-3.839,25.227-3.839s14.856-2.2,23.093-3.42c18.122-2.754,29.339-4.459,35.197-5.349
			c23.689-3.686,36.734-8.376,55.798-16.282c-20.546-1.948-34.394-2.593-58.119,0.854c-5.86,0.873-17.082,2.544-35.213,5.243
			c-8.23,1.258-23.077,3.526-23.077,3.526s-17.757,2.577-25.239,3.753c-13.576,2.067-20.108,3.062-24.124,3.674
			C450.541,556.963,437.495,561.654,418.431,569.561z"/>
		<path d="M131.764,503.561c10.241,1.268,17.153,1.788,29.06,0.405c2.017-0.24,5.297-0.632,12.114-1.446
			c3.57-0.439,12.027-1.479,12.027-1.479s7.083-0.842,11.01-1.308c9.097-1.116,14.728-1.808,17.668-2.168
			c11.893-1.502,18.48-3.659,28.121-7.338c-10.24-1.269-17.152-1.789-29.06-0.406c-2.942,0.352-8.574,1.025-17.675,2.115
			c-3.924,0.485-11.003,1.36-11.003,1.36s-8.461,1.01-12.032,1.437c-6.815,0.838-10.094,1.242-12.109,1.489
			C147.993,497.725,141.405,499.882,131.764,503.561z"/>
		<path d="M135.097,478.893c10.255,1.15,17.173,1.592,29.062,0.072c2.013-0.265,5.289-0.693,12.097-1.586
			c2.866-0.388,9.657-1.306,9.657-1.306s5.688-0.739,8.841-1.148c9.084-1.221,14.705-1.977,17.642-2.371
			c11.875-1.639,18.438-3.872,28.035-7.661c-10.255-1.15-17.172-1.591-29.062-0.072c-2.938,0.387-8.562,1.125-17.648,2.319
			c-3.151,0.428-8.835,1.201-8.835,1.201s-6.794,0.887-9.662,1.262c-6.805,0.917-10.079,1.358-12.092,1.629
			C151.258,472.872,144.695,475.104,135.097,478.893z"/>
		<path d="M143.097,455.561c10.243,1.257,17.155,1.771,29.06,0.375c2.017-0.243,5.297-0.639,12.113-1.46
			c0.889-0.084,2.981-0.387,2.981-0.387s1.762-0.177,2.734-0.308c9.095-1.126,14.725-1.823,17.665-2.188
			c11.892-1.514,18.477-3.679,28.113-7.367c-10.242-1.257-17.154-1.771-29.061-0.375c-2.941,0.354-8.572,1.035-17.672,2.134
			c-0.975,0.106-2.727,0.36-2.727,0.36s-2.104,0.211-2.987,0.344c-6.814,0.846-10.093,1.252-12.107,1.503
			C159.32,449.708,152.734,451.872,143.097,455.561z"/>
		<path d="M382.43,418.894c6.26,2.233,10.182,3.148,14.855,0.702c2.53-1.324,10.04-5.475,16.916-9.293
			c3.437-1.912,6.717-3.737,9.139-5.085c1.237-0.702,2.119-1.138,2.795-1.508c0.656-0.351,1.026-0.548,1.026-0.548
			s0.372-0.193,1.031-0.538c0.651-0.364,1.628-0.793,2.801-1.347c1.176-0.547,2.549-1.219,4.091-1.829
			c0.765-0.32,1.562-0.653,2.379-0.995c0.819-0.333,1.676-0.626,2.532-0.95c3.427-1.306,7.089-2.388,10.202-3.21
			c1.562-0.387,2.981-0.75,4.179-0.984c1.193-0.269,2.156-0.461,2.798-0.575c2.367-0.493,4.111-1.388,5.787-2.884
			c1.688-1.456,3.238-3.508,5.469-5.956c-2.173-2.538-4.316-4.315-6.525-5.442c-2.215-1.091-4.582-1.539-7.401-1.089
			c-0.77,0.104-1.912,0.304-3.314,0.598c-1.414,0.261-3.07,0.666-4.89,1.113c-3.623,0.938-7.848,2.205-11.765,3.71
			c-0.979,0.375-1.96,0.721-2.894,1.105c-0.931,0.394-1.837,0.777-2.708,1.146c-1.755,0.713-3.31,1.48-4.64,2.112
			c-1.327,0.638-2.431,1.141-3.164,1.554c-0.743,0.395-1.161,0.617-1.161,0.617s-0.421,0.22-1.167,0.608
			c-0.719,0.385-1.878,0.963-3.055,1.62c-2.426,1.332-5.713,3.136-9.156,5.025c-6.884,3.785-14.384,7.93-16.849,9.367
			C385.19,408.594,383.879,412.4,382.43,418.894z"/>
		<path d="M547.431,425.227c3.976,1.829,6.616,2.732,10.866,2.043c4.604-0.746,27.597-4.869,27.597-4.869s23.014-3.994,27.595-4.869
			c4.23-0.807,6.402-2.56,9.512-5.639c-3.976-1.828-6.615-2.731-10.867-2.043c-4.604,0.745-27.595,4.869-27.595,4.869
			s-23.015,3.994-27.597,4.869C552.712,420.396,550.541,422.149,547.431,425.227z"/>
		<path d="M556.097,454.561c3.565,2.03,5.939,3.07,9.813,2.605c4.196-0.503,25.162-3.408,25.162-3.408s20.982-2.776,25.161-3.408
			c3.858-0.583,5.871-2.217,8.767-5.123c-3.564-2.031-5.938-3.07-9.813-2.606c-4.197,0.502-25.161,3.408-25.161,3.408
			s-20.983,2.775-25.162,3.408C561.005,450.021,558.993,451.654,556.097,454.561z"/>
		<path d="M568.431,484.561c3.155,2.164,5.26,3.293,8.722,2.978c3.748-0.341,22.482-2.435,22.482-2.435s18.749-1.965,22.483-2.435
			c3.449-0.434,5.264-1.986,7.882-4.776c-3.154-2.164-5.26-3.293-8.722-2.979c-3.749,0.34-22.482,2.435-22.482,2.435
			s-18.749,1.964-22.483,2.435C572.863,480.218,571.049,481.771,568.431,484.561z"/>
		<path d="M441.098,385.56c1.015-1.651,1.965-2.808,2.644-4.003c0.688-1.185,1.136-2.37,1.431-3.923
			c0.166-0.838,0.486-2.529,1.168-4.514c0.668-1.987,1.707-4.251,2.958-6.282c1.228-2.047,2.687-3.834,3.829-5.096
			c0.582-0.624,1.039-1.155,1.408-1.484c0.354-0.341,0.554-0.532,0.554-0.532s0.782-0.781,2.122-1.877
			c0.637-0.58,1.495-1.153,2.372-1.837c0.912-0.644,1.918-1.323,2.973-1.983c4.229-2.652,9.381-4.764,11.094-5.456
			c1.593-0.622,2.744-1.389,3.759-2.436c1.035-0.999,1.928-2.274,3.022-3.91c-1.771-0.763-3.284-1.307-4.798-1.531
			c-1.501-0.175-3.01-0.03-4.777,0.594c-1.904,0.696-7.6,3.018-12.446,6.073c-1.208,0.762-2.368,1.551-3.425,2.305
			c-1.028,0.802-2.011,1.479-2.771,2.167c-1.571,1.302-2.507,2.245-2.507,2.244c0,0-0.24,0.229-0.665,0.635
			c-0.438,0.391-1.004,1.026-1.709,1.778c-1.392,1.52-3.187,3.7-4.725,6.24c-1.563,2.519-2.875,5.363-3.71,7.872
			c-0.853,2.506-1.245,4.653-1.417,5.723c-0.308,1.983-0.08,3.609,0.538,5.084C438.643,382.875,439.641,384.247,441.098,385.56z"/>
		<path d="M487.097,397.56c-2.279,1.179-4.53,1.819-6.528,1.953c-2.015,0.137-3.646-0.336-4.803-1.232
			c-1.172-0.894-2.136-2.221-3.03-4.033c-0.442-0.904-0.862-1.913-1.257-3.03c-0.229-0.566-0.298-1.038-0.482-1.571
			c-0.112-0.55-0.24-1.111-0.334-1.713c-0.04-0.419-0.119-0.89-0.164-1.478c-0.006-0.603-0.095-1.277-0.045-2.133
			c0.022-1.681,0.208-3.96,0.887-7.076c0.282-1.282,0.831-3.453,1.402-5.298c0.297-0.92,0.568-1.761,0.766-2.371
			c0.215-0.608,0.349-0.987,0.349-0.987s0.46-1.263,1.103-2.866c0.654-1.601,1.482-3.542,2.112-4.916
			c3.719-8.083,6.64-12.846,8.088-15.321c0.373-0.62,0.735-1.224,1.09-1.812l-0.015-0.021c0.028-0.028-0.117,0.049,0.235-0.184
			c0.982-0.659,1.978-1.265,2.943-1.81c1.938-1.093,3.78-1.976,5.629-2.677c1.849-0.67,3.716-1.204,5.751-1.32
			c2.035-0.141,4.27,0.168,6.637,1.23c-1.57-2.036-3.694-3.605-6.063-4.484c-2.367-0.917-4.896-1.181-7.412-1.045
			c-2.518,0.163-5.042,0.744-7.6,1.743c-1.282,0.501-2.566,1.105-3.89,1.861c-0.224,0.121-0.948,0.566-1.48,0.939
			c-0.135,0.103-0.3,0.179-0.412,0.307l-0.289,0.433c-0.192,0.292-0.386,0.587-0.581,0.883c-0.407,0.619-0.81,1.253-1.212,1.91
			c-1.564,2.616-4.616,7.547-8.57,16.119c-0.68,1.454-1.555,3.536-2.241,5.266c-0.678,1.734-1.16,3.119-1.16,3.119
			s-0.151,0.41-0.394,1.07c-0.226,0.668-0.545,1.585-0.869,2.603c-0.65,2.035-1.285,4.493-1.586,5.985
			c-0.778,3.597-1.021,6.415-1.043,8.604c-0.05,1.084,0.052,2.041,0.078,2.843c0.066,0.812,0.179,1.503,0.25,2.092
			c0.145,0.876,0.354,1.737,0.572,2.566c0.284,0.808,0.543,1.69,0.868,2.36c0.609,1.394,1.318,2.708,2.155,3.929
			c1.648,2.414,3.973,4.567,6.882,5.511c1.436,0.469,2.95,0.589,4.337,0.403c1.394-0.182,2.66-0.641,3.791-1.245
			C483.816,401.437,485.62,399.68,487.097,397.56z"/>
		<path d="M517.096,390.893c-0.941,2.395-2.242,4.303-3.645,5.834c-1.407,1.531-2.939,2.652-4.554,3.462
			c-1.641,0.785-3.406,1.2-5.382,1.449c-0.512,0.025-1.025,0.062-1.547,0.111c-0.525,0.039-1.102-0.033-1.666-0.03
			c-1.143,0.022-2.33-0.121-3.475-0.328c-0.774-0.145-1.758-0.402-2.906-0.987c-1.101-0.649-2.318-1.549-3.209-3.828
			c-0.409-1.116-0.78-2.846-0.824-4.925c-0.056-2.07,0.177-4.425,0.553-6.606c0.367-2.183,0.87-4.191,1.259-5.646
			c0.393-1.456,0.673-2.36,0.673-2.36s0.908-3.032,2.387-6.854c1.454-3.825,3.498-8.414,5.058-11.643
			c0.97-2.021,1.888-3.83,2.733-5.446c0.878-1.63,1.66-3.081,2.35-4.362c1.231-2.249,2.422-3.85,3.235-4.866
			c3.371-4.157,6.457-6.633,9.846-8.24c1.786-0.809,3.525-1.377,5.341-1.351c0.902,0.027,1.846,0.229,2.748,0.766
			c0.897,0.532,1.769,1.373,2.359,2.518c0.014-1.295-0.373-2.601-1.095-3.743c-0.72-1.15-1.821-2.082-3.048-2.7
			c-2.493-1.232-5.238-1.353-7.729-1.033c-5.22,0.688-10.316,3.758-14.496,8.889c-1.042,1.287-2.465,3.153-4.062,6.049
			c-0.101,0.192-0.203,0.387-0.308,0.585l-0.047,0.092l-0.011,0.021l-0.135,0.237c-0.197,0.355-0.401,0.722-0.611,1.1
			c-0.404,0.752-0.832,1.549-1.285,2.393c-0.889,1.691-1.848,3.579-2.863,5.688c-1.64,3.367-3.77,8.178-5.301,12.253
			c-1.555,4.062-2.527,7.375-2.527,7.375s-0.312,0.979-0.752,2.583c-0.438,1.605-1.009,3.834-1.446,6.367
			c-0.442,2.529-0.75,5.369-0.681,8.139c0.052,2.762,0.571,5.472,1.335,7.478c0.785,2.068,1.916,3.823,3.156,5.133
			c1.241,1.319,2.538,2.19,3.673,2.824c2.307,1.183,3.966,1.536,5.177,1.768c1.803,0.312,3.455,0.418,5.017,0.299
			c0.786-0.054,1.538-0.047,2.292-0.176c0.757-0.139,1.493-0.286,2.209-0.441c2.864-0.766,5.427-2.085,7.393-3.935
			c1.947-1.866,3.278-4.104,4.052-6.466C517.109,395.976,517.389,393.465,517.096,390.893z"/>
		<path d="M541.764,385.56c-1.004,2.371-2.174,4.374-3.411,6.138c-1.238,1.758-2.559,3.279-4.008,4.477
			c-1.448,1.202-2.979,2.069-4.679,2.531c-0.425,0.117-0.844,0.264-1.322,0.274c-0.484,0.034-0.87,0.164-1.473,0.154
			c-1.133,0.067-2.248,0.02-3.181-0.168c-0.628-0.139-1.336-0.348-1.914-0.87c-0.3-0.259-0.602-0.674-0.916-1.416
			c-0.309-0.741-0.579-1.835-0.718-3.269c-0.345-2.834,0.102-8.389,0.738-13.175c0.623-4.793,1.222-8.824,1.222-8.824
			s0.125-0.842,0.329-2.222c0.1-0.691,0.22-1.519,0.354-2.442c0.066-0.46,0.137-0.944,0.21-1.448
			c0.08-0.479,0.162-0.977,0.247-1.488c0.612-4.109,1.802-8.999,2.988-12.336c2.81-8.183,6.006-12.399,7.604-14.386
			c0.413-0.505,0.828-0.977,1.217-1.387l0.282-0.295l0.197-0.192l0.34-0.389c0.594-0.649,0.446-0.524,0.625-0.727
			c0.5-0.584,1.213-1.154,1.963-1.604c1.515-0.921,3.31-1.468,5.211-1.793c0.956-0.147,1.941-0.269,2.961-0.302
			c1.05-0.085,1.965-0.057,2.952,0.03c0.944,0.126,1.89,0.354,2.683,0.927c0.786,0.554,1.457,1.565,1.498,2.868
			c0.582-1.157,0.547-2.678-0.108-3.95c-0.646-1.287-1.755-2.222-2.867-2.921c-1.114-0.657-2.338-1.197-3.472-1.529
			c-1.146-0.394-2.356-0.665-3.623-0.848c-2.525-0.322-5.388-0.223-8.362,0.997c-1.481,0.619-2.958,1.484-4.347,2.841
			c-0.3,0.275-0.859,0.955-0.742,0.799c-0.014,0.007,0.052-0.062-0.196,0.161l-0.473,0.447c-0.613,0.598-1.175,1.209-1.719,1.858
			c-2.114,2.547-5.895,7.647-9.056,16.855c-1.348,3.763-2.645,9.173-3.295,13.647c-0.188,1.128-0.35,2.174-0.466,3.07
			c-0.128,0.915-0.243,1.733-0.339,2.419c-0.196,1.375-0.315,2.214-0.315,2.214s-0.618,3.993-1.28,8.945
			c-0.659,4.944-1.231,10.948-0.768,14.952c0.198,1.979,0.593,3.83,1.288,5.504c0.69,1.667,1.698,3.142,2.854,4.167
			c1.145,1.014,2.292,1.681,3.259,2.043c0.49,0.215,0.934,0.356,1.34,0.458c0.407,0.109,0.791,0.223,1.122,0.266
			c2.014,0.371,3.766,0.309,5.32,0.119c0.755-0.048,1.647-0.3,2.437-0.476c0.812-0.153,1.569-0.481,2.302-0.81
			c2.938-1.31,5.066-3.423,6.477-5.609c1.428-2.206,2.214-4.53,2.675-6.896C541.861,390.585,541.989,388.134,541.764,385.56z"/>
		<path d="M557.764,328.893c-3.809,3.492-6.783,6.693-9.537,10.342c-2.726,3.67-5.244,7.809-7.646,13.531
			c-0.394,0.977-0.929,2.248-1.61,4.152c-0.7,1.893-1.546,4.421-2.443,7.956c-0.791,3.221-1.679,7.693-1.469,12.884
			c0.174,2.6,0.655,5.382,1.754,8.083c1.105,2.707,2.981,5.171,5.117,7.005c1.963,1.801,4.865,3.391,8.01,3.549
			c1.544,0.056,3.045-0.206,4.244-0.679c0.302-0.119,0.599-0.235,0.891-0.35c0.262-0.138,0.52-0.273,0.772-0.407
			c0.521-0.263,0.953-0.553,1.354-0.837c1.613-1.138,2.614-2.192,3.274-2.913c0.665-0.725,0.987-1.137,0.987-1.137
			s0.275-0.343,0.776-0.967c0.472-0.629,1.141-1.545,1.896-2.694c1.499-2.297,3.296-5.534,5.091-9.14
			c1.811-3.582,3.645-7.616,5.588-11.058c0.242-0.429,0.486-0.845,0.731-1.231c0.123-0.198,0.244-0.399,0.367-0.573l0.663-0.987
			c0.477-1.164,0.543-1.457,0.741-1.996c0.169-0.502,0.337-0.998,0.502-1.488c0.646-1.961,1.206-3.831,1.677-5.547
			c2.535-9.136,2.978-15.3,2.864-18.665c-0.05-1.695-0.229-3.352-0.654-4.987c-0.428-1.627-1.056-3.247-2.128-4.713
			c-1.04-1.463-2.542-2.709-4.168-3.355c-1.619-0.67-3.229-0.812-4.639-0.706c-2.839,0.242-5.07,1.27-7.14,2.479
			C561.566,325.669,559.675,327.161,557.764,328.893c2.498-0.637,4.8-1.086,6.952-1.329c2.137-0.247,4.187-0.278,5.811,0.119
			c0.808,0.193,1.459,0.505,1.917,0.877c0.467,0.366,0.771,0.8,1.077,1.417c0.611,1.224,1.011,3.336,1.04,5.934
			c0.059,2.536-0.263,7.842-2.636,16.389c-0.441,1.598-0.969,3.351-1.569,5.178c-0.256,0.744-0.518,1.508-0.784,2.283l0.01-0.016
			l-0.22,0.326c-0.178,0.256-0.328,0.504-0.482,0.754c-0.318,0.504-0.61,1.004-0.892,1.502c-2.235,3.982-4.014,7.959-5.771,11.443
			c-1.727,3.485-3.361,6.426-4.634,8.387c-0.639,0.976-1.174,1.712-1.545,2.213c-0.381,0.476-0.59,0.737-0.59,0.737
			s-0.062,0.078-0.182,0.226c-0.122,0.137-0.303,0.337-0.534,0.594c-0.459,0.511-1.155,1.199-1.978,1.771
			c-0.837,0.572-1.685,0.933-2.455,0.879c-0.775-0.066-1.945-0.451-3.273-1.688c-1.237-1.094-2.292-2.425-2.969-4.077
			c-0.663-1.659-1.018-3.555-1.151-5.477c-0.159-3.896,0.543-7.762,1.24-10.592c0.79-3.119,1.548-5.427,2.188-7.17
			c0.616-1.748,1.11-2.938,1.466-3.849c2.184-5.355,3.953-9.591,5.452-13.751C554.785,337.825,556.041,333.75,557.764,328.893z"/>
		<path d="M565.43,365.894c5.237,3.648,8.486,5.528,13.045,4.427c1.236-0.278,3.689-0.962,6.69-1.676
			c1.499-0.369,3.132-0.771,4.813-1.187c1.681-0.381,3.409-0.772,5.1-1.155c1.692-0.405,3.338-0.73,4.857-1.025
			c1.521-0.303,2.917-0.581,4.103-0.816c1.184-0.228,2.137-0.345,2.811-0.461c0.67-0.104,1.047-0.164,1.047-0.164
			s0.379-0.056,1.05-0.154c0.672-0.089,1.632-0.266,2.809-0.395c2.358-0.204,5.554-0.48,8.901-0.771
			c1.653-0.062,3.324-0.045,4.959-0.08c1.633-0.022,3.234-0.09,4.613,0.069c1.404,0.092,2.682,0.175,3.752,0.244
			c0.55,0.01,0.987,0.109,1.386,0.167c0.396,0.059,0.734,0.109,1.005,0.149c0.989,0.149,1.952,0.065,2.813-0.088
			c0.829-0.121,1.666-0.414,2.579-0.848l0.7-0.351l0.674-0.353c0.49-0.268,0.988-0.54,1.502-0.82
			c0.279-0.152,0.563-0.306,0.853-0.463c0.284-0.152,0.558-0.292,0.867-0.44c0.622-0.281,1.299-0.618,2.07-0.811
			c-0.02-0.803-0.208-1.555-0.396-2.288c-0.101-0.365-0.22-0.744-0.346-1.086c-0.123-0.328-0.254-0.649-0.394-0.964
			c-0.28-0.63-0.595-1.232-0.944-1.805c-0.173-0.282-0.36-0.575-0.548-0.827c-0.183-0.242-0.373-0.477-0.571-0.703
			c-0.793-0.905-1.708-1.684-2.779-2.332c-1.057-0.604-2.211-0.948-3.566-1.221c-0.366-0.066-0.824-0.149-1.36-0.246
			c-0.535-0.09-1.162-0.223-1.816-0.253c-1.325-0.101-2.908-0.221-4.646-0.353c-1.76-0.185-3.594-0.122-5.496-0.096
			c-1.898,0.037-3.866,0.035-5.763,0.12c-3.734,0.347-7.299,0.678-9.931,0.922c-1.311,0.155-2.38,0.356-3.128,0.462
			c-0.747,0.117-1.168,0.184-1.168,0.184s-0.421,0.062-1.169,0.172c-0.742,0.12-1.836,0.251-3.114,0.485
			c-1.273,0.243-2.772,0.529-4.404,0.841c-1.636,0.307-3.4,0.646-5.168,1.061c-1.778,0.397-3.597,0.804-5.365,1.198
			c-1.75,0.434-3.45,0.854-5.01,1.239c-3.126,0.758-5.645,1.493-6.911,1.848C569.785,356.626,567.832,359.988,565.43,365.894z"/>
		<path d="M240.431,339.56c-6.322-8.156-10.826-13.425-20.202-20.892c-1.593-1.26-4.184-3.31-9.568-7.57
			c-9.166-7.226-24.322-19.173-37.329-29.427c-6.507-5.123-12.476-9.823-16.89-13.298c-1.558-1.227-2.979-2.346-4.24-3.339
			c-0.894-0.704-1.73-1.363-2.506-1.974c-0.389-0.306-0.762-0.6-1.118-0.881l-0.134-0.105l-0.122-0.033l-0.196,0.265
			c-0.129,0.175-0.255,0.346-0.378,0.513c-1.97,2.667-3.158,4.278-3.374,4.57c-2.543,3.44-2.627,3.554-2.627,3.554
			s-0.332,0.449-1.7,2.298c-0.684,0.925-1.627,2.2-2.917,3.944c-1.23,1.666-2.627,3.555-4.211,5.696l-0.313,0.424l-0.158,0.215
			l-0.08,0.107l-0.002,0.097c0.288,0.216,0.579,0.435,0.875,0.656c0.592,0.444,1.2,0.9,1.826,1.37
			c1.171,0.878,2.406,1.805,3.711,2.784c5.23,3.926,31.536,23.67,47.351,35.541c7.341,5.488,11.884,8.885,14.257,10.659
			c9.626,7.145,15.874,10.145,25.38,14.159c-6.517-8.001-11.146-13.159-20.699-20.4c-2.368-1.781-6.9-5.191-14.225-10.701
			c-15.823-11.858-42.145-31.583-47.378-35.505l-0.257-0.192l0.001,0l0.001,0.001v0.001l-0.002,0.001v0l0.202-0.274
			c1.289-1.745,2.231-3.021,2.914-3.946c1.367-1.851,1.698-2.299,1.698-2.299s0.059-0.079,1.822-2.465
			c1.033,0.815,39.352,31.041,55.962,44.144c5.4,4.241,7.998,6.282,9.596,7.536C224.85,332.167,231.023,335.317,240.431,339.56z"/>
		<path d="M145.764,288.226c-2.138,1.444-4.088,2.787-5.938,4.127c-0.924,0.67-1.823,1.339-2.708,2.021
			c-0.441,0.347-0.88,0.69-1.317,1.032l-0.652,0.526l-0.325,0.266c-0.106,0.087-0.2,0.159-0.404,0.356
			c-1.417,1.329-2.931,2.794-4.532,4.386c-0.404,0.404-0.811,0.81-1.218,1.217c0.415,0.321,0.833,0.645,1.253,0.97
			c0.89,0.671,1.79,1.351,2.705,2.042c0.922,0.682,1.858,1.375,2.813,2.081c0.518,0.391,1.044,0.789,1.583,1.197
			c1.087,0.807,2.237,1.634,3.467,2.491c1.67,1.156,4.386,3.037,10.031,6.945l0.354,0.217l0.163,0.142l0.068,0.052l0.178,0.121
			c6.527,4.487,11.882,8.167,14.557,10.006c9.902,6.756,16.265,9.506,25.923,13.14c-6.829-7.736-11.66-12.706-21.494-19.562
			c-2.669-1.847-8.012-5.544-14.525-10.051l-0.177-0.123l-0.072-0.045c-0.101-0.053-0.191-0.102-0.191-0.102
			s-0.213-0.204-0.328-0.253c-5.66-3.888-8.383-5.758-10.057-6.909c-1.237-0.844-2.42-1.626-3.561-2.354
			c-0.572-0.359-1.132-0.71-1.681-1.055c-0.192-0.122-0.149-0.082-0.169-0.084l-0.04,0.006l-0.102,0.004
			c-0.078,0-0.177-0.01-0.301-0.031l-0.206-0.041l-0.046-0.085c-0.05-0.132-0.055-0.344,0.018-0.669
			c0.571-0.907,1.144-1.814,1.725-2.738c0.585-0.951,1.156-1.916,1.726-2.905C143.421,292.584,144.552,290.504,145.764,288.226z"/>
		<path d="M139.097,279.56c-0.201-3.101-0.312-4.838-1.849-6.16c-0.41-0.358-1.248-1.069-2.142-1.968
			c-0.897-0.887-1.837-2.003-2.353-2.93c-0.254-0.457-0.387-0.841-0.427-1.054c-0.034-0.217-0.036-0.264-0.025-0.278l0.104-0.188
			l0.042-0.039c-0.006,0.008,0.082-0.026,0.364-0.017c0.278,0.009,0.738,0.087,1.274,0.26c1.083,0.34,2.405,1.042,3.49,1.715
			c1.096,0.674,1.986,1.33,2.435,1.642c1.656,1.196,3.362,0.868,6.42,0.35c0.373-3.098,0.148-5.071-1.733-6.586
			c-0.521-0.405-1.566-1.201-2.977-2.079c-1.416-0.873-3.166-1.856-5.259-2.523c-1.048-0.328-2.194-0.575-3.417-0.611
			c-1.218-0.04-2.515,0.169-3.604,0.63c-1.068,0.466-1.87,1.067-2.325,1.519c-0.229,0.23-0.408,0.41-0.53,0.533
			c-0.103,0.126-0.157,0.193-0.157,0.193s-0.22,0.265-0.577,0.756c-0.165,0.267-0.359,0.598-0.567,0.988
			c-0.185,0.409-0.393,0.896-0.538,1.445c-0.323,1.113-0.356,2.48-0.119,3.735c0.235,1.264,0.71,2.407,1.257,3.405
			c1.11,1.982,2.485,3.505,3.672,4.691c1.19,1.185,2.214,2.022,2.733,2.431C134.215,280.907,136.175,280.634,139.097,279.56z"/>
		<path fill="#FFFFFF" d="M36.097,100.894c0,0-5.334-22.667,10-24s18,20.667,18,20.667s15.334-10,22.667,5.333s-21.333,22-21.333,22
			s12.667,23.333-4,29.333s-23.334-22-23.334-22s-18.667,5.333-22-10.667S36.097,100.894,36.097,100.894z"/>
		<path fill="#FFFFFF" d="M99.764,43.56c0,0-2.666-16.667,12.667-18s13.333,16,13.333,16s13.306-2.665,14,14
			c0.667,16-14.667,14-14.667,14s3.334,14.667-10.666,16.667S101.764,73.56,101.764,73.56s-17.999,4.667-21.333-12.667
			S99.764,43.56,99.764,43.56z"/>
		<path d="M269.43,226.892c-3.896-3.375-7.255-6.636-10.485-9.766c-3.183-3.108-6.264-6.116-9.431-9.208
			c-3.135-3.059-6.371-6.118-9.834-9.434c-3.506-3.27-7.182-6.853-11.305-10.837c-1.089-1.104-2.45-2.484-4.047-4.102
			c-0.768-0.834-1.593-1.729-2.469-2.68c-0.438-0.475-0.891-0.964-1.354-1.466c-0.443-0.518-0.899-1.05-1.366-1.595
			c-0.929-1.093-1.902-2.239-2.917-3.433c-0.96-1.232-1.957-2.513-2.989-3.838l-0.538-0.689c-0.246-0.303-0.473-0.621-0.695-0.942
			c-0.45-0.639-0.905-1.284-1.363-1.933c-0.899-1.308-1.895-2.588-2.728-3.986c-0.871-1.376-1.754-2.771-2.648-4.184
			c-0.812-1.453-1.636-2.925-2.468-4.413c-3.189-6.012-6.049-12.518-8.132-19.46c-2.015-6.957-3.299-14.298-3.729-21.818
			c-0.04-1.884-0.081-3.774-0.122-5.67c0.017-1.896,0.201-3.799,0.286-5.706c0.071-0.952,0.066-1.91,0.197-2.861l0.396-2.855
			l0.39-2.859l0.192-1.431c0.075-0.476,0.199-0.946,0.297-1.419l1.23-5.673c0.18-0.978,0.451-1.831,0.711-2.694
			c0.273-0.86,0.475-1.75,0.798-2.588c1.178-3.406,2.749-6.62,4.533-9.688c1.903-2.999,4.031-5.841,6.45-8.435
			c0.595-0.655,1.259-1.252,1.88-1.882l0.943-0.935c0.326-0.3,0.672-0.583,1.006-0.875c0.672-0.582,1.342-1.162,2.011-1.74
			c0.708-0.541,1.414-1.079,2.119-1.617c0.688-0.555,1.423-1.057,2.165-1.546c0.736-0.496,1.471-0.991,2.202-1.484
			c0.763-0.457,1.522-0.913,2.279-1.367l1.133-0.681l1.172-0.623c0.779-0.417,1.555-0.831,2.326-1.243
			c0.785-0.396,1.589-0.758,2.376-1.137c1.562-0.779,3.186-1.432,4.776-2.104c12.839-5.256,25.817-7.792,36.859-9.332
			c11.078-1.543,20.376-1.958,26.834-2.189c1.617-0.043,3.059-0.083,4.31-0.117c1.254-0.011,2.318-0.021,3.18-0.028
			c1.723-0.016,2.636-0.024,2.636-0.024s2.178,0.022,6.141,0.062c3.965,0.105,9.718,0.229,16.866,0.698
			c7.147,0.45,15.688,1.179,25.202,2.316c9.513,1.152,19.997,2.713,31.019,4.741c22.027,4.06,46.255,10.043,68.839,17.99
			c11.258,3.987,22.152,8.457,31.692,13.582c1.197,0.634,2.334,1.31,3.493,1.954c1.2,0.719,2.392,1.433,3.574,2.142
			c2.365,1.419,4.695,2.815,6.982,4.187c4.605,2.701,8.905,5.488,13.047,8.077c15.295,9.713,24.371,16.206,29.065,19.622
			c9.561,6.864,17.019,12.127,24.323,16.931c0.92,0.598,1.834,1.192,2.745,1.784c0.895,0.606,1.787,1.21,2.68,1.815
			c0.907,0.601,1.814,1.202,2.727,1.805c0.896,0.622,1.797,1.247,2.705,1.877c0.937,0.619,1.823,1.28,2.732,1.955
			c0.914,0.672,1.862,1.346,2.751,2.086c0.459,0.367,0.921,0.736,1.387,1.108c0.446,0.392,0.897,0.787,1.352,1.185
			c0.469,0.399,0.9,0.824,1.339,1.266c0.451,0.437,0.869,0.897,1.272,1.404c-0.248-1.263-0.649-2.509-1.104-3.68
			c-0.23-0.586-0.452-1.183-0.695-1.759c-0.259-0.566-0.516-1.127-0.771-1.685c-0.501-1.139-1.073-2.194-1.639-3.251
			c-0.563-1.062-1.134-2.114-1.756-3.097c-0.62-0.999-1.235-1.989-1.849-2.976c-0.631-0.974-1.302-1.894-1.965-2.836
			c-0.677-0.931-1.354-1.861-2.033-2.794c-0.721-0.887-1.444-1.777-2.172-2.673c-5.923-7.096-12.964-13.83-22.807-21.049
			c-4.848-3.603-14.226-10.348-29.871-20.3c-4.231-2.65-8.639-5.506-13.321-8.256c-2.33-1.398-4.703-2.821-7.114-4.268
			c-1.206-0.723-2.422-1.451-3.646-2.185c-1.31-0.732-2.622-1.507-3.957-2.215c-10.661-5.721-22.143-10.392-33.942-14.574
			c-23.608-8.294-48.508-14.411-71.224-18.586c-11.358-2.082-22.17-3.684-31.997-4.865c-9.83-1.167-18.675-1.914-26.095-2.375
			c-7.419-0.479-13.419-0.604-17.554-0.708c-4.14-0.038-6.416-0.059-6.416-0.059s-0.956,0.007-2.762,0.021
			c-0.902,0.007-2.017,0.016-3.33,0.027c-1.315,0.034-2.829,0.074-4.528,0.118c-6.797,0.237-16.585,0.66-28.475,2.301
			c-11.859,1.659-25.935,4.327-40.663,10.32c-1.833,0.77-3.69,1.522-5.523,2.429c-0.92,0.441-1.851,0.863-2.771,1.328
			c-0.914,0.486-1.832,0.975-2.753,1.465l-1.384,0.74l-1.362,0.812c-0.908,0.545-1.819,1.093-2.734,1.643
			c-0.9,0.583-1.789,1.198-2.687,1.801c-0.901,0.598-1.797,1.214-2.659,1.898c-0.872,0.667-1.746,1.335-2.623,2.006
			c-0.842,0.725-1.687,1.452-2.533,2.181c-0.421,0.369-0.85,0.727-1.263,1.107l-1.21,1.186c-0.798,0.802-1.63,1.569-2.4,2.41
			c-3.117,3.334-5.923,7.044-8.41,11.001c-2.372,4.027-4.43,8.277-5.966,12.715c-0.414,1.099-0.693,2.234-1.042,3.352
			c-0.337,1.125-0.68,2.255-0.881,3.322l-1.413,6.503c-0.11,0.543-0.247,1.081-0.336,1.629l-0.23,1.654l-0.455,3.306l-0.449,3.303
			c-0.146,1.101-0.155,2.22-0.238,3.327c-0.108,2.221-0.306,4.435-0.326,6.649c0.047,2.217,0.093,4.429,0.14,6.632
			c0.491,8.808,2.004,17.423,4.362,25.523c2.423,8.084,5.72,15.58,9.364,22.43c0.948,1.691,1.886,3.363,2.812,5.014
			c1.01,1.594,2.006,3.169,2.989,4.722c0.952,1.578,2.051,3.009,3.063,4.474c0.515,0.726,1.025,1.447,1.531,2.162
			c0.251,0.359,0.505,0.714,0.777,1.051l0.599,0.767c1.151,1.471,2.264,2.894,3.334,4.262c1.124,1.317,2.203,2.582,3.232,3.788
			c0.519,0.6,1.024,1.185,1.517,1.754c0.511,0.551,1.009,1.087,1.492,1.607c0.968,1.04,1.879,2.018,2.727,2.93
			c1.74,1.775,3.256,3.255,4.456,4.452c4.533,4.301,8.799,7.889,13.017,10.843c4.181,3.004,8.265,5.438,12.357,7.569
			c4.096,2.126,8.239,3.898,12.588,5.5C259.809,224.317,264.395,225.734,269.43,226.892z"/>
		<path d="M471.432,59.894c0.998-5.051,2.526-9.428,4.227-13.407c1.727-3.969,3.662-7.533,5.895-10.774
			c2.237-3.237,4.761-6.152,7.842-8.64c3.079-2.489,6.694-4.6,11.319-6.159c0.79-0.252,1.664-0.621,2.832-0.834
			c1.15-0.244,2.44-0.645,4.112-0.804c0.824-0.104,1.7-0.253,2.668-0.36c0.988-0.05,2.05-0.104,3.193-0.162
			c1.132-0.111,2.398-0.022,3.742,0.005c0.672,0.017,1.368,0.034,2.087,0.051c0.718,0.002,1.48,0.131,2.257,0.193
			c1.813,0.192,3.932,0.337,6.282,0.793c1.173,0.193,2.397,0.394,3.659,0.601c1.265,0.287,2.567,0.582,3.895,0.883
			c5.313,1.171,11.005,2.94,16.204,4.723c10.384,3.526,18.244,7.705,18.244,7.705s0.414,0.212,1.168,0.598
			c0.377,0.193,0.838,0.43,1.374,0.706c0.519,0.303,1.109,0.647,1.764,1.03c2.641,1.493,6.236,3.685,9.979,6.458
			c0.931,0.698,1.887,1.415,2.86,2.144c0.918,0.783,1.852,1.579,2.793,2.383c0.467,0.405,0.954,0.796,1.411,1.215l1.325,1.297
			c0.865,0.879,1.817,1.695,2.613,2.614c3.385,3.54,6.045,7.361,8.037,10.611c0.475,0.869,0.938,1.716,1.39,2.543
			c0.243,0.408,0.44,0.825,0.611,1.245c0.183,0.416,0.364,0.826,0.542,1.231c0.791,1.6,1.241,3.194,1.773,4.675
			c0.289,0.738,0.383,1.487,0.583,2.196c0.16,0.715,0.383,1.403,0.487,2.081c0.1,0.678,0.195,1.336,0.289,1.974
			c0.101,0.637,0.212,1.254,0.21,1.853c0.37,4.792-0.216,8.273-0.808,10.582c-1.123,4.706-2.968,8.696-5.12,12.262
			c-2.166,3.558-4.599,6.761-7.394,9.667l-1.016,1.131l-1.101,1.047l-2.21,2.145c-0.791,0.678-1.582,1.357-2.377,2.04
			c-0.404,0.341-0.792,0.718-1.216,1.042c-0.428,0.324-0.856,0.649-1.287,0.976c-0.873,0.667-1.754,1.34-2.645,2.021
			c-0.94,0.632-1.892,1.271-2.857,1.92c-0.49,0.33-0.984,0.663-1.482,0.998c-0.517,0.303-1.037,0.608-1.562,0.916
			c-1.067,0.626-2.154,1.265-3.263,1.916c1.291-0.062,2.557-0.123,3.8-0.183c0.63-0.036,1.255-0.071,1.874-0.105
			c0.614-0.077,1.223-0.153,1.827-0.228c1.223-0.17,2.427-0.337,3.617-0.502c1.181-0.227,2.341-0.508,3.508-0.775
			c0.585-0.14,1.166-0.279,1.746-0.417c0.58-0.145,1.134-0.354,1.702-0.533c1.13-0.374,2.261-0.761,3.394-1.162
			c1.108-0.45,2.194-0.966,3.3-1.473l1.656-0.785l1.594-0.933c4.322-2.429,8.426-5.782,12.099-10.229
			c3.651-4.44,6.842-10.113,8.571-17.062c0.886-3.396,1.792-8.578,1.273-15.506c-0.019-0.872-0.155-1.751-0.289-2.662
			c-0.135-0.911-0.274-1.849-0.417-2.817c-0.157-0.964-0.437-1.923-0.665-2.929c-0.268-0.991-0.445-2.051-0.817-3.063
			c-0.7-2.042-1.369-4.237-2.396-6.38c-0.241-0.544-0.485-1.095-0.733-1.654c-0.238-0.564-0.504-1.12-0.812-1.656
			c-0.595-1.089-1.203-2.204-1.826-3.347c-2.555-4.247-5.991-9.096-10.138-13.427c-0.995-1.129-2.121-2.115-3.183-3.18l-1.616-1.565
			c-0.551-0.502-1.125-0.969-1.684-1.451c-1.126-0.953-2.242-1.897-3.34-2.825c-1.143-0.854-2.266-1.693-3.359-2.51
			c-4.395-3.231-8.525-5.722-11.534-7.409c-0.749-0.431-1.426-0.819-2.019-1.161c-0.605-0.31-1.126-0.575-1.551-0.792
			c-0.851-0.431-1.318-0.668-1.318-0.668s-0.558-0.285-1.563-0.799c-1.004-0.52-2.453-1.275-4.29-2.062
			c-3.631-1.69-8.723-3.81-14.366-5.778c-5.628-1.95-11.845-3.899-17.848-5.233c-1.499-0.337-2.969-0.668-4.396-0.989
			c-1.461-0.241-2.877-0.474-4.233-0.698c-2.691-0.507-5.243-0.696-7.403-0.904c-0.934-0.074-1.817-0.21-2.709-0.221
			c-0.887-0.023-1.745-0.045-2.575-0.067c-1.661-0.032-3.195-0.117-4.674,0.008c-1.466,0.082-2.827,0.158-4.095,0.229
			c-1.275,0.139-2.463,0.33-3.56,0.479c-2.192,0.244-4.053,0.772-5.645,1.139c-1.596,0.332-2.909,0.845-4.047,1.229
			c-6.72,2.32-12.307,6.137-16.329,10.553c-4.06,4.418-6.584,9.329-8.108,14.137c-1.522,4.831-2.085,9.622-2.024,14.422
			C469.251,50.075,469.938,54.941,471.432,59.894z"/>
		<path d="M513.764,79.56c0.681-2.482,1.539-4.647,2.448-6.633c0.907-1.984,1.911-3.778,3.03-5.401
			c1.122-1.614,2.396-3.034,3.863-4.065c0.727-0.534,1.534-0.902,2.391-1.237c0.869-0.31,1.852-0.47,2.943-0.573
			c0.388,0.011,0.824-0.011,1.366,0.006c0.558,0.075,1.188,0.066,1.981,0.249c0.78,0.112,1.707,0.378,2.788,0.688
			c0.544,0.191,1.125,0.396,1.75,0.615c0.647,0.268,1.339,0.553,2.077,0.858c0.607,0.309,1.672,0.75,2.535,1.199
			c0.436,0.218,0.833,0.417,1.122,0.562c0.292,0.14,0.463,0.244,0.463,0.244s0.579,0.339,1.318,0.772
			c0.725,0.452,1.607,1.001,2.216,1.415c3.485,2.348,5.853,4.708,7.441,6.668c1.57,1.982,2.343,3.564,2.781,4.626
			c0.846,2.174,1.08,4.028,0.834,5.689c-0.19,1.677-0.946,3.232-2.008,4.75c-1.077,1.51-2.488,2.935-4.151,4.307
			c-1.688,1.342-3.616,2.637-5.857,3.928c5.112-0.208,9.746-0.989,14.02-4.15c2.073-1.586,4.098-3.921,5.021-7.109
			c0.521-1.568,0.649-3.296,0.579-5.048c-0.101-1.759-0.541-3.504-1.18-5.228c-0.661-1.68-1.828-4.015-3.904-6.642
			c-2.088-2.603-5.056-5.519-9.179-8.299c-0.716-0.501-1.758-1.137-2.618-1.649c-0.872-0.486-1.556-0.866-1.556-0.866
			s-0.197-0.126-0.53-0.296c-0.33-0.174-0.786-0.414-1.285-0.676c-0.994-0.535-2.206-1.056-2.919-1.384
			c-0.848-0.349-1.641-0.675-2.383-0.98c-0.794-0.278-1.533-0.536-2.224-0.777c-1.429-0.416-2.663-0.754-3.803-0.926
			c-1.104-0.235-2.119-0.263-2.958-0.345c-0.861-0.028-1.6,0.005-2.228,0.015c-1.89,0.167-3.711,0.564-5.348,1.292
			c-1.617,0.746-3.06,1.69-4.193,2.804c-2.294,2.215-3.568,4.73-4.343,7.12c-0.762,2.412-1.066,4.771-1.086,7.154
			C512.964,74.615,513.199,77.036,513.764,79.56z"/>
		<path d="M503.639,82.232c0.008-3.772,0.361-7.17,0.788-10.367c0.443-3.194,1.032-6.19,1.789-9.091
			c0.765-2.893,1.715-5.704,3.053-8.322c0.292-0.687,0.733-1.261,1.083-1.915c0.395-0.616,0.836-1.198,1.27-1.796
			c0.24-0.274,0.482-0.552,0.728-0.833c0.123-0.139,0.232-0.293,0.364-0.425l0.414-0.377c0.275-0.255,0.548-0.519,0.819-0.792
			c0.314-0.224,0.627-0.456,0.938-0.698c0.835-0.669,2.085-1.362,4.067-2.199c2.068-0.7,5.008-1.421,9.409-1.419
			c0.457,0.001,0.953,0.001,1.482,0.002c0.529,0.003,1.112,0.084,1.71,0.124c1.201,0.097,2.506,0.172,3.89,0.425
			c1.377,0.21,2.805,0.391,4.242,0.742c1.431,0.329,2.871,0.561,4.228,0.973c1.357,0.379,2.672,0.708,3.846,1.061
			c1.159,0.385,2.206,0.733,3.087,1.026c0.891,0.273,1.579,0.561,2.058,0.755c0.479,0.191,0.746,0.297,0.746,0.297
			s0.887,0.364,2.34,0.961c1.388,0.697,3.398,1.551,5.447,2.79c0.516,0.304,1.076,0.577,1.592,0.923
			c0.517,0.343,1.043,0.691,1.574,1.043c1.095,0.667,2.073,1.488,3.078,2.25l0.744,0.576c0.229,0.208,0.455,0.414,0.681,0.619
			c0.452,0.406,0.897,0.807,1.331,1.196c0.843,0.799,1.553,1.625,2.254,2.333c3.741,4.386,5.688,8.574,6.545,12.003
			c0.88,3.433,0.984,6.065,0.884,7.847c-0.118,3.617-0.799,6.836-1.747,9.771c-0.956,2.937-2.181,5.598-3.617,8.146
			c-1.435,2.552-3.106,4.994-5.184,7.347c-2.066,2.362-4.5,4.7-7.577,6.91c3.741-0.507,7.214-1.528,10.438-3.004
			c3.234-1.465,6.188-3.448,8.837-5.971c2.649-2.52,5.027-5.585,6.883-9.35c1.843-3.757,3.164-8.244,3.387-13.406
			c0.148-2.534,0.046-6.32-1.204-11.223c-1.218-4.891-3.98-10.829-8.989-16.652c-0.901-0.942-1.856-2.03-2.948-3.067
			c-0.558-0.503-1.13-1.019-1.711-1.543c-0.292-0.261-0.586-0.524-0.883-0.789l-0.936-0.73c-1.261-0.964-2.521-1.984-3.854-2.806
			c-0.657-0.43-1.308-0.855-1.948-1.274c-0.639-0.419-1.303-0.75-1.931-1.114c-2.505-1.484-4.854-2.482-6.513-3.289
			c-1.688-0.706-2.728-1.106-2.728-1.106s-0.309-0.125-0.865-0.351c-0.556-0.228-1.358-0.563-2.368-0.885
			c-1.005-0.339-2.2-0.743-3.523-1.19c-1.33-0.409-2.8-0.789-4.331-1.22c-1.52-0.461-3.176-0.75-4.805-1.124
			c-1.618-0.394-3.315-0.626-4.94-0.872c-1.607-0.287-3.222-0.396-4.699-0.509c-0.741-0.048-1.436-0.133-2.115-0.139
			c-0.682,0-1.321,0.001-1.91,0.002c-5.67-0.004-10.094,0.989-13.373,2.162c-3.266,1.328-5.425,2.617-6.919,3.794
			c-0.55,0.437-1.093,0.868-1.628,1.293c-0.482,0.486-0.957,0.965-1.427,1.438l-0.687,0.716c-0.217,0.245-0.404,0.508-0.604,0.761
			c-0.387,0.513-0.769,1.02-1.146,1.521c-0.668,1.041-1.293,2.083-1.807,3.123c-0.458,1.056-0.98,2.078-1.278,3.114
			c-1.392,4.121-1.724,7.962-1.599,11.544c0.145,3.589,0.763,6.957,1.732,10.282C500.589,75.573,501.87,78.881,503.639,82.232z"/>
		<path d="M355.764,176.893c-5.074-0.862-9.125-2.042-13.356-3.097c-4.219-1.102-8.614-2.114-14.138-3.641
			c-0.926-0.292-2.169-0.59-3.921-1.185c-0.873-0.305-1.896-0.624-3.065-1.055c-1.171-0.47-2.461-0.944-4.035-1.601
			c-3.243-1.361-7.589-3.227-12.412-5.158c-2.414-0.962-4.956-1.934-7.595-2.8c-2.614-0.886-5.386-1.62-8.222-2.054
			c-2.826-0.425-5.842-0.475-8.649,0.254c-0.69,0.213-1.361,0.448-2.01,0.677c-0.645,0.237-1.224,0.59-1.803,0.878
			c-0.593,0.281-1.08,0.65-1.56,0.996c-0.239,0.174-0.474,0.345-0.702,0.512l-0.338,0.25c-0.129,0.109-0.29,0.272-0.428,0.407
			c-0.285,0.284-0.555,0.572-0.805,0.859c-0.233,0.313-0.437,0.654-0.629,0.979c-0.418,0.645-0.589,1.322-0.786,1.948
			c-0.29,1.228-0.291,2.247-0.215,2.969c0.036,0.789,0.189,1.249,0.255,1.616c0.08,0.351,0.121,0.536,0.121,0.536
			s0.04,0.146,0.127,0.408c0.089,0.263,0.221,0.651,0.39,1.152c0.196,0.453,0.434,1.021,0.734,1.643
			c0.317,0.584,0.662,1.295,1.1,1.972c1.698,2.82,4.392,6.136,7.672,9.461c6.524,6.695,15.428,13.426,22.264,17.644
			c2.021,1.248,3.892,2.323,5.613,3.25c1.743,0.939,3.291,1.637,4.656,2.271c2.733,1.271,4.736,2.226,6.16,2.754
			c2.849,1.149,5.411,2.123,7.87,2.773c1.222,0.347,2.402,0.659,3.556,0.939c1.166,0.242,2.307,0.453,3.434,0.64
			c4.506,0.743,8.887,0.978,14.05,0.802c-4.632-2.26-8.354-4.312-12.328-6.261c-0.992-0.489-2.002-0.962-3.044-1.427
			c-1.029-0.504-2.091-1-3.202-1.492c-2.241-0.941-4.605-2.044-7.305-3.163c-1.354-0.514-3.242-1.433-5.827-2.643
			c-1.294-0.604-2.773-1.276-4.317-2.112c-1.564-0.846-3.288-1.838-5.166-3c-6.347-3.918-14.871-10.366-20.826-16.471
			c-2.996-3.018-5.328-5.936-6.583-8.026c-0.346-0.523-0.554-0.984-0.785-1.391c-0.178-0.392-0.33-0.728-0.455-1.003
			c-0.084-0.252-0.149-0.447-0.193-0.58c-0.049-0.133-0.072-0.2-0.067-0.196c0,0-0.013-0.071-0.037-0.205
			c-0.015-0.122-0.107-0.364-0.085-0.521c-0.036-0.211,0.002-0.356,0.006-0.425l0.016-0.018l-0.017-0.011l0.049-0.022l0.021-0.042
			l0.189-0.13c0.127-0.09,0.256-0.181,0.388-0.274c0.261-0.189,0.521-0.411,0.832-0.533c0.307-0.135,0.59-0.344,0.93-0.457
			c0.343-0.104,0.687-0.229,1.044-0.354c1.479-0.383,3.392-0.406,5.551-0.074c2.158,0.336,4.516,0.937,6.907,1.756
			c2.388,0.786,4.805,1.708,7.14,2.641c4.671,1.872,9.022,3.735,12.283,5.091c1.595,0.665,3.107,1.226,4.365,1.723
			c1.284,0.47,2.402,0.818,3.36,1.146c1.922,0.641,3.278,0.962,4.294,1.268c6.049,1.605,10.984,1.983,15.608,1.806
			C346.461,179.271,350.848,178.521,355.764,176.893z"/>
		<path d="M292.431,189.56c-3.696,3.617-6.48,7.026-9.002,10.847c-2.492,3.842-4.737,8.144-6.78,13.939
			c-0.376,0.971-0.785,2.276-1.399,4.166c-0.648,1.879-1.34,4.395-2.295,7.785c-1.204,4.583-2.896,12.399-3.722,19.17
			c-0.168,1.696-0.329,3.318-0.476,4.797c-0.071,0.74-0.139,1.444-0.202,2.104c-0.053,0.663-0.05,1.298-0.074,1.87
			c-0.067,2.295-0.109,3.725-0.109,3.725s-0.01,0.299-0.027,0.843c-0.008,0.272-0.019,0.605-0.031,0.993
			c0.016,0.386,0.033,0.825,0.053,1.312c0.042,0.974,0.092,2.138,0.146,3.438c0.051,1.301,0.101,2.74,0.301,4.238
			c0.165,1.504,0.339,3.089,0.517,4.703c0.196,1.61,0.52,3.222,0.774,4.823c0.471,3.214,1.269,6.24,1.804,8.793
			c1.138,4.56,2.169,8.216,3.099,11.067c0.857,2.877,1.658,4.931,2.143,6.364c2.084,5.752,4.223,10.063,6.663,13.918
			c2.434,3.853,5.125,7.3,8.619,11.104c-1.301-4.987-2.202-9.151-3.388-13.427c-1.189-4.27-2.6-8.665-4.542-14.202
			c-0.449-1.378-1.211-3.355-2.02-6.106c-0.883-2.731-1.857-6.22-2.938-10.552c-0.496-2.416-1.262-5.295-1.701-8.309
			c-0.239-1.503-0.552-3.025-0.737-4.529c-0.169-1.505-0.334-2.983-0.491-4.385c-0.195-1.402-0.24-2.729-0.29-3.929
			c-0.056-1.2-0.106-2.275-0.148-3.174c-0.021-0.45-0.039-0.856-0.056-1.211c0.011-0.354,0.021-0.658,0.028-0.907
			c0.015-0.496,0.023-0.769,0.023-0.769s0.043-1.304,0.112-3.398c0.023-0.525,0.019-1.093,0.069-1.713
			c0.062-0.622,0.129-1.286,0.199-1.983c0.142-1.395,0.298-2.925,0.46-4.524c0.798-6.391,2.411-13.793,3.527-18.149
			c0.906-3.219,1.553-5.61,2.165-7.398c0.577-1.799,0.956-3.042,1.306-3.969c1.886-5.53,3.377-9.863,4.606-14.101
			C289.883,198.596,290.868,194.468,292.431,189.56z"/>
		<path d="M304.431,346.893c1.296,2.236,2.696,4.199,4.145,6.012c0.726,0.908,1.456,1.797,2.237,2.624
			c0.778,0.832,1.547,1.692,2.399,2.463c3.324,3.219,7.295,6.102,12.765,9.022c1.863,0.963,4.869,2.624,11.475,5.234
			c4.128,1.806,11.41,3.941,17.678,5.433c3.166,0.586,6.047,1.194,8.157,1.504c2.117,0.262,3.437,0.425,3.437,0.425
			s1.104,0.14,2.911,0.369c0.9,0.143,1.993,0.195,3.213,0.266c1.219,0.071,2.565,0.149,3.989,0.233
			c0.713,0.029,1.442,0.108,2.189,0.099c0.747-0.009,1.507-0.018,2.273-0.026c1.533-0.021,3.094-0.041,4.631-0.062
			c1.535-0.102,3.045-0.243,4.481-0.358c1.436-0.126,2.802-0.204,4.028-0.429c1.179-0.18,2.302-0.351,3.37-0.514
			c1.068-0.158,2.083-0.308,3.029-0.541c1.898-0.423,3.588-0.8,5.079-1.133c1.471-0.423,2.747-0.79,3.841-1.104
			c0.547-0.159,1.048-0.304,1.505-0.437c0.449-0.158,0.855-0.301,1.221-0.429c5.937-1.977,10.263-4.444,14.009-7.186
			c0.938-0.687,1.841-1.389,2.696-2.165c0.866-0.755,1.719-1.52,2.529-2.369c1.647-1.642,3.23-3.484,4.712-5.598
			c-2.298,1.17-4.444,2.051-6.538,2.845c-1.027,0.42-2.064,0.779-3.081,1.154c-1.005,0.395-2.026,0.743-3.053,1.104
			c-4.097,1.438-8.282,3.06-13.744,4.814c-0.335,0.115-0.708,0.243-1.121,0.385c-0.421,0.118-0.882,0.248-1.386,0.39
			c-1.005,0.286-2.177,0.619-3.527,1.003c-1.373,0.302-2.927,0.645-4.673,1.028c-0.868,0.217-1.805,0.35-2.79,0.494
			c-0.983,0.148-2.019,0.306-3.104,0.47c-1.128,0.209-2.392,0.274-3.717,0.39c-1.327,0.108-2.722,0.222-4.139,0.337
			c-1.424,0.021-2.869,0.041-4.289,0.061c-0.71,0.012-1.414,0.022-2.106,0.034c-0.691,0.012-1.372-0.063-2.034-0.09
			c-1.324-0.073-2.576-0.142-3.71-0.205c-1.134-0.06-2.149-0.101-2.997-0.234c-1.696-0.209-2.731-0.337-2.731-0.337
			s-1.236-0.157-3.221-0.409c-1.977-0.297-4.669-0.883-7.633-1.433c-5.856-1.42-12.661-3.411-16.521-5.082
			c-6.172-2.428-8.981-3.965-10.729-4.847c-5.127-2.658-9.144-4.74-13.041-6.761c-0.995-0.47-1.93-0.997-2.913-1.478
			c-0.987-0.476-1.95-0.987-2.948-1.5C308.688,349.334,306.616,348.256,304.431,346.893z"/>
		<path d="M362.431,273.561c1.662,1.986,3.528,3.574,5.431,4.97c0.959,0.69,1.931,1.348,2.95,1.911
			c0.506,0.289,1.013,0.591,1.534,0.86l1.6,0.747c4.326,1.927,9.315,3.189,15.705,3.288c0.541,0.001,1.167,0.003,1.915,0.005
			c0.374-0.003,0.78,0.008,1.22-0.008c0.438-0.033,0.91-0.069,1.424-0.107c1.025-0.08,2.211-0.173,3.595-0.281
			c1.37-0.189,2.928-0.452,4.722-0.733c0.303-0.045,0.712-0.1,1.148-0.185c0.43-0.106,0.893-0.22,1.318-0.325
			c0.849-0.216,1.551-0.394,1.551-0.394s0.59-0.134,1.344-0.306c0.752-0.182,1.68-0.365,2.305-0.604
			c2.275-0.755,4.37-1.379,6.188-2.06c1.797-0.718,3.395-1.356,4.806-1.92c1.404-0.591,2.599-1.203,3.634-1.678
			c1.029-0.501,1.902-0.864,2.579-1.275c5.572-2.942,9.647-6.257,12.519-10.33c1.385-2.074,2.543-4.252,3.11-6.722
			c0.143-0.611,0.212-1.255,0.306-1.872c0.071-0.628,0.048-1.285,0.056-1.914c-0.104-1.284-0.339-2.59-0.956-3.736
			c-0.066,2.585-1.213,4.558-2.427,6.184c-1.243,1.635-2.766,2.914-4.301,4.183c-3.177,2.469-6.885,4.697-11.924,7.295
			c-0.593,0.358-1.41,0.685-2.346,1.135c-0.952,0.428-2.026,0.98-3.328,1.522c-1.314,0.522-2.802,1.113-4.475,1.776
			c-1.679,0.625-3.566,1.174-5.637,1.869c-0.573,0.211-1.401,0.38-2.074,0.559c-0.675,0.172-1.202,0.308-1.202,0.308
			s-0.635,0.144-1.403,0.319c-0.384,0.09-0.801,0.188-1.188,0.28c-0.391,0.067-0.752,0.128-1.021,0.174
			c-1.598,0.252-2.988,0.472-4.205,0.664c-1.222,0.098-2.27,0.181-3.176,0.254c-0.453,0.038-0.871,0.072-1.257,0.104
			c-0.387,0.016-0.742,0.005-1.07,0.009c-0.656,0.003-1.205,0.005-1.68,0.007c-5.596-0.034-9.945-0.456-14.159-0.979l-1.582-0.197
			c-0.52-0.086-1.041-0.172-1.566-0.259c-1.061-0.148-2.106-0.36-3.188-0.581C367.073,275.057,364.816,274.529,362.431,273.561z"/>
		<path d="M371.097,376.227c1.532,3.832,2.983,6.15,6.597,7.997c0.982,0.497,2.974,1.442,5.451,2.5
			c2.494,1.022,5.456,2.195,8.398,3.087c1.454,0.483,2.927,0.841,4.264,1.224c1.369,0.306,2.615,0.615,3.694,0.823
			c1.087,0.187,1.98,0.34,2.603,0.447c0.619,0.116,0.981,0.139,0.981,0.139s0.356,0.041,0.99,0.114
			c0.624,0.056,1.564,0.213,2.63,0.261c1.068,0.052,2.326,0.114,3.695,0.182c0.686,0.033,1.398,0.067,2.129,0.102
			c0.73,0.016,1.479-0.002,2.235-0.003c6.064,0.111,12.62-0.605,14.797-0.855c4.004-0.572,6.149-2.241,8.869-5.351
			c-3.708-1.775-5.98-2.825-9.767-2.398c-2.05,0.169-8.228,0.848-13.893,0.755c-0.707,0.003-1.408,0.023-2.09,0.012
			c-0.68-0.031-1.343-0.062-1.979-0.09c-1.274-0.057-2.444-0.108-3.438-0.152c-0.997-0.038-1.735-0.172-2.288-0.215
			c-0.542-0.058-0.847-0.091-0.847-0.091s-0.304-0.017-0.847-0.125c-0.542-0.096-1.32-0.234-2.268-0.402
			c-0.946-0.187-2.059-0.472-3.271-0.743c-1.204-0.355-2.519-0.672-3.843-1.119c-2.665-0.812-5.402-1.902-7.713-2.842
			c-2.3-0.977-4.163-1.842-5.093-2.277C377.665,375.579,375.186,375.782,371.097,376.227z"/>
		<path d="M331.764,365.56c-0.396,3.999-0.294,6.554,1.806,9.746c0.591,0.85,1.775,2.55,3.219,4.623
			c1.427,2.08,3.318,4.426,5.032,6.718c0.863,1.139,1.699,2.253,2.615,3.284c0.439,0.513,0.861,1.006,1.259,1.47
			c0.413,0.439,0.802,0.853,1.158,1.231c0.714,0.758,1.296,1.389,1.726,1.791c0.422,0.413,0.659,0.646,0.659,0.646
			s0.236,0.234,0.656,0.649c0.415,0.423,1.023,1.01,1.781,1.697c1.497,1.401,3.562,3.244,5.786,5.073
			c4.425,3.699,9.486,7.36,11.208,8.525c3.17,2.16,5.764,2.279,9.762,1.879c-1.306-3.793-2.261-6.063-5.253-8.244
			c-1.621-1.174-6.502-4.707-10.715-8.21c-2.122-1.733-4.07-3.458-5.471-4.756c-0.713-0.64-1.28-1.181-1.661-1.565
			c-0.389-0.38-0.607-0.594-0.607-0.594s-0.218-0.216-0.604-0.599c-0.398-0.375-0.915-0.946-1.557-1.633
			c-0.32-0.344-0.669-0.718-1.04-1.115c-0.348-0.41-0.715-0.845-1.099-1.298c-0.772-0.868-1.583-1.954-2.413-3.059
			c-1.644-2.215-3.445-4.447-4.842-6.473c-1.423-2.001-2.59-3.642-3.173-4.462C337.857,367.848,335.558,366.864,331.764,365.56z"/>
		<path d="M316.432,170.227c-0.137-5.145,0.339-9.321,0.837-13.559c0.555-4.223,1.173-8.56,2.778-13.678
			c0.292-0.858,0.678-1.985,1.382-3.548c0.742-1.537,1.768-3.542,3.65-5.883c1.01-1.324,2.416-2.689,4.052-4.083
			c1.662-1.373,3.668-2.64,5.872-3.804c4.613-2.287,9.871-4.058,14.876-4.935c4.999-0.953,9.7-0.85,13.073-0.665
			c1.69,0.132,3.064,0.229,4.006,0.402c0.944,0.136,1.469,0.212,1.469,0.212c0,0,0.366,0.04,1.129,0.178
			c0.757,0.167,1.922,0.376,3.506,0.744c0.787,0.206,1.682,0.44,2.688,0.704c0.986,0.325,2.108,0.622,3.3,1.063
			c0.594,0.222,1.233,0.425,1.871,0.688c0.32,0.129,0.647,0.261,0.982,0.396c0.25,0.101,0.114,0.046,0.148,0.06h-0.01
			c-0.564,2.805-1.598,7.035-3.019,11.319c-1.398,4.293-3.204,8.616-4.819,11.801c-3.927,7.794-7.486,11.747-9.311,13.736
			c-0.908,1.042-1.877,1.891-2.737,2.783c-0.931,0.794-1.749,1.657-2.642,2.336c-0.432,0.365-0.855,0.724-1.272,1.077
			c-0.435,0.327-0.863,0.648-1.287,0.966c-0.826,0.684-1.701,1.226-2.55,1.828c-3.434,2.297-7.043,4.301-11.974,5.86
			c5.065,0.939,9.742,0.752,14.381-0.667c1.148-0.379,2.338-0.757,3.468-1.327c0.575-0.276,1.156-0.556,1.747-0.84
			c0.562-0.337,1.131-0.679,1.712-1.027c1.188-0.678,2.266-1.574,3.451-2.464c1.096-0.973,2.295-1.967,3.375-3.17
			c2.18-2.313,6.325-6.962,10.662-15.575c1.792-3.521,3.754-8.231,5.259-12.864c1.528-4.627,2.625-9.159,3.233-12.227
			c0.371-1.829,0.643-3.635,0.89-5.327l0.095-0.638l-0.072-0.109l-0.143-0.073l-0.282-0.146c-0.372-0.192-0.741-0.382-1.106-0.571
			c-0.719-0.386-1.475-0.721-2.196-1.065c-0.362-0.17-0.721-0.339-1.076-0.506c-0.181-0.088-0.345-0.158-0.515-0.229l-0.414-0.168
			c-0.385-0.155-0.762-0.306-1.131-0.455c-0.737-0.301-1.453-0.531-2.131-0.781c-1.354-0.498-2.611-0.833-3.727-1.194
			c-1.133-0.295-2.139-0.557-3.024-0.788c-1.782-0.412-3.094-0.646-3.946-0.829c-0.859-0.154-1.273-0.2-1.273-0.2
			s-0.591-0.086-1.656-0.243c-1.061-0.191-2.615-0.314-4.531-0.465c-3.824-0.224-9.178-0.341-14.933,0.734
			c-5.755,0.993-11.827,3.03-17.109,5.659c-2.679,1.405-5.182,2.99-7.289,4.732c-2.083,1.763-3.874,3.537-5.179,5.238
			c-2.421,3.021-3.729,5.59-4.654,7.538c-0.884,1.975-1.353,3.379-1.701,4.447c-0.982,3.166-1.409,6.077-1.534,8.751
			c-0.122,2.678,0.071,5.129,0.468,7.458C312.37,161.479,313.884,165.72,316.432,170.227z"/>
		<path d="M416.431,119.561c4.88-1.629,9.025-2.083,13.25-2.568c4.234-0.42,8.597-0.769,14.188-0.688
			c1.514,0.084,3.79,0.091,6.594,0.526c0.7,0.101,1.441,0.146,2.2,0.301c0.759,0.159,1.549,0.325,2.364,0.496
			c0.771,0.161,1.556,0.325,2.352,0.491c0.84,0.25,1.692,0.503,2.557,0.76c0.865,0.255,1.742,0.513,2.63,0.775
			c0.868,0.335,1.746,0.675,2.635,1.019c7.079,2.759,14.586,6.729,20.449,12.484c2.858,2.914,5.355,6.215,6.987,9.903
			c1.648,3.67,2.419,7.696,2.355,11.594l-0.087,1.439c-0.067,0.447-0.101,0.95-0.185,1.351l-0.056,0.311l-0.051,0.226l-0.198,0.718
			l-0.457,1.503c-0.64,2.013-1.369,4.008-2.145,5.954c-1.566,3.89-3.358,7.58-5.278,10.997c-1.913,3.423-3.983,6.559-6.121,9.351
			c-1.03,1.431-2.164,2.698-3.205,3.966c-1.109,1.199-2.151,2.388-3.233,3.431c-4.285,4.231-8.34,7.051-11.264,8.79
			c-1.471,0.856-2.669,1.435-3.459,1.875c-0.395,0.223-0.71,0.365-0.926,0.451c-0.214,0.092-0.324,0.14-0.324,0.14
			s-1.046,0.454-2.95,1.278c-0.981,0.335-2.185,0.746-3.584,1.224c-1.407,0.456-3.07,0.786-4.878,1.266
			c-0.927,0.148-1.898,0.303-2.912,0.465c-0.507,0.082-1.024,0.167-1.551,0.252c-0.532,0.059-1.08,0.085-1.634,0.131
			c-1.109,0.082-2.259,0.167-3.444,0.254c-1.194-0.008-2.425-0.016-3.688-0.024c-5.051-0.195-10.681-0.788-16.501-2.346
			c-0.73-0.175-1.465-0.351-2.205-0.528c-0.729-0.226-1.465-0.454-2.204-0.682c-1.472-0.465-2.984-0.898-4.468-1.4
			c-2.947-1.022-5.844-2.257-8.602-3.708c-5.483-2.901-10.425-6.879-13.008-11.96c-1.353-2.501-2.062-5.264-2.343-8.07
			c-0.221-2.822-0.022-5.698,0.572-8.497c1.155-5.61,3.481-10.84,5.959-15.388c2.106-3.838,4.087-6.832,5.704-9.166
			c1.624-2.332,2.886-4.011,3.762-5.155c3.548-4.63,6.32-8.305,8.812-11.965C411.355,127.487,413.572,123.848,416.431,119.561
			c-4.546,2.454-8.218,4.827-11.781,7.678c-3.549,2.872-7.002,6.248-10.795,11.096c-0.937,1.198-2.28,2.965-4.017,5.444
			c-1.73,2.483-3.858,5.682-6.167,9.879c-2.708,4.987-5.359,10.809-6.767,17.587c-0.712,3.375-1.001,7.021-0.698,10.76
			c0.357,3.728,1.356,7.572,3.209,11.013c0.873,1.75,2.009,3.339,3.183,4.877c1.233,1.48,2.541,2.897,3.969,4.137
			c2.832,2.519,5.954,4.551,9.14,6.237c3.192,1.679,6.45,3.055,9.691,4.178c1.618,0.548,3.229,1.011,4.819,1.51
			c0.795,0.245,1.586,0.488,2.372,0.729c0.804,0.193,1.603,0.385,2.396,0.576c6.302,1.675,12.539,2.356,18.188,2.56
			c1.419,0.006,2.8,0.013,4.141,0.019c1.343-0.078,2.646-0.193,3.902-0.286c0.628-0.053,1.247-0.088,1.852-0.155
			c0.602-0.096,1.192-0.191,1.771-0.283c1.156-0.188,2.266-0.369,3.323-0.541c2.079-0.538,3.981-0.932,5.6-1.455
			c1.61-0.549,3.001-1.007,4.122-1.415c2.191-0.95,3.396-1.472,3.396-1.472s0.126-0.055,0.371-0.162
			c0.249-0.101,0.611-0.264,1.065-0.517c0.91-0.499,2.288-1.168,3.974-2.15c3.354-1.987,7.984-5.209,12.794-9.956
			c1.214-1.173,2.379-2.49,3.614-3.831c1.159-1.402,2.415-2.817,3.554-4.388c2.36-3.082,4.627-6.514,6.71-10.234
			c2.092-3.716,4.03-7.704,5.73-11.919c0.844-2.112,1.636-4.273,2.35-6.514c0.181-0.557,0.35-1.131,0.519-1.707l0.249-0.904
			l0.139-0.596l0.096-0.519c0.137-0.703,0.184-1.328,0.274-1.998l0.121-1.947c0.103-5.155-0.925-10.328-3.02-15.015
			c-2.079-4.702-5.18-8.792-8.616-12.284c-0.896-0.834-1.787-1.666-2.675-2.493c-0.431-0.434-0.922-0.774-1.396-1.137l-1.427-1.075
			c-0.962-0.691-1.872-1.47-2.864-2.073c-0.992-0.603-1.979-1.201-2.959-1.795c-1.931-1.264-3.97-2.168-5.942-3.135
			c-0.993-0.468-1.956-0.979-2.948-1.395c-1.005-0.39-1.999-0.775-2.981-1.157c-0.984-0.378-1.958-0.751-2.919-1.121
			c-0.992-0.294-1.972-0.584-2.938-0.871c-0.967-0.284-1.92-0.564-2.859-0.841c-0.896-0.188-1.779-0.374-2.648-0.557
			c-0.92-0.189-1.811-0.372-2.666-0.548c-0.857-0.17-1.702-0.229-2.496-0.339c-3.178-0.475-5.784-0.484-7.511-0.554
			c-6.4-0.032-11.404,1.144-15.767,2.958C423.873,113.322,420.003,115.798,416.431,119.561z"/>
		<path d="M377.764,150.227c0.385,2.518,0.666,3.886,1.299,3.983c0.686,0.105,4.139,0.244,4.139,0.244s3.445,0.268,4.139,0.244
			c0.639-0.022,1.079-1.348,1.757-3.803c-0.385-2.519-0.666-3.886-1.299-3.984c-0.685-0.106-4.139-0.244-4.139-0.244
			s-3.445-0.269-4.139-0.244C378.881,146.446,378.441,147.771,377.764,150.227z"/>
		<path d="M485.097,185.56c-0.976,3.315-1.341,5.395,0.029,7.913c1.483,2.727,9.251,16.189,9.251,16.189s7.654,13.527,9.251,16.189
			c1.474,2.458,3.45,3.2,6.802,4.042c0.976-3.314,1.34-5.395-0.029-7.913c-1.482-2.727-9.251-16.189-9.251-16.189
			s-7.654-13.527-9.251-16.189C490.425,187.145,488.447,186.403,485.097,185.56z"/>
		<path d="M494.43,155.561c2.438,4.54,4.284,8.827,5.957,12.937c1.641,4.124,3.112,8.069,4.4,12.083
			c1.242,4.02,2.474,8.061,3.327,12.361c0.25,1.071,0.346,2.162,0.557,3.263c0.076,0.55,0.232,1.108,0.258,1.665
			c0.048,0.556,0.096,1.118,0.145,1.687c0.059,0.566,0.118,1.138,0.178,1.718c0.044,0.582,0.005,1.187,0.019,1.79
			c-0.014,1.187,0.086,2.521-0.013,3.58c-0.11,1.638-0.342,3.979-1.028,7.349c-0.705,3.365-1.854,7.811-4.297,13.479
			c-0.466,1.167-1.28,2.648-2.048,4.3c-0.442,0.797-0.902,1.623-1.36,2.447c-0.229,0.413-0.457,0.825-0.683,1.233
			c-0.234,0.402-0.497,0.782-0.736,1.165c-0.978,1.517-1.826,2.931-2.574,3.872c-0.707,0.968-1.147,1.571-1.147,1.571
			s-0.359,0.511-1.003,1.309c-0.669,0.777-1.6,1.858-2.644,3.07c-2.053,2.38-4.809,4.835-6.893,6.446
			c-3.113,2.381-6.187,4.126-9.091,5.425c-0.365,0.157-0.727,0.312-1.082,0.464c-0.724,0.275-1.437,0.546-2.14,0.814
			c-1.59,0.555-3.326,1.1-5.042,1.515c-1.694,0.453-3.515,0.783-5.163,1.196c-0.42,0.098-0.835,0.196-1.247,0.292
			c-0.35,0.125-0.696,0.249-1.04,0.372s-0.686,0.245-1.023,0.366c-0.285,0.135-0.513,0.284-0.77,0.424
			c-2.099,1.119-2.476,2.371-3.035,3.208c-0.504,0.9-0.986,1.422-1.107,2.351l-0.076,0.452l-0.01,0.064l-0.001,0.008
			c-0.1-0.011,0.135,0.023,0.11,0.023l-0.003,0.018l-0.005,0.035l-0.021,0.138l-0.04,0.261c-0.042,0.335-0.115,0.634-0.114,0.927
			c0.006,0.585,0.09,1.125,0.21,1.642c0.236,1.031,0.656,1.959,1.137,2.784c0.983,1.669,2.406,3.249,4.053,4.694
			c1.643,1.449,3.533,2.766,5.597,3.905c2.053,1.146,4.319,2.094,6.672,2.791c1.174,0.351,2.372,0.643,3.578,0.851
			c0.602,0.109,1.198,0.215,1.805,0.276c0.59,0.07,1.238,0.156,1.706,0.175c6.286,0.333,11.854-1.24,16.443-3.554
			c4.613-2.344,8.371-5.437,11.646-8.945c3.271-3.524,6.062-7.497,8.641-11.962c-4.373,2.741-8.499,4.904-12.487,6.589
			c-3.986,1.676-7.842,2.879-11.618,3.527c-3.776,0.635-7.458,0.713-11.06-0.033c-0.149-0.038-0.114-0.053-0.142-0.079l-0.04-0.067
			l-0.045-0.122l0.019-0.183c0.048-0.095,0.146-0.123,0.175-0.124l0.049,0.021l-0.016,0.011c0.019-0.007-0.057,0.024,0.038-0.013
			c0.122-0.05,0.246-0.1,0.372-0.151c0.479-0.205,0.964-0.412,1.456-0.623c3.914-1.74,8.104-4.111,12.273-7.301
			c2.801-2.114,6.465-5.46,9.017-8.464c1.25-1.485,2.363-2.808,3.165-3.761c0.399-0.477,0.675-0.899,0.887-1.172
			c0.205-0.279,0.317-0.433,0.317-0.433s0.545-0.727,1.421-1.895c0.913-1.141,1.986-2.846,3.19-4.693
			c0.297-0.465,0.615-0.93,0.906-1.419c0.281-0.496,0.566-0.998,0.851-1.5c0.563-1.008,1.128-2.019,1.673-2.993
			c0.96-2.016,1.928-3.845,2.484-5.282c2.988-6.955,4.389-12.424,5.255-16.636c0.842-4.231,1.131-7.216,1.266-9.628
			c0.121-1.934-0.031-3.516-0.09-5.17c-0.052-0.816-0.06-1.62-0.161-2.415c-0.127-0.793-0.252-1.577-0.376-2.352
			c-0.134-0.771-0.267-1.533-0.397-2.287c-0.119-0.758-0.366-1.453-0.547-2.167c-0.412-1.405-0.749-2.814-1.244-4.108
			c-0.496-1.294-0.996-2.553-1.5-3.781c-0.523-1.216-1.14-2.35-1.708-3.486c-0.295-0.562-0.573-1.129-0.883-1.669
			c-0.323-0.53-0.645-1.058-0.964-1.583c-0.657-1.035-1.26-2.087-1.97-3.05c-2.721-3.935-5.791-7.376-9.16-10.643
			C502.444,161.519,498.725,158.438,494.43,155.561z"/>
		<path d="M514.431,258.894c1.794-1.848,3.553-3.386,5.249-4.829c1.699-1.438,3.355-2.761,5.049-4.057
			c1.695-1.292,3.428-2.562,5.318-3.809c1.891-1.239,3.945-2.464,6.307-3.479c0.402-0.159,0.857-0.394,1.424-0.559
			c0.562-0.192,1.213-0.426,1.999-0.592c1.561-0.367,3.643-0.731,6.424-0.372c2.568,0.325,6.032,1.429,9.403,3.81
			c0.421,0.294,0.846,0.592,1.272,0.891c0.413,0.301,0.753,0.604,1.128,0.91c0.681,0.646,1.359,1.3,1.871,2.038
			c0.535,0.725,0.991,1.482,1.316,2.288c0.353,0.793,0.584,1.628,0.729,2.479c0.626,3.415-0.347,7.031-1.253,9.525
			c-0.454,1.263-0.933,2.276-1.26,2.975c-0.322,0.701-0.536,1.082-0.536,1.082s-0.631,1.299-1.909,3.349
			c-1.273,2.05-3.229,4.835-5.716,7.78c-2.477,2.95-5.478,6.046-8.565,8.864c-3.083,2.827-6.265,5.355-8.988,7.331
			c-7.157,5.167-12.071,7.329-14.536,8.301c-2.51,0.977-4.765,1.631-6.534,1.819c-0.216,0.016-0.429,0.032-0.64,0.048
			c-0.285-0.003-0.567-0.007-0.847-0.01c-0.563,0.003-1.117,0.006-1.664,0.009c-1.093,0.01-2.115-0.059-3.163-0.063
			c-2.015-0.136-3.986-0.297-5.738-0.94c-0.479-0.14-0.813-0.379-1.251-0.604l-0.53-0.43c-0.193-0.149-0.296-0.343-0.468-0.53
			c-0.583-0.769-0.841-1.964-0.559-3.223c-0.836,0.968-1.328,2.366-1.106,3.796c0.077,0.338,0.118,0.722,0.258,1.044
			c0.137,0.324,0.278,0.662,0.441,0.984c0.38,0.564,0.779,1.194,1.269,1.632c1.923,1.927,4.2,2.994,6.496,3.869
			c1.145,0.361,2.337,0.751,3.549,1.008c0.608,0.119,1.225,0.239,1.85,0.361c0.315,0.057,0.633,0.114,0.953,0.171
			c0.38,0.044,0.797,0.077,1.201,0.108c3.205,0.122,6.198-0.625,9.279-1.768c3.035-1.156,8.618-3.646,16.345-9.22
			c2.951-2.133,6.367-4.85,9.683-7.894c3.321-3.036,6.557-6.382,9.265-9.621c2.717-3.229,4.903-6.35,6.354-8.701
			c1.456-2.349,2.207-3.899,2.207-3.899s0.249-0.443,0.642-1.286c0.396-0.839,0.973-2.053,1.552-3.64
			c0.58-1.584,1.194-3.527,1.586-5.817c0.394-2.279,0.553-4.939,0.061-7.754c-0.454-2.802-1.67-5.714-3.46-8.095
			c-0.87-1.222-1.909-2.257-2.958-3.234c-0.537-0.452-1.093-0.928-1.627-1.32c-0.533-0.375-1.064-0.749-1.59-1.119
			c-4.203-2.98-9.079-4.652-12.82-5.086c-4.05-0.511-7.094,0.028-9.274,0.551c-1.11,0.25-2.001,0.565-2.767,0.835
			c-0.779,0.247-1.377,0.545-1.914,0.768c-3.134,1.389-5.583,3.126-7.613,4.908c-2.027,1.793-3.645,3.657-5.029,5.573
			c-1.382,1.919-2.529,3.9-3.541,6.011C516.048,254.172,515.152,256.411,514.431,258.894z"/>
		<path d="M511.763,308.226c-3.729,0.105-6.554-0.375-9.015-0.431c-2.469-0.092-4.587,0.064-7.021,0.682
			c-1.314,0.394-3.983,0.881-7.225,0.656c-0.813,0.018-1.656-0.2-2.528-0.338c-0.877-0.083-1.762-0.42-2.668-0.679
			c-0.449-0.156-0.919-0.209-1.365-0.439l-1.358-0.593l-1.382-0.585c-0.535-0.272-1.069-0.543-1.601-0.812
			c-4.307-2.229-8.777-4.647-12.643-6.175c-0.957-0.389-1.892-0.721-2.737-1.003c-0.438-0.135-0.847-0.26-1.225-0.376
			c-0.469-0.135-1.033-0.276-1.474-0.379c-0.939-0.196-1.751-0.342-2.267-0.417c-0.527-0.055-0.808-0.084-0.808-0.084
			s-0.279-0.028-0.807-0.081c-0.52,0.015-1.304-0.075-2.269,0.018c-1.927,0.127-4.704,0.674-7.382,2.601
			c-1.335,0.949-2.604,2.25-3.604,3.869c-0.498,0.809-0.958,1.683-1.327,2.613c-0.331,0.938-0.57,1.933-0.665,2.992
			c-0.172,2.115,0.057,4.45,0.692,6.792c0.067,0.312,0.135,0.569,0.204,0.803l0.217,0.736l0.229,0.736l0.198,0.57
			c0.251,0.734,0.525,1.451,0.817,2.154c2.313,5.619,5.724,10.711,9.27,14.63c1.767,1.955,3.547,3.603,5.121,4.904
			c1.589,1.29,2.964,2.231,3.893,2.839c3.484,2.195,6.864,2.934,10.069,2.642c3.209-0.302,6.306-1.61,9.327-3.842
			c-2.582-2.741-4.125-5.11-5.65-6.999c-1.516-1.911-2.988-3.357-5.156-4.825c-1.165-0.804-3.5-2.517-5.926-5.231
			c-2.425-2.668-4.918-6.424-6.433-10.1c-0.191-0.456-0.365-0.903-0.515-1.34l-0.11-0.303l-0.045-0.143l-0.069-0.217l-0.005,0.017
			l-0.023,0.008l-0.014-0.017l0.023,0.012c0.228,0.071,0.506,0.158,0.826,0.258c0.502,0.174,1.087,0.381,1.768,0.664
			c2.722,1.077,6.703,3.214,11.296,5.624c0.587,0.301,1.178,0.603,1.771,0.905l2.104,0.93c0.71,0.304,1.42,0.607,2.126,0.91
			c0.692,0.324,1.479,0.489,2.209,0.733c1.489,0.441,2.936,0.921,4.443,1.124c1.487,0.253,2.922,0.545,4.343,0.567
			c5.647,0.389,10.271-0.582,12.414-1.271c4.046-1.186,6.78-3.23,8.639-5.812C510.278,315.127,511.417,312.002,511.763,308.226z"/>
		<path d="M557.43,325.894c2.217,0.649,4.35,0.89,6.412,1.009c2.033,0.059,4.029-0.04,5.942-0.436
			c1.966-0.334,3.804-1.018,5.754-1.884c0.966-0.445,1.887-1.014,2.862-1.616c0.964-0.614,1.975-1.273,2.918-2.1
			c0.52-0.438,1.171-0.987,1.934-1.63c0.38-0.323,0.788-0.671,1.222-1.04c0.425-0.376,0.844-0.804,1.3-1.238
			c0.902-0.878,1.893-1.842,2.953-2.874c1.033-1.054,2.05-2.246,3.157-3.46c0.547-0.612,1.106-1.238,1.677-1.875
			c0.525-0.668,1.061-1.349,1.604-2.039c1.067-1.392,2.228-2.786,3.283-4.273c2.031-3.021,4.231-6.074,5.975-9.267
			c0.902-1.58,1.857-3.115,2.668-4.665c0.778-1.563,1.536-3.088,2.265-4.553c1.528-2.904,2.616-5.683,3.599-8.022
			c0.961-2.351,1.829-4.24,2.25-5.657c0.471-1.389,0.736-2.171,0.736-2.171s0.269-0.781,0.744-2.167
			c0.237-0.694,0.526-1.539,0.86-2.514c0.363-0.963,0.656-2.098,0.974-3.344c0.323-1.244,0.675-2.599,1.05-4.041
			c0.359-1.446,0.818-2.96,1.065-4.6c0.293-1.628,0.598-3.322,0.91-5.059c0.139-0.872,0.348-1.743,0.431-2.644
			c0.095-0.899,0.19-1.807,0.286-2.719c0.176-1.827,0.409-3.669,0.533-5.519c0.059-1.856,0.116-3.71,0.173-5.538
			c0.104-1.827-0.023-3.632-0.081-5.386c-0.035-0.877-0.07-1.742-0.104-2.591c-0.02-0.425-0.038-0.845-0.057-1.262
			c-0.043-0.416-0.086-0.827-0.129-1.233c-0.173-1.625-0.339-3.179-0.494-4.635c-0.143-1.458-0.445-2.8-0.635-4.033
			c-0.219-1.229-0.393-2.344-0.593-3.307c-0.228-0.959-0.422-1.777-0.577-2.431c-0.305-1.204-0.583-2.343-0.982-3.397
			c-0.4-1.055-0.825-2.044-1.275-2.978c-0.434-0.938-0.945-1.809-1.504-2.631c-0.549-0.824-1.124-1.603-1.729-2.347
			c-2.534-2.925-5.631-5.386-9.709-7.502c-0.283,4.542-0.951,8.062-1.026,11.477c-0.051,0.865-0.065,1.717-0.037,2.571
			c0.038,0.849,0.098,1.708,0.156,2.604c0.073,0.889,0.193,1.793,0.365,2.727c0.171,0.934,0.3,1.929,0.531,2.952
			c0.122,0.556,0.275,1.25,0.454,2.065c0.159,0.819,0.291,1.771,0.469,2.816c0.15,1.051,0.413,2.187,0.523,3.432
			c0.128,1.242,0.265,2.566,0.408,3.953c0.037,0.347,0.074,0.697,0.111,1.051c0.015,0.356,0.028,0.716,0.043,1.08
			c0.027,0.727,0.055,1.466,0.083,2.217c0.047,1.501,0.172,3.042,0.071,4.613c-0.045,1.569-0.091,3.161-0.138,4.755
			c-0.105,1.592-0.313,3.183-0.458,4.759c-0.078,0.788-0.156,1.571-0.233,2.347c-0.064,0.777-0.255,1.535-0.372,2.291
			c-0.266,1.508-0.525,2.979-0.774,4.392c-0.196,1.422-0.608,2.748-0.917,4.012c-0.322,1.262-0.624,2.447-0.901,3.535
			c-0.48,2.195-1.214,3.92-1.592,5.152c-0.413,1.224-0.646,1.914-0.646,1.914s-0.235,0.688-0.654,1.911
			c-0.36,1.236-1.169,2.945-2.038,5.05c-0.893,2.098-1.874,4.606-3.245,7.164c-0.649,1.299-1.325,2.651-2.019,4.038
			c-0.72,1.369-1.565,2.7-2.359,4.087c-1.532,2.818-3.452,5.429-5.202,8.055c-0.909,1.284-1.905,2.461-2.815,3.657
			c-0.462,0.592-0.917,1.176-1.363,1.749c-0.482,0.538-0.957,1.065-1.42,1.581c-0.934,1.023-1.787,2.044-2.648,2.93
			c-0.881,0.865-1.702,1.672-2.451,2.408c-0.377,0.365-0.722,0.731-1.07,1.045c-0.354,0.307-0.688,0.595-0.998,0.864
			c-0.618,0.542-1.145,1.004-1.566,1.374c-0.759,0.712-1.517,1.312-2.199,1.951c-0.689,0.625-1.3,1.301-1.904,1.918
			c-1.225,1.208-2.236,2.562-3.259,3.865C561.973,319.285,560.284,322.362,557.43,325.894z"/>
		<path d="M367.764,116.227c3.547,0.764,5.684,1.094,8.431-0.31c1.482-0.759,5.931-3.086,10.131-4.936
			c2.104-0.909,4.104-1.8,5.611-2.364c1.499-0.59,2.466-0.97,2.466-0.97s0.242-0.094,0.678-0.24c0.435-0.15,1.059-0.365,1.817-0.626
			c1.509-0.559,3.586-1.163,5.756-1.815c4.357-1.198,9.151-2.152,10.739-2.296c2.943-0.496,4.413-1.818,7.038-4.441
			c-2.642-2.364-4.766-3.718-8.075-3.291c-1.829,0.107-7.13,1.156-11.844,2.477c-2.337,0.708-4.571,1.376-6.172,1.978
			c-0.808,0.285-1.472,0.519-1.934,0.682c-0.465,0.16-0.72,0.261-0.721,0.261c0,0-1.027,0.396-2.619,1.009
			c-1.604,0.591-3.717,1.516-5.938,2.468c-4.426,1.933-9.085,4.369-10.613,5.227C369.699,110.615,368.728,112.729,367.764,116.227z"
			/>
		<path d="M523.43,127.893c-4.388-6.391-8.525-11.47-13.295-16.352c-4.795-4.859-10.299-9.488-17.868-14.589
			c-2.573-1.714-6.741-4.539-15.697-9.942c-8.095-4.864-19.187-11.045-31.605-16.901c-3.077-1.518-6.31-2.866-9.521-4.325
			c-3.233-1.411-6.542-2.73-9.825-4.092c-3.334-1.244-6.633-2.562-9.951-3.725c-1.662-0.572-3.315-1.141-4.955-1.705
			c-1.636-0.574-3.266-1.123-4.9-1.605c-12.987-4.105-25.149-6.926-34.082-8.439c-2.218-0.459-4.262-0.69-6.043-0.971
			c-1.785-0.262-3.324-0.488-4.583-0.673c-1.256-0.203-2.243-0.292-2.911-0.359c-0.668-0.069-1.02-0.105-1.02-0.105
			s-1.176-0.123-3.316-0.346c-1.07-0.111-2.381-0.248-3.906-0.406c-1.529-0.127-3.279-0.203-5.215-0.324
			c-7.728-0.588-18.577-0.611-30.633,0.339c-12.021,0.97-25.433,3.015-38.137,7.183c-6.317,2.167-12.507,4.693-18.008,8.105
			c-5.51,3.336-10.449,7.234-14.273,11.546c-5.195,5.755-8.105,11.591-9.755,16.28c-1.622,4.725-2.288,8.346-2.559,10.813
			c-0.637,5.007-0.406,9.492,0.293,13.496c0.687,4.012,1.758,7.592,3.206,10.877c1.435,3.289,3.124,6.33,5.219,9.216
			c0.521,0.722,1.086,1.427,1.637,2.136c0.565,0.705,1.189,1.387,1.792,2.078c1.291,1.334,2.623,2.706,4.246,3.79
			c-1.721-3.446-2.452-6.823-3.155-10.037c-0.673-3.217-1.093-6.335-1.462-9.468c-0.386-3.133-0.595-6.32-0.692-9.701
			c-0.111-3.382-0.021-6.979,0.522-10.887c0.221-1.94,0.775-4.727,2.009-8.324c1.27-3.573,3.432-7.937,7.475-12.41
			c2.972-3.35,6.951-6.499,11.569-9.301c4.586-2.867,10.023-5.09,15.663-7.031c11.392-3.748,23.959-5.724,35.387-6.648
			c11.418-0.908,21.626-0.908,28.965-0.355c1.834,0.113,3.491,0.179,4.94,0.297c1.448,0.149,2.692,0.278,3.708,0.382
			c2.032,0.208,3.148,0.323,3.148,0.323s0.334,0.035,0.968,0.101c0.635,0.065,1.57,0.149,2.766,0.345
			c1.197,0.178,2.661,0.396,4.358,0.648c1.694,0.27,3.636,0.487,5.749,0.931c8.504,1.45,20.117,4.159,32.57,8.107
			c1.565,0.461,3.13,0.99,4.701,1.544c1.575,0.543,3.162,1.09,4.759,1.641c3.187,1.119,6.362,2.393,9.568,3.589
			c3.162,1.316,6.348,2.586,9.466,3.949c3.099,1.411,6.214,2.708,9.188,4.177c11.993,5.659,22.74,11.64,30.595,16.338
			c8.688,5.227,12.743,7.949,15.255,9.586c7.39,4.873,13.312,8.499,19.165,11.689C510.783,121.604,516.58,124.314,523.43,127.893z"
			/>
		<path d="M303.765,120.56c-1.594-4.894-2.473-9.468-2.965-13.744c-0.472-4.266-0.485-8.301,0.209-11.827
			c0.346-1.754,0.835-3.38,1.553-4.77c0.717-1.395,1.597-2.574,2.703-3.639c1.122-1.054,2.429-2.058,4.181-2.925
			c0.399-0.243,0.914-0.411,1.365-0.635l0.7-0.328l0.779-0.276c0.521-0.174,1.049-0.417,1.572-0.562
			c0.521-0.129,1.046-0.269,1.574-0.42c0.183-0.048,0.356-0.112,0.566-0.157c0.222-0.038,0.452-0.076,0.691-0.117
			c0.479-0.085,0.997-0.178,1.562-0.278c0.543-0.126,1.227-0.163,1.935-0.241c0.72-0.064,1.474-0.171,2.334-0.227
			c3.451-0.212,8.161-0.254,14.673,0.242c4.121,0.288,11.153,1.119,17.146,2.112c2.997,0.441,5.73,1.001,7.717,1.336
			c1.984,0.391,3.22,0.634,3.22,0.634s1.032,0.215,2.724,0.567c1.688,0.381,4.034,0.912,6.666,1.506
			c5.249,1.273,11.63,2.886,16.145,4.186c17.297,4.894,27.69,8.862,33.097,10.892c10.921,4.196,19.462,7.344,27.677,10.224
			c4.056,1.507,8.115,2.857,12.188,4.523c4.081,1.668,8.36,3.408,12.654,6.256c-2.474-4.564-5.688-8.318-8.933-11.717
			c-3.269-3.43-6.766-6.326-10.483-9.142c-7.499-5.477-16.063-10.182-27.478-14.696c-5.655-2.189-16.491-6.361-34.475-11.464
			c-4.689-1.375-11.345-3.031-16.831-4.325c-2.757-0.603-5.214-1.141-6.982-1.527c-1.778-0.355-2.863-0.572-2.863-0.572
			s-1.295-0.266-3.375-0.693c-2.097-0.372-4.955-0.976-8.143-1.465c-6.34-1.085-13.901-2.006-18.481-2.278
			c-7.183-0.538-12.666-0.499-16.95-0.214c-1.072,0.073-2.092,0.208-3.019,0.301c-0.934,0.109-1.771,0.169-2.604,0.345
			c-0.818,0.151-1.569,0.291-2.264,0.419c-0.347,0.066-0.679,0.13-0.998,0.191c-0.326,0.074-0.654,0.177-0.962,0.26
			c-0.909,0.267-1.807,0.53-2.692,0.79c-0.871,0.281-1.655,0.645-2.466,0.966c-0.399,0.168-0.796,0.334-1.19,0.5
			c-0.394,0.203-0.784,0.405-1.172,0.605c-0.773,0.424-1.537,0.771-2.274,1.263c-2.972,1.782-5.637,4.195-7.686,6.936
			c-2.059,2.75-3.435,5.862-4.125,8.886c-0.705,3.036-0.721,5.949-0.422,8.633c0.632,5.391,2.561,9.928,4.995,14.087
			C297.026,113.125,300.046,116.963,303.765,120.56z"/>
		<ellipse cx="442.43" cy="205.56" rx="4.667" ry="8"/>
		<ellipse cx="357.431" cy="166.061" rx="3.208" ry="5.5"/>
		<circle cx="514.431" cy="297.56" r="8"/>
		<path fill="#FFFFFF" d="M572.343,200.818c0,0-26.913,2.153-26.913-21.53s17.225-18.301,17.225-18.301s5.383-24.76,21.53-23.684
			c16.147,1.077,13.995,5.383,13.995,5.383s43.061-31.219,53.825,10.765c10.766,41.984-33.372,45.214-33.372,45.214
			s-8.612,18.301-25.836,17.224C575.572,214.813,572.343,200.818,572.343,200.818z"/>
		<path d="M424.763,190.893c-0.262,0.995-0.197,1.927,0.068,2.767c0.286,0.831,0.807,1.618,1.699,2.292
			c0.472,0.384,1.483,1.044,2.782,1.664c1.307,0.575,2.891,1.127,4.422,1.404c0.383,0.075,0.761,0.149,1.13,0.222
			c0.368,0.044,0.728,0.086,1.073,0.127c0.69,0.075,1.326,0.164,1.86,0.164c1.071,0.037,1.762,0.061,1.762,0.061
			s0.174,0.014,0.477-0.001c0.304-0.009,0.74-0.022,1.271-0.039c1.074-0.007,2.465-0.14,3.933-0.259
			c0.739-0.089,1.494-0.181,2.229-0.27c0.74-0.127,1.46-0.25,2.121-0.363c1.33-0.275,2.448-0.616,3.012-0.825
			c1.043-0.417,1.868-1.003,2.431-1.94c0.14-0.27,0.253-0.527,0.331-0.8c0.059-0.325,0.12-0.593,0.06-0.924
			c-0.067-0.626-0.504-1.144-0.992-1.28c-0.026,0.521-0.337,0.808-0.607,0.866c-0.104,0.033-0.291,0.044-0.375,0.04
			c-0.127,0-0.248,0.001-0.363,0.001c-0.517,0.01-1.063,0.097-1.812,0.37c-0.419,0.137-1.299,0.401-2.46,0.642
			c-0.592,0.101-1.237,0.211-1.902,0.324c-0.682,0.084-1.383,0.17-2.068,0.255c-2.806,0.285-5.253,0.303-5.253,0.303
			c0,0-0.612-0.025-1.562-0.063c-0.479,0-1.022-0.084-1.62-0.15c-0.298-0.036-0.608-0.073-0.926-0.111
			c-0.31-0.062-0.627-0.127-0.948-0.192c-1.296-0.234-2.555-0.69-3.575-1.127c-0.996-0.479-1.745-0.953-2.087-1.218
			c-0.66-0.463-1.196-0.769-1.848-1.012C426.393,191.554,425.646,191.383,424.763,190.893z"/>
		<path d="M341.979,152.405c-0.686,1.42-0.613,2.751,0.442,4.081c0.285,0.369,0.926,1.037,1.786,1.724
			c0.875,0.656,1.962,1.342,3.057,1.814c0.542,0.257,1.078,0.48,1.583,0.643c0.502,0.176,0.961,0.353,1.359,0.445
			c0.793,0.213,1.305,0.351,1.305,0.351s2.07,0.476,4.289,0.762c0.566,0.062,1.146,0.124,1.709,0.185
			c0.575,0.034,1.133,0.067,1.646,0.097c1.04,0.025,1.934-0.036,2.39-0.094c0.851-0.13,1.568-0.424,2.15-1.026
			c0.151-0.176,0.28-0.349,0.386-0.539c0.1-0.232,0.192-0.421,0.204-0.679c0.06-0.479-0.177-0.94-0.518-1.127
			c-0.11,0.384-0.392,0.544-0.604,0.541l-0.286-0.035c-0.097-0.022-0.187-0.042-0.272-0.062c-0.387-0.082-0.81-0.112-1.416-0.039
			c-0.336,0.03-1.038,0.074-1.946,0.052c-0.459-0.027-0.96-0.057-1.476-0.088c-0.523-0.056-1.061-0.113-1.587-0.169
			c-2.144-0.273-3.973-0.684-3.973-0.685c0,0-0.452-0.125-1.153-0.318c-0.357-0.083-0.749-0.24-1.183-0.393
			c-0.441-0.142-0.896-0.334-1.347-0.551c-0.926-0.399-1.786-0.958-2.472-1.461c-0.659-0.53-1.137-1.014-1.346-1.271
			c-0.412-0.46-0.759-0.781-1.203-1.075C343.081,153.181,342.554,152.924,341.979,152.405z"/>
	</g>
</g>
</svg>
