<?xml version="1.0" encoding="utf-8"?>
<!-- Generator: Adobe Illustrator 16.0.0, SVG Export Plug-In . SVG Version: 6.00 Build 0)  -->
<!DOCTYPE svg PUBLIC "-//W3C//DTD SVG 1.1//EN" "http://www.w3.org/Graphics/SVG/1.1/DTD/svg11.dtd">
<svg version="1.1" xmlns="http://www.w3.org/2000/svg" xmlns:xlink="http://www.w3.org/1999/xlink" x="0px" y="0px" width="640px"
	 height="640px" viewBox="0 0 640 640" enable-background="new 0 0 640 640" xml:space="preserve">
<g id="couleurs">
</g>
<g id="traits">
	<g>
		<path fill="#FFF26B" d="M444.175,577.834c-4.71,1.663-7.745,2.747-7.745,2.747l-14,5c0,0-1.836,1.412-4.393,3.175
			C425.686,585.397,435.393,581.389,444.175,577.834 M511.43,539.582c0,0-3.357,12.087-12.273,18.653
			c2.947-1.088,5.226-2.024,6.273-2.653C510.43,552.582,511.43,539.582,511.43,539.582 M524.43,532.582
			c-0.013,0.006-0.025,0.013-0.037,0.019C524.404,532.594,524.417,532.588,524.43,532.582 M528.094,520.021
			c-0.266,5.948-1.216,11.336-3.664,12.561C528.098,530.748,528.612,525.339,528.094,520.021 M539.43,495.582c-3,3-12,6-12,6
			s0.174,1.624,0.354,4.132C530.798,503.292,536.035,498.976,539.43,495.582 M539.157,474.87c1.066,9.585,1.727,19.258,0.272,20.712
			C542.699,492.312,540.838,481.773,539.157,474.87 M215.086,467.702l25.344,2.88c0,0,0.474-0.43,1.356-1.226L215.086,467.702
			 M282.879,433.071c-11.839,9.438-19.449,15.696-19.449,15.696l-4.743,5.484C265.681,448.052,274.099,440.652,282.879,433.071
			 M542.648,374.422l2.781,14.159l-9,66c0,0,0.429,2.718,1,6.756v-13.756l9-63C546.43,384.582,544.686,380.512,542.648,374.422
			 M466.43,320.582c0,0-64.793,25.917-110.67,57.27c24.208-14.726,49.67-28.27,49.67-28.27s39.833-20.47,61.89-28.901
			L466.43,320.582 M127.659,310.434c-0.386,0.146-0.685,0.257-0.891,0.334c-0.011,0.216-0.025,0.427-0.044,0.631l3.298,5.654
			C129.136,315.165,128.26,312.911,127.659,310.434 M181.75,306.728c-10.192,3.957-20.912,7.899-29.67,10.905l20.35-5.74
			C172.43,311.893,175.939,309.951,181.75,306.728 M127.344,299.618c-0.849,2.304-1.22,4.441-0.914,6.275
			c0.212,1.27,0.322,2.417,0.352,3.452c0.102-0.396,0.229-0.864,0.387-1.396C126.768,305.306,126.736,302.48,127.344,299.618
			 M379.43,174.643c-6.25,0-10,0.25-10,0.25l-2.027,2.027l48.925,0.68c-4.415-0.764-8.49-1.366-11.897-1.707
			C394.43,174.893,385.68,174.643,379.43,174.643 M640,0H295.746L151.43,268.893c0,0-10.019,9.277-17.398,19.241
			c0.441-0.417,0.907-0.832,1.398-1.241c2.528-2.107,5.33-4.37,8.283-6.706c5.812-6.245,13.521-12.63,23.717-18.294
			c0.346-0.192,0.698-0.391,1.059-0.597c9.614-7.136,16.941-12.403,16.941-12.403s3.715-1.976,9.031-5.26
			c15.279-11.499,30.165-24.348,32.969-29.74c0,0,1.88-6.108,3.706-14.46c-0.973-11.893-3.238-21.207-4.604-25.993
			c-6.455-5.013-15.042-7.529-15.102-7.546l0,0l0,0l14-34c0,0,1.435,0.458,3.782,1.445l47.218-86.445c0,0,14.242-0.16,32.928-0.16
			c22.516,0,51.484,0.232,69.79,1.256c-3.564-1.398-5.718-2.096-5.718-2.096l114,16c0,0-0.068,0.466-0.197,1.34
			c2.679,0.42,4.197,0.66,4.197,0.66l-24,125c0,0-14.409-3.686-30.425-7.179l-7.575,68.179c0,0,102,11,102,14c0,15-26,26-26,26
			s-10.827,0.422-25.417,0.422c-24.316,0-59.083-1.172-71.583-7.422c-18.481-9.241-33.546-35.558-44.407-35.558
			c-0.893,0-1.758,0.178-2.593,0.558c-11,5-88,82-141,104c-30.686,12.737-66.061,15.418-90.412,15.418
			c-17.707,0-29.588-1.418-29.588-1.418s11-24,16-31c3.021-4.229,6.041-12.106,7.959-17.682c-1.426,1.463-2.959,1.682-2.959,1.682
			l-11,26l-32,36l4-46l11-17c0,0,14.911-3.314,19.853-10.695c-0.806,0.822-1.751,1.402-2.853,1.695
			c-3.046,0.812-6.05,1.501-8.913,2.057c-0.728,0.38-1.428,0.696-2.087,0.943c-0.376,0.141-0.718,0.209-1.03,0.209
			c-0.444,0-0.827-0.138-1.156-0.402c-3.957,0.616-7.496,0.937-10.299,0.937c-3.703,0-6.12-0.561-6.515-1.744l-4-27c0,0-10-31-8-45
			s10-51,10-51s-1.297-5.306-2.798-12.314l-0.202,0.314l-0.083-1.653c-2.814-13.331-6.093-31.712-2.917-32.347c5-1,14-8,14-8
			s2-21,6-22s10-8,10-8s4-15,10-17s20-8,20-8l60-22c0,0,10.885-9.069,17.104-9.07c0.312,0,0.609,0.022,0.896,0.07c6,1,15,1,15,1l7,2
			l-23.461,45.222c0.839-0.17,1.513-0.26,1.998-0.26c0.181,0,0.335,0.013,0.463,0.038c5,1-4,10-4,10L202.803,108l-14.79,28.51
			c0.921-0.403,1.417-0.616,1.417-0.616l0,0l0,0l-26,48l-42,17l-10,47l0,0c0,0,1.991,8.108,3.668,18.425l16.332-15.425L265.753,0H0
			v640h318.486L461.43,382.582c0,0,5.957-7.376,11.979-15.63c-1.189,0.933-2.511,1.814-3.979,2.63
			c-13.334,7.408-50.815,30.184-70.163,50.028c-4.091,7.432-8.778,16.357-12.329,24.295c-1.006,11.311-1.527,20.698-0.489,26.01
			c1.62,1.7,3.531,3.19,5.507,4.478c0.734-0.062,1.485-0.091,2.235-0.091c5.12,0,10.239,1.28,10.239,1.28l-2.117,3.94
			c1.893,0.709,3.117,1.06,3.117,1.06l-19,32c0,0-0.76,0.176-2.088,0.395l-44.912,83.605l-122-4l-94-9l0,0
			c0,0,8.679-50.829,17.002-87.138l6.998-35.862c0,0,1.531,0.191,4.031,0.521c0.341-0.343,0.664-0.521,0.969-0.521l23.399,2.659
			l8.601-43.094c0,0,24.432,6.592,42.892,6.592c6.594,0,12.424-0.841,16.108-3.123c14-8.672,82-61.556,117-78.034s82-32,102-37
			c9.411-2.353,13.385-3.606,15.947-3.606c2.463,0,3.623,1.157,7.053,3.606l-1,14l-1.118-0.124
			c1.318,6.922,0.118,17.124,0.118,17.124s1.286,6.433-0.883,13.825c1.351-2.29,2.375-4.302,2.883-5.825c3-9,1-22,1-22l10-4l11-28
			l30-28l-2,28l-9,32l13-30c0,0,37,30,42,79s-12,174-39,193c-25.708,18.091-127.569,27.115-137.259,27.938
			c-0.263,0.041-0.511,0.062-0.741,0.062c-5,0-23-3-23-3l70-133l21.186-8.921c6.907-3.221,12.814-6.079,12.814-6.079l18-50
			c0,0-11.15-44.602,1.158-59.459c0.612-0.778,1.268-1.416,1.949-1.935c1.635-1.318,3.584-2.222,5.893-2.606
			c5.998-1,10.375-1.375,13.562-1.375c2.761,0,4.631,0.281,5.895,0.682c-2.651-3.683-5.457-4.307-5.457-4.307l0,0c0,0-26,2-28,18
			s-1,26-1,26L349.471,640H640V0"/>
		<path fill="#FFFFFF" d="M126.769,310.768c-0.224,0.083-0.339,0.125-0.339,0.125l0.295,0.506
			C126.743,311.195,126.758,310.984,126.769,310.768 M298.43-5h-30l-2.677,5L131.43,250.893l-16.332,15.425
			c0.151,0.932,0.301,1.884,0.444,2.847c0.57,2.711,1.199,5.631,1.888,8.729c1.024,4.611,0.868,8.895-0.066,12.766
			c-0.058,7.326-1.143,13.542-4.081,16.539c-4.941,7.381-19.853,10.695-19.853,10.695l-11,17l-4,46l32-36l11-26
			c0,0,1.533-0.219,2.959-1.682c1.258-3.654,2.041-6.318,2.041-6.318l0,0c0,0,0.095-0.549,0.352-1.548
			c-0.029-1.035-0.14-2.182-0.352-3.452c-0.306-1.833,0.065-3.971,0.914-6.275c0.825-3.884,2.828-7.833,6.688-11.484
			c7.38-9.963,17.398-19.241,17.398-19.241L295.746,0L298.43-5"/>
		<path fill="#B9CDD4" d="M537.43,265.582l-30,28l-11,28l-10,4c0,0,2,13-1,22c-0.508,1.523-1.532,3.535-2.883,5.825
			c-1.344,4.58-4.014,9.528-9.139,13.545c-6.021,8.254-11.979,15.63-11.979,15.63L318.486,640l-1.057,1.903h31l1.041-1.903
			L497.43,369.582c0,0-1-10,1-26s28-18,28-18l0,0l0,0l9-32L537.43,265.582"/>
		<path fill="#B9CDD4" d="M143.713,280.187c-2.953,2.336-5.755,4.599-8.283,6.706c-0.491,0.409-0.957,0.823-1.398,1.241
			c-3.859,3.651-5.862,7.601-6.688,11.484c-0.607,2.862-0.576,5.688-0.176,8.331C128.681,302.837,132.944,291.754,143.713,280.187
			 M194.461,243.633c-5.316,3.284-9.031,5.26-9.031,5.26s-7.327,5.267-16.941,12.403
			C175.468,257.299,185.04,250.722,194.461,243.633 M226.531,173.439c1.366,4.786,3.632,14.1,4.604,25.993
			c0.838-3.832,1.665-8.136,2.294-12.54C234.23,181.285,230.86,176.801,226.531,173.439 M211.43,165.893L211.43,165.893
			L211.43,165.893 M487.232,63.233c-1.961,13.33-17.987,121.66-20.803,121.66c-1.471,0-15.436-2.163-29.293-4.368l-0.132,1.189
			c16.016,3.493,30.425,7.179,30.425,7.179l24-125C491.43,63.893,489.911,63.653,487.232,63.233 M309.357,46.733
			c-18.686,0-32.928,0.16-32.928,0.16l-47.218,86.445c14.289,6.003,62.432,31.574,27.218,92.555
			c-25.692,44.493-117.095,80.132-128.771,84.541c0.601,2.477,1.477,4.731,2.363,6.619l3.407,5.84l18.65-5.26
			c8.758-3.006,19.478-6.948,29.67-10.905c25.67-14.241,96.264-53.496,107.68-60.834c14-9,76-69,76-69l1.973,0.027l2.027-2.027
			c0,0,3.75-0.25,10-0.25s15,0.25,25,1.25c3.407,0.341,7.482,0.943,11.897,1.707l2.842,0.039
			c-6.358-1.029-10.739-1.746-10.739-1.746s35.021-10.502,37-58c1.658-39.809-48.958-63.11-66.282-69.904
			C360.842,46.965,331.873,46.733,309.357,46.733"/>
		<path fill="#B9CDD4" d="M117.363,290.659c-2.412,9.995-10.009,17.239-15.847,20.291c2.863-0.556,5.867-1.245,8.913-2.057
			c1.102-0.293,2.047-0.874,2.853-1.695C116.221,304.202,117.306,297.985,117.363,290.659 M111.43,247.893
			c0,0,1.371,8.225,4.112,21.271c-0.144-0.963-0.293-1.915-0.444-2.847C113.421,256.001,111.43,247.893,111.43,247.893 M202.803,108
			L84.43,161.893l-8.798,13.686c1.501,7.009,2.798,12.314,2.798,12.314s-8,37-10,51s8,45,8,45l4,27
			c0.395,1.184,2.812,1.744,6.515,1.744c2.803,0,6.342-0.321,10.299-0.937c-4.361-3.494,0.731-28.97-2.813-45.807c-4-19,1-61,5-77
			c3.695-14.783,77.395-47.494,88.583-52.384L202.803,108 M209.534,47.823c-6.22,0.001-17.104,9.07-17.104,9.07l-60,22
			c0,0-14,6-20,8s-10,17-10,17s-6,7-10,8s-6,22-6,22s-9,7-14,8c-3.176,0.635,0.103,19.016,2.917,32.347l-0.917-18.347
			c0,0,45-24,65-33c18.122-8.155,58.414-24.521,69.539-26.778l23.461-45.222l-7-2c0,0-9,0-15-1
			C210.144,47.845,209.846,47.823,209.534,47.823"/>
		<path fill="#FFFFFF" d="M140.432,496.444c-8.323,36.309-17.002,87.138-17.002,87.138L140.432,496.444 M394.19,474.301
			c-0.75,0-1.501,0.028-2.235,0.091c3.737,2.434,7.704,4.136,10.357,5.13l2.117-3.94C404.43,475.582,399.311,474.301,394.19,474.301
			 M152.43,460.582c-0.305,0-0.628,0.179-0.969,0.521c5.396,0.713,15.306,2.073,24.086,3.554l0.282-1.416L152.43,460.582
			 M386.938,443.905c-1.932,4.318-3.527,8.343-4.508,11.677c-1.711,5.819,0.443,10.583,4.019,14.333
			C385.41,464.603,385.932,455.215,386.938,443.905 M467.319,320.68c-22.057,8.432-61.89,28.901-61.89,28.901
			s-25.462,13.544-49.67,28.27c-1.808,1.235-3.587,2.479-5.33,3.73c-24.547,17.61-50.457,37.863-67.551,51.489
			c-8.78,7.581-17.198,14.981-24.192,21.181l-13.257,15.33l-3.644-0.226c-0.883,0.796-1.356,1.226-1.356,1.226l-25.344-2.88
			l-34.351-2.128c5.668,1.057,10.214,2.12,11.694,3.008c0,0-29,29-10,68c17.254,35.416,92,56,92,56l-151-9l0,0l94,9l122,4
			l44.912-83.605c-2.223,0.368-6.033,0.858-10.536,0.858c-12.649,0-30.752-3.875-34.376-25.253c-10-59,69-85,69-85l0,0l0,0
			c0,0-4.13,6.884-9.163,16.028c19.348-19.845,56.829-42.62,70.163-50.028c1.468-0.815,2.789-1.697,3.979-2.63
			c5.125-4.017,7.795-8.965,9.139-13.545c2.169-7.393,0.883-13.825,0.883-13.825s1.2-10.202-0.118-17.124L467.319,320.68"/>
		<path fill="#FFFFFF" d="M503.43,394.582l-18,50c0,0-5.907,2.858-12.814,6.079l16.814-7.079L503.43,394.582 M504.588,335.123
			c-12.309,14.857-1.158,59.459-1.158,59.459l0,0c0,0-2-12-3-39C500.027,344.72,501.891,338.551,504.588,335.123 M525.992,329.207
			c-3.188,0-7.564,0.375-13.562,1.375c-2.309,0.385-4.258,1.288-5.893,2.606c2.145-1.633,4.548-2.092,6.689-2.092
			c1.631,0,3.108,0.267,4.203,0.485c5,1,8,62,8,62s-10,48-17,63s-77,44-77,44l20-41l-70,133c0,0,18,3,23,3
			c0.23,0,0.479-0.021,0.741-0.062c-0.487,0.042-0.741,0.062-0.741,0.062c1.11-1.11,6.46-3.686,13.607-6.825
			c2.557-1.763,4.393-3.175,4.393-3.175l14-5c0,0,3.035-1.084,7.745-2.747c12.578-5.091,23.255-9.253,23.255-9.253
			s20.614-6.247,31.727-10.347c8.916-6.566,12.273-18.653,12.273-18.653l0,0c0,0,4.984-2.99,12.963-6.981
			c0.012-0.006,0.024-0.013,0.037-0.019l0,0l0,0c2.448-1.225,3.398-6.612,3.664-12.561c-0.611-6.282-2.664-12.439-2.664-12.439
			s0.929-0.722,2.354-1.868c-0.181-2.508-0.354-4.132-0.354-4.132s9-3,12-6l0,0l0,0c1.454-1.454,0.794-11.127-0.272-20.712
			c-0.889-3.653-1.728-6.288-1.728-6.288v-7.244c-0.571-4.038-1-6.756-1-6.756l9-66l-2.781-14.159
			c-2.592-7.746-5.659-18.763-6.219-28.841c-0.441-7.951-2.444-12.779-4.543-15.693
			C530.623,329.488,528.753,329.207,525.992,329.207"/>
		<path fill="#CCCC62" d="M127.168,307.949c-0.157,0.533-0.285,1-0.387,1.396c0.014,0.5,0.009,0.974-0.013,1.423
			c0.206-0.077,0.505-0.188,0.891-0.334C127.464,309.628,127.297,308.798,127.168,307.949 M168.488,261.296
			c-0.36,0.206-0.713,0.405-1.059,0.597c-10.195,5.664-17.904,12.049-23.717,18.294
			C151.724,273.848,160.832,266.979,168.488,261.296 M231.136,199.433c-1.826,8.352-3.706,14.46-3.706,14.46
			c-2.804,5.393-17.689,18.242-32.969,29.74c13.599-8.399,37.688-25.362,36.969-39.74
			C231.354,202.371,231.254,200.882,231.136,199.433 M211.43,165.893c0.06,0.018,8.646,2.533,15.102,7.546
			c-0.654-2.293-1.102-3.546-1.102-3.546L211.43,165.893 M225.43,131.893l-14,34l0,0l17.782-32.555
			C226.864,132.352,225.43,131.893,225.43,131.893"/>
		<path fill="#C7D7DE" d="M126.781,309.345c-0.257,0.999-0.352,1.548-0.352,1.548l0,0c0,0,0.115-0.042,0.339-0.125
			C126.79,310.319,126.795,309.845,126.781,309.345"/>
		<path fill="#8EAFB9" d="M229.212,133.338l-17.782,32.555l0,0l14,4c0,0,0.447,1.253,1.102,3.546
			c4.329,3.361,7.699,7.846,6.898,13.454c-0.629,4.403-1.456,8.708-2.294,12.54c0.118,1.449,0.218,2.938,0.294,4.46
			c0.719,14.378-23.37,31.341-36.969,39.74c-9.421,7.089-18.993,13.666-25.973,17.663c-7.656,5.683-16.765,12.552-24.775,18.891
			c-10.769,11.567-15.032,22.65-16.545,27.762c0.129,0.849,0.296,1.679,0.491,2.485c11.676-4.409,103.078-40.048,128.771-84.541
			C291.644,164.912,243.501,139.341,229.212,133.338"/>
		<path fill="#CCCC62" d="M117.283,286.199c0.038,0.914,0.063,1.821,0.075,2.712c0.071-1.274,0.071-2.018,0.071-2.018
			L117.283,286.199 M189.43,135.893c0,0-0.496,0.213-1.417,0.616l-24.583,47.384L189.43,135.893"/>
		<path fill="#C7D7DE" d="M115.542,269.165c0.826,5.504,1.512,11.451,1.741,17.035l0.146,0.694c0,0,0,0.744-0.071,2.018
			c0.008,0.589,0.01,1.172,0.005,1.748c0.935-3.871,1.091-8.155,0.066-12.766C116.741,274.796,116.112,271.876,115.542,269.165"/>
		<path fill="#CCCC62" d="M101.517,310.95c-1.466,0.285-2.896,0.536-4.273,0.75c0.329,0.264,0.712,0.402,1.156,0.402
			c0.312,0,0.654-0.068,1.03-0.209C100.089,311.646,100.789,311.331,101.517,310.95"/>
		<path fill="#8EAFB9" d="M188.013,136.509c-11.188,4.89-84.888,37.601-88.583,52.384c-4,16-9,58-5,77
			c3.545,16.837-1.548,42.313,2.813,45.807c1.378-0.214,2.808-0.465,4.273-0.75c5.838-3.052,13.435-10.296,15.847-20.291
			c0.005-0.576,0.003-1.159-0.005-1.748c-0.012-0.891-0.037-1.798-0.075-2.712c-0.229-5.584-0.915-11.53-1.741-17.035
			c-2.741-13.046-4.112-21.271-4.112-21.271l0,0l0,0l10-47l42-17L188.013,136.509"/>
		<path fill="#CCCC62" d="M373.43,45.893c0,0,2.153,0.698,5.718,2.096c4.486,0.251,8.329,0.549,11.282,0.904
			c21.466,2.576,80.533,11.788,96.803,14.34c0.129-0.874,0.197-1.34,0.197-1.34L373.43,45.893"/>
		<path fill="#8EAFB9" d="M379.147,47.989c17.324,6.793,67.94,30.095,66.282,69.904c-1.979,47.498-37,58-37,58
			s4.381,0.717,10.739,1.746l18.261,0.254l-0.293,2.632c13.857,2.205,27.822,4.368,29.293,4.368
			c2.815,0,18.842-108.33,20.803-121.66c-16.27-2.553-75.337-11.764-96.803-14.34C387.477,48.539,383.634,48.24,379.147,47.989"/>
		<path fill="#CCCC62" d="M75.347,174.24l0.083,1.653l0.202-0.314C75.537,175.139,75.442,174.692,75.347,174.24 M210.967,95.855
			c-0.485,0-1.159,0.09-1.998,0.26L202.803,108l4.627-2.106c0,0,9-9,4-10C211.302,95.868,211.147,95.855,210.967,95.855"/>
		<path fill="#8EAFB9" d="M208.969,96.115c-11.125,2.257-51.417,18.623-69.539,26.778c-20,9-65,33-65,33l0.917,18.347
			c0.096,0.452,0.19,0.899,0.285,1.338l8.798-13.686L202.803,108L208.969,96.115"/>
		<path fill="#E0DA65" d="M402.312,479.522l-17.971,33.454c1.328-0.219,2.088-0.395,2.088-0.395l19-32
			C405.43,480.582,404.205,480.231,402.312,479.522 M386.448,469.915c0.589,3.011,1.678,4.712,3.465,4.712
			c0.166,0,0.338-0.015,0.517-0.045c0.497-0.083,1.007-0.145,1.525-0.189C389.979,473.105,388.068,471.615,386.448,469.915
			 M399.267,419.61c-6.771,6.944-11.318,13.528-11.837,18.972c-0.173,1.813-0.338,3.592-0.492,5.323
			C390.488,435.967,395.176,427.042,399.267,419.61"/>
		<path fill="#DBE5EA" d="M408.43,403.582c0,0-79,26-69,85c3.624,21.378,21.727,25.253,34.376,25.253
			c4.503,0,8.313-0.49,10.536-0.858l17.971-33.454c-2.653-0.994-6.62-2.696-10.357-5.13c-0.519,0.045-1.028,0.106-1.525,0.189
			c-0.179,0.03-0.351,0.045-0.517,0.045c-1.787,0-2.876-1.701-3.465-4.712c-3.575-3.75-5.729-8.514-4.019-14.333
			c0.98-3.334,2.576-7.358,4.508-11.677c0.154-1.731,0.319-3.51,0.492-5.323c0.519-5.443,5.066-12.027,11.837-18.972
			C404.3,410.465,408.43,403.582,408.43,403.582"/>
		<path fill="#E0DA65" d="M472.615,450.661l-21.186,8.921C453.12,459.582,463.7,454.819,472.615,450.661 M506.537,333.188
			c-0.682,0.519-1.337,1.156-1.949,1.935C505.182,334.406,505.83,333.758,506.537,333.188"/>
		<path fill="#DBE5EA" d="M513.227,331.096c-2.142,0-4.545,0.459-6.689,2.092c-0.707,0.57-1.355,1.218-1.949,1.935
			c-2.697,3.429-4.561,9.598-4.158,20.459c1,27,3,39,3,39l0,0l0,0l-14,49l-16.814,7.079c-8.915,4.158-19.495,8.921-21.186,8.921l0,0
			l-20,41c0,0,70-29,77-44s17-63,17-63s-3-61-8-62C516.335,331.363,514.857,331.096,513.227,331.096"/>
		<path fill="#E0DA65" d="M147.43,460.582l-6.998,35.862c4.133-18.022,8.176-32.465,11.029-35.341
			C148.961,460.773,147.43,460.582,147.43,460.582"/>
		<path fill="#DBE5EA" d="M151.461,461.103c-2.854,2.876-6.896,17.318-11.029,35.341l-17.002,87.138l0,0l151,9
			c0,0-74.746-20.584-92-56c-19-39,10-68,10-68c-1.48-0.888-6.026-1.951-11.694-3.008l-5.306-0.329l0.117-0.588
			C166.767,463.176,156.856,461.816,151.461,461.103"/>
		<path fill="#E0DA65" d="M367.402,176.92l-32.973,32.973c0,0-62,52-65,52s-43,26-66,36c-6.128,2.664-13.743,5.753-21.68,8.834
			c-5.811,3.223-9.32,5.166-9.32,5.166l-20.35,5.74c-9.251,3.174-16.317,5.305-18.271,5.305c-0.162,0-0.289-0.015-0.379-0.045
			c0,0-1.727-2.265-3.407-5.84l-3.298-5.654c-0.259,2.923-1.268,4.716-2.336,5.812c-1.918,5.575-4.938,13.453-7.959,17.682
			c-5,7-16,31-16,31s11.881,1.418,29.588,1.418c24.352,0,59.727-2.681,90.412-15.418c53-22,130-99,141-104
			c0.835-0.379,1.7-0.558,2.593-0.558c10.861,0,25.926,26.317,44.407,35.558c12.5,6.25,47.267,7.422,71.583,7.422
			c14.59,0,25.417-0.422,25.417-0.422s26-11,26-26c0-3-102-14-102-14l7.575-68.179c-6.938-1.513-14.177-2.989-20.678-4.114
			L367.402,176.92"/>
		<path fill="#DBE5EA" d="M126.43,310.893c0,0-0.783,2.664-2.041,6.318c1.068-1.096,2.077-2.889,2.336-5.812L126.43,310.893
			L126.43,310.893L126.43,310.893"/>
		<path fill="#9EBAC3" d="M130.022,317.053c1.681,3.575,3.407,5.84,3.407,5.84c0.09,0.03,0.217,0.045,0.379,0.045
			c1.954,0,9.021-2.131,18.271-5.305l-18.65,5.26L130.022,317.053 M416.327,177.6c6.501,1.125,13.739,2.601,20.678,4.114
			l0.132-1.189c-6.432-1.023-12.842-2.056-17.968-2.886L416.327,177.6 M365.43,176.893c0,0-62,60-76,69
			c-11.416,7.339-82.01,46.594-107.68,60.834c7.937-3.081,15.552-6.17,21.68-8.834c23-10,63-36,66-36s65-52,65-52l32.973-32.973
			L365.43,176.893"/>
		<path fill="#789FA9" d="M419.169,177.639c5.126,0.83,11.536,1.863,17.968,2.886l0.293-2.632L419.169,177.639"/>
		<path fill="#E0DA65" d="M478.377,304.975c-2.562,0-6.536,1.254-15.947,3.606c-20,5-67,20.521-102,37s-103,69.362-117,78.034
			c-3.685,2.282-9.515,3.123-16.108,3.123c-18.46,0-42.892-6.592-42.892-6.592l-8.601,43.094l39.257,4.461l26.7,1.654
			c2.609-2.354,8.797-7.921,16.9-15.104l4.743-5.484c0,0,7.61-6.259,19.449-15.696c17.609-15.203,36.666-31.126,48.551-39.489
			c7.127-5.016,15.648-10.449,24.33-15.73c45.877-31.353,110.67-57.27,110.67-57.27l0.89,0.099
			c5.722-2.187,10.245-3.563,12.569-3.563c0.762,0,1.288,0.148,1.541,0.464c0.901,1.127,1.498,2.862,1.882,4.876l1.118,0.124l1-14
			C482,306.132,480.84,304.975,478.377,304.975"/>
		<path fill="#DBE5EA" d="M175.829,463.241l-0.282,1.416c1.793,0.302,3.538,0.609,5.188,0.917l34.351,2.128L175.829,463.241
			 M258.687,454.251c-8.104,7.184-14.291,12.75-16.9,15.104l3.644,0.226L258.687,454.251 M355.76,377.851
			c-8.682,5.281-17.203,10.715-24.33,15.73c-11.885,8.363-30.941,24.286-48.551,39.489c17.094-13.626,43.004-33.879,67.551-51.489
			C352.173,380.331,353.952,379.086,355.76,377.851 M479.889,317.117c-2.324,0-6.848,1.376-12.569,3.563l15.992,1.777
			c-0.384-2.014-0.98-3.749-1.882-4.876C481.177,317.265,480.65,317.117,479.889,317.117"/>
		<path fill="#BCCFD5" d="M175.547,464.657l-0.117,0.588l5.306,0.329C179.085,465.266,177.34,464.958,175.547,464.657"/>
		<path fill="#E0DA65" d="M539.43,295.582l-13,30c0,0,2.806,0.624,5.457,4.307c3.113,0.986,2.543,2.693,2.543,2.693l8.219,41.841
			c2.037,6.09,3.781,10.159,3.781,10.159l-9,63v13.756c0.53,3.745,1.182,8.627,1.728,13.532c1.681,6.903,3.542,17.442,0.272,20.712
			l0,0l0,0c-3.395,3.395-8.632,7.71-11.646,10.132c0.263,3.656,0.539,9.189,0.31,14.308c0.519,5.318,0.004,10.727-3.664,12.561l0,0
			l0,0c-0.013,0.007-0.025,0.013-0.037,0.019c-5.992,2.998-12.963,6.981-12.963,6.981l0,0c0,0-1,13-6,16
			c-1.048,0.629-3.326,1.565-6.273,2.653c-1.965,1.446-4.199,2.624-6.727,3.347c-10.236,2.925-35.443,11.73-48.255,16.253
			c-8.782,3.555-18.489,7.562-26.138,10.922c-3.934,2.712-9.574,6.254-12.866,6.763c9.689-0.822,111.551-9.847,137.259-27.938
			c27-19,44-144,39-193S539.43,295.582,539.43,295.582"/>
		<path fill="#DBE5EA" d="M418.037,588.756c-7.147,3.14-12.497,5.715-13.607,6.825c0,0,0.254-0.021,0.741-0.062
			C408.463,595.01,414.104,591.468,418.037,588.756 M499.156,558.235c-11.112,4.1-31.727,10.347-31.727,10.347
			s-10.677,4.162-23.255,9.253c12.812-4.522,38.019-13.328,48.255-16.253C494.957,560.859,497.191,559.681,499.156,558.235
			 M524.393,532.6c-7.979,3.991-12.963,6.981-12.963,6.981l0,0l0,0C511.43,539.582,518.4,535.598,524.393,532.6 M524.43,532.582
			L524.43,532.582L524.43,532.582L524.43,532.582L524.43,532.582 M527.784,505.713c-1.426,1.146-2.354,1.868-2.354,1.868
			s2.053,6.157,2.664,12.439C528.323,514.903,528.047,509.37,527.784,505.713 M539.43,495.582L539.43,495.582L539.43,495.582
			L539.43,495.582L539.43,495.582 M537.43,461.337v7.244c0,0,0.839,2.635,1.728,6.288
			C538.611,469.964,537.96,465.083,537.43,461.337 M531.887,329.888c2.099,2.914,4.102,7.742,4.543,15.693
			c0.56,10.078,3.627,21.095,6.219,28.841l-8.219-41.841C534.43,332.582,535,330.875,531.887,329.888"/>
		<path d="M209.779,108.082c-1.883-1.784-4.232-2.917-6.731-3.417c-1.256-0.257-2.549-0.28-3.853-0.186
			c-0.637,0.095-1.307,0.147-1.935,0.329l-0.964,0.249l-0.815,0.245c-4.292,1.322-8.68,3.026-14.104,5.581
			c-4.89,2.329-14.681,6.99-26.616,12.673c-11.302,5.393-23.617,11.271-36.297,17.322c-6.339,3.026-12.77,6.095-19.208,9.169
			c-3.22,1.537-6.441,3.075-9.655,4.609c-1.607,0.767-3.212,1.534-4.814,2.298l-3.851,1.839l-0.6,0.287l-0.085,0.123l-0.031,0.163
			l-0.063,0.327L79.905,161l-0.443,2.302c-5.309,27.778-10.242,54.279-13.401,74.049c-0.398,2.471-0.733,4.858-1.059,7.129
			c-0.143,1.156-0.282,2.282-0.417,3.374c-0.109,1.135-0.206,2.408-0.226,3.53c0.073,1.122,0.144,2.207,0.211,3.253
			c0.02,0.26,0.039,0.519,0.058,0.774c0.038,0.241,0.076,0.479,0.113,0.715c0.075,0.472,0.148,0.935,0.221,1.388
			c0.149,0.903,0.275,1.784,0.43,2.596c0.173,0.797,0.338,1.557,0.494,2.277c0.597,2.908,1.208,5.047,1.564,6.557
			c0.384,1.479,0.587,2.262,0.587,2.262s0.317,1.203,0.909,3.448c0.582,2.226,1.461,5.488,2.444,9.581
			c0.27,1.028,0.47,2.096,0.719,3.222c0.12,0.562,0.243,1.137,0.369,1.725c0.063,0.294,0.127,0.591,0.191,0.891
			c0.049,0.281,0.099,0.564,0.149,0.851c0.39,2.298,0.594,4.977,0.834,7.961c0.276,3,0.467,6.3,1.519,10.1
			c0.552,1.886,1.37,3.965,2.916,5.933c1.553,1.969,3.981,3.527,6.413,4.172c2.436,0.657,4.785,0.66,6.961,0.426
			c2.18-0.25,4.271-0.706,6.3-1.289c3.963-1.145,8.268-2.801,12.13-5.666c3.898-2.824,7.061-7.123,8.783-11.787
			c0.259-0.577,0.398-1.17,0.585-1.759c0.17-0.59,0.365-1.183,0.511-1.777c0.226-1.184,0.557-2.388,0.682-3.572
			c0.169-1.19,0.329-2.386,0.392-3.564c0.109-1.19,0.145-2.364,0.169-3.539c0.06-2.353-0.015-4.671-0.108-6.987l-0.092-1.725
			l-0.049-0.863l-0.024-0.444c-0.031-0.276,0.004-0.55-0.081-0.827c-0.273-1.181-0.549-2.365-0.824-3.552
			c-1.029-4.438-2.068-8.917-3.112-13.415c-0.521-2.249-1.045-4.502-1.568-6.759l-0.785-3.385l-0.196-0.847
			c-0.023-0.101-0.017-0.072-0.018-0.075v0.001l0.001,0.003l-0.001,0.006l-0.001,0.003l0.126-0.406
			c1.367-4.43,2.733-8.86,4.095-13.27c2.852-9.244,5.712-18.515,8.47-27.454c0.345-1.117,0.688-2.229,1.029-3.336l0.451-1.465
			l-0.004,0.011c0.505-0.247,1.005-0.491,1.496-0.732c1.268-0.619,2.496-1.22,3.673-1.795c4.706-2.309,8.59-4.214,10.798-5.297
			c10.746-5.312,16.264-9.506,24.17-16.137c-10.092,2.153-16.793,3.924-27.592,9.127c-2.212,1.074-6.104,2.964-10.818,5.253
			c-1.179,0.574-2.408,1.173-3.676,1.791c-1.36,0.664-2.742,1.338-4.141,2.02l-0.388,0.189c-0.077,0.107-0.094,0.267-0.145,0.397
			l-0.255,0.825l-0.51,1.654c-0.189,0.613-0.379,1.228-0.569,1.844c-0.341,1.106-0.685,2.218-1.029,3.336
			c-2.758,8.938-5.618,18.209-8.47,27.454c-1.36,4.41-2.727,8.84-4.094,13.271l-0.388,1.259l-0.258,0.834
			c-0.022,0.14-0.132,0.276-0.082,0.418l0.099,0.425l0.573,2.47l0.786,3.385c0.524,2.256,1.048,4.51,1.569,6.758
			c1.045,4.498,2.085,8.976,3.116,13.414c0.239,1.033,0.479,2.062,0.718,3.09c0.053,0.972,0.106,1.942,0.159,2.909
			c0.089,2.19,0.157,4.357,0.104,6.458c-0.107,4.19-0.534,8.232-1.84,11.637c-1.296,3.403-3.333,6.194-6.117,8.244
			c-0.741,0.465-1.429,0.98-2.185,1.417c-0.794,0.394-1.559,0.817-2.353,1.195c-0.834,0.329-1.662,0.655-2.483,0.979
			c-0.846,0.297-1.737,0.581-2.589,0.831c-1.717,0.496-3.39,0.846-4.955,1.029c-1.562,0.182-2.988,0.112-4.064-0.184
			c-1.071-0.32-1.764-0.784-2.397-1.53c-0.612-0.78-1.128-1.904-1.498-3.199c-0.743-2.612-0.993-5.661-1.242-8.568
			c-0.241-2.938-0.45-5.824-0.921-8.617c-0.062-0.349-0.122-0.694-0.183-1.036c-0.068-0.318-0.136-0.632-0.202-0.944
			c-0.134-0.623-0.265-1.232-0.393-1.828c-0.262-1.187-0.482-2.34-0.758-3.39c-1.026-4.257-1.911-7.532-2.5-9.78
			c-0.589-2.226-0.904-3.418-0.904-3.418s-0.199-0.771-0.576-2.225c-0.338-1.438-0.947-3.588-1.491-6.266
			c-0.146-0.672-0.3-1.381-0.462-2.125c-0.139-0.736-0.242-1.494-0.375-2.292c-0.063-0.398-0.129-0.805-0.195-1.219
			c-0.034-0.207-0.068-0.417-0.103-0.627c-0.013-0.201-0.025-0.403-0.038-0.608c-0.056-0.816-0.113-1.662-0.173-2.538
			c-0.019-0.434,0.054-0.851,0.072-1.288c0.042-0.453,0.036-0.832,0.111-1.365c0.128-1.023,0.259-2.076,0.393-3.159
			c0.316-2.195,0.643-4.518,1.038-6.958c3.132-19.541,8.08-46.067,13.386-73.779l0.059-0.307v0.002l-0.001,0.004l-0.003,0.007
			l-0.006,0.003l0.953-0.455c1.601-0.764,3.204-1.529,4.81-2.295c3.212-1.533,6.432-3.069,9.648-4.604
			c6.435-3.07,12.859-6.136,19.193-9.159c12.668-6.046,24.974-11.92,36.265-17.309c11.915-5.701,21.688-10.377,26.571-12.713
			c5.393-2.608,9.481-4.949,13.221-7.461c0.422-0.281,0.842-0.56,1.26-0.838c0.375-0.279,0.788-0.452,1.194-0.697
			c0.834-0.391,1.726-0.772,2.708-0.994C204.991,107.516,207.298,107.396,209.779,108.082z"/>
		<path d="M223.209,82.255c-2.053-1.579-4.229-2.729-6.496-3.568c-2.272-0.828-4.682-1.326-7.285-1.262
			c-0.648,0.046-1.31,0.093-1.979,0.173c-0.663,0.129-1.345,0.25-2.025,0.429c-0.657,0.215-1.39,0.446-2.018,0.701
			c-0.585,0.263-1.179,0.529-1.784,0.801c-2.424,1.104-4.893,2.596-7.46,4.562c-0.407,0.329-0.897,0.668-1.622,1.305
			c-0.363,0.319-0.803,0.668-1.318,1.151c-0.258,0.24-0.539,0.502-0.846,0.789c-0.13,0.129-0.266,0.263-0.406,0.404l0.006-0.006
			c-1.178,0.489-2.602,1.08-5.15,2.137c-9.28,3.896-24.912,10.461-38.225,16.051c-13.288,5.656-24.26,10.327-24.26,10.327
			s-9.175,3.944-20.893,8.982c-5.853,2.544-12.331,5.382-18.607,8.232c-3.145,1.436-6.214,2.844-9.2,4.35
			c-0.38,0.197-0.757,0.393-1.132,0.587l-0.284,0.151l-0.387,0.22c-0.337,0.208-0.713,0.386-1.014,0.618
			c-0.295,0.238-0.673,0.404-0.896,0.698l-0.758,0.811c-0.172,0.33-0.339,0.662-0.479,1.001l-0.22,0.504l-0.127,0.543
			c-0.204,0.714-0.231,1.467-0.317,2.133c-0.015,0.433-0.047,0.896-0.042,1.292c-0.009,0.826,0.011,1.592,0.041,2.329l0.003,0.054
			c0.236,4.827,0.702,8.483,1.021,11.433c0.355,2.919,0.616,5.065,0.796,6.54c1.529,11.921,3.752,18.406,7.186,28.132
			c1.526-10.211,1.959-17.209,0.558-29.082c-0.17-1.459-0.417-3.584-0.753-6.474c-0.305-2.864-0.755-6.558-0.959-10.869
			l-0.003-0.047c-0.025-0.644-0.041-1.295-0.033-1.918c-0.005-0.328,0.021-0.596,0.028-0.902l0.005-0.063l-0.009,0.013l-0.019,0.011
			l0.365-0.198c0.328-0.17,0.658-0.341,0.99-0.513c2.742-1.384,5.804-2.793,8.892-4.204c6.199-2.819,12.654-5.655,18.481-8.197
			c11.683-5.045,20.83-8.995,20.83-8.995s10.966-4.648,24.246-10.277c13.302-5.584,28.921-12.142,38.194-16.035
			c3.286-1.375,5.123-2.143,6.642-2.778c0.312-0.327,0.612-0.641,0.9-0.941c0.15-0.152,0.295-0.299,0.433-0.439
			c0.248-0.231,0.476-0.444,0.684-0.638c0.412-0.392,0.795-0.694,1.094-0.96c0.599-0.537,1.025-0.832,1.367-1.115
			c2.173-1.697,4.197-3.136,6.143-4.374c0.483-0.318,0.958-0.631,1.425-0.938c0.41-0.246,0.813-0.488,1.211-0.727
			c0.421-0.206,0.837-0.408,1.248-0.609c0.441-0.171,0.88-0.34,1.314-0.509c1.802-0.606,3.769-0.972,5.906-1.127
			C218.351,81.808,220.673,81.825,223.209,82.255z"/>
		<path d="M86.848,140.107c1.424-4.918,2.608-9.011,3.841-13.267c0.583-2.083,1.177-4.206,1.818-6.5
			c0.331-1.115,0.676-2.255,1.068-3.386c0.391-1.115,0.852-2.263,1.353-3.115c0.081-0.128,0.169-0.268,0.264-0.418l0.258-0.312
			l0.091-0.101l0.008,0.011l-0.005-0.003l-0.067-0.097l-0.129-0.208l-0.06-0.112l-0.029-0.058c0.122,1.169,0.035,0.323,0.062,0.584
			l0.003-0.001l0.004-0.002l0.009-0.004l0.019-0.008l0.145-0.067c0.098-0.045,0.197-0.091,0.299-0.139
			c0.203-0.095,0.414-0.193,0.634-0.295c0.901-0.446,1.853-0.813,2.965-1.258c0.558-0.226,1.155-0.468,1.797-0.728
			c0.692-0.268,1.433-0.555,2.225-0.861c6.647-2.582,18.003-6.791,27.681-10.335c9.689-3.529,17.69-6.443,17.69-6.443
			s26.854-9.601,41.743-14.923c5.094-1.813,9.12-3.248,9.893-3.522c0.638-0.538,1.228-1.035,1.772-1.495
			c0.385-0.312,0.739-0.6,1.066-0.865c0.662-0.521,1.214-0.956,1.684-1.325c0.951-0.717,1.569-1.184,2.082-1.57
			c2.312-1.702,4.38-3.167,6.24-4.347c0.919-0.579,1.816-1.106,2.538-1.439c0.853-0.348,0.727-0.475,1.813-0.444
			c1.799,0.072,3.89,0.538,6.011,1.084c2.138,0.563,4.385,1.237,6.809,2.11c-1.737-1.912-3.471-3.57-5.303-5.051
			c-1.857-1.464-3.742-2.799-6.286-3.733c-0.303-0.128-0.676-0.207-1.022-0.305c-0.176-0.045-0.356-0.094-0.561-0.135
			c-0.248-0.033-0.5-0.059-0.754-0.079c-0.969-0.039-1.808,0.067-2.55,0.223c-1.51,0.311-2.781,0.806-4.059,1.368
			c-2.524,1.141-4.935,2.62-7.469,4.442c-0.564,0.405-1.237,0.9-2.256,1.678c-0.504,0.394-1.096,0.856-1.807,1.412
			c-0.544,0.444-1.179,0.961-1.928,1.572c-0.667,0.236-4.146,1.467-8.547,3.023c-7.45,2.664-17.895,6.398-26.476,9.467
			c-8.573,3.096-15.285,5.52-15.285,5.52s-32.081,11.5-45.573,16.807c-0.809,0.314-1.564,0.609-2.272,0.885
			c-0.751,0.308-1.45,0.594-2.103,0.861c-1.311,0.537-2.44,1-3.276,1.417c-0.22,0.103-0.43,0.202-0.633,0.297
			c-0.102,0.048-0.2,0.094-0.298,0.14l-0.145,0.068l-0.249,0.133l-0.066,0.043l-0.131,0.087c-0.344,0.232-0.676,0.472-0.966,0.708
			c-0.242,0.229-0.471,0.455-0.685,0.676c-0.432,0.445-0.672,0.822-0.965,1.197c-0.234,0.355-0.426,0.677-0.611,0.981
			c-0.984,1.755-1.478,3.3-1.89,4.763c-0.393,1.458-0.65,2.824-0.846,4.132c-0.363,2.61-0.47,4.991-0.424,7.296
			C85.115,130.742,85.752,135.06,86.848,140.107z"/>
		<path d="M101.309,105.5c2.774-4.33,5.368-7.708,8.076-10.888c1.352-1.568,2.806-3.083,4.327-4.18
			c0.366-0.225,0.739-0.455,1.12-0.689c0.181-0.062,0.355-0.131,0.527-0.209l0.257-0.124l0.463-0.157
			c1.283-0.429,2.619-0.898,4.023-1.414c1.901-0.706,4.995-1.855,11.425-4.242c10.274-3.843,34.614-12.946,34.614-12.946
			s4.467-1.66,10.409-3.869c2.971-1.105,6.31-2.349,9.644-3.59c1.667-0.621,3.332-1.242,4.949-1.845
			c0.404-0.151,0.806-0.3,1.203-0.449l0.919-0.343c0.21-0.058,0.386-0.172,0.555-0.299l0.493-0.336
			c0.67-0.443,1.325-0.876,1.96-1.296c0.853-0.542,1.664-1.059,1.769-1.126c3.76-2.335,6.918-4.061,9.285-5.031
			c1.185-0.519,2.169-0.776,2.685-0.865c0.097-0.004,0.187-0.019,0.274-0.044c0.207,0.01,0.405,0.019,0.595,0.028
			c0.387,0.017,0.736,0.033,1.051,0.047c2.709,0.226,5.326,0.546,7.735,0.789c1.209,0.125,2.381,0.236,3.524,0.329
			c0.573,0.044,1.139,0.087,1.699,0.13l0.837,0.058l0.416,0.026l0.683,0.083c0.119,0.011,0.236,0.039,0.355,0.036l0.358-0.059
			c0.213-0.038,0.527-0.083,0.65-0.115l0.814-0.197l1.621-0.414c1.079-0.285,2.158-0.589,3.253-0.913
			c2.189-0.647,4.443-1.374,6.892-2.187c-2.544-0.429-4.882-0.802-7.145-1.107c-1.132-0.152-2.244-0.288-3.354-0.405l-1.666-0.161
			l-0.835-0.07c-0.196-0.035-0.195-0.057-0.287-0.12c-0.052-0.032-0.025-0.047-0.136-0.09l-0.405-0.144l-0.818-0.284
			c-0.552-0.178-1.108-0.356-1.671-0.538c-1.133-0.347-2.304-0.675-3.537-0.979c-2.475-0.603-5.141-1.141-8.401-1.445
			c-0.426-0.023-0.9-0.048-1.426-0.077c-0.267-0.011-0.546-0.023-0.839-0.036c-0.41,0.024-0.842,0.06-1.288,0.11
			c-1.636,0.251-3.11,0.734-4.622,1.371c-3.064,1.259-6.429,3.123-10.456,5.612c-0.111,0.071-0.974,0.618-1.88,1.193
			c-0.68,0.449-1.382,0.913-2.1,1.387l-0.02,0.014l0.008-0.003l-0.277,0.104c-0.398,0.149-0.801,0.299-1.206,0.451
			c-1.62,0.606-3.289,1.23-4.959,1.854c-3.34,1.25-6.685,2.503-9.661,3.617c-5.949,2.231-10.423,3.909-10.423,3.909
			s-24.41,9.098-34.714,12.938c-6.436,2.416-9.532,3.579-11.436,4.293c-1.403,0.532-2.722,1.054-3.973,1.572l-0.479,0.204
			l-0.63,0.332c-0.416,0.225-0.821,0.454-1.215,0.688c-0.696,0.507-1.345,1.034-1.929,1.566c-2.211,2.185-3.468,4.429-4.463,6.627
			C102.606,95.997,101.738,100.349,101.309,105.5z"/>
		<path d="M204.098,168.516c3.825-0.491,7.29-0.106,10.243,0.691c2.976,0.785,5.354,2.204,7.206,3.948
			c0.456,0.456,0.935,0.852,1.312,1.4c0.4,0.508,0.838,0.956,1.164,1.564c0.845,1.202,1.185,1.999,1.547,3.228
			c0.722,2.388,0.918,5.736,0.661,9.596c-0.225,3.134-1.115,8.886-3.684,15.583l-0.116,0.315l-0.082,0.219l-0.161,0.395
			c-0.216,0.527-0.432,1.057-0.649,1.59c-0.472,1.05-0.922,2.124-1.454,3.171c-1.016,2.117-2.173,4.213-3.456,6.259
			c-2.539,4.111-5.642,8.006-9.215,11.351c-0.911,0.809-1.825,1.621-2.792,2.349c-0.469,0.391-0.968,0.724-1.461,1.07l-0.74,0.521
			l-0.866,0.567c-2.348,1.51-4.713,3.03-7.089,4.557c-4.817,3.06-9.681,6.148-14.544,9.237c-9.739,6.237-19.45,12.611-28.577,19.261
			c-4.56,3.336-8.978,6.733-13.153,10.314c-4.158,3.635-8.122,7.305-11.556,11.952c-0.846,1.207-1.666,2.449-2.392,3.899
			l-0.274,0.528l-0.248,0.6l-0.477,1.204c-0.179,0.428-0.241,0.739-0.34,1.086l-0.272,1.021c-0.175,0.68-0.368,1.352-0.514,2.029
			c-0.108,0.685-0.216,1.365-0.322,2.04c-0.256,1.349-0.268,2.693-0.349,4.013c-0.183,5.3,0.922,10.109,2.356,14.246
			c0.725,2.076,1.575,3.988,2.49,5.756c0.167,0.312,0.608,1.177,1.036,1.878c0.438,0.719,0.87,1.429,1.296,2.128
			c0.463,0.65,0.92,1.293,1.369,1.925c0.461,0.61,0.914,1.213,1.361,1.806c0.225,0.299,0.448,0.596,0.671,0.891l0.164,0.212
			l0.272-0.087l0.541-0.174c0.709-0.228,1.405-0.451,2.092-0.672c1.338-0.434,2.631-0.853,3.878-1.256
			c0.963-0.316,1.89-0.621,2.78-0.914c0.604-0.203,1.182-0.398,1.734-0.586c13.987-4.729,25.243-9.084,34.327-13.136
			c2.246-1.046,4.454-1.994,6.361-2.955c1.932-0.951,3.742-1.843,5.438-2.678c3.375-1.69,6.29-3.151,8.796-4.407
			c9.979-5.098,13.425-6.859,13.425-6.859s0.858-0.44,2.478-1.271c1.611-0.848,3.98-2.093,7.012-3.687
			c3.029-1.597,6.73-3.517,10.955-5.84c4.231-2.309,9.044-4.865,14.254-7.878c2.609-1.498,5.35-3.006,8.166-4.675
			c2.806-1.706,5.716-3.475,8.716-5.299c1.506-0.867,3.01-1.953,4.542-2.985c1.53-1.045,3.082-2.105,4.652-3.179l1.177-0.81
			l1.093-0.851c0.729-0.568,1.465-1.14,2.203-1.715c1.479-1.15,2.973-2.314,4.482-3.489c12.065-9.4,25.117-19.568,38.472-29.973
			c6.621-5.184,13.316-10.426,20.003-15.661c3.446-2.703,6.89-5.405,10.32-8.096c2.062-1.756,3.598-3.479,5.098-5.187
			c1.477-1.706,2.836-3.39,4.166-5.043c2.649-3.298,5.173-6.505,7.732-9.266c1.271-1.379,2.562-2.612,3.753-3.54
			c0.585-0.439,1.143-0.798,1.565-1.012c0.092-0.033,0.181-0.07,0.268-0.114l0.184-0.061l0.076-0.018
			c0.001-0.022,0.013,0.048-0.001-0.09c-0.027-0.197,0.017,0.094,0.041,0.075l0.059-0.004l0.235-0.019
			c0.646-0.058,1.653-0.085,2.561-0.1c0.937-0.012,1.892-0.018,2.852-0.008c1.917,0.012,3.846,0.057,5.758,0.116
			c1.917,0.075,3.816,0.148,5.696,0.221c1.781,0.093,3.544,0.185,5.287,0.276c11.716,0.681,21.282,1.695,26.027,2.258
			c4.39,0.506,8.295,0.922,11.916,1.266c3.623,0.338,6.969,0.588,10.217,0.841c3.248,0.254,6.435,0.444,9.678,0.852
			c0.815,0.097,1.613,0.237,2.452,0.353c0.823,0.135,1.628,0.325,2.487,0.492c1.62,0.46,3.354,0.927,4.925,2.073
			c-0.854-1.766-2.296-3.147-3.702-4.415c-0.73-0.566-1.464-1.165-2.215-1.688c-0.754-0.499-1.51-1.022-2.274-1.481
			c-3.062-1.864-6.175-3.289-9.423-4.553c-3.252-1.263-6.649-2.292-10.363-3.175c-3.716-0.888-7.749-1.611-12.285-2.181
			c-4.915-0.633-14.742-1.699-26.751-2.406c-1.791-0.094-3.602-0.189-5.432-0.285c-1.94-0.076-3.901-0.152-5.88-0.229
			c-1.984-0.061-3.988-0.109-6.037-0.122c-1.023-0.01-2.059-0.005-3.121,0.009c-1.09,0.023-2.09,0.033-3.449,0.147
			c-0.55,0.028-1.714,0.204-2.563,0.457c-0.418,0.132-0.875,0.265-1.253,0.422l-1.126,0.49c-1.394,0.693-2.531,1.468-3.575,2.254
			c-2.03,1.581-3.688,3.223-5.219,4.871c-3.049,3.298-5.675,6.665-8.288,9.911c-1.302,1.619-2.593,3.215-3.883,4.706
			c-1.281,1.472-2.604,2.899-3.783,3.892c-3.253,2.551-6.518,5.112-9.785,7.674c-6.75,5.287-13.51,10.582-20.193,15.817
			c-13.302,10.373-26.302,20.51-38.318,29.882c-1.501,1.17-2.987,2.328-4.456,3.474c-0.734,0.572-1.465,1.142-2.191,1.708
			l-1.086,0.846l-1.085,0.743c-1.441,0.983-2.864,1.954-4.268,2.912c-1.413,0.952-2.746,1.93-4.233,2.787
			c-2.896,1.762-5.703,3.471-8.412,5.12c-2.734,1.623-5.442,3.115-7.995,4.583c-5.096,2.953-9.865,5.49-14.041,7.772
			c-4.167,2.296-7.838,4.204-10.839,5.788c-3.002,1.582-5.35,2.818-6.945,3.659c-1.606,0.825-2.457,1.263-2.457,1.263
			s-3.421,1.746-13.323,6.798c-2.484,1.243-5.376,2.69-8.721,4.364c-1.676,0.825-3.466,1.705-5.375,2.644
			c-1.918,0.965-3.897,1.803-6.032,2.799c-8.567,3.819-19.572,8.085-33.27,12.71c-0.799,0.268-1.747,0.586-2.825,0.947l0.005,0.005
			l0.002,0.003l-0.195-0.378c-0.684-1.323-1.322-2.761-1.851-4.29c-1.052-3.051-1.823-6.472-1.679-10.012
			c0.069-0.879,0.046-1.785,0.237-2.669c0.067-0.447,0.136-0.896,0.204-1.35c0.1-0.447,0.238-0.888,0.352-1.337l0.176-0.676
			c0.059-0.219,0.112-0.488,0.183-0.599c0.065-0.147,0.126-0.296,0.184-0.447l0.082-0.229l0.146-0.264
			c0.22-0.36,0.338-0.702,0.621-1.097c0.269-0.388,0.496-0.777,0.79-1.178c2.382-3.251,5.91-6.639,9.695-9.915
			c3.83-3.282,8.032-6.518,12.417-9.722c8.792-6.402,18.339-12.672,27.988-18.848c4.854-3.083,9.708-6.166,14.517-9.219
			c2.42-1.556,4.828-3.104,7.219-4.641l0.899-0.589l0.986-0.688c0.655-0.459,1.316-0.912,1.927-1.411
			c1.264-0.958,2.436-1.99,3.591-3.025c4.519-4.227,8.213-8.927,11.213-13.773c1.514-2.418,2.865-4.873,4.054-7.347
			c0.618-1.226,1.148-2.479,1.696-3.708c0.254-0.624,0.507-1.244,0.759-1.861l0.188-0.462l0.096-0.257l0.137-0.369
			c2.992-7.829,4.101-14.841,4.351-18.97c0.262-5.08-0.181-9.935-2.284-14.465c-0.234-0.559-0.553-1.113-0.873-1.654l-0.479-0.801
			l-0.567-0.775c-0.766-1.102-1.554-1.747-2.33-2.536c-0.735-0.782-1.646-1.409-2.514-2.027c-0.837-0.653-1.808-1.122-2.742-1.588
			c-3.791-1.807-7.878-2.265-11.597-1.631C210.791,164.867,207.275,166.275,204.098,168.516z"/>
		<path d="M271.246,47.65c7.51,1.879,13.796,3.362,20.455,4.416c6.656,1.061,13.686,1.586,22.648,1.834
			c3.038,0.062,7.981,0.164,18.254,0.375c6.713,0.058,17.939,0.589,27.524,0.901c4.787,0.195,9.166,0.276,12.332,0.492
			c3.163,0.236,5.134,0.382,5.134,0.382s6.597,0.516,15.021,1.175c4.213,0.329,8.883,0.694,13.413,1.048
			c4.541,0.449,8.942,0.884,12.607,1.247c13.652,1.337,22.103,2.165,26.516,2.597c17.856,1.881,28.198,0.921,43.55-1.038
			c-14.484-5.465-24.431-8.531-42.318-10.598c-4.426-0.485-12.914-1.32-26.624-2.688c-3.681-0.365-8.103-0.803-12.663-1.254
			c-4.588-0.349-9.316-0.709-13.582-1.034c-8.533-0.636-15.215-1.134-15.215-1.134s-1.995-0.156-5.198-0.407
			c-3.204-0.23-7.621-0.328-12.458-0.538c-9.67-0.341-21.045-0.893-27.766-0.914c-10.322-0.176-15.289-0.26-18.342-0.312
			c-9.011-0.159-16.071,0.373-22.764,1.28C285.082,44.395,278.758,45.792,271.246,47.65z"/>
		<path d="M98.468,309.009c-5.673,5.634-10.322,10.433-14.767,15.802c-1.111,1.342-2.21,2.719-3.308,4.154l-0.412,0.542
			l-0.104,0.136c-0.03,0.039-0.066,0.087-0.136,0.19l-0.359,0.528c-0.218,0.363-0.533,0.691-0.676,1.094l-0.338,1.254
			c-0.282,0.967-0.568,1.948-0.859,2.947c-1.062,3.73-2.046,7.784-2.966,12.376c-0.3,1.561-0.694,3.61-1.268,6.59
			c-0.269,1.498-0.578,3.23-0.939,5.252c-0.17,1.018-0.352,2.109-0.547,3.279c-0.166,1.083-0.338,2.202-0.516,3.36
			c-0.18,1.231-0.354,2.503-0.513,3.804c-0.267,2.218-0.62,5.287-0.479,7.979c0.077,1.336,0.348,2.452,0.72,3.328
			c0.364,0.894,0.901,1.418,1.331,2.005c0.47,0.574,0.942,0.888,1.684,1.3c0.937,0.445,1.436,0.581,1.916,0.665
			c0.926,0.146,1.549,0.081,1.549,0.081s0.132-0.009,0.371-0.023c0.252-0.039,0.602-0.068,1.096-0.208
			c0.963-0.254,2.491-0.869,4.451-2.527c1.94-1.604,4.17-3.857,6.279-6.133c1.055-1.14,2.089-2.285,3.059-3.378
			c0.504-0.575,0.981-1.121,1.416-1.617c4.745-5.465,8.398-9.953,11.289-13.517c2.882-3.565,4.968-6.21,6.395-8.035
			c0.37-0.479,0.734-0.95,1.095-1.416l0.515-0.668l0.254-0.334l0.176-0.379c0.181-0.393,0.36-0.783,0.538-1.17
			c0.444-1.009,0.877-1.991,1.3-2.951c0.829-1.926,1.588-3.775,2.288-5.569c1.399-3.589,2.561-6.959,3.575-10.293
			c2.029-6.668,3.47-13.191,5.042-21.03c-5.062,6.188-9.192,11.44-13.06,17.239c-1.934,2.898-3.802,5.935-5.688,9.293
			c-0.943,1.679-1.892,3.438-2.854,5.302c-0.474,0.936-0.959,1.893-1.456,2.876l-0.167,0.333h-0.007l-0.012-0.005
			c-0.339,0.423-0.682,0.851-1.029,1.285c-1.428,1.774-3.508,4.36-6.335,7.874c-2.847,3.489-6.461,7.912-11.032,13.167
			c-0.396,0.449-0.832,0.944-1.292,1.466l0.012-0.01l0.021-0.001l-0.001,0.042l0.039-0.062l-0.002,0.048l-0.003,0.011l-0.002,0.005
			l-0.001,0.001l0.001-0.003l0.033-0.212c0.186-1.127,0.358-2.177,0.521-3.157c0.346-1.967,0.643-3.652,0.899-5.11
			c0.544-2.923,0.918-4.934,1.203-6.465c0.858-4.522,1.54-8.581,2.064-12.37c0.063-0.473,0.127-0.941,0.189-1.407l0.09-0.694
			c0.024-0.213,0.078-0.542,0.042-0.483l-0.062-0.2l-0.006-0.055l0.04-0.102l0.073-0.154l0.29-0.615
			c0.765-1.638,1.479-3.248,2.155-4.854C93.99,322.986,96.096,316.645,98.468,309.009z"/>
		<path d="M116.29,272.854c10.917-11.685,17.865-19.876,26.975-36.062c1.534-2.747,4.03-7.217,9.22-16.505
			c14.502-26.093,48.86-87.909,48.86-87.909s28.8-51.719,44.766-80.392c6.885-12.421,11.146-20.109,13.372-24.125
			c8.949-16.278,12.243-26.5,16.413-41.937c-10.917,11.683-17.864,19.874-26.977,36.061c-2.237,4.009-6.522,11.684-13.444,24.084
			c-15.94,28.687-44.693,80.432-44.693,80.432s-34.399,61.793-48.92,87.876c-5.155,9.307-7.636,13.786-9.16,16.538
			C123.755,247.193,120.459,257.416,116.29,272.854z"/>
		<path d="M141.083,281.118c10.908-11.693,17.85-19.89,26.947-36.082c1.532-2.748,4.025-7.22,9.207-16.512
			c15.117-27.246,50.931-91.794,50.931-91.794s30.018-54.005,46.659-83.945c6.876-12.427,11.132-20.118,13.354-24.135
			c8.936-16.285,12.223-26.51,16.381-41.95c-10.908,11.691-17.85,19.888-26.949,36.082c-2.234,4.01-6.514,11.688-13.426,24.095
			c-16.616,29.955-46.587,83.986-46.587,83.986s-35.855,64.524-50.99,91.761c-5.148,9.311-7.626,13.792-9.148,16.545
			C148.528,255.451,145.24,265.676,141.083,281.118z"/>
		<path d="M440.664,179.878c-6.18,11.333-10.898,21.112-14.708,31.895c-0.946,2.699-1.828,5.467-2.638,8.355
			c-0.196,0.725-0.394,1.454-0.593,2.189l-0.285,1.114l-0.141,0.562l-0.069,0.282l-0.094,0.465c-0.125,0.63-0.251,1.262-0.377,1.897
			c-0.126,0.615-0.251,1.394-0.377,2.093c-0.264,1.442-0.471,2.896-0.698,4.382c-0.812,5.863-1.307,12.206-0.507,17.12
			c0.374,2.474,1.062,4.524,1.964,6.198c0.223,0.428,0.474,0.803,0.718,1.199c0.269,0.357,0.521,0.738,0.816,1.068
			c0.567,0.692,1.207,1.294,1.967,1.881c0.525,0.39,1.121,0.787,1.938,1.213c0.454,0.169,0.926,0.346,1.417,0.531l0.392,0.144
			l0.1,0.036l0.039,0.05l0.052,0.012l0.207,0.046c0.275,0.054,0.565,0.143,0.845,0.172c2.313,0.425,4.331,0.401,6.677-0.36
			c2.322-0.727,5.076-2.252,8.444-5.885c3.345-3.713,7.144-9.938,10.834-17.63c0.627-1.349,1.308-2.813,2.032-4.374
			c0.429-0.979,0.884-2.019,1.36-3.105c0.942-2.174,1.9-4.543,2.882-7.006c1.941-4.927,3.87-10.239,5.553-15.14
			c1.685-4.9,3.121-9.389,4.141-12.652c1.006-3.267,1.632-5.301,1.632-5.301s2.123-6.801,4.573-15.539
			c2.459-8.736,5.202-19.422,6.994-27.079c5.33-22.579,7.826-36.722,9.145-44.103c1.758-10.03,2.703-18.704,3.099-26.755
			c0.091-2.015,0.164-3.987,0.185-5.936c0.007-0.974,0.014-1.941,0.021-2.903c0.054-1.506,0.107-3.004,0.161-4.496
			c0.091-2.846,0.134-5.95,0.135-8.716c0.002-2.787-0.051-5.388-0.143-7.767c-0.11-0.034-0.315,0.028-0.511,0.081l-0.576,0.151
			l-1.139,0.304l-2.231,0.608c-1.418,0.407-2.843,0.815-4.275,1.227c-2.766,0.818-5.384,1.673-7.797,2.558
			c-1.199,0.438-2.39,0.901-3.385,1.336c-0.909,0.419-1.824,0.858-2.741,1.318c-0.917,0.46-1.84,0.946-2.753,1.481
			c-0.456,0.269-0.911,0.552-1.353,0.863c-0.427,0.314-0.902,0.652-1.166,1.126c0.444-0.285,0.952-0.343,1.451-0.421
			c0.503-0.064,1.006-0.102,1.509-0.127c1.006-0.048,2.004-0.056,2.995-0.047c0.99,0.021,1.97,0.042,2.939,0.062
			c0.887,0.049,1.562,0.142,2.215,0.241c1.292,0.199,2.319,0.446,3.13,0.716c0.405,0.135,0.756,0.277,1.059,0.423
			c0.15,0.073,0.289,0.147,0.417,0.223l0.183,0.114l0.084,0.058c0.03,0.017,0.068,0.024,0.014,0.128
			c-0.516,1.291-0.978,2.349-1.405,3.214c-0.431,0.889-0.796,1.438-1.188,2.298c-0.18,0.36-0.36,0.721-0.541,1.084
			c-0.245,0.909-0.492,1.823-0.74,2.743c-0.479,1.843-0.967,3.713-1.428,5.626c-1.878,7.649-3.604,15.963-5.417,25.729
			c-1.357,7.184-3.835,20.987-9.052,43.008c-1.777,7.461-4.419,17.88-6.77,26.38c-2.342,8.502-4.349,15.092-4.349,15.092
			s-0.617,1.961-1.608,5.109c-1.002,3.143-2.41,7.459-4.04,12.138c-1.629,4.678-3.479,9.719-5.299,14.328
			c-0.918,2.298-1.809,4.504-2.666,6.493c-0.591,1.359-1.129,2.599-1.589,3.657l0.037,0.052c-0.036,0.1-0.349,0.541-0.75,0.217
			l-0.153-0.154c-0.022-0.053-0.06-0.021-0.071-0.152l-0.05-0.329l-0.012-0.089l0.017-0.27l0.032-0.539l0.062-1.073
			c0.042-0.716,0.083-1.426,0.124-2.131c0.146-2.85,0.289-5.625,0.43-8.366C440.516,203.481,440.515,192.767,440.664,179.878z"/>
		<path d="M483.43,54.089c7.399,7.245,12.534,11.315,22.335,12.743c10.615,1.547,63.905,8.328,63.905,8.328
			s53.247,7.103,63.904,8.327c9.841,1.132,15.847-1.486,24.855-6.593c-7.399-7.246-12.534-11.314-22.335-12.745
			c-10.615-1.549-63.905-8.328-63.905-8.328s-53.247-7.104-63.904-8.328C498.445,46.365,492.439,48.982,483.43,54.089z"/>
		<path d="M425.43,254.894c5.111,6.589,8.639,10.208,15.25,10.806c7.161,0.648,43.091,2.921,43.091,2.921s35.907,2.597,43.09,2.921
			c6.632,0.3,10.616-2.81,16.569-8.649c-5.11-6.59-8.639-10.208-15.25-10.808c-7.161-0.65-43.09-2.921-43.09-2.921
			s-35.908-2.599-43.091-2.921C435.367,245.946,431.383,249.054,425.43,254.894z"/>
		<path d="M405.209,534.664c1.883,1.785,4.232,2.918,6.731,3.418c1.256,0.257,2.549,0.28,3.853,0.186
			c0.637-0.095,1.307-0.148,1.936-0.329l0.963-0.249l0.814-0.245c4.293-1.321,8.681-3.025,14.104-5.58
			c4.891-2.329,14.682-6.99,26.617-12.674c11.302-5.393,23.618-11.271,36.297-17.321c6.34-3.026,12.77-6.096,19.209-9.17
			c3.22-1.537,6.441-3.075,9.655-4.609c1.606-0.767,3.212-1.533,4.813-2.298l3.852-1.84l0.601-0.286l0.083-0.123l0.031-0.164
			l0.063-0.326l0.252-1.307l0.443-2.301c5.309-27.778,10.242-54.279,13.401-74.05c0.398-2.471,0.733-4.858,1.059-7.129
			c0.143-1.156,0.282-2.282,0.417-3.374c0.109-1.135,0.206-2.408,0.226-3.53c-0.073-1.122-0.144-2.207-0.211-3.253
			c-0.02-0.261-0.039-0.519-0.058-0.774c-0.038-0.241-0.076-0.479-0.113-0.715c-0.075-0.473-0.148-0.936-0.221-1.389
			c-0.149-0.903-0.275-1.783-0.43-2.596c-0.173-0.798-0.338-1.557-0.494-2.277c-0.597-2.907-1.208-5.047-1.564-6.557
			c-0.384-1.479-0.587-2.262-0.587-2.262s-0.317-1.203-0.909-3.448c-0.582-2.227-1.461-5.488-2.444-9.581
			c-0.27-1.027-0.47-2.096-0.719-3.222c-0.12-0.562-0.243-1.138-0.369-1.725c-0.063-0.294-0.127-0.591-0.191-0.891
			c-0.049-0.281-0.099-0.564-0.149-0.851c-0.39-2.298-0.594-4.977-0.835-7.961c-0.275-3.001-0.466-6.301-1.518-10.101
			c-0.552-1.886-1.37-3.965-2.916-5.933c-1.554-1.969-3.982-3.527-6.414-4.171c-2.436-0.658-4.784-0.661-6.96-0.427
			c-2.181,0.25-4.271,0.706-6.301,1.288c-3.963,1.145-8.268,2.802-12.13,5.667c-3.898,2.825-7.06,7.123-8.782,11.788
			c-0.259,0.576-0.398,1.169-0.585,1.759c-0.17,0.59-0.365,1.183-0.511,1.776c-0.226,1.184-0.557,2.389-0.682,3.573
			c-0.169,1.19-0.329,2.385-0.392,3.563c-0.109,1.19-0.145,2.364-0.169,3.539c-0.06,2.353,0.015,4.672,0.108,6.986l0.092,1.726
			l0.049,0.863l0.024,0.443c0.03,0.276-0.004,0.55,0.081,0.827c0.273,1.182,0.549,2.366,0.823,3.553
			c1.03,4.438,2.069,8.917,3.112,13.415c0.521,2.249,1.045,4.502,1.568,6.759l0.785,3.386l0.196,0.847
			c0.023,0.101,0.017,0.071,0.018,0.074v-0.001l-0.001-0.003l0.001-0.006l0.001-0.003l-0.125,0.405
			c-1.367,4.431-2.734,8.86-4.096,13.271c-2.852,9.244-5.711,18.516-8.469,27.454c-0.345,1.117-0.688,2.229-1.029,3.335
			l-0.451,1.467l0.004-0.011c-0.505,0.247-1.004,0.49-1.496,0.731c-1.267,0.619-2.496,1.22-3.673,1.795
			c-4.706,2.309-8.59,4.214-10.797,5.297c-10.747,5.312-16.265,9.506-24.171,16.138c10.092-2.153,16.793-3.924,27.592-9.127
			c2.213-1.074,6.104-2.964,10.819-5.253c1.178-0.574,2.407-1.174,3.675-1.791c1.361-0.664,2.743-1.338,4.142-2.021l0.388-0.189
			c0.076-0.107,0.094-0.266,0.144-0.397l0.255-0.824l0.51-1.654c0.189-0.612,0.379-1.228,0.569-1.844
			c0.341-1.105,0.685-2.218,1.029-3.335c2.757-8.938,5.617-18.21,8.47-27.454c1.359-4.41,2.727-8.84,4.093-13.271l0.388-1.259
			l0.258-0.833c0.022-0.14,0.131-0.276,0.082-0.419l-0.099-0.425l-0.573-2.47l-0.786-3.386c-0.523-2.256-1.047-4.51-1.569-6.759
			c-1.045-4.497-2.085-8.976-3.115-13.413c-0.24-1.032-0.479-2.062-0.718-3.09c-0.053-0.973-0.106-1.942-0.159-2.909
			c-0.089-2.191-0.157-4.357-0.104-6.458c0.107-4.19,0.534-8.232,1.84-11.637c1.296-3.403,3.333-6.195,6.117-8.244
			c0.74-0.465,1.429-0.98,2.185-1.418c0.794-0.394,1.558-0.816,2.353-1.195c0.833-0.329,1.661-0.655,2.482-0.979
			c0.846-0.298,1.738-0.58,2.589-0.831c1.718-0.496,3.39-0.846,4.955-1.029c1.562-0.182,2.988-0.111,4.064,0.185
			c1.072,0.32,1.764,0.784,2.398,1.53c0.611,0.78,1.127,1.904,1.497,3.198c0.744,2.613,0.993,5.661,1.242,8.568
			c0.242,2.938,0.45,5.824,0.922,8.616c0.062,0.349,0.122,0.694,0.183,1.036c0.068,0.318,0.136,0.633,0.202,0.944
			c0.134,0.622,0.265,1.231,0.392,1.827c0.263,1.188,0.483,2.341,0.759,3.391c1.025,4.256,1.911,7.531,2.5,9.779
			c0.589,2.226,0.903,3.419,0.903,3.419s0.2,0.771,0.576,2.225c0.338,1.438,0.948,3.589,1.492,6.266
			c0.146,0.672,0.3,1.381,0.462,2.125c0.139,0.737,0.242,1.494,0.375,2.292c0.063,0.398,0.129,0.805,0.195,1.219
			c0.034,0.207,0.068,0.417,0.102,0.628c0.014,0.2,0.026,0.403,0.039,0.607c0.056,0.816,0.113,1.662,0.173,2.538
			c0.019,0.434-0.054,0.851-0.072,1.287c-0.042,0.453-0.036,0.832-0.111,1.365c-0.128,1.023-0.259,2.077-0.393,3.159
			c-0.316,2.195-0.643,4.518-1.038,6.959c-3.132,19.541-8.08,46.067-13.385,73.779l-0.06,0.308v-0.002l0.001-0.004l0.003-0.007
			l0.006-0.003l-0.952,0.454c-1.601,0.764-3.205,1.528-4.811,2.295c-3.212,1.532-6.431,3.068-9.648,4.604
			c-6.434,3.07-12.859,6.136-19.193,9.158c-12.668,6.047-24.974,11.921-36.265,17.31c-11.915,5.701-21.689,10.377-26.571,12.713
			c-5.393,2.607-9.481,4.949-13.221,7.461c-0.423,0.281-0.842,0.561-1.26,0.839c-0.376,0.279-0.788,0.452-1.194,0.697
			c-0.834,0.391-1.726,0.772-2.708,0.994C409.996,535.231,407.69,535.351,405.209,534.664z"/>
		<path d="M391.779,560.49c2.053,1.58,4.229,2.729,6.496,3.569c2.272,0.827,4.682,1.325,7.285,1.262
			c0.648-0.046,1.31-0.093,1.979-0.173c0.663-0.13,1.345-0.249,2.025-0.429c0.657-0.216,1.39-0.446,2.017-0.701
			c0.585-0.263,1.18-0.529,1.785-0.801c2.424-1.104,4.893-2.596,7.46-4.562c0.407-0.328,0.898-0.668,1.622-1.305
			c0.363-0.319,0.804-0.669,1.319-1.151c0.258-0.241,0.539-0.503,0.846-0.789c0.149-0.148,0.305-0.303,0.467-0.465l-0.015,0.015
			c1.174-0.537,2.595-1.188,5.136-2.351c8.685-4.02,23.315-10.79,35.774-16.557c12.436-5.825,22.702-10.636,22.702-10.636
			s8.586-4.055,19.552-9.233c5.477-2.611,11.54-5.521,17.411-8.417c2.937-1.45,5.821-2.893,8.578-4.338
			c0.692-0.371,1.377-0.737,2.051-1.098c0.343-0.191,0.683-0.381,1.021-0.569c0.352-0.198,0.649-0.372,1.077-0.634
			c0.288-0.169,0.58-0.385,0.871-0.586c0.308-0.186,0.556-0.427,0.791-0.678c0.122-0.12,0.241-0.244,0.354-0.372l0.186-0.181
			l0.137-0.216c0.189-0.285,0.34-0.592,0.481-0.901c0.161-0.3,0.271-0.623,0.369-0.95c0.104-0.324,0.219-0.655,0.275-0.927
			c0.104-0.426,0.189-0.823,0.255-1.194c0.461-2.596,0.607-4.704,0.747-6.648c0.127-1.93,0.199-3.63,0.243-5.128
			c0.09-2.996,0.096-5.188,0.091-6.691c-0.022-6.084-0.539-10.826-1.404-15.279c-0.871-4.451-2.114-8.616-3.81-13.488
			c-0.785,5.1-1.465,9.325-1.907,13.763c-0.449,4.437-0.642,9.085-0.68,14.989c-0.01,1.458-0.026,3.585-0.122,6.454
			c-0.046,1.435-0.119,3.054-0.24,4.851c-0.124,1.776-0.291,3.812-0.637,5.729c-0.049,0.277-0.104,0.53-0.161,0.758
			c-0.02,0.094-0.005,0.022-0.009,0.041l-0.007-0.002c-0.183,0.115-0.509,0.306-0.793,0.465c-0.3,0.167-0.603,0.336-0.906,0.506
			c-0.634,0.339-1.277,0.683-1.929,1.031c-2.646,1.387-5.5,2.816-8.402,4.252c-5.812,2.871-11.853,5.778-17.308,8.388
			c-10.934,5.186-19.494,9.246-19.494,9.246s-10.263,4.788-22.691,10.586c-12.449,5.761-27.068,12.524-35.747,16.54
			c-3.202,1.477-4.992,2.303-6.471,2.984c-0.315,0.33-0.618,0.646-0.908,0.95c-0.131,0.131-0.255,0.256-0.375,0.376
			c-0.248,0.232-0.475,0.444-0.683,0.639c-0.413,0.392-0.796,0.694-1.094,0.961c-0.599,0.537-1.026,0.832-1.367,1.115
			c-2.173,1.696-4.198,3.135-6.144,4.373c-0.483,0.318-0.958,0.631-1.425,0.938c-0.41,0.246-0.813,0.488-1.211,0.728
			c-0.421,0.205-0.837,0.408-1.248,0.608c-0.442,0.172-0.88,0.341-1.315,0.51c-1.801,0.606-3.768,0.972-5.905,1.127
			C396.638,560.938,394.315,560.92,391.779,560.49z"/>
		<path d="M528.141,502.639c-1.424,4.918-2.609,9.012-3.841,13.267c-0.583,2.084-1.177,4.206-1.818,6.501
			c-0.331,1.114-0.676,2.255-1.068,3.387c-0.391,1.114-0.852,2.263-1.353,3.114c-0.081,0.128-0.169,0.268-0.264,0.418l-0.258,0.312
			l-0.091,0.101l-0.008-0.011l0.005,0.004l0.068,0.098l0.128,0.208l0.061,0.111l0.015,0.029l0.007,0.015l0.004,0.007l0.001,0.004
			c-0.044-0.252,0.102,0.567-0.098-0.562l-0.036,0.017l-0.144,0.07c-0.097,0.047-0.195,0.095-0.297,0.144
			c-0.201,0.098-0.41,0.199-0.629,0.305c-0.889,0.452-1.85,0.861-2.969,1.343c-0.561,0.244-1.162,0.506-1.807,0.786
			c-0.685,0.289-1.416,0.598-2.197,0.927c-13.112,5.544-44.615,18.161-44.615,18.161s-26.389,10.47-41.018,16.273
			c-4.26,1.687-7.707,3.051-10.435,4.131c-0.341,0.135-0.67,0.265-0.988,0.391l-0.346,0.137c-0.155,0.064-0.317,0.114-0.456,0.206
			c-0.195,0.112-0.388,0.223-0.576,0.33c-0.533,0.296-1.027,0.569-1.484,0.822c-0.928,0.487-1.701,0.893-2.331,1.224
			c-2.559,1.301-4.843,2.418-6.892,3.306c-1.029,0.463-1.978,0.811-2.838,1.109c-0.387,0.104-0.821,0.252-1.063,0.291l-0.224,0.064
			l-0.295,0.01c-0.205-0.001-0.391,0.038-0.624,0.01c-1.8-0.072-3.891-0.538-6.012-1.084c-2.138-0.563-4.385-1.237-6.809-2.109
			c1.737,1.911,3.471,3.569,5.303,5.05c1.857,1.465,3.742,2.799,6.286,3.733c0.303,0.128,0.677,0.207,1.023,0.305l0.538,0.134
			l0.624,0.072c0.893,0.115,1.589,0.06,2.354,0.025c1.416-0.14,2.779-0.397,4.085-0.771c2.642-0.728,5.251-1.792,8.048-3.177
			c0.691-0.343,1.532-0.774,2.534-1.307c0.5-0.274,1.042-0.57,1.626-0.891c0.496-0.271,0.083-0.068,0.398-0.202
			c0.319-0.126,0.65-0.255,0.992-0.39c2.73-1.075,6.183-2.436,10.448-4.116c14.633-5.825,41.026-16.333,41.026-16.333
			s31.525-12.526,44.778-18.182c0.8-0.339,1.547-0.655,2.247-0.952c0.731-0.321,1.414-0.622,2.05-0.901
			c1.278-0.561,2.373-1.044,3.211-1.473c0.218-0.107,0.427-0.209,0.628-0.308c0.101-0.05,0.199-0.098,0.296-0.146l0.144-0.07
			l0.035-0.018l0.19-0.105l0.017-0.012l0.033-0.021l0.131-0.087c0.344-0.231,0.676-0.472,0.966-0.708
			c0.243-0.229,0.471-0.455,0.686-0.676c0.431-0.445,0.671-0.822,0.964-1.197c0.235-0.355,0.427-0.677,0.612-0.98
			c0.984-1.756,1.478-3.3,1.89-4.764c0.393-1.458,0.65-2.823,0.846-4.131c0.363-2.61,0.47-4.991,0.424-7.297
			C529.873,512.003,529.236,507.687,528.141,502.639z"/>
		<path d="M513.678,537.247c-2.773,4.33-5.366,7.709-8.074,10.889c-1.352,1.568-2.806,3.083-4.328,4.18
			c-0.365,0.226-0.738,0.454-1.119,0.688c-0.181,0.062-0.355,0.132-0.527,0.21l-0.257,0.123l-0.463,0.157
			c-1.283,0.428-2.619,0.897-4.024,1.414c-1.901,0.706-4.994,1.854-11.424,4.241c-10.274,3.843-34.614,12.945-34.614,12.945
			s-4.467,1.66-10.409,3.868c-2.971,1.105-6.31,2.349-9.644,3.59c-1.667,0.621-3.332,1.242-4.949,1.845
			c-0.404,0.151-0.806,0.301-1.203,0.449l-0.919,0.343c-0.21,0.058-0.386,0.173-0.555,0.299l-0.493,0.337
			c-0.67,0.443-1.325,0.876-1.96,1.296c-0.853,0.543-1.664,1.06-1.769,1.126c-3.76,2.336-6.918,4.062-9.285,5.031
			c-1.185,0.519-2.169,0.776-2.685,0.865c-0.097,0.003-0.187,0.019-0.274,0.043c-0.207-0.01-0.405-0.019-0.595-0.027
			c-0.387-0.018-0.736-0.033-1.051-0.048c-2.709-0.225-5.326-0.545-7.735-0.788c-1.209-0.124-2.381-0.235-3.524-0.329
			c-0.573-0.043-1.139-0.086-1.699-0.129l-0.837-0.059l-0.416-0.025l-0.683-0.083c-0.119-0.011-0.236-0.039-0.355-0.035
			l-0.358,0.059c-0.213,0.038-0.527,0.083-0.65,0.114l-0.814,0.197l-1.621,0.414c-1.079,0.285-2.158,0.589-3.253,0.913
			c-2.189,0.647-4.443,1.374-6.892,2.187c2.544,0.43,4.882,0.803,7.145,1.107c1.132,0.153,2.244,0.288,3.354,0.405l1.666,0.161
			l0.835,0.07c0.196,0.034,0.195,0.057,0.287,0.119c0.052,0.031,0.025,0.047,0.136,0.091l0.405,0.144l0.818,0.283
			c0.552,0.178,1.108,0.357,1.671,0.538c1.133,0.348,2.304,0.675,3.537,0.98c2.475,0.603,5.141,1.141,8.401,1.444
			c0.426,0.023,0.9,0.049,1.426,0.077c0.267,0.011,0.546,0.022,0.839,0.035c0.41-0.024,0.842-0.061,1.288-0.11
			c1.637-0.251,3.11-0.734,4.622-1.37c3.064-1.259,6.429-3.124,10.456-5.612c0.111-0.07,0.974-0.618,1.88-1.193
			c0.68-0.449,1.382-0.912,2.1-1.387l0.02-0.014l-0.008,0.003l0.277-0.104c0.398-0.149,0.801-0.299,1.206-0.45
			c1.62-0.606,3.289-1.23,4.959-1.854c3.34-1.251,6.685-2.503,9.66-3.617c5.95-2.231,10.423-3.909,10.423-3.909
			s24.411-9.097,34.715-12.937c6.436-2.416,9.532-3.579,11.436-4.293c1.402-0.532,2.722-1.054,3.973-1.572l0.479-0.203l0.63-0.332
			c0.416-0.225,0.821-0.454,1.215-0.688c0.696-0.508,1.345-1.034,1.929-1.566c2.211-2.185,3.468-4.429,4.463-6.627
			C512.382,546.749,513.249,542.397,513.678,537.247z"/>
		<path d="M410.891,474.23c-3.825,0.491-7.29,0.106-10.244-0.69c-2.975-0.784-5.354-2.203-7.205-3.947
			c-0.456-0.456-0.935-0.853-1.312-1.4c-0.4-0.508-0.837-0.955-1.164-1.563c-0.845-1.202-1.185-2-1.547-3.229
			c-0.722-2.387-0.918-5.735-0.661-9.595c0.225-3.135,1.115-8.887,3.684-15.583l0.116-0.314l0.081-0.22l0.162-0.395
			c0.215-0.527,0.432-1.057,0.649-1.59c0.472-1.05,0.922-2.124,1.453-3.171c1.017-2.117,2.174-4.213,3.457-6.259
			c2.539-4.111,5.642-8.007,9.215-11.352c0.91-0.809,1.825-1.621,2.791-2.35c0.47-0.391,0.969-0.724,1.462-1.069l0.739-0.521
			l0.866-0.566c2.349-1.51,4.713-3.03,7.09-4.558c4.817-3.06,9.68-6.148,14.543-9.237c9.74-6.236,19.451-12.61,28.578-19.261
			c4.561-3.336,8.978-6.733,13.153-10.314c4.159-3.635,8.122-7.305,11.557-11.952c0.846-1.206,1.665-2.449,2.392-3.899l0.273-0.527
			l0.249-0.601l0.476-1.204c0.18-0.428,0.241-0.738,0.34-1.085l0.273-1.021c0.174-0.681,0.367-1.353,0.513-2.028
			c0.108-0.686,0.216-1.365,0.322-2.04c0.257-1.349,0.268-2.692,0.349-4.013c0.183-5.3-0.923-10.109-2.356-14.246
			c-0.725-2.076-1.575-3.987-2.491-5.756c-0.166-0.312-0.607-1.177-1.035-1.878c-0.438-0.719-0.87-1.429-1.296-2.129
			c-0.463-0.65-0.92-1.292-1.37-1.924c-0.46-0.611-0.913-1.213-1.36-1.807c-0.225-0.299-0.448-0.595-0.671-0.89l-0.164-0.212
			l-0.272,0.087l-0.542,0.174c-0.708,0.228-1.404,0.451-2.091,0.672c-1.338,0.434-2.631,0.853-3.878,1.256
			c-0.963,0.316-1.89,0.621-2.78,0.913c-0.604,0.204-1.182,0.399-1.734,0.586c-13.987,4.729-25.243,9.085-34.327,13.137
			c-2.246,1.045-4.454,1.994-6.361,2.955c-1.932,0.951-3.742,1.843-5.438,2.678c-3.374,1.69-6.29,3.151-8.796,4.406
			c-9.978,5.099-13.425,6.859-13.425,6.859s-0.857,0.44-2.477,1.271c-1.611,0.848-3.98,2.093-7.012,3.687
			c-3.029,1.597-6.73,3.518-10.955,5.841c-4.231,2.309-9.044,4.865-14.254,7.878c-2.609,1.498-5.35,3.006-8.166,4.675
			c-2.807,1.706-5.716,3.475-8.716,5.299c-1.506,0.867-3.01,1.952-4.542,2.984c-1.53,1.046-3.082,2.105-4.653,3.179l-1.177,0.811
			l-1.092,0.85c-0.73,0.568-1.465,1.141-2.204,1.716c-1.478,1.15-2.972,2.313-4.481,3.489c-12.065,9.4-25.117,19.568-38.472,29.973
			c-6.621,5.184-13.317,10.427-20.004,15.661c-3.446,2.704-6.89,5.405-10.32,8.097c-2.062,1.756-3.598,3.479-5.098,5.187
			c-1.477,1.705-2.835,3.39-4.166,5.042c-2.648,3.299-5.173,6.506-7.731,9.267c-1.271,1.379-2.562,2.612-3.754,3.539
			c-0.585,0.439-1.143,0.799-1.565,1.013c-0.092,0.032-0.181,0.07-0.268,0.113l-0.184,0.062l-0.077,0.018
			c0,0.024-0.014-0.051,0.001,0.088c0.026,0.194-0.017-0.091-0.04-0.073l-0.06,0.004l-0.235,0.02
			c-0.646,0.058-1.652,0.085-2.561,0.1c-0.936,0.013-1.891,0.018-2.851,0.008c-1.917-0.012-3.846-0.057-5.758-0.115
			c-1.917-0.074-3.816-0.147-5.696-0.221c-1.781-0.093-3.544-0.186-5.287-0.276c-11.716-0.681-21.282-1.694-26.027-2.258
			c-4.39-0.507-8.295-0.922-11.916-1.266c-3.623-0.338-6.969-0.588-10.217-0.841c-3.248-0.254-6.435-0.444-9.678-0.852
			c-0.815-0.097-1.613-0.237-2.452-0.354c-0.823-0.134-1.628-0.324-2.487-0.491c-1.62-0.461-3.354-0.927-4.925-2.073
			c0.854,1.766,2.296,3.146,3.702,4.414c0.73,0.566,1.464,1.165,2.215,1.688c0.754,0.499,1.51,1.022,2.274,1.481
			c3.062,1.864,6.175,3.289,9.423,4.554c3.252,1.263,6.649,2.292,10.363,3.174c3.716,0.889,7.749,1.611,12.285,2.182
			c4.915,0.633,14.742,1.698,26.751,2.405c1.791,0.095,3.603,0.189,5.432,0.285c1.941,0.076,3.901,0.152,5.88,0.229
			c1.985,0.061,3.989,0.108,6.038,0.121c1.022,0.011,2.058,0.006,3.12-0.009c1.09-0.022,2.09-0.033,3.45-0.147
			c0.55-0.027,1.714-0.204,2.562-0.457c0.418-0.133,0.875-0.265,1.253-0.423l1.126-0.489c1.394-0.692,2.531-1.468,3.575-2.254
			c2.03-1.58,3.688-3.222,5.219-4.871c3.05-3.298,5.675-6.664,8.289-9.911c1.302-1.619,2.592-3.215,3.883-4.705
			c1.28-1.472,2.603-2.899,3.783-3.892c3.252-2.552,6.518-5.112,9.785-7.675c6.75-5.287,13.51-10.581,20.193-15.816
			c13.301-10.373,26.301-20.511,38.318-29.882c1.501-1.171,2.986-2.329,4.456-3.474c0.734-0.573,1.465-1.143,2.19-1.708l1.086-0.847
			l1.085-0.743c1.441-0.983,2.865-1.954,4.269-2.911c1.413-0.952,2.746-1.93,4.233-2.787c2.896-1.763,5.703-3.472,8.411-5.12
			c2.735-1.623,5.443-3.115,7.996-4.583c5.096-2.953,9.865-5.49,14.041-7.772c4.167-2.296,7.838-4.204,10.839-5.788
			c3.002-1.581,5.35-2.817,6.945-3.658c1.606-0.825,2.457-1.263,2.457-1.263s3.421-1.746,13.323-6.799
			c2.484-1.243,5.375-2.689,8.721-4.364c1.676-0.824,3.465-1.705,5.375-2.644c1.917-0.966,3.897-1.803,6.031-2.799
			c8.567-3.819,19.572-8.085,33.27-12.71c0.799-0.268,1.746-0.585,2.825-0.947l-0.005-0.005l-0.003-0.004l0.196,0.379
			c0.684,1.322,1.322,2.761,1.851,4.29c1.052,3.052,1.823,6.472,1.679,10.012c-0.069,0.879-0.046,1.785-0.237,2.67
			c-0.067,0.446-0.136,0.896-0.204,1.35c-0.1,0.446-0.238,0.888-0.352,1.338l-0.176,0.676c-0.059,0.218-0.111,0.488-0.182,0.6
			c-0.066,0.146-0.127,0.296-0.184,0.446l-0.083,0.229l-0.146,0.263c-0.22,0.36-0.338,0.703-0.621,1.097
			c-0.268,0.389-0.496,0.777-0.789,1.179c-2.383,3.251-5.91,6.639-9.695,9.915c-3.831,3.282-8.033,6.518-12.418,9.722
			c-8.792,6.402-18.339,12.672-27.988,18.848c-4.854,3.083-9.709,6.166-14.518,9.22c-2.419,1.556-4.827,3.104-7.219,4.642
			l-0.899,0.588l-0.985,0.688c-0.656,0.459-1.317,0.912-1.927,1.411c-1.265,0.959-2.436,1.991-3.592,3.025
			c-4.518,4.228-8.212,8.928-11.212,13.774c-1.515,2.418-2.865,4.873-4.055,7.347c-0.617,1.227-1.148,2.479-1.695,3.709
			c-0.255,0.623-0.508,1.243-0.76,1.86l-0.188,0.463l-0.096,0.257l-0.137,0.369c-2.993,7.829-4.102,14.841-4.351,18.971
			c-0.262,5.079,0.181,9.934,2.284,14.464c0.234,0.56,0.553,1.113,0.873,1.654l0.479,0.801l0.567,0.775
			c0.766,1.102,1.554,1.746,2.329,2.536c0.735,0.781,1.646,1.409,2.515,2.027c0.837,0.653,1.808,1.122,2.742,1.588
			c3.791,1.807,7.878,2.265,11.597,1.632C404.197,477.88,407.713,476.471,410.891,474.23z"/>
		<path d="M343.742,595.096c-7.51-1.879-13.796-3.362-20.455-4.416c-6.656-1.062-13.686-1.586-22.648-1.835
			c-3.038-0.062-7.981-0.164-18.254-0.375c-6.713-0.059-17.939-0.59-27.524-0.901c-4.787-0.195-9.166-0.276-12.332-0.491
			c-3.163-0.236-5.134-0.383-5.134-0.383s-6.597-0.516-15.021-1.175c-4.213-0.329-8.883-0.694-13.413-1.049
			c-4.541-0.448-8.942-0.884-12.607-1.246c-13.652-1.337-22.103-2.165-26.516-2.597c-17.856-1.882-28.198-0.921-43.55,1.037
			c14.484,5.466,24.431,8.532,42.318,10.599c4.426,0.485,12.914,1.32,26.624,2.688c3.681,0.364,8.103,0.803,12.663,1.255
			c4.588,0.349,9.316,0.708,13.582,1.033c8.533,0.636,15.215,1.134,15.215,1.134s1.995,0.156,5.198,0.407
			c3.204,0.229,7.621,0.327,12.458,0.537c9.67,0.342,21.045,0.894,27.766,0.915c10.322,0.175,15.289,0.26,18.342,0.312
			c9.011,0.159,16.071-0.373,22.764-1.28C329.906,598.351,336.23,596.955,343.742,595.096z"/>
		<path d="M516.521,333.736c5.673-5.634,10.322-10.432,14.767-15.801c1.111-1.343,2.21-2.72,3.308-4.155l0.412-0.541l0.103-0.137
			c0.031-0.039,0.066-0.086,0.136-0.189l0.359-0.528c0.218-0.363,0.533-0.692,0.677-1.094l0.338-1.255
			c0.281-0.966,0.568-1.947,0.859-2.947c1.062-3.729,2.046-7.783,2.966-12.376c0.3-1.561,0.694-3.61,1.268-6.589
			c0.269-1.499,0.578-3.231,0.939-5.253c0.17-1.018,0.352-2.109,0.547-3.279c0.166-1.083,0.338-2.202,0.516-3.359
			c0.18-1.232,0.354-2.503,0.512-3.805c0.267-2.218,0.62-5.287,0.479-7.979c-0.078-1.335-0.349-2.451-0.72-3.328
			c-0.364-0.894-0.902-1.417-1.333-2.005c-0.469-0.574-0.941-0.888-1.684-1.3c-0.936-0.445-1.435-0.581-1.915-0.665
			c-0.926-0.146-1.55-0.082-1.55-0.081c0,0-0.131,0.008-0.37,0.023c-0.252,0.04-0.602,0.068-1.096,0.208
			c-0.963,0.253-2.491,0.869-4.452,2.527c-1.939,1.604-4.169,3.858-6.278,6.133c-1.055,1.14-2.089,2.285-3.059,3.378
			c-0.503,0.575-0.981,1.121-1.415,1.617c-4.746,5.465-8.398,9.954-11.289,13.517c-2.882,3.565-4.968,6.21-6.395,8.035
			c-0.37,0.479-0.735,0.95-1.096,1.416l-0.515,0.668l-0.253,0.334l-0.177,0.379c-0.181,0.393-0.359,0.783-0.538,1.17
			c-0.443,1.008-0.876,1.991-1.299,2.951c-0.829,1.927-1.588,3.774-2.288,5.569c-1.399,3.589-2.562,6.958-3.575,10.292
			c-2.029,6.668-3.47,13.192-5.042,21.031c5.062-6.188,9.192-11.439,13.06-17.238c1.934-2.9,3.802-5.936,5.688-9.294
			c0.943-1.679,1.892-3.438,2.854-5.302c0.474-0.937,0.959-1.894,1.456-2.876l0.167-0.334l0.007,0.001l0.012,0.005
			c0.339-0.423,0.682-0.852,1.029-1.285c1.428-1.774,3.507-4.36,6.334-7.874c2.848-3.49,6.461-7.913,11.032-13.167
			c0.396-0.45,0.833-0.944,1.292-1.466l-0.011,0.009l-0.021,0.001l0.001-0.042l-0.039,0.062l0.002-0.047l0.003-0.011l0.002-0.005
			v-0.001v0.003l-0.034,0.211c-0.186,1.127-0.358,2.177-0.52,3.158c-0.346,1.966-0.643,3.652-0.899,5.11
			c-0.544,2.922-0.918,4.934-1.203,6.465c-0.858,4.522-1.54,8.582-2.064,12.37c-0.063,0.473-0.127,0.942-0.189,1.408l-0.09,0.694
			c-0.024,0.213-0.078,0.541-0.042,0.482l0.062,0.199l0.006,0.057l-0.041,0.101l-0.072,0.154l-0.29,0.615
			c-0.765,1.638-1.479,3.249-2.155,4.854C520.997,319.76,518.893,326.1,516.521,333.736z"/>
		<path d="M498.698,369.893c-10.917,11.685-17.865,19.876-26.975,36.062c-1.534,2.747-4.03,7.216-9.22,16.505
			c-14.502,26.093-48.86,87.909-48.86,87.909s-28.8,51.719-44.766,80.391c-6.885,12.422-11.146,20.109-13.372,24.125
			c-8.948,16.277-12.243,26.5-16.413,41.938c10.917-11.684,17.864-19.875,26.977-36.062c2.237-4.009,6.522-11.684,13.444-24.085
			c15.94-28.687,44.693-80.431,44.693-80.431s34.399-61.793,48.92-87.876c5.155-9.308,7.636-13.786,9.16-16.538
			C491.233,395.554,494.529,385.331,498.698,369.893z"/>
		<path d="M473.905,361.628c-10.908,11.692-17.85,19.889-26.946,36.081c-1.533,2.749-4.026,7.22-9.208,16.513
			c-15.117,27.246-50.931,91.794-50.931,91.794s-30.018,54.006-46.659,83.946c-6.876,12.427-11.132,20.118-13.354,24.135
			c-8.936,16.285-12.223,26.51-16.381,41.95c10.908-11.692,17.85-19.889,26.949-36.082c2.234-4.011,6.514-11.688,13.426-24.095
			c16.616-29.955,46.587-83.986,46.587-83.986s35.855-64.524,50.991-91.761c5.147-9.312,7.625-13.792,9.147-16.546
			C466.46,387.294,469.748,377.069,473.905,361.628z"/>
		<path d="M174.324,462.867c6.18-11.333,10.898-21.111,14.708-31.895c0.946-2.699,1.828-5.467,2.638-8.355
			c0.196-0.725,0.394-1.454,0.593-2.188l0.285-1.114l0.141-0.562l0.069-0.281l0.101-0.513c0.555-2.768,1.052-5.66,1.476-8.619
			c0.801-5.858,1.264-12.163,0.443-17.005c-0.393-2.429-1.076-4.454-1.979-6.099c-0.913-1.663-1.988-2.935-3.485-4.09
			c-0.276-0.207-0.554-0.41-1.132-0.752c-0.137-0.086-0.302-0.18-0.497-0.283c-0.185-0.11-0.402-0.218-0.677-0.307
			c-0.561-0.205-1.232-0.451-2.054-0.751c-0.757-0.102-1.56-0.208-2.419-0.322c-0.774-0.092-1.582-0.054-2.368,0.047
			c-1.6,0.207-3.276,0.657-5.315,1.783c-2.026,1.13-4.466,3.048-7.277,6.662c-2.804,3.571-5.904,8.875-8.983,15.397
			c-0.37,0.796-0.755,1.627-1.155,2.488c-0.2,0.432-0.403,0.87-0.61,1.316c-0.125,0.282-0.253,0.568-0.383,0.859
			c-0.422,0.975-0.87,2.01-1.339,3.092c-0.926,2.164-1.868,4.521-2.832,6.974c-1.904,4.904-3.802,10.19-5.451,15.066
			c-1.653,4.875-3.062,9.341-4.061,12.588c-0.984,3.249-1.599,5.272-1.599,5.272s-2.082,6.765-4.481,15.454
			c-2.412,8.688-5.095,19.312-6.852,26.925c-5.253,22.594-7.714,36.739-9.012,44.121c-1.711,9.927-2.643,18.521-3.028,26.499
			c-0.187,3.99-0.247,7.825-0.171,11.601c-0.049,2.88-0.097,5.736-0.144,8.588c-0.022,2.87,0.018,5.555,0.09,8.032
			c1.506,0.049,3.128-0.048,4.618-0.084c1.513-0.054,2.98-0.116,4.411-0.2c1.431-0.083,2.821-0.188,4.165-0.313
			c0.656-0.066,1.315-0.134,1.978-0.201l0.956-0.113l0.739-0.13c1.975-0.354,3.981-0.754,6.024-1.252
			c1.021-0.253,2.053-0.529,3.085-0.869c0.515-0.167,1.034-0.362,1.54-0.582c0.487-0.241,1.06-0.489,1.351-0.973
			c-0.466,0.274-0.994,0.218-1.498,0.21c-0.515-0.04-1.02-0.102-1.525-0.188c-1.009-0.168-2.002-0.386-2.98-0.615
			c-1.96-0.468-3.865-0.989-5.734-1.515l-0.7-0.198l-0.476-0.188l-0.868-0.369c-0.546-0.243-1.028-0.482-1.452-0.714
			c-0.424-0.232-0.791-0.458-1.105-0.676c-0.294-0.235-0.626-0.392-0.75-0.673c0.49-1.153,0.931-2.088,1.337-2.842
			c0.203-0.377,0.396-0.709,0.578-1l0.268-0.412l0.065-0.098c0.024-0.054,0.036-0.01,0.073-0.159l0.188-0.668
			c0.991-3.563,1.95-7.192,2.864-10.987c1.839-7.588,3.537-15.834,5.304-25.505c1.338-7.188,3.783-21.001,8.926-43.042
			c1.743-7.419,4.326-17.781,6.631-26.234c2.294-8.456,4.261-15.01,4.261-15.011c0,0,0.605-1.95,1.576-5.083
			c0.982-3.127,2.363-7.42,3.963-12.074c1.598-4.655,3.416-9.668,5.202-14.256c0.901-2.286,1.777-4.48,2.619-6.461
			c0.423-0.986,0.827-1.931,1.209-2.819c0.074-0.173,0.148-0.344,0.221-0.512l-0.004,0.003l-0.008,0.005l-0.053-0.008l0.008-0.026
			c0.036-0.101,0.35-0.55,0.753-0.241c0.101,0.077,0.207,0.192,0.312,0.381l0.02,0.041l-0.017,0.271l-0.032,0.538l-0.062,1.073
			c-0.042,0.716-0.083,1.426-0.124,2.132c-0.146,2.85-0.289,5.624-0.43,8.365C174.473,439.264,174.474,449.978,174.324,462.867z"/>
		<path d="M129.43,585.892c-7.761-6.736-13.084-10.456-22.839-11.229c-10.564-0.838-63.54-4.06-63.54-4.06
			s-52.953-3.546-63.539-4.06c-9.774-0.475-15.527,2.537-24.082,8.231c7.76,6.737,13.084,10.455,22.839,11.23
			c10.564,0.84,63.539,4.06,63.539,4.06s52.954,3.548,63.54,4.06C115.121,594.597,120.875,591.587,129.43,585.892z"/>
		<path d="M187.43,389.776c-5.016-6.584-8.48-10.199-14.979-10.791c-7.04-0.641-42.36-2.879-42.36-2.879s-35.299-2.562-42.359-2.879
			c-6.521-0.293-10.441,2.82-16.302,8.665c5.016,6.584,8.479,10.198,14.979,10.792c7.039,0.644,42.359,2.879,42.359,2.879
			s35.299,2.564,42.36,2.88C177.647,398.733,181.568,395.621,187.43,389.776z"/>
	</g>
</g>
</svg>
