<?xml version="1.0" encoding="utf-8"?>
<!-- Generator: Adobe Illustrator 16.0.0, SVG Export Plug-In . SVG Version: 6.00 Build 0)  -->
<!DOCTYPE svg PUBLIC "-//W3C//DTD SVG 1.1//EN" "http://www.w3.org/Graphics/SVG/1.1/DTD/svg11.dtd">
<svg version="1.1" xmlns="http://www.w3.org/2000/svg" xmlns:xlink="http://www.w3.org/1999/xlink" x="0px" y="0px" width="640px"
	 height="640px" viewBox="0 0 640 640" enable-background="new 0 0 640 640" xml:space="preserve">
<g id="couleurs">
</g>
<g id="traits">
	<g>
		<path fill="#FFF26B" d="M61.385,389.897c1.284,3.562,2.045,5.996,2.045,5.996s0.215,5.814,0.822,14.584
			c14.768,72.306,38.593,132.191,44.709,146.935c8.304-8.844,15.867-15.418,21.469-17.519c24-9,40-10,40-10l36.521-7.04
			l-26.521,4.04c0,0,2.344-12.719,7.714-26.995c-0.398-0.155-0.803-0.314-1.2-0.472l-1.514,2.467c0,0-7.142-3.946-18.273-11.308
			C122.654,468.318,85.753,433.111,61.385,389.897 M102.858,354.993c9.748,19.584,22.683,37.314,38.116,52.5L102.858,354.993
			 M433.68,180.923L255.943,462.496c7.379,0.843,14.882,1.275,22.486,1.275c108.248,0,196-87.752,196-196
			c0-29.784-6.645-58.018-18.529-83.298C449.152,183.49,441.499,182.307,433.68,180.923 M336.525,147.207L153.508,418.809
			c23.129,19.15,50.739,33.096,81.013,40.024l-26.091-7.94l178.235-282.062C372.851,163.698,354.643,155.928,336.525,147.207
			 M234.453,76.724C147.376,96.682,82.43,174.64,82.43,267.771c0,28.396,6.036,55.376,16.899,79.737L260.907,98.748
			C253.119,92.075,243.841,84.387,234.453,76.724 M162.43,24.893l-44,43c0,0,1.637-1.286,3.129-1.286
			c1.442,0,2.75,1.202,2.317,5.922c18.384-14.572,38.862-26.598,60.927-35.557c-0.893-0.703-1.373-1.08-1.373-1.08L162.43,24.893
			 M0,0L0,0v640h640V179.893l-12.754,9.041c-5.113,5.084-9.816,6.959-9.816,6.959l0,0c0,0,3,11-17,16
			c-1.962,0.49-3.824,0.711-5.594,0.711c-16.27,0-24.406-18.711-24.406-18.711s0,7-23,11c-2.088,0.363-4.327,0.528-6.685,0.528
			c-3.606,0-7.478-0.388-11.458-1.048c-1.678,0.188-3.234,0.292-4.621,0.292c-2.521,0-4.482-0.343-5.606-1.152
			c5.459,20.498,8.37,42.041,8.37,64.258c0,132.021-102.735,240.044-232.627,248.47c12.803,8.369,34.23,17.428,40.627,25.652
			c7,9,13,31,13,31l0.285,6.842c2.176,9.853,0.715,17.158,0.715,17.158l0,0c0,0,8,4,12,13c2.108,4.743,3.938,12.85,5.198,19.456
			c0.529,0.354,0.802,0.544,0.802,0.544l1,10.107l0,0h-322H0V0"/>
		<path fill="#B3DFF1" d="M64.252,410.477c1.244,17.951,4.131,48.277,10.178,66.416c7.688,23.066,28.515,68.027,34.42,80.639
			c0.036-0.04,0.075-0.08,0.111-0.12C102.845,542.668,79.02,482.783,64.252,410.477 M442.548,161.447l1.882,2.446l-10.75,17.03
			c7.819,1.384,15.473,2.567,22.221,3.55c-3.046-6.477-6.434-12.757-10.144-18.823c-0.441-0.59-0.882-1.173-1.327-1.757
			C443.803,163.07,443.177,162.256,442.548,161.447 M640,154.893c0,17.391-6.667,27.989-12.754,34.041L640,179.893V154.893
			 M470.93,109.82c6.479,7.887,12.477,16.169,17.961,24.823C483.773,126.024,477.832,117.538,470.93,109.82 M278.43,71.771
			c-15.117,0-29.842,1.713-43.977,4.953c9.388,7.663,18.666,15.352,26.454,22.024L278.43,71.771 M278.43,71.771l92,25.122
			l-33.904,50.314c18.117,8.721,36.325,16.491,50.14,21.625l25.785-40.806c-27.087-25.728-53.564-40.153-74.721-47.125
			c-2.841-0.9-5.706-1.737-8.601-2.51c-4.979-1.259-9.573-2.071-13.699-2.498c0,0,1.496,0.042,4.233,0.223
			C306.368,73.269,292.575,71.771,278.43,71.771 M640,0H104.43c0,0-53,31.893-82,111.893c-13.906,38.362-22.43,80-22.43,80V0v640
			h46.43c0,0,6.078-9.229,15.138-22.101l-5.138,5.993c0,0-68-150-25-313c0,0,2.122,6.932,5.089,16.112
			c-4.634-18.986-7.089-38.821-7.089-59.234c0-79.125,36.908-149.632,94.446-195.242c0.433-4.72-0.875-5.922-2.317-5.922
			c-1.492,0-3.129,1.286-3.129,1.286l44-43l21,11c0,0,0.48,0.377,1.373,1.08c28.9-11.734,60.515-18.202,93.627-18.202
			c24.459,0,48.092,3.526,70.422,10.098c5.123-1.03,14.426-2.467,26.433-2.468c27.183-0.001,68.239,7.362,106.146,43.492
			c64,61,89,124,89,124s-25.732,8.76-41.143,10.48c3.98,0.66,7.852,1.048,11.458,1.048c2.357,0,4.597-0.166,6.685-0.528
			c23-4,23-11,23-11s8.137,18.711,24.406,18.711c1.77,0,3.632-0.221,5.594-0.711c20-5,17-16,17-16l0,0l0,0c0,0-19-47-60-104
			s-68-69-68-69c91,7,150.57,100,150.57,132V0"/>
		<path fill="#ED6EA7" d="M308.795,434.7c13.479-10.542,45.923,44.265,108.518,58.759c62.62,14.497,120.903-11.413,124.274,3.576
			c3.389,15.006-68.03,96.568-132.031,82.428C327.876,561.44,295.301,445.221,308.795,434.7z"/>
		<path fill="#FFFFFF" d="M319.019,435.661c0,0,21.281,55.189,92.717,75.222c71.433,20.016,118.979-20.676,118.979-20.676
			s-70.298,11.518-112.311-0.314C371.026,476.54,319.019,435.661,319.019,435.661z"/>
		<path fill="#FFFFFF" d="M339.116,529.104c0,0,22.327,23.555,70.558,34.929c48.227,11.371,75.305-3.772,75.305-3.772
			s-30.926,36.29-83.119,20.325C350.65,564.926,339.116,529.104,339.116,529.104z"/>
		<path fill="#5DC5ED" d="M191.088,492.671l-4.145,6.755c0.397,0.157,0.802,0.316,1.2,0.472
			C189.039,497.516,190.021,495.088,191.088,492.671 M329.129,78.391c2.895,0.773,5.76,1.61,8.601,2.51
			C334.752,79.92,331.883,79.088,329.129,78.391 M278.43,71.771L278.43,71.771c14.146,0,27.938,1.498,41.233,4.345
			c20.517,1.357,110.713,10.548,162.767,68.777c59,66,38,178,38,178s-27.486-94.231-74.673-157.243
			c3.71,6.066,7.098,12.346,10.144,18.823c11.885,25.28,18.529,53.514,18.529,83.298c0,108.248-87.752,196-196,196
			c-7.604,0-15.107-0.433-22.486-1.275l-1.514,2.397l-19.909-6.06c-30.273-6.929-57.884-20.874-81.013-40.024l-2.078,3.084
			l-10.455-14.4c-15.434-15.186-28.368-32.916-38.116-52.5l-4.429-6.1l0.899-1.385c-10.863-24.361-16.899-51.341-16.899-79.737
			c0-93.131,64.946-171.089,152.023-191.047C248.588,73.484,263.312,71.771,278.43,71.771 M278.43,18.771
			c-33.112,0-64.727,6.468-93.627,18.202c-22.064,8.958-42.543,20.984-60.927,35.557C66.338,118.139,29.43,188.646,29.43,267.771
			c0,20.413,2.455,40.249,7.089,59.234c4.921,15.229,12.168,36.648,15.911,42.888c3.66,6.1,6.947,14.432,8.955,20.004
			c24.368,43.214,61.27,78.421,105.771,100.688C133.812,468.539,64.672,415.865,44.43,346.893c-27-92,2-155,2-155s-14,132,60,205
			c43.396,42.811,106,61,106,61l-8.308,13.538c5.76-6.362,12.695-10.626,20.94-10.627c2.35,0,4.803,0.346,7.368,1.089
			c31.688,9.173,33.706,39.209,33.502,48.933c3.223-0.539,6.782-0.933,10.312-0.933c5.631,0,11.186,1,15.186,4
			c1.034,0.775,2.165,1.559,3.373,2.348c129.892-8.426,232.627-116.448,232.627-248.47c0-22.217-2.911-43.76-8.37-64.258
			c-0.254-0.182-0.465-0.388-0.63-0.62c-3.456-4.838-11.211-37.383-29.539-68.25c-5.484-8.654-11.481-16.937-17.961-24.823
			c-4.144-4.633-8.635-8.988-13.5-12.927c-42-34-113-67-113-67s1.561-0.449,4.422-1.024
			C326.521,22.297,302.889,18.771,278.43,18.771"/>
		<path fill="#B3DFF1" d="M225.062,460.804c-8.245,0.001-15.181,4.265-20.94,10.627l-13.034,21.24
			c-1.067,2.417-2.049,4.845-2.944,7.227c-5.37,14.276-7.714,26.995-7.714,26.995l26.521-4.04l46.479-8.96
			c0,0,5.446-1.885,12.503-3.067c0.204-9.724-1.813-39.76-33.502-48.933C229.865,461.15,227.412,460.804,225.062,460.804"/>
		<path fill="#FFFFFF" d="M276.244,509.893c-3.529,0-7.089,0.394-10.312,0.933c-7.057,1.183-12.503,3.067-12.503,3.067l-46.479,8.96
			l-36.521,7.04c0,0-16,1-40,10c-5.602,2.101-13.165,8.675-21.469,17.519c-0.036,0.04-0.075,0.08-0.111,0.12
			c1.007,2.15,1.58,3.361,1.58,3.361L61.567,617.9C52.508,630.771,46.43,640,46.43,640l0,0h322l0,0h-36
			c0,0-32.181-21.003-64.789-21.003c-3.748,0-7.5,0.277-11.211,0.896c-36,6-61,17-61,17s26.929-40.388,73.123-40.388
			c2.568,0,5.19,0.124,7.877,0.388c46.788,4.587,84.318,28.532,90.198,32.456c-1.26-6.606-3.09-14.713-5.198-19.456
			c-4-9-12-13-12-13l0,0c0,0-45.686-34.021-75.723-34.021c-0.43,0-0.854,0.008-1.277,0.021c-30,1-115,25-115,25s27-31,87-43
			c12.985-2.598,24.782-3.725,35.355-3.725c35.108,0,56.728,12.428,63.645,24.725c2.719,4.834,4.343,9.577,5.285,13.842
			l-0.285-6.842c0,0-6-22-13-31c-6.396-8.225-27.824-17.283-40.627-25.652c-1.208-0.789-2.339-1.572-3.373-2.348
			C287.43,510.893,281.875,509.893,276.244,509.893"/>
		<polyline fill="#FFFFFF" points="278.43,71.771 278.43,71.771 260.907,98.748 99.329,347.508 98.43,348.893 102.858,354.993 
			140.975,407.493 151.43,421.893 153.508,418.809 336.525,147.207 370.43,96.893 278.43,71.771 		"/>
		<path fill="#FFFFFF" d="M412.45,128.026l-25.785,40.806L208.43,450.893l26.091,7.94l19.909,6.06l1.514-2.397L433.68,180.923
			l10.75-17.03l-1.882-2.446C432.593,148.629,422.479,137.551,412.45,128.026"/>
		<path fill="#72BB71" d="M167.156,490.585c11.132,7.361,18.273,11.308,18.273,11.308l1.514-2.467
			C180.194,496.759,173.601,493.81,167.156,490.585"/>
		<path fill="#00ACE0" d="M46.43,191.893c0,0-29,63-2,155c20.242,68.972,89.383,121.646,122.727,143.692
			c6.444,3.225,13.038,6.174,19.787,8.841l4.145-6.755c3.416-7.731,7.726-15.376,13.034-21.24l8.308-13.538
			c0,0-62.604-18.189-106-61C32.43,323.893,46.43,191.893,46.43,191.893"/>
		<path fill="#00B6E0" d="M204.122,471.431c-5.309,5.864-9.618,13.509-13.034,21.24L204.122,471.431"/>
		<path fill="#00B6E0" d="M420.338,132.574l22.21,28.873c0.629,0.809,1.255,1.623,1.882,2.446c0.445,0.584,0.886,1.167,1.327,1.757
			C438.463,153.724,429.933,142.641,420.338,132.574 M337.729,80.901c21.156,6.971,47.634,21.397,74.721,47.125l1.295-2.05
			C392.423,105.621,366.515,90.029,337.729,80.901 M315.43,75.893c4.126,0.427,8.72,1.239,13.699,2.498
			c-3.126-0.835-6.28-1.593-9.466-2.275C316.926,75.935,315.43,75.893,315.43,75.893"/>
		<path fill="#00ACE0" d="M319.663,76.116c3.186,0.682,6.34,1.44,9.466,2.275c2.754,0.697,5.623,1.529,8.601,2.51
			c28.785,9.127,54.693,24.719,76.016,45.075l0.685-1.083l5.908,7.681c9.595,10.066,18.125,21.149,25.419,33.076
			c47.187,63.011,74.673,157.243,74.673,157.243s21-112-38-178C430.376,86.664,340.18,77.473,319.663,76.116"/>
		<path fill="#5DC5ED" d="M414.43,124.893l-0.685,1.083l-1.295,2.05c10.028,9.525,20.143,20.603,30.098,33.421l-22.21-28.873
			L414.43,124.893"/>
		<path fill="#D4DD6C" d="M518.676,202.089c0.13,0.479,0.256,0.944,0.384,1.424c1.124,0.809,3.086,1.152,5.606,1.152
			c1.387,0,2.943-0.104,4.621-0.292C525.8,203.795,522.227,203.008,518.676,202.089"/>
		<path fill="#86CFE7" d="M375.284,26.401c-12.007,0-21.31,1.438-26.433,2.468c48.478,14.268,90.813,42.894,122.078,80.951
			c6.902,7.717,12.844,16.204,17.961,24.823c13.07,20.621,23.201,43.311,29.785,67.445c3.551,0.919,7.124,1.707,10.611,2.285
			c15.41-1.721,41.143-10.48,41.143-10.48s-25-63-89-124C443.523,33.764,402.467,26.4,375.284,26.401"/>
		<path fill="#1CBAE4" d="M488.891,134.644c18.328,30.867,26.083,63.412,29.539,68.25c0.165,0.231,0.376,0.438,0.63,0.62
			c-0.128-0.48-0.254-0.945-0.384-1.424C512.092,177.955,501.961,155.265,488.891,134.644 M348.852,28.869
			c-2.861,0.575-4.422,1.024-4.422,1.024s71,33,113,67c4.865,3.939,9.356,8.294,13.5,12.927
			C439.665,71.763,397.329,43.137,348.852,28.869"/>
		<path fill="#D4DD6C" d="M627.246,188.934l-9.816,6.959C617.43,195.893,622.133,194.018,627.246,188.934"/>
		<path fill="#86CFE7" d="M489.43,22.893c0,0,27,12,68,69s60,104,60,104l0,0l9.816-6.959c6.087-6.052,12.754-16.65,12.754-34.041
			l0,0C640,122.893,580.43,29.893,489.43,22.893"/>
		<path fill="#D4DD6C" d="M59.92,387.261c1.321,7.843,2.779,15.609,4.332,23.216c-0.607-8.77-0.822-14.584-0.822-14.584
			s-0.761-2.434-2.045-5.996C60.893,389.023,60.402,388.141,59.92,387.261"/>
		<path fill="#86CFE7" d="M31.43,310.893c-43,163,25,313,25,313l5.138-5.993c12.733-18.093,31.355-43.38,47.282-60.368
			c-5.905-12.611-26.731-57.572-34.42-80.639c-6.047-18.139-8.934-48.465-10.178-66.416c-1.553-7.606-3.011-15.373-4.332-23.216
			c-10.275-18.75-18.206-38.966-23.401-60.256C33.552,317.825,31.43,310.893,31.43,310.893"/>
		<path fill="#1CBAE4" d="M36.519,327.005c5.195,21.29,13.126,41.506,23.401,60.256c0.482,0.88,0.973,1.762,1.465,2.636
			c-2.008-5.572-5.295-13.904-8.955-20.004C48.687,363.654,41.439,342.235,36.519,327.005"/>
		<path fill="#CCE9F6" d="M108.85,557.532C92.923,574.52,74.301,599.807,61.567,617.9l48.862-57.007
			C110.43,560.893,109.856,559.682,108.85,557.532"/>
		<path fill="#86CFE7" d="M104.43,0H0v191.893c0,0,8.523-41.638,22.43-80C51.43,31.893,104.43,0,104.43,0"/>
		<path fill="#D4DD6C" d="M348.715,579.735l0.715,17.158l0,0C349.43,596.893,350.891,589.587,348.715,579.735"/>
		<path fill="#CCE9F6" d="M279.785,541.168c-10.573,0-22.37,1.127-35.355,3.725c-60,12-87,43-87,43s85-24,115-25
			c0.423-0.014,0.848-0.021,1.277-0.021c30.037,0,75.723,34.021,75.723,34.021l-0.715-17.158c-0.942-4.265-2.566-9.008-5.285-13.842
			C336.513,553.596,314.894,541.168,279.785,541.168"/>
		<path fill="#D4DD6C" d="M366.628,629.349c1.131,5.929,1.802,10.651,1.802,10.651l0,0l-1-10.107
			C367.43,629.893,367.157,629.703,366.628,629.349"/>
		<path fill="#CCE9F6" d="M268.553,596.505c-46.194,0-73.123,40.388-73.123,40.388s25-11,61-17
			c3.711-0.618,7.463-0.896,11.211-0.896c32.608,0,64.789,21.003,64.789,21.003h36c0,0-0.671-4.723-1.802-10.651
			c-5.88-3.924-43.41-27.869-90.198-32.456C273.743,596.629,271.121,596.505,268.553,596.505"/>
		<path d="M81.431,270.393c0.672-2.481,1.316-4.862,1.942-7.176c0.316-1.146,0.572-2.275,0.911-3.381
			c0.335-1.103,0.667-2.192,0.996-3.274c0.617-2.143,1.225-4.252,1.831-6.359c0.673-2.086,1.307-4.16,1.903-6.259
			c2.544-8.363,4.807-17.102,8.215-28.099c0.395-1.508,1.044-3.347,1.785-5.506c0.368-1.081,0.764-2.241,1.184-3.474
			c0.215-0.615,0.414-1.256,0.658-1.9c0.254-0.641,0.515-1.298,0.782-1.972c0.534-1.348,1.093-2.761,1.676-4.233
			c0.292-0.736,0.589-1.486,0.893-2.251c0.34-0.749,0.686-1.511,1.038-2.287c0.589-1.301,1.183-2.613,1.78-3.936
			c0.386-0.829,0.734-1.681,1.154-2.502c0.421-0.82,0.844-1.644,1.268-2.471c0.847-1.654,1.7-3.321,2.56-5
			c0.911-1.651,1.882-3.285,2.828-4.947c1.833-3.361,4.022-6.568,6.121-9.887c0.514-0.837,1.079-1.644,1.66-2.443
			c0.572-0.805,1.147-1.612,1.724-2.422c0.576-0.81,1.153-1.623,1.732-2.438l0.869-1.225l0.931-1.184
			c1.243-1.581,2.492-3.17,3.749-4.769l0.942-1.201l1.002-1.157c0.669-0.772,1.34-1.546,2.013-2.323s1.347-1.555,2.022-2.335
			l1.018-1.169l1.073-1.124c1.432-1.501,2.87-3.01,4.315-4.526c1.434-1.527,3.018-2.917,4.527-4.394
			c1.529-1.457,3.042-2.947,4.683-4.308c1.609-1.395,3.226-2.796,4.849-4.202c1.685-1.33,3.376-2.665,5.074-4.004
			c0.854-0.663,1.692-1.35,2.562-1.998l2.658-1.888c1.787-1.243,3.527-2.568,5.365-3.76c1.845-1.182,3.695-2.368,5.551-3.558
			l1.395-0.891l1.437-0.825l2.878-1.654c3.793-2.299,7.833-4.192,11.798-6.265c4.093-1.808,8.13-3.796,12.366-5.355l3.148-1.243
			c0.526-0.204,1.048-0.423,1.579-0.616l1.607-0.542c2.143-0.726,4.289-1.452,6.438-2.18c2.164-0.681,4.365-1.255,6.549-1.892
			c1.096-0.306,2.186-0.635,3.287-0.923l3.331-0.767c8.854-2.198,17.944-3.52,27.064-4.371l6.857-0.524l6.876-0.18
			c1.146-0.02,2.292-0.08,3.438-0.069l3.437,0.088c2.289,0.08,4.583,0.066,6.865,0.219c2.281,0.173,4.562,0.347,6.84,0.52
			l1.708,0.128c0.568,0.056,1.133,0.14,1.699,0.209l3.395,0.432c4.54,0.47,8.998,1.399,13.47,2.167
			c2.219,0.469,4.419,1.01,6.624,1.508c1.101,0.261,2.208,0.49,3.299,0.776l3.254,0.926c2.16,0.64,4.35,1.173,6.476,1.894
			c2.126,0.719,4.248,1.437,6.366,2.153c1.065,0.337,2.105,0.743,3.14,1.161l3.108,1.226l3.102,1.221
			c1.038,0.393,2.027,0.897,3.042,1.339c2.018,0.912,4.028,1.821,6.034,2.727c1.96,1.004,3.913,2.005,5.86,3.002
			c1.97,0.957,3.851,2.064,5.732,3.152l2.823,1.622c0.942,0.535,1.883,1.069,2.78,1.671c1.818,1.165,3.63,2.326,5.435,3.483
			c0.914,0.561,1.786,1.18,2.651,1.805c0.87,0.619,1.738,1.236,2.605,1.853c3.523,2.388,6.76,5.103,10.068,7.658
			c1.613,1.328,3.161,2.722,4.734,4.067c0.783,0.678,1.564,1.353,2.344,2.027c0.767,0.688,1.495,1.415,2.241,2.118
			c1.484,1.414,2.962,2.821,4.431,4.221c1.403,1.466,2.798,2.925,4.185,4.375c0.693,0.726,1.384,1.449,2.073,2.171
			c0.672,0.737,1.309,1.502,1.962,2.248c1.3,1.499,2.591,2.988,3.875,4.469c4.916,6.099,9.545,12.195,13.486,18.478
			c8.031,12.468,14.126,25.077,18.544,37.074c4.431,12.002,7.185,23.381,8.876,33.523c1.684,10.147,2.464,19.063,2.593,26.391
			c0.047,1.832,0.092,3.564,0.134,5.192c-0.006,1.628-0.071,3.153-0.099,4.57c-0.035,1.417-0.067,2.728-0.098,3.927
			c-0.017,0.6-0.032,1.171-0.047,1.715c-0.041,0.542-0.081,1.056-0.118,1.542c-0.295,3.885-0.45,5.943-0.45,5.943
			s-0.039,0.515-0.114,1.515c-0.072,1.001-0.303,2.474-0.536,4.407c-0.123,0.966-0.26,2.045-0.411,3.234
			c-0.153,1.189-0.291,2.493-0.571,3.883c-0.249,1.395-0.518,2.895-0.805,4.497c-0.297,1.6-0.548,3.315-1.001,5.09
			c-0.842,3.563-1.653,7.546-2.955,11.786c-1.116,4.292-2.734,8.816-4.392,13.685c-3.575,9.644-8.415,20.296-14.945,31.299
			c-0.768,1.403-1.657,2.754-2.542,4.128c-0.882,1.375-1.773,2.766-2.674,4.17c-1.839,2.782-3.883,5.507-5.868,8.35
			c-1.071,1.363-2.151,2.739-3.242,4.128c-0.545,0.693-1.093,1.391-1.643,2.091l-0.827,1.052l-0.881,1.016
			c-1.176,1.356-2.361,2.725-3.558,4.104c-0.604,0.683-1.181,1.397-1.814,2.063c-0.636,0.665-1.272,1.333-1.913,2.004
			c-1.279,1.342-2.568,2.693-3.866,4.056c-1.359,1.301-2.729,2.611-4.107,3.931c-2.704,2.698-5.711,5.142-8.653,7.729
			c-1.467,1.301-3.073,2.451-4.615,3.696c-0.78,0.613-1.562,1.229-2.346,1.845l-1.181,0.924l-1.226,0.869
			c-1.635,1.163-3.279,2.332-4.934,3.508l-1.242,0.882l-1.286,0.823c-0.859,0.55-1.72,1.102-2.583,1.654
			c-13.76,8.934-29.377,16.174-46.06,21.449c-4.22,1.155-8.416,2.509-12.755,3.401l-3.239,0.748c-1.08,0.258-2.163,0.507-3.263,0.68
			c-2.19,0.391-4.386,0.783-6.587,1.176c-1.097,0.22-2.208,0.354-3.32,0.49l-3.338,0.423c-2.228,0.283-4.456,0.603-6.71,0.724
			c-2.248,0.171-4.501,0.343-6.757,0.515c-2.261,0.091-4.528,0.12-6.798,0.187l-3.406,0.083l-3.412-0.089
			c-2.274-0.071-4.555-0.085-6.832-0.2c-4.546-0.375-9.116-0.592-13.644-1.274c-4.554-0.477-9.047-1.375-13.56-2.168
			c-2.246-0.446-4.467-1.015-6.703-1.513l-3.346-0.78l-3.305-0.941c-8.854-2.366-17.458-5.578-25.804-9.242
			c-8.381-3.605-16.354-8.02-24.015-12.774c-15.308-9.568-28.929-21.275-40.504-34.122c-1.416-1.635-2.827-3.264-4.232-4.886
			c-0.72-0.798-1.382-1.641-2.036-2.486c-0.661-0.841-1.32-1.68-1.978-2.518c-2.71-3.291-5.047-6.818-7.502-10.21
			c-1.171-1.734-2.265-3.511-3.394-5.25c-0.561-0.872-1.119-1.743-1.677-2.611c-0.539-0.88-1.033-1.784-1.551-2.671
			c-1.024-1.78-2.044-3.551-3.058-5.312c-0.8-1.556-1.597-3.103-2.389-4.642c-0.434-0.846-0.863-1.682-1.287-2.508
			c-0.212-0.413-0.423-0.823-0.633-1.231c-0.188-0.417-0.376-0.832-0.562-1.244c-0.746-1.647-1.473-3.251-2.175-4.802
			c-0.352-0.775-0.698-1.538-1.038-2.287c-0.303-0.764-0.601-1.515-0.893-2.25c-0.582-1.473-1.142-2.886-1.675-4.233
			c-0.268-0.674-0.529-1.331-0.783-1.972c-0.244-0.645-0.443-1.285-0.657-1.9c-0.421-1.232-0.816-2.393-1.185-3.474
			c-0.741-2.16-1.391-3.998-1.785-5.507c-3.409-10.998-5.671-19.738-8.216-28.101c-0.596-2.098-1.229-4.173-1.902-6.258
			c-0.606-2.107-1.214-4.216-1.832-6.359c-0.328-1.082-0.66-2.172-0.995-3.274c-0.339-1.106-0.595-2.234-0.911-3.381
			C82.747,275.255,82.103,272.874,81.431,270.393c-0.56,2.502-1.086,4.928-1.577,7.303c-0.233,1.187-0.509,2.364-0.682,3.527
			c-0.163,1.167-0.324,2.321-0.483,3.465c-0.294,2.296-0.598,4.575-0.779,6.852c-0.119,2.271-0.199,4.55-0.235,6.866
			c0.015,9.229,1.042,19.063,4.611,31.016c0.416,1.637,1.1,3.634,1.89,5.978c0.394,1.173,0.817,2.431,1.267,3.769
			c0.23,0.667,0.446,1.361,0.707,2.06c0.272,0.695,0.552,1.409,0.839,2.14c0.574,1.462,1.176,2.994,1.803,4.591
			c0.315,0.797,0.638,1.61,0.965,2.438c0.366,0.812,0.738,1.64,1.117,2.48c0.759,1.682,1.543,3.419,2.35,5.204
			c0.201,0.446,0.405,0.896,0.609,1.349c0.226,0.441,0.453,0.887,0.682,1.335c0.458,0.896,0.921,1.802,1.39,2.719
			c0.859,1.666,1.723,3.341,2.591,5.025c1.096,1.909,2.198,3.827,3.307,5.756c0.561,0.961,1.098,1.938,1.682,2.891
			c0.603,0.941,1.206,1.885,1.812,2.83c1.222,1.885,2.409,3.806,3.677,5.684c2.65,3.678,5.192,7.487,8.118,11.057
			c0.712,0.906,1.427,1.814,2.142,2.724c0.71,0.914,1.429,1.825,2.204,2.69c1.521,1.757,3.049,3.52,4.581,5.289
			c12.526,13.908,27.271,26.575,43.846,36.937c8.293,5.152,16.935,9.922,26.013,13.835c9.04,3.971,18.367,7.44,27.959,10.011
			l3.582,1.015l3.624,0.849c2.422,0.543,4.83,1.151,7.263,1.635c4.887,0.867,9.757,1.827,14.686,2.35
			c4.903,0.729,9.848,0.978,14.768,1.372c2.463,0.125,4.929,0.145,7.39,0.22l3.688,0.09l3.685-0.086
			c2.454-0.07,4.905-0.106,7.351-0.208c2.441-0.186,4.879-0.37,7.312-0.555c2.438-0.138,4.852-0.478,7.263-0.784l3.614-0.46
			c1.204-0.148,2.406-0.298,3.595-0.533c2.384-0.426,4.762-0.851,7.134-1.274c1.191-0.191,2.364-0.459,3.534-0.736l3.509-0.81
			c4.698-0.979,9.249-2.429,13.817-3.693c18.077-5.711,34.985-13.573,49.88-23.24c0.934-0.6,1.865-1.197,2.795-1.794l1.391-0.894
			l1.346-0.953c1.789-1.273,3.569-2.539,5.339-3.798l1.325-0.944l1.277-0.998c0.85-0.667,1.695-1.332,2.54-1.995
			c1.67-1.347,3.402-2.6,4.991-4.004c3.188-2.795,6.432-5.451,9.363-8.365c1.49-1.429,2.987-2.831,4.439-4.257
			c1.405-1.474,2.8-2.937,4.185-4.389c0.691-0.726,1.381-1.449,2.067-2.171c0.685-0.722,1.311-1.492,1.965-2.231
			c1.292-1.493,2.574-2.975,3.847-4.443l0.951-1.101l0.896-1.137c0.595-0.758,1.188-1.512,1.778-2.263
			c1.178-1.503,2.346-2.994,3.502-4.471c2.155-3.071,4.36-6.026,6.351-9.038c0.975-1.52,1.938-3.024,2.894-4.513
			c0.955-1.489,1.914-2.953,2.749-4.471c7.065-11.912,12.301-23.451,16.167-33.896c1.802-5.271,3.539-10.176,4.754-14.822
			c1.4-4.594,2.289-8.904,3.193-12.765c0.484-1.924,0.762-3.779,1.082-5.511c0.31-1.735,0.599-3.359,0.867-4.869
			c0.298-1.506,0.451-2.916,0.617-4.203c0.164-1.287,0.312-2.456,0.445-3.501c0.252-2.092,0.494-3.687,0.573-4.769
			c0.083-1.082,0.125-1.638,0.125-1.638s0.17-2.226,0.49-6.428c0.04-0.525,0.082-1.082,0.126-1.668
			c0.018-0.588,0.035-1.206,0.054-1.854c0.034-1.296,0.07-2.712,0.109-4.245c0.031-1.532,0.099-3.18,0.105-4.94
			c-0.043-1.76-0.09-3.632-0.139-5.612c-0.143-7.919-0.973-17.567-2.794-28.554c-1.829-10.98-4.81-23.307-9.603-36.308
			c-4.779-12.996-11.372-26.655-20.061-40.153c-4.27-6.799-9.267-13.405-14.593-20.001c-1.388-1.604-2.784-3.217-4.188-4.839
			c-0.707-0.807-1.398-1.633-2.125-2.431c-0.745-0.782-1.491-1.566-2.24-2.353c-1.501-1.569-3.011-3.146-4.528-4.733
			c-1.589-1.516-3.186-3.04-4.791-4.571c-0.808-0.76-1.598-1.544-2.427-2.29c-0.843-0.731-1.687-1.463-2.533-2.198
			c-1.701-1.458-3.379-2.963-5.125-4.4c-3.573-2.775-7.084-5.703-10.893-8.295c-0.938-0.667-1.878-1.335-2.819-2.005
			c-0.938-0.675-1.883-1.344-2.871-1.954c-1.953-1.253-3.914-2.51-5.882-3.772c-0.974-0.649-1.99-1.229-3.01-1.811
			c-1.017-0.585-2.035-1.171-3.056-1.758c-2.038-1.178-4.076-2.373-6.207-3.415c-2.109-1.08-4.225-2.164-6.347-3.25
			c-2.172-0.983-4.351-1.97-6.534-2.959c-1.1-0.479-2.173-1.02-3.297-1.449l-3.357-1.326l-3.368-1.328
			c-1.12-0.451-2.248-0.889-3.402-1.258c-2.294-0.776-4.593-1.554-6.896-2.334c-2.304-0.778-4.673-1.365-7.014-2.057l-3.526-1
			c-1.183-0.311-2.382-0.562-3.573-0.846c-2.389-0.542-4.773-1.125-7.177-1.632c-4.841-0.844-9.674-1.836-14.587-2.354l-3.675-0.466
			c-0.613-0.074-1.226-0.163-1.84-0.224l-1.849-0.142c-2.466-0.188-4.933-0.375-7.401-0.563c-2.471-0.164-4.949-0.157-7.426-0.241
			l-3.716-0.092c-1.239-0.012-2.479,0.049-3.718,0.07l-7.437,0.198l-7.421,0.562c-9.872,0.915-19.716,2.357-29.312,4.729
			l-3.608,0.834c-1.193,0.312-2.376,0.666-3.563,0.997c-2.367,0.687-4.75,1.314-7.095,2.052c-2.329,0.788-4.655,1.574-6.978,2.36
			l-1.74,0.59c-0.576,0.208-1.142,0.444-1.712,0.665l-3.413,1.344c-4.587,1.697-8.967,3.835-13.395,5.805
			c-4.301,2.234-8.669,4.3-12.781,6.781l-3.116,1.793l-1.555,0.895l-1.511,0.962c-2.009,1.289-4.013,2.573-6.01,3.854
			c-1.989,1.292-3.878,2.72-5.811,4.068l-2.876,2.047c-0.94,0.702-1.851,1.443-2.775,2.161c-1.836,1.451-3.685,2.875-5.49,4.337
			c-1.757,1.521-3.507,3.037-5.25,4.546c-1.771,1.478-3.412,3.085-5.067,4.663c-1.637,1.596-3.345,3.107-4.899,4.757
			c-1.563,1.641-3.12,3.273-4.67,4.899l-1.16,1.218l-1.103,1.264c-0.731,0.845-1.462,1.687-2.19,2.527
			c-0.728,0.841-1.453,1.679-2.177,2.516l-1.082,1.254l-1.022,1.299c-1.359,1.73-2.712,3.452-4.057,5.164l-1.005,1.283l-0.943,1.324
			c-0.627,0.882-1.253,1.761-1.877,2.638c-0.623,0.877-1.244,1.752-1.864,2.624c-0.627,0.867-1.236,1.741-1.796,2.646
			c-2.277,3.59-4.636,7.07-6.627,10.707c-1.025,1.8-2.072,3.571-3.058,5.36c-0.932,1.818-1.856,3.623-2.774,5.415
			c-0.458,0.896-0.914,1.789-1.369,2.678c-0.452,0.89-0.834,1.811-1.251,2.709c-0.647,1.433-1.29,2.854-1.927,4.265
			c-0.379,0.841-0.751,1.668-1.117,2.48c-0.328,0.829-0.649,1.642-0.965,2.439c-0.627,1.596-1.229,3.128-1.804,4.59
			c-0.286,0.731-0.565,1.445-0.838,2.14c-0.261,0.699-0.477,1.393-0.707,2.06c-0.45,1.337-0.873,2.596-1.267,3.768
			c-0.79,2.344-1.474,4.341-1.89,5.978c-3.568,11.952-4.597,21.785-4.61,31.014c0.035,2.315,0.115,4.594,0.234,6.866
			c0.182,2.278,0.485,4.556,0.779,6.853c0.159,1.145,0.32,2.298,0.483,3.465c0.173,1.164,0.448,2.34,0.682,3.527
			C80.345,265.465,80.871,267.89,81.431,270.393z"/>
		<path d="M183.46,498.809c-4.096-3.178-7.539-5.66-11.182-8.232c-1.833-1.26-3.767-2.433-5.827-3.766
			c-1.039-0.65-2.128-1.305-3.281-1.971c-1.154-0.665-2.38-1.331-3.642-2.095c-1.38-0.804-3.452-2.01-6.021-3.505
			c-1.259-0.79-2.64-1.656-4.118-2.584c-0.498-0.313-0.999-0.629-1.502-0.944c-0.987-0.629-1.999-1.229-2.964-1.909
			c-1.952-1.326-3.919-2.664-5.9-4.012c-3.882-2.811-7.834-5.652-11.662-8.766c-7.714-6.149-15.281-12.92-22.55-20.318
			c-14.487-14.835-27.735-32.217-38.618-51.687c-10.892-19.454-19.371-41.002-24.605-63.676
			c-10.523-45.337-7.607-95.076,8.662-138.994c4.118-10.954,8.922-21.567,14.341-31.748c1.433-2.501,2.861-4.998,4.286-7.487
			c0.73-1.235,1.395-2.507,2.176-3.707l2.314-3.609l2.307-3.6l1.151-1.797c0.394-0.591,0.818-1.161,1.226-1.742
			c1.646-2.313,3.285-4.621,4.92-6.92c13.493-18.09,28.987-33.998,45.685-46.973c1.039-0.817,2.075-1.631,3.108-2.444l1.553-1.211
			l1.601-1.138c2.132-1.516,4.252-3.023,6.359-4.522l1.582-1.118l1.627-1.042c1.082-0.694,2.162-1.386,3.238-2.076
			c1.076-0.69,2.148-1.378,3.219-2.064l1.602-1.028l1.643-0.949c4.391-2.495,8.652-5.096,13.082-7.244
			c2.194-1.111,4.353-2.259,6.533-3.319c2.209-0.999,4.403-1.99,6.58-2.975c1.089-0.492,2.173-0.983,3.253-1.472
			c1.083-0.483,2.196-0.881,3.286-1.323c2.188-0.863,4.359-1.719,6.512-2.568l1.611-0.636l1.631-0.559
			c1.087-0.368,2.17-0.734,3.247-1.098c2.154-0.729,4.291-1.453,6.407-2.169c4.3-1.215,8.506-2.47,12.665-3.556
			c2.095-0.483,4.169-0.962,6.222-1.436c1.025-0.237,2.047-0.473,3.062-0.708l1.519-0.351l1.525-0.274
			c16.18-3.195,31.219-4.533,44.484-4.607c13.264-0.077,24.779,0.631,34.129,1.951c2.34,0.31,4.561,0.55,6.634,0.869
			c2.065,0.369,4,0.715,5.798,1.036c1.798,0.32,3.46,0.617,4.981,0.888c1.521,0.279,2.876,0.645,4.103,0.912
			c4.892,1.128,7.483,1.726,7.483,1.726s0.655,0.12,1.894,0.491c1.244,0.354,3.091,0.878,5.505,1.564
			c1.207,0.343,2.557,0.726,4.043,1.148c1.495,0.396,3.071,1.01,4.808,1.574c3.452,1.193,7.478,2.427,11.836,4.249
			c2.195,0.869,4.51,1.785,6.939,2.747c2.381,1.077,4.875,2.206,7.479,3.383c1.292,0.608,2.651,1.146,3.965,1.845
			c1.324,0.679,2.675,1.37,4.05,2.075c2.744,1.424,5.639,2.81,8.479,4.525c11.577,6.46,24.186,14.763,36.844,25.344
			c12.656,10.565,25.353,23.405,37.055,38.526c11.787,15.055,22.211,32.631,30.701,51.987l0.818,1.808l0.731,1.85
			c0.487,1.235,0.975,2.474,1.464,3.716c0.49,1.241,0.98,2.486,1.473,3.733l0.736,1.874l0.646,1.912
			c0.863,2.552,1.73,5.116,2.602,7.691c0.461,1.28,0.835,2.589,1.198,3.905c0.373,1.313,0.746,2.629,1.12,3.947
			c1.617,5.243,2.717,10.666,3.997,16.083c0.597,2.718,1.009,5.485,1.525,8.239c0.247,1.38,0.493,2.762,0.741,4.146
			c0.245,1.384,0.373,2.79,0.565,4.187c0.355,2.799,0.713,5.607,1.07,8.423c0.22,2.83,0.438,5.669,0.659,8.515
			c0.105,1.423,0.212,2.849,0.317,4.276c0.036,1.431,0.071,2.863,0.107,4.298c0.06,2.869,0.173,5.745,0.191,8.628
			c-0.079,11.537-0.944,23.158-2.546,34.75c-1.699,11.58-4.293,23.081-7.607,34.398l-2.644,8.446l-3.032,8.323l-0.759,2.081
			l-0.853,2.045l-1.706,4.09l-1.707,4.09l-1.891,4.008l-1.888,4.008l-0.95,2l-1.034,1.958l-4.144,7.824
			c-1.493,2.544-2.984,5.087-4.476,7.627c-0.723,1.284-1.528,2.517-2.335,3.748l-2.401,3.702c-0.81,1.228-1.58,2.48-2.419,3.687
			l-2.56,3.583c-1.72,2.378-3.357,4.812-5.21,7.08c-1.817,2.295-3.582,4.626-5.433,6.882c-1.9,2.216-3.797,4.427-5.691,6.635
			c-7.754,8.674-16.033,16.758-24.707,24.203c-8.727,7.388-17.899,14.038-27.279,20.062c-2.375,1.46-4.742,2.914-7.1,4.362
			c-2.391,1.393-4.824,2.69-7.219,4.033c-1.208,0.651-2.383,1.361-3.611,1.962c-1.225,0.607-2.447,1.214-3.666,1.819
			c-1.22,0.605-2.437,1.21-3.65,1.812l-1.819,0.904l-1.854,0.817c-2.469,1.089-4.927,2.174-7.373,3.254
			c-2.462,1.044-4.967,1.949-7.428,2.924c-1.234,0.479-2.465,0.957-3.693,1.434c-1.248,0.419-2.493,0.838-3.735,1.255
			c-2.074,0.697-4.137,1.391-6.188,2.08c-3.729,1.128-7.153,2.062-10.005,2.896c-1.422,0.439-2.738,0.707-3.874,0.988
			c-1.139,0.273-2.109,0.506-2.886,0.692c-11.467,2.786-17.821,4.995-27.442,8.827c10.212,1.117,17.373,1.521,29.235-1.235
			c0.803-0.187,1.807-0.42,2.984-0.693c1.174-0.285,2.534-0.559,4.003-1.005c2.947-0.851,6.483-1.812,10.334-2.974
			c2.118-0.711,4.249-1.427,6.39-2.146c1.282-0.432,2.568-0.864,3.857-1.298c1.268-0.491,2.539-0.984,3.813-1.478
			c2.542-1.006,5.127-1.943,7.668-3.021c2.526-1.114,5.064-2.233,7.613-3.358l1.914-0.845l1.879-0.932
			c1.254-0.623,2.51-1.246,3.769-1.871s2.521-1.252,3.785-1.88c1.268-0.621,2.481-1.352,3.729-2.023
			c2.473-1.386,4.984-2.727,7.451-4.165c2.435-1.495,4.878-2.995,7.33-4.502c9.683-6.217,19.15-13.083,28.155-20.708
			c8.954-7.683,17.498-16.026,25.5-24.979c1.954-2.278,3.912-4.562,5.873-6.848c1.91-2.328,3.733-4.733,5.607-7.103
			c1.91-2.343,3.604-4.854,5.378-7.308l2.641-3.7c0.865-1.244,1.662-2.537,2.497-3.804l2.479-3.822
			c0.832-1.271,1.663-2.544,2.41-3.869c1.538-2.622,3.078-5.247,4.619-7.874l4.277-8.076l1.066-2.022l0.981-2.064l1.951-4.138
			l1.949-4.139l1.764-4.222l1.76-4.223l0.88-2.112l0.784-2.148l3.129-8.594l2.73-8.722c3.423-11.685,6.098-23.56,7.851-35.514
			c1.654-11.965,2.545-23.958,2.624-35.86c-0.02-2.974-0.134-5.941-0.196-8.901c-0.038-1.48-0.076-2.958-0.114-4.435
			c-0.108-1.473-0.217-2.943-0.325-4.413c-0.229-2.937-0.456-5.866-0.683-8.787c-0.369-2.906-0.737-5.805-1.104-8.694
			c-0.199-1.442-0.333-2.892-0.586-4.321c-0.255-1.429-0.51-2.855-0.764-4.28c-0.533-2.843-0.962-5.698-1.577-8.505
			c-1.317-5.594-2.461-11.19-4.127-16.604c-0.387-1.361-0.772-2.719-1.158-4.075c-0.375-1.358-0.764-2.71-1.238-4.031
			c-0.899-2.659-1.795-5.306-2.687-7.94l-0.669-1.974l-0.759-1.935c-0.508-1.288-1.015-2.573-1.52-3.854
			c-0.506-1.282-1.01-2.56-1.513-3.835l-0.758-1.91l-0.843-1.867c-8.765-19.984-19.533-38.12-31.695-53.657
			c-12.078-15.604-25.182-28.85-38.244-39.75c-13.064-10.916-26.078-19.484-38.027-26.151c-2.935-1.767-5.921-3.201-8.753-4.669
			c-1.42-0.727-2.814-1.44-4.181-2.14c-1.357-0.72-2.76-1.277-4.094-1.904c-2.688-1.214-5.263-2.378-7.721-3.489
			c-2.508-0.994-4.897-1.939-7.162-2.837c-4.501-1.876-8.655-3.154-12.22-4.383c-1.793-0.582-3.421-1.211-4.963-1.623
			c-1.535-0.436-2.928-0.832-4.174-1.186c-2.493-0.707-4.399-1.248-5.683-1.612c-1.279-0.382-1.956-0.507-1.956-0.507
			s-2.675-0.618-7.724-1.784c-1.266-0.276-2.666-0.651-4.234-0.94c-1.57-0.281-3.286-0.588-5.142-0.92
			c-1.856-0.331-3.853-0.688-5.984-1.068c-2.14-0.329-4.431-0.58-6.846-0.9c-9.65-1.359-21.53-2.098-35.211-2.018
			c-13.684,0.077-29.205,1.453-45.906,4.749l-1.574,0.284l-1.568,0.361c-1.048,0.242-2.102,0.484-3.161,0.729
			c-2.119,0.489-4.26,0.983-6.423,1.483c-4.294,1.119-8.637,2.413-13.075,3.669c-2.186,0.739-4.391,1.485-6.615,2.237
			c-1.112,0.376-2.229,0.755-3.352,1.135l-1.685,0.578l-1.663,0.655c-2.223,0.876-4.464,1.76-6.724,2.65
			c-1.125,0.457-2.273,0.869-3.392,1.367c-1.115,0.504-2.234,1.01-3.358,1.517c-2.248,1.017-4.513,2.041-6.794,3.072
			c-2.251,1.094-4.479,2.276-6.744,3.423c-4.571,2.22-8.974,4.898-13.505,7.477l-1.694,0.98l-1.654,1.06
			c-1.104,0.708-2.212,1.417-3.322,2.129c-1.111,0.712-2.226,1.426-3.343,2.143l-1.678,1.077l-1.634,1.152
			c-2.176,1.547-4.364,3.103-6.563,4.667l-1.652,1.175l-1.603,1.25c-1.067,0.838-2.137,1.678-3.21,2.521
			c-17.231,13.391-33.225,29.801-47.15,48.472c-1.688,2.374-3.381,4.754-5.079,7.142c-0.421,0.6-0.858,1.188-1.265,1.799
			l-1.189,1.854c-0.793,1.236-1.587,2.475-2.383,3.715l-2.388,3.726c-0.805,1.239-1.493,2.551-2.247,3.825
			c-1.47,2.571-2.972,5.133-4.424,7.729c-5.598,10.507-10.558,21.464-14.809,32.774C26.078,229.006,23.066,280.3,33.93,327.111
			c5.403,23.411,14.159,45.661,25.402,65.744c11.235,20.099,24.909,38.038,39.863,53.347c7.501,7.635,15.312,14.622,23.273,20.968
			c3.952,3.212,8.03,6.146,12.038,9.046c2.046,1.391,4.076,2.771,6.091,4.14c0.996,0.701,2.04,1.321,3.06,1.971
			c0.519,0.325,1.036,0.65,1.551,0.974c1.528,0.954,2.956,1.845,4.257,2.657c2.66,1.529,4.805,2.763,6.234,3.585
			c1.311,0.774,2.602,1.413,3.838,2.015c1.235,0.603,2.422,1.156,3.573,1.669c2.286,1.058,4.503,1.809,6.669,2.501
			C174.086,497.162,178.4,497.929,183.46,498.809z"/>
		<path d="M183.098,530.56c2.82-3.623,5.164-6.481,6.977-9.566c1.827-3.076,3.141-6.349,4.187-10.627
			c0.57-2.312,1.704-6.96,3.539-12.372c1.828-5.399,4.432-11.56,7.677-16.574c1.612-2.51,3.372-4.709,5.12-6.449
			c1.753-1.735,3.483-3.001,4.997-3.871c1.518-0.866,2.824-1.34,3.752-1.611c0.458-0.155,0.828-0.235,1.079-0.291
			c0.25-0.06,0.383-0.091,0.383-0.091c0-0.001,0.129-0.046,0.387-0.077c0.257-0.039,0.633-0.097,1.114-0.17
			c0.976-0.105,2.398-0.199,4.207-0.043c1.827,0.143,3.912,0.593,6.662,1.416c0.673,0.166,1.322,0.399,1.98,0.637
			c0.662,0.231,1.335,0.466,2.016,0.704c1.288,0.583,2.683,1.076,3.935,1.779c5.247,2.532,9.542,6.454,12.216,10.44
			c1.359,1.982,2.349,3.971,3.029,5.72c0.385,0.851,0.605,1.688,0.871,2.382c0.212,0.722,0.393,1.337,0.537,1.829
			c0.95,3.689,1.927,6.66,3.267,9.722c1.311,3.073,3.074,6.183,4.734,10.447c3.238-3.314,5.412-6.736,6.713-10.531
			c1.274-3.809,1.645-8.128,0.415-13.449c-0.19-0.716-0.422-1.612-0.725-2.657c-0.359-1.034-0.693-2.238-1.243-3.529
			c-0.999-2.602-2.486-5.649-4.577-8.726c-2.074-3.08-4.763-6.17-7.892-8.868c-0.798-0.65-1.579-1.346-2.414-1.957
			c-0.843-0.598-1.689-1.197-2.536-1.797c-1.747-1.082-3.503-2.175-5.31-3.035c-1.779-0.964-3.605-1.64-5.365-2.4
			c-0.892-0.312-1.771-0.619-2.638-0.922c-0.866-0.305-1.72-0.599-2.562-0.813c-1.704-0.46-3.22-0.938-4.968-1.273
			c-1.681-0.35-3.31-0.576-4.831-0.699c-3.045-0.255-5.639-0.086-7.429,0.129c-1.792,0.254-2.794,0.473-2.794,0.473
			s-0.25,0.057-0.722,0.164c-0.473,0.104-1.166,0.262-2.034,0.537c-1.743,0.507-4.229,1.408-6.951,2.947
			c-2.718,1.532-5.639,3.694-8.327,6.348c-2.687,2.654-5.151,5.768-7.281,9.064c-4.275,6.604-7.281,13.872-9.373,20.054
			c-2.084,6.191-3.293,11.328-3.858,13.897c-1.031,4.749-1.02,8.623-0.291,12.336C179.515,522.892,180.956,526.473,183.098,530.56z"
			/>
		<path d="M45.764,640c7.771-6.789,12.79-11.525,19.853-21.173c0.957-1.306,2.395-3.264,4.177-5.692
			c0.894-1.212,1.874-2.541,2.925-3.965c2.643-3.535,5.46-7.304,8.41-11.25c6.064-8.01,12.761-16.671,19.879-25.363
			c3.563-4.342,7.228-8.696,10.999-12.931c3.771-4.226,7.641-8.381,11.655-12.083c2.001-1.821,4.062-3.602,6.078-4.904
			c0.502-0.34,0.992-0.614,1.457-0.862c0.22-0.098,0.465-0.241,0.659-0.31l0.291-0.11l0.144-0.06l0.229-0.069
			c1.227-0.382,2.509-0.738,3.804-1.085c5.192-1.367,10.399-2.552,15.383-3.674c9.99-2.22,19.216-4.128,27.057-5.71
			c15.687-3.159,25.841-5.039,25.841-5.039s2.537-0.472,7.042-1.309c4.505-0.834,10.98-2.007,18.859-3.373
			c7.878-1.354,17.164-2.931,27.275-4.403c5.052-0.732,10.322-1.466,15.673-2.011c2.658-0.259,5.392-0.5,7.909-0.528
			c2.274-0.016,4.693,0.56,7.183,1.249c4.982,1.521,9.972,4.008,14.714,6.809c4.738,2.836,9.328,5.991,13.552,9.468
			c1.089,0.828,2.073,1.771,3.11,2.644l1.532,1.33c0.502,0.449,0.974,0.927,1.46,1.387c0.96,0.934,1.943,1.836,2.869,2.778
			c0.902,0.963,1.798,1.92,2.688,2.87c0.922,0.927,1.682,1.962,2.516,2.929c0.814,0.981,1.651,1.937,2.351,2.964
			c0.732,1.007,1.458,2.004,2.177,2.991c0.601,0.973,1.194,1.935,1.781,2.887c0.246,0.395,0.488,0.785,0.728,1.171
			c0.221,0.394,0.404,0.794,0.604,1.183c0.394,0.779,0.776,1.537,1.147,2.271c0.39,0.71,0.694,1.492,1.004,2.225
			c0.309,0.732,0.604,1.437,0.888,2.107c1.064,2.706,1.877,4.905,2.332,6.391c1.785,5.464,3.042,9.754,4.25,13.896
			c0.317,1.035,0.562,2.064,0.877,3.103c0.247,1.037,0.563,2.087,0.797,3.162c0.5,2.156,1.007,4.419,1.176,6.985
			c1.062-2.363,1.678-4.734,2.128-7.035c0.243-1.159,0.364-2.301,0.513-3.457c0.082-1.146,0.191-2.31,0.188-3.477
			c0.048-4.678-0.625-9.623-2.505-15.573c-0.482-1.621-1.344-4.002-2.483-6.918c-0.302-0.722-0.617-1.478-0.946-2.266
			c-0.332-0.788-0.649-1.605-1.104-2.458c-0.428-0.851-0.869-1.729-1.323-2.633c-0.231-0.449-0.45-0.916-0.702-1.365
			c-0.269-0.437-0.541-0.879-0.816-1.326c-0.664-1.075-1.336-2.161-2.016-3.259c-0.795-1.096-1.598-2.202-2.408-3.319
			c-0.785-1.141-1.691-2.184-2.581-3.257c-0.907-1.056-1.755-2.19-2.743-3.191c-0.963-1.028-1.934-2.063-2.909-3.104
			c-0.998-1.017-2.051-1.986-3.083-2.989c-0.523-0.493-1.033-1.006-1.57-1.487l-1.638-1.424c-1.107-0.936-2.167-1.941-3.328-2.827
			c-4.515-3.712-9.403-7.079-14.52-10.138c-5.143-3.022-10.516-5.74-16.425-7.555c-2.975-0.832-6.115-1.595-9.467-1.584
			c-3.089,0.036-5.895,0.301-8.696,0.571c-5.566,0.57-10.895,1.316-16.015,2.061c-10.231,1.496-19.558,3.085-27.479,4.452
			c-7.917,1.378-14.418,2.561-18.94,3.4c-4.521,0.844-7.067,1.319-7.067,1.319s-10.191,1.879-25.942,5.04
			c-7.877,1.584-17.14,3.493-27.219,5.728c-5.045,1.135-10.273,2.317-15.694,3.742c-1.355,0.362-2.733,0.744-4.157,1.187
			l-0.27,0.082l-0.343,0.126l-0.684,0.261c-0.456,0.178-0.819,0.381-1.232,0.575c-0.768,0.402-1.494,0.822-2.155,1.265
			c-2.689,1.754-4.909,3.708-7.116,5.705c-4.352,4.014-8.328,8.297-12.209,12.639c-3.871,4.345-7.597,8.771-11.21,13.173
			c-7.216,8.811-13.964,17.538-20.068,25.606c-1.518,2.021-3.002,3.998-4.447,5.922c-1.376,1.854-2.714,3.657-4.01,5.402
			c-1.053,1.434-2.036,2.772-2.932,3.993c-1.779,2.45-3.213,4.427-4.169,5.744C52.306,624.01,49.448,630.359,45.764,640z"/>
		<path d="M154.431,590.227c10.299-0.632,17.171-1.326,28.649-4.684c1.945-0.566,5.11-1.487,11.688-3.401
			c12.611-3.624,33.926-9.628,52.199-13.675c9.111-2.011,17.536-3.541,23.359-3.904c0.713-0.032,1.393-0.062,2.036-0.091
			c0.599,0.015,1.164,0.029,1.692,0.042c0.505,0.027,0.842,0.12,1.227,0.152c0.092,0.01,0.182,0.02,0.27,0.029
			c0.115,0.028,0.228,0.057,0.338,0.084c0.22,0.055,0.429,0.106,0.628,0.156c0.788,0.186,1.426,0.381,1.849,0.493
			c0.426,0.118,0.649,0.181,0.649,0.181s0.754,0.228,2.126,0.643c1.374,0.438,3.371,1.081,5.844,1.964
			c4.944,1.751,11.794,4.396,19.316,7.735c7.521,3.332,15.737,7.321,23.38,11.676c7.633,4.345,14.751,9.03,19.913,13.536
			c3.289,2.829,5.589,5.369,7.055,7.447c0.416,0.508,0.664,1.012,0.961,1.466c0.143,0.228,0.279,0.447,0.412,0.658
			c0.102,0.213,0.2,0.418,0.294,0.615c0.191,0.397,0.367,0.762,0.527,1.095c0.158,0.415,0.301,0.79,0.429,1.127
			c2.135,5.434,3.93,9.617,5.578,13.618c0.428,1.002,0.849,1.992,1.272,2.985c0.37,0.997,0.762,2.003,1.179,3.037
			c0.401,1.032,0.699,2.093,1.091,3.217c0.276,1.116,0.623,2.287,0.706,3.571c0.534-1.186,0.785-2.432,1.054-3.647
			c0.156-1.198,0.362-2.411,0.424-3.584c0.047-1.168,0.076-2.33,0.083-3.499c-0.033-1.153-0.146-2.287-0.251-3.451
			c-0.457-4.646-1.69-9.375-3.882-15.117c-0.133-0.356-0.28-0.754-0.444-1.193c-0.203-0.475-0.478-1.036-0.754-1.623
			c-0.144-0.294-0.293-0.601-0.449-0.92c-0.177-0.293-0.361-0.597-0.553-0.913c-0.394-0.619-0.78-1.338-1.286-1.977
			c-1.913-2.719-4.652-5.699-8.306-8.852c-11.542-10.013-29.829-19.646-45.266-26.44c-7.718-3.418-14.745-6.122-19.881-7.934
			c-2.563-0.911-4.666-1.586-6.12-2.047c-1.47-0.442-2.277-0.686-2.277-0.686s-0.246-0.068-0.713-0.199
			c-0.472-0.126-1.141-0.333-2.062-0.553c-0.228-0.057-0.468-0.117-0.721-0.18c-0.127-0.031-0.257-0.063-0.39-0.097
			c-0.165-0.026-0.333-0.054-0.506-0.081c-0.675-0.095-1.479-0.245-2.217-0.285c-0.716-0.02-1.482-0.04-2.294-0.062
			c-0.78,0.016-1.575,0.065-2.426,0.102c-6.682,0.422-15.257,2.009-24.581,4.048c-18.612,4.105-40.01,10.128-52.689,13.796
			c-6.602,1.947-9.777,2.884-11.729,3.459C169.367,581.552,163.236,584.841,154.431,590.227z"/>
		<path d="M192.432,640c5.034-1.105,9.234-1.901,13.542-3.02c4.316-1.09,8.735-2.487,14.305-4.421
			c1.889-0.644,4.951-1.749,11.406-3.66c4.646-1.356,12.546-3.37,19.33-4.371c6.784-1.076,12.354-1.117,12.354-1.117
			s0.291-0.005,0.82-0.014c0.531-0.024,1.292,0.008,2.238,0.034c0.473,0.014,0.992,0.028,1.551,0.045
			c0.553,0.044,1.145,0.09,1.769,0.14c1.259,0.061,2.603,0.3,4.044,0.476c3.006,0.596,6.338,1.257,9.571,1.898
			c0.809,0.162,1.61,0.323,2.399,0.481c0.781,0.201,1.551,0.399,2.301,0.593c1.5,0.386,2.923,0.751,4.216,1.083
			c1.091,0.279,2.13,0.546,3.118,0.8c0.991,0.242,1.926,0.496,2.802,0.781c1.758,0.539,3.322,1.018,4.705,1.441
			c2.764,0.846,4.805,1.443,6.177,1.951c2.795,0.962,5.314,1.741,7.686,2.386c2.345,0.719,4.542,1.297,6.719,1.784
			c4.335,1.022,8.547,1.736,13.614,2.709c-4.02-3.234-7.571-5.756-11.502-8.028c-1.975-1.114-4.044-2.183-6.326-3.249
			c-2.31-0.992-4.836-1.978-7.698-2.994c-1.404-0.533-3.504-1.162-6.348-2.043c-1.423-0.438-3.034-0.936-4.845-1.494
			c-0.899-0.294-1.865-0.559-2.891-0.811c-1.022-0.264-2.097-0.541-3.225-0.832c-1.338-0.345-2.81-0.725-4.36-1.124
			c-0.776-0.199-1.572-0.403-2.381-0.611c-0.821-0.165-1.656-0.332-2.498-0.501c-3.368-0.66-6.841-1.342-9.973-1.955
			c-1.663-0.208-3.24-0.47-4.66-0.539c-0.71-0.053-1.384-0.103-2.013-0.149c-0.626-0.017-1.207-0.033-1.737-0.047
			c-1.06-0.026-1.914-0.055-2.497-0.029c-0.585,0.012-0.906,0.019-0.906,0.019s-6.169,0.031-13.403,1.164
			c-7.252,1.057-15.515,3.157-20.342,4.592c-6.711,1.996-9.864,3.151-11.812,3.836c-5.734,2.057-10.033,4.166-13.93,6.502
			C199.87,634.068,196.37,636.657,192.432,640z"/>
		<path d="M108.431,84.894c7.353-1.832,11.755-3.334,15.862-8.7c2.22-2.902,8.811-11.704,15.154-19.424
			c3.164-3.867,6.252-7.465,8.571-10.046c2.314-2.591,3.848-4.178,3.848-4.178s0.385-0.395,1.067-1.097
			c0.686-0.696,1.672-1.69,2.885-2.847c1.21-1.157,2.65-2.482,4.218-3.782c0.783-0.663,1.596-1.28,2.416-1.89
			c0.404-0.278,0.82-0.587,1.218-0.835c0.2-0.129,0.405-0.271,0.596-0.377l0.263-0.156l0.037-0.024l-0.047,0.015l-0.01-0.01
			c-0.007-0.011,0.034,0.033-0.109-0.087l-0.065-0.073l-0.016-0.02l0.049,0.048l0.102,0.102l0.404,0.403
			c0.543,0.532,1.077,1.056,1.603,1.57c0.538,0.499,1.116,0.929,1.658,1.378c4.396,3.555,8.591,5.369,10.642,6.212
			c3.853,1.482,7.174,1.554,10.225,0.788c3.041-0.798,5.927-2.421,8.766-4.969c-2.876-2.441-4.784-4.632-6.74-6.298
			c-1.934-1.697-3.853-2.9-6.354-3.966c-1.328-0.612-4.015-1.822-6.657-3.984c-0.325-0.275-0.688-0.524-1.009-0.828
			c-0.312-0.312-0.63-0.629-0.952-0.952l-0.246-0.239l-0.062-0.06l-0.034-0.034l-0.093-0.105l-0.373-0.422
			c-0.525-0.65-0.93-0.926-1.372-1.314c-0.875-0.744-1.759-1.497-2.649-2.254c-0.455-0.358-0.869-0.805-1.363-1.093l-1.77-0.278
			c-1.168-0.228-2.387-0.13-3.593-0.018c-2.423,0.302-4.851,1.259-7.08,2.503c-0.296,0.144-0.531,0.293-0.794,0.444l-0.553,0.333
			c-0.359,0.211-0.675,0.425-1.002,0.639c-0.664,0.425-1.25,0.857-1.854,1.283c-1.152,0.858-2.241,1.705-3.215,2.533
			c-1.972,1.652-3.636,3.207-5.017,4.54c-1.381,1.333-2.469,2.444-3.223,3.219c-0.748,0.778-1.169,1.216-1.169,1.216
			s-1.701,1.739-4.191,4.495c-2.501,2.752-5.774,6.53-9.084,10.548c-6.637,8.026-13.388,17.045-15.562,20.105
			C107.743,72.551,107.615,77.351,108.431,84.894z"/>
		<path d="M236.431,77.56c2.586,4.469,5.213,8.468,7.899,12.217c2.693,3.748,5.475,7.242,8.512,10.658
			c6.096,6.804,13.209,13.324,23.15,20.463c1.702,1.185,3.91,2.781,7.183,5.007c3.325,2.149,7.591,5.119,13.614,8.725
			c1.266,0.78,2.749,1.693,4.375,2.695c1.659,0.947,3.465,1.978,5.34,3.049c1.882,1.06,3.818,2.186,5.779,3.258
			c1.982,1.033,3.961,2.063,5.855,3.05c1.9,0.976,3.697,1.95,5.375,2.765c1.686,0.797,3.209,1.517,4.491,2.123
			c2.563,1.21,4.161,1.963,4.161,1.963s0.333,0.16,0.939,0.45c0.606,0.289,1.482,0.728,2.588,1.181
			c2.206,0.942,5.271,2.251,8.709,3.719c3.44,1.464,7.254,3.087,10.955,4.662c0.927,0.388,1.839,0.795,2.752,1.154
			c0.918,0.345,1.82,0.684,2.7,1.014c1.762,0.659,3.433,1.284,4.95,1.851c4.348,1.627,8.281,3.099,11.824,4.425
			c0.886,0.33,1.748,0.65,2.585,0.962c0.848,0.283,1.671,0.557,2.47,0.823c1.598,0.533,3.1,1.033,4.509,1.502
			c5.638,1.869,9.786,3.243,12.632,4.187c5.802,1.769,11.051,3.105,15.946,4.225c1.226,0.274,2.427,0.543,3.617,0.776
			c1.197,0.203,2.376,0.402,3.538,0.6c2.33,0.372,4.605,0.688,6.856,0.959c4.49,0.582,8.938,0.821,13.525,0.963
			c2.291,0.08,4.624,0.12,7.04,0.081c2.408-0.025,4.885-0.054,7.463-0.173c-4.617-2.257-8.856-4.329-12.951-6.33
			c-4.086-1.988-8.053-3.772-12.13-5.602c-2.043-0.894-4.122-1.759-6.27-2.602c-2.153-0.828-4.361-1.678-6.657-2.562
			c-4.596-1.756-9.609-3.421-15.255-5.204c-2.773-0.936-6.814-2.3-12.307-4.154c-1.374-0.461-2.839-0.953-4.396-1.476
			c-0.779-0.261-1.582-0.53-2.408-0.808c-0.815-0.305-1.654-0.62-2.518-0.942c-3.449-1.296-7.28-2.735-11.515-4.326
			c-1.478-0.556-3.104-1.167-4.819-1.811c-0.857-0.321-1.737-0.651-2.632-0.986c-0.889-0.349-1.773-0.743-2.676-1.119
			c-3.6-1.519-7.31-3.084-10.657-4.496c-3.349-1.408-6.334-2.664-8.482-3.567c-1.086-0.437-1.914-0.848-2.494-1.12
			c-0.579-0.273-0.897-0.423-0.897-0.423s-1.517-0.728-3.951-1.895c-1.218-0.583-2.666-1.276-4.268-2.043
			c-1.594-0.784-3.305-1.725-5.114-2.663c-1.805-0.947-3.688-1.936-5.577-2.928c-1.87-1.029-3.719-2.111-5.516-3.125
			c-1.792-1.022-3.519-2.005-5.104-2.909c-1.561-0.951-2.983-1.819-4.198-2.56c-5.769-3.439-9.86-6.28-13.055-8.324
			c-3.144-2.122-5.27-3.639-6.912-4.758c-9.597-6.747-17.236-11.883-24.798-16.49c-3.769-2.317-7.515-4.507-11.423-6.776
			C244.879,82.621,240.805,80.293,236.431,77.56z"/>
		<path d="M517.099,200.894c2.378,0.929,4.614,2.023,6.858,2.921c2.235,0.924,4.44,1.765,6.649,2.519
			c4.422,1.494,8.851,2.656,13.618,3.313c4.778,0.595,9.878,0.871,15.852-0.469c2.969-0.702,6.225-1.831,9.492-4.104
			c0.822-0.516,1.603-1.254,2.393-1.937c0.783-0.704,1.492-1.578,2.219-2.412c0.63-0.928,1.33-1.854,1.844-2.882l0.433-0.889
			c0.163-0.352,0.319-0.709,0.469-1.07l0.218-0.544l0.053-0.137l0.014-0.034l-0.021-0.043l0.018-0.067l0.072-0.267l0.291-1.074
			c0.166-0.48,0.181-1.009,0.238-1.553c0.043-0.546,0.1-1.112,0.055-1.707c-0.026-0.595-0.07-1.215-0.137-1.856
			c-0.048-0.28-0.098-0.565-0.147-0.857c-0.05-0.256-0.102-0.518-0.153-0.785c-0.452-2.039-1.129-4.057-2.037-6.138
			c-1.802-4.225-4.484-8.972-8.387-14.988c-2.939-4.572-8.166-11.895-12.802-17.902c-4.612-6.035-8.547-10.869-8.547-10.869
			s-3.242-4.096-7.465-9.235c-4.22-5.144-9.43-11.323-13.192-15.685c-12.03-13.977-19.677-22.417-23.666-26.833
			c-16.209-17.794-27.497-25.981-44.896-37.086c10.162,17.958,17.387,29.698,33.289,47.513c3.91,4.417,11.477,12.817,23.351,26.635
			c3.698,4.324,8.855,10.4,13.025,15.433c4.176,5.03,7.373,9.008,7.373,9.008s3.818,4.765,8.252,10.622
			c4.467,5.843,9.414,12.822,12.147,16.988c3.583,5.491,5.886,9.651,7.127,12.561c0.656,1.466,0.982,2.579,1.149,3.278l0.047,0.228
			l0.034,0.116l0.003-0.001h0.008l0.021-0.041l0.025-0.061l0.004-0.008l-0.042,0.108c-0.108,0.291-0.324,0.499-0.433,0.782
			c-0.229,0.217-0.353,0.486-0.592,0.716c-0.262,0.217-0.421,0.494-0.747,0.704c-1.101,0.935-2.687,1.795-4.46,2.49
			c-3.577,1.412-7.719,2.221-11.814,2.903c-4.134,0.657-8.349,1.148-12.793,1.575c-2.224,0.207-4.508,0.396-6.882,0.565
			C522.153,200.538,519.686,200.595,517.099,200.894z"/>
		<path d="M564.432,199.561c3.704,3.608,7.524,6.589,11.511,9.147c4.007,2.528,8.203,4.663,12.992,6.106
			c4.761,1.426,10.213,2.289,16.521,1.161c3.128-0.58,6.461-1.747,9.597-3.719c0.759-0.522,1.574-1.003,2.294-1.614
			c0.145-0.107,0.46-0.406,0.719-0.641l0.808-0.741l0.813-0.748c0.273-0.261,0.464-0.528,0.693-0.799
			c1.728-2.212,2.595-5.084,2.706-8.067c0.031-0.468,0.016-1.124,0.005-1.57c-0.006-0.438-0.049-0.826-0.079-1.268
			c-0.074-0.853-0.196-1.713-0.354-2.617c-0.322-1.791-0.812-3.691-1.484-5.805c-1.347-4.223-3.441-9.263-6.631-15.665
			c-3.035-6.233-8.673-16.185-13.748-24.405c-5.055-8.238-9.421-14.867-9.421-14.866c0,0-3.589-5.599-8.303-12.638
			c-4.705-7.047-10.547-15.524-14.778-21.52c-10.608-15.065-17.372-24.225-20.902-29.013c-14.354-19.312-24.76-28.593-40.958-41.387
			c8.312,18.886,14.317,31.295,28.374,50.608c3.453,4.785,10.144,13.9,20.631,28.819c4.168,5.947,9.963,14.309,14.623,21.231
			c4.671,6.917,8.221,12.384,8.221,12.384s4.25,6.537,9.131,14.556c4.904,8.009,10.276,17.55,13.096,23.243
			c2.945,5.882,4.743,10.271,5.76,13.432c0.509,1.578,0.833,2.853,1.014,3.827c0.084,0.481,0.146,0.897,0.179,1.232
			c0.007,0.153,0.038,0.334,0.033,0.446c-0.006,0.103,0.006-0.024,0.006,0.012l0.045,0.031l0.065-0.031l0.047-0.028
			c0.005,0.001,0.075-0.057-0.047,0.059c-0.308,0.323-0.686,0.534-1.008,0.823c-1.373,1.026-2.896,1.8-4.578,2.388
			c-3.366,1.173-7.257,1.594-11.245,1.592c-4.002,0.021-8.135-0.365-12.479-0.982C573.954,201.884,569.374,201.006,564.432,199.561z
			"/>
		<path d="M614.432,195.561c1.663,2.043,3.239,3.411,4.525,4.243c1.324,0.819,2.403,1.039,3.393,0.569
			c1.072-0.5,4.083-2.254,6.689-4.105c2.623-1.825,4.862-3.741,4.862-3.74c0,0,0.579-0.45,1.442-1.211
			c0.433-0.38,0.951-0.808,1.495-1.313c0.537-0.516,1.119-1.074,1.714-1.645c2.343-2.349,4.693-5.233,5.324-6.352
			c1.271-1.928-0.309-4.71-3.876-8.447c-5.22-0.979-7.791-1.806-8.811-0.634c-0.472,0.656-2.1,2.628-3.779,4.372
			c-0.435,0.429-0.858,0.848-1.251,1.236c-0.398,0.385-0.796,0.719-1.116,1.015c-0.324,0.293-0.591,0.534-0.777,0.702
			c-0.195,0.161-0.306,0.252-0.306,0.252s-1.768,1.437-3.875,2.868c-2.093,1.45-4.498,2.854-5.263,3.335
			c-0.7,0.45-0.949,1.386-0.914,2.823C613.911,190.985,614.278,192.959,614.432,195.561z"/>
		<path d="M510.431,358.226c0.081,5.177,0.872,10,2.061,14.593c1.207,4.598,2.91,8.975,5.251,13.243
			c1.186,2.126,2.531,4.222,4.073,6.286c1.568,2.043,3.309,4.074,5.323,6.016c4.016,3.881,9.068,7.499,15.357,10.276
			c0.891,0.404,1.922,0.871,3.154,1.43c0.608,0.276,1.268,0.575,1.983,0.901c0.696,0.344,1.448,0.715,2.265,1.118
			c1.662,0.78,3.448,1.791,5.545,2.947c0.982,0.619,2.09,1.253,3.186,1.977c1.036,0.749,2.255,1.506,3.276,2.402
			c0.283,0.23,0.591,0.479,0.918,0.745c0.313,0.268,0.578,0.562,0.897,0.86c0.29,0.301,0.681,0.604,0.934,0.927
			c0.261,0.321,0.536,0.646,0.824,0.972c1.007,1.327,1.521,2.496,1.633,3.401c0.122,0.914-0.019,1.949-0.377,2.916
			c-0.129,0.457-0.384,0.893-0.479,1.168l-0.076,0.198l-0.011-0.004l-0.01-0.008c0.065-0.013-0.095,0.068-0.221,0.26
			c-0.479,0.46-1.539,1.362-3.086,2.338c-3.128,1.96-7.741,3.999-11.136,5.179c-3.936,1.392-7.637,2.405-11.012,3.121
			c-3.374,0.725-6.414,1.226-9.111,1.535c-1.349,0.159-2.608,0.312-3.787,0.383c-1.177,0.085-2.267,0.198-3.275,0.216
			c-1.008,0.04-1.932,0.077-2.774,0.11c-0.843,0-1.604,0-2.287,0c-5.53-0.018-10.436-0.353-14.993-0.81
			c-1.133-0.142-2.268-0.199-3.358-0.368c-1.096-0.154-2.179-0.294-3.256-0.42c-2.119-0.368-4.239-0.606-6.288-1.038
			c-8.278-1.493-16.287-3.5-25.808-7.538c6.475,8.002,13.506,14.002,22.037,18.347c2.114,1.149,4.371,2.038,6.7,2.981
			c1.179,0.413,2.381,0.82,3.612,1.223c1.228,0.417,2.506,0.701,3.803,1.049c5.202,1.28,10.963,2.09,17.421,2.175
			c0.799,0.006,1.688,0.013,2.671,0.021c0.982-0.032,2.059-0.067,3.232-0.106c1.176-0.02,2.441-0.138,3.81-0.233
			c1.371-0.081,2.833-0.248,4.399-0.43c3.132-0.353,6.657-0.921,10.585-1.76c3.93-0.831,8.247-2,12.954-3.661
			c4.075-1.407,9.67-3.83,14.259-6.74c2.298-1.474,4.4-3.145,5.973-4.765c0.814-0.925,1.498-1.68,1.932-2.424
			c0.437-0.685,0.656-1.072,0.656-1.072s0.068-0.113,0.199-0.329c0.087-0.185,0.216-0.457,0.382-0.808
			c0.256-0.616,0.683-1.405,1.077-2.576c0.825-2.221,1.731-5.921,1.195-10.14c-0.074-0.521-0.149-1.049-0.226-1.581
			c-0.14-0.507-0.281-1.019-0.424-1.533c-0.157-0.511-0.316-1.023-0.476-1.539c-0.189-0.485-0.412-0.942-0.627-1.414
			c-0.434-0.938-0.883-1.884-1.422-2.647c-0.525-0.781-1.033-1.652-1.592-2.307c-0.562-0.665-1.113-1.318-1.648-1.951
			c-0.541-0.635-1.093-1.098-1.612-1.618c-0.522-0.492-1.022-0.996-1.501-1.401c-0.482-0.389-0.934-0.753-1.351-1.088
			c-1.585-1.347-3.095-2.298-4.505-3.295c-1.413-0.93-2.737-1.692-3.973-2.455c-2.479-1.372-4.605-2.549-6.455-3.414
			c-0.924-0.45-1.775-0.866-2.564-1.251c-0.79-0.354-1.518-0.682-2.189-0.982c-1.332-0.591-2.445-1.084-3.407-1.511
			c-4.704-2.028-8.635-4.412-12.162-6.956c-1.765-1.272-3.407-2.608-5.012-3.947c-1.582-1.364-3.104-2.756-4.592-4.189
			c-2.95-2.888-5.763-5.932-8.513-9.342C515.677,366.467,512.916,362.735,510.431,358.226z"/>
		<ellipse cx="269.764" cy="242.894" rx="14" ry="26.667"/>
		<ellipse cx="545.431" cy="256.227" rx="5.542" ry="11.333"/>
		<ellipse fill="#FFFFFF" cx="275.098" cy="230.227" rx="5.542" ry="10"/>
		<path d="M516.43,636.894c5.021-1.23,9.568-2.772,13.897-4.437c2.146-0.862,4.279-1.714,6.327-2.696
			c2.064-0.958,4.121-1.949,6.125-3.072c8.08-4.408,16.088-10.008,25.084-18.487c1.495-1.466,3.459-3.392,6.312-6.19
			c2.72-2.929,6.439-6.633,11.008-12.052c2.313-2.493,5.826-7.019,8.843-10.848c0.77-0.946,1.455-1.89,2.065-2.761
			c0.619-0.864,1.178-1.646,1.647-2.304c0.938-1.315,1.523-2.135,1.523-2.135s0.497-0.681,1.31-1.797
			c0.404-0.56,0.887-1.228,1.426-1.975c0.508-0.761,1.067-1.603,1.659-2.491c2.365-3.561,5.279-7.873,7.138-11.087
			c1.219-2.007,2.381-3.918,3.485-5.736c1.045-1.854,2.036-3.612,2.976-5.279c0.933-1.67,1.813-3.248,2.645-4.737
			c0.785-1.514,1.522-2.937,2.215-4.271c2.824-5.311,4.626-9.357,5.953-12.087c5.134-11.165,8.009-20.436,9.791-29.432
			c0.462-2.243,0.817-4.484,1.113-6.738c0.325-2.242,0.537-4.518,0.727-6.821c0.344-4.613,0.516-9.404,0.302-14.567
			c-2.225,4.648-4.5,8.746-6.644,12.709c-1.078,1.973-2.136,3.91-3.19,5.84c-1.036,1.931-2.068,3.854-3.112,5.798
			c-4.14,7.784-8.129,16.029-13.117,26.599c-1.292,2.584-3.021,6.426-5.727,11.47c-0.661,1.269-1.366,2.621-2.116,4.061
			c-0.794,1.415-1.636,2.915-2.527,4.502c-0.896,1.585-1.841,3.258-2.836,5.021c-1.054,1.729-2.161,3.546-3.323,5.454
			c-1.785,3.048-4.54,7.159-6.761,10.565c-0.556,0.851-1.081,1.656-1.557,2.385c-0.5,0.705-0.947,1.337-1.322,1.865
			c-0.752,1.054-1.21,1.696-1.21,1.696s-0.557,0.763-1.45,1.986c-0.446,0.612-0.977,1.34-1.563,2.146
			c-0.578,0.812-1.228,1.691-1.957,2.572c-2.86,3.569-6.162,7.804-8.302,10.172c-4.276,5.094-7.769,8.576-10.309,11.341
			c-2.665,2.646-4.499,4.465-5.896,5.851c-8.37,8.049-14.969,14.324-21.133,20.578c-3.086,3.149-6.104,6.227-9.236,9.423
			C523.545,630.112,520.277,633.464,516.43,636.894z"/>
		<path d="M35.43,129.893c3.007-4.19,5.522-7.668,7.88-11.472c2.364-3.799,4.573-7.917,7.116-13.293
			c0.874-1.814,2.24-4.797,5.279-10.885c0.878-1.739,2.959-5.857,2.959-5.857s1.825-3.397,2.837-5.281
			c4.322-7.958,7.271-12.686,8.828-15.13c3.139-4.961,5.504-8.86,7.705-12.625c2.241-3.746,4.193-7.411,7.396-11.456
			c-4.742,2.071-8.437,4.734-11.839,7.847c-3.395,3.153-6.515,6.899-9.836,12.034c-1.649,2.535-4.724,7.435-9.156,15.584
			c-1.061,1.916-2.854,5.426-2.854,5.426s-2.201,4.162-3.058,5.953c-3.086,6.204-4.459,9.236-5.329,11.089
			c-2.526,5.485-4.121,9.956-5.3,14.32C36.887,120.513,36.123,124.777,35.43,129.893z"/>
		<path d="M21.43,76.893c3.669-2.464,5.866-4.129,7.708-8.027c0.991-2.11,4.007-8.446,7.085-14.072
			c1.526-2.82,3.07-5.456,4.22-7.393c1.18-1.915,1.94-3.15,1.94-3.15s0.196-0.304,0.546-0.844c0.35-0.539,0.843-1.322,1.477-2.245
			c1.234-1.873,2.992-4.34,4.898-6.857c1.919-2.507,4.045-5.002,5.913-7.029c1.885-2.007,3.505-3.551,4.329-4.29
			c1.507-1.393,2.528-2.634,3.372-4.072c0.435-0.696,0.812-1.469,1.206-2.304c0.411-0.804,0.825-1.699,1.306-2.716
			c-1.086-0.072-2.111-0.099-3.097-0.06c-0.966,0.066-1.87,0.219-2.773,0.445c-1.771,0.489-3.461,1.359-5.213,2.891
			c-0.962,0.818-2.795,2.539-4.875,4.748c-2.06,2.222-4.358,4.932-6.401,7.617c-2.031,2.692-3.88,5.313-5.17,7.287
			c-0.663,0.978-1.175,1.799-1.54,2.366c-0.363,0.568-0.567,0.889-0.567,0.889s-0.802,1.288-2.045,3.285
			c-1.208,2.014-2.826,4.753-4.416,7.672c-3.206,5.826-6.315,12.361-7.28,14.57C20.264,69.673,20.478,72.565,21.43,76.893z"/>
		<path d="M61.429,382.893c-1.734,10.179-2.801,18.782-3.124,27.834c-0.293,9.053,0.143,18.568,1.965,30.589
			c0.689,4.073,1.555,10.694,4.501,24.458c0.061,0.403,0.214,1.072,0.353,1.64c0.135,0.567,0.269,1.034,0.269,1.034
			s0.14,0.668,0.293,1.403c0.042,0.184,0.085,0.37,0.127,0.553c0.067,0.274,0.134,0.541,0.194,0.785
			c0.495,1.986,0.947,3.927,1.447,5.817c0.545,1.893,1.074,3.734,1.588,5.516c0.473,1.778,1.104,3.512,1.678,5.175
			c0.584,1.641,1.111,3.308,1.682,4.729c2.293,5.689,4.094,10.304,5.39,13.327c2.43,5.563,4.665,10.504,7.084,14.907
			c1.188,2.214,2.371,4.32,3.562,6.351c1.21,2.02,2.451,3.95,3.699,5.841c5.005,7.552,10.451,14.312,17.293,22.041
			c-2.42-10.026-4.365-18.373-6.939-26.925c-0.64-2.14-1.34-4.281-2.075-6.473c-0.715-2.199-1.49-4.438-2.34-6.745
			c-1.744-4.6-3.567-9.552-5.883-14.997c-1.231-2.955-2.948-7.428-5.156-12.949c-0.552-1.383-0.959-2.745-1.48-4.211
			c-0.498-1.457-1.05-2.945-1.482-4.601c-0.467-1.627-0.949-3.309-1.444-5.038c-0.461-1.752-0.884-3.585-1.347-5.441
			c-0.055-0.229-0.115-0.479-0.178-0.736c-0.045-0.17-0.09-0.344-0.135-0.514c-0.193-0.678-0.368-1.294-0.368-1.294
			s-0.081-0.452-0.179-0.999c-0.099-0.547-0.224-1.188-0.328-1.562c-2.822-13.092-3.708-19.592-4.412-23.517
			c-1.889-11.663-3.7-20.804-6-29.436C67.41,400.817,64.663,392.687,61.429,382.893z"/>
		<path d="M35.703,415.955c-2.635,9.979-3.971,16.84-3.817,28.874c0.011,2.039,0.106,5.356,0.295,12.251
			c0.147,3.837,0.364,10.299,0.702,15.801c0.27,5.502,0.631,10.043,0.631,10.043s0.063,0.95,0.168,2.508
			c0.112,1.558,0.225,3.724,0.454,6.15c0.212,2.427,0.445,5.117,0.673,7.729c0.219,2.61,0.55,5.138,0.771,7.243
			c0.265,2.297,0.472,4.376,0.717,6.245c0.263,1.869,0.496,3.532,0.703,5.001c0.432,2.937,0.682,5.1,0.976,6.577
			c0.538,2.992,1.1,5.646,1.704,8.089c0.595,2.443,1.43,4.656,2.211,6.79c1.502,4.28,3.744,8.136,6.266,12.574
			c-0.151-5.21-0.482-9.371-0.684-13.836c-0.127-2.222-0.448-4.44-0.69-6.886c-0.25-2.442-0.609-5.054-1.104-7.966
			c-0.271-1.432-0.505-3.562-0.918-6.433c-0.199-1.438-0.425-3.064-0.678-4.894c-0.237-1.832-0.438-3.88-0.696-6.136
			c-0.212-2.072-0.538-4.549-0.757-7.123c-0.23-2.573-0.469-5.225-0.683-7.617c-0.234-2.39-0.354-4.532-0.473-6.069
			c-0.11-1.538-0.178-2.478-0.178-2.478s-0.333-4.484-0.583-9.933c-0.317-5.441-0.521-11.845-0.692-15.644
			c-0.189-6.832-0.28-10.12-0.336-12.141C39.413,432.744,38.051,426.002,35.703,415.955z"/>
	</g>
</g>
</svg>
