<?xml version="1.0" encoding="utf-8"?>
<!-- Generator: Adobe Illustrator 16.0.0, SVG Export Plug-In . SVG Version: 6.00 Build 0)  -->
<!DOCTYPE svg PUBLIC "-//W3C//DTD SVG 1.1//EN" "http://www.w3.org/Graphics/SVG/1.1/DTD/svg11.dtd">
<svg version="1.1" xmlns="http://www.w3.org/2000/svg" xmlns:xlink="http://www.w3.org/1999/xlink" x="0px" y="0px" width="640px"
	 height="640px" viewBox="0 0 640 640" enable-background="new 0 0 640 640" xml:space="preserve">
<g id="couleurs">
</g>
<g id="traits">
	<g>
		<path fill="#FFF26B" d="M345.763,92.227c-5.332-14.667-14-48,50-48c36.465,0,46.31,11.471,48.032,21.341
			c16.433-3.809,31.405-5.913,44.396-5.916c9.112-0.001,17.232,1.032,24.238,3.241c16.244,5.122,26.045,24.576,31.1,53.434
			c2.41,0.313,3.568,0.566,3.568,0.566l50-4c0,0,0.666,9.333-2.667,12s-18,10-18,10s24.981,36.551-28.724,56.079
			C543.97,361.483,475.43,640,475.43,640H0V288.893c2.489-0.562,129.038-82.971,259.078-148.807
			c-14.322-5.07-13.366-13.576-4.103-22.082c14.577-13.384,49.714-26.768,78.247-26.767
			C337.588,91.238,341.804,91.552,345.763,92.227 M489.299,4.933c-34.998,0-70.154,5.027-95.869,12.96
			c-58,17.893-393.43,124-393.43,124V640h562.43c0,0,68-393.107,73-444.107s10-127-34-163
			C576.938,12.854,533.24,4.932,489.299,4.933 M0,640V141.893c0,0,335.43-106.107,393.43-124
			c25.715-7.933,60.871-12.959,95.869-12.96c43.941-0.001,87.639,7.921,112.131,27.96c44,36,39,112,34,163S562.43,640,562.43,640H0
			 M640,0H0v640h640V0"/>
		<path opacity="0.5" fill="#FFFFFF" d="M345.763,92.227c-5.332-14.667-14-48,50-48c36.465,0,46.31,11.471,48.032,21.341
			c16.433-3.809,31.405-5.913,44.396-5.916c9.112-0.001,17.232,1.032,24.238,3.241c16.244,5.122,26.045,24.576,31.1,53.434
			c2.41,0.313,3.568,0.566,3.568,0.566l50-4c0,0,0.666,9.333-2.667,12s-18,10-18,10s24.981,36.551-28.724,56.079
			C543.97,361.483,475.43,640,475.43,640H0V288.893c2.489-0.562,129.038-82.971,259.078-148.807
			c-14.322-5.07-13.366-13.576-4.103-22.082c14.577-13.384,49.714-26.768,78.247-26.767
			C337.588,91.238,341.804,91.552,345.763,92.227 M489.299,4.933c-34.998,0-70.154,5.027-95.869,12.96
			c-58,17.893-393.43,124-393.43,124V640h562.43c0,0,68-393.107,73-444.107s10-127-34-163
			C576.938,12.854,533.24,4.932,489.299,4.933"/>
		<path fill="#FFF26B" d="M436.966,379.575c-0.037,0.188-0.07,0.358-0.106,0.547c0.261,0.054,0.527,0.111,0.797,0.175
			L436.966,379.575 M505.559,201.839c-18.6,3.51-33.007,4.474-43.209,4.474c-2.537,0-4.816-0.06-6.834-0.154
			c1.646,21.565,0.174,48.862-3.379,79.229c11.549,3.401,16.336,9.406,11.628,20.838c-2.966,7.203-11.519,25.31-21.808,46.663
			c-0.692,3.88-1.408,7.799-2.135,11.707l10.61-20.37l15.998,21.334l12.968,2.75C491.509,309.033,501.591,249.756,505.559,201.839
			 M322.088,159.453C179.825,229.812,0,334.731,0,334.731V640h413.263c0,0,30.85-109.199,57.222-229.617l-2.394-1.235
			c-2.846,2.105-22.929,16.612-41.622,20.852C402.387,539.41,372.43,640,372.43,640H0V389.893c0,0,192.056-135.598,324.548-200.128
			c12.554-7.257,20.55-11.539,20.55-11.539c0.25-0.241,0.508-0.477,0.768-0.704c-9.798-2.865-18.047-7.084-21.436-13.296
			C323.493,162.51,322.721,160.92,322.088,159.453 M432.977,129.901c-12.657,5.012-19.904,10.862-22.451,16.034
			C412.644,143.428,419.365,136.418,432.977,129.901 M501.74,115.751c-0.406,0.048-0.82,0.099-1.248,0.151
			c0.427-0.028,0.853-0.055,1.272-0.081C501.756,115.796,501.749,115.777,501.74,115.751 M259.078,140.086
			C129.038,205.922,2.489,288.331,0,288.893V640h475.43c0,0,68.54-278.518,72.277-449.029c-2.477,0.9-5.123,1.766-7.943,2.588
			c-12.652,3.69-24.054,6.364-34.205,8.279c-3.968,47.917-14.05,107.193-26.16,166.471l31.034,6.583c0,0-0.002,11.334-0.669,17.334
			s-14,16-14,16l-12.667,8.666l-12.612-6.51C444.112,530.801,413.263,640,413.263,640H0v-305.27
			c0,0,179.825-104.919,322.088-175.278c-4.776-11.069-1.658-15.226-1.658-15.226c-7.429,0.37-14.188,0.544-20.329,0.544
			C280.527,144.771,267.29,142.993,259.078,140.086 M513.528,114.825c-2.248,0-5.894,0.226-11.788,0.926
			c0.009,0.025,0.016,0.044,0.024,0.07c5.508-0.342,10.476-0.531,14.924-0.611c-0.024-0.033-0.051-0.067-0.076-0.104
			C516.14,114.956,515.237,114.825,513.528,114.825 M488.191,59.652c-12.991,0.003-27.964,2.107-44.396,5.916
			c0.141,0.81,0.228,1.609,0.27,2.391c2.242,1.673,3.369,3.37,3.034,4.935c-0.26,1.213-1.612,1.852-3.752,2.15
			c-0.683,2.748-1.584,4.517-1.584,4.517s-11.5-2.167-24.25-2.167c-10.16,0-21.114,1.375-27.675,6.32
			c-2.217,2.697-3.756,6.155-4.356,10.576c2.17,2.42,8.048,3.21,16.176,3.21c7.682,0,17.375-0.707,27.839-1.414
			c10.465-0.707,21.705-1.414,32.483-1.414c3.316,0,6.59,0.067,9.783,0.222c38.121,1.845,42.786,17.3,44.85,20.213
			c0.104,0.033,0.186,0.067,0.252,0.101c1.697-0.029,3.321-0.043,4.867-0.043c10.775,0,17.912,0.659,21.798,1.163
			c-5.055-28.857-14.855-48.312-31.1-53.434C505.424,60.684,497.304,59.65,488.191,59.652"/>
		<path opacity="0.3" fill="#FFFFFF" d="M436.966,379.575c-0.037,0.188-0.07,0.358-0.106,0.547c0.261,0.054,0.527,0.111,0.797,0.175
			L436.966,379.575 M505.559,201.839c-18.6,3.51-33.007,4.474-43.209,4.474c-2.537,0-4.816-0.06-6.834-0.154
			c1.646,21.565,0.174,48.862-3.379,79.229c11.549,3.401,16.336,9.406,11.628,20.838c-2.966,7.203-11.519,25.31-21.808,46.663
			c-0.692,3.88-1.408,7.799-2.135,11.707l10.61-20.37l15.998,21.334l12.968,2.75C491.509,309.033,501.591,249.756,505.559,201.839
			 M322.088,159.453C179.825,229.812,0,334.731,0,334.731V640h413.263c0,0,30.85-109.199,57.222-229.617l-2.394-1.235
			c-2.846,2.105-22.929,16.612-41.622,20.852C402.387,539.41,372.43,640,372.43,640H0V389.893c0,0,192.056-135.598,324.548-200.128
			c12.554-7.257,20.55-11.539,20.55-11.539c0.25-0.241,0.508-0.477,0.768-0.704c-9.798-2.865-18.047-7.084-21.436-13.296
			C323.493,162.51,322.721,160.92,322.088,159.453 M432.977,129.901c-12.657,5.012-19.904,10.862-22.451,16.034
			C412.644,143.428,419.365,136.418,432.977,129.901 M501.74,115.751c-0.406,0.048-0.82,0.099-1.248,0.151
			c0.427-0.028,0.853-0.055,1.272-0.081C501.756,115.796,501.749,115.777,501.74,115.751"/>
		<path fill="#FFF26B" d="M309.193,481.672c-2.847,0.771-4.761,1.221-4.761,1.221l0,0l-18.823,60.367
			c1.635-2.223,3.047-4.355,4.157-6.367c10.667-19.333,10.666-37.334,13.333-48C303.835,485.953,306.09,483.621,309.193,481.672
			 M83.814,468.325c-0.992,1.924-1.386,3.234-1.386,3.234l0,0c0.43,2.364,2.261,3.827,5.033,4.619
			c0.972,0.208,2.059,0.342,3.245,0.411C86.803,475.635,84.24,473.172,83.814,468.325 M142.651,465.832
			c-5.806,1.894-10.994,3.454-14.886,4.394c-3.795,0.916-7.771,2.012-11.714,3.056c13.402-3.045,25.711-7.055,25.711-7.055
			l2.61,8.391c-0.051-0.965-0.076-1.876-0.086-2.712l-2.524-5.679L142.651,465.832 M131.625,445.233
			c-5.759,1.46-16.622,4.428-26.687,8.352c0.457-0.017,0.737-0.025,0.824-0.025l0,0l0,0c0,0-0.599,0.103-1.604,0.332
			c-6.218,2.467-12.069,5.296-16.145,8.356c-1.479,1.641-2.609,3.284-3.454,4.724c2.851-2.029,13.668-9.112,37.206-18.079
			C125.049,447.641,128.352,446.417,131.625,445.233 M213.099,432.225L213.099,432.225c0,0.667-0.146,1.334-0.411,1.994
			C213.328,433.412,213.496,432.736,213.099,432.225L213.099,432.225 M78.612,412.451c6.518,4.508,19.531,5.649,31.051,5.649
			c11.839,0,22.1-1.207,22.1-1.207l1.913,13.072l3.42,10.261c0,0-0.648,0.304-1.798,0.827l0.398,2.72
			c23.06-8.188,43.734-14.214,45.402-14.214c1.091,0,10.514-1.19,18.854-1.19c1.969,0,3.877,0.066,5.602,0.23
			c-2.519-0.526-5.423-0.758-8.581-0.758c-23.109,0-59.877,12.385-59.877,12.385s-4.628-18.942-4.857-27.058
			c-5.134,0.617-18.461,2.057-31.166,2.057C92.338,415.225,83.897,414.545,78.612,412.451 M208.362,388.92
			c-3.19,0.16-5.999,0.282-8.355,0.374l23.093,2.265c-0.098-0.582,1.051-1.207,3.149-1.871c-2.048,0.116-4.059,0.179-6.021,0.179
			C216.018,389.867,212.026,389.58,208.362,388.92 M189.099,388.225c0,0-46.028,15.142-52.075,20.024
			C149.953,403.586,189.099,388.225,189.099,388.225 M371.464,377.31c-0.965,0.247-2.333,0.599-4.035,1.037l-21.662,52.546l4,4
			l-9.334,21.333l0,0l0,0l-1.336,2.671c-0.035,0.207-1.403,8.066-6.664,13.329l0,0c-0.369,0.369-0.821,0.738-1.343,1.105
			c3.001-0.983,5.771-1.985,8.01-3.105c3.691-1.846,6.105-6.646,7.684-12.134c-1.023-0.785-1.686-1.199-1.686-1.199l4.528-17.703
			c0.141-2.625,0.141-4.297,0.141-4.297c0.395-0.331,0.79-0.63,1.188-0.897l1.476-5.77c0,0,1.408,0.423,3.584,1.176
			C357.541,424.376,365.723,397.375,371.464,377.31 M377.144,354.875c-0.013,0-0.028,0.006-0.046,0.018l0,0l-2.22,5.385
			l-0.851,7.937C376.216,360.291,377.56,354.877,377.144,354.875 M324.548,189.765C192.056,254.295,0,389.893,0,389.893V640h372.43
			c0,0,29.957-100.591,54.039-210.001c-3.238,0.734-6.438,1.161-9.497,1.161c-3.266,0-6.373-0.486-9.205-1.602l25.333-50
			c0,0,0.949,0.079,2.274,0.292l0.39-0.958l0.93,1.195c0.055,0.011,0.11,0.021,0.166,0.033c0.036-0.188,0.069-0.358,0.106-0.547
			l-3.202-3.348l6.059-11.631c0.727-3.908,1.442-7.827,2.135-11.707c-22.093,45.85-52.192,106.67-52.192,106.67l-7.933-6.844
			c0.608,2.108,1.126,4.209,1.558,6.152c1.927,3.568,3.043,6.025,3.043,6.025l-1.46,2.459c0.084,0.562,0.125,0.874,0.125,0.874
			l-4.985,7.312L361.1,507.559c0,0-24.667,39.334-52.667,68.667c-18.435,19.312-37.445,27.065-49.807,27.065
			c-6.413,0-11.038-2.089-12.859-5.732c-4.596-9.192,23.482-33.235,38.16-52.08c-8.3,4.125-58.338,28.636-75.514,28.636
			c-2.631,0-4.493-0.576-5.313-1.889c-6.667-10.667,34.667-38,48.667-52c12.873-12.873,25.182-42.655,27.08-47.367l-29.747,8.034
			l-2-6.87l1.332,4.869c0,0-66.031,17.678-88.813,17.678c-3.015,0-5.272-0.31-6.52-1.011c-1.118-0.629-2.097-1.44-2.953-2.39
			l0.951,3.057l-8.347,0.421l-36.408,10.06c-1.593,0.468-3.117,0.922-4.543,1.354l-9.193,3.868c-0.332,0.993-0.449,2.297-0.22,4.004
			c2.177,2.291,6.394,4.868,10.511,7.068c14.848,5.133,40.199,8.559,40.199,8.559L0,619.559V394.227l74.429,11.332
			c0.017,0.453,0.069,0.893,0.155,1.315c2.255-3.475,10.721-10.779,42.515-16.649c37.139-6.856,60.566-7.347,66.506-7.347
			c0.99,0,1.494,0.014,1.494,0.014l4,5.333l0,0l2.061,0.202c-4.001-7.55-26.081-50.296-13.188-50.297
			c0.35,0,0.724,0.031,1.126,0.096c0.048,0.008,0.104,0.025,0.168,0.055c-1.631-13.577-0.561-24.824,3.862-31.782
			c-3.95,0.645-6.03,1.061-6.03,1.061C197.913,266.437,284.458,212.94,324.548,189.765 M409.687,181.857
			c-1.012,0.175-1.979,0.335-2.895,0.481l14.973,59.887l-40.667,22l-18-16.667c0,0-4.321,3.889-9.832,8.536
			c-2.304,2.686-4.594,4.909-6.407,5.731c-5.619,6.755-10.069,19.903-10.939,22.583c24.292-2.562,45.938-4.293,59.721-4.294
			c1.989,0,3.812,0.036,5.458,0.111c21.81,0.991,39.689,1.819,51.039,5.162c3.553-30.367,5.024-57.664,3.379-79.229
			c-7.839-0.368-11.752-1.266-11.752-1.266l-30.666-2L409.687,181.857"/>
		<path fill="#FFF26B" d="M597.098,112.893l-50,4c0,0-1.158-0.253-3.568-0.566c-3.886-0.504-11.022-1.163-21.798-1.163
			c-1.546,0-3.17,0.014-4.867,0.043c0.349,0.179,0.232,0.353,0.232,0.353c-0.132-0.044-0.265-0.164-0.408-0.35
			c-4.448,0.08-9.416,0.27-14.924,0.611c-0.42,0.026-0.846,0.053-1.272,0.081c-8.31,1.026-20.758,2.935-39.396,6.324
			c-11.344,2.062-20.67,4.724-28.12,7.674c-13.611,6.517-20.333,13.527-22.451,16.034c-3.707,7.529,2.545,13.625,16.571,13.625
			c29.334,0,19.333-16,19.333-16s2.42-0.646,5.268-0.646c5.339,0,12.182,2.269,7.399,15.312
			c-5.127,13.982-33.063,20.796-49.41,23.631l3.411,21.036l30.666,2c0,0,3.913,0.898,11.752,1.266
			c2.018,0.095,4.297,0.154,6.834,0.154c10.202,0,24.609-0.963,43.209-4.474c10.151-1.916,21.553-4.589,34.205-8.279
			c2.82-0.823,5.467-1.688,7.943-2.588c53.705-19.527,28.724-56.079,28.724-56.079s14.667-7.333,18-10
			S597.098,112.893,597.098,112.893"/>
		<path fill="#FCCF91" d="M92.605,511.928l-1.638,0.689c-0.318,0.958,0.261,2.096,1.418,3.314
			C92.156,514.225,92.273,512.921,92.605,511.928 M142.75,496.647l-0.27,0.014c-8.728,2.344-24.357,6.589-36.139,10.046
			L142.75,496.647 M82.429,471.559c0,2.51,1.904,3.948,5.033,4.619C84.689,475.386,82.858,473.923,82.429,471.559 M104.158,453.891
			c-2.26,0.518-6.577,1.678-10.771,3.761c-2.16,1.401-3.932,2.996-5.373,4.596C92.089,459.187,97.94,456.358,104.158,453.891
			 M135.298,441.053c-5.146,2.345-20.33,9.088-32.207,12.604c0.776-0.031,1.397-0.056,1.848-0.073
			c10.064-3.924,20.928-6.892,26.687-8.352c1.363-0.494,2.721-0.98,4.071-1.46L135.298,441.053 M0,394.227v225.332l143.096-88
			c0,0-25.352-3.426-40.199-8.559c5.522,2.952,10.866,5.226,10.866,5.226L0,586.227v-60.668l0,0v-25.332v-75.334l131.763-0.667
			l1.913,5.739l-1.913-13.072c0,0-10.261,1.207-22.1,1.207c-11.52,0-24.533-1.142-31.051-5.649c-2.278-0.903-3.971-2.07-4.847-3.559
			c0,0,0-0.757,0.818-2.018c-0.086-0.423-0.139-0.862-0.155-1.315L0,394.227"/>
		<path fill="#FFDC48" d="M133.676,429.965l1.622,11.088c1.149-0.523,1.798-0.827,1.798-0.827L133.676,429.965"/>
		<path fill="#FABA65" d="M131.763,424.226L0,424.893v75.334v-42c0,0,86.58-3.895,103.091-4.569
			c11.877-3.517,27.061-10.26,32.207-12.604l-1.622-11.088L131.763,424.226"/>
		<path fill="#FFDC48" d="M88.014,462.248c-2.227,1.673-3.923,3.414-4.859,5.204c-0.466,1.262-0.726,2.629-0.726,4.107l0,0
			c0,0,0.394-1.311,1.386-3.234c-0.021-0.249-0.038-0.504-0.049-0.766c0,0,0.254-0.203,0.794-0.588
			C85.404,465.532,86.535,463.888,88.014,462.248"/>
		<path fill="#FABA65" d="M93.387,457.652c-4.358,2.165-8.583,5.326-10.232,9.8c0.937-1.79,2.633-3.531,4.859-5.204
			C89.455,460.648,91.227,459.053,93.387,457.652"/>
		<path fill="#FFDC48" d="M106.342,506.707l-3.865,1.068l-0.678,0.285C103.225,507.628,104.749,507.174,106.342,506.707"/>
		<path fill="#FABA65" d="M142.48,496.661l-15.438,0.777l-24.566,10.337l3.865-1.068C118.123,503.25,133.753,499.004,142.48,496.661
			"/>
		<path fill="#FFDC48" d="M92.386,515.932c0.014,0.097,0.027,0.194,0.043,0.294c0.377,2.454,4.603,4.747,10.468,6.774
			C98.779,520.8,94.562,518.223,92.386,515.932"/>
		<path fill="#FABA65" d="M90.968,512.618L0,550.893v-25.334l0,0v60.668l113.763-58.001c0,0-5.344-2.273-10.866-5.226
			c-5.865-2.027-10.091-4.32-10.468-6.774c-0.016-0.1-0.029-0.197-0.043-0.294C91.229,514.713,90.649,513.576,90.968,512.618"/>
		<path fill="#FDC53C" d="M105.763,453.559c-0.087,0-0.367,0.009-0.824,0.025c-0.261,0.103-0.521,0.204-0.78,0.307
			C105.164,453.662,105.763,453.559,105.763,453.559"/>
		<path fill="#F6A654" d="M104.938,453.584c-0.45,0.018-1.071,0.042-1.848,0.073c-0.677,0.2-1.343,0.391-1.995,0.568
			c-2.995,0.817-5.547,2.023-7.709,3.426c4.194-2.083,8.512-3.243,10.771-3.761C104.418,453.789,104.678,453.687,104.938,453.584"/>
		<path fill="#FDC53C" d="M147.741,489.597l1.354,5.296l0,0l-6.346,1.754l8.347-0.421l-0.951-3.057
			C149.204,492.125,148.41,490.915,147.741,489.597 M87.462,476.178c1.406,0.401,3.054,0.63,4.882,0.716
			c-0.568-0.076-1.115-0.177-1.637-0.305C89.521,476.52,88.434,476.386,87.462,476.178 M141.763,466.226
			c0,0-12.309,4.01-25.711,7.055c-3.792,1.004-7.556,1.96-11.101,2.661C121.75,473.289,141.763,466.226,141.763,466.226
			l2.799,10.942c-0.084-0.88-0.145-1.735-0.188-2.552L141.763,466.226"/>
		<path fill="#F6A654" d="M149.096,494.893c0,0-2.564,0.679-6.615,1.768l0.27-0.014L149.096,494.893 M146.859,487.626l2.236,7.267
			l-1.354-5.296C147.419,488.963,147.126,488.303,146.859,487.626 M141.763,466.226c0,0-20.013,7.062-36.812,9.716
			c-3.488,0.69-6.765,1.133-9.651,1.133c-1.039,0-2.026-0.057-2.956-0.181c-1.828-0.086-3.476-0.314-4.882-0.716
			c-3.129-0.671-5.033-2.109-5.033-4.619l0,0l0,0L0,500.227v25.332c0,0,142.286-38.093,146.36-39.312
			c-0.982-2.956-1.519-6.152-1.799-9.079L141.763,466.226"/>
		<path fill="#FDC53C" d="M101.799,508.06c-3.719,1.127-6.776,2.11-8.703,2.833c-0.003,0.001-0.005,0.002-0.008,0.003
			c-0.188,0.3-0.352,0.642-0.482,1.032L101.799,508.06"/>
		<path fill="#F6A654" d="M93.088,510.896c-1.227,0.462-1.896,1.047-2.12,1.722l1.638-0.689
			C92.736,511.538,92.899,511.196,93.088,510.896"/>
		<path fill="#FAB329" d="M83.154,467.452c-0.704,1.345-0.979,2.718-0.726,4.107l0,0l0,0l0,0
			C82.429,470.081,82.688,468.713,83.154,467.452"/>
		<path fill="#F4963C" d="M103.091,453.658C86.58,454.333,0,458.227,0,458.227v42l82.429-28.668
			c-0.253-1.39,0.021-2.763,0.726-4.107c1.649-4.474,5.874-7.635,10.232-9.8c2.162-1.402,4.714-2.608,7.709-3.426
			C101.748,454.048,102.414,453.858,103.091,453.658"/>
		<path fill="#FAB329" d="M102.477,507.775l-4.048,1.118c0,0-0.406-0.074-1.011-0.074c-1.209,0-3.211,0.297-4.33,2.077
			c0.003-0.001,0.005-0.002,0.008-0.003c1.927-0.723,4.984-1.706,8.703-2.833L102.477,507.775"/>
		<path fill="#F4963C" d="M146.36,486.248C142.286,487.466,0,525.559,0,525.559v25.334l90.968-38.275
			c0.224-0.675,0.894-1.26,2.12-1.722c1.119-1.78,3.121-2.077,4.33-2.077c0.604,0,1.011,0.074,1.011,0.074l4.048-1.118
			l24.566-10.337l15.438-0.777c4.051-1.089,6.615-1.768,6.615-1.768l0,0l-2.236-7.267
			C146.682,487.174,146.516,486.713,146.36,486.248"/>
		<path fill="#F6A64F" d="M516.612,115.106c0.025,0.037,0.052,0.071,0.076,0.104c0.144,0.186,0.276,0.305,0.408,0.35
			c0,0,0.116-0.174-0.232-0.353C516.798,115.173,516.716,115.14,516.612,115.106 M418.952,74.551
			c-11.183,0-22.852,1.543-29.114,9.162c6.561-4.944,17.515-6.32,27.675-6.32c12.75,0,24.25,2.167,24.25,2.167
			s0.901-1.77,1.584-4.517c-1.153,0.161-2.535,0.223-4.099,0.223c-2.65,0-5.821-0.179-9.281-0.357
			C426.506,74.73,422.757,74.551,418.952,74.551 M395.763,44.227c-64,0-55.332,33.333-50,48c-3.959-0.675-8.175-0.988-12.54-0.989
			c-28.533-0.001-63.67,13.383-78.247,26.767c-9.264,8.506-10.22,17.012,4.103,22.082c8.212,2.907,21.449,4.685,41.022,4.685
			c6.141,0,12.9-0.175,20.329-0.544c0,0-3.118,4.157,1.658,15.226c0.633,1.468,1.405,3.057,2.342,4.774
			c3.389,6.212,11.638,10.431,21.436,13.296c2.856-2.492,6.279-4.129,10.029-5.119c-18.181-11.816-28.49-35.773-19.463-43.511
			c0.646-0.553,1.323-1.024,2.025-1.42c-1.517-0.022-3.07-0.033-4.658-0.033c-18.91,0-42.872,1.628-71.367,6.787
			c-12-6.667,36.667-32.667,76.667-32.667s44.666,30.667,44.666,30.667s-8.918-2.432-25.775-3.829
			c2.307,0.972,3.775,1.829,3.775,1.829s-1.332,17.334,15.334,24.667s55.333,21.333,55.333,21.333s-13.877,2.173-30.158,2.92
			c2.617,1.037,4.157,1.747,4.157,1.747l0.361,1.446c0.915-0.146,1.883-0.306,2.895-0.481c16.347-2.835,44.283-9.649,49.41-23.631
			c4.782-13.043-2.061-15.312-7.399-15.312c-2.848,0-5.268,0.646-5.268,0.646s10.001,16-19.333,16
			c-14.026,0-20.278-6.096-16.571-13.625c2.547-5.172,9.794-11.022,22.451-16.034c7.45-2.951,16.776-5.612,28.12-7.674
			c18.638-3.389,31.086-5.297,39.396-6.324c0.428-0.053,0.842-0.103,1.248-0.151c5.895-0.701,9.54-0.926,11.788-0.926
			c1.709,0,2.611,0.13,3.084,0.281c-2.063-2.913-6.729-18.368-44.85-20.213c-3.193-0.154-6.467-0.222-9.783-0.222
			c-10.778,0-22.019,0.707-32.483,1.414c-10.464,0.707-20.157,1.414-27.839,1.414c-8.128,0-14.006-0.791-16.176-3.21
			c-0.438,3.22-0.377,6.951,0.283,11.27c0,0-53.56-23.331-15.333-42c8.71-4.254,19.392-5.923,29.983-5.923
			c18.424,0,36.58,5.047,43.649,10.322c-0.042-0.781-0.129-1.581-0.27-2.391C442.072,55.697,432.228,44.227,395.763,44.227"/>
		<path fill="#FFE4B7" d="M355.895,172.404c-3.75,0.99-7.173,2.627-10.029,5.119c-0.26,0.227-0.518,0.462-0.768,0.704
			c0,0-7.996,4.282-20.55,11.539c-40.09,23.175-126.635,76.672-147.45,117.794c0,0,2.08-0.416,6.03-1.061
			c0.205-0.323,0.417-0.635,0.637-0.939c0.211-0.292,5.949-1.362,15.478-2.91c-2.772,0.239-5.032,0.369-6.669,0.369
			c-0.916,0-1.634-0.041-2.142-0.125l30.666-40c0,0,38,2.667,60.667,8s52,11.333,52,11.333s-22.821,3.939-50.303,8.387
			c17.604-2.266,35.664-4.433,52.457-6.204c0.87-2.679,5.32-15.828,10.939-22.583c-0.489,0.222-0.943,0.342-1.354,0.342
			c-0.739,0-1.338-0.39-1.74-1.276c-3.333-7.333,4-46.667,4-46.667s14.667,24.667,16,27.333c0,0-5.285,8.457-10.499,14.536
			c5.511-4.647,9.832-8.536,9.832-8.536l18,16.667l40.667-22l-14.973-59.887l-0.361-1.446c0,0-1.54-0.71-4.157-1.747
			c-3.377,0.155-6.859,0.249-10.342,0.249c-13.255,0-26.523-1.354-34.167-5.835C357.132,173.188,356.51,172.803,355.895,172.404"/>
		<path fill="#F6A64F" d="M239.073,386.833c-11.947,1.029-22.57,1.682-30.711,2.088c3.664,0.659,7.655,0.946,11.866,0.946
			c1.962,0,3.973-0.062,6.021-0.179C229.055,388.801,233.563,387.846,239.073,386.833 M377.098,354.893l-28.765,7.191
			c-1.079,0.358-2.177,0.722-3.288,1.088C362.197,358.667,376.988,354.92,377.098,354.893 M395.64,280.115
			c-13.783,0-35.429,1.732-59.721,4.294c-16.793,1.771-34.854,3.938-52.457,6.204c-30.677,4.966-67.164,10.566-84.22,12.036
			c-9.528,1.548-15.267,2.619-15.478,2.91c-0.22,0.304-0.432,0.617-0.637,0.939c-4.423,6.958-5.493,18.205-3.862,31.782
			c2.729,1.207,20.427,20.674,73.832,23.278c4.551,0.222,9.281,0.323,14.125,0.323c28.514,0,60.952-3.509,83.775-6.562
			c9.846-12.164,30.361-35.527,48.766-43.761l-20.695,39.566c0.892-0.15,1.362-0.233,1.362-0.233l0,0l0,0
			c0,0-0.533,0.198-1.536,0.563l-1.797,3.437l0,0l0,0l0,0c0.018-0.012,0.033-0.018,0.046-0.018
			c0.416,0.002-0.928,5.415-3.116,13.339l-0.93,8.679c0,0-0.575,0.146-1.634,0.417c-5.741,20.064-13.923,47.066-15.449,52.092
			c4.52,1.565,12.349,4.558,17.749,8.157c3.588,2.393,6.237,8.808,8.068,15.156l7.933,6.844c0,0,30.1-60.82,52.192-106.67
			c10.289-21.354,18.842-39.46,21.808-46.663c4.708-11.432-0.079-17.437-11.628-20.838c-11.35-3.343-29.229-4.171-51.039-5.162
			C399.451,280.151,397.629,280.115,395.64,280.115"/>
		<path fill="#FFE4B7" d="M417.766,218.226c0,0,27.999,3.333,28.666,5.333s-3.333,48.667-3.333,48.667l-14-1.333l-10-20.667
			l2.667-10.667L417.766,218.226z"/>
		<path fill="#F6A64F" d="M383.39,458.868c0.846,3.805,1.362,7.008,1.583,8.484l1.46-2.459
			C386.433,464.893,385.316,462.436,383.39,458.868 M346.783,458.092c-1.578,5.488-3.992,10.288-7.684,12.134
			c-2.239,1.12-5.009,2.122-8.01,3.105c-4.827,3.398-15.625,6.645-21.896,8.341c-3.104,1.948-5.358,4.28-6.094,7.221
			c-2.667,10.666-2.666,28.667-13.333,48c-1.11,2.012-2.522,4.145-4.157,6.367l-0.51,1.633c0,0-0.41,0.207-1.173,0.586
			c-14.678,18.845-42.756,42.888-38.16,52.08c1.821,3.644,6.446,5.732,12.859,5.732c12.361,0,31.372-7.753,49.807-27.065
			c28-29.333,52.667-68.667,52.667-68.667l19.013-32.021l-25.015,36.688c0,0,4.666-27.333,2.666-38
			C356.262,466.215,349.873,460.461,346.783,458.092 M350.955,433.996c-0.398,0.268-0.794,0.566-1.188,0.897
			c0,0,0,1.672-0.141,4.297L350.955,433.996"/>
		<path fill="#F6A64F" d="M278.877,472.851l-0.03,0.008c-1.898,4.712-14.207,34.494-27.08,47.367c-14,14-55.334,41.333-48.667,52
			c0.82,1.312,2.683,1.889,5.313,1.889c17.176,0,67.214-24.511,75.514-28.636c0.763-0.379,1.173-0.586,1.173-0.586l0.51-1.633
			l18.823-60.367l0,0l-6.002,10.666c0,0-2.939,1.47-7.979,1.47c-0.839,0-1.736-0.041-2.688-0.136
			c-0.23-0.022-0.466-0.034-0.707-0.034c-6.772,0-17.959,8.7-17.959,8.7C269.098,500.521,277.403,477.001,278.877,472.851
			 M313.102,463.608l-12.813,3.46C304.572,465.966,309.014,464.78,313.102,463.608 M340.433,456.226L340.433,456.226l-3.502,0.945
			c1.683,0.592,2.167,1.722,2.167,1.722s0,0.001-0.001,0.004L340.433,456.226"/>
		<path fill="#FCCF91" d="M250.406,385.775c-3.879,0.391-7.669,0.742-11.333,1.058c-5.51,1.014-10.019,1.969-12.824,2.855
			c-2.099,0.664-3.247,1.289-3.149,1.871l0,0c0,0,3.998-2,17.998-4C242.891,387.303,246.126,386.675,250.406,385.775
			 M367.429,378.347c-11.87,3.062-39.981,10.395-60.998,16.546c-24.048,7.038-67.19,12.529-77.213,13.747l17.882,65.383l2,6.87
			l29.747-8.034l0.03-0.008c0.144-0.404,0.223-0.625,0.223-0.625s10.059-2.295,21.188-5.158l12.813-3.46
			c5.934-1.702,11.122-3.374,13.996-4.715c3.334-1.556,5.777-2.074,7.556-2.074c0.932,0,1.68,0.143,2.277,0.353l3.502-0.945
			l9.334-21.333l-4-4L367.429,378.347 M377.098,354.893L377.098,354.893c-0.109,0.027-14.9,3.773-32.053,8.279
			c-2.353,0.774-4.773,1.563-7.248,2.359c11.537-2.761,19.301-4.639,19.301-4.639l18-2.667l-0.22,2.052L377.098,354.893"/>
		<path fill="#FCCF91" d="M433.1,379.559l-25.333,50c2.832,1.115,5.939,1.602,9.205,1.602c3.059,0,6.259-0.427,9.497-1.161
			c18.693-4.239,38.776-18.746,41.622-20.852l-5.66-2.921l-14-14.667l-10.774-11.264c-0.27-0.063-0.536-0.121-0.797-0.175
			c-0.056-0.012-0.111-0.022-0.166-0.033l13.07,16.805l16.667,12.666l-18,10.667c0,0-6-6-10.667-9.333s-10.666-10.667-10.666-10.667
			l8.276-20.375C434.049,379.638,433.1,379.559,433.1,379.559"/>
		<path fill="#FCCF91" d="M461.767,326.893c0,0,46.666-4,63.333-0.667s30,5.334,28,16.667s-11.333,24-11.333,24s-30,26-30,25.333
			s-1.334-17.333-1.334-17.333l-46.666-8l-13.334-22.667L461.767,326.893z"/>
		<path fill="#FFFFFF" d="M199.952,428.369c-8.34,0-17.763,1.19-18.854,1.19c-1.668,0-22.343,6.026-45.402,14.214
			c-1.351,0.479-2.708,0.966-4.071,1.46c-3.273,1.185-6.576,2.408-9.859,3.659c-23.538,8.967-34.355,16.05-37.206,18.079
			c-0.54,0.385-0.794,0.588-0.794,0.588c0.011,0.262,0.027,0.517,0.049,0.766c0.426,4.848,2.988,7.311,6.893,8.265
			c0.521,0.128,1.068,0.229,1.637,0.305c0.93,0.124,1.917,0.181,2.956,0.181c2.887,0,6.163-0.442,9.651-1.133
			c3.545-0.701,7.309-1.657,11.101-2.661c3.943-1.044,7.919-2.14,11.714-3.056c3.892-0.939,9.08-2.5,14.886-4.394l69.267-30.785
			c0.305-0.289,0.562-0.564,0.77-0.827c0.265-0.66,0.411-1.327,0.411-1.994l0,0c-1.696-1.785-4.305-2.949-7.545-3.626
			C203.829,428.435,201.921,428.369,199.952,428.369"/>
		<path fill="#FFFFFF" d="M183.604,382.878c-5.939,0-29.367,0.49-66.506,7.347c-31.794,5.87-40.26,13.175-42.515,16.649
			c-0.818,1.261-0.818,2.018-0.818,2.018c0.876,1.488,2.568,2.655,4.847,3.559c5.285,2.095,13.726,2.774,22.46,2.774
			c12.705,0,26.032-1.439,31.166-2.057c-0.059-2.098,0.176-3.473,0.86-3.609c0.46-0.092,1.856-0.564,3.925-1.31
			c6.047-4.883,52.075-20.024,52.075-20.024l0,0l-4-5.333C185.099,382.892,184.595,382.878,183.604,382.878"/>
		<path fill="#FFFFFF" d="M93.096,510.893c0,0,26.67-8,28.67-9.334s31.333-6,31.333-6l64.667-8c0,0-22,32.667-66,40
			S92.432,520.225,93.096,510.893z"/>
		<path fill="#F6A64F" d="M200.007,389.294c-5.237,0.206-8.243,0.265-8.243,0.265l31.336,2L200.007,389.294 M189.099,388.225
			L189.099,388.225L189.099,388.225c0,0-39.146,15.361-52.075,20.024c-2.068,0.745-3.465,1.218-3.925,1.31
			c-0.685,0.137-0.919,1.512-0.86,3.609c0.229,8.115,4.857,27.058,4.857,27.058s36.768-12.385,59.877-12.385
			c3.158,0,6.062,0.231,8.581,0.758c3.24,0.677,5.849,1.841,7.545,3.626l0,0c0.397,0.511,0.229,1.187-0.411,1.994
			c-0.208,0.263-0.465,0.538-0.77,0.827l1.847-0.82c0,0,6.667,11.333-4,22s-62.667,22-62.667,22l-2.811-6.321
			c0.01,0.836,0.035,1.747,0.086,2.712c0.044,0.816,0.104,1.672,0.188,2.552c0.28,2.927,0.816,6.123,1.799,9.079
			c0.155,0.466,0.321,0.927,0.499,1.379c0.267,0.677,0.56,1.337,0.882,1.971c0.669,1.317,1.463,2.527,2.404,3.572
			c0.856,0.949,1.835,1.761,2.953,2.39c1.247,0.701,3.505,1.011,6.52,1.011c22.782,0,88.813-17.678,88.813-17.678l-1.332-4.869
			l-17.882-65.383c-1.369,0.166-2.12,0.253-2.12,0.253l-0.03-0.131c-3.024,0.501-8.609,1.171-16.841,1.171
			c-3.286,0-6.994-0.107-11.129-0.374c-19.339-1.248-28.667-12.666-28.667-12.666c1.333-3.333,21.333-7.334,21.333-7.334
			s-0.218-0.4-0.604-1.132L189.099,388.225"/>
		<polygon fill="#FFF26B" points="385.097,260.893 390.431,276.227 428.431,276.893 415.764,245.56 		"/>
		<path fill="#FFF26B" d="M450.433,344.226l-10.61,20.37l-6.059,11.631l3.202,3.348l0.69,0.722l10.774,11.264l14,14.667l5.66,2.921
			l2.394,1.235l12.612,6.51l12.667-8.666c0,0,13.333-10,14-16s0.669-17.334,0.669-17.334l-31.034-6.583l-12.968-2.75
			L450.433,344.226"/>
		<path fill="#FFF26B" d="M449.097,223.56l28,2.667l10-21.333l49.334-9.333c0,0-26.001,44.667-37.334,56.667s-18,14.667-18,14.667
			l-37.998,5.333L449.097,223.56z"/>
		<path fill="#FFF26B" d="M531.098,112.893l2-23.333c0,0-31.333-6-16-15.333s16.666-3.333,16.666-3.333s24-18,32-16s8,6.667,8,6.667
			s7.334-6.667,13.334-2.667s10.666,5.333,10.666,5.333l8-1.333c0,0,14.666,5.333,16,8s-3.333,10.667-3.333,10.667h-9.333
			c0,0-4.001,6.667-15.334,8.667s-24,4-24,4l-2.666,22L531.098,112.893z"/>
		<path fill="#FDC53C" d="M177.972,338.13c-12.894,0.001,9.187,42.747,13.188,50.297l8.848,0.867
			c2.356-0.092,5.165-0.214,8.355-0.374c-9.963-1.791-17.521-6.334-20.598-15.361c-4.283-12.562-7.221-24.637-8.499-35.278
			c-0.064-0.029-0.12-0.047-0.168-0.055C178.695,338.162,178.321,338.13,177.972,338.13"/>
		<path fill="#F18631" d="M380.431,350.893c0,0-0.471,0.083-1.362,0.233l-0.174,0.33
			C379.897,351.091,380.431,350.893,380.431,350.893 M179.266,338.281c1.278,10.642,4.216,22.716,8.499,35.278
			c3.077,9.027,10.635,13.57,20.598,15.361c8.141-0.406,18.764-1.059,30.711-2.088c7.948-1.462,17.981-3.046,28.004-4.723
			c16.688-3.771,38.108-8.812,55.866-13.035c7.165-1.953,14.848-3.997,22.102-5.902c1.111-0.366,2.209-0.729,3.288-1.088
			l-3.236,0.809c0,0,2.195-2.993,5.901-7.572c-22.823,3.053-55.262,6.562-83.775,6.562c-4.844,0-9.574-0.102-14.125-0.323
			C199.692,358.955,181.995,339.488,179.266,338.281"/>
		<path fill="#F6A654" d="M267.077,382.11c-10.022,1.677-20.056,3.261-28.004,4.723c3.664-0.315,7.454-0.667,11.333-1.058
			C254.947,384.82,260.662,383.559,267.077,382.11 M345.045,363.172c-7.254,1.905-14.937,3.949-22.102,5.902
			c5.362-1.275,10.389-2.475,14.854-3.543C340.271,364.736,342.692,363.947,345.045,363.172"/>
		<path fill="#F18631" d="M191.159,388.427c0.387,0.731,0.604,1.132,0.604,1.132l0,0c0,0,3.006-0.059,8.243-0.265L191.159,388.427"
			/>
		<path fill="#FDC53C" d="M384.973,467.352l-4.86,8.186l4.985-7.312C385.098,468.226,385.057,467.915,384.973,467.352
			 M377.386,448.879c2.413,3.581,4.466,7.139,6.004,9.988c-0.432-1.943-0.949-4.044-1.558-6.152L377.386,448.879 M349.626,439.19
			l-4.528,17.703c0,0,0.662,0.414,1.686,1.199C348.689,451.465,349.378,443.835,349.626,439.19 M352.431,428.226l-1.476,5.77
			c1.909-1.285,3.855-1.853,5.803-1.853c0.442,0,0.887,0.029,1.329,0.086l-2.322-2.003c0,0,0.087-0.287,0.25-0.824
			C353.839,428.649,352.431,428.226,352.431,428.226"/>
		<path fill="#F18631" d="M356.015,429.402c-0.163,0.537-0.25,0.824-0.25,0.824l2.322,2.003c7.057,0.908,14.032,8.834,19.299,16.65
			l4.446,3.836c-1.831-6.349-4.48-12.764-8.068-15.156C368.363,433.959,360.534,430.967,356.015,429.402"/>
		<path fill="#F18631" d="M356.758,432.143c-1.947,0-3.894,0.567-5.803,1.853l-1.329,5.194c-0.248,4.646-0.937,12.275-2.843,18.902
			c3.09,2.369,9.479,8.123,10.98,16.134c2,10.667-2.666,38-2.666,38l25.015-36.688l4.86-8.186c-0.221-1.477-0.737-4.68-1.583-8.484
			c-1.538-2.85-3.591-6.407-6.004-9.988c-5.267-7.816-12.242-15.742-19.299-16.65C357.645,432.172,357.2,432.143,356.758,432.143"/>
		<path fill="#FDC53C" d="M313.079,479.599l-8.646,3.294c0,0,1.914-0.45,4.761-1.221
			C310.378,480.929,311.686,480.243,313.079,479.599 M332.433,472.226l-10.812,4.119c3.19-1.053,6.448-2.023,9.47-3.014
			C331.611,472.964,332.063,472.595,332.433,472.226 M339.097,458.897l-6.664,13.329
			C337.693,466.963,339.062,459.104,339.097,458.897"/>
		<path fill="#F18631" d="M331.09,473.332c-3.021,0.99-6.279,1.961-9.47,3.014l-8.541,3.254c-1.394,0.644-2.701,1.33-3.886,2.073
			C315.465,479.976,326.263,476.73,331.09,473.332"/>
		<path fill="#F18631" d="M336.931,457.171l-23.829,6.437c-4.088,1.172-8.529,2.358-12.813,3.46l-21.411,5.783
			c-1.474,4.15-9.779,27.67-9.779,30.708c0,0,11.187-8.7,17.959-8.7c0.241,0,0.477,0.012,0.707,0.034
			c0.951,0.095,1.849,0.136,2.688,0.136c5.04,0,7.979-1.47,7.979-1.47l6.002-10.666l0,0l8.646-3.294l8.541-3.254l10.812-4.119l0,0
			l0,0l6.664-13.329c0.001-0.003,0.001-0.004,0.001-0.004S338.613,457.763,336.931,457.171"/>
		<path fill="#F6A654" d="M300.288,467.068c-11.13,2.863-21.188,5.158-21.188,5.158s-0.079,0.221-0.223,0.625L300.288,467.068
			 M334.653,456.819c-1.778,0-4.222,0.519-7.556,2.074c-2.874,1.341-8.062,3.013-13.996,4.715l23.829-6.437
			C336.333,456.961,335.585,456.819,334.653,456.819"/>
		<path fill="#F18631" d="M191.764,389.559L191.764,389.559L191.764,389.559c0,0-20,4.001-21.333,7.334
			c0,0,9.328,11.418,28.667,12.666c4.135,0.267,7.843,0.374,11.129,0.374c8.231,0,13.816-0.67,16.841-1.171l-3.968-17.203
			L191.764,389.559"/>
		<path fill="#FDC838" d="M374.878,360.278l-7.449,18.069c1.702-0.438,3.07-0.79,4.035-1.037c0.933-3.258,1.799-6.327,2.563-9.096
			L374.878,360.278"/>
		<path fill="#F1882E" d="M374.027,368.214c-0.765,2.769-1.631,5.838-2.563,9.096c1.059-0.271,1.634-0.417,1.634-0.417
			L374.027,368.214"/>
		<path fill="#F7A84F" d="M375.098,358.226l-18,2.667c0,0-7.764,1.878-19.301,4.639c-24.337,7.827-53.802,16.333-73.366,18.694
			c-4.765,0.575-9.456,1.089-14.024,1.549c-4.28,0.9-7.516,1.528-9.309,1.784c-14,2-17.998,4-17.998,4l0,0l3.999,9.333l0.579,2.117
			l2.086,5.217c0,0-0.206,0.055-0.619,0.146l0.073,0.269c10.022-1.218,53.165-6.709,77.213-13.747
			c21.017-6.151,49.128-13.484,60.998-16.546l7.449-18.069L375.098,358.226"/>
		<path fill="#F1882E" d="M229.145,408.372c-0.448,0.098-1.14,0.236-2.077,0.391l0.03,0.131c0,0,0.751-0.087,2.12-0.253
			L229.145,408.372 M223.1,391.559L223.1,391.559l4.578,11.45l-0.579-2.117L223.1,391.559"/>
		<path fill="#ED6F20" d="M322.943,369.075c-17.758,4.223-39.178,9.265-55.866,13.035c13.521-2.262,27.021-4.691,35.355-7.217
			C307.833,373.256,315.079,371.219,322.943,369.075"/>
		<path fill="#F18731" d="M337.797,365.532c-4.465,1.068-9.491,2.268-14.854,3.543c-7.864,2.145-15.11,4.182-20.511,5.818
			c-8.335,2.525-21.835,4.955-35.355,7.217c-6.415,1.449-12.13,2.71-16.671,3.665c4.568-0.46,9.26-0.974,14.024-1.549
			C283.995,381.865,313.46,373.359,337.797,365.532"/>
		<path fill="#F18731" d="M227.678,403.009l1.467,5.362c0.413-0.091,0.619-0.146,0.619-0.146L227.678,403.009"/>
		<path fill="#ED6F20" d="M223.1,391.559l3.968,17.203c0.938-0.154,1.629-0.293,2.077-0.391l-1.467-5.362L223.1,391.559"/>
		<path fill="#FDC838" d="M435.764,378.893l-0.39,0.958c0.409,0.065,0.854,0.145,1.319,0.237L435.764,378.893"/>
		<path fill="#F7A84F" d="M435.374,379.851l-8.276,20.375c0,0,5.999,7.334,10.666,10.667s10.667,9.333,10.667,9.333l18-10.667
			l-16.667-12.666l-13.07-16.805C436.229,379.996,435.783,379.917,435.374,379.851"/>
		<path fill="#FDC53C" d="M172.008,455.534c-9.546,3.508-20.216,7.315-29.356,10.298l-0.889,0.395l2.524,5.679
			c-0.033-2.993,0.145-5.013,0.145-5.013S157.356,461.839,172.008,455.534"/>
		<path fill="#FBCB99" d="M211.918,435.046l-69.267,30.785c9.141-2.982,19.811-6.79,29.356-10.298
			C188.321,448.512,206.775,439.936,211.918,435.046"/>
		<path fill="#F18631" d="M213.765,434.226l-1.847,0.82c-5.143,4.89-23.597,13.466-39.91,20.487
			c-14.651,6.306-27.576,11.358-27.576,11.358s-0.178,2.02-0.145,5.013l2.811,6.321c0,0,52-11.333,62.667-22
			S213.765,434.226,213.765,434.226"/>
		<path fill="#FFDC48" d="M353.266,256.095c-1.334,1.125-2.738,2.294-4.168,3.464c-0.763,0.624-1.511,1.392-2.239,2.267
			C348.672,261.004,350.962,258.781,353.266,256.095"/>
		<path fill="#FDCE81" d="M347.765,214.226c0,0-7.333,39.334-4,46.667c0.402,0.886,1.001,1.276,1.74,1.276
			c0.41,0,0.864-0.12,1.354-0.342c0.729-0.875,1.477-1.643,2.239-2.267c1.43-1.17,2.834-2.339,4.168-3.464
			c5.214-6.079,10.499-14.536,10.499-14.536C362.432,238.893,347.765,214.226,347.765,214.226"/>
		<path fill="#FDCE81" d="M221.098,262.893l-30.666,40c0.508,0.084,1.226,0.125,2.142,0.125c1.637,0,3.896-0.129,6.669-0.369
			c18.247-2.965,50.392-7.682,84.22-12.036c27.481-4.448,50.303-8.387,50.303-8.387s-29.333-6-52-11.333
			S221.098,262.893,221.098,262.893"/>
		<path fill="#F49637" d="M283.462,290.613c-33.828,4.354-65.973,9.071-84.22,12.036
			C216.298,301.18,252.785,295.579,283.462,290.613"/>
		<path fill="#F18631" d="M338.457,127.472c-0.702,0.396-1.38,0.867-2.025,1.42c-9.027,7.738,1.282,31.695,19.463,43.511
			c3.328-0.878,6.91-1.246,10.578-1.246c13.77,0,28.728,5.187,35.801,7.988c16.281-0.747,30.158-2.92,30.158-2.92
			s-38.667-14-55.333-21.333s-15.334-24.667-15.334-24.667s-1.469-0.857-3.775-1.829C352.354,127.93,345.83,127.579,338.457,127.472
			"/>
		<path fill="#F9B76B" d="M366.473,171.158c-3.668,0-7.25,0.368-10.578,1.246c0.615,0.399,1.237,0.784,1.87,1.155
			c7.644,4.481,20.912,5.835,34.167,5.835c3.482,0,6.965-0.093,10.342-0.249C395.2,176.344,380.242,171.158,366.473,171.158"/>
		<path fill="#F18631" d="M339.099,101.559c-40,0-88.667,26-76.667,32.667c28.495-5.159,52.457-6.787,71.367-6.787
			c1.588,0,3.142,0.011,4.658,0.033c2.342-1.323,4.956-1.82,7.562-1.82c4.484,0,8.946,1.471,11.97,2.745
			c16.857,1.397,25.775,3.829,25.775,3.829S379.099,101.559,339.099,101.559"/>
		<path fill="#ED6D22" d="M346.02,125.652c-2.606,0-5.221,0.497-7.562,1.82c7.373,0.106,13.897,0.458,19.532,0.925
			C354.966,127.124,350.504,125.652,346.02,125.652"/>
		<path fill="#FDC53C" d="M389.838,83.713c-1.672,1.26-3.06,2.753-4.075,4.513c-1.55,2.686-1.547,4.652-0.281,6.063
			C386.082,89.869,387.621,86.411,389.838,83.713 M444.064,67.958c0.144,2.667-0.231,5.125-0.718,7.085
			c2.14-0.299,3.492-0.938,3.752-2.15C447.434,71.328,446.307,69.631,444.064,67.958"/>
		<path fill="#F18631" d="M400.415,57.636c-10.592,0-21.273,1.669-29.983,5.923c-38.227,18.669,15.333,42,15.333,42
			c-0.66-4.319-0.721-8.049-0.283-11.27c-1.266-1.411-1.269-3.377,0.281-6.063c1.016-1.76,2.403-3.253,4.075-4.513
			c6.263-7.619,17.932-9.162,29.114-9.162c3.805,0,7.554,0.179,11.015,0.357c3.46,0.179,6.631,0.357,9.281,0.357
			c1.563,0,2.945-0.062,4.099-0.223c0.486-1.96,0.861-4.417,0.718-7.085C436.995,62.684,418.839,57.636,400.415,57.636"/>
		<path fill="#F18631" d="M378.895,351.457c-4.04,1.476-15.682,5.679-30.562,10.628l28.765-7.191l0,0l0,0L378.895,351.457
			 M399.764,311.56c-18.404,8.233-38.92,31.597-48.766,43.761c14.067-1.882,24.482-3.59,28.07-4.194L399.764,311.56"/>
		<polyline fill="#F6A654" points="377.098,354.893 377.098,354.893 377.098,354.893 		"/>
		<path fill="#ED6D22" d="M379.068,351.126c-3.588,0.604-14.003,2.312-28.07,4.194c-3.706,4.579-5.901,7.572-5.901,7.572
			l3.236-0.809c14.88-4.949,26.521-9.152,30.562-10.628L379.068,351.126"/>
		<path d="M371.763,168.892c-5.161,0.319-9.887,0.923-14.449,1.61c-2.269,0.376-4.499,0.778-6.72,1.216
			c-2.205,0.472-4.395,0.993-6.606,1.557c-8.799,2.352-17.86,5.583-28.743,11.082c-1.852,0.916-4.29,2.106-7.753,3.992
			c-1.738,0.93-3.747,2.004-6.093,3.259c-2.36,1.225-4.959,2.808-8,4.525c-11.549,6.653-26.839,16.04-42.364,27.667
			c-7.736,5.839-15.679,12.021-23.232,18.647c-7.696,6.432-14.946,13.515-21.687,20.488c-3.266,3.615-6.542,7.062-9.428,10.705
			c-3.018,3.504-5.642,7.183-8.208,10.626c-1.24,1.761-2.373,3.55-3.514,5.253c-0.561,0.86-1.133,1.691-1.659,2.541
			c-0.505,0.867-1.001,1.721-1.489,2.561c-0.958,1.693-1.955,3.276-2.779,4.897c-0.813,1.628-1.595,3.191-2.341,4.685
			c-0.783,1.469-1.339,2.99-1.944,4.377c-0.575,1.407-1.17,2.705-1.626,3.973c-0.858,2.564-1.672,4.742-2.189,6.588
			c-0.488,1.859-0.868,3.304-1.126,4.284c-0.127,0.49-0.225,0.864-0.29,1.115c-0.049,0.258-0.074,0.39-0.074,0.39
			s-0.329,1.768-0.929,4.983c-0.265,1.617-0.432,3.638-0.696,5.969c-0.087,1.173-0.101,2.441-0.152,3.781
			c-0.02,0.671-0.038,1.361-0.059,2.07c0.029,0.712,0.059,1.442,0.089,2.191c0.196,5.979,1.304,13.197,4.052,20.771
			c2.816,7.543,7.197,15.359,13.604,22.332c0.388,0.443,0.821,0.869,1.237,1.305l0.637,0.649l0.726,0.703
			c0.729,0.712,1.557,1.39,2.348,2.08l1.224,0.996c0.496,0.154,1.024,0.241,1.537,0.365c1.044,0.255,2.03,0.386,3.05,0.579
			l1.789,0.279c1.2,0.212,2.308,0.271,3.473,0.409c1.152,0.119,2.31,0.239,3.472,0.359c1.155,0.093,2.299,0.131,3.455,0.198
			c1.154,0.06,2.312,0.119,3.474,0.179c1.161,0.062,2.328,0.132,3.479,0.108c2.313-0.001,4.636-0.002,6.965-0.003
			c1.161-0.018,2.335,0.033,3.489-0.042l3.472-0.183c4.626-0.271,9.282-0.389,13.819-0.973c2.277-0.24,4.547-0.48,6.803-0.719
			c2.253-0.252,4.508-0.428,6.698-0.825c4.4-0.697,8.73-1.383,12.951-2.052c1.055-0.169,2.103-0.337,3.143-0.503
			c1.027-0.213,2.047-0.425,3.059-0.635c2.022-0.42,4.015-0.834,5.971-1.24c3.906-0.825,7.688-1.569,11.256-2.373
			c4.505-1.112,8.58-2.118,12.251-3.024c3.671-0.905,6.942-1.693,9.786-2.521c5.709-1.592,9.909-2.762,12.792-3.565
			c11.604-3.42,20.468-6.844,28.583-10.849c4.072-1.957,7.94-4.121,11.887-6.444c3.949-2.31,7.953-4.883,12.251-7.728
			c-5.14,0.5-9.828,0.976-14.36,1.465c-4.526,0.502-8.854,1.116-13.277,1.808c-8.82,1.475-17.937,3.501-29.361,6.745
			c-2.83,0.771-6.953,1.897-12.559,3.427c-2.795,0.806-5.984,1.564-9.565,2.442c-3.58,0.879-7.556,1.856-11.95,2.936
			c-3.462,0.776-7.108,1.488-10.887,2.286c-1.891,0.393-3.815,0.793-5.77,1.199c-0.979,0.203-1.963,0.408-2.955,0.614
			c-0.995,0.158-1.998,0.318-3.007,0.479c-4.036,0.64-8.176,1.297-12.384,1.964c-2.102,0.386-4.232,0.546-6.371,0.785
			c-2.14,0.228-4.293,0.456-6.453,0.685c-4.324,0.565-8.671,0.663-13.019,0.926l-3.26,0.177c-1.087,0.074-2.16,0.021-3.239,0.038
			c-2.155,0.004-4.306,0.007-6.446,0.01c-1.075,0.026-2.128-0.039-3.179-0.096c-1.052-0.054-2.101-0.107-3.146-0.161
			c-1.042-0.06-2.094-0.09-3.118-0.171c-1.014-0.105-2.022-0.21-3.028-0.313c-0.988-0.118-2.044-0.171-2.961-0.342l-1.388-0.215
			l-0.079-0.009l-0.003-0.006l-0.406-0.392c-0.155-0.146-0.308-0.314-0.461-0.471c-0.305-0.321-0.619-0.62-0.912-0.96
			c-2.399-2.626-4.518-5.48-6.25-8.386c-1.741-2.907-3.102-5.869-4.203-8.746c-2.1-5.802-2.963-11.308-3.119-15.952
			c-0.027-0.581-0.054-1.147-0.08-1.7c0.019-0.555,0.036-1.096,0.053-1.621c0.044-1.051,0.042-2.04,0.109-2.967
			c0.226-1.853,0.336-3.448,0.549-4.747c0.479-2.596,0.743-4.022,0.743-4.022s0.02-0.106,0.059-0.314
			c0.055-0.206,0.137-0.513,0.244-0.915c0.213-0.804,0.525-1.989,0.928-3.515c0.426-1.522,1.131-3.352,1.835-5.495
			c0.382-1.065,0.904-2.177,1.392-3.372c0.522-1.185,0.973-2.468,1.668-3.747c0.648-1.294,1.327-2.649,2.034-4.06
			c0.713-1.409,1.613-2.814,2.454-4.303c0.43-0.741,0.867-1.495,1.311-2.26c0.47-0.754,0.989-1.5,1.492-2.269
			c1.028-1.525,2.033-3.122,3.155-4.711c2.346-3.122,4.708-6.454,7.509-9.69c2.639-3.338,5.715-6.554,8.749-9.917
			c6.335-6.53,13.137-13.189,20.55-19.371c7.245-6.352,14.887-12.288,22.326-17.906c14.937-11.186,29.695-20.252,40.835-26.698
			c2.936-1.662,5.44-3.198,7.72-4.385c2.262-1.218,4.2-2.262,5.877-3.165c3.339-1.836,5.688-3,7.468-3.902
			c10.46-5.421,18.599-9.782,26.149-14.456c1.897-1.143,3.755-2.319,5.61-3.52c1.868-1.166,3.73-2.37,5.619-3.625
			C363.474,174.234,367.369,171.581,371.763,168.892z"/>
		<path d="M208.431,303.561c20.562,1.757,34.366,2.372,58.058-0.957c3.207-0.449,8.021-1.122,13.99-1.957
			c2.985-0.412,6.259-0.863,9.765-1.347c6.069-0.813,12.542-1.68,19.317-2.587c13.745-1.79,28.731-3.663,44.158-5.339
			c15.421-1.665,31.306-3.213,46.723-4.073c7.686-0.405,15.312-0.678,22.415-0.425c6.788,0.212,13.862,1.391,19.979,3.007
			c3.057,0.826,5.895,1.839,8.272,3.037c1.22,0.58,2.23,1.25,3.168,1.895c0.888,0.668,1.608,1.347,2.164,2
			c1.08,1.331,1.481,2.455,1.62,4.051c0.117,1.614-0.204,3.573-0.862,6.079c-0.086,0.337-0.171,0.672-0.256,1.005l-0.066,0.263
			l-0.017,0.066c2.062,0.537-4.643-1.108,4.621,1.22c-0.88-0.192-1.757-0.395-2.629-0.61l-1.307-0.331
			c-0.511-0.134-0.889-0.236-0.73-0.188l-0.012,0.019l-0.021,0.04l-0.025,0.084l-0.148,0.361l-0.33,0.788
			c-0.199,0.5-0.479,1.099-0.722,1.649c-0.253,0.561-0.502,1.115-0.747,1.661c-1.046,2.23-2.035,4.34-2.962,6.319
			c-1.922,3.978-3.588,7.427-4.956,10.259c-2.779,5.664-4.345,8.854-4.345,8.854s-8.151,16.513-21.067,42.117
			c-6.479,12.792-14.115,27.866-22.442,44.306c-3.548,6.967-7.243,14.223-11.036,21.671l0.039-0.05l0.022,0.045l-0.011-0.021
			c-0.406-0.633-0.847-1.255-1.317-1.865c-0.469-0.611-0.897-1.238-1.422-1.827c-1.843-2.308-4.11-4.464-6.619-6.395l-1.952-1.393
			l-1.66-1.015c-1.103-0.67-2.203-1.339-3.299-2.005c-1.096-0.664-2.188-1.326-3.271-1.983c-1.095-0.619-2.194-1.195-3.277-1.786
			c-1.085-0.586-2.16-1.167-3.222-1.74l-0.397-0.215l-0.1-0.054l-0.009-0.005l0.001,0.001l0.006,0.003l0.012,0.005l0.019,0.031
			l-0.008,0.022l-0.002,0.005c0.003-0.008-0.031,0.086,0.087-0.243c0.165-0.459,0.327-0.911,0.487-1.357
			c1.288-3.564,2.419-6.692,3.328-9.208c0.717-1.976,1.418-3.908,1.42-3.914c6.262-17.188,10.229-27.781,12.282-33.317
			c4.169-11.196,6.886-20.159,8.949-28.86c1.058-4.332,1.904-8.635,2.782-13.067c0.21-1.116,0.421-2.242,0.635-3.38
			c0.226-1.133,0.454-2.278,0.685-3.44c0.422-2.365,0.99-4.7,1.577-7.242c-1.672,1.928-3.346,3.846-4.776,5.771
			c-0.734,0.965-1.458,1.915-2.173,2.854c-0.681,0.955-1.354,1.898-2.021,2.835c-2.671,3.765-5.03,7.499-7.333,11.408
			c-4.54,7.827-8.61,16.383-12.92,27.612c-2.125,5.553-6.145,16.198-12.446,33.451c-0.002,0.006-0.707,1.946-1.428,3.929
			c-0.915,2.526-2.052,5.668-3.348,9.246c-1.103,3.078-2.271,6.345-3.495,9.76c-0.354,0.995-0.713,2.001-1.075,3.018
			c-0.182,0.509-0.363,1.02-0.546,1.532c-0.083,0.253-0.203,0.523-0.257,0.763l0.759,0.343c2.029,0.906,4.08,1.876,6.164,2.855
			c1.041,0.489,2.092,0.982,3.148,1.479c0.528,0.248,1.059,0.497,1.591,0.747l0.399,0.188l0.189,0.09l0.092,0.05l0.371,0.2
			c0.989,0.534,1.99,1.074,3.001,1.62c1.008,0.55,2.04,1.088,3.052,1.658c0.985,0.6,1.978,1.202,2.974,1.809
			c0.997,0.604,1.998,1.212,3.001,1.82l1.497,0.91l1.056,0.764c1.383,1.084,2.75,2.313,3.943,3.829
			c0.336,0.359,0.62,0.8,0.932,1.199c0.313,0.398,0.612,0.817,0.892,1.261c0.646,1.079,1.377,2.083,1.939,3.327l0.897,1.79
			c0.294,0.608,0.615,1.147,0.857,1.891l0.778,2.092l0.39,1.045c0.129,0.355,0.264,0.667,0.379,1.113
			c0.48,1.67,0.96,3.339,1.439,5.005c1.022,3.555,2.042,7.102,3.06,10.64l0.762,2.647l0.185,0.643l0.053,0.027l0.059-0.115
			l0.117-0.231l0.469-0.922l1.438-2.83c1.144-2.237,2.284-4.469,3.422-6.695c2.274-4.452,4.537-8.88,6.784-13.279
			c5.149-10.119,10.167-19.978,14.983-29.442c8.324-16.464,15.957-31.561,22.435-44.372c12.911-25.647,21.083-42.25,21.083-42.25
			s1.579-3.21,4.383-8.907c1.388-2.866,3.079-6.358,5.029-10.386c0.962-2.046,1.987-4.229,3.071-6.535
			c0.269-0.596,0.541-1.2,0.817-1.812c0.277-0.625,0.551-1.207,0.846-1.93c0.146-0.348,0.291-0.697,0.438-1.049l0.23-0.568
			l0.305-0.871c0.484-1.444,0.477-1.651,0.699-2.456c0.72-2.825,1.606-6.606,1.314-10.995c-0.146-2.188-0.617-4.529-1.5-6.773
			c-0.878-2.24-2.143-4.379-3.651-6.172c-1.503-1.803-3.193-3.333-4.946-4.641c-1.756-1.252-3.574-2.387-5.407-3.276
			c-3.675-1.847-7.423-3.139-11.2-4.171c-3.779-1.026-7.599-1.787-11.456-2.405c-1.948-0.26-3.796-0.592-5.915-0.752
			c-1.031-0.093-2.067-0.186-3.106-0.28c-1-0.042-2.004-0.084-3.011-0.126c-8.021-0.287-15.912,0.011-23.89,0.422
			c-15.913,0.881-31.978,2.446-47.569,4.125c-15.587,1.691-30.67,3.578-44.495,5.384c-6.812,0.917-13.317,1.793-19.419,2.614
			c-3.521,0.494-6.81,0.955-9.808,1.375c-5.99,0.87-10.822,1.572-14.041,2.04C240.504,290.745,227.424,295.477,208.431,303.561z"/>
		<path d="M335.098,285.56c4.277-1.493,6.685-2.454,7.689-5.223c0.548-1.482,2.097-6.047,3.884-9.84
			c0.866-1.926,1.802-3.592,2.499-4.744c0.356-0.542,0.65-0.987,0.854-1.297c0.207-0.264,0.324-0.413,0.324-0.413
			s0.117-0.148,0.325-0.412c0.151-0.245,0.655-0.707,1.131-1.218c0.5-0.523,1.089-1.139,1.73-1.81c0.63-0.679,1.45-1.321,2.211-2.03
			c0.771-0.704,1.566-1.42,2.415-2.052c0.831-0.646,1.616-1.298,2.371-1.86c1.546-1.083,2.777-2.024,3.433-2.439
			c1.177-0.814,1.828-1.873,2.262-3.253c0.428-1.408,0.593-3.154,0.87-5.41c-4.017-2.094-6.775-2.829-9.566-1.11
			c-0.778,0.437-2.224,1.491-4.008,2.739c-0.878,0.647-1.803,1.407-2.769,2.164c-0.978,0.739-1.928,1.591-2.848,2.437
			c-0.915,0.855-1.854,1.618-2.635,2.458c-0.785,0.833-1.507,1.598-2.119,2.248c-0.615,0.679-1.097,1.121-1.475,1.641
			c-0.363,0.465-0.567,0.727-0.567,0.727s-0.205,0.261-0.569,0.726c-0.331,0.46-0.761,1.115-1.299,1.92
			c-0.998,1.598-2.213,3.757-3.242,6.011c-2.143,4.508-3.802,9.446-4.313,11.117C330.77,279.711,332.165,282.093,335.098,285.56z"/>
		<path d="M356.43,228.227c1.967,7.492,3.949,13.702,6.773,19.972c1.428,3.133,3.061,6.277,5.21,9.586
			c1.085,1.656,2.284,3.349,3.81,5.12c0.771,0.887,1.605,1.791,2.698,2.742c1.63,1.382,3.491,2.603,5.649,2.989
			c0.363,0.07,0.744,0.118,1.145,0.132c0.398,0.007,0.812,0.016,1.236-0.114c0.843-0.207,1.791-0.377,2.759-0.663
			c0.232-0.086,0.47-0.174,0.712-0.263c0.235-0.088,0.525-0.191,0.643-0.245c0.312-0.132,0.639-0.269,0.979-0.412
			c0.692-0.287,1.286-0.605,2.016-0.947c2.821-1.379,6.271-3.245,10.804-5.874c1.815-1.036,4.836-2.83,7.373-4.39
			c2.531-1.568,4.62-2.863,4.62-2.863s1.752-1.075,3.989-2.448c1.112-0.696,2.346-1.467,3.542-2.215
			c2.242-1.436,4.415-2.827,6.224-3.986c0.362-0.233,0.722-0.464,1.079-0.695c0.141-0.037,0.045-0.169,0.037-0.266l-0.073-0.309
			l-0.146-0.616c-0.192-0.818-0.383-1.626-0.571-2.425c-0.372-1.576-0.734-3.113-1.088-4.612c-0.361-1.515-0.704-2.952-1.028-4.314
			c-0.65-2.724-1.229-5.147-1.74-7.287c-1.028-4.279-1.786-7.428-2.306-9.588c-4.244-17.473-8.57-26.927-15.678-40.677
			c-0.164,15.478,0.226,25.867,4.294,43.382c0.834,3.535,2.431,10.303,5.01,21.237c-2.744,1.734-7.693,4.863-7.693,4.863
			s-2.066,1.249-4.569,2.761c-2.503,1.488-5.442,3.236-7.188,4.274c-4.373,2.546-7.637,4.312-10.034,5.493
			c-0.585,0.276-1.175,0.594-1.63,0.777c-0.231,0.098-0.453,0.192-0.667,0.283l-0.138,0.061l-0.039,0.02l-0.011,0.016l-0.017,0.037
			c-0.539-0.423-1.16-1.008-1.764-1.611c-1.217-1.221-2.413-2.566-3.564-3.881c-2.346-2.715-4.518-5.229-6.654-7.702
			C366.09,238.578,361.669,233.915,356.43,228.227z"/>
		<path d="M382.431,262.894c-1.511,2.226-2.251,3.547-1.628,4.59c0.676,1.13,4.383,6.573,4.383,6.573s3.599,5.515,4.382,6.573
			c0.724,0.977,2.228,0.801,4.863,0.264c1.511-2.226,2.25-3.547,1.627-4.591c-0.675-1.13-4.382-6.573-4.382-6.573
			s-3.598-5.516-4.382-6.573C386.57,262.181,385.066,262.355,382.431,262.894z"/>
		<path d="M418.43,242.894c-1.805,2.494-2.704,4.081-2.088,6.157c0.668,2.249,4.382,13.39,4.382,13.39s3.591,11.181,4.382,13.39
			c0.73,2.039,2.395,2.787,5.324,3.73c1.806-2.494,2.705-4.08,2.09-6.157c-0.667-2.249-4.382-13.39-4.382-13.39
			s-3.591-11.182-4.382-13.39C423.024,244.585,421.361,243.838,418.43,242.894z"/>
		<path d="M449.764,342.227c1.646,4.891,3.1,8.949,4.942,13.053c0.922,2.052,1.94,4.114,3.129,6.297
			c0.594,1.092,1.23,2.213,1.919,3.379c0.349,0.579,0.705,1.173,1.072,1.782c0.35,0.558,0.704,1.123,1.062,1.695
			c0.195,0.309,0.392,0.619,0.589,0.932l0.148,0.235c0.06,0.062,0.073,0.195,0.185,0.183l0.551,0.099
			c2.228,0.396,5.852,1.042,13.384,2.384c7.374,1.299,19.798,3.487,30.377,5.351c0.077,0.427,0.153,0.848,0.229,1.265
			c0.113,0.706,0.225,1.403,0.335,2.089c0.203,1.37,0.357,2.689,0.462,3.929c0.213,2.464,0.196,4.683-0.064,6.08
			c-0.105,0.681-0.349,1.15-0.304,1.04l0.007,0.004c-0.032,0.03,0.133-0.12-0.156,0.138c-0.396,0.347-0.603,0.571-0.864,0.821
			c-0.428,0.444-0.76,0.789-0.986,1.023c-0.216,0.229-0.329,0.35-0.329,0.35s-1.444,1.553-3.812,4.097
			c-2.34,2.466-5.609,5.88-9.568,8.97c-1.971,1.523-4.148,2.955-6.295,3.808c-1.068,0.436-2.112,0.693-3.007,0.729
			c-0.903,0.04-1.63-0.109-2.312-0.453l-0.132-0.054l-0.226-0.121l-0.47-0.258l-0.937-0.52c-0.623-0.349-1.242-0.695-1.855-1.039
			c-1.222-0.699-2.424-1.388-3.596-2.059c-2.333-1.356-4.528-2.668-6.493-3.886c-3.823-2.368-6.822-4.388-9.005-6.045
			c-1.089-0.826-1.974-1.562-2.621-2.171c-0.152-0.147-0.298-0.29-0.438-0.426c-0.115-0.125-0.225-0.244-0.329-0.357l-0.203-0.254
			l-0.037-0.058l-0.011-0.015l-0.006-0.007l-0.004-0.003l-0.12,0.061c0.29-0.198-1.35-3.188-1.989-4.015
			c-0.827-1.234-1.645-2.297-2.462-3.292c-1.63-1.99-3.237-3.684-4.88-5.258c-3.286-3.144-6.696-5.812-10.88-8.836
			c2.276,4.627,4.174,8.48,6.363,12.353c1.093,1.935,2.257,3.881,3.502,5.931c0.625,1.021,1.271,2.082,1.877,3.142
			c0.826,1.45,0.578,0.938,1.737,3.648c0.741,1.312,1.554,2.146,2.491,3.055c0.939,0.892,2.016,1.784,3.261,2.736
			c2.487,1.897,5.65,4.024,9.615,6.486c2.037,1.266,4.292,2.615,6.684,4.005c1.2,0.688,2.431,1.392,3.681,2.107
			c0.63,0.353,1.264,0.707,1.902,1.064l0.964,0.533l0.487,0.267l0.256,0.138l0.364,0.175c1.922,0.982,4.181,1.384,6.209,1.268
			c2.047-0.102,3.881-0.622,5.508-1.275c3.269-1.322,5.882-3.126,8.201-4.906c4.595-3.606,8.017-7.238,10.462-9.813
			c2.37-2.558,3.815-4.119,3.815-4.119s0.409-0.426,1.147-1.193c0.152-0.143,0.383-0.382,0.515-0.488l0.219-0.199
			c0.16-0.178,0.268-0.271,0.408-0.416c0.281-0.254,0.523-0.561,0.752-0.896c0.974-1.444,1.321-2.77,1.581-4.087
			c0.466-2.62,0.406-5.284,0.183-8.157c-0.118-1.432-0.29-2.905-0.511-4.412c-0.119-0.751-0.24-1.514-0.363-2.287
			c-0.068-0.385-0.137-0.772-0.206-1.162c-0.134-0.679-0.269-1.362-0.403-2.049c-0.165-0.745-0.332-1.494-0.499-2.247l-0.257-1.128
			c0.013-0.131-0.14-0.089-0.22-0.122l-0.286-0.055l-0.574-0.107c-1.45-0.272-2.911-0.546-4.381-0.821
			c-1.564-0.277-3.146-0.558-4.729-0.838c-3.167-0.56-6.343-1.121-9.404-1.662c-6.123-1.078-11.787-2.075-16.008-2.817
			c-3.381-0.593-5.886-1.032-7.794-1.367c-0.955-0.166-1.761-0.306-2.453-0.427c-0.138-0.023-0.271-0.046-0.397-0.068v0.002
			l-0.002,0.004l-0.006,0.007l-0.007,0.003l-0.005,0.002l-0.015-0.019l-0.073-0.111c-0.399-0.588-0.788-1.161-1.168-1.722
			c-0.768-1.114-1.518-2.163-2.259-3.161c-1.481-1.995-2.925-3.787-4.399-5.485C456.581,348.801,453.509,345.776,449.764,342.227z"
			/>
		<path d="M461.43,327.893c10.196,1.682,16.989,2.509,28.856,2.191c2.01-0.037,5.284-0.153,12.064-0.125
			c5.999,0.032,16.117,0.322,24.496,1.453c4.187,0.554,7.924,1.298,10.525,2.011c2.604,0.71,4.107,1.302,4.107,1.302
			s0.314,0.123,0.886,0.347c0.557,0.238,1.361,0.587,2.287,1.072c1.803,0.959,4.177,2.646,4.717,4.596
			c0.113,0.244,0.107,0.489,0.188,0.779c0.036,0.411,0.073,0.826,0.11,1.245c0.128,0.832,0.048,1.698,0.058,2.565
			c-0.031,0.869-0.165,1.751-0.271,2.632l-0.273,1.318l-0.135,0.659l-0.195,0.652c-0.977,3.483-2.661,6.76-4.316,9.363
			c-2.263,3.583-4.558,6.276-6.429,8.344c-1.886,2.062-3.361,3.521-4.389,4.507c-4.163,3.988-7.521,7.092-10.622,10.223
			c-3.126,3.109-5.993,6.25-9.664,9.865c4.951-1.478,9.024-3.106,13.068-5.265c4.029-2.186,8.062-4.917,12.601-9.177
			c1.119-1.055,2.728-2.624,4.808-4.887c2.064-2.273,4.622-5.244,7.265-9.411c1.925-3.026,3.984-6.951,5.247-11.457l0.245-0.841
			l0.183-0.868l0.354-1.744c0.155-1.185,0.32-2.374,0.364-3.567c0.003-1.197,0.076-2.385-0.081-3.552
			c-0.057-0.584-0.113-1.162-0.169-1.733c-0.134-0.669-0.238-1.409-0.488-2.062c-0.409-1.362-1.105-2.533-1.813-3.569
			c-0.745-0.993-1.535-1.858-2.33-2.539c-1.585-1.393-3.099-2.29-4.356-2.973c-1.264-0.659-2.288-1.097-2.993-1.396
			c-0.706-0.273-1.095-0.424-1.095-0.424c0-0.001-1.854-0.734-4.829-1.55c-2.976-0.822-7.064-1.641-11.526-2.239
			c-8.926-1.218-19.329-1.514-25.486-1.525c-6.952-0.02-10.283,0.114-12.334,0.172C477.97,322.732,471.195,324.61,461.43,327.893z"
			/>
		<path d="M471.097,410.893c-4.312-0.347-6.997-0.342-10.686,1.592c-1.978,1.086-7.979,4.228-13.562,6.789
			c-1.4,0.614-2.769,1.216-4.034,1.771c-1.267,0.532-2.439,0.931-3.43,1.317c-0.996,0.369-1.797,0.691-2.386,0.888
			c-0.6,0.188-0.937,0.293-0.937,0.293s-5.417,1.654-11.374,3.474c-6.034,1.698-12.615,3.551-14.806,4.167
			c-4.049,1.154-5.995,3.079-8.787,6.376c4.04,1.527,6.718,2.199,10.825,1.154c2.23-0.535,8.875-2.429,14.967-4.162
			c6.083-1.886,11.615-3.6,11.615-3.6s0.346-0.106,0.961-0.295c0.617-0.203,1.516-0.553,2.602-0.95
			c1.078-0.413,2.384-0.856,3.741-1.421c1.343-0.584,2.794-1.216,4.28-1.862c5.875-2.676,12.054-5.917,14.055-7.089
			C467.877,417.24,469.333,414.829,471.097,410.893z"/>
		<path d="M195.097,385.56c-10.307,0.536-17.249,1.316-28.678,5.183c-1.934,0.671-5.084,1.726-11.583,4.167
			c-1.051,0.384-2.81,1.067-4.304,1.669c-1.491,0.614-2.723,1.121-2.723,1.121s-1.035,0.425-2.357,0.967
			c-1.32,0.554-2.925,1.258-4.063,1.793c-2.15,0.997-4.093,1.975-5.856,2.987c-0.885,0.517-1.72,1.021-2.529,1.592
			c-0.409,0.293-0.797,0.565-1.197,0.9c-0.198,0.163-0.387,0.311-0.589,0.503l-0.357,0.334c-0.133,0.126-0.262,0.256-0.384,0.394
			c-0.988,1.07-1.704,2.283-1.849,3.534c-0.114,0.585-0.051,1.146-0.047,1.69c0.024,0.377,0.049,0.74,0.071,1.089
			c0.088,1.234,0.166,2.271,0.301,2.997c0.236,1.533,0.455,3.003,0.731,4.36c0.289,1.347,0.587,2.625,0.895,3.85
			c0.622,2.445,1.346,4.646,2.103,6.781c1.566,4.245,3.396,8.164,5.749,12.756c0.072-5.158,0.127-9.457-0.145-13.919
			c-0.107-2.229-0.33-4.505-0.597-6.938c-0.129-1.217-0.286-2.474-0.474-3.79c-0.167-1.297-0.34-2.651-0.523-4.083
			c-0.129-0.735-0.166-1.516-0.231-2.459c-0.019-0.225-0.037-0.468-0.059-0.73l-0.001,0.009l0.004-0.001l0.056-0.05
			c0.069-0.072,0.188-0.159,0.29-0.244c0.198-0.171,0.473-0.36,0.74-0.553c0.551-0.389,1.227-0.797,1.954-1.221
			c1.476-0.845,3.239-1.735,5.247-2.663c1.079-0.481,2.592-1.156,3.835-1.711c1.262-0.538,2.249-0.96,2.249-0.96
			s4.811-1.877,6.84-2.67c6.354-2.396,9.467-3.453,11.363-4.134C180.217,394.183,186.245,390.862,195.097,385.56z"/>
		<path d="M143.096,464.227c-0.143,10.318,0.094,17.246,2.767,28.931c0.225,0.951,0.483,2.052,0.794,3.369
			c0.161,0.683,0.336,1.422,0.526,2.226c0.048,0.201,0.096,0.406,0.146,0.615l0.037,0.158l0.02,0.079l0.082-0.004l0.331-0.014
			c0.446-0.019,0.911-0.038,1.394-0.058c0.964-0.043,2.003-0.089,3.126-0.138c0.816-0.047,1.694-0.096,2.64-0.149
			c1.323-0.086,2.836-0.186,4.574-0.299c2.799-0.247,6.076-0.536,9.67-0.854c3.575-0.416,7.466-0.869,11.507-1.339
			c4.039-0.484,8.198-1.177,12.362-1.767c2.08-0.312,4.156-0.623,6.21-0.931c2.042-0.371,4.062-0.737,6.038-1.097
			c3.952-0.719,7.732-1.405,11.18-2.032c3.441-0.654,6.518-1.403,9.122-1.953c5.2-1.144,8.439-1.856,8.439-1.856
			s0.678-0.147,1.911-0.417c1.232-0.277,3.031-0.624,5.225-1.23c4.401-1.147,10.519-2.743,17.38-4.532
			c13.646-3.657,30.092-8.273,41.881-11.516c8.821-2.452,14.281-3.97,17.132-4.763c11.528-3.325,17.71-6.155,26.843-11.097
			c-10.253,0.085-17.315,0.356-28.858,3.561c-2.859,0.786-8.335,2.291-17.182,4.722c-11.793,3.229-28.352,7.892-41.908,11.541
			c-6.765,1.773-12.795,3.355-17.134,4.493c-2.162,0.602-3.937,0.946-5.15,1.222c-1.216,0.268-1.885,0.414-1.885,0.414
			s-3.195,0.697-8.326,1.816c-2.569,0.538-5.604,1.274-8.999,1.915c-3.398,0.613-7.127,1.286-11.023,1.99
			c-1.949,0.352-3.94,0.712-5.954,1.075c-2.022,0.302-4.068,0.606-6.117,0.911c-4.101,0.577-8.202,1.26-12.174,1.734
			c-3.974,0.463-7.798,0.908-11.313,1.318c-3.519,0.315-6.729,0.603-9.469,0.849c-1.688,0.112-3.156,0.211-4.44,0.297
			c-0.357,0.023-0.689,0.046-0.999,0.066l-0.004,0.003l-0.001,0.009l-0.003,0.003l-0.002,0.001c-0.004-0.015,0.013,0.059-0.03-0.122
			C150.667,479.723,147.805,473.411,143.096,464.227z"/>
		<path d="M222.43,387.56c0.376,10.312,0.96,17.22,4.217,28.755c0.559,1.952,1.466,5.129,3.354,11.73
			c0.354,1.322,1.295,4.425,1.295,4.425s0.734,2.611,1.142,4.06c2.547,8.805,4.124,14.253,4.947,17.1
			c3.373,11.503,6.549,17.663,11.712,26.598c-0.374-10.312-0.959-17.219-4.215-28.755c-0.815-2.849-2.376-8.303-4.896-17.114
			c-0.426-1.442-1.192-4.045-1.192-4.045s-0.852-3.129-1.254-4.437c-1.91-6.595-2.83-9.769-3.395-11.719
			C230.771,402.657,227.594,396.495,222.43,387.56z"/>
		<path d="M192.431,381.559c-10.155-1.849-17.096-2.653-29.087-1.56c-2.031,0.195-5.336,0.501-12.195,1.276
			c-7.642,0.848-20.499,2.506-31.415,4.452c-5.458,0.965-10.432,1.975-14.037,2.802c-3.606,0.816-5.847,1.415-5.847,1.415
			s-1.879,0.456-4.948,1.347c-3.069,0.906-7.331,2.19-12.072,4.344c-2.366,1.107-4.868,2.373-7.342,4.388
			c-1.223,1.016-2.476,2.195-3.496,3.902c-0.502,0.854-0.937,1.813-1.203,2.888c-0.158,0.531-0.183,1.065-0.26,1.678
			c-0.044,0.292-0.021,0.627,0.001,0.953c0.022,0.327,0.051,0.654,0.123,0.966c0.217,1.258,0.789,2.445,1.465,3.351
			c0.676,0.927,1.443,1.63,2.185,2.174c1.498,1.107,2.937,1.74,4.291,2.25c2.716,0.995,5.172,1.457,7.394,1.827
			c4.827,0.744,8.64,0.909,11.656,1.027c3.014,0.103,5.215,0.095,6.726,0.087c6.11-0.06,10.853-0.646,15.295-1.569
			c4.438-0.939,8.584-2.225,13.434-3.995c-5.107-0.708-9.345-1.343-13.788-1.718c-4.44-0.391-9.086-0.517-14.963-0.519
			c-1.451-0.007-3.568-0.011-6.42-0.117c-2.842-0.116-6.461-0.292-10.695-0.951c-1.919-0.314-4.028-0.744-5.896-1.437
			c-0.926-0.338-1.784-0.766-2.328-1.18c-0.286-0.202-0.46-0.394-0.541-0.509c-0.093-0.124-0.097-0.142-0.093-0.171l0.003-0.002
			l0.001-0.021c0.029-0.03-0.011-0.165,0.04-0.256c0.051-0.199,0.154-0.443,0.312-0.723c0.313-0.563,0.972-1.245,1.744-1.875
			c1.552-1.289,3.623-2.399,5.636-3.33c4.077-1.866,8.103-3.11,10.982-3.963c2.896-0.847,4.7-1.291,4.7-1.291
			s2.138-0.565,5.626-1.348c3.483-0.79,8.328-1.765,13.674-2.701c10.689-1.89,23.396-3.519,30.95-4.382
			c6.785-0.775,10.059-1.093,12.068-1.306C175.979,386.559,182.598,384.683,192.431,381.559z"/>
		<path d="M82.432,473.56c-0.087-1.298,0.146-2.466,0.605-3.403c0.437-0.948,1.142-1.671,1.87-2.303
			c1.498-1.248,3.248-2.147,5.117-3.019c3.768-1.706,7.975-3.316,13.397-5.523c1.848-0.734,4.844-1.95,11.251-4.253
			c7.238-2.603,17.1-5.9,27.771-9.529c5.358-1.819,10.824-3.736,16.312-5.462c5.49-1.738,10.995-3.337,16.293-4.644
			c5.295-1.319,10.387-2.341,14.996-2.938c4.602-0.599,8.736-0.738,11.931-0.359c3.201,0.378,5.322,1.283,6.264,2.07
			c0.278,0.175,0.43,0.382,0.615,0.526l0.201,0.231l0.047,0.047l0.005,0.002l0.01-0.007c-0.345,0.263-3.586,2.214-9.024,4.642
			c-5.416,2.458-12.908,5.5-21.321,8.633c-16.821,6.296-37.354,12.893-52.376,16.949c-8.769,2.386-14.229,3.605-17.072,4.237
			c-5.758,1.261-10.2,2.388-14.392,3.489c-2.097,0.542-4.133,1.082-6.243,1.475c-1.054,0.187-2.132,0.347-3.224,0.341
			C84.406,474.725,83.187,474.649,82.432,473.56c0.054,0.642,0.425,1.297,0.924,1.761c0.493,0.479,1.07,0.841,1.649,1.143
			c1.168,0.595,2.363,0.962,3.536,1.26c2.354,0.573,4.647,0.824,6.976,0.919c4.66,0.169,9.486-0.315,15.45-1.558
			c2.945-0.623,8.567-1.864,17.489-4.284c15.294-4.12,36.002-10.786,53.058-17.184c8.533-3.187,16.158-6.288,21.811-8.859
			c5.664-2.539,9.323-4.695,10.17-5.304c1.242-0.825,2.234-1.63,2.916-2.448c0.681-0.815,1.021-1.607,1.183-2.365
			c0.151-1.5-0.163-2.521-0.51-3.234c-0.554-1.423-0.754-1.489-0.719-1.5c0,0-0.073-0.121-0.216-0.357
			c-0.151-0.23-0.336-0.604-0.652-1.034c-0.149-0.195-0.385-0.484-0.535-0.658c-0.161-0.181-0.326-0.396-0.531-0.592
			c-0.414-0.381-0.879-0.87-1.462-1.275c-2.293-1.833-5.948-3.144-10.07-3.621c-8.29-0.946-18.724,0.739-29.73,3.444
			c-5.509,1.355-11.163,2.995-16.776,4.769c-5.622,1.765-11.179,3.712-16.479,5.51c-10.643,3.618-20.534,6.928-27.893,9.587
			c-6.514,2.35-9.638,3.632-11.556,4.416c-5.645,2.368-9.979,4.789-13.64,7.996c-1.802,1.619-3.481,3.48-4.614,5.855
			c-0.541,1.186-0.95,2.511-0.902,3.879C81.33,471.18,81.756,472.469,82.432,473.56z"/>
		<path d="M150.431,495.559c-10.301-0.642-17.296-0.654-29.095,1.974c-1.998,0.469-5.247,1.171-11.984,2.978
			c-2.401,0.655-5.21,1.45-8.297,2.463c-1.544,0.508-3.156,1.07-4.832,1.731c-1.685,0.683-3.403,1.396-5.291,2.527
			c-0.117,0.068-0.235,0.141-0.358,0.224l-0.557,0.383c-0.403,0.257-0.71,0.552-1.063,0.829c-0.352,0.275-0.62,0.616-0.936,0.922
			c-0.26,0.34-0.547,0.671-0.731,1.052c-0.409,0.729-0.741,1.552-0.734,2.41c-0.05,0.419,0.047,0.848,0.063,1.271
			c0.052,0.425,0.205,0.844,0.302,1.268c0.072,0.43,0.324,0.823,0.506,1.231c0.198,0.404,0.369,0.817,0.641,1.204l0.389,0.568
			l0.279,0.389c0.188,0.246,0.381,0.458,0.574,0.688c0.772,0.908,1.58,1.65,2.4,2.355c3.292,2.742,6.812,4.606,10.268,6.125
			c6.928,2.985,13.591,4.319,18.425,4.994c1.21,0.167,2.311,0.273,3.275,0.388c0.968,0.076,1.802,0.142,2.484,0.196
			c1.365,0.091,2.123,0.109,2.124,0.108c0,0,2.539,0.173,6.69,0.041c4.146-0.121,9.91-0.604,16.222-1.917
			c1.583-0.301,3.188-0.694,4.821-1.095c1.63-0.402,3.211-0.902,4.848-1.358c3.251-0.949,6.583-1.815,9.783-3.001
			c3.217-1.118,6.405-2.146,9.346-3.434c1.481-0.606,2.925-1.198,4.316-1.769c1.396-0.559,2.684-1.26,3.939-1.84
			c4.298-1.95,7.596-3.963,10.251-5.439c2.58-1.637,4.446-2.905,5.737-3.75c5.065-3.717,8.578-7.345,11.238-11.264
			c0.634-1.013,1.237-2.016,1.812-3.025c0.51-1.071,1.019-2.123,1.465-3.222c0.826-2.229,1.55-4.611,1.681-7.205
			c-1.322,2.21-2.935,3.856-4.455,5.412c-0.796,0.74-1.577,1.467-2.355,2.191c-0.829,0.68-1.638,1.356-2.43,2.052
			c-3.316,2.677-6.824,5.351-11.455,8.688c-1.19,0.769-2.927,1.89-5.286,3.414c-2.48,1.359-5.522,3.225-9.583,5.059
			c-1.186,0.545-2.384,1.203-3.712,1.731c-1.322,0.541-2.692,1.102-4.099,1.677c-2.78,1.223-5.844,2.206-8.92,3.278
			c-3.053,1.138-6.276,1.974-9.406,2.893c-1.565,0.438-3.129,0.935-4.643,1.309c-1.512,0.372-2.997,0.74-4.458,1.019
			c-5.828,1.221-11.114,1.669-14.907,1.787c-3.797,0.128-6.105-0.025-6.105-0.025s-0.691-0.018-1.932-0.103
			c-0.62-0.05-1.377-0.111-2.256-0.182c-0.873-0.107-1.871-0.204-2.965-0.356c-4.358-0.61-10.379-1.85-16.365-4.444
			c-2.963-1.291-5.958-2.943-8.312-4.919c-0.57-0.491-1.118-1-1.529-1.493c-0.101-0.122-0.221-0.246-0.31-0.364l-0.118-0.173
			l0.001,0.005l0.008,0.017l-0.001,0.019l-0.007,0.007l-0.018,0.013l-0.007,0.006l0.207-0.129c1.155-0.701,2.656-1.358,4.104-1.937
			c1.469-0.58,2.953-1.1,4.392-1.574c2.883-0.948,5.588-1.72,7.905-2.357c6.525-1.76,9.734-2.47,11.685-2.947
			C134.673,502.431,141.033,499.817,150.431,495.559z"/>
		<path d="M283.097,469.56c-2.189,3.186-4.347,5.954-6.429,8.604c-2.075,2.619-4.075,5.143-6.123,7.727
			c-4.104,5.097-8.204,10.471-13.721,16.934c-0.468,0.546-1.009,1.179-1.656,1.935c-0.684,0.717-1.479,1.552-2.421,2.541
			c-0.914,1.022-2.073,2.08-3.414,3.324c-0.683,0.606-1.355,1.337-2.182,1.975c-0.811,0.659-1.676,1.363-2.602,2.117
			c-0.341,0.276-0.696,0.565-1.065,0.865c-0.417,0.319-0.85,0.65-1.295,0.992c-0.896,0.679-1.827,1.421-2.804,2.194
			c-1.946,1.553-4.034,3.275-6.159,5.114c-4.26,3.664-8.671,7.788-12.581,11.753c-3.914,3.961-7.322,7.774-9.709,10.663
			c-2.393,2.879-3.796,4.795-3.796,4.795s-0.295,0.4-0.832,1.129c-0.539,0.726-1.303,1.805-2.225,3.192
			c-0.919,1.391-1.985,3.106-3.076,5.219c-0.539,1.071-1.087,2.235-1.583,3.606l-0.227,0.661l-0.253,0.819
			c-0.154,0.552-0.233,1.107-0.354,1.668c-0.118,0.562-0.242,1.127-0.233,1.69c-0.009,0.562-0.088,1.142-0.04,1.699
			c0.071,0.554,0.143,1.11,0.214,1.671c0.165,0.53,0.331,1.063,0.498,1.601c0.26,0.495,0.513,0.998,0.796,1.487
			c0.338,0.454,0.621,0.959,1.009,1.378c1.545,1.71,3.794,2.604,6.275,2.978c0.63,0.057,1.258,0.141,1.899,0.156
			c0.617,0.006,1.35,0.042,1.853,0.014c0.801-0.025,1.568-0.079,2.315-0.153c1.495-0.146,2.923-0.357,4.306-0.607
			c5.51-1.011,10.459-2.499,14.559-3.831c6.772-2.233,12.066-4.404,16.227-6.197c4.152-1.804,7.153-3.25,9.202-4.266
			c8.279-4.129,14.338-8.291,19.527-12.921c2.584-2.33,4.953-4.776,7.185-7.487c2.231-2.701,4.336-5.675,6.25-9.037
			c-3.27,2.073-6.352,3.688-9.35,5.17c-2.992,1.484-5.902,2.823-8.856,4.217c-5.929,2.756-12.056,5.733-19.905,9.552
			c-1.942,0.938-4.785,2.29-8.711,3.981c-3.927,1.679-8.946,3.725-15.233,5.792c-3.777,1.225-8.391,2.588-12.985,3.431
			c-1.144,0.209-2.276,0.373-3.354,0.48c-0.539,0.055-1.062,0.091-1.549,0.106c-0.142,0.007-0.05,0.004-0.074,0.005l0.006,0.001
			l0.019,0.03l-0.004,0.008l-0.002,0.006l-0.001,0.01l0.046-0.136c0.26-0.733,0.621-1.521,0.998-2.275
			c0.781-1.521,1.634-2.925,2.401-4.089c0.77-1.165,1.425-2.102,1.897-2.742c0.469-0.642,0.727-0.994,0.727-0.994
			s1.241-1.684,3.439-4.312c2.188-2.631,5.372-6.176,9.068-9.898c3.691-3.726,7.882-7.63,11.915-11.095
			c2.012-1.74,3.984-3.368,5.818-4.835c0.923-0.726,1.805-1.418,2.636-2.071c0.418-0.323,0.823-0.636,1.214-0.938
			c0.423-0.344,0.829-0.675,1.22-0.992c1.069-0.874,2.07-1.691,3.007-2.457c0.954-0.749,1.718-1.564,2.497-2.264
			c1.53-1.426,2.845-2.646,3.872-3.792c1.056-1.122,1.947-2.069,2.713-2.883c0.718-0.849,1.318-1.559,1.837-2.172
			c6.086-7.279,9.65-13.812,12.254-20.241c1.261-3.241,2.311-6.453,3.139-9.842C281.971,476.948,282.655,473.41,283.097,469.56z"/>
		<path d="M351.763,430.227c-3.903,6.676-7.222,12.181-10.363,18.029c-1.573,2.92-3.118,5.924-4.755,9.104
			c-0.807,1.604-1.668,3.21-2.548,4.876c-0.449,0.795-0.909,1.608-1.382,2.442c-0.238,0.38-0.48,0.765-0.725,1.154l-0.362,0.593
			l-0.36,0.472c-0.158,0.215-0.328,0.447-0.515,0.7l-0.137,0.189l-0.125,0.124c-0.086,0.085-0.158,0.179-0.258,0.274
			c-0.401,0.376-0.978,0.829-1.858,1.339c-1.761,1.036-4.805,2.163-9.66,3.372c-2.654,0.693-5.656,1.348-9.188,2.531
			c-1.771,0.626-3.69,1.343-5.834,2.715c-1.066,0.694-2.199,1.607-3.25,2.822c-0.521,0.646-1.017,1.319-1.43,2.117
			c-0.222,0.38-0.399,0.789-0.559,1.209c-0.153,0.39-0.351,0.926-0.394,1.115c-0.604,2.099-0.984,3.857-1.414,5.731
			c-0.407,1.828-0.822,3.689-1.242,5.58c-0.835,3.75-1.714,7.575-2.68,11.443c-1.927,7.73-4.185,15.645-7.021,23.188
			c-2.828,7.508-6.261,14.777-10.597,20.258c-0.523,0.708-1.108,1.295-1.648,1.948c-0.659,0.702-1.315,1.4-1.966,2.093
			c-1.314,1.384-2.639,2.741-3.954,4.076c-2.674,2.691-5.257,5.292-7.722,7.772c-4.973,5.038-9.489,9.812-12.948,14.645
			c-1.726,2.416-3.194,4.861-4.224,7.42c-1.036,2.534-1.585,5.225-1.521,7.605c0.005,1.188,0.206,2.271,0.395,3.197
			c0.254,0.909,0.495,1.692,0.749,2.277c0.264,0.581,0.479,1.02,0.626,1.312c0.142,0.299,0.232,0.429,0.232,0.429
			s0.28,0.463,0.855,1.322c0.284,0.439,0.684,0.87,1.146,1.43c0.117,0.136,0.239,0.277,0.365,0.424
			c0.177,0.173,0.359,0.352,0.549,0.536c0.379,0.377,0.824,0.722,1.306,1.074c1.936,1.412,4.622,2.312,7.223,2.494
			c2.634,0.217,5.254-0.115,7.886-0.726c5.254-1.25,10.641-3.649,16.254-6.751c5.605-3.111,11.396-6.978,17.228-11.385
			c11.649-8.823,23.447-19.848,33.637-31.782c2.55-2.979,4.99-6.022,7.305-9.096c0.572-0.773,1.142-1.543,1.708-2.309
			c0.53-0.762,1.058-1.52,1.583-2.272c1.049-1.508,2.088-2.999,3.113-4.472c4.1-5.892,7.989-11.48,11.522-16.559
			c4.018-5.642,6.96-10.384,9.401-14.071c2.409-3.705,4.182-6.431,5.398-8.302c2.444-3.795,4.553-7.226,6.342-10.513
			c1.766-3.3,3.277-6.416,4.642-9.512c1.363-3.096,2.58-6.17,3.756-9.388c1.174-3.22,2.254-6.619,3.422-10.3
			c-2.769,2.717-5.25,5.236-7.636,7.69c-2.389,2.454-4.625,4.874-6.812,7.431c-2.188,2.556-4.326,5.248-6.518,8.246
			c-2.214,2.983-4.545,6.229-7.006,9.968c-1.217,1.849-2.989,4.543-5.397,8.204c-2.429,3.645-5.364,8.359-9.329,13.915
			c-3.49,5.012-7.332,10.527-11.381,16.342c-1.012,1.454-2.037,2.927-3.073,4.415c-0.518,0.744-1.038,1.492-1.562,2.244
			c-0.528,0.716-1.061,1.435-1.594,2.156c-2.159,2.867-4.447,5.724-6.848,8.531c-9.587,11.244-20.847,21.779-31.771,30.061
			c-5.459,4.137-10.838,7.722-15.833,10.498c-4.976,2.777-9.628,4.759-13.229,5.601c-1.786,0.425-3.289,0.551-4.242,0.462
			c-0.985-0.081-1.302-0.298-1.406-0.364l-0.068-0.059l-0.037-0.023l-0.12-0.154c-0.144-0.195-0.329-0.349-0.391-0.477
			c-0.146-0.25-0.244-0.367-0.244-0.367c-0.024,0.003-0.053-0.155-0.2-0.413c-0.064-0.132-0.081-0.296-0.163-0.482
			c-0.015-0.205-0.089-0.424-0.076-0.736c-0.011-0.601,0.113-1.569,0.675-2.955c0.544-1.376,1.538-3.107,2.908-5.011
			c2.732-3.83,6.897-8.301,11.76-13.201c2.469-2.479,5.057-5.08,7.734-7.771c1.35-1.367,2.722-2.771,4.104-4.223
			c0.689-0.732,1.384-1.47,2.082-2.212c0.735-0.863,1.544-1.711,2.221-2.611c5.621-7.159,9.306-15.28,12.416-23.431
			c3.076-8.174,5.436-16.479,7.436-24.486c1-4.004,1.904-7.938,2.747-11.73c0.419-1.882,0.831-3.734,1.235-5.554
			c0.4-1.77,0.815-3.594,1.207-4.944c0.062-0.248,0.055-0.12,0.057-0.148h-0.002l0.044-0.075c0.108-0.102,0.31-0.313,0.68-0.551
			c0.736-0.486,1.943-1.006,3.219-1.442c2.6-0.884,5.532-1.56,8.287-2.274c5.125-1.294,9.354-2.694,12.62-4.609
			c1.634-0.948,3.018-1.998,4.137-3.082c0.278-0.271,0.536-0.561,0.785-0.827c0.123-0.135,0.243-0.268,0.361-0.397
			c0.094-0.122,0.185-0.241,0.274-0.357c0.345-0.467,0.661-0.896,0.955-1.293c0.211-0.296,0.42-0.589,0.628-0.881
			c0.164-0.275,0.327-0.55,0.489-0.822c0.319-0.548,0.634-1.089,0.944-1.622c0.572-1.059,1.037-2.071,1.526-3.075
			c0.881-1.989,1.649-3.888,2.269-5.719c1.276-3.664,2.164-7.078,2.851-10.438C350.838,444.453,351.442,437.965,351.763,430.227z"/>
		<path d="M389.766,137.559c-3.55-3.769-7.366-6.806-11.278-9.444c-3.935-2.613-8.024-4.831-12.479-6.578
			c-4.462-1.709-9.259-3.097-14.629-3.82c-1.337-0.222-2.721-0.28-4.13-0.41c-0.707-0.051-1.421-0.104-2.144-0.156
			c-0.726-0.003-1.459-0.006-2.201-0.009c-1.473,0.02-3.041-0.012-4.544,0.092c-1.514,0.083-3.058,0.221-4.642,0.383
			c-2.139,0.247-4.953,0.581-8.973,1.286c-4.009,0.699-9.257,1.798-16.035,3.555c-1.971,0.509-4.615,1.193-7.475,1.933l-0.22,0.056
			l-0.011,0.003h0.003l0.008,0l0.015,0l0.021,0.008l-0.035,0.048l0.035,0.016l-0.001,0.01l-0.003,0.006l0.023-0.016l0.234-0.191
			c0.925-0.767,1.915-1.528,2.918-2.255c2.002-1.461,4.065-2.785,5.828-3.824c7.215-4.267,13.678-6.73,18.786-8.333
			c5.137-1.584,9.006-2.281,11.647-2.704c2.671-0.453,5.202-0.664,7.7-0.872c2.479-0.3,4.832-0.287,7.119-0.475
			c4.548-0.085,8.793-0.156,12.964,0.083c4.166,0.234,8.292,0.584,12.597,1.288c2.146,0.366,4.355,0.78,6.607,1.371
			c2.261,0.58,4.593,1.266,6.957,2.284c-1.618-2.018-3.443-3.781-5.303-5.393c-1.857-1.63-3.8-3.057-5.784-4.388
			c-3.981-2.635-8.19-4.714-12.718-6.364c-4.533-1.656-9.407-2.692-14.758-3.333c-2.67-0.175-5.475-0.458-8.396-0.327
			c-2.905,0.035-6.04,0.185-9.29,0.695c-3.207,0.478-7.872,1.3-13.961,3.158c-6.073,1.89-13.596,4.737-22.182,9.798
			c-2.107,1.23-4.587,2.817-7.072,4.639c-1.243,0.909-2.489,1.873-3.694,2.882l-0.564,0.47c-0.221,0.181-0.498,0.45-0.742,0.67
			c-0.505,0.462-1.006,0.922-1.502,1.377c-1.037,0.887-1.834,1.877-2.721,2.78c-0.452,0.454-0.819,0.92-1.173,1.38
			c-0.361,0.459-0.717,0.91-1.065,1.353c-0.678,0.887-1.13,1.751-1.667,2.565c-0.447,0.812-0.761,1.573-1.112,2.287
			c-0.254,0.702-0.433,1.345-0.626,1.935c-0.235,1.153-0.372,2.072-0.36,2.691c-0.011,0.312-0.02,0.554-0.024,0.717
			c0.012,0.163,0.019,0.249,0.019,0.249s0.017,0.411,0.092,1.147c0.198,0.72,0.401,1.781,0.976,3.161
			c0.344,0.646,0.756,1.347,1.239,2.046c0.543,0.639,1.107,1.324,1.797,1.837c1.336,1.099,2.93,1.925,5.024,2.424
			c2.086,0.501,4.797,0.481,7.69,0.076c1.438-0.169,2.938-0.512,4.411-0.805c0.741-0.176,1.479-0.351,2.211-0.524
			c0.653-0.16,1.303-0.319,1.945-0.477c2.871-0.753,5.528-1.451,7.508-1.97c6.514-1.697,11.227-2.687,14.852-3.334
			c3.615-0.649,6.1-0.958,7.992-1.197c1.395-0.156,2.752-0.312,4.074-0.435c1.328-0.145,2.535-0.167,3.764-0.277
			c0.609-0.048,1.211-0.096,1.807-0.144c0.598-0.012,1.189-0.023,1.773-0.035c1.171-0.01,2.322-0.119,3.453-0.086
			c4.529-0.035,8.759,0.222,12.961,0.518c4.199,0.334,8.344,0.857,12.692,1.575C380.336,134.988,384.89,135.903,389.766,137.559z"/>
		<path d="M358.431,100.893c0.307-1.709,0.769-3.17,1.19-4.507c0.424-1.333,0.848-2.539,1.237-3.698
			c0.778-2.32,1.332-4.46,2.005-7.048c0.377-1.396,1.211-4.183,3.491-6.995c1.121-1.408,2.537-2.859,4.296-4.139
			c0.82-0.688,1.818-1.248,2.748-1.873c0.992-0.563,1.998-1.125,3.032-1.634c4.184-1.992,8.618-3.377,11.999-4.133
			c0.418-0.106,0.817-0.207,1.196-0.303c0.388-0.077,0.755-0.15,1.099-0.218c0.688-0.137,1.284-0.255,1.774-0.353
			c0.979-0.196,1.53-0.307,1.53-0.307s0.562-0.082,1.56-0.229c1.003-0.129,2.42-0.391,4.185-0.578
			c3.541-0.394,8.299-0.825,13.201-0.765c1.224,0.023,2.461,0.046,3.697,0.069c1.214,0.113,2.427,0.225,3.621,0.336
			c1.209,0.066,2.348,0.294,3.461,0.489c1.105,0.217,2.226,0.316,3.205,0.625c1,0.259,1.955,0.506,2.851,0.738
			c0.87,0.28,1.655,0.587,2.388,0.836c0.365,0.127,0.713,0.248,1.04,0.362c0.31,0.142,0.601,0.274,0.872,0.398
			c0.544,0.245,1.008,0.455,1.378,0.622c0.711,0.275,1.29,0.641,1.913,0.901c0.609,0.276,1.236,0.486,1.78,0.753
			c0.564,0.246,1.139,0.452,1.725,0.637c0.543,0.223,1.105,0.417,1.695,0.595c0.612,0.161,1.139,0.391,1.766,0.569
			c0.631,0.177,1.226,0.396,1.88,0.621c1.303,0.458,2.713,0.974,4.184,1.893c0.211-1.747,0.023-3.456-0.339-5.021
			c-0.187-0.785-0.403-1.576-0.711-2.291c-0.304-0.717-0.604-1.492-1.024-2.143c-1.562-2.794-4.05-5.082-7.648-6.987
			c-0.495-0.236-1.115-0.53-1.841-0.875c-0.364-0.168-0.756-0.349-1.172-0.541c-0.424-0.155-0.873-0.32-1.345-0.494
			c-0.944-0.336-1.979-0.735-3.096-1.095c-1.124-0.297-2.322-0.614-3.577-0.946c-1.255-0.376-2.572-0.516-3.927-0.777
			c-1.355-0.237-2.751-0.5-4.158-0.587c-1.409-0.127-2.838-0.256-4.27-0.385c-1.42-0.026-2.842-0.052-4.247-0.078
			c-5.618-0.054-10.889,0.452-14.706,0.894c-1.921,0.213-3.507,0.506-4.607,0.657c-1.102,0.168-1.723,0.264-1.723,0.264
			s-0.621,0.12-1.725,0.333c-0.552,0.107-1.224,0.238-1.999,0.389c-0.388,0.076-0.801,0.157-1.237,0.243
			c-0.437,0.107-0.896,0.221-1.378,0.339c-3.848,0.858-9.081,2.42-14.406,4.944c-5.301,2.52-10.685,6.381-14.194,10.946
			c-1.806,2.218-3.073,4.581-3.971,6.598c-0.429,1.023-0.809,1.951-1.045,2.791c-0.27,0.83-0.475,1.543-0.588,2.125
			c-0.984,4.281-0.434,7.763,0.815,10.644c0.628,1.448,1.458,2.763,2.479,3.989C355.81,98.715,357,99.877,358.431,100.893z"/>
		<path d="M444.431,81.56c-2.726-2.764-5.645-4.977-8.651-6.863c-3.02-1.874-6.168-3.433-9.61-4.564
			c-3.438-1.113-7.147-1.993-11.286-2.156c-4.119-0.172-8.684,0.119-13.572,1.447c-1.658,0.478-3.845,1.096-6.942,2.503
			c-1.545,0.719-3.322,1.614-5.325,3.003c-0.999,0.715-2.061,1.511-3.151,2.563c-1.091,1.022-2.229,2.302-3.273,4.026
			c-0.608,0.971-1.186,2.238-1.609,3.742c-0.408,1.618-0.531,3.504-0.149,5.378c0.347,1.858,1.368,3.776,2.57,5.201
			c1.193,1.449,2.544,2.448,3.879,3.27c2.684,1.597,5.355,2.433,7.916,3.026c2.596,0.605,4.978,0.816,7.3,1.101
			c4.674,0.394,8.889,0.23,11.89,0.053c1.479-0.127,2.681-0.231,3.512-0.303c0.832-0.071,1.271-0.132,1.271-0.132
			s1.501-0.168,3.96-0.443c2.429-0.284,5.766-0.729,9.416-1.128c1.838-0.224,3.747-0.377,5.701-0.569
			c1.947-0.142,3.926-0.299,5.876-0.39c3.896-0.185,7.677-0.22,10.83-0.163c1.659,0.048,3.239,0.094,4.742,0.138
			c1.506,0.096,2.934,0.188,4.288,0.275c2.707,0.128,5.118,0.461,7.247,0.642c2.148,0.173,3.921,0.489,5.48,0.685
			c0.775,0.106,1.486,0.203,2.135,0.292c0.646,0.102,1.221,0.223,1.741,0.314c8.428,1.494,14.884,2.96,21.079,4.518
			c3.062,0.844,6.12,1.63,9.199,2.742c3.084,1.112,6.318,2.339,9.537,4.461c-1.865-3.423-4.356-6.203-6.914-8.667
			c-2.577-2.488-5.389-4.516-8.405-6.413c-6.085-3.659-13.168-6.427-22.429-8.158c-0.572-0.107-1.209-0.244-1.916-0.36
			c-0.707-0.102-1.483-0.214-2.329-0.336c-1.688-0.224-3.682-0.574-5.921-0.764c-2.256-0.2-4.787-0.55-7.676-0.696
			c-1.441-0.094-2.961-0.193-4.563-0.298c-1.609-0.048-3.302-0.1-5.077-0.153c-3.379-0.071-7.45-0.033-11.64,0.173
			c-2.094,0.1-4.214,0.271-6.292,0.43c-2.065,0.205-4.112,0.379-6.009,0.616c-3.831,0.433-7.146,0.889-9.511,1.176
			c-2.338,0.272-3.765,0.438-3.765,0.438s-0.434,0.059-1.182,0.117c-0.751,0.062-1.835,0.15-3.171,0.26
			c-2.639,0.143-6.221,0.261-10.053-0.071c-1.904-0.248-3.966-0.44-5.717-0.866c-1.779-0.398-3.404-0.998-4.427-1.617
			c-0.495-0.303-0.86-0.599-0.957-0.755l-0.062-0.054l0.007-0.017l-0.009,0l-0.007,0.009l0.008,0.004l-0.002-0.016
			c0.067-0.14,0.115-0.375,0.309-0.658c0.288-0.477,0.733-1.046,1.294-1.554c0.527-0.52,1.151-0.988,1.741-1.419
			c1.218-0.854,2.452-1.487,3.537-1.995c2.195-1.01,3.873-1.504,5.133-1.881c7.591-2.013,13.895-2.293,20.134-2.136
			c3.126,0.068,6.231,0.341,9.495,0.777C437.318,79.798,440.746,80.402,444.431,81.56z"/>
		<path d="M335.14,133.894c-1.774,3.619-2.599,7.455-2.779,11.27c-0.093,1.917,0.062,3.827,0.341,5.749
			c0.353,1.897,0.812,3.826,1.573,5.678c1.455,3.732,3.759,7.339,6.92,10.505c3.16,3.167,7.128,5.911,11.818,8.104
			c3.168,1.447,8.45,3.854,19.599,5.909c0.732,0.177,1.973,0.354,3.029,0.483c1.057,0.133,1.93,0.243,1.93,0.243
			s0.728,0.112,1.656,0.255c0.929,0.096,2.06,0.212,2.865,0.296c0.927,0.089,1.832,0.177,2.715,0.262
			c0.864,0.051,1.708,0.102,2.53,0.15c1.645,0.097,3.205,0.189,4.685,0.276c1.48,0.077,2.872,0.191,4.198,0.223
			c1.327,0.025,2.575,0.049,3.745,0.071c2.343,0.03,4.366,0.111,6.117,0.078c1.754-0.048,3.215-0.087,4.404-0.12
			c9.622-0.343,17.275-1.748,24.193-4.435c0.854-0.364,1.703-0.727,2.554-1.089c0.419-0.188,0.837-0.36,1.251-0.566l1.229-0.666
			c0.802-0.45,1.606-0.902,2.417-1.357c0.787-0.525,1.562-1.067,2.329-1.609c0.776-0.507,1.499-1.189,2.228-1.81
			c0.738-0.598,1.41-1.346,2.072-2.067c1.274-1.484,2.529-3.181,3.006-5.164c-1.329,1.494-3.028,2.282-4.626,2.959
			c-0.828,0.312-1.597,0.629-2.442,0.828c-0.83,0.216-1.586,0.481-2.429,0.61c-0.809,0.16-1.608,0.318-2.402,0.476
			c-0.814,0.106-1.624,0.211-2.43,0.316l-1.189,0.17c-0.401,0.046-0.817,0.065-1.223,0.102c-0.811,0.074-1.621,0.147-2.435,0.221
			c-6.542,0.499-13.474,0.732-22.457,0.964c-1.112,0.022-2.479,0.05-4.117,0.083c-1.641,0.023-3.573-0.065-5.789-0.099
			c-1.108-0.023-2.291-0.048-3.549-0.075c-1.259-0.032-2.601-0.146-4.017-0.222c-1.417-0.085-2.912-0.175-4.488-0.27
			c-0.787-0.047-1.596-0.096-2.424-0.145c-0.806-0.079-1.63-0.16-2.476-0.243c-0.733-0.082-1.765-0.172-2.613-0.242
			c-0.839-0.1-1.496-0.179-1.496-0.179s-0.779-0.125-1.724-0.277c-0.948-0.14-2.056-0.312-2.701-0.435
			c-9.864-1.815-14.083-3.783-16.633-4.905c-7.515-3.461-12.306-7.227-16.022-11.865c-0.959-1.151-1.754-2.409-2.569-3.714
			c-0.741-1.332-1.485-2.728-2.081-4.248C336.24,141.34,335.27,137.89,335.14,133.894z"/>
		<path d="M435.098,158.893c-5.09-0.772-9.256-1.662-13.438-2.589c-2.075-0.478-4.178-0.992-6.16-1.706
			c-1.005-0.335-1.926-0.779-2.667-1.234c-0.155-0.122-0.379-0.224-0.495-0.344c-0.109-0.12-0.268-0.224-0.364-0.326
			c-0.05-0.105-0.157-0.188-0.21-0.267l-0.091-0.195c0.029-0.083-0.08-0.101-0.035-0.251c0.01-0.067-0.027-0.11-0.021-0.204
			c0.029-0.108,0.05-0.219,0.059-0.338c-0.017-0.103,0.062-0.277,0.119-0.445c0.065-0.172,0.09-0.338,0.175-0.538
			c0.104-0.209,0.21-0.425,0.319-0.646l0.157-0.341l0.236-0.367c0.313-0.495,0.619-1.021,1.075-1.571
			c0.209-0.276,0.423-0.557,0.641-0.844c0.248-0.283,0.502-0.57,0.759-0.863c0.225-0.255,0.452-0.513,0.681-0.773
			c0.414-0.444,0.862-0.853,1.295-1.289l0.661-0.646l0.725-0.611c0.492-0.403,0.956-0.836,1.477-1.228
			c2.065-1.585,4.346-3.083,6.803-4.469c9.89-5.519,22.126-9.46,34.921-12.334c12.823-2.885,26.345-4.657,39.602-5.461
			c6.631-0.404,13.201-0.519,19.589-0.358c3.196,0.064,6.339,0.252,9.425,0.47c1.556,0.131,3.023,0.288,4.613,0.402
			c1.578,0.118,3.143,0.235,4.691,0.352c3.1,0.215,6.132,0.496,9.102,0.64c2.976,0.057,5.878,0.112,8.697,0.166
			c2.818,0.113,5.559-0.022,8.203-0.11c1.322-0.044,2.621-0.088,3.896-0.131c0.637-0.021,1.268-0.043,1.892-0.064
			c0.625-0.051,1.242-0.101,1.853-0.151c2.444-0.204,4.783-0.398,7.006-0.583c2.222-0.251,4.325-0.551,6.303-0.801
			c0.989-0.116,1.946-0.261,2.87-0.436c0.925-0.162,1.815-0.317,2.673-0.466c0.503-0.089,0.985-0.175,1.446-0.257l0.165-0.036
			l0.002-0.003v-0.001c0,0.042,0.003-0.14-0.02,0.275c-0.117,1.097-0.336,1.634-0.338,1.738c-0.205,0.521-0.343,0.917-0.517,1.174
			c-0.14,0.276-0.235,0.461-0.334,0.563c-0.167,0.225-0.171,0.23-0.171,0.23l-0.087,0.121c-0.06,0.09-0.152,0.241-0.364,0.428
			c-0.21,0.188-0.414,0.498-0.866,0.797c-0.39,0.357-0.979,0.679-1.79,1.144c-2.16,1.036-5.169,2.48-9.335,4.479
			c-3.212,1.542-6.87,3.298-11.034,5.296l-0.121,0.058l-0.063,0.031l0.025,0.058l0.168,0.251l0.338,0.508
			c0.229,0.344,0.459,0.69,0.691,1.039c0.461,0.697,0.949,1.411,1.377,2.114c0.221,0.354,0.444,0.71,0.669,1.069
			c0.169,0.321,0.341,0.646,0.513,0.971c0.168,0.319,0.336,0.64,0.506,0.963l0.241,0.518c0.645,1.392,1.256,2.904,1.765,4.535
			c0.312,1.061,0.767,2.572,1.062,4.502c0.309,1.925,0.512,4.269,0.271,6.899c-0.236,2.626-0.936,5.534-2.374,8.47
			c-1.427,2.936-3.609,5.884-6.516,8.59c-2.898,2.713-6.491,5.176-10.535,7.352c-1.031,0.516-2.02,1.119-3.114,1.584
			c-1.079,0.489-2.168,0.983-3.268,1.482c-2.27,0.875-4.539,1.85-6.961,2.602c-1.208,0.387-2.385,0.836-3.641,1.181
			c-1.254,0.35-2.515,0.702-3.783,1.057c-2.543,0.687-5.086,1.476-7.701,2.101c-5.251,1.169-10.559,2.482-16.002,3.35
			c-5.4,1.069-10.909,1.717-16.36,2.495c-5.484,0.556-10.927,1.213-16.315,1.518c-5.375,0.442-10.681,0.593-15.827,0.802
			c-2.616,0.042-5.155,0.082-7.586,0.121c-6.22,0.024-11.333-0.044-14.083-0.137c-1.483-0.038-2.888-0.044-4.228-0.045
			c-1.34-0.018-2.616-0.013-3.847,0.014c-2.464,0.07-4.737,0.167-6.962,0.344c-4.451,0.349-8.685,0.967-13.8,1.604
			c4.826,1.837,8.976,3.141,13.402,4.105c2.215,0.48,4.503,0.889,6.995,1.168c1.246,0.148,2.542,0.278,3.904,0.393
			c1.363,0.097,2.794,0.16,4.306,0.214c2.805,0.122,8.021,0.208,14.366,0.191c2.481-0.038,5.072-0.078,7.742-0.119
			c5.257-0.211,10.673-0.366,16.172-0.817c5.506-0.312,11.085-0.983,16.702-1.555c5.598-0.796,11.243-1.465,16.807-2.564
			c5.592-0.896,11.08-2.248,16.498-3.46c2.701-0.648,5.343-1.464,7.976-2.177c1.313-0.368,2.62-0.734,3.919-1.098
			c1.298-0.358,2.587-0.843,3.867-1.255c2.572-0.803,5.048-1.856,7.497-2.81c1.205-0.546,2.4-1.088,3.583-1.625
			c1.191-0.513,2.316-1.184,3.458-1.761c4.517-2.435,8.673-5.26,12.177-8.541c3.506-3.267,6.32-7.013,8.191-10.874
			c1.89-3.855,2.824-7.757,3.128-11.198c0.31-3.452,0.04-6.447-0.349-8.862c-0.381-2.426-0.936-4.274-1.322-5.573
			c-0.623-1.994-1.359-3.818-2.143-5.508c-0.124-0.262-0.246-0.52-0.367-0.775l-0.061-0.121v0v0.001l-0.013,0.006
			c1.21-0.581,2.342-1.124,3.399-1.632c4.232-2.032,7.288-3.499,9.481-4.553c1.299-0.707,2.393-1.357,3.175-2.031
			c0.824-0.595,1.342-1.219,1.752-1.627c0.414-0.409,0.637-0.725,0.775-0.916c0.14-0.19,0.192-0.262,0.192-0.262
			s0.009-0.012,0.365-0.506c0.19-0.239,0.421-0.628,0.735-1.226c0.348-0.584,0.689-1.404,1.081-2.511
			c0.023-0.184,0.464-1.344,0.671-3.365c0.021-0.362,0.129-1.417,0.042-2.301c-0.027-0.464-0.036-0.956-0.081-1.452
			c-0.074-0.484-0.152-0.986-0.232-1.507c-0.206-1.013-0.501-2.031-0.844-3.079c-0.166-0.534-0.338-1.083-0.515-1.649l-0.125-0.4
			l-0.016-0.051l-0.062,0.015l-0.125,0.031l-0.252,0.063c-0.336,0.084-0.677,0.169-1.022,0.256c-1.337,0.312-2.743,0.64-4.215,0.984
			c-0.704,0.162-1.424,0.328-2.159,0.498c-0.387,0.067-0.782,0.136-1.185,0.206c-0.807,0.14-1.645,0.286-2.514,0.437
			c-0.865,0.165-1.771,0.302-2.717,0.411c-1.886,0.235-3.886,0.521-6.007,0.76c-2.133,0.176-4.377,0.361-6.722,0.555
			c-0.586,0.047-1.178,0.096-1.776,0.145c-0.602,0.02-1.21,0.04-1.823,0.06c-1.228,0.041-2.479,0.082-3.753,0.124
			c-2.548,0.083-5.186,0.216-7.911,0.103c-2.725-0.053-5.529-0.107-8.403-0.163c-2.872-0.141-5.811-0.418-8.811-0.626
			c-1.5-0.112-3.015-0.226-4.542-0.34c-1.519-0.108-3.176-0.285-4.777-0.419c-3.233-0.23-6.518-0.426-9.835-0.495
			c-6.637-0.168-13.42-0.051-20.253,0.363c-13.665,0.827-27.555,2.641-40.859,5.63c-13.286,3-26.074,7.045-37.062,13.16
			c-2.736,1.545-5.342,3.249-7.776,5.123c-0.61,0.462-1.186,0.986-1.773,1.473l-0.87,0.741c-0.281,0.258-0.552,0.535-0.826,0.801
			c-0.541,0.54-1.1,1.062-1.609,1.609c-0.28,0.317-0.558,0.631-0.832,0.943c-0.314,0.36-0.623,0.715-0.926,1.063
			c-0.29,0.38-0.574,0.754-0.854,1.121c-0.568,0.702-1.063,1.504-1.53,2.265c-0.117,0.189-0.232,0.376-0.346,0.562
			c-0.104,0.21-0.205,0.417-0.305,0.622c-0.195,0.412-0.385,0.813-0.569,1.203c-0.171,0.413-0.301,0.877-0.436,1.296
			c-0.131,0.427-0.265,0.823-0.315,1.308c-0.067,0.46-0.121,0.906-0.163,1.333c-0.022,0.443,0.028,0.917,0.059,1.344
			c0.024,0.855,0.339,1.665,0.562,2.354c0.238,0.638,0.614,1.194,0.953,1.754c0.367,0.513,0.784,0.935,1.191,1.371
			c0.414,0.389,0.837,0.688,1.259,1.012c0.422,0.316,0.828,0.504,1.241,0.746c1.63,0.839,3.146,1.302,4.542,1.571
			c2.812,0.567,5.277,0.585,7.635,0.433C425.948,161.659,430.22,160.601,435.098,158.893z"/>
		<path d="M515.765,144.894c-1.514,0.711-2.701,1.498-3.647,2.503c-0.942,1.01-1.66,2.261-2.063,4.056
			c-0.194,0.972-0.632,2.955-0.363,5.657c0.144,1.34,0.51,2.876,1.283,4.354c0.759,1.479,1.944,2.825,3.255,3.769
			c1.308,0.958,2.693,1.557,3.935,1.984c1.134,0.314,2.187,0.665,3.065,0.842c0.881,0.189,1.605,0.344,2.109,0.452
			c0.502,0.083,0.784,0.13,0.784,0.13s0.282,0.047,0.782,0.129c0.5,0.075,1.224,0.221,2.092,0.312
			c1.742,0.225,4.097,0.471,6.547,0.593c4.907,0.297,10.211,0.179,11.975,0.094c3.254-0.156,5.072-1.342,7.58-3.542
			c-2.82-1.774-4.629-2.752-7.771-2.695c-1.697,0.031-6.813,0.142-11.438-0.127c-2.317-0.109-4.498-0.33-6.091-0.527
			c-0.806-0.079-1.44-0.208-1.893-0.272c-0.45-0.071-0.703-0.111-0.703-0.111s-0.253-0.043-0.7-0.12
			c-0.437-0.096-1.063-0.234-1.826-0.402c-0.77-0.157-1.596-0.452-2.54-0.706c-0.791-0.281-1.561-0.632-2.181-1.089
			c-1.24-0.892-1.848-2.202-2.016-3.75c-0.17-1.522,0.096-3.003,0.228-3.716c0.257-1.337,0.333-2.475,0.23-3.685
			C516.3,147.812,516.014,146.538,515.765,144.894z"/>
		<path d="M513.765,75.561c4.604,1.232,7.485,1.872,12.08,1.021c1.239-0.214,3.738-0.677,6.703-0.933
			c1.477-0.123,3.071-0.189,4.595-0.104c1.486,0.086,2.985,0.381,3.713,0.782l0.244,0.132l0.153,0.115
			c0.079,0.115,0.018-0.033,0.364,0.422c0.519,0.647,0.984,1.276,1.428,1.879c0.858,1.196,1.517,2.301,1.83,3.047
			c0.14,0.304,0.111,0.29,0.12,0.289l0.003-0.001l0.003,0l-0.002-0.002l-0.044,0.014l-0.031,0.012l-0.263,0.065
			c-0.198,0.045-0.331,0.105-0.618,0.155c-2.15,0.436-5.561,0.834-8.98,1.007c-3.448,0.183-7.042,0.101-9.905-0.283
			c-2.899-0.35-4.907-1.082-5.734-1.471c-0.761-0.371-1.4-0.644-1.845-0.892c-0.472-0.247-0.922-0.413-1.363-0.759
			C515.277,79.427,514.254,77.908,513.765,75.561c-0.433,0.387-0.861,0.793-1.261,1.227c-0.343,0.457-0.705,0.93-0.981,1.454
			c-0.511,1.057-0.878,2.318-0.714,3.694c0.096,1.383,0.716,2.802,1.649,3.984c0.938,1.23,2.189,2.102,3.593,2.82
			c1.528,0.78,4.568,1.804,8.07,2.224c3.518,0.474,7.543,0.542,11.344,0.336c1.901-0.1,3.749-0.261,5.461-0.462
			c1.721-0.203,3.265-0.429,4.727-0.733c0.344-0.062,0.793-0.197,1.156-0.292c0.19-0.054,0.375-0.106,0.555-0.157
			c0.243-0.095,0.479-0.188,0.709-0.277c0.91-0.347,1.655-0.851,2.238-1.268c0.533-0.47,0.939-0.859,1.165-1.158
			c0.22-0.307,0.336-0.469,0.336-0.469s0.122-0.16,0.314-0.482c0.139-0.346,0.439-0.831,0.581-1.526
			c0.184-0.685,0.271-1.558,0.178-2.564c-0.068-0.487-0.139-1.081-0.295-1.562c-0.078-0.25-0.159-0.508-0.242-0.771l-0.139-0.396
			l-0.129-0.298c-0.685-1.612-1.616-3.086-2.657-4.562c-0.525-0.721-1.075-1.464-1.648-2.186c-0.172-0.251-0.856-1.037-1.427-1.532
			c-0.301-0.238-0.609-0.471-0.923-0.695c-0.312-0.207-0.618-0.364-0.935-0.54c-1.245-0.638-2.469-1.019-3.6-1.241
			c-1.152-0.251-2.228-0.348-3.281-0.428c-2.083-0.116-4-0.024-5.729,0.121c-3.449,0.307-6.146,0.832-7.496,1.098
			C519.429,69.962,516.958,72.014,513.765,75.561z"/>
		<path d="M529.098,72.227c4.772-1.946,8.779-3.403,12.852-5.087c4.077-1.636,8.231-3.6,13.443-5.625
			c0.881-0.345,2.044-0.761,3.712-1.244c0.83-0.225,1.795-0.481,2.87-0.642c1.074-0.167,2.278-0.293,3.451-0.158
			c0.596,0.085,1.416,0.186,2.144,0.4c0.741,0.2,1.395,0.489,1.778,0.758c0.393,0.271,0.559,0.489,0.674,0.692
			c0.111,0.201,0.167,0.376,0.167,0.376s0.047,0.132,0.102,0.42c0.058,0.282,0.091,0.774,0.05,1.43
			c-0.064,1.308-0.576,3.28-1.027,4.746c-0.342,1.077-0.668,2.102-0.978,3.078c-0.329,1.03-0.626,2.078-0.873,2.979
			c-0.499,1.832-0.905,3.316-1.331,4.435c-0.42,1.11-0.832,1.875-1.168,2.252c-0.349,0.369-0.553,0.571-0.809,0.659
			c-0.463,0.221-1.195,0.39-2.161,0.34c-0.456-0.004-1.008-0.103-1.464-0.13c-0.281-0.05-0.524-0.078-0.68-0.141
			c-0.314-0.099-0.626-0.234-0.964-0.804c-0.332-0.54-0.603-1.354-0.776-2.25c-0.35-1.812-0.41-3.902-0.347-6.083
			c0.077-2.192,0.265-4.524,0.669-7.067c-1.555,2.065-2.821,4.118-3.869,6.246c-1.027,2.141-1.866,4.351-2.177,6.993
			c-0.136,1.324-0.146,2.782,0.309,4.429c0.223,0.818,0.607,1.686,1.161,2.52c0.582,0.817,1.328,1.63,2.233,2.194
			c0.892,0.609,1.863,0.98,2.83,1.251c0.818,0.171,1.563,0.361,2.454,0.453c1.716,0.198,3.914,0.128,6.169-0.923
			c1.115-0.479,2.374-1.439,3.453-2.708c1.088-1.289,1.839-2.832,2.464-4.455c0.618-1.625,1.078-3.353,1.566-5.121
			c0.248-0.899,0.49-1.747,0.793-2.694c0.319-1.003,0.655-2.057,1.008-3.164c0.505-1.643,1.203-4.113,1.336-6.568
			c0.07-1.218-0.007-2.408-0.188-3.307c-0.173-0.896-0.379-1.457-0.379-1.457s-0.181-0.678-0.74-1.719
			c-0.544-1.04-1.626-2.375-2.991-3.312c-1.357-0.96-2.873-1.556-4.203-1.923c-1.343-0.381-2.509-0.516-3.38-0.623
			c-2.25-0.238-4.048-0.011-5.547,0.218c-1.511,0.235-2.715,0.561-3.753,0.846c-2.054,0.601-3.4,1.101-4.406,1.503
			c-2.984,1.174-5.459,2.482-7.661,3.819c-2.199,1.34-4.118,2.721-5.901,4.167C535.459,65.13,532.41,68.263,529.098,72.227z"/>
		<path d="M573.765,60.227c2.665,2.039,4.055,3.264,6.391,3.316c0.623,0.031,1.894,0.065,3.28,0.345
			c1.394,0.26,2.863,0.786,3.839,1.511c0.842,0.566,1.945,2.003,2.318,2.723c0.422,0.785,0.39,0.996,0.415,1.004l0.006,0.154
			c-0.041-0.007,0.079-0.039-0.179,0.15c-0.259,0.164-0.736,0.404-1.382,0.58c-0.651,0.153-1.457,0.309-2.198,0.33
			c-0.734,0.062-1.499,0.007-2.203-0.057c-1.418-0.145-2.629-0.479-3.229-0.628c-1.112-0.29-2.086-0.289-3.178-0.038
			c-1.093,0.242-2.291,0.75-3.881,1.276c0.368,1.647,0.893,2.955,1.64,3.99c0.755,1.031,1.758,1.8,3.24,2.262
			c0.805,0.24,2.426,0.716,4.562,0.948c1.069,0.105,2.255,0.184,3.518,0.091c1.262-0.058,2.492-0.273,3.794-0.601
			c1.296-0.362,2.641-0.917,3.883-1.786c1.249-0.853,2.368-2.298,2.874-3.6c0.251-0.667,0.43-1.289,0.478-1.861
			c0.036-0.284,0.062-0.55,0.08-0.794c0.002-0.232-0.013-0.437-0.022-0.625c-0.021-0.376-0.05-0.669-0.07-0.867
			c-0.021-0.197-0.053-0.274-0.05-0.279c0,0-0.074-0.373-0.242-1.028c-0.074-0.349-0.224-0.657-0.377-1.068
			c-0.082-0.199-0.169-0.411-0.261-0.634c-0.104-0.196-0.215-0.402-0.33-0.618c-0.23-0.438-0.492-0.901-0.796-1.318
			c-0.297-0.44-0.616-0.906-0.971-1.315c-0.354-0.429-0.678-0.862-1.219-1.36c-0.499-0.479-1.004-0.992-1.588-1.366
			c-2.28-1.676-4.903-2.497-7.002-2.891c-2.122-0.408-3.796-0.422-4.631-0.428C577.212,55.801,575.531,57.363,573.765,60.227z"/>
		<path d="M591.098,63.561c2.292,2.278,3.639,3.547,5.938,3.582c0.619,0.014,1.864,0.026,3.313,0.138
			c1.421,0.116,3.127,0.36,4.214,0.777l0.363,0.148l0.273,0.138l0.026,0.013l-0.001-0.003l0.002-0.013l-0.003,0.014l0.019,0.237
			c0.002,0.148-0.024,0.277-0.026,0.383c-0.016,0.211-0.018,0.332-0.018,0.332s-0.028,0.115-0.077,0.318
			c-0.02,0.215-0.13,0.484-0.245,0.815c-0.274,0.642-0.764,1.354-1.523,1.818c-0.742,0.483-1.896,0.717-3.056,0.658
			c-1.137-0.017-2.191-0.242-2.719-0.376c-0.243-0.052-0.479-0.08-0.712-0.085c-0.235-0.024-0.469-0.044-0.702-0.033
			c-0.469,0.018-0.939,0.12-1.444,0.292c-1.008,0.291-2.126,0.818-3.622,1.514c0.389,1.535,0.832,2.816,1.517,3.809
			c0.359,0.477,0.777,0.892,1.272,1.25c0.25,0.177,0.512,0.348,0.809,0.489c0.308,0.127,0.64,0.239,0.996,0.334
			c0.757,0.218,2.333,0.61,4.461,0.661c0.541-0.008,1.086,0.027,1.683-0.037c0.601-0.076,1.219-0.164,1.842-0.267
			c0.636-0.177,1.279-0.373,1.916-0.583c0.628-0.289,1.26-0.587,1.857-0.929c0.569-0.404,1.156-0.781,1.65-1.24
			c0.472-0.481,0.981-0.921,1.339-1.435c0.785-0.991,1.306-2.007,1.676-2.884c0.337-0.887,0.561-1.63,0.644-2.156
			c0.103-0.524,0.16-0.819,0.16-0.819s0.033-0.296,0.078-0.825c0.017-0.265,0.056-0.587,0.057-0.959
			c-0.007-0.187-0.014-0.385-0.021-0.596c-0.01-0.249-0.033-0.595-0.065-0.909c-0.018-0.33-0.137-0.646-0.199-0.99
			c-0.059-0.346-0.187-0.684-0.337-1.026c-0.286-0.688-0.742-1.349-1.296-1.962c-0.274-0.308-0.604-0.581-0.93-0.861
			c-0.352-0.274-0.775-0.55-1.059-0.724c-0.301-0.163-0.616-0.335-0.923-0.48c-0.297-0.128-0.605-0.265-0.903-0.378
			c-2.377-0.873-4.535-1.093-6.356-1.258c-1.806-0.132-3.242-0.125-3.96-0.107C594.365,59.429,592.911,60.878,591.098,63.561z"/>
		<path d="M609.098,67.561c1.224,2.867,1.932,4.48,3.85,5.218c0.511,0.206,1.557,0.597,2.696,1.146
			c1.115,0.52,2.421,1.321,2.871,1.843l-0.014-0.031l0.007-0.007l0.006-0.019c-0.032,0.119-0.063,0.233-0.094,0.343
			c-0.268,0.853-0.479,1.247-0.479,1.247c0,0-0.052,0.1-0.143,0.279c-0.096,0.148-0.23,0.359-0.368,0.526
			c-0.144,0.147-0.258,0.232-0.344,0.27c-0.089,0.037-0.214,0.084-0.557,0.08c-0.167-0.004-0.379-0.031-0.615-0.073
			c-0.213-0.068-0.404-0.157-0.61-0.209l-0.155-0.042l-0.225-0.107c-0.149-0.07-0.297-0.14-0.442-0.208
			c-0.298-0.147-0.563-0.239-0.863-0.414c-1.163-0.617-2.143-1.202-2.64-1.493c-1.826-1.076-3.573-0.624-6.548,0.316
			c0.089,3.122,0.461,5.002,2.446,6.319c0.539,0.354,1.643,1.039,3.105,1.821c0.344,0.201,0.806,0.392,1.227,0.595
			c0.218,0.1,0.438,0.201,0.66,0.304l0.336,0.153l0.438,0.148c0.591,0.19,1.198,0.391,1.805,0.532
			c0.598,0.109,1.229,0.188,1.901,0.204c1.334,0.04,2.861-0.237,4.136-0.868c1.284-0.621,2.224-1.487,2.863-2.221
			c0.621-0.743,0.991-1.365,1.246-1.797c0.218-0.424,0.34-0.664,0.34-0.664s0.504-0.962,0.949-2.369
			c0.051-0.175,0.104-0.357,0.158-0.547c0.089-0.312,0.172-0.642,0.244-0.981c0.041-0.338,0.083-0.686,0.126-1.043
			c0.018-0.356-0.002-0.727-0.034-1.098c-0.192-1.498-0.926-2.996-2.092-4.268c-1.858-1.945-3.71-2.835-5.253-3.611
			c-1.546-0.734-2.798-1.177-3.43-1.394C613.276,64.687,611.524,65.592,609.098,67.561z"/>
		<path d="M609.098,80.226c-1.913,0.391-3.44,0.573-4.791,0.981c-1.35,0.402-2.543,0.975-3.847,1.942
			c-0.698,0.537-2.14,1.553-3.979,2.554c-0.455,0.265-0.945,0.493-1.45,0.726c-0.499,0.256-1.03,0.447-1.563,0.658
			c-1.069,0.413-2.146,0.718-3.445,1.006c-1.234,0.298-2.442,0.587-3.597,0.77c-1.143,0.207-2.188,0.412-3.098,0.519
			c-0.904,0.126-1.647,0.229-2.165,0.301c-0.521,0.057-0.814,0.089-0.814,0.089s-0.685,0.067-2.102,0.207
			c-1.745,0.093-2.241,0.309-9.594,0.366c-0.594,2.512-1.567,6.628-2.488,10.527c-0.649,2.809-1.262,5.462-1.535,6.646
			c-0.772,3.544,0.069,5.856,1.8,9.376c3.12-2.379,4.904-4.073,5.794-7.589c0.283-1.182,0.918-3.83,1.591-6.633
			c0.329-1.403,0.668-2.846,0.977-4.163c0.037-0.16,0.074-0.318,0.11-0.474l-0.001,0.002l-0.004,0.004l-0.006,0.004l-0.01-0.003
			l-0.001,0l-0.001,0l0.223-0.011c0.32-0.017,0.628-0.033,0.922-0.049c1.172-0.089,2.138-0.163,2.904-0.222
			c1.532-0.158,2.271-0.234,2.271-0.234c0,0,5.084-0.473,10.67-1.803c1.343-0.291,2.938-0.729,4.377-1.285
			c0.719-0.279,1.432-0.548,2.084-0.875c0.665-0.308,1.308-0.613,1.891-0.95c2.369-1.296,4.138-2.581,4.976-3.264
			c1.568-1.246,2.517-2.55,3.094-4.029C608.859,83.842,609.111,82.198,609.098,80.226z"/>
		<path d="M534.43,88.227c-2.672,0.821-4.149,1.437-4.471,2.923c-0.347,1.609-1.703,9.738-1.703,9.738s-1.484,8.106-1.704,9.738
			c-0.203,1.507,0.978,2.588,3.212,4.268c2.674-0.821,4.15-1.437,4.473-2.923c0.348-1.609,1.703-9.738,1.703-9.738
			s1.485-8.106,1.704-9.738C537.846,90.987,536.666,89.906,534.43,88.227z"/>
		<path d="M487.764,204.894c-3.365,1.197-5.344,2.162-6.75,4.885c-0.613,1.186-2.157,4.312-3.662,7.377
			c-0.751,1.533-1.494,3.05-2.106,4.302l-0.112,0.23l0.001-0.001l0.002,0l0.004,0l0.005,0.003l0.004,0.003v0.001
			c-0.162-0.019-0.3-0.035-0.416-0.048c-0.564-0.065-0.723-0.083-0.723-0.083s-16.503-2.018-19.808-2.343
			c-3.051-0.301-4.936,0.834-7.771,3.008c2.25,2.775,3.818,4.318,6.855,4.739c3.289,0.455,19.808,2.343,19.808,2.343
			s1.08,0.129,6.621,0.79c0.629-1.271,2.636-5.328,4.687-9.472c1.511-3.062,3.045-6.192,3.611-7.402
			C489.312,210.447,488.869,208.291,487.764,204.894z"/>
		<path d="M442.431,271.227c5.075,0.941,9.368,1.552,13.895,1.777c4.528,0.21,9.293,0.057,15.342-0.84
			c1.027-0.172,2.368-0.339,4.332-0.713c0.981-0.183,2.111-0.367,3.441-0.666c0.664-0.142,1.376-0.294,2.139-0.457
			c0.77-0.195,1.591-0.403,2.47-0.626c0.865-0.192,1.916-0.561,3.048-0.902l0.431-0.135l0.224-0.073l0.288-0.124
			c0.383-0.175,0.773-0.353,1.169-0.534c0.423-0.185,0.731-0.39,1.049-0.598c0.321-0.209,0.646-0.421,0.974-0.636
			c2.438-1.748,4.398-3.773,6.183-5.659c1.741-1.895,3.225-3.662,4.271-4.959c1.05-1.294,1.685-2.109,1.685-2.109
			c0,0,2.158-2.707,4.739-6.245c2.594-3.531,5.613-7.896,7.716-11.037c5.132-7.686,8.146-12.526,9.721-15.055
			c6.331-10.254,8.686-16.83,11.554-26.743c-7.177,7.411-11.795,12.513-18.16,22.596c-1.581,2.485-4.581,7.268-9.634,14.823
			c-2.076,3.08-5.023,7.363-7.527,10.798c-2.494,3.446-4.536,6.036-4.536,6.036c0,0-0.61,0.774-1.608,1.991
			c-0.993,1.222-2.391,2.867-3.963,4.566c-1.568,1.663-3.363,3.439-4.958,4.567c-0.189,0.124-0.378,0.246-0.564,0.367
			c-0.186,0.128-0.373,0.259-0.501,0.292c-0.142,0.06-0.276,0.125-0.407,0.197l-0.098,0.055l-0.177,0.057l-0.361,0.112
			c-0.963,0.286-1.794,0.596-2.593,0.778c-0.785,0.201-1.52,0.388-2.206,0.564c-0.706,0.152-1.364,0.293-1.979,0.425
			c-1.22,0.278-2.301,0.457-3.225,0.633c-1.843,0.36-3.149,0.531-4.124,0.705c-5.799,0.92-10.378,1.764-14.705,2.853
			C451.439,268.382,447.352,269.682,442.431,271.227z"/>
		<path d="M425.098,267.227c1.847,2.344,3.427,4.187,5.221,5.61c0.896,0.712,1.847,1.319,2.911,1.833
			c0.266,0.128,0.539,0.25,0.82,0.367l0.428,0.171c0.279,0.084,0.562,0.17,0.849,0.256c1.2,0.35,2.486,0.689,3.846,1.015
			c1.434,0.335,3.563,0.834,8.609,2.015c0.766-10.331,2.86-38.585,2.86-38.585s0.689-9.033,1.734-22.714
			c-4.536-0.663-10.476-1.532-15.874-2.322c-3.556-0.5-6.754-0.951-8.316-1.17c-5.525-0.715-8.943,0.831-14.088,3.857
			c4.065,4.37,6.9,6.827,12.399,7.721c1.56,0.235,4.754,0.718,8.304,1.253c1.649,0.241,3.381,0.494,5.047,0.737l-0.029-0.012
			c-0.509,7.093-0.846,11.776-0.846,11.776s-0.449,5.812-0.981,12.687c-0.261,3.438-0.542,7.141-0.799,10.516
			c-0.031,0.422-0.062,0.839-0.093,1.25l-0.038,0.501l0.001-0.004l0.004-0.015l0.014-0.011l0.025,0.034l-0.02,0.123l-0.06,0.047
			l-0.46-0.034c-0.304-0.019-0.603-0.028-0.898-0.029c-1.181-0.005-2.301,0.125-3.42,0.372
			C430.012,264.966,427.785,265.93,425.098,267.227z"/>
		<ellipse cx="518.429" cy="128.893" rx="6.375" ry="2.625"/>
	</g>
</g>
</svg>
