<?xml version="1.0" encoding="utf-8"?>
<!-- Generator: Adobe Illustrator 16.0.0, SVG Export Plug-In . SVG Version: 6.00 Build 0)  -->
<!DOCTYPE svg PUBLIC "-//W3C//DTD SVG 1.1//EN" "http://www.w3.org/Graphics/SVG/1.1/DTD/svg11.dtd">
<svg version="1.1" xmlns="http://www.w3.org/2000/svg" xmlns:xlink="http://www.w3.org/1999/xlink" x="0px" y="0px" width="640px"
	 height="640px" viewBox="0 0 640 640" enable-background="new 0 0 640 640" xml:space="preserve">
<g id="couleurs">
</g>
<g id="traits">
	<g>
		<path fill="#FFF26B" d="M314.741,603.572l-12.863,29.301c2.229,1.297,3.552,2.021,3.552,2.021L314.741,603.572 M319.43,592.893
			l-2,4.556l1.683-0.748L319.43,592.893 M311.208,263.418l-1.778,0.475l1.837-0.34L311.208,263.418 M244.697,242.186l-3.028,1.211
			c1.352,0.05,2.631,0.177,3.706,0.317L244.697,242.186 M289.057,212.553l20.373,51.34l-10.046-27.625L289.057,212.553
			 M362.971,192.561l-0.603,1.163l6.359,11.761l0.355-0.597L362.971,192.561 M204.01,142.841l-0.58,0.052l0.133,0.312
			C203.701,143.082,203.851,142.96,204.01,142.841 M263.68,136.969l-4.25,0.924l0.508,1.279
			C260.846,138.43,262.117,137.694,263.68,136.969 M328.43,122.893L328.43,122.893l-3.9,0.848l28.1,51.969l-4.199-8.818l0.938-1.768
			L328.43,122.893 M368.43,98.893l8.26,14.767l0.014-0.025L368.43,98.893 M377.43,624.893l-48-34c-4-11,14-16,21-25s1-32,1-32v-11
			c13.195,0,24.613,17.767,31.744,40.74c-3.005-12.729-6.743-22.074-6.743-22.074s23.587,0,34.158,4.991
			c33.561,6.445,95.199,19.015,106.841,21.343c15,3,32,10,40,26s12,46.107,12,46.107l-154.166-0.275
			c-0.108,0.183-0.167,0.275-0.167,0.275h-36.666h-30l-0.446-0.395l-40.589-0.072c0.67,0.307,1.035,0.467,1.035,0.467h-63.334
			c0,0-0.602-0.191-1.659-0.581l-171.229-0.306c0,0-6.779-50.221,34.221-64.221s77-19,77-19l48.777-10.547
			c0.985-0.739,1.557-1.12,1.557-1.12c3.167-5.47,8.011-7.023,12.494-7.023c4.255,0,8.185,1.399,10.044,2.18
			c4.564-10.918,10.365-16.336,16.052-16.337c2.771,0,5.514,1.286,8.076,3.848c0,0-11,35,4,48s35,18,35,18l0,0l3.492,2.114
			l2.508-1.114L377.43,624.893 M292.43,63.893l45-38c0,0,11-14,54-15c0.653-0.015,1.304-0.023,1.952-0.023
			c34.179,0,61.259,21.062,79.185,57.014c2.926,5.077,5.349,10.478,7.067,16.175c1.339,3.506,2.604,7.118,3.796,10.834
			c17,53-60,102-60,102l-39.718-70.769l0.437,0.873l50.281,89.896l-47,25l-1.193-2.406l-0.452,2.942l0.308,0.698
			c2.225-0.923,3.672-1.566,3.672-1.566l34-18l7.333,11.333c0,0-38.666,26.667-76.666,35.333
			c-32.591,7.433-61.255,18.297-83.477,18.297c-3.688,0-7.202-0.3-10.523-0.964c-23.333-4.667-30-38-30-38c0-0.002,0-0.005,0-0.007
			c-3.125,2.386-7.755,6.055-14.001,11.34c-2.574,2.178-4.442,4.592-5.784,7.062c-1.954,5.783-3.994,13.937-1.549,17.605
			c4,6,6.667,19.333,6.667,19.333s-0.313,0.76-0.685,2.049l0.351,0.951c0,0,0,4.613-0.886,12.951
			c0.401,1.587,1.008,3.179,1.887,4.716c3.771,6.598,5.541,15.195,6.256,19.668c1.575,2.816,2.743,4.665,2.743,4.665
			c-0.97,0.838-1.883,1.557-2.748,2.169c-0.423,1.969-1.278,3.958-3.007,3.958c-0.704,0-1.554-0.33-2.578-1.127
			c-0.058-0.045-0.117-0.094-0.177-0.146c-0.354,0.055-0.693,0.082-1.022,0.082c-10.91,0-8.841-29.491-19.468-40.937
			c-0.667-0.719-1.36-1.418-2.074-2.094c-4.734-0.867-11.761-1.935-17.663-1.935c-3.163,0-6.003,0.306-7.996,1.114
			c-1.12,3.46-1.583,8.241-1.129,14.625c2.188,9.599,5.529,19.957,5.529,19.957s5.094,13.953,12.601,25.774
			c8.706,9.052,18.828,13.782,26.07,16.193c14.463-0.134,27.996-0.635,27.996-0.635s16.667,0,16.667,4
			c0,0.448-0.15,0.996-0.418,1.616c0.499,3.629-1.94,9.142-10.411,13.185c-0.723,0.751-1.171,1.199-1.171,1.199l-3.004,0.49
			c-5.19,1.776-12.021,3.055-20.882,3.41l-8.781,1.434c0,0-4.586-0.499-11.636-3.037c-19.604-4.566-33.096-17.74-42.816-32.456
			c-0.294-0.386-0.589-0.779-0.881-1.174c-24.667-33.333-28.667-70.667-18.667-78s11.666-9.667,11.666-9.667s-16-4-27-25
			c-4.307-8.221-5.241-15.368-4.364-21.924c-0.886-10.314,1.856-21.843,11.031-34.076c13.136-17.515,21.297-22.889,26.365-22.889
			c3.798,0,5.859,3.015,6.979,6.201c0.636-0.208,0.989-0.312,0.989-0.312l-12-26c0,0,5-18,15-32
			c8.284-11.598,25.489-12.901,31.149-13.007c-4.494-11.297-6.33-25.327,2.735-38.052l0.115-4.941c0,0,13-12,38-25
			c5-2.6,10.16-3.64,15.216-3.64C273.869,47.253,292.43,63.893,292.43,63.893 M640,0H0v640h640V0"/>
		<path fill="#FFFFFF" d="M336.714,256.599l-25.506,6.819l0.059,0.135l7.164-1.327c0,0,8.504-2.224,18.675-4.876L336.714,256.599
			 M378.85,224.587l-0.42,0.972l-0.271-0.416l7.626,17.285l0.452-2.942L378.85,224.587 M324.529,123.741l-60.85,13.228
			c-1.562,0.725-2.834,1.46-3.742,2.203l29.119,73.381l10.327,23.715l-3.954-10.875c0,0,3.643-1.261,10.263-1.261
			c5.884,0,14.12,0.997,24.237,4.761c0.043,0.016,0.086,0.032,0.129,0.048c2.594-3.834,6.312-8.518,10.871-12.048
			c8.454-6.545,16.761-8.033,22.564-8.033c1.605,0,3.019,0.114,4.191,0.266l-0.589-0.899l1.631-2.741l-6.359-11.761l-0.605,1.169
			l-9.134-19.182L324.529,123.741"/>
		<path fill="#FFFFFF" d="M456.431,237.894c0,0,11.333,19.333,49.333,25.333s92.667-22,68.667-64s-72.667-28.667-83.334,7.333
			c-6.845,23.1-1.333,43.333-1.333,43.333l13.333-0.667c0,0,0.018-43.066,21.334-42c26.666,1.333,28,15.333,23.333,27.333
			S484.431,261.894,456.431,237.894z"/>
		<path fill="#FFFFFF" d="M492.431,267.894c0,0,8.666,41.333,60.666,48c52,6.667,86.903-28.667,86.903-28.667v-12
			c0,0-38.803,36.623-87.569,27.333c-28-5.333-33.334-30-33.334-30L492.431,267.894z"/>
		<path fill="#FFFFFF" d="M467.764,467.227c0,0,31.333,10.667,55.333,2s32.667-22,32.667-22l23.333,6
			C579.097,453.227,526.431,513.894,467.764,467.227z"/>
		<path fill="#FFFFFF" d="M640,450.893c0,0-80.236,2-110.236-32s-2-64.667,24-62s48.667,33.334,39.667,71.334l-21.334-9.334
			c0,0,1.666-38-23-34s7.807,62.669,90.903,50.668V450.893z"/>
		<path fill="#FFFFFF" d="M27.763,487.226c0,0,28.667,18,68.667,6.667c38.49-10.905,32.666-38.667,32.666-38.667l24.667-4.666
			c0,0,1.333,47.333-67.333,58C36.864,516.26,27.763,487.226,27.763,487.226z"/>
		<path fill="#AACD72" d="M241.427,407.383l-20.882,3.41C229.405,410.438,236.236,409.16,241.427,407.383 M256.013,392.509
			c-1.657,3.85-7.812,10.481-10.411,13.185C254.072,401.651,256.512,396.138,256.013,392.509 M157.312,376.734
			c9.721,14.716,23.212,27.89,42.816,32.456C189.161,405.241,172.231,396.359,157.312,376.734 M185.697,371.334
			c5.518,8.688,12.339,16.226,19.399,16.226c2.216,0,4.454-0.012,6.671-0.032C204.525,385.117,194.403,380.386,185.697,371.334
			 M222.687,345.228c0.296,1.854,0.41,2.999,0.41,2.999s0,1.907-0.415,3.835c0.865-0.612,1.778-1.331,2.748-2.169
			C225.43,349.893,224.262,348.044,222.687,345.228 M194.355,311.799c0.714,0.676,1.407,1.375,2.074,2.094
			c10.627,11.445,8.558,40.937,19.468,40.937c0.329,0,0.669-0.027,1.022-0.082c-6.043-5.242-17.156-41.854-17.156-41.854
			S197.596,312.394,194.355,311.799 M168.696,310.978c-1.924,0.78-3.059,2.026-2.933,3.916c0.194,2.92,0.901,6.75,1.804,10.709
			C167.113,319.219,167.576,314.438,168.696,310.978 M215.079,306.942c-0.825,2.868-1.939,8.353-0.535,13.902
			c0.886-8.338,0.886-12.951,0.886-12.951L215.079,306.942 M118.065,240.969c-0.877,6.556,0.058,13.703,4.364,21.924
			c11,21,27,25,27,25l0,0C149.43,287.893,120.463,268.879,118.065,240.969 M197.579,118.886c-5.66,0.106-22.865,1.409-31.149,13.007
			c-10,14-15,32-15,32l12,26c0,0-0.354,0.105-0.989,0.312c1.253,3.57,1.323,7.354,1.323,7.354s2.168-1.238,5.771-1.238
			c5.556,0,14.524,2.942,24.229,17.905c16,24.667,19.333,47.333,19.333,47.333s-1.208,2.719-2.451,6.395
			c1.342-2.47,3.21-4.884,5.784-7.062c6.246-5.285,10.876-8.954,14.001-11.34c0.005-5.021,5.222-6.178,10.037-6.178
			c0.404,0,0.807,0.008,1.201,0.023l3.028-1.211l-42.268-95.293c-0.478-1.433-0.028-2.652,1.133-3.688l-0.133-0.312l0.58-0.052
			c1.443-1.079,3.695-1.944,6.485-2.638C208.478,137.836,201.836,129.586,197.579,118.886 M393.382,10.87
			c-0.648,0-1.299,0.008-1.952,0.023c-43,1-54,15-54,15l-45,38c0,0-18.561-16.64-38.784-16.64c-5.056,0-10.216,1.04-15.216,3.64
			c-25,13-38,25-38,25l-0.115,4.941c3.325-4.667,8.116-9.157,14.782-13.274c23.218-14.34,34.021-17.838,39.035-17.839
			c4.776,0,4.299,3.173,4.299,3.173s-15.334,34.667-8.667,50.667s32,28,32,28l-46.196,6.102c2.835-0.073,5.604-0.102,8.196-0.102
			c8.888,0,15.666,0.333,15.666,0.333l0,0l4.25-0.924l60.85-13.228l3.9-0.848l40-24l8.273,14.742l0.394-0.742l6.615,13.231
			l39.718,70.769c0,0,77-49,60-102c-1.192-3.717-2.457-7.328-3.796-10.834c4.354,14.424,4.178,30.703-3.87,48.168
			c-23.501,51-43.626,57.375-52.22,57.375c-2.864,0-4.447-0.708-4.447-0.708l-24.666-48.667c0,0,38-24,34-62
			s-29.334-49.333-19.334-56.667c0.653-0.479,1.644-0.714,2.909-0.714c11.155-0.004,43.936,18.189,60.561,47.038
			C454.641,31.932,427.561,10.871,393.382,10.87"/>
		<path fill="#D1E2A8" d="M260.43,266.226l6-101.333l11.333,22l-3.333,77.333L260.43,266.226 M243.764,137.56
			c-2.592,0-5.361,0.028-8.196,0.102l-24.471,3.232c0,0-0.217-0.238-0.602-0.689c-2.79,0.694-5.042,1.559-6.485,2.638
			c-0.159,0.119-0.309,0.24-0.447,0.364c-1.161,1.036-1.61,2.255-1.133,3.688l42.268,95.293l0.678,1.529
			c1.821,0.237,3.055,0.511,3.055,0.511l-17.333-42l-0.667-60.667l16-2.667l2,105.333l0,0l9,26.667l52-7l-20.373-51.34
			l-29.119-73.381l-0.508-1.279C259.43,137.893,252.651,137.56,243.764,137.56"/>
		<path fill="#D1E2A8" d="M384.148,126.997l6.281,12.562l-27.459,53.001l6.112,12.328l29.347-49.329l5.333,11.333l-24.913,57.694
			l7.387,14.9l1.193,2.406l47-25L384.148,126.997 M368.43,98.893l-40,24l20.938,42.232l27.321-51.465L368.43,98.893"/>
		<path fill="#D1E2A8" d="M272.354,523.045c-5.687,0.001-11.487,5.419-16.052,16.337c0.718,0.302,1.128,0.511,1.128,0.511l0,0l0,0
			l-0.999,7.666c0,0-5.334,21.334-3.001,45.334l0,0c8.227,15.63,38.106,33.967,48.448,39.979l12.863-29.301l1.688-5.679l1-0.444
			l2-4.556c0,0-20-5-35-18s-4-48-4-48C277.867,524.332,275.124,523.045,272.354,523.045"/>
		<path fill="#D1E2A8" d="M351.43,522.893v11c0,0,6,23-1,32s-25,14-21,25l48,34c0,0,9-32,8-47c-0.209-3.143-0.639-6.329-1.186-9.402
			c-0.34-1.663-0.7-3.286-1.07-4.857C376.043,540.66,364.625,522.893,351.43,522.893"/>
		<path fill="#AACD72" d="M253.43,592.893c2.139,22.003,46.586,43.256,53.966,46.641l40.589,0.072l-30.221-26.713l1.349-16.192
			l-1.683,0.748l-1,0.444l-1.688,5.679l-9.312,31.321c0,0-1.322-0.724-3.552-2.021C291.536,626.86,261.656,608.523,253.43,592.893
			 M384.244,568.491c0.547,3.073,0.977,6.26,1.186,9.402c1,15-8,47-8,47l0,0l-52-31l-2.508,1.114l55.105,33.36
			c4.156-12.323,9.682-31.846,8.403-45.475C385.967,577.942,385.18,573.064,384.244,568.491 M410.589,546.55
			c0.669,0.315,1.286,0.651,1.842,1.009c9.333,6,16.667,37.333,14,58c-2.448,18.971-9.951,32.133-11.167,34.166L569.43,640
			c0,0-4-30.107-12-46.107s-25-23-40-26C505.788,565.565,444.149,552.996,410.589,546.55 M232.207,545.346l-48.777,10.547
			c0,0-36,5-77,19s-34.221,64.221-34.221,64.221l171.229,0.306c-7.71-2.846-39.674-16.306-39.674-43.86
			C203.764,568.551,226.053,549.964,232.207,545.346"/>
		<circle fill="#FFF26B" cx="305.43" cy="167.893" r="14"/>
		<path fill="#FFF26B" d="M306.93,184.393c-1.744,0.492-2.688,0.827-2.73,1.416c-0.045,0.638,0,3.834,0,3.834s-0.045,3.196,0,3.834
			c0.042,0.589,0.986,0.923,2.73,1.416c1.744-0.492,2.688-0.827,2.73-1.416c0.046-0.638,0-3.834,0-3.834s0.046-3.196,0-3.834
			C309.617,185.22,308.674,184.885,306.93,184.393z"/>
		<path fill="#FFF26B" d="M298.93,152.393c1.413-1.175,2.149-1.885,1.936-2.545c-0.23-0.715-1.643-4.2-1.643-4.2
			s-1.328-3.517-1.644-4.199c-0.292-0.63-1.314-0.652-3.149-0.556c-1.413,1.175-2.148,1.885-1.936,2.545
			c0.23,0.716,1.643,4.2,1.643,4.2s1.327,3.517,1.644,4.199C296.072,152.467,297.095,152.489,298.93,152.393z"/>
		<path fill="#FFF26B" d="M313.43,150.893c1.788,0.426,2.797,0.588,3.198,0.021c0.434-0.614,2.373-3.834,2.373-3.834
			s2.018-3.172,2.374-3.834c0.329-0.612-0.267-1.443-1.445-2.853c-1.787-0.426-2.797-0.588-3.198-0.021
			c-0.434,0.614-2.373,3.834-2.373,3.834s-2.018,3.172-2.374,3.834C311.656,148.652,312.252,149.483,313.43,150.893z"/>
		<path fill="#FFF26B" d="M323.43,167.394c0.656,1.719,1.092,2.646,1.795,2.66c0.761,0.015,4.564-0.183,4.564-0.183
			s3.807-0.107,4.564-0.183c0.699-0.07,1.06-1.029,1.576-2.795c-0.656-1.72-1.092-2.646-1.795-2.661
			c-0.761-0.016-4.564,0.183-4.564,0.183s-3.807,0.106-4.564,0.183C324.307,164.668,323.946,165.627,323.43,167.394z"/>
		<path fill="#FFF26B" d="M318.43,182.394c-0.268,1.838-0.336,2.875,0.317,3.276c0.708,0.435,4.382,2.374,4.382,2.374
			s3.632,2.019,4.383,2.374c0.693,0.328,1.524-0.295,2.918-1.524c0.268-1.838,0.336-2.875-0.317-3.278
			c-0.708-0.435-4.382-2.374-4.382-2.374s-3.631-2.019-4.383-2.374C320.654,180.542,319.823,181.165,318.43,182.394z"/>
		<path fill="#FFF26B" d="M293.43,178.393c-1.542-0.947-2.425-1.414-2.874-1.052c-0.487,0.392-2.739,2.556-2.739,2.556
			s-2.313,2.098-2.738,2.556c-0.393,0.424,0.013,1.337,0.852,2.94c1.541,0.947,2.424,1.414,2.874,1.052
			c0.487-0.392,2.739-2.556,2.739-2.556s2.314-2.097,2.738-2.556C294.673,180.909,294.268,179.996,293.43,178.393z"/>
		<path fill="#FFF26B" d="M289.43,163.393c-0.116-1.843-0.259-2.864-0.949-3.101c-0.747-0.256-4.564-1.278-4.564-1.278
			s-3.793-1.109-4.564-1.278c-0.713-0.156-1.365,0.642-2.422,2.157c0.116,1.844,0.259,2.864,0.949,3.102
			c0.747,0.257,4.564,1.278,4.564,1.278s3.793,1.11,4.564,1.278C287.721,165.706,288.373,164.908,289.43,163.393z"/>
		<path fill="#FFF26B" d="M306.43,227.393c0,0,3.5-12.5,17-18s31,1,31,1l-15.5,26.5L306.43,227.393z"/>
		<path fill="#D1E2A8" d="M363.494,208.86c-5.804,0-14.11,1.488-22.564,8.033c-4.56,3.53-8.277,8.214-10.871,12.048
			c17.441,6.54,29.871,21.452,29.871,21.452l-23.216,6.206l0.392,0.751c12.785-3.333,28.203-7.343,32.658-8.457
			c5.222-1.306,12.147-4.031,16.328-5.767l-0.308-0.698l-7.626-17.285l-10.473-16.018C366.513,208.974,365.1,208.86,363.494,208.86"
			/>
		<path fill="#AACD72" d="M305.692,224.132c-6.62,0-10.263,1.261-10.263,1.261l3.954,10.875l10.046,27.625l1.778-0.475l25.506-6.819
			l23.216-6.206c0,0-12.43-14.912-29.871-21.452c-0.043-0.016-0.086-0.032-0.129-0.048
			C319.812,225.128,311.576,224.132,305.692,224.132"/>
		<path fill="#D3DA49" d="M472.566,67.884c2.542,5.098,4.9,10.496,7.067,16.175C477.915,78.362,475.492,72.961,472.566,67.884"/>
		<path fill="#83BD55" d="M412.006,20.846c-1.266,0-2.256,0.235-2.909,0.714c-10,7.333,15.334,18.667,19.334,56.667s-34,62-34,62
			l24.666,48.667c0,0,1.583,0.708,4.447,0.708c8.594,0,28.719-6.375,52.22-57.375c8.048-17.465,8.224-33.744,3.87-48.168
			c-2.167-5.679-4.525-11.077-7.067-16.175C455.941,39.035,423.161,20.842,412.006,20.846"/>
		<path fill="#D3DA49" d="M200.128,409.19c7.05,2.538,11.636,3.037,11.636,3.037l8.781-1.434c-1.636,0.065-3.339,0.1-5.115,0.1
			C209.949,410.893,204.861,410.292,200.128,409.19 M245.602,405.694c-1.256,0.599-2.646,1.166-4.175,1.689l3.004-0.49
			C244.431,406.893,244.879,406.445,245.602,405.694 M239.764,386.893c0,0-13.533,0.501-27.996,0.635
			c5.732,1.908,9.662,2.365,9.662,2.365s14.625-1.688,24.469-1.688c3.281,0,6.031,0.188,7.531,0.688
			c1.342,0.447,2.333,1.794,2.583,3.616c0.268-0.62,0.418-1.168,0.418-1.616C256.431,386.893,239.764,386.893,239.764,386.893
			 M222.682,352.062c-2.232,1.579-4.131,2.433-5.762,2.686c0.06,0.052,0.119,0.101,0.177,0.146c1.024,0.797,1.874,1.127,2.578,1.127
			C221.403,356.02,222.259,354.031,222.682,352.062 M167.567,325.603c0.272,3.833,0.875,8.242,1.862,13.29
			c2.842,14.523,9.071,24.959,16.268,32.441c-7.507-11.821-12.601-25.774-12.601-25.774S169.756,335.202,167.567,325.603
			 M214.544,320.844c-0.037,0.344-0.074,0.692-0.114,1.049c-0.688,6.193,4.779,17.12,8.257,23.335
			c-0.715-4.473-2.485-13.07-6.256-19.668C215.552,324.023,214.945,322.431,214.544,320.844 M177.865,303.366
			c-4.02,0-7.408,2.175-9.169,7.612c1.993-0.808,4.833-1.114,7.996-1.114c5.902,0,12.929,1.068,17.663,1.935
			C189.223,306.945,183.024,303.364,177.865,303.366 M149.43,287.893c0,0-1.666,2.333-11.666,9.667s-6,44.667,18.667,78
			c0.292,0.395,0.587,0.788,0.881,1.174c-6.349-9.61-11.09-19.878-14.882-28.841C131.43,321.893,149.43,287.893,149.43,287.893
			L149.43,287.893 M210.646,267.955c-5.433,10.004-2.216,20.938-2.216,20.938l6.649,18.049c0.371-1.289,0.685-2.049,0.685-2.049
			s-2.667-13.333-6.667-19.333C206.651,281.892,208.691,273.738,210.646,267.955 M155.462,184.004
			c-5.068,0-13.229,5.375-26.365,22.889c-9.175,12.232-11.917,23.762-11.031,34.076c1.363-10.189,7.104-18.948,11.364-28.076
			c6.199-13.284,28.085-21.078,33.011-22.688C161.321,187.019,159.26,184.004,155.462,184.004"/>
		<path fill="#83BD55" d="M162.44,190.206c-4.926,1.609-26.812,9.403-33.011,22.688c-4.26,9.128-10.001,17.887-11.364,28.076
			c2.397,27.91,31.364,46.924,31.364,46.924l0,0l0,0c0,0-18,34-7,60c3.792,8.963,8.533,19.23,14.882,28.841
			c14.92,19.625,31.85,28.507,42.816,32.456c4.733,1.103,9.821,1.703,15.302,1.703c1.776,0,3.479-0.034,5.115-0.1l20.882-3.41
			c1.529-0.523,2.919-1.091,4.175-1.689c2.599-2.703,8.754-9.335,10.411-13.185c-0.25-1.822-1.241-3.169-2.583-3.616
			c-1.5-0.5-4.25-0.688-7.531-0.688c-9.844,0-24.469,1.688-24.469,1.688s-3.93-0.457-9.662-2.365
			c-2.217,0.021-4.455,0.032-6.671,0.032c-7.061,0-13.882-7.537-19.399-16.226c-7.196-7.482-13.426-17.918-16.268-32.441
			c-0.987-5.048-1.59-9.457-1.862-13.29c-0.902-3.959-1.609-7.789-1.804-10.709c-0.126-1.889,1.009-3.136,2.933-3.916
			c1.761-5.438,5.149-7.612,9.169-7.612c5.159-0.001,11.357,3.58,16.49,8.434c3.24,0.594,5.408,1.094,5.408,1.094
			s11.113,36.612,17.156,41.854c1.631-0.253,3.529-1.106,5.762-2.686c0.415-1.928,0.415-3.835,0.415-3.835s-0.114-1.145-0.41-2.999
			c-3.478-6.215-8.945-17.142-8.257-23.335c0.04-0.356,0.077-0.705,0.114-1.049c-1.404-5.549-0.29-11.034,0.535-13.902
			l-6.649-18.049c0,0-3.217-10.934,2.216-20.938c1.243-3.676,2.451-6.395,2.451-6.395s-3.333-22.667-19.333-47.333
			c-9.705-14.962-18.674-17.905-24.229-17.905c-3.603,0-5.771,1.238-5.771,1.238S163.693,193.775,162.44,190.206"/>
		<path fill="#D3DA49" d="M200.314,80.834c-9.065,12.725-7.229,26.754-2.735,38.052c0.319-0.006,0.602-0.008,0.843-0.008
			c0.648,0,1.008,0.016,1.008,0.016L200.314,80.834"/>
		<path fill="#83BD55" d="M254.132,49.72c-5.014,0.001-15.817,3.5-39.035,17.839c-6.666,4.117-11.457,8.607-14.782,13.274
			l-0.885,38.059c0,0-0.359-0.016-1.008-0.016c-0.241,0-0.523,0.002-0.843,0.008c4.257,10.7,10.898,18.951,12.916,21.318
			c6.581-1.636,16.145-2.312,25.072-2.542l46.196-6.102c0,0-25.333-12-32-28s8.667-50.667,8.667-50.667S258.908,49.72,254.132,49.72
			"/>
		<path fill="#A5CC75" d="M235.567,137.661c-8.928,0.23-18.491,0.906-25.072,2.542c0.385,0.452,0.602,0.689,0.602,0.689
			L235.567,137.661"/>
		<polyline fill="#A8CC70" points="246.43,138.893 230.43,141.559 231.097,202.226 248.43,244.226 248.43,244.226 246.43,138.893 		
			"/>
		<polyline fill="#A8CC70" points="266.43,164.893 260.43,266.226 274.43,264.226 277.763,186.893 266.43,164.893 		"/>
		<path fill="#D5DB47" d="M349.368,165.125l-0.938,1.768l4.199,8.818l9.739,18.013l0.603-1.163L349.368,165.125 M376.703,113.635
			l-0.014,0.025l7.459,13.337l-0.437-0.873L376.703,113.635"/>
		<polyline fill="#D1E2A8" points="352.629,175.71 361.763,194.893 362.368,193.724 352.629,175.71 		"/>
		<polyline fill="#84BE53" points="377.097,112.893 376.703,113.635 383.712,126.124 377.097,112.893 		"/>
		<polyline fill="#A8CC70" points="376.689,113.66 349.368,165.125 362.971,192.561 390.43,139.559 384.148,126.997 376.689,113.66 
					"/>
		<path fill="#D5DB47" d="M369.083,204.888l-0.355,0.597l2.322,4.295c0.25,0.069,0.38,0.113,0.38,0.113l1.414,3.204l3.725,6.889
			L369.083,204.888"/>
		<path fill="#D1E2A8" d="M372.844,213.097l5.314,12.047l0.271,0.416l0.42-0.972l-2.281-4.602L372.844,213.097 M368.728,205.485
			l-1.631,2.741l0.589,0.899c1.636,0.212,2.802,0.499,3.364,0.655L368.728,205.485"/>
		<polyline fill="#A8CC70" points="398.43,155.559 369.083,204.888 376.568,219.985 378.85,224.587 403.763,166.893 398.43,155.559 
					"/>
		<path fill="#A8CC70" d="M367.686,209.125l10.473,16.018l-5.314-12.047l-1.414-3.204c0,0-0.13-0.043-0.38-0.113
			C370.487,209.624,369.321,209.338,367.686,209.125"/>
		<path fill="#C9D645" d="M243.438,639.419c1.058,0.39,1.659,0.581,1.659,0.581h63.334c0,0-0.365-0.16-1.035-0.467L243.438,639.419
			 M246.258,537.203c-4.483,0-9.327,1.554-12.494,7.023c0,0-0.571,0.381-1.557,1.12l23.755-5.136
			c0.112-0.279,0.226-0.556,0.34-0.828C254.442,538.602,250.513,537.203,246.258,537.203"/>
		<path fill="#9EC86C" d="M257.43,539.893c0,0-14,34-4,53l0,0l0,0c-2.333-24,3.001-45.334,3.001-45.334L257.43,539.893
			 M256.302,539.382c-0.114,0.272-0.228,0.549-0.34,0.828l1.468-0.317C257.43,539.893,257.02,539.684,256.302,539.382"/>
		<path fill="#7ABB51" d="M257.43,539.893l-1.468,0.317l-23.755,5.136c-6.154,4.618-28.443,23.205-28.443,50.213
			c0,27.555,31.964,41.015,39.674,43.86l63.958,0.114c-7.38-3.385-51.827-24.638-53.966-46.641l0,0
			C243.43,573.893,257.43,539.893,257.43,539.893L257.43,539.893"/>
		<path fill="#C9D645" d="M347.984,639.606l0.446,0.395h30h-4.667c0,0,0.049-0.119,0.141-0.349L347.984,639.606 M319.43,592.893
			L319.43,592.893L319.43,592.893l-0.317,3.808l3.81-1.693L319.43,592.893"/>
		<path fill="#7ABB51" d="M322.922,595.007l-3.81,1.693l-1.349,16.192l30.221,26.713l25.92,0.046
			c0.482-1.204,2.148-5.433,4.123-11.284L322.922,595.007"/>
		<path fill="#C9D645" d="M378.523,639.66L378.431,640h36.666c0,0,0.059-0.093,0.167-0.275L378.523,639.66 M376.431,541.559
			c0,0,3.738,9.346,6.743,22.074c0.111,0.36,0.223,0.724,0.332,1.086c-2.108-9.913-5.076-17.826-5.076-17.826
			s-1.469-4.408,6.927-4.408c1.399,0,3.073,0.122,5.073,0.408c3.135,0.447,10.479,1.798,20.159,3.657
			C400.018,541.559,376.431,541.559,376.431,541.559"/>
		<path fill="#9EC86C" d="M383.174,563.633c0.37,1.571,0.73,3.194,1.07,4.857c-0.229-1.281-0.477-2.541-0.738-3.771
			C383.396,564.357,383.285,563.994,383.174,563.633"/>
		<path fill="#7ABB51" d="M385.356,542.485c-8.396,0-6.927,4.408-6.927,4.408s2.968,7.913,5.076,17.826
			c0.262,1.23,0.51,2.49,0.738,3.771c0.936,4.573,1.723,9.451,2.187,14.402c1.278,13.629-4.247,33.151-8.403,45.475l3.069,1.858
			l-2.573,9.434l36.74,0.065c1.216-2.033,8.719-15.195,11.167-34.166c2.667-20.667-4.667-52-14-58
			c-0.556-0.357-1.173-0.693-1.842-1.009c-9.681-1.859-17.024-3.21-20.159-3.657C388.43,542.607,386.756,542.485,385.356,542.485"/>
		<path fill="#95C23B" d="M373.904,639.652c-0.092,0.229-0.141,0.349-0.141,0.349h4.667l0.093-0.341L373.904,639.652"/>
		<path fill="#4DAF45" d="M378.027,628.368c-1.975,5.852-3.641,10.08-4.123,11.284l4.619,0.008l2.573-9.434L378.027,628.368"/>
		<path fill="#FFFFFF" d="M190.43,394.893c0,0-6,48.666-70,50c-64.208,1.338-66-58.667-28-66c34.296-6.618,52,15.333,62,40l-24,2
			c0,0-21.334-32-35.334-16s55.334,53.333,91.334-14.667L190.43,394.893z"/>
		<path fill="#E4E252" d="M423.764,223.56l-34,18c0,0-1.447,0.643-3.672,1.566l0.338,0.767l-0.944,0.472l-0.389,2.528l-29.47,7.841
			l-17.197,5.159l-0.267-0.513l-25.732,6.846l-1.164-2.673l-1.837,0.34l-52,7l-12.055-27.178c-1.075-0.14-2.354-0.267-3.706-0.317
			l-6.239,2.496c0,0-1.62,1.08-4.999,3.66c0,0.002,0,0.005,0,0.007c0,0,6.667,33.333,30,38c3.321,0.664,6.836,0.964,10.523,0.964
			c22.222,0,50.886-10.864,83.477-18.297c38-8.667,76.666-35.333,76.666-35.333L423.764,223.56"/>
		<path fill="#DFEBC4" d="M337.105,257.35c-10.171,2.652-18.675,4.876-18.675,4.876l-7.164,1.327l1.164,2.673l25.732-6.846
			L337.105,257.35 M385.485,244.365l-7.056,3.528l-22.803,6.841l29.47-7.841L385.485,244.365"/>
		<path fill="#91C25C" d="M240.468,243.375c-4.815,0-10.032,1.158-10.037,6.178c3.379-2.58,4.999-3.66,4.999-3.66l6.239-2.496
			C241.274,243.382,240.872,243.375,240.468,243.375"/>
		<path fill="#B5D381" d="M245.375,243.715l12.055,27.178l52-7l-52,7l-9-26.667l0,0C248.43,244.226,247.196,243.952,245.375,243.715
			"/>
		<path fill="#B5D381" d="M386.092,243.126c-4.181,1.736-11.106,4.461-16.328,5.767c-4.455,1.114-19.873,5.124-32.658,8.457
			l1.058,2.03l0.267,0.513l17.197-5.159l22.803-6.841l7.056-3.528l0.944-0.472L386.092,243.126"/>
		<ellipse transform="matrix(0.9693 -0.2459 0.2459 0.9693 -60.5796 90.9887)" cx="334.128" cy="288.121" rx="8.557" ry="3.523"/>
		<ellipse transform="matrix(0.9693 -0.2458 0.2458 0.9693 -55.4374 108.3983)" cx="406.474" cy="276.255" rx="7.159" ry="2.947"/>
		<path d="M417.764,197.561c4.973-1.41,9.473-3.084,13.742-4.911c4.263-1.844,8.29-3.888,12.258-6.286
			c7.897-4.83,15.737-10.947,23.93-20.658c1.802-2.145,4.278-5.237,7.031-9.221c1.363-2.002,2.815-4.209,4.251-6.652
			c0.72-1.22,1.451-2.485,2.153-3.82c0.179-0.332,0.358-0.665,0.54-1.001l0.266-0.509l0.289-0.581
			c1.033-2.036,2.012-4.14,2.922-6.31c3.647-8.659,6.161-18.49,6.523-28.839c0.405-10.338-1.433-21.036-5.154-31.015
			c-3.675-10.03-9.202-19.274-15.528-27.748c-3.219-4.194-6.577-8.276-10.182-12.104c-3.595-3.851-7.354-7.594-11.406-11.06
			c-8.017-6.999-17.074-13.059-26.925-17.438c-9.83-4.397-20.494-6.935-30.955-7.338c-10.472-0.441-20.626,1.159-29.837,3.931
			c-9.234,2.774-17.575,6.665-25.027,10.934c-7.458,4.277-14.034,8.96-19.855,13.598c-5.818,4.646-10.877,9.266-15.25,13.609
			c-2.187,2.172-4.201,4.277-6.052,6.295c-0.547,0.604-1.075,1.188-1.585,1.751l0.006-0.004l0.009,0.005l0.003,0.004
			c-0.325-0.208-0.641-0.411-0.945-0.605c-0.364-0.234-0.717-0.459-1.071-0.667c-1.738-1.075-3.506-2.001-4.478-2.496
			c-0.971-0.498-1.135-0.583,0.272,0.141c-3.595-1.852-7.228-3.227-4.283-2.019c-8.558-3.687-17.009-5.222-24.52-5.3
			c-7.53-0.112-14.102,1.107-19.623,2.695c-5.535,1.614-10.032,3.659-13.792,5.565c-0.932,0.493-1.826,0.966-2.686,1.421
			c-0.85,0.467-1.63,0.962-2.396,1.413c-0.762,0.458-1.489,0.896-2.187,1.315c-0.678,0.455-1.324,0.889-1.942,1.303
			c-2.492,1.609-4.392,3.167-5.959,4.342c-1.509,1.283-2.665,2.241-3.504,2.998c-1.643,1.569-2.18,2.083-2.18,2.083
			s-0.503,0.421-1.921,1.983c-0.715,0.772-1.693,1.787-2.862,3.273c-0.593,0.734-1.281,1.532-1.959,2.519
			c-0.686,0.978-1.494,2.018-2.247,3.287c-0.388,0.624-0.795,1.278-1.221,1.964c-0.386,0.713-0.79,1.458-1.212,2.238
			c-0.437,0.771-0.82,1.617-1.223,2.498c-0.41,0.877-0.83,1.794-1.192,2.785c-1.543,3.908-2.903,8.661-3.519,14.262
			c-0.307,2.799-0.397,5.802-0.247,8.982c0.032,0.796,0.085,1.603,0.169,2.418c0.065,0.818,0.159,1.646,0.277,2.482
			c0.059,0.418,0.101,0.842,0.177,1.265l0.105,0.637l0.046,0.272l-0.001-0.009l-0.002-0.015l-0.002-0.007l0.005,0h-0.028
			l-0.446,0.016c-0.296,0.009-0.594,0.041-0.892,0.062c-0.597,0.047-1.197,0.09-1.802,0.175c-0.455,0.067-0.938,0.091-2.151,0.318
			c-1.209,0.207-3.176,0.571-6.458,1.729c-0.479,0.163-0.976,0.346-2.113,0.845c-1.138,0.486-2.933,1.305-5.731,3.116
			c-3.04,2.038-6.801,5.1-10.308,9.836c-1.794,2.342-3.491,5.093-5.062,8.231c-0.819,1.564-1.517,3.24-2.27,5
			c-0.654,1.774-1.4,3.586-1.991,5.612c-1.254,3.994-2.335,8.565-2.717,13.808c-0.39,5.215-0.03,11.18,1.927,17.346
			c0.23,0.773,0.496,1.543,0.803,2.308c0.285,0.773,0.596,1.544,0.954,2.305c0.333,0.771,0.702,1.535,1.108,2.288l0.298,0.57
			c0.034,0.066,0.146,0.279,0.066,0.129l-0.043-0.088l-0.002-0.003l-0.025-0.029l-0.031-0.024l0.042,0.009l0.026-0.002l0.001-0.001
			l-0.007-0.001h-0.002l-0.062,0.011l-0.294,0.052c-0.395,0.07-0.798,0.138-1.205,0.245c-1.638,0.376-3.42,0.873-5.32,1.624
			c-4.641,1.821-9.285,4.57-14.303,9.632c-3.971,4.104-7.24,8.904-9.907,14.002c-1.332,2.553-2.529,5.184-3.6,7.869
			c-0.576,1.299-1.035,2.806-1.54,4.238c-0.536,1.428-0.891,2.96-1.288,4.476c-1.495,6.084-2.106,12.785-1.062,19.423l0.409,2.48
			c0.17,0.82,0.389,1.63,0.587,2.445c0.358,1.645,0.968,3.205,1.485,4.798c1.225,3.096,2.623,6.131,4.369,8.889
			c1.718,2.772,3.615,5.398,5.703,7.771c2.066,2.398,4.263,4.62,6.561,6.639c2.291,2.029,4.648,3.917,7.074,5.621l0.226,0.163
			l0.112,0.082l-0.084-0.061l-0.003-0.002l-0.006-0.004l-0.013-0.008l-0.025-0.015l-0.046-0.025l0.054-0.016l0.024-0.012
			l0.012-0.007l0.017-0.019l0.028-0.021l0.017-0.008l-0.1,0.071l-0.923,0.664c-2.421,1.834-4.588,3.998-6.371,6.368
			c-1.899,2.518-3.368,5.319-4.188,7.534c-0.844,2.211-1.226,3.793-1.271,4.037c-0.398,1.483-0.604,2.949-0.816,4.324
			c-0.112,1.354-0.275,2.64-0.269,3.703c-0.068,2.155,0.036,3.56,0.043,3.643l0.085,1.521c0.011,0.253,0.027,0.361,0.048,0.545
			c0.039,0.333,0.077,0.663,0.115,0.992c0.079,0.656,0.157,1.306,0.234,1.947c0.219,1.243,0.428,2.484,0.663,3.637
			c0.542,2.174,1.056,4.239,1.544,6.197c0.246,0.978,0.486,1.93,0.72,2.854c0.299,0.906,0.589,1.787,0.871,2.643
			c0.57,1.708,1.107,3.314,1.611,4.822c2.252,5.942,4.155,10.235,5.667,13.056c0.732,1.421,1.408,2.824,2.164,4.137
			c0.795,1.289,1.57,2.545,2.327,3.771c1.477,2.476,3.167,4.643,4.763,6.734c3.235,4.155,6.647,7.629,10.167,10.738
			c1.762,1.553,3.625,2.952,5.453,4.354c0.956,0.652,1.913,1.306,2.874,1.962c0.954,0.654,1.936,1.28,2.956,1.869
			c4.002,2.42,8.333,4.622,13.188,6.405c-3.438-3.836-6.168-7.597-8.7-11.256c-0.648-0.896-1.264-1.807-1.857-2.726
			c-0.604-0.898-1.207-1.793-1.809-2.687c-1.148-1.802-2.295-3.601-3.458-5.425c-4.518-7.301-9.135-14.829-14.107-24.845
			c-1.308-2.477-2.933-6.239-4.891-11.423c-0.435-1.315-0.897-2.718-1.391-4.209c-0.247-0.745-0.501-1.512-0.763-2.302
			c-0.199-0.809-0.403-1.64-0.614-2.494c-0.426-1.708-0.875-3.509-1.348-5.404c-0.181-0.902-0.322-1.784-0.494-2.709
			c-0.052-0.453-0.104-0.912-0.158-1.376l-0.085-0.7c-0.016-0.129-0.029-0.208-0.033-0.376l-0.053-1.024
			c-0.008-0.058-0.077-1.017-0.029-2.375c-0.018-0.695,0.111-1.439,0.157-2.271c0.141-0.789,0.241-1.652,0.469-2.448
			c0.036-0.292,0.834-3.45,2.765-5.92c0.89-1.178,1.983-2.288,3.306-3.293l0.514-0.364l0.682-0.456
			c0.266-0.192,0.537-0.317,0.808-0.467c1.096-0.573,2.104-1.204,3.449-1.644c0.658-0.233,1.22-0.505,1.962-0.708
			c0.779-0.189,1.561-0.379,2.345-0.569l0.294-0.072c0.099-0.023,0.043-0.124,0.072-0.182l0.05-0.378l0.093-0.692l0.176-1.328
			c0.206-1.631,0.417-3.296,0.632-4.99c0.266-1.826,0.537-3.683,0.812-5.565l0.188-1.33l0.053-0.368l0.011-0.2l-0.251-0.122
			l-1.005-0.489l-2.013-0.981c-0.669-0.329-1.229-0.686-1.849-1.028c-1.206-0.696-2.464-1.367-3.564-2.128l-1.708-1.113
			l-0.855-0.558l-0.297-0.199l-0.093-0.067l-0.185-0.134c-1.996-1.398-3.9-2.933-5.726-4.547c-1.835-1.607-3.537-3.34-5.103-5.157
			c-1.595-1.802-2.971-3.735-4.205-5.717c-5.007-7.943-6.231-17.188-3.934-26.091c0.298-1.11,0.53-2.223,0.953-3.312
			c0.398-1.1,0.689-2.167,1.197-3.298c0.895-2.252,1.876-4.401,2.931-6.427c2.112-4.05,4.567-7.562,7.229-10.323
			c3.357-3.366,6.074-4.91,8.753-5.973c1.095-0.439,2.116-0.717,3.059-0.938c0.232-0.068,0.468-0.102,0.697-0.141l0.17-0.029
			l0.399-0.056c0.306-0.042,0.608-0.083,0.908-0.124c0.303-0.034,0.585-0.099,0.897-0.105c0.315,0,0.627,0,0.936,0
			c0.618,0,1.223,0,1.816,0c0.296,0,0.59,0,0.881,0c0.282-0.009,0.667,0.1,0.99,0.143c0.675,0.117,1.337,0.231,1.988,0.344
			c0.326,0.056,0.649,0.112,0.97,0.167l0.479,0.083l0.243,0.045l0.311,0.107c0.828,0.286,1.645,0.567,2.449,0.845l0.602,0.208
			c0.122-0.013,0.114-0.159,0.177-0.231l0.274-0.536c0.149-0.291,0.298-0.579,0.444-0.865c0.259-0.505,0.513-1.001,0.765-1.495
			c0.51-1.002,1.01-1.987,1.502-2.956c0.142-0.291,0.281-0.577,0.418-0.858c0.048-0.084,0.378-0.676,1.357-2.549
			c0.334-0.638,0.664-1.271,0.991-1.896c0.217-0.417,0.434-0.833,0.648-1.246l0.394-0.757l0.196-0.377l0.049-0.094l-0.155-0.128
			l-0.426-0.275c-0.259-0.178-0.625-0.378-0.795-0.538l-0.595-0.497l-1.185-0.99l-1.18-0.985l-0.588-0.491l-0.413-0.459
			c-0.544-0.611-1.084-1.219-1.622-1.825c-0.253-0.303-0.572-0.602-0.77-0.907l-0.607-0.913c-0.404-0.607-0.806-1.211-1.206-1.812
			c-0.099-0.147-0.192-0.283-0.334-0.538c-0.174-0.3-0.137-0.246-0.185-0.335l-0.188-0.363c-0.263-0.476-0.496-0.96-0.704-1.45
			c-0.231-0.479-0.427-0.969-0.604-1.459c-0.199-0.482-0.367-0.972-0.509-1.465c-1.245-3.908-1.519-7.823-1.243-11.501
			c0.264-3.681,1.053-7.124,2.035-10.244c0.444-1.565,1.066-3.045,1.574-4.455c0.588-1.354,1.119-2.661,1.729-3.811
			c1.17-2.342,2.373-4.289,3.58-5.855c0.571-0.826,1.203-1.477,1.749-2.153c0.604-0.593,1.123-1.22,1.688-1.688
			c0.273-0.247,0.537-0.487,0.793-0.718c0.262-0.22,0.527-0.413,0.774-0.613c0.488-0.413,0.983-0.725,1.432-1.035
			c1.653-1.062,2.681-1.547,3.348-1.823c0.659-0.294,0.948-0.403,1.23-0.494c1.916-0.671,3.083-0.906,3.813-1.021
			c0.725-0.144,1.025-0.15,1.3-0.194c0.364-0.057,0.734-0.078,1.101-0.107c0.184-0.012,0.364-0.037,0.548-0.04l0.989-0.015
			c0.909-0.045,1.894,0.053,2.863,0.135c0.938,0.024,1.998,0.29,3.014,0.483l0.764,0.152c0.159,0.078,0.206-0.03,0.273-0.104
			l0.201-0.224l0.799-0.892c0.431-0.481,0.858-0.958,1.283-1.433c0.574-0.64,1.14-1.272,1.697-1.895
			c0.817-0.912,1.613-1.798,2.386-2.659c0.714-0.795,1.418-1.579,2.111-2.351l0.669-0.746c0.094-0.131,0.262-0.23,0.294-0.388
			l-0.216-0.612c-0.282-0.812-0.562-1.618-0.839-2.418c-0.254-0.793-0.399-1.545-0.603-2.311c-0.19-0.761-0.387-1.515-0.512-2.277
			c-0.079-0.445-0.157-0.887-0.235-1.325c-0.06-0.313-0.085-0.627-0.13-0.938c-0.089-0.62-0.159-1.231-0.205-1.835
			c-0.064-0.603-0.103-1.197-0.124-1.781c-0.109-2.337-0.047-4.522,0.175-6.54c0.447-4.036,1.414-7.402,2.516-10.198
			c0.25-0.709,0.558-1.364,0.854-1.994c0.288-0.632,0.556-1.242,0.879-1.798c0.304-0.564,0.594-1.105,0.872-1.622
			c0.313-0.5,0.612-0.978,0.897-1.433c0.536-0.929,1.156-1.699,1.657-2.425c0.49-0.733,1.022-1.333,1.467-1.885
			c0.868-1.119,1.63-1.897,2.178-2.49c1.075-1.201,1.481-1.533,1.481-1.533s0.42-0.402,1.703-1.63
			c0.663-0.597,1.597-1.357,2.792-2.387c1.287-0.947,2.796-2.211,4.885-3.548c0.511-0.345,1.047-0.706,1.608-1.084
			c0.582-0.348,1.19-0.712,1.826-1.093c0.639-0.374,1.292-0.794,1.994-1.179c0.707-0.373,1.442-0.761,2.208-1.165
			c3.077-1.558,6.707-3.206,11.032-4.463c4.319-1.236,9.33-2.154,15.004-2.069c5.66,0.057,12.014,1.202,18.6,4.036
			c-2.261-0.93,0.525,0.129,3.296,1.555c-2.185-1.09,0.552,0.189,3.231,1.811c0.27,0.156,0.547,0.335,0.835,0.521
			c0.144,0.092,0.29,0.187,0.439,0.282c0.177,0.117,0.208,0.122,0.631,0.427c0.678,0.482,1.378,0.98,2.099,1.493
			c0.352,0.286,0.708,0.576,1.069,0.871l0.546,0.447l0.276,0.226c0.104,0.03,0.225-0.007,0.336-0.007
			c2.503-0.189,5.278-0.399,8.308-0.629c0.947-0.071,1.914-0.143,2.9-0.216c0.782-0.849,1.534-1.83,2.332-2.753
			c0.73-0.835,1.475-1.685,2.232-2.551c0.404-0.446,0.817-0.9,1.236-1.361c1.689-1.839,3.541-3.771,5.551-5.766
			c8.044-7.94,18.632-17.08,31.88-24.713c6.617-3.788,13.902-7.158,21.73-9.503c7.817-2.348,16.184-3.634,24.681-3.273
			c8.494,0.337,17.084,2.367,25.246,6.015c8.167,3.636,15.928,8.773,22.998,14.954c3.568,3.046,6.933,6.4,10.179,9.878
			c3.275,3.473,6.281,7.144,9.143,10.863c5.6,7.504,10.323,15.473,13.347,23.756c3.071,8.26,4.503,16.763,4.189,24.982
			c-0.287,8.223-2.273,16.128-5.303,23.338c-0.756,1.804-1.574,3.567-2.445,5.287c-0.33,0.693-0.611,1.184-0.924,1.771
			c-0.591,1.132-1.215,2.214-1.829,3.26c-1.222,2.094-2.475,4.007-3.651,5.752c-2.382,3.476-4.555,6.224-6.138,8.145
			c-7.185,8.697-13.36,15.25-19.164,21.751c-2.961,3.273-5.842,6.457-8.816,9.745C424.653,190.549,421.483,193.997,417.764,197.561z
			"/>
		<path d="M191.096,404.894c3.01,2.446,6.081,4.39,9.182,6.062c3.113,1.648,6.284,3.042,9.702,4.056
			c1.696,0.569,3.478,0.921,5.311,1.33c0.923,0.165,1.869,0.291,2.832,0.426c0.482,0.063,0.969,0.127,1.46,0.191
			c0.496,0.032,0.997,0.064,1.502,0.097c1.014,0.053,2.049,0.111,3.11,0.133c1.066-0.042,2.155-0.086,3.271-0.13
			c1.118-0.021,2.26-0.204,3.432-0.364c1.171-0.179,2.38-0.298,3.597-0.633c1.653-0.411,3.842-0.834,6.934-1.987
			c3.062-1.177,7.208-2.818,12.047-6.805c2.855-2.431,5.735-5.617,7.688-10.015c0.243-0.549,0.457-1.129,0.668-1.714l0.178-0.562
			l0.202-0.698c0.139-0.479,0.202-0.914,0.295-1.365c0.215-0.898,0.259-1.8,0.343-2.707c-0.012-0.892-0.01-1.795-0.16-2.654
			c-0.237-1.739-0.854-3.343-1.788-4.741c-0.927-1.393-2.352-2.525-3.919-3.186c-1.571-0.592-3.208-0.75-5.141-0.396
			c-0.948,0.18-1.935,0.492-2.907,0.75c-0.795,0.255-1.595,0.511-2.397,0.769c-1.954,0.641-3.855,1.24-5.798,1.783
			c-3.869,1.103-7.842,1.907-11.878,2.312c-8.054,0.771-16.337-0.383-23.492-4.189c-3.588-1.86-6.903-4.295-9.9-7.102
			c-2.981-2.834-5.598-6.068-7.969-9.407c-1.135-1.719-2.295-3.389-3.275-5.175c-0.508-0.888-1.024-1.721-1.519-2.633
			c-0.492-0.92-0.98-1.834-1.466-2.739c-0.987-1.806-1.855-3.609-2.765-5.36c-0.836-1.769-1.72-3.489-2.461-5.189
			c-1.569-3.388-2.861-6.643-3.916-9.675c-1.046-3.028-1.821-5.856-2.197-8.292c-0.401-2.438-0.351-4.455-0.057-5.7
			c0.299-1.277,0.66-1.721,1.072-2.086c0.831-0.756,2.26-1.09,2.203-1.082c0,0,0.063-0.016,0.215-0.053
			c0.153-0.037,0.377-0.108,0.777-0.178c0.795-0.159,2.09-0.361,4.819-0.509c0.356-0.022,0.729-0.045,1.118-0.069
			c0.287-0.006,0.587-0.012,0.9-0.019c0.593-0.047,1.285,0.042,2.017,0.07c1.492,0.16,3.271,0.501,5.328,1.159
			c1.027,0.327,2.123,0.737,3.274,1.236c0.577,0.247,1.165,0.521,1.766,0.815c0.359,0.184,0.729,0.373,1.108,0.567l-0.001-0.001
			v-0.001c0.027,0.151,0.055,0.305,0.083,0.46c0.343,1.857,0.736,3.798,1.192,5.837c0.389,1.727,0.942,4.08,1.737,6.948
			c0.802,2.868,1.818,6.25,3.312,10.034c0.731,1.892,1.618,3.885,2.686,5.963c1.067,2.074,2.353,4.244,4.134,6.442
			c0.891,1.097,1.928,2.2,3.187,3.253c0.598,0.531,1.381,1.019,2.089,1.508c0.804,0.449,1.632,0.899,2.546,1.25
			c0.959,0.311,1.896,0.664,2.953,0.765c0.518,0.069,1.04,0.14,1.56,0.172c0.518-0.007,1.038-0.026,1.56-0.059
			c1.072-0.018,1.994-0.311,2.982-0.533c0.464-0.094,1.033-0.335,1.551-0.535c0.53-0.219,1.047-0.43,1.566-0.697
			c1.064-0.606,2.117-1.263,2.94-2.153l0.659-0.629l0.542-0.729l0.516-0.749c0.148-0.263,0.269-0.544,0.396-0.819l0.361-0.839
			c0.088-0.29,0.158-0.588,0.23-0.885l0.194-0.896l0.051-0.922l0.051-0.924c-0.004-0.309-0.046-0.621-0.077-0.933
			c-0.074-0.625-0.147-1.247-0.324-1.864l-0.259-0.925l-0.144-0.459c-0.051-0.162-0.101-0.304-0.14-0.396l-0.525-1.288
			c-0.185-0.449-0.348-0.734-0.524-1.109c-0.174-0.353-0.35-0.719-0.526-1.03c-0.706-1.324-1.423-2.52-2.123-3.673
			c-1.404-2.306-2.757-4.448-3.93-6.576c-1.175-2.122-2.176-4.219-2.871-6.263c-1.421-4.122-1.461-7.81-0.067-11.208
			c0.008-0.033,0.185-0.372,0.325-0.646l0.431-0.833l0.429-0.832l0.215-0.416l-0.064-0.41c-0.166-0.992-0.331-1.98-0.496-2.965
			c-0.149-0.923-0.299-1.843-0.446-2.758l-0.137-0.843l-0.071-0.442c-0.044-0.139,0.007-0.316-0.155-0.407
			c-0.452-0.442-0.94-0.874-1.361-1.321l-0.624-0.671l-0.278-0.312l-0.502-0.59c-0.325-0.402-0.648-0.802-0.951-1.215
			c-0.611-0.821-1.183-1.658-1.688-2.512c-0.542-0.887-1.004-1.794-1.035-1.867c-0.48-0.925-0.854-1.868-0.883-1.906
			c-0.299-0.753-0.58-1.499-0.75-2.069c-0.092-0.284-0.177-0.519-0.215-0.69c-0.045-0.17-0.071-0.27-0.073-0.278
			c-1.486-5.383-0.84-9.973,0.092-13.499c1.011-3.542,2.323-6.065,3.247-7.784c0.517-0.872,1.02-1.719,1.51-2.545
			c0.238-0.418,0.474-0.831,0.707-1.238c0.262-0.38,0.521-0.755,0.776-1.125c0.509-0.744,0.997-1.479,1.469-2.207
			c0.501-0.695,1.038-1.326,1.528-1.987c0.947-1.371,2.062-2.439,3.042-3.649c0.513-0.573,1.073-1.065,1.596-1.614l0.79-0.812
			c0.27-0.259,0.56-0.484,0.837-0.732c2.19-2.042,4.611-3.755,7.385-5.3c2.784-1.507,5.951-2.865,9.774-3.405
			c-3.66-1.331-7.46-1.64-11.108-1.368c-3.653,0.299-7.269,1.188-10.652,2.825c-0.428,0.197-0.871,0.381-1.29,0.602
			c-0.41,0.237-0.821,0.475-1.234,0.714c-0.816,0.495-1.681,0.969-2.479,1.536c-1.539,1.186-3.23,2.365-4.655,3.873
			c-0.735,0.735-1.517,1.473-2.238,2.28c-0.675,0.838-1.365,1.695-2.072,2.572c-0.346,0.446-0.696,0.897-1.051,1.354
			c-0.309,0.479-0.621,0.965-0.938,1.458c-0.62,0.994-1.256,2.013-1.91,3.061c-1.19,2.172-2.938,5.426-4.361,10.359
			c-0.668,2.476-1.246,5.375-1.383,8.714c-0.137,3.329,0.16,7.1,1.262,11.045c0.003,0.012,0.043,0.159,0.109,0.409
			c0.062,0.252,0.178,0.596,0.312,1.011c0.253,0.834,0.654,1.917,1.09,3.001c0.035,0.054,0.579,1.412,1.255,2.72
			c0.047,0.104,0.699,1.388,1.454,2.625c0.709,1.191,1.496,2.349,2.339,3.481c0.418,0.568,0.862,1.123,1.312,1.676l0.696,0.819
			l0.351,0.394l-0.014-0.015l0.007-0.013l-0.026,0.051l-0.018,0.035l-0.101,0.228c-1.24,3.042-1.926,6.475-1.888,9.851
			c0.022,3.383,0.714,6.644,1.726,9.599c2.038,5.92,5.248,10.805,7.89,15.146c0.658,1.082,1.278,2.125,1.793,3.089
			c0.145,0.252,0.243,0.471,0.356,0.698c0.097,0.21,0.255,0.487,0.305,0.639c0.065,0.168,0.135,0.333,0.21,0.496l0.025,0.056
			l-0.001-0.002v-0.003l-0.015-0.029l0.033-0.007l-0.123,0.047c-0.06,0.017-0.048,0.035-0.193,0.047
			c-0.215,0.006-0.457,0.164-0.612,0.108l-0.254,0.033l-0.23-0.049c-0.154,0.038-0.324-0.104-0.502-0.119
			c-0.734-0.23-1.886-1.186-2.909-2.452c-1.038-1.271-1.998-2.823-2.818-4.432c-0.825-1.606-1.562-3.238-2.188-4.855
			c-1.276-3.215-2.205-6.269-2.935-8.868c-0.726-2.605-1.242-4.778-1.604-6.371c-0.421-1.883-0.787-3.684-1.103-5.389
			c-0.128-0.737-0.254-1.465-0.378-2.184c-0.136-0.877-0.27-1.742-0.401-2.595l-0.097-0.639c-0.083-0.175-0.324-0.245-0.479-0.373
			c-0.349-0.228-0.694-0.454-1.038-0.678c-0.68-0.454-1.388-0.875-2.069-1.295c-0.344-0.192-0.685-0.382-1.023-0.571
			c-0.323-0.179-0.737-0.415-0.874-0.479c-0.396-0.202-0.788-0.401-1.174-0.598c-0.775-0.38-1.537-0.733-2.288-1.056
			c-1.5-0.649-2.95-1.193-4.354-1.641c-2.804-0.896-5.409-1.417-7.764-1.66c-1.198-0.073-2.29-0.177-3.351-0.123
			c-0.514,0.015-1.007,0.029-1.479,0.043c-0.37,0.023-0.724,0.045-1.062,0.066c-2.834,0.148-5.075,0.438-6.402,0.719
			c-0.667,0.123-1.15,0.258-1.448,0.333c-0.299,0.078-0.423,0.11-0.423,0.11s-0.601,0.164-1.759,0.578
			c-1.151,0.465-2.989,1.214-5.068,3.036c-1.038,0.895-2.039,2.114-2.895,3.529c-0.362,0.711-0.815,1.479-1.069,2.262
			c-0.14,0.396-0.283,0.799-0.429,1.21c-0.113,0.402-0.204,0.807-0.303,1.224c-0.748,3.331-0.629,6.739-0.102,10.104
			c0.527,3.384,1.481,6.785,2.68,10.281c1.208,3.488,2.645,7.089,4.325,10.729c0.807,1.849,1.73,3.66,2.626,5.55
			c0.951,1.843,1.877,3.76,2.902,5.641c0.506,0.947,1.016,1.901,1.529,2.863c0.521,0.965,1.13,1.966,1.699,2.957
			c1.109,2.011,2.443,3.959,3.759,5.941c2.758,3.897,5.863,7.75,9.537,11.246c3.691,3.469,7.909,6.591,12.571,9.009
			c4.652,2.425,9.727,4.14,14.855,4.977c5.126,0.858,10.27,0.955,15.174,0.49c4.899-0.486,9.592-1.458,13.946-2.697
			c2.176-0.608,4.292-1.278,6.267-1.927l0.365-0.118l0.181-0.06h-0.001l-0.005,0.002l-0.011,0.003l-0.021,0.003l-0.019-0.034
			l0.004-0.019l0.009-0.03l0.011-0.041l0.003-0.012l-0.029,0.1c-0.102,0.267-0.194,0.536-0.314,0.805
			c-0.952,2.173-2.632,4.163-4.475,5.72c-3.126,2.603-6.205,3.902-8.533,4.787c-2.356,0.897-4.116,1.235-5.41,1.579
			c-3.882,0.828-7.441,1.381-10.841,1.566c-0.424,0.038-0.844,0.076-1.261,0.113c-0.42,0.016-0.836,0.03-1.248,0.045
			c-0.831,0.042-1.648,0.082-2.455,0.122c-1.62-0.013-3.22,0.099-4.807,0.046c-3.184,0.021-6.337-0.116-9.653-0.332
			C198.366,405.96,194.886,405.64,191.096,404.894z"/>
		<path d="M201.096,140.227c1.844,10.154,3.408,16.907,8.279,27.858c3.41,7.576,11.779,26.171,20.233,44.955
			c5.654,12.538,11.337,25.138,16.232,35.994c2.449,5.428,4.701,10.419,6.654,14.749c1.265,2.802,2.432,5.389,3.486,7.726
			c0.204,0.452,0.405,0.898,0.604,1.338l0.074,0.165l0.179-0.014l0.357-0.028c0.237-0.019,0.473-0.038,0.706-0.056
			c0.936-0.074,1.843-0.146,2.722-0.215c1.148-0.091,2.223-0.177,3.217-0.255c19.374-1.533,31.933-2.527,39.647-3.138
			c3.396-0.269,6.26-0.495,8.645-0.684c0.677-0.054,1.32-0.104,1.931-0.153c0.305-0.024,0.602-0.048,0.89-0.07
			c0.145-0.012,0.287-0.023,0.428-0.034l0.099-0.012l-0.041-0.096l-0.081-0.19c-0.429-1.006-0.808-1.894-1.139-2.67
			c-1.324-3.105-1.889-4.43-1.889-4.43s-9.787-22.978-22.042-51.749c-5.976-14.024-12.553-29.46-18.839-44.215
			c-3.145-7.376-6.216-14.583-9.104-21.356c-0.795-1.864-1.577-3.699-2.345-5.5c-0.351-0.82-0.698-1.637-1.045-2.45l-0.519-1.216
			l-0.145-0.278l-0.329,0.012l-0.656,0.024c-1.609,0.059-3.201,0.117-4.776,0.175c-2.457,0.091-4.804,0.178-7.015,0.259
			c-8.396,0.321-13.155,0.502-15.782,0.603C217.757,135.774,211.012,137.371,201.096,140.227
			c10.098,2.124,16.941,3.222,28.923,2.845c2.627-0.092,7.387-0.258,15.784-0.552c2.211-0.08,4.559-0.166,7.016-0.254
			c0.621-0.022,0.342-0.012,0.402-0.015l-0.01,0l-0.01-0.014c0.627,1.47,1.266,2.968,1.914,4.491
			c2.889,6.774,5.96,13.979,9.105,21.356c6.292,14.751,12.875,30.185,18.856,44.207c11.659,27.321,20.97,49.141,20.97,49.141
			l-0.001,0l-0.001-0.001l0.001-0.001l0.001,0c-0.376,0.03-0.768,0.061-1.174,0.093c-7.716,0.607-20.274,1.597-39.648,3.122
			c-0.38,0.03-0.775,0.061-1.186,0.093c-0.169,0.013-0.341,0.026-0.516,0.04l0.002,0l0.008,0l0.003,0.005l0.001,0.001l-0.162-0.361
			c-0.109-0.244-0.221-0.49-0.333-0.739c-0.448-0.997-0.917-2.038-1.405-3.121c-1.95-4.331-4.199-9.324-6.644-14.753
			c-4.893-10.857-10.57-23.46-16.221-35.999c-8.476-18.774-16.867-37.359-20.286-44.931
			C211.506,153.978,207.482,148.333,201.096,140.227z"/>
		<path d="M234.43,139.56c1.518,10.208,2.864,17.007,7.381,28.109c0.771,1.878,2.026,4.935,4.635,11.286
			c2.886,6.977,9.724,23.505,9.724,23.505s5.696,13.846,8.854,21.522c3.509,8.466,5.681,13.707,6.815,16.444
			c4.628,11.058,8.469,16.828,14.592,25.134c-1.518-10.207-2.864-17.006-7.381-28.11c-1.127-2.74-3.283-7.987-6.767-16.464
			c-3.175-7.668-8.902-21.501-8.902-21.501s-6.81-16.54-9.684-23.521c-2.631-6.342-3.896-9.394-4.675-11.27
			C244.394,153.638,240.553,147.867,234.43,139.56z"/>
		<path d="M217.096,172.894c2.654,2.363,4.44,3.625,7.473,3.536c3.285-0.097,19.72-0.974,19.72-0.974s16.44-0.747,19.719-0.974
			c3.028-0.21,4.681-1.642,7.089-4.255c-2.654-2.364-4.439-3.625-7.474-3.537c-3.285,0.097-19.719,0.974-19.719,0.974
			s-16.44,0.746-19.72,0.974C221.157,168.849,219.505,170.28,217.096,172.894z"/>
		<path d="M237.763,219.561c2.568,2.33,4.29,3.569,7.174,3.442c3.124-0.138,18.745-1.217,18.745-1.217s15.63-0.95,18.745-1.217
			c2.877-0.247,4.424-1.699,6.669-4.341c-2.568-2.33-4.289-3.57-7.174-3.443c-3.124,0.137-18.745,1.217-18.745,1.217
			s-15.63,0.949-18.746,1.217C241.555,215.466,240.008,216.918,237.763,219.561z"/>
		<path d="M255.763,138.228c4.403,2.949,7.294,4.447,11.726,3.675c4.8-0.836,28.728-5.6,28.728-5.6s23.964-4.572,28.727-5.6
			c4.397-0.949,6.515-3.423,9.487-7.81c-4.402-2.949-7.294-4.447-11.727-3.675c-4.8,0.835-28.727,5.599-28.727,5.599
			s-23.964,4.571-28.727,5.6C260.854,131.367,258.736,133.84,255.763,138.228z"/>
		<path d="M309.763,264.894c4.688,2.629,7.739,3.917,12.232,2.825c4.867-1.182,29.093-7.668,29.093-7.668s24.274-6.298,29.092-7.669
			c4.447-1.266,6.468-3.89,9.25-8.488c-4.688-2.629-7.738-3.917-12.232-2.826c-4.867,1.181-29.092,7.668-29.092,7.668
			s-24.275,6.297-29.093,7.669C314.565,257.671,312.545,260.295,309.763,264.894z"/>
		<path d="M325.762,125.56c2.548,10,4.58,16.628,10.202,27.213c3.562,6.638,12.122,22.585,20.862,38.87
			c5.849,10.876,11.759,21.866,16.924,31.47c2.583,4.802,4.98,9.257,7.09,13.178c1.523,2.832,2.943,5.471,4.241,7.884
			c0.226,0.418,0.447,0.832,0.667,1.241l0.328,0.609l0.082,0.148l0.15-0.08l0.302-0.159c0.8-0.424,1.579-0.836,2.337-1.238
			c1.478-0.783,2.872-1.522,4.179-2.214c17.193-9.107,28.659-15.18,35.827-18.977c2.625-1.391,4.857-2.573,6.729-3.564
			c0.639-0.338,1.246-0.66,1.823-0.966c0.289-0.153,0.57-0.302,0.845-0.447l0.077-0.062l-0.056-0.101l-0.11-0.199
			c-0.073-0.132-0.146-0.262-0.217-0.391c-0.568-1.026-1.072-1.936-1.515-2.734c-1.559-2.813-2.251-4.064-2.251-4.064
			s-11.856-21.433-26.411-47.741c-7.278-13.153-15.232-27.524-22.715-41.045c-3.742-6.759-7.367-13.306-10.731-19.382
			c-1.271-2.297-2.519-4.549-3.738-6.75c-0.404-0.73-0.807-1.457-1.206-2.179l-0.301-0.536l-0.521,0.33l-1.035,0.658
			c-1.321,0.839-2.626,1.667-3.913,2.485c-1.479,0.94-2.879,1.831-4.182,2.658c-6.348,4.046-9.619,6.131-11.54,7.355
			C337.897,113.306,332.881,118.089,325.762,125.56c9.79-3.264,16.252-5.77,26.404-12.144c1.926-1.218,5.204-3.292,11.566-7.315
			c0.819-0.52,1.701-1.078,2.633-1.668l-0.023,0.004l-0.01-0.016c0.4,0.724,0.806,1.456,1.215,2.194
			c3.363,6.076,6.988,12.623,10.73,19.382c7.488,13.518,15.447,27.886,22.731,41.036c14.573,26.298,26.445,47.723,26.445,47.723
			s0.097,0.176,0.304,0.55h-0.001l-0.001-0.001l0.001-0.001c-0.755,0.399-1.573,0.833-2.457,1.3
			c-7.169,3.793-18.638,9.862-35.835,18.961l-0.107,0.057v0l0.001,0l0.002-0.001l0.003-0.002l0.008-0.001l0.004,0.004l0.001,0.003
			l0.001,0.001l-0.018-0.034l-0.092-0.17c-0.489-0.911-0.998-1.858-1.525-2.839c-2.106-3.923-4.5-8.38-7.08-13.183
			c-5.162-9.606-11.068-20.597-16.914-31.476c-8.762-16.273-17.342-32.209-20.914-38.842
			C337.105,138.552,332.699,133.201,325.762,125.56z"/>
		<path d="M347.762,112.894c2.662,9.971,4.769,16.575,10.511,27.095c0.979,1.779,2.57,4.674,5.88,10.69
			c3.258,5.885,10.975,19.827,10.975,19.827s6.435,11.684,10.001,18.161c4.443,8.016,7.193,12.978,8.63,15.569
			c5.848,10.464,10.315,15.763,17.338,23.324c-2.661-9.97-4.768-16.573-10.51-27.096c-1.429-2.596-4.164-7.565-8.583-15.595
			c-3.583-6.468-10.047-18.135-10.047-18.135s-7.69-13.957-10.938-19.848c-3.33-6.004-4.933-8.894-5.918-10.669
			C359.253,125.755,354.785,120.455,347.762,112.894z"/>
		<path d="M343.763,157.561c3.272,0.954,5.319,1.308,7.744-0.062c2.626-1.484,15.581-9.25,15.581-9.25s13.021-7.656,15.58-9.251
			c2.364-1.474,3.033-3.439,3.762-6.769c-3.272-0.955-5.318-1.308-7.744,0.062c-2.627,1.483-15.58,9.25-15.58,9.25
			s-13.021,7.655-15.581,9.251C345.161,152.265,344.491,154.23,343.763,157.561z"/>
		<path d="M367.763,204.228c3.313,0.917,5.387,1.246,7.85-0.162c2.667-1.524,15.823-9.494,15.823-9.494s13.225-7.859,15.824-9.495
			c2.401-1.511,3.086-3.495,3.836-6.85c-3.313-0.918-5.387-1.247-7.85,0.161c-2.667,1.524-15.823,9.494-15.823,9.494
			s-13.225,7.858-15.824,9.495C369.198,198.888,368.513,200.872,367.763,204.228z"/>
		<path d="M233.764,410.893c2.938,4.234,5.25,7.829,7.904,11.396c2.639,3.579,5.562,7.173,9.438,11.607
			c1.296,1.516,3.48,3.93,7.625,9.23c2.501,3.132,6.452,8.59,9.476,13.418c0.746,1.212,1.487,2.357,2.115,3.425
			c0.604,1.079,1.149,2.054,1.607,2.873c0.457,0.819,0.828,1.484,1.084,1.944c0.223,0.454,0.347,0.706,0.347,0.706
			s0.103,0.211,0.289,0.596c0.177,0.39,0.481,0.928,0.767,1.65c0.614,1.419,1.43,3.417,2.155,5.748
			c0.773,2.311,1.407,4.967,1.962,7.56c0.519,2.604,0.922,5.161,1.171,7.31c0.527,4.377,0.686,7.973,0.761,10.816
			c0.078,2.846,0.036,4.948,0.016,6.39c-0.121,5.834-0.177,10.43-0.031,14.851c0.121,4.423,0.476,8.665,0.647,13.814
			c2.269-4.644,3.839-8.731,5.037-13.141c1.174-4.416,1.956-9.188,2.146-15.339c0.037-1.52,0.093-3.736,0.02-6.758
			c-0.071-3.02-0.232-6.847-0.797-11.571c-0.263-2.316-0.698-5.095-1.272-7.948c-0.611-2.849-1.322-5.779-2.196-8.379
			c-0.823-2.609-1.759-4.887-2.472-6.51c-0.331-0.82-0.684-1.452-0.891-1.899c-0.218-0.443-0.338-0.687-0.338-0.687
			s-0.143-0.292-0.398-0.818c-0.272-0.494-0.666-1.209-1.151-2.089c-0.487-0.878-1.066-1.922-1.707-3.076
			c-0.665-1.138-1.441-2.352-2.229-3.638c-3.187-5.12-7.315-10.835-9.934-14.077c-4.323-5.512-6.59-7.993-7.947-9.55
			c-4.057-4.549-7.603-7.772-11.243-10.499C242.069,415.539,238.355,413.263,233.764,410.893z"/>
		<path d="M354.43,545.56c-0.637-5.11-0.758-9.33-0.966-13.666c-0.159-4.331-0.436-8.801-0.236-14.357
			c0.045-1.503,0.205-3.753,0.704-6.45c0.062-0.337,0.126-0.682,0.191-1.035c0.086-0.346,0.174-0.698,0.263-1.059
			c0.089-0.361,0.18-0.729,0.271-1.104c0.116-0.364,0.235-0.735,0.355-1.112l0.147-0.467c0.076-0.228,0.133-0.466,0.229-0.685
			c0.177-0.447,0.354-0.897,0.534-1.352c0.162-0.463,0.389-0.896,0.602-1.338c0.222-0.438,0.412-0.9,0.659-1.331
			c0.511-0.85,0.974-1.748,1.589-2.557c0.55-0.856,1.222-1.635,1.888-2.432c2.723-3.172,6.376-5.582,10.768-7.896
			c4.347-2.291,9.122-4.391,13.996-6.511c9.769-4.234,20.026-8.511,29.759-13.515c4.866-2.496,9.636-5.099,14.133-7.951
			c4.505-2.831,8.804-5.795,12.699-8.989c7.894-6.251,14.183-13.326,18.603-19.967c4.442-6.648,7.001-12.792,8.503-17.112
			c0.735-2.169,1.153-3.914,1.508-5.079c0.166-0.585,0.293-1.033,0.379-1.335c0.062-0.307,0.096-0.464,0.096-0.464
			s0.127-0.632,0.366-1.823c0.118-0.596,0.266-1.332,0.438-2.199c0.181-0.866,0.383-1.864,0.486-2.999
			c0.248-2.264,0.686-5.018,0.718-8.207c0.229-3.191,0.024-6.787-0.126-10.727c-0.374-3.824-0.781-7.986-1.215-12.419
			c-0.054-0.554-0.109-1.112-0.164-1.675c-0.081-0.558-0.162-1.12-0.244-1.686c-0.163-1.132-0.329-2.279-0.497-3.441
			c-0.337-2.324-0.682-4.706-1.033-7.139c-0.307-2.441-0.85-4.885-1.287-7.393c-0.464-2.502-0.935-5.045-1.412-7.62
			c-1.045-5.128-2.248-10.354-3.414-15.649c-0.661-2.627-1.325-5.27-1.991-7.918c-0.68-2.645-1.296-5.315-2.062-7.939
			c-1.491-5.259-2.873-10.546-4.49-15.677c-0.781-2.574-1.558-5.129-2.325-7.658c-0.815-2.513-1.622-4.999-2.418-7.451
			c-0.804-2.448-1.564-4.874-2.398-7.225c-0.793-2.296-1.573-4.551-2.335-6.756c-2.654-7.51-4.934-13.634-6.126-16.672
			c-4.361-11.233-8.194-17.107-14.477-25.296c1.71,10.172,2.979,16.91,7.185,28.067c1.148,3.016,3.387,9.078,6.006,16.506
			c0.753,2.18,1.523,4.41,2.308,6.681c0.825,2.325,1.575,4.722,2.37,7.142c0.786,2.422,1.583,4.879,2.389,7.363
			c0.759,2.497,1.525,5.021,2.297,7.562c1.599,5.069,2.96,10.279,4.433,15.467c0.758,2.59,1.363,5.217,2.034,7.822
			c0.657,2.608,1.312,5.21,1.964,7.797c1.146,5.205,2.334,10.344,3.362,15.378c0.469,2.524,0.931,5.017,1.387,7.47
			c0.43,2.455,0.967,4.857,1.265,7.239c0.346,2.376,0.684,4.703,1.013,6.973c0.165,1.136,0.328,2.256,0.489,3.362
			c0.08,0.553,0.16,1.102,0.239,1.646c0.054,0.547,0.107,1.09,0.161,1.628c0.424,4.311,0.823,8.358,1.189,12.076
			c0.131,3.632,0.335,6.938,0.119,9.838c-0.019,2.916-0.426,5.395-0.642,7.443c-0.088,1.029-0.272,1.926-0.437,2.703
			c-0.155,0.778-0.287,1.439-0.394,1.976c-0.212,1.071-0.324,1.639-0.324,1.639s-0.028,0.142-0.084,0.417
			c-0.078,0.27-0.193,0.67-0.344,1.193c-0.323,1.039-0.692,2.604-1.35,4.54c-1.35,3.856-3.626,9.319-7.616,15.287
			c-3.977,5.959-9.662,12.393-17.018,18.212c-3.619,2.968-7.666,5.755-11.941,8.439c-4.264,2.703-8.84,5.199-13.541,7.608
			c-9.405,4.833-19.471,9.032-29.319,13.298c-4.928,2.145-9.814,4.283-14.538,6.77c-1.177,0.663-2.354,1.229-3.506,1.965
			c-0.576,0.352-1.151,0.701-1.724,1.05c-0.571,0.357-1.137,0.79-1.7,1.182c-2.27,1.577-4.283,3.471-6.072,5.467
			c-1.78,2.017-3.249,4.213-4.482,6.439c-0.313,0.554-0.562,1.133-0.842,1.693c-0.271,0.564-0.551,1.12-0.761,1.696
			c-0.224,0.571-0.446,1.138-0.668,1.699c-0.118,0.279-0.191,0.568-0.287,0.851l-0.183,0.579c-0.147,0.468-0.291,0.929-0.434,1.381
			c-0.113,0.457-0.224,0.906-0.333,1.346c-0.106,0.44-0.211,0.872-0.313,1.295c-0.078,0.424-0.155,0.84-0.23,1.245
			c-0.59,3.245-0.755,5.875-0.793,7.611c-0.162,6.436,0.913,11.342,2.418,15.736C349.402,537.387,351.459,541.328,354.43,545.56z"/>
		<path d="M377.096,288.894c0.562,2.525,1.366,4.814,2.317,6.969c0.96,2.154,2.103,4.174,3.53,6.11
			c1.424,1.938,3.145,3.794,5.341,5.502c2.182,1.712,4.895,3.249,8.237,4.283c1.143,0.306,2.651,0.749,4.919,0.965
			c1.128,0.119,2.445,0.179,3.967,0.104c0.815-0.018,1.421-0.09,2.206-0.141c0.755-0.058,1.562-0.12,2.425-0.186
			c1.638-0.131,3.836-0.309,6.212-0.5c2.358-0.193,4.85-0.363,6.986-0.37c2.144-0.024,3.824,0.246,4.471,0.543
			c0.381,0.12,0.457,0.271,0.601,0.315c0.086,0.091,0.115,0.148,0.12,0.145l0.122,0.102l0.108,0.225
			c0.048,0.083,0.129,0.147,0.171,0.345c0.05,0.177,0.132,0.33,0.199,0.559c0.048,0.265,0.105,0.547,0.175,0.843l0.026,0.112
			c0.179-0.198-0.399,0.449,0.401-0.443l-0.006,0.005l-0.01,0.011l-0.021,0.022l-0.042,0.044l-0.084,0.089l-0.17,0.18l-0.085,0.091
			l-0.007,0.088c0.002,0.103,0.015,0.266,0.007,0.324l-0.049-0.097c-0.035-0.036,0.062-0.219-0.016-0.044
			c-0.042,0.101-0.076,0.204-0.104,0.313c-0.457,1.046-1.662,2.613-3.068,3.943c-1.41,1.357-3.001,2.577-4.364,3.537
			c-3.475,2.438-6.622,4.049-9.118,5.231c-2.516,1.165-4.427,1.889-5.739,2.369c-5.331,1.908-9.571,3.133-13.687,4.224
			c-4.129,1.04-8.141,1.993-13.305,2.187c2.316,1.131,4.614,1.938,6.91,2.53c2.297,0.541,4.594,0.887,6.96,0.979
			c4.729,0.169,9.767-0.496,15.743-2.572c1.473-0.522,3.609-1.318,6.423-2.611c2.803-1.319,6.3-3.092,10.337-5.917
			c1.594-1.116,3.467-2.542,5.287-4.296c1.805-1.774,3.623-3.812,4.856-6.592c0.267-0.792,0.554-1.392,0.688-2.643
			c0.032-0.274,0.055-0.546,0.068-0.812c0.003-0.18-0.008-0.254-0.011-0.385l-0.014-0.347l-0.004-0.085l-0.002-0.042l-0.044-0.472
			l-0.045-0.217c-0.125-0.574-0.243-1.119-0.354-1.627c-0.15-0.527-0.363-1.05-0.533-1.503c-0.147-0.45-0.412-0.887-0.632-1.258
			c-0.221-0.372-0.42-0.686-0.585-0.938c-0.41-0.487-0.657-0.743-0.657-0.743s-0.072-0.077-0.209-0.223
			c-0.143-0.138-0.333-0.375-0.624-0.605c-0.588-0.437-1.487-1.129-2.592-1.542c-2.241-0.944-4.914-1.174-7.479-1.179
			c-2.584,0-5.217,0.184-7.616,0.376c-2.382,0.197-4.585,0.379-6.227,0.515c-0.849,0.066-1.643,0.128-2.386,0.186
			c-0.714,0.048-1.502,0.132-1.995,0.132c-1.089,0.058-2.018,0.018-2.814-0.064c-1.599-0.139-2.668-0.456-3.487-0.658
			c-2.392-0.721-4.478-1.68-6.375-2.778c-1.902-1.086-3.637-2.263-5.31-3.518c-1.677-1.251-3.302-2.573-4.948-4.045
			C380.456,292.457,378.768,290.853,377.096,288.894z"/>
		<path d="M323.096,358.227c-0.138,2.335,0.058,4.357,0.651,6.23c0.276,0.963,0.722,1.841,1.243,2.778
			c0.55,0.911,1.247,1.818,2.104,2.763c0.489,0.488,1.222,1.222,2.132,2.131c0.483,0.425,1.014,0.89,1.581,1.389
			c0.566,0.501,1.171,1.034,1.855,1.53c2.61,2.151,6.061,4.198,9.455,5.935c3.462,1.612,6.908,2.824,9.506,3.48
			c1.305,0.307,2.377,0.56,3.124,0.735c0.744,0.191,1.174,0.23,1.174,0.23s1.704,0.246,4.346,0.626
			c2.571,0.25,5.975,0.451,9.578,0.722c1.801,0.109,3.664,0.088,5.465,0.135c1.805,0.021,3.549,0.098,5.177-0.015
			c1.621-0.072,3.096-0.139,4.332-0.193c1.234-0.049,2.249-0.225,2.916-0.284c1.237-0.156,2.325-0.342,3.327-0.663
			c1.006-0.354,1.909-0.771,2.757-1.255c0.843-0.453,1.651-1.131,2.417-1.806c0.383-0.34,0.765-0.705,1.135-1.137
			c0.364-0.419,0.739-0.839,1.059-1.332c-0.578-0.073-1.114-0.223-1.621-0.337c-0.494-0.107-0.979-0.248-1.454-0.379
			c-0.948-0.267-1.772-0.415-2.673-0.62c-0.883-0.177-1.757-0.278-2.68-0.289c-0.936-0.039-1.954-0.055-3.068,0.058
			c-0.61,0.038-1.5,0.189-2.649,0.224c-1.147,0.046-2.517,0.101-4.021,0.16c-1.496,0.106-3.162,0.03-4.866,0.011
			c-1.708-0.045-3.458-0.017-5.181-0.118c-3.437-0.253-6.765-0.438-9.144-0.658c-2.284-0.318-3.757-0.523-3.757-0.523
			s-0.374-0.032-1.008-0.205c-0.64-0.153-1.558-0.374-2.673-0.643c-2.223-0.567-5.146-1.618-8.086-2.985
			c-2.874-1.494-5.811-3.215-8.037-5.054c-0.587-0.418-1.102-0.874-1.586-1.301c-0.488-0.422-0.944-0.816-1.359-1.176
			c-0.788-0.768-1.424-1.386-1.847-1.798c-0.751-0.79-1.479-1.443-2.201-2.02c-0.691-0.6-1.456-1.068-2.188-1.546
			C326.806,360.098,325.142,359.356,323.096,358.227z"/>
		<path d="M76.432,640c0.399-5.132,1.359-9.678,2.441-13.919c1.101-4.237,2.38-8.17,3.919-11.979
			c1.534-3.807,3.292-7.503,5.499-11.172c2.191-3.679,4.937-7.257,8.531-10.747c0.309-0.292,0.619-0.63,0.994-0.96
			c0.384-0.321,0.8-0.669,1.253-1.047c0.866-0.8,2.021-1.57,3.345-2.536c2.744-1.805,6.532-4.013,12.294-5.973
			c0.513-0.175,1.068-0.364,1.661-0.565c0.6-0.188,1.261-0.34,1.938-0.527c0.681-0.183,1.39-0.374,2.121-0.571
			c0.707-0.198,1.639-0.407,2.477-0.618c3.453-0.849,7.165-1.762,10.58-2.601c6.826-1.689,12.463-3.085,12.463-3.085
			s18.896-4.579,29.371-7.118c17.8-4.549,28.782-7.5,34.526-9.006c5.804-1.553,10.945-3.062,15.655-4.688
			c4.705-1.648,8.995-3.346,13.122-5.156c8.251-3.615,15.872-7.677,24.808-12.837c-10.313,0.371-18.915,0.72-27.834,1.797
			c-4.457,0.54-8.988,1.258-13.85,2.229c-4.868,0.949-10.085,2.083-15.877,3.57c-5.725,1.475-16.686,4.299-34.396,8.861
			c-10.418,2.563-29.209,7.188-29.209,7.188s-5.619,1.354-12.424,2.993c-3.401,0.824-7.099,1.722-10.539,2.556
			c-0.883,0.221-1.651,0.391-2.574,0.641c-0.9,0.242-1.772,0.478-2.608,0.702c-0.835,0.233-1.637,0.43-2.385,0.667
			c-0.745,0.257-1.444,0.498-2.089,0.721c-7.251,2.473-12.354,5.412-16.048,7.887c-1.813,1.311-3.359,2.395-4.571,3.495
			c-0.619,0.53-1.188,1.017-1.713,1.467c-0.514,0.462-0.952,0.928-1.375,1.339c-4.963,4.9-8.404,10.236-10.581,15.451
			c-2.202,5.22-3.308,10.28-3.736,15.146c-0.431,4.872-0.147,9.575,0.647,14.262C73.081,630.54,74.366,635.253,76.432,640z"/>
		<path d="M281.763,522.226c-2.592-0.081-5.13,0.271-7.57,0.817c-2.444,0.555-4.797,1.358-7.044,2.388
			c-2.248,1.026-4.4,2.273-6.395,3.767c-1.03,0.716-1.953,1.552-2.921,2.374c-0.897,0.874-1.85,1.741-2.678,2.713
			c-3.407,3.826-6.225,8.468-8.139,13.811c-1.917,5.343-3.01,11.351-3.183,17.943c-0.019,1.115-0.092,2.417-0.017,3.942
			c0.059,1.527,0.056,3.325,0.265,5.401c0.088,1.042,0.184,2.166,0.286,3.381c0.157,1.198,0.325,2.487,0.506,3.875
			c0.156,1.396,0.445,2.852,0.718,4.426c0.14,0.786,0.284,1.599,0.434,2.439c0.171,0.86,0.408,1.805,0.624,2.749
			c0.146,0.601,0.273,1.229,0.454,1.876c0.194,0.645,0.396,1.312,0.604,2c0.221,0.687,0.404,1.402,0.679,2.119
			c0.272,0.716,0.552,1.451,0.837,2.202c0.145,0.375,0.291,0.755,0.438,1.138c0.172,0.375,0.346,0.754,0.521,1.136
			c0.354,0.764,0.715,1.54,1.08,2.329c0.849,1.525,1.641,3.143,2.67,4.666c3.849,6.278,9.552,11.937,15.346,16.038
			c5.833,4.088,11.672,6.739,15.966,8.311c2.146,0.81,3.918,1.348,5.145,1.713c1.226,0.376,1.915,0.541,1.915,0.541
			s0.57,0.17,1.62,0.427c0.525,0.124,1.164,0.297,1.919,0.458c0.377,0.083,0.78,0.172,1.208,0.266
			c0.736,0.139,1.515,0.285,2.333,0.438c1.712,0.311,3.627,0.583,5.626,0.761c0.991,0.071,2.017,0.146,3.075,0.223
			c0.528,0.037,1.065,0.074,1.609,0.112c0.274,0.02,0.551,0.038,0.829,0.058l0.21,0.015c0.074,0.011,0.15,0.024,0.156-0.071
			l0.146-0.401c0.78-2.148,1.603-4.41,2.456-6.762c0.799-2.213,1.962-5.336,2.172-6.116c4.105-12.709,9.102-28.176,12.666-39.208
			c0.632-1.958,1.205-3.732,1.229-3.804c-4.723-0.482-9.523-0.873-13.351-1.541c-0.881-0.194-1.749-0.385-2.605-0.574
			c-0.399-0.089-0.796-0.179-1.189-0.267l-0.596-0.172c-0.784-0.236-1.564-0.424-2.287-0.689c-2.954-0.929-5.403-2.05-7.479-3.104
			c-2.062-1.08-3.72-2.149-5.066-3.128c-0.657-0.504-1.26-0.967-1.811-1.39c-0.514-0.453-0.949-0.888-1.364-1.262
			c-0.931-0.771-1.636-1.669-2.4-2.486l-0.571-0.61l-0.48-0.658c-0.324-0.433-0.646-0.86-0.962-1.283
			c-1.257-1.67-2.169-3.378-3.006-5.192c-1.646-3.612-2.676-7.488-3.43-11.469c-0.757-3.99-1.204-8.113-1.439-12.495
			C281.309,532.009,281.264,527.351,281.763,522.226c-2.856,4.313-5.028,8.657-6.758,13.067c-1.706,4.422-2.951,8.957-3.489,13.867
			c-0.524,4.896-0.418,10.223,1.226,15.985c0.823,2.849,2.051,5.879,3.826,8.69c0.451,0.691,0.907,1.391,1.369,2.099
			c0.235,0.351,0.466,0.71,0.716,1.057c0.271,0.328,0.543,0.658,0.817,0.99c1.108,1.32,2.227,2.71,3.574,3.899
			c0.612,0.573,1.281,1.227,2.047,1.902c0.799,0.625,1.672,1.308,2.624,2.053c1.937,1.428,4.279,2.945,7.088,4.424
			c2.814,1.449,6.078,2.925,9.871,4.133c0.94,0.338,1.93,0.59,2.938,0.89c0.321,0.091,0.647,0.183,0.978,0.275l0.269,0.066
			l0.068,0.018l-0.002-0.001h-0.005l-0.011-0.001l-0.022-0.002l-0.001-0.01c-2.29,7.115-5.501,17.09-8.139,25.286
			c-0.604,1.879-0.362,1.136-0.407,1.283l0.009-0.007l0.009,0.013l-0.011-0.001l-0.006-0.001l-0.113-0.024
			c-0.346-0.074-0.672-0.145-0.976-0.21c-0.609-0.126-1.128-0.268-1.554-0.364c-0.851-0.203-1.312-0.34-1.312-0.34
			s-0.56-0.135-1.546-0.444c-0.989-0.3-2.422-0.738-4.131-1.394c-3.435-1.266-8.006-3.395-12.369-6.468
			c-4.324-3.104-8.394-7.156-11.123-11.64c-0.747-1.078-1.292-2.255-1.918-3.338c-0.263-0.571-0.521-1.133-0.775-1.686
			c-0.129-0.275-0.257-0.548-0.383-0.817c-0.106-0.281-0.212-0.559-0.316-0.834c-0.425-1.096-0.839-2.141-1.12-3.177
			c-0.158-0.511-0.312-1.005-0.461-1.482c-0.138-0.482-0.23-0.964-0.344-1.416c-0.164-0.729-0.344-1.394-0.487-2.11
			c-0.132-0.741-0.26-1.459-0.383-2.152c-0.242-1.387-0.508-2.68-0.64-3.883c-0.161-1.204-0.311-2.321-0.45-3.361
			c-0.09-1.035-0.173-1.993-0.25-2.881c-0.193-1.782-0.184-3.262-0.246-4.541c-0.078-1.283-0.016-2.331-0.012-3.245
			c0.215-10.78,1.961-18.589,5.148-25.612c0.379-0.897,0.862-1.721,1.291-2.602c0.496-0.824,0.944-1.708,1.5-2.516
			c1.046-1.677,2.258-3.291,3.636-4.868c1.376-1.58,2.928-3.118,4.7-4.574C277.484,524.776,279.453,523.361,281.763,522.226z"/>
		<path d="M353.095,536.227c0.87,5.073,0.383,9.668-0.741,13.55c-0.113,0.489-0.301,0.96-0.474,1.424
			c-0.179,0.462-0.319,0.923-0.514,1.365l-0.614,1.293l-0.296,0.633l-0.364,0.602l-0.695,1.183c-0.228,0.39-0.54,0.741-0.794,1.109
			c-0.272,0.362-0.513,0.731-0.79,1.082l-0.905,1.006c-0.312,0.326-0.547,0.688-0.901,0.988l-1,0.929l-0.486,0.468l-0.241,0.236
			l-0.31,0.261c-0.412,0.351-0.826,0.704-1.243,1.059c-1.664,1.418-3.255,2.947-5.104,4.391c-0.898,0.741-1.803,1.504-2.717,2.291
			c-0.954,0.753-1.929,1.521-2.928,2.308c-0.493,0.399-0.991,0.804-1.497,1.213c-0.537,0.402-1.08,0.811-1.631,1.224
			c-0.547,0.417-1.102,0.84-1.662,1.269l-0.421,0.324l-0.212,0.163l-0.105,0.082l-0.215,0.149c-0.617,0.426-1.239,0.855-1.865,1.288
			c-1.27,0.88-2.689,1.863-4.989,3.457c-2.451,1.552-6.015,3.699-11.207,6.889c4.729,3.317,10.76,7.546,21.972,15.408
			c9.709,6.78,32.708,22.843,32.708,22.843c-0.408-0.244,2.132,1.404,5.955,3.901c1.936,1.263,4.247,2.771,6.83,4.455
			c0.646,0.422,1.309,0.854,1.987,1.296c0.339,0.222,0.683,0.445,1.029,0.672c0.168,0.095,0.358,0.266,0.512,0.301l0.269-0.567
			c0.705-1.483,1.437-3.024,2.188-4.608c0.74-1.608,1.5-3.262,2.273-4.944c0.697-1.802,1.407-3.636,2.123-5.486
			c0.318-0.936,0.638-1.876,0.957-2.819l0.503-1.552c0.332-1.037,0.609-2.088,0.913-3.124c0.622-2.068,1.058-4.151,1.553-6.111
			c0.39-1.986,0.806-3.86,1.088-5.585c1.633-9.713,1.748-17.817,1.343-24.202c-0.136-1.598-0.263-3.09-0.381-4.48
			c-0.158-1.389-0.403-2.669-0.58-3.854c-0.194-1.183-0.373-2.268-0.535-3.257c-0.237-0.979-0.452-1.864-0.646-2.658
			c-0.413-1.596-0.746-3.188-1.235-4.654c-0.51-1.458-1.008-2.878-1.493-4.265c-0.459-1.392-1.095-2.697-1.672-3.982
			c-0.605-1.275-1.127-2.544-1.8-3.727c-1.34-2.368-2.605-4.634-4.141-6.677c-1.414-2.101-3.067-3.967-4.665-5.783
			c-3.351-3.535-6.999-6.573-11.098-9.094c-1.042-0.611-2.051-1.252-3.156-1.785c-0.541-0.273-1.086-0.548-1.634-0.824
			c-0.555-0.264-1.129-0.502-1.694-0.75c-2.275-0.966-4.677-1.818-7.217-2.319c1.998,1.625,3.646,3.406,5.152,5.172
			c0.371,0.448,0.747,0.876,1.101,1.321c0.345,0.451,0.688,0.899,1.028,1.345c0.695,0.861,1.293,1.802,1.917,2.678
			c2.43,3.579,4.396,7.173,6.246,10.855c0.853,1.897,1.794,3.729,2.569,5.726c0.888,1.921,1.58,4.007,2.413,6.097
			c0.419,1.044,0.715,2.176,1.108,3.282c0.366,1.121,0.809,2.231,1.104,3.442c0.333,1.194,0.686,2.409,1.062,3.651
			c0.364,1.244,0.578,2.525,0.909,3.831c0.154,0.646,0.326,1.366,0.517,2.162c0.125,0.813,0.263,1.706,0.412,2.679
			c0.138,0.975,0.344,2.02,0.47,3.166c0.093,1.154,0.192,2.393,0.299,3.718c0.317,5.312,0.225,12.144-1.185,20.521
			c-0.247,1.486-0.618,3.109-0.947,4.828c-0.438,1.698-0.804,3.51-1.346,5.304c-0.263,0.898-0.498,1.814-0.784,2.711l-0.431,1.344
			l-0.011,0.042l0.02-0.02l0.025,0.03c-0.044-0.021,0.144,0.115-0.28-0.182c0,0-22.964-16.112-32.656-22.914
			c-4.355-3.045-2.691-1.876-3.012-2.096l-0.004,0.015l-0.035-0.001l-0.005-0.006c0.265-0.213,0.526-0.426,0.787-0.637
			c0.584-0.476,1.159-0.945,1.728-1.408c0.564-0.468,1.122-0.93,1.673-1.386c0.543-0.497,1.08-0.988,1.61-1.474
			c1.055-0.977,2.079-1.932,3.063-2.887c0.938-1.009,1.857-1.997,2.759-2.966c1.82-1.901,3.352-3.981,4.844-5.962
			c0.367-0.498,0.733-0.993,1.097-1.486l0.27-0.37l0.278-0.443l0.548-0.884c0.353-0.588,0.703-1.173,1.053-1.756
			c0.355-0.57,0.597-1.232,0.886-1.84c2.236-4.932,3.032-10.302,2.271-15.326c-0.313-2.52-1.068-4.952-2.021-7.281
			C355.945,540.503,354.708,538.252,353.095,536.227z"/>
		<path d="M375.43,538.894c2.354,1.017,4.536,2.17,6.694,3.208c2.15,1.055,4.24,2.066,6.306,3.036
			c4.129,1.939,8.158,3.711,12.345,5.36c8.374,3.297,17.375,6.119,29.094,8.822c3.979,0.905,10.414,2.414,23.984,5.249
			c4.982,1.049,13.311,2.636,20.411,3.92c7.079,1.271,12.925,2.319,12.925,2.319s4.847,0.917,11.037,2.088
			c6.146,1.202,13.525,2.752,18.556,4.104c8.427,2.209,14.471,4.814,18.609,7.412c4.131,2.612,6.605,5.057,8.152,6.952
			c0.402,0.466,0.8,0.925,1.192,1.378c0.394,0.464,0.755,1.03,1.132,1.526c0.73,1.033,1.519,1.988,2.189,2.993
			c0.652,1.018,1.303,2.005,1.955,2.968c0.669,0.951,1.174,1.978,1.774,2.927c0.293,0.48,0.583,0.956,0.871,1.428
			c0.285,0.475,0.521,0.971,0.786,1.448c0.527,0.961,1.047,1.907,1.56,2.842c0.921,1.924,1.942,3.773,2.776,5.692
			c1.779,3.796,3.407,7.645,4.869,11.792c1.466,4.15,2.865,8.573,3.781,13.641c1.575-4.93,2.39-9.744,2.777-14.452
			c0.393-4.721,0.267-9.375-0.421-14.127c-0.287-2.393-0.868-4.766-1.456-7.228c-0.343-1.215-0.745-2.434-1.148-3.68
			c-0.21-0.619-0.397-1.255-0.643-1.875c-0.257-0.617-0.515-1.239-0.775-1.867c-0.553-1.245-1.033-2.559-1.717-3.812
			c-0.664-1.262-1.357-2.547-2.083-3.857c-0.744-1.299-1.641-2.552-2.508-3.869c-0.457-0.653-0.858-1.314-1.386-1.981
			c-0.547-0.663-1.101-1.335-1.662-2.017c-2.171-2.687-5.907-6.443-11.697-10.103c-5.786-3.666-13.573-6.868-22.874-9.308
			c-5.603-1.529-13.345-3.119-19.651-4.32c-6.28-1.146-11.197-2.045-11.197-2.045s-5.826-1.082-12.882-2.394
			c-7.033-1.306-15.275-2.899-20.104-3.866c-13.318-2.765-19.759-4.243-23.708-5.101c-11.666-2.567-20.96-4.011-29.921-4.75
			c-4.481-0.37-8.879-0.568-13.449-0.649c-2.285-0.04-4.614-0.051-7.019-0.033C380.504,538.704,378.016,538.686,375.43,538.894z"/>
		<path d="M400.43,120.894c2.291-1.208,4.229-2.721,5.971-4.329c0.429-0.418,0.853-0.832,1.271-1.24
			c0.41-0.424,0.78-0.875,1.168-1.319c0.376-0.451,0.779-0.892,1.126-1.369l1.022-1.46c2.651-3.973,4.684-8.825,5.509-15.25
			c0.069-0.544,0.149-1.173,0.246-1.926c0.067-0.754,0.073-1.633,0.118-2.674c0.018-0.521,0.037-1.082,0.058-1.688
			c0.01-0.304,0.02-0.618,0.03-0.945c-0.006-0.326-0.033-0.661-0.05-1.01c-0.086-1.394-0.153-2.993-0.301-4.818
			c-0.175-1.158-0.469-3.107-0.72-4.768c-0.106-0.836-0.298-1.573-0.436-2.108c-0.135-0.536-0.218-0.87-0.218-0.87
			s-0.264-1.122-0.602-2.554c-0.188-0.71-0.322-1.524-0.586-2.266c-0.245-0.748-0.484-1.474-0.683-2.078
			c-0.377-1.142-0.736-2.229-1.078-3.263c-0.383-1.024-0.815-1.977-1.189-2.89c-0.385-0.91-0.748-1.77-1.09-2.58
			c-0.374-0.8-0.787-1.53-1.143-2.226c-1.375-2.808-2.723-4.72-3.581-6.061c-3.666-5.328-7.746-8.756-12.039-10.987
			c-1.065-0.571-2.205-0.989-3.292-1.443c-1.152-0.346-2.258-0.747-3.45-0.961c-2.331-0.508-4.824-0.736-7.396-0.419
			c2.402,0.922,4.338,2.161,6.084,3.451c0.888,0.604,1.677,1.34,2.493,1.96c0.761,0.733,1.556,1.368,2.287,2.106
			c2.953,2.907,5.771,6.101,8.861,10.677c0.722,1.165,1.873,2.789,3.069,5.268c0.309,0.611,0.672,1.243,1,1.95
			c0.302,0.723,0.622,1.49,0.961,2.301c0.331,0.815,0.719,1.656,1.062,2.576c0.307,0.938,0.63,1.923,0.969,2.958
			c0.181,0.546,0.396,1.203,0.62,1.88c0.247,0.672,0.364,1.394,0.54,2.03c0.321,1.279,0.572,2.281,0.572,2.281s0.07,0.3,0.184,0.783
			c0.119,0.481,0.285,1.144,0.364,1.88c0.21,1.468,0.466,3.188,0.636,4.209c0.125,1.594,0.184,2.983,0.268,4.197
			c0.016,0.303,0.043,0.597,0.049,0.878c-0.01,0.281-0.02,0.551-0.028,0.812c-0.017,0.521-0.032,1.004-0.047,1.452
			c-0.036,0.895-0.03,1.654-0.084,2.299c-0.079,0.641-0.146,1.177-0.203,1.641c-0.651,5.471-1.694,9.649-2.903,13.669l-0.461,1.508
			c-0.153,0.504-0.356,0.981-0.527,1.482c-0.183,0.494-0.344,1.007-0.538,1.505c-0.203,0.494-0.408,0.994-0.615,1.5
			C402.847,116.662,401.879,118.764,400.43,120.894z"/>
		<path d="M419.43,150.894c2.535-0.529,4.816-1.418,6.948-2.429c1.06-0.521,2.104-1.06,3.082-1.692
			c0.496-0.308,0.995-0.618,1.486-0.942l1.415-1.058c3.746-2.901,7.227-6.714,10.298-12.339c0.254-0.479,0.548-1.034,0.899-1.697
			c0.17-0.334,0.375-0.687,0.559-1.087c0.174-0.405,0.361-0.842,0.565-1.316c0.404-0.949,0.872-2.047,1.419-3.328
			c0.438-1.315,0.939-2.819,1.516-4.546c0.249-0.646,0.459-1.542,0.69-2.51c0.231-0.968,0.48-2.008,0.71-2.964
			c0.108-0.479,0.23-0.935,0.309-1.355c0.064-0.422,0.123-0.803,0.172-1.124c0.098-0.642,0.158-1.041,0.158-1.041
			s0.219-1.335,0.497-3.04c0.163-0.855,0.244-1.794,0.32-2.706c0.079-0.912,0.156-1.797,0.22-2.533
			c0.091-1.184,0.224-2.303,0.265-3.383c0.022-1.083,0.044-2.11,0.064-3.084c0.019-0.974,0.036-1.894,0.053-2.762
			c-0.012-0.871-0.076-1.696-0.109-2.466c-0.095-1.543-0.12-2.879-0.249-4.03c-0.151-1.151-0.278-2.11-0.381-2.892
			c-0.931-6.31-2.875-11.22-5.699-15.203c-0.36-0.495-0.702-0.988-1.082-1.456c-0.407-0.445-0.815-0.892-1.227-1.341
			c-0.777-0.903-1.771-1.65-2.678-2.429c-1.966-1.422-4.159-2.724-6.721-3.245c3.835,3.436,5.279,7.327,6.65,11.155
			c1.288,3.899,2.263,8.069,3.032,13.614c0.086,0.688,0.192,1.534,0.32,2.548c0.11,1.019,0.121,2.234,0.204,3.618
			c0.028,0.695,0.088,1.432,0.098,2.223c-0.019,0.795-0.037,1.639-0.058,2.532c-0.019,0.893-0.039,1.834-0.06,2.827
			c-0.038,0.994-0.167,2.044-0.252,3.144c-0.061,0.686-0.132,1.509-0.206,2.358c-0.065,0.852-0.134,1.729-0.275,2.492
			c-0.234,1.542-0.417,2.75-0.417,2.75s-0.06,0.36-0.154,0.938c-0.047,0.289-0.104,0.632-0.165,1.013
			c-0.073,0.377-0.19,0.781-0.292,1.208c-0.21,0.854-0.438,1.781-0.65,2.645c-0.206,0.865-0.387,1.668-0.6,2.239
			c-0.506,1.53-0.946,2.862-1.332,4.027c-0.478,1.125-0.887,2.089-1.241,2.922c-0.176,0.417-0.337,0.803-0.487,1.159
			c-0.158,0.352-0.338,0.657-0.484,0.95c-0.303,0.581-0.555,1.065-0.773,1.485c-2.626,4.921-5.048,8.548-7.5,12.01l-0.92,1.301
			c-0.322,0.416-0.646,0.833-0.972,1.253c-0.631,0.866-1.318,1.681-2.021,2.531C422.945,147.51,421.41,149.247,419.43,150.894z"/>
		<path d="M380.035,84.287c1.857-2.658,2.555-4.697,1.544-7.179c-0.561-1.342-2.503-5.278-4.902-8.513
			c-1.138-1.657-2.45-3.075-3.361-4.161c-0.985-1.025-1.647-1.663-1.647-1.663s-0.161-0.163-0.448-0.452
			c-0.29-0.286-0.685-0.72-1.242-1.166c-1.095-0.914-2.521-2.224-4.23-3.322c-1.623-1.224-3.513-2.188-5.081-3.056
			c-0.771-0.465-1.553-0.711-2.172-0.996c-0.631-0.259-1.14-0.468-1.479-0.608c-1.244-0.542-2.387-0.491-3.521-0.153
			c-1.134,0.337-2.274,0.994-3.567,1.898c0.683,1.511,1.199,2.676,1.821,3.553c0.621,0.875,1.355,1.43,2.356,1.939
			c0.277,0.123,0.693,0.307,1.21,0.536c0.507,0.245,1.163,0.439,1.789,0.833c1.28,0.729,2.848,1.5,4.175,2.508
			c2.774,1.84,4.899,4.029,4.899,4.029s0.531,0.542,1.354,1.382c0.743,0.917,1.832,2.087,2.773,3.483
			c1.994,2.71,3.629,6.022,4.156,7.12C375.408,82.358,377.086,82.961,380.035,84.287z"/>
		<path fill="#FFFFFF" d="M181.184,227.967c0,0-32.961,11.222-58.208,2.104c-25.246-9.117-34.363-23.142-34.363-23.142
			l-24.545,6.311C64.067,213.24,119.47,277.059,181.184,227.967z"/>
		<path fill="#FFFFFF" d="M0,210.785c0,0,84.403,2.104,115.963-33.663c31.558-35.766,2.104-68.026-25.247-65.221
			c-27.35,2.805-51.195,35.065-41.729,75.04l22.443-9.819c0,0-1.752-39.974,24.194-35.766c25.947,4.208-8.212,65.924-95.625,53.3
			V210.785z"/>
	</g>
</g>
</svg>
