<?xml version="1.0" encoding="utf-8"?>
<!-- Generator: Adobe Illustrator 16.0.0, SVG Export Plug-In . SVG Version: 6.00 Build 0)  -->
<!DOCTYPE svg PUBLIC "-//W3C//DTD SVG 1.1//EN" "http://www.w3.org/Graphics/SVG/1.1/DTD/svg11.dtd">
<svg version="1.1" xmlns="http://www.w3.org/2000/svg" xmlns:xlink="http://www.w3.org/1999/xlink" x="0px" y="0px" width="640px"
	 height="640px" viewBox="0 0 640 640" enable-background="new 0 0 640 640" xml:space="preserve">
<g id="reseau">
</g>
<g id="couleurs">
</g>
<g id="traits">
	<g>
		<path fill="#D1E2A8" d="M219.178,429.431c6.633-2.715,13.578-3.325,18.479-3.325c4.001,0,6.643,0.406,6.643,0.406l12.131,8.381
			c0,0-4.139-0.613-9.819-0.613c-3.319,0-7.164,0.209-11.018,0.873c-2.617,0.909-5.679,2.188-8.511,3.442
			c30.218,13.134,51.347,43.247,51.347,78.297c0,47.128-38.205,85.333-85.333,85.333s-85.333-38.205-85.333-85.333
			s38.205-85.333,85.333-85.333c6.412,0,12.661,0.708,18.668,2.048c0.878-0.663,1.78-1.27,2.702-1.823
			C215.931,430.846,217.529,430.072,219.178,429.431 M170.446,313.833c0.146,2.037,0.22,4.093,0.22,6.167
			c0,23.42-9.437,44.639-24.713,60.058c0.08,1.539-0.25,2.666-1.081,3.272c-1.49,1.088-2.843,1.535-4.062,1.535
			c-0.01,0-0.02,0-0.029,0c-14.915,12.762-34.28,20.468-55.448,20.468C38.205,405.333,0,367.128,0,320l0,0
			C0,496.73,143.268,640,320,640c62.207,0,120.27-17.752,169.396-48.464c-12.258,6.812-26.367,10.689-41.385,10.689
			c-47.128,0-85.333-38.205-85.333-85.333c0-31.144,16.685-58.391,41.602-73.291c-3.708-6.61-6.794-12.918-9.061-18.174
			C374.016,440.584,348.051,449.5,320,449.5c-69.64,0-126.44-54.963-129.38-123.879l-0.856,3.938
			C189.764,329.56,181.754,320.558,170.446,313.833 M510.73,63.029c14.039,15.208,22.614,35.533,22.614,57.863
			c0,47.128-38.205,85.333-85.333,85.333c-25.327,0-48.078-11.035-63.706-28.558c-1.544,2.161-2.865,4.408-3.876,6.726
			c-2.754,6.317-4.354,12.689-5.257,18.415C419.103,223.523,449.5,268.21,449.5,320c0,1.685-0.032,3.364-0.096,5.033
			c5.204-2.617,12.074-5.805,19.49-8.521c1.828-45.512,39.303-81.846,85.263-81.846c47.128,0,85.333,38.205,85.333,85.333
			c0,47.128-38.205,85.333-85.333,85.333c-44.369,0-80.829-33.859-84.946-77.151c-8.919,4.162-16.027,9.065-21.571,13.815
			c-4.992,29.168-19.744,55.014-40.77,74.044c0.891,5.73,2.891,13.23,6.991,22.625c10.457-4.57,22.009-7.107,34.15-7.107
			c47.128,0,85.333,38.205,85.333,85.333c0,27.815-13.307,52.521-33.903,68.1C584.268,527.44,640,430.23,640,320
			C640,214.743,589.172,121.349,510.73,63.029 M133.055,60.256C52.468,118.364,0,213.06,0,320c0-47.128,38.205-85.333,85.333-85.333
			c38.884,0,71.692,26.004,81.981,61.574c11.558,0.206,20.255,1.236,25.014,1.95c5.341-31.481,22.041-59.099,45.737-78.481
			c2.787-5.443,7.097-16.443,5.193-29.778c-14.08,10.247-31.416,16.293-50.162,16.293c-47.128,0-85.333-38.205-85.333-85.333
			C107.764,97.176,117.437,75.722,133.055,60.256 M320,0c-56.879,0-110.3,14.844-156.586,40.863
			c9.245-3.43,19.244-5.304,29.683-5.304c47.128,0,85.333,38.205,85.333,85.333c0,23.158-9.228,44.164-24.203,59.539
			c4.712,12.336,5.6,23.442,5.694,24.819c17.955-9.419,38.396-14.75,60.079-14.75c14.209,0,27.883,2.288,40.674,6.517
			c3.352-9.264,8.55-19.884,16.256-27.124c0.244-0.23,0.49-0.458,0.736-0.684c-9.455-13.737-14.987-30.379-14.987-48.317
			c0-47.128,38.205-85.333,85.333-85.333c9.325,0,18.304,1.497,26.703,4.262C428.863,14.45,376.112,0,320,0"/>
		<path fill="#FFFFFF" d="M193.097,35.559c-10.438,0-20.438,1.874-29.683,5.304c-11.489,4.264-21.815,10.934-30.359,19.393
			c-15.618,15.465-25.291,36.919-25.291,60.636c0,47.128,38.205,85.333,85.333,85.333c18.746,0,36.082-6.046,50.162-16.293
			c-0.767-5.371-2.541-11.122-5.829-17.039c-0.384-0.69-0.764-1.362-1.143-2.018c-0.492,0.18-0.985,0.263-1.474,0.263
			c-5.122,0-9.807-9.088-10.334-10.145c0.786,1.606,10.596,22.038,1.95,25.4c-0.863,0.335-1.689,0.487-2.478,0.487
			c-7.436,0-11.522-13.487-11.522-13.487s3.5,15.5-5,18.5c-0.772,0.273-1.5,0.397-2.184,0.397c-6.838,0-9.316-12.397-9.316-12.397
			s0.5,12.5-7,13.5c-0.25,0.033-0.49,0.049-0.721,0.049c-6.682,0-5.279-13.549-5.279-13.549s-3.186,11.545-10.266,11.545
			c-0.854,0-1.765-0.168-2.734-0.545c-9-3.5-1-17-1-17s-4.863,6.991-10.561,6.991c-1.61,0-3.287-0.559-4.939-1.991
			c-5.719-4.957,1.644-12.529,5.464-15.846c-2.882,2.183-8.354,5.751-13.327,5.751c-2.687,0-5.228-1.041-7.137-3.905
			c-6.307-9.46,8.49-15.673,11.484-16.811c-1.818,0.648-8.119,2.741-13.669,2.741c-3.94,0-7.503-1.055-8.815-4.43
			c-3.5-9,15-13.5,15-13.5s-4.247,0.79-8.922,0.79c-5.844,0-12.356-1.234-12.078-6.79c0.5-10,18.5-10.5,18.5-10.5s-17.5-4.5-14-14
			c1.622-4.402,5.606-5.583,9.415-5.583c4.41,0,8.585,1.583,8.585,1.583s-15-9.5-8.5-16c1.536-1.536,3.38-2.123,5.3-2.123
			c6.203,0,13.2,6.123,13.2,6.123s-11-12.5-4-17.5c1.207-0.862,2.43-1.219,3.624-1.219c5.359,0,10.192,7.165,10.81,8.115
			c-0.73-1.15-7.155-11.536-2.434-13.896c0.49-0.245,0.99-0.355,1.493-0.355c4.626,0,9.507,9.355,9.507,9.355
			s-6.048-19.079,1.155-19.079c0.264,0,0.545,0.025,0.845,0.079c8.5,1.5,9.5,15.5,9.5,15.5s4.318-19.862,12.553-19.862
			c0.627,0,1.275,0.115,1.947,0.362c9.5,3.5,5,14.5,5,14.5s9.271-13.549,16.972-13.549c1.419,0,2.784,0.46,4.028,1.549
			c8,7-8,19.5-8,19.5s13.515-8.908,21.767-8.908c2.277,0,4.152,0.678,5.233,2.408c5,8-8,14-8,14s5.376-1.125,11.062-1.125
			c5.688,0,11.688,1.125,12.938,5.625c2.5,9-20.5,16-19,16s21,0.5,20,10.5c-0.833,8.333-13.819,9.028-18.125,9.028
			c-0.861,0-1.375-0.028-1.375-0.028s15.5,6.5,12,13.5c-1.75,3.5-6.25,4.375-10.312,4.375s-7.688-0.875-7.688-0.875s18.5,9,14.5,16
			c-1.333,2.333-3.611,3.111-6.056,3.111c-4.889,0-10.444-3.111-10.444-3.111s0.634,0.806,1.507,2.108
			c2.545,2.402,5.229,5.183,7.993,8.392c5.167,6,8.778,12.944,11.297,19.538c14.976-15.375,24.203-36.381,24.203-59.539
			C278.43,73.764,240.225,35.559,193.097,35.559"/>
		<path fill="#FFFFFF" d="M448.012,35.559c-47.128,0-85.333,38.205-85.333,85.333c0,17.938,5.532,34.58,14.987,48.317
			c6.061-5.567,12.602-10.066,18.439-13.531c-0.849-1.361-1.871-3.167-2.862-5.334c-3.133-5.908-5.208-13.576-3.543-22.805
			c0.579-3.768,1.804-7.712,3.927-11.732c1.389-2.861,3.137-5.833,5.303-8.914c3.962-5.635,8.39-9.952,13.082-13.287
			c6.793-5.602,11.36-6.529,12.687-6.683c19.073-7.18,39.493-4.326,50.231-10.03c16-8.5,24.5-21.5,24.5-21.5
			s12.657,64.56-18.618,94.058c0.626-0.131,0.952-0.224,0.952-0.224l0,0l0,0c0,0-0.89,0.613-2.502,1.625
			c-2.368,2.052-4.971,3.912-7.832,5.542c-18.321,10.439-33.012,13.435-43.84,13.435c-14.584,0-22.16-5.435-22.16-5.435
			s-0.123-0.083-0.347-0.245c-1.327-0.801-2.614-1.702-3.861-2.716c-6.077,4.422-12.435,9.963-16.916,16.235
			c15.628,17.523,38.379,28.558,63.706,28.558c47.128,0,85.333-38.205,85.333-85.333c0-22.33-8.575-42.655-22.614-57.863
			c-9.729-10.539-22.079-18.621-36.016-23.208C466.315,37.056,457.337,35.559,448.012,35.559"/>
		<path fill="#FFFFFF" d="M193.097,431.559c-47.128,0-85.333,38.205-85.333,85.333s38.205,85.333,85.333,85.333
			s85.333-38.205,85.333-85.333c0-35.05-21.129-65.163-51.347-78.297c-2.678,1.188-5.15,2.354-6.849,3.172
			c-2.09,1.907-3.747,4.278-4.75,7.222c-9.52,27.938,7.035,44.715,7.035,44.715l0,0l0,0c0,0,2.089-1.052,5.429-1.986
			c3.537-1.067,6.803-1.575,9.847-1.575c2.106,0,4.107,0.243,6.02,0.714c7.694,1.517,15.944,6.441,21.901,18.735
			c0.06,0.123,0.117,0.244,0.176,0.366c2.589,4.563,3.941,9.118,4.147,13.639c0.92,8.426-1.794,15.282-7.038,20.751
			c-0.293,0.405-0.595,0.809-0.905,1.213c-0.982,1.277-2.136,2.12-3.428,2.589c-10.976,8.189-28.539,12.476-47.201,13.782
			c-26.336,1.846-31.55,22.491-31.55,22.491c-35.08-40.756-46.539-71.328-46.408-92.756c-0.332-6.118,0.709-11.48,2.686-16.196
			c3.902-10.976,11.51-17.918,19.129-21.149c3.012-1.812,6.235-2.584,9.53-2.584c13.771,0,28.77,13.503,34.576,21.156
			c1.4,1.846,2.779,3.54,4.125,5.095c-2.786-7.891-7.13-25.141,2.122-38.13c1.782-2.502,3.852-4.561,6.088-6.251
			C205.758,432.267,199.509,431.559,193.097,431.559"/>
		<path fill="#FFFFFF" d="M448.012,431.559c-12.142,0-23.693,2.537-34.15,7.107c1.134,2.597,2.428,5.339,3.902,8.227
			c9.902,19.393,16.217,27.809,19.205,31.182c0.048-0.266,0.091-0.548,0.129-0.849c0.017-0.137,0.035-0.277,0.053-0.421
			c0.191-4.428,1.324-10.708,5.555-15.961c3.804-5.105,10.307-9.302,21.649-9.688c0.284-0.021,0.571-0.039,0.862-0.055
			c0.55-0.03,1.099-0.045,1.641-0.045c1.436,0,2.842,0.104,4.221,0.308c25.167,2.739,34.232,33.619,35.521,38.537
			c5.292,15.455,7.186,33.01,4.966,47.671c-4.87,32.165-15.372,46.697-28.307,46.697c-1.383,0-2.791-0.166-4.226-0.494
			c-9.507-2.174-46.909-13.099-72.57-30.516c-0.455-0.119-0.905-0.24-1.364-0.366c0,0-4.3-2.867-9.255-7.899
			c-8.758-7.961-14.513-16.969-14.486-26.862c0-0.109,0.001-0.222,0.001-0.331c-0.565-5.124,0.031-10.643,2.397-16.438
			c3.449-10.945,10.351-18.17,18.934-21.724c4.452-2.193,8.847-2.953,12.802-2.953c3.119,0,5.964,0.473,8.345,1.088
			c2.422,0.448,4.868,1.106,7.308,1.972c-10.306-9.605-19.733-23.434-26.862-36.144c-24.917,14.9-41.602,42.147-41.602,73.291
			c0,47.128,38.205,85.333,85.333,85.333c15.018,0,29.127-3.878,41.385-10.689c3.506-1.948,6.865-4.139,10.045-6.544
			c20.597-15.579,33.903-40.284,33.903-68.1C533.345,469.764,495.14,431.559,448.012,431.559"/>
		<path fill="#FFFFFF" d="M554.157,234.667c-45.96,0-83.435,36.334-85.263,81.846c5.693-2.085,11.709-3.894,17.536-4.953
			c6.009-1.092,11.568-1.476,16.415-1.476c11.45,0,18.918,2.143,18.918,2.143s4.184,0.73,6.782,0.73
			c1.574,0,2.567-0.268,1.698-1.128c-2.3-2.281-20.852-19.459-11.58-42.928c8.434-21.346,22.972-29.222,35.97-29.222
			c2.638,0,5.211,0.324,7.658,0.926c14.508,3.567,25.442,28.233,12.923,51.066c-12.521,22.833-25.185,15.032-28.035,22.55
			c-1.111,2.932-0.684,3.934,1.057,3.934c1.875,0,5.275-1.164,9.914-2.328c4.638-1.164,10.516-2.328,17.344-2.328
			c8.008,0,17.323,1.6,27.49,6.677c35.551,17.752,24.31,34.973,16.212,45.48c-3.993,5.182-12.296,7.625-21.115,7.625
			c-9.063,0-18.674-2.579-24.72-7.42c-16.95-13.568-21.191-39.676-28.74-40.417c-0.603-0.06-1.136-0.087-1.604-0.087
			c-5.401-0.001-2.28,3.731,0.717,6.507c3.257,3.019,18.922,28.792,12.484,47.685c-4.083,11.98-12.654,16.013-20.966,16.013
			c-4.795,0-9.502-1.342-13.213-3.272c-10.144-5.278-30.449-20.419-14.374-44.572c16.075-24.154,24.771-18.975,22.595-24.711
			c-1.162-3.062-8.596-4.458-17.728-4.458c-7.978,0-17.249,1.064-24.769,3.011c-6.907,1.788-13.071,4.064-18.553,6.622
			c4.117,43.292,40.577,77.151,84.946,77.151c47.128,0,85.333-38.205,85.333-85.333C639.49,272.872,601.285,234.667,554.157,234.667
			"/>
		<path fill="#FFFFFF" d="M147.719,306.628c-1.313,0-2.637,0.085-3.955,0.265c-16.756,2.284-34,10-34,10s35.45,49.015,36.189,63.165
			c15.276-15.419,24.713-36.638,24.713-60.058c0-2.074-0.074-4.13-0.22-6.167C163.707,309.826,155.8,306.628,147.719,306.628
			 M116.334,267.386L116.334,267.386L116.334,267.386 M107.62,263.333C107.62,263.333,107.62,263.333,107.62,263.333
			S107.62,263.333,107.62,263.333 M85.333,234.667C38.205,234.667,0,272.872,0,320l0,0l0,0c0,47.128,38.205,85.333,85.333,85.333
			c21.168,0,40.533-7.706,55.448-20.468c-4.521-0.026-7.183-6.221-8.085-8.766c0.837,2.859,2.451,10.594-3.775,12.696
			c-0.626,0.211-1.23,0.309-1.813,0.309c-6.571,0-10.355-12.35-10.355-12.35s2.893,15.04-4.892,15.184
			c-0.033,0.001-0.066,0.001-0.1,0.001c-6.149,0-7.915-10.604-8.376-14.856c0.218,4.057-0.067,13.829-7.898,13.829
			c-0.059,0-0.119-0.001-0.178-0.002c-10.082-0.188-8.884-10.396-8.884-10.396l9.604-48.362l0.25-3.127
			c-3.841,8.021-24.065,49.39-33.33,50.91c-0.422,0.069-0.815,0.103-1.185,0.103c-8.594,0-3.093-18.049-3.093-18.049
			s-4.235,10.929-10.689,10.929c-0.967,0-1.983-0.245-3.043-0.81c-8.133-4.33,1.94-19.128,1.94-19.128s-6.489,6.885-12.169,6.885
			c-1.917,0-3.743-0.785-5.195-2.885c-5.754-8.32,5.321-15.03,5.321-15.03s-4.792,1.687-9.745,1.687
			c-4.406,0-8.941-1.336-10.34-6.382c-2.971-10.718,8.454-12.956,8.454-12.956l63.796-13.654c0,0-16.649-3.479-24.988-4.499
			c-4.454-0.545-15.137,0.438-15.254-8.784c-0.104-8.281,11.861-9.95,14.309-10.205c-0.506,0.041-1.418,0.098-2.545,0.098
			c-4.678,0-13.064-0.981-11.567-8.188c1.141-5.491,5.522-6.714,9.203-6.714c2.957,0,5.46,0.79,5.46,0.79
			s-10.353-8.981-3.473-14.761c1.591-1.337,3.097-1.851,4.472-1.851c4.573,0,7.704,5.679,7.704,5.679
			c-0.457-10.428,2.623-13.285,6.137-13.285c4.262,0.001,9.161,4.203,9.161,4.203l12.451,45.646
			c0.119-2.214,0.328-5.384,0.669-8.779c-1.012-16.213-1.765-39.555,2.097-41.628c0.483-0.259,0.933-0.379,1.352-0.378
			c4.717,0.001,5.424,15.175,5.432,15.344c-0.008-0.176-0.707-16.668,6.76-16.667c0.331,0,0.678,0.033,1.041,0.1
			c8.322,1.546,1.419,19.346,0.938,20.557c0.343-0.849,4.054-9.756,8.895-9.755c0.802,0,1.635,0.244,2.487,0.81
			c6.262,4.15-2.111,12.785-2.111,12.785c1.862-1.721,3.425-2.412,4.63-2.412c3.446,0,3.982,5.64,0.291,8.986
			c-4.982,4.519-24.949,32.245-24.949,32.245s17.352-10.849,32.162-12.421c9.346-0.993,17.903-1.355,25.424-1.355
			c1.412,0,2.789,0.013,4.127,0.037C157.025,260.671,124.217,234.667,85.333,234.667"/>
		<path fill="#AACD72" d="M396.105,155.678c-5.838,3.464-12.379,7.963-18.439,13.531c-0.246,0.227-0.492,0.454-0.736,0.684
			c-7.706,7.239-12.904,17.859-16.256,27.124c4.972,1.643,9.814,3.582,14.499,5.791c0.903-5.726,2.503-12.097,5.257-18.415
			c1.011-2.318,2.332-4.565,3.876-6.726c4.481-6.271,10.839-11.813,16.916-16.235c-1.074-0.874-2.118-1.83-3.125-2.873
			C398.097,158.56,397.262,157.53,396.105,155.678 M479.262,150.852c-7.637,4.796-31.469,18.554-53.582,18.554
			c-7.261,0-14.342-1.486-20.597-5.258c0.224,0.163,0.347,0.245,0.347,0.245s7.576,5.435,22.16,5.435
			c10.828,0,25.519-2.996,43.84-13.435C474.291,154.763,476.894,152.904,479.262,150.852 M389.7,127.539
			c-1.665,9.229,0.41,16.897,3.543,22.805C390.669,144.716,388.302,136.641,389.7,127.539 M412.012,93.606
			c-4.692,3.335-9.12,7.652-13.082,13.287c-2.166,3.08-3.914,6.052-5.303,8.914c0.803-1.518,1.731-3.046,2.804-4.58
			C402.363,102.734,407.647,97.205,412.012,93.606 M499.43,55.393c0,0-8.5,13-24.5,21.5c-10.738,5.705-31.158,2.851-50.231,10.03
			c0.263-0.03,0.398-0.03,0.398-0.03s-15.1,25.997-1.347,43.85c7.313-5.712,15.966-11.265,25.456-15.465
			c34.538-15.286,44.224-43.384,44.224-43.384s-8.317,30.478-33.462,47.191c-10.253,6.815-19.528,13.333-27.771,19.124
			c0.189,0.117,0.373,0.237,0.566,0.352c16.279,9.691,30.192,11.718,38.987,11.718c4.446,0,7.586-0.519,9.061-0.827
			C512.087,119.953,499.43,55.393,499.43,55.393"/>
		<path fill="#AACD72" d="M530.485,387.403c-0.018,0-0.036-0.003-0.056-0.01c-1.5-0.5-5.5-16-5.5-27.5s6.5-25.5,6.5-25.5
			s0.5,13.5-1.5,24C527.955,368.757,531.827,387.403,530.485,387.403 M616.654,358.475c-2.86,0-17.594-18.248-27.225-22.582
			c-10-4.5-34.5-10-34.5-10s0.352-0.006,0.996-0.006c5.151,0,29.004,0.395,41.004,7.506c13.5,8,22,23.5,20,25
			C616.855,358.449,616.764,358.475,616.654,358.475 M537.93,311.393c0,0-1.5-34.5,11.5-58c4.45-8.044,6.309-10.25,7.008-10.25
			c0.85,0-0.008,3.25-0.008,3.25c-4.5,18-5.899,17.097-8,29C545.43,292.393,537.93,311.393,537.93,311.393 M554.634,239.679
			c-12.998,0-27.536,7.876-35.97,29.222c-9.271,23.469,9.28,40.647,11.58,42.928c0.869,0.861-0.124,1.128-1.698,1.128
			c-2.599,0-6.782-0.73-6.782-0.73s-7.468-2.143-18.918-2.143c-4.847,0-10.406,0.384-16.415,1.476
			c-5.827,1.06-11.843,2.868-17.536,4.953c-7.416,2.716-14.286,5.903-19.49,8.521c-0.221,5.761-0.816,11.42-1.765,16.964
			c5.544-4.75,12.652-9.653,21.571-13.815c5.481-2.558,11.646-4.834,18.553-6.622c7.52-1.947,16.791-3.011,24.769-3.011
			c9.132,0,16.565,1.395,17.728,4.458c2.177,5.736-6.52,0.557-22.595,24.711c-16.075,24.153,4.23,39.294,14.374,44.572
			c3.711,1.931,8.418,3.272,13.213,3.272c8.312,0,16.883-4.032,20.966-16.013c6.438-18.893-9.228-44.666-12.484-47.685
			c-2.997-2.775-6.118-6.508-0.717-6.507c0.469,0,1.002,0.027,1.604,0.087c7.549,0.741,11.79,26.849,28.74,40.417
			c6.046,4.841,15.656,7.42,24.72,7.42c8.819,0,17.122-2.443,21.115-7.625c8.098-10.508,19.339-27.729-16.212-45.48
			c-10.167-5.077-19.482-6.677-27.49-6.677c-6.828,0-12.706,1.164-17.344,2.328c-4.639,1.164-8.039,2.328-9.914,2.328
			c-1.74,0-2.168-1.002-1.057-3.934c2.851-7.518,15.515,0.283,28.035-22.55c12.52-22.833,1.585-47.5-12.923-51.066
			C559.845,240.003,557.271,239.679,554.634,239.679"/>
		<path fill="#AACD72" d="M76.459,248.925c-3.514,0-6.594,2.856-6.137,13.285c0,0-3.131-5.678-7.704-5.679
			c-1.375,0-2.881,0.514-4.472,1.851c-6.88,5.78,3.473,14.761,3.473,14.761s-2.503-0.79-5.46-0.79c-3.681,0-8.062,1.223-9.203,6.714
			c-1.497,7.207,6.89,8.188,11.567,8.188c1.127,0,2.039-0.057,2.545-0.098c-2.447,0.255-14.413,1.924-14.309,10.205
			c0.117,9.223,10.8,8.239,15.254,8.784c8.339,1.02,24.988,4.499,24.988,4.499l-63.796,13.654c0,0-11.425,2.238-8.454,12.956
			c1.398,5.046,5.934,6.382,10.34,6.382c4.953,0,9.745-1.687,9.745-1.687s-11.075,6.71-5.321,15.03
			c1.452,2.1,3.278,2.885,5.195,2.885c5.68,0,12.169-6.885,12.169-6.885s-10.073,14.798-1.94,19.128
			c1.06,0.564,2.076,0.81,3.043,0.81c6.454,0,10.689-10.929,10.689-10.929s-5.501,18.049,3.093,18.049
			c0.369,0,0.763-0.033,1.185-0.103c9.265-1.521,29.489-42.89,33.33-50.91l0.02-0.246c-3.003,5.269-16.188,27.819-21.904,27.819
			c-0.567,0-1.062-0.223-1.465-0.706c-5-6,9-20.5,9-20.5s-15.226,4.152-22.016,4.152c-3.206,0-4.531-0.926-1.484-3.652
			c9.5-8.5,23.5-13,23.5-13s-7.407,0.197-14.628,0.197c-9.026,0-17.761-0.309-11.372-1.697c7.961-1.73,25.022-6.575,34.772-9.394
			c-6.986-4.422-27.785-18.018-22.772-20.106c0.639-0.266,1.373-0.385,2.176-0.385c6.745,0,18.324,8.385,18.324,8.385
			s-19-22-13-23.5c0.143-0.035,0.287-0.053,0.438-0.053c6.193,0.003,19.062,29.553,19.062,29.553s-13.807-35.008-9.592-35.005
			c0.029,0,0.061,0.002,0.092,0.005c4.5,0.5,12.5,31,12.5,31s0.037-1.199,0.142-3.119L85.62,253.128
			C85.62,253.128,80.721,248.926,76.459,248.925 M116.334,267.386L116.334,267.386L116.334,267.386 M107.62,263.334
			C107.62,263.333,107.62,263.333,107.62,263.334C107.62,263.333,107.62,263.333,107.62,263.334 M114.38,246.665
			c-7.467,0-6.768,16.491-6.76,16.667c-0.008-0.169-0.715-15.342-5.432-15.344c-0.419,0-0.868,0.119-1.352,0.378
			c-3.861,2.073-3.108,25.416-2.097,41.628c0.845-8.41,2.506-18.193,5.657-18.192c0.173,0,0.351,0.029,0.532,0.09c6,2,4.5,25,4.5,25
			s3.895-17.307,7.255-17.307c0.252,0,0.501,0.098,0.745,0.307c3.5,3-14.5,34-14.5,34l25,30c0,0,1.664,9.704-1.203,9.704
			c-0.983,0-2.499-1.141-4.797-4.204c-7.377-9.836-12.399-22.353-13.973-26.55c2.442,6.775,12.436,35.229,8.473,36.55
			c-0.094,0.031-0.188,0.046-0.285,0.046c-2.228,0-5.412-8.032-8.096-16.063c-2.685-8.032-4.869-16.063-5.099-16.063
			c-0.014,0-0.021,0.026-0.021,0.081c0,1.954,2.865,32.551-0.27,32.551c-0.073,0-0.15-0.017-0.23-0.051c-3.5-1.5-5-30.5-5-30.5
			l-3.5,29l2.1-26.24l-9.604,48.362c0,0-1.198,10.208,8.884,10.396c0.059,0.001,0.119,0.002,0.178,0.002
			c7.831,0,8.116-9.772,7.898-13.829c0.461,4.252,2.227,14.856,8.376,14.856c0.033,0,0.066,0,0.1-0.001
			c7.784-0.144,4.892-15.184,4.892-15.184s3.784,12.35,10.355,12.35c0.583,0,1.188-0.098,1.813-0.309
			c6.227-2.103,4.612-9.837,3.775-12.696c0.902,2.545,3.563,8.739,8.085,8.766c0.01,0,0.02,0,0.029,0
			c1.219,0,2.571-0.447,4.062-1.535c0.831-0.606,1.161-1.733,1.081-3.272c-0.739-14.15-36.189-63.165-36.189-63.165
			s17.244-7.716,34-10c1.318-0.18,2.642-0.265,3.955-0.265c8.081,0,15.988,3.198,22.728,7.205
			c11.308,6.725,19.317,15.727,19.317,15.727l0.856-3.938c-0.08-1.862-0.12-3.74-0.12-5.621c0-7.434,0.626-14.718,1.828-21.81
			c-4.759-0.714-13.456-1.744-25.014-1.95c-1.338-0.024-2.715-0.037-4.127-0.037c-7.521,0-16.078,0.363-25.424,1.355
			c-14.811,1.573-32.162,12.421-32.162,12.421s19.967-27.726,24.949-32.245c3.691-3.347,3.155-8.986-0.291-8.986
			c-1.205,0-2.768,0.69-4.63,2.412c0,0,8.373-8.634,2.111-12.785c-0.853-0.565-1.686-0.81-2.487-0.81
			c-4.841-0.001-8.552,8.906-8.895,9.755c0.48-1.211,7.384-19.011-0.938-20.557C115.058,246.698,114.711,246.665,114.38,246.665"/>
		<path fill="#AEBCB6" d="M270.039,523.596c0.319,7.029-2.136,13.978-7.038,20.751C268.245,538.878,270.959,532.022,270.039,523.596
			 M227.948,491.717c-3.34,0.935-5.429,1.986-5.429,1.986C224.399,492.902,226.206,492.242,227.948,491.717 M133.509,491.667
			c-0.131,21.428,11.328,52,46.408,92.756c0,0,5.214-20.646,31.55-22.491c18.662-1.307,36.226-5.593,47.201-13.782
			c-0.854,0.31-1.768,0.455-2.732,0.455c-12.443,0-33.41-24.274-43.173-35.711c-3.561-4.171-8.055-7.251-12.938-9.638
			c-2.09,1.046-4.145,2.243-6.062,3.638c-14.667,10.667-13.334,62-13.334,62s-6.332-22-3.666-45.333
			c1.027-8.99,6.871-19.769,14.073-23.896c-4.862-4.354-9.248-6.931-17.305-6.931c-2.007,0-4.243,0.16-6.769,0.492
			c-8.786,1.155-19.496,9.966-26.347,9.966c-3.418,0-5.877-2.196-6.653-8.632C133.645,493.577,133.561,492.613,133.509,491.667
			 M243.814,490.856c7.293,1.796,13.294,6.893,18.948,14.37c1.192,1.577,2.234,3.155,3.129,4.731
			c-0.059-0.122-0.116-0.243-0.176-0.366C259.759,497.297,251.509,492.373,243.814,490.856 M155.323,454.321
			c-7.619,3.231-15.227,10.174-19.129,21.149c3.729-8.901,10.788-15.506,18.235-20.577
			C154.726,454.692,155.023,454.5,155.323,454.321 M214.467,431.784c-0.922,0.554-1.824,1.16-2.702,1.823
			c-2.236,1.69-4.306,3.749-6.088,6.251c-9.252,12.989-4.908,30.239-2.122,38.13c10.521,12.152,18.965,15.716,18.965,15.716
			s-16.555-16.777-7.035-44.715c1.003-2.943,2.66-5.314,4.75-7.222c-1.425,0.686-2.305,1.126-2.305,1.126s-2.18,0.422-4.509,0.422
			c-3.882,0-8.179-1.172-3.491-7.422C211.155,434.258,212.715,432.905,214.467,431.784 M237.657,426.106
			c-4.901,0-11.847,0.61-18.479,3.325c7.355-2.857,15.729-3.042,17.78-3.042c0.307,0,0.472,0.004,0.472,0.004l14,6.5
			c0,0-5.5,0.5-11,1c-1.178,0.107-2.883,0.581-4.836,1.26c3.854-0.664,7.698-0.873,11.018-0.873c5.681,0,9.819,0.613,9.819,0.613
			l-12.131-8.381C244.3,426.512,241.658,426.106,237.657,426.106"/>
		<path fill="#AACD72" d="M381.357,517.8c0,0.109-0.001,0.222-0.001,0.331c-0.026,9.894,5.729,18.901,14.486,26.862
			C389.732,538.787,382.626,529.285,381.357,517.8 M506.599,489.901c0.112,0.428,0.165,0.659,0.165,0.659
			s-6.647,25.863-26.163,45.207c1.591,5.144,2.627,10.51,2.891,16.036c0,0-1.973-5.493-5.63-13.443
			c-11.425,10.314-26.858,18.194-47.345,18.194c-7.351,0-15.354-1.015-24.055-3.295c25.661,17.417,63.063,28.342,72.57,30.516
			c1.435,0.328,2.843,0.494,4.226,0.494c12.935,0,23.437-14.532,28.307-46.697C513.784,522.911,511.891,505.356,506.599,489.901
			 M402.688,479.638c-8.583,3.554-15.484,10.778-18.934,21.724c0.646-1.581,1.422-3.182,2.343-4.802
			C391.18,487.619,396.981,482.451,402.688,479.638 M423.835,477.773c4.436,1.146,7.263,2.787,7.263,2.787s1.121,1.047,2.408,1.299
			c-0.793-0.68-1.58-1.384-2.363-2.114C428.703,478.879,426.257,478.221,423.835,477.773 M442.705,460.844
			c-4.23,5.253-5.363,11.533-5.555,15.961C437.656,472.813,438.635,466.308,442.705,460.844 M466.857,451.056
			c-0.542,0-1.091,0.015-1.641,0.045c-0.291,0.016-0.578,0.034-0.862,0.055c0.564-0.02,1.144-0.029,1.733-0.029
			c1.073,0,2.187,0.032,3.343,0.1c0.557,0.032,1.106,0.078,1.647,0.138C469.699,451.161,468.293,451.056,466.857,451.056"/>
		<path fill="#8FA0A3" d="M480.601,535.767c-0.886,0.879-1.8,1.745-2.739,2.593c3.657,7.95,5.63,13.443,5.63,13.443
			C483.228,546.277,482.191,540.911,480.601,535.767 M406.87,416.042c-3.696,3.346-7.585,6.479-11.65,9.386
			c2.267,5.256,5.353,11.563,9.061,18.174c7.129,12.71,16.557,26.538,26.862,36.144c0.783,0.73,1.57,1.435,2.363,2.114
			c0.176,0.034,0.355,0.054,0.535,0.054c1.177,0,2.381-0.839,2.928-3.838c-2.988-3.373-9.303-11.789-19.205-31.182
			c-1.475-2.888-2.769-5.63-3.902-8.227C409.761,429.272,407.761,421.772,406.87,416.042"/>
		<path fill="#D6E7BD" d="M96.916,327.686c0,0-0.224,0.478-0.637,1.34l-0.25,3.127L96.916,327.686 M98.74,289.996
			c-0.341,3.395-0.55,6.565-0.669,8.779l1.849,6.779C99.92,305.553,99.292,298.833,98.74,289.996"/>
		<path fill="#8AC05A" d="M85.338,270.888c-4.215-0.002,9.592,35.005,9.592,35.005s-12.869-29.549-19.062-29.553
			c-0.15,0-0.295,0.018-0.438,0.053c-6,1.5,13,23.5,13,23.5s-11.579-8.385-18.324-8.385c-0.803,0-1.537,0.119-2.176,0.385
			c-5.013,2.088,15.786,15.685,22.772,20.106c-9.75,2.818-26.812,7.663-34.772,9.394c-6.389,1.389,2.346,1.697,11.372,1.697
			c7.221,0,14.628-0.197,14.628-0.197s-14,4.5-23.5,13c-3.047,2.727-1.722,3.652,1.484,3.652c6.79,0,22.016-4.152,22.016-4.152
			s-14,14.5-9,20.5c0.402,0.483,0.897,0.706,1.465,0.706c5.717,0,18.901-22.551,21.904-27.819l-0.02,0.246
			c0.413-0.862,0.637-1.34,0.637-1.34l-0.887,4.467l-2.1,26.24l3.5-29c0,0,1.5,29,5,30.5c0.08,0.034,0.157,0.051,0.23,0.051
			c3.135,0,0.27-30.597,0.27-32.551c0-0.055,0.007-0.081,0.021-0.081c0.229,0,2.414,8.031,5.099,16.063
			c2.684,8.031,5.868,16.063,8.096,16.063c0.097,0,0.191-0.015,0.285-0.046c3.963-1.321-6.03-29.774-8.473-36.55
			c1.573,4.197,6.596,16.714,13.973,26.55c2.298,3.063,3.813,4.204,4.797,4.204c2.867,0,1.203-9.704,1.203-9.704l-25-30
			c0,0,18-31,14.5-34c-0.244-0.209-0.493-0.307-0.745-0.307c-3.36,0-7.255,17.307-7.255,17.307s1.5-23-4.5-25
			c-0.182-0.061-0.359-0.09-0.532-0.09c-3.151-0.001-4.812,9.783-5.657,18.192c0.552,8.837,1.18,15.558,1.18,15.558l-1.849-6.779
			c-0.104,1.92-0.142,3.119-0.142,3.119s-8-30.5-12.5-31C85.398,270.89,85.367,270.888,85.338,270.888"/>
		<path fill="#8AC05A" d="M556.438,243.143c-0.699,0-2.558,2.206-7.008,10.25c-13,23.5-11.5,58-11.5,58s7.5-19,10.5-36
			c2.101-11.903,3.5-11,8-29C556.43,246.393,557.287,243.143,556.438,243.143"/>
		<path fill="#8AC05A" d="M531.43,334.393c0,0-6.5,14-6.5,25.5s4,27,5.5,27.5c0.02,0.007,0.038,0.01,0.056,0.01
			c1.342,0-2.53-18.646-0.556-29.01C531.93,347.893,531.43,334.393,531.43,334.393"/>
		<path fill="#8AC05A" d="M555.926,325.887c-0.645,0-0.996,0.006-0.996,0.006s24.5,5.5,34.5,10
			c9.631,4.334,24.364,22.582,27.225,22.582c0.109,0,0.201-0.026,0.275-0.082c2-1.5-6.5-17-20-25
			C584.93,326.282,561.077,325.887,555.926,325.887"/>
		<path fill="#DCE6E4" d="M263.001,544.347c-1.296,1.352-2.744,2.616-4.333,3.802c1.292-0.469,2.445-1.312,3.428-2.589
			C262.406,545.156,262.708,544.752,263.001,544.347 M265.892,509.958c2.354,4.943,3.693,9.482,4.147,13.639
			C269.833,519.076,268.48,514.521,265.892,509.958 M237.795,490.142c-3.044,0-6.31,0.508-9.847,1.575
			c2.671-0.748,6.142-1.422,9.981-1.422c1.889,0,3.868,0.163,5.885,0.561C241.902,490.385,239.901,490.142,237.795,490.142
			 M136.194,475.47c-1.977,4.716-3.018,10.078-2.686,16.196C133.546,485.527,134.536,480.131,136.194,475.47 M164.854,451.737
			c-3.295,0-6.519,0.772-9.53,2.584c3.381-1.435,6.762-2.138,9.824-2.137c0.605,0,1.201,0.027,1.779,0.082
			c22.653,2.15,38.336,29.989,38.336,29.989s-0.765-1.599-1.708-4.268c-1.346-1.555-2.725-3.249-4.125-5.095
			C193.623,465.24,178.624,451.737,164.854,451.737"/>
		<path fill="#95ABA2" d="M165.147,452.184c-3.062-0.001-6.443,0.702-9.824,2.137c-0.3,0.18-0.598,0.371-0.894,0.572
			c-7.447,5.071-14.507,11.676-18.235,20.577c-1.658,4.661-2.648,10.057-2.686,16.196c0.052,0.946,0.136,1.91,0.254,2.894
			c0.776,6.436,3.235,8.632,6.653,8.632c6.851,0,17.561-8.811,26.347-9.966c2.525-0.332,4.762-0.492,6.769-0.492
			c8.057,0,12.442,2.577,17.305,6.931c-7.202,4.127-13.046,14.905-14.073,23.896c-2.666,23.333,3.666,45.333,3.666,45.333
			s-1.333-51.333,13.334-62c1.918-1.395,3.973-2.592,6.062-3.638c4.883,2.387,9.377,5.467,12.938,9.638
			c9.763,11.437,30.729,35.711,43.173,35.711c0.965,0,1.879-0.146,2.732-0.455c1.589-1.186,3.037-2.45,4.333-3.802
			c4.902-6.773,7.357-13.722,7.038-20.751c-0.454-4.156-1.793-8.695-4.147-13.639c-0.895-1.576-1.937-3.154-3.129-4.731
			c-5.654-7.478-11.655-12.574-18.948-14.37c-2.017-0.397-3.996-0.561-5.885-0.561c-3.84,0-7.311,0.674-9.981,1.422
			c-1.742,0.524-3.549,1.185-5.429,1.986l0,0l0,0c0,0-8.443-3.563-18.965-15.716c0.943,2.669,1.708,4.268,1.708,4.268
			s-15.683-27.839-38.336-29.989C166.349,452.211,165.753,452.184,165.147,452.184"/>
		<path fill="#B3CD97" d="M235.594,435.153c-3.352,0.577-6.71,1.498-9.731,2.923c0.407,0.17,0.816,0.345,1.221,0.52
			C229.915,437.34,232.977,436.062,235.594,435.153 M219.178,429.431c-1.648,0.641-3.247,1.415-4.711,2.353
			C215.998,430.863,217.578,430.085,219.178,429.431"/>
		<path fill="#DCE6E4" d="M225.862,438.076c-2.069,0.977-3.983,2.19-5.628,3.691c1.698-0.817,4.171-1.984,6.849-3.172
			C226.679,438.42,226.27,438.246,225.862,438.076"/>
		<path fill="#95ABA2" d="M236.958,426.389c-2.051,0-10.425,0.185-17.78,3.042c-1.6,0.654-3.18,1.432-4.711,2.353
			c-1.752,1.121-3.312,2.475-4.537,4.109c-4.688,6.25-0.391,7.422,3.491,7.422c2.329,0,4.509-0.422,4.509-0.422
			s0.88-0.44,2.305-1.126c1.645-1.501,3.559-2.715,5.628-3.691c3.021-1.425,6.38-2.346,9.731-2.923
			c1.953-0.679,3.658-1.152,4.836-1.26c5.5-0.5,11-1,11-1l-14-6.5C237.43,426.393,237.265,426.389,236.958,426.389"/>
		<path fill="#D6E7BD" d="M395.843,544.994c4.955,5.032,9.255,7.899,9.255,7.899c0.459,0.126,0.909,0.247,1.364,0.366
			C402.613,550.647,399.029,547.89,395.843,544.994 M383.755,501.362c-2.366,5.796-2.963,11.314-2.397,16.438
			C381.402,511.611,382.251,506.133,383.755,501.362 M437.15,476.805c-0.018,0.144-0.036,0.284-0.053,0.421
			c-0.038,0.301-0.081,0.583-0.129,0.849c0.051,0.058,0.101,0.114,0.149,0.169C437.119,477.791,437.129,477.31,437.15,476.805
			 M415.49,476.685c-3.955,0-8.35,0.76-12.802,2.953c4.165-1.725,8.726-2.584,13.479-2.584c2.513,0,5.077,0.239,7.667,0.719
			C421.454,477.158,418.609,476.685,415.49,476.685 M471.078,451.364c16.404,2.413,28.746,18.754,35.521,38.537
			C505.311,484.983,496.245,454.103,471.078,451.364 M464.354,451.156c-11.343,0.387-17.846,4.583-21.649,9.688
			C446.648,455.948,453.282,451.943,464.354,451.156"/>
		<path fill="#8AC05A" d="M416.168,477.054c-4.754,0-9.314,0.859-13.479,2.584c-5.707,2.812-11.509,7.98-16.591,16.922
			c-0.921,1.62-1.697,3.221-2.343,4.802c-1.504,4.771-2.353,10.249-2.397,16.438c1.269,11.484,8.375,20.986,14.485,27.193
			c3.187,2.896,6.771,5.653,10.619,8.266c8.701,2.28,16.704,3.295,24.055,3.295c20.486,0,35.92-7.88,47.345-18.194
			c-4.373-9.507-11.154-22.526-19.85-33.87c0.709,4.778,1.357,12.673,0.104,22.037c-2.07,15.489-14.734,26.532-14.734,26.532
			s1.591-3.642,7.304-17.541c4.736-11.522,0.502-33.534-1.085-40.727c-3.208-3.223-6.604-6.097-10.172-8.442
			c-1.995-1.312-3.973-2.82-5.923-4.49c-1.287-0.252-2.408-1.299-2.408-1.299s-2.827-1.641-7.263-2.787
			C421.245,477.293,418.681,477.054,416.168,477.054 M466.088,451.126c-0.59,0-1.169,0.01-1.733,0.029
			c-11.072,0.787-17.706,4.792-21.649,9.688c-4.07,5.464-5.049,11.969-5.555,15.961c-0.021,0.505-0.031,0.985-0.032,1.438
			c1.267,1.41,1.889,1.862,1.889,1.862s2.154,1.6,5.517,4.535c2.634,0.145,32.545,2.031,42.778,13.822
			c0,0-13.572-5.578-22.778-5.578c-0.111,0-0.22,0-0.329,0.002c-0.986,0.015-1.937,0.021-2.844,0.021
			c-3.386,0-6.203-0.091-8.282-0.191c9.774,9.975,22.004,25.171,27.532,43.05c19.516-19.344,26.163-45.207,26.163-45.207
			s-0.053-0.231-0.165-0.659c-6.774-19.783-19.116-36.124-35.521-38.537c-0.541-0.06-1.091-0.105-1.647-0.138
			C468.274,451.159,467.161,451.126,466.088,451.126"/>
		<path fill="#77937A" d="M449.059,492.455l8,7.117c0,0,0.489,1.793,0.953,4.918c8.695,11.344,15.477,24.363,19.85,33.87
			c0.939-0.848,1.854-1.714,2.739-2.593c-5.528-17.879-17.758-33.075-27.532-43.05C450.5,492.593,449.059,492.455,449.059,492.455
			 M436.969,478.075c-0.547,2.999-1.751,3.838-2.928,3.838c-0.18,0-0.359-0.02-0.535-0.054c1.95,1.67,3.928,3.179,5.923,4.49
			c3.568,2.346,6.964,5.22,10.172,8.442c-0.327-1.483-0.542-2.337-0.542-2.337l0,0c0,0-8.09-7.853-5.086-7.854
			c0.107,0,0.229,0.01,0.364,0.03c0,0,0.063,0.003,0.187,0.01c-3.362-2.936-5.517-4.535-5.517-4.535s-0.622-0.452-1.889-1.862
			C437.069,478.189,437.02,478.132,436.969,478.075"/>
		<path fill="#77937A" d="M443.973,484.601c-3.004,0.001,5.086,7.854,5.086,7.854l0,0l0,0c0,0,1.441,0.139,4.01,0.263
			c2.079,0.101,4.896,0.191,8.282,0.191c0.907,0,1.857-0.007,2.844-0.021c0.109-0.002,0.218-0.002,0.329-0.002
			c9.206,0,22.778,5.578,22.778,5.578c-10.233-11.791-40.145-13.678-42.778-13.822c-0.123-0.007-0.187-0.01-0.187-0.01
			C444.201,484.611,444.08,484.601,443.973,484.601"/>
		<path fill="#77937A" d="M449.059,492.455L449.059,492.455c0,0,0.215,0.854,0.542,2.337c1.587,7.192,5.821,29.204,1.085,40.727
			c-5.713,13.899-7.304,17.541-7.304,17.541s12.664-11.043,14.734-26.532c1.253-9.364,0.604-17.259-0.104-22.037
			c-0.464-3.125-0.953-4.918-0.953-4.918L449.059,492.455"/>
		<path fill="#D6E7BD" d="M401.562,161.185c-0.113,0.082-0.228,0.165-0.341,0.247c1.247,1.014,2.534,1.915,3.861,2.716
			C404.49,163.716,403.184,162.718,401.562,161.185 M393.243,150.344c0.991,2.168,2.014,3.974,2.862,5.334
			c0.125-0.074,0.249-0.147,0.373-0.221C395.351,153.937,394.243,152.229,393.243,150.344 M481.764,149.227
			c0,0-0.326,0.093-0.952,0.224c-0.505,0.476-1.021,0.943-1.55,1.401C480.874,149.839,481.764,149.227,481.764,149.227
			 M393.627,115.807c-2.123,4.02-3.348,7.964-3.927,11.732C390.362,123.871,391.615,119.956,393.627,115.807 M424.698,86.923
			c-1.326,0.154-5.894,1.081-12.687,6.683C416.083,90.713,420.356,88.558,424.698,86.923"/>
		<path fill="#8AC05A" d="M493.43,71.893c0,0-9.686,28.098-44.224,43.384c-9.49,4.2-18.143,9.753-25.456,15.465
			c-13.753-17.853,1.347-43.85,1.347-43.85s-0.136,0-0.398,0.03c-4.342,1.634-8.615,3.79-12.687,6.683
			c-4.364,3.599-9.648,9.128-15.581,17.621c-1.072,1.534-2.001,3.062-2.804,4.58c-2.012,4.149-3.265,8.064-3.927,11.732
			c-1.398,9.102,0.969,17.177,3.543,22.805c1,1.886,2.107,3.593,3.235,5.114c-0.124,0.073-0.248,0.146-0.373,0.221
			c1.156,1.852,1.991,2.881,1.991,2.881c1.007,1.042,2.051,1.999,3.125,2.873c0.113-0.083,0.228-0.165,0.341-0.247
			c1.621,1.533,2.928,2.531,3.521,2.963c6.255,3.772,13.336,5.258,20.597,5.258c22.113,0,45.945-13.758,53.582-18.554
			c0.528-0.458,1.045-0.925,1.55-1.401c-1.475,0.309-4.614,0.827-9.061,0.827c-8.795,0-22.708-2.027-38.987-11.718
			c-0.193-0.115-0.377-0.235-0.566-0.352c8.242-5.79,17.518-12.309,27.771-19.124C485.112,102.371,493.43,71.893,493.43,71.893"/>
		<path fill="#AACD72" d="M234.937,152.501c2.765,4.122,7.934,13.212,2.993,17.392c-0.545,0.461-1.095,0.782-1.643,0.982
			c0.379,0.656,0.759,1.327,1.143,2.018c3.288,5.917,5.062,11.668,5.829,17.039c1.903,13.335-2.406,24.335-5.193,29.778
			c6.752-5.522,14.068-10.375,21.855-14.46c-0.095-1.376-0.982-12.482-5.694-24.819c-2.519-6.594-6.13-13.538-11.297-19.538
			C240.166,157.684,237.481,154.903,234.937,152.501"/>
		<path fill="#C5D6D2" d="M197.43,164.393l0.012-0.095L197.43,164.393 M160.93,161.393L160.93,161.393L160.93,161.393
			 M210.93,162.393c0,0-0.374-1.124-0.735-2.708C210.697,161.233,210.93,162.393,210.93,162.393 M221.93,157.393
			c0,0-0.154-0.296-0.395-0.803C221.792,157.084,221.93,157.393,221.93,157.393 M150.43,147.893L150.43,147.893L150.43,147.893
			 M229.93,146.893c0,0-0.376-0.463-0.896-1.191C229.6,146.387,229.93,146.893,229.93,146.893 M154.99,104.652
			c-0.673-0.659-1.061-1.259-1.061-1.259S154.37,103.833,154.99,104.652 M195.984,89.93c0.147,0,0.297-0.012,0.445-0.037
			c6-1,8-23.333,8-23.333s-1,26.833,3.5,28.833c0.5,0.222,1.03,0.321,1.579,0.321c4.39,0,9.921-6.321,9.921-6.321s-5,11-1.5,14
			c0.492,0.422,1.258,0.604,2.211,0.604c5.821,0,18.622-6.77,18.622-6.77s-17.833,10.667-15.333,15.667
			c1.389,2.778,6.894,3.395,11.512,3.395c3.693,0,6.821-0.395,6.821-0.395l0,0l0,0c0,0-17.833,4.5-17.333,9.5
			c0.249,2.486,2.104,4.6,3.906,6.098l7.094,2.902c0,0-5,0.5-8.5,2.5c-2.66,1.52,0.455,6.503,2.104,8.809
			c-1.231-1.489-3.616-3.849-6.378-3.849c-0.721,0-1.468,0.161-2.226,0.54c-4.233,2.117,5.671,17.369,7,20.167
			c-1.097-2.11-9.9-13.208-14.536-13.208c-0.159,0-0.314,0.013-0.464,0.041c-3.819,0.694-3.058,6.69-2.235,10.292
			c-0.975-3-2.967-7.462-6.265-7.792c-0.051-0.005-0.1-0.008-0.149-0.008c-4.617,0-4.879,21.896-5.018,23.008
			c0.128-1.063-0.037-22.103-3.833-24c-0.129-0.065-0.264-0.096-0.402-0.096c-4.18,0-12.765,28.096-12.765,28.096
			s5.167-26.5,1.667-29.5c-0.42-0.36-0.868-0.519-1.334-0.519c-3.406,0-7.666,8.519-7.666,8.519s4-8.5,0.5-11.5
			c-0.572-0.491-1.667-0.696-3.098-0.696c-7.313,0-23.402,5.363-23.402,5.363s18-9.667,15.5-14.667
			c-0.962-1.923-4.659-2.515-8.848-2.515c-6.699,0-14.652,1.515-14.652,1.515s18.5-4.5,19-9.5c0.342-3.421-13.373-6.234-16-7.167
			c0.892,0.192,3.188,0.424,5.748,0.424c0.746,0,1.514-0.02,2.277-0.066c-0.33-0.112-0.525-0.192-0.525-0.192
			s0.264,0.059,0.697,0.181c3.841-0.253,7.48-1.192,7.303-3.681c-0.344-4.811-11.804-11.867-13.167-13.667
			c1.085,1.063,8.749,4.443,13.364,4.443c1.193,0,2.184-0.226,2.803-0.776c3.44-3.058,3.373-7.276,3.151-9.098l-9.865-7.555
			c-0.177-0.13-0.329-0.247-0.453-0.347l0.453,0.347c1.183,0.871,3.478,2.355,6.006,3.704c-0.812-0.872-1.292-1.551-1.292-1.551
			l1.668,1.749c2.854,1.492,5.948,2.766,8.046,2.766c0.735,0,1.349-0.157,1.786-0.515c5.5-4.5,2.5-10,2.5-10s5.538,7.669,9.93,7.669
			c0.366,0,0.725-0.054,1.07-0.169c4.5-1.5-0.167-20.667-0.167-20.667S190.152,89.93,195.984,89.93 M196.982,47.531
			c-8.234,0-12.553,19.862-12.553,19.862s-1-14-9.5-15.5c-0.3-0.053-0.581-0.079-0.845-0.079c-7.203,0-1.155,19.079-1.155,19.079
			s-4.881-9.356-9.507-9.355c-0.503,0-1.003,0.11-1.493,0.355c-4.722,2.36,1.703,12.746,2.434,13.896
			c-0.617-0.95-5.45-8.115-10.81-8.115c-1.194,0-2.417,0.357-3.624,1.219c-7,5,4,17.5,4,17.5s-6.997-6.123-13.2-6.123
			c-1.92,0-3.764,0.587-5.3,2.123c-6.5,6.5,8.5,16,8.5,16s-4.175-1.583-8.585-1.583c-3.809,0-7.793,1.181-9.415,5.583
			c-3.5,9.5,14,14,14,14s-18,0.5-18.5,10.5c-0.278,5.556,6.234,6.79,12.078,6.79c4.675,0,8.922-0.79,8.922-0.79s-18.5,4.5-15,13.5
			c1.312,3.375,4.875,4.43,8.815,4.43c5.55,0,11.851-2.093,13.669-2.741c-2.994,1.138-17.791,7.351-11.484,16.811
			c1.909,2.864,4.45,3.905,7.137,3.905c4.974,0,10.445-3.568,13.327-5.751c-3.82,3.317-11.183,10.89-5.464,15.846
			c1.652,1.432,3.329,1.991,4.939,1.991c5.697,0,10.561-6.991,10.561-6.991s-8,13.5,1,17c0.97,0.377,1.88,0.545,2.734,0.545
			c7.08,0,10.266-11.545,10.266-11.545s-1.402,13.549,5.279,13.549c0.23,0,0.471-0.016,0.721-0.049c7.5-1,7-13.5,7-13.5
			s2.479,12.397,9.316,12.397c0.684,0,1.411-0.124,2.184-0.397c8.5-3,5-18.5,5-18.5s4.087,13.487,11.522,13.487
			c0.788,0,1.614-0.152,2.478-0.487c8.646-3.362-1.164-23.794-1.95-25.4c0.527,1.057,5.212,10.145,10.334,10.145
			c0.488,0,0.981-0.083,1.474-0.263c0.548-0.2,1.098-0.521,1.643-0.982c4.94-4.18-0.229-13.27-2.993-17.392
			c-0.873-1.302-1.507-2.108-1.507-2.108s5.556,3.111,10.444,3.111c2.444,0,4.723-0.778,6.056-3.111c4-7-14.5-16-14.5-16
			s3.625,0.875,7.688,0.875s8.562-0.875,10.312-4.375c3.5-7-12-13.5-12-13.5s0.514,0.028,1.375,0.028
			c4.306,0,17.292-0.695,18.125-9.028c1-10-18.5-10.5-20-10.5s21.5-7,19-16c-1.25-4.5-7.25-5.625-12.938-5.625
			c-5.687,0-11.062,1.125-11.062,1.125s13-6,8-14c-1.081-1.73-2.956-2.408-5.233-2.408c-8.252,0-21.767,8.908-21.767,8.908
			s16-12.5,8-19.5c-1.244-1.089-2.609-1.549-4.028-1.549c-7.701,0-16.972,13.549-16.972,13.549s4.5-11-5-14.5
			C198.258,47.646,197.609,47.531,196.982,47.531"/>
		<path fill="#AACD72" d="M280.942,234.292c2.624-5.215,6.89-10.599,13.821-14.065c8.345-4.172,13.6-5.254,16.806-5.254
			c3.452,0,4.527,1.254,4.527,1.254s-0.7,0.967-1.615,2.498c0.824,1.44-1.051,3.502-1.051,3.502s-3.017,10.061,1.174,15.198
			c0.806,0.342,1.742,0.614,2.826,0.802c2.19,0.381,4.436,0.544,6.675,0.544c4.89,0,9.752-0.779,13.959-1.769
			c11.047-3.465,21.458-8.223,28.307-8.223c0.604,0,1.18,0.037,1.726,0.115c9.334,1.333,19.334,2,19.334,2
			s12.666,12.667,9.333,20.667c0,0,0.295,0.086,0.824,0.27c0.448-0.014,0.889-0.021,1.325-0.021
			c18.86,0,26.302,12.877,28.883,25.754c2.581,12.877,0.305,25.753-0.267,25.753c-0.106,0-0.154-0.447-0.1-1.423
			c0.202-3.637-0.819-7.671-3.049-11.381c-0.072,0.78-0.166,1.572-0.284,2.381c-3.685,25.266-21.087,38.066-33.497,38.066
			c-3.308,0-6.258-0.908-8.503-2.732c-10.666-8.667-46.667-13.334-70-14c-2.121-0.061-4.203-0.088-6.235-0.088
			c-20.337,0-35.765,2.755-35.765,2.755s-18.667,10-14,22c1.091,2.804,2.654,4.989,4.41,6.691c2.298-1.529,3.59-2.691,3.59-2.691
			l6.794,8.152c1.917,0.45,3.206,0.515,3.206,0.515s-0.541,0.578-1.505,1.526l1.505,1.807c0,0-18.959,16.397-31.72,16.397
			c-1.795,0-3.467-0.324-4.946-1.063c-12-6-14-24.667-14-24.667l1.333-3.333c0,0-3.853,0.741-8.864,0.741
			c-10.024,0-24.69-2.963-22.469-20.741c3.333-26.667,14.666-34.667,14.666-34.667s9.581,36.04,24.59,36.04
			c3.135,0,6.506-1.572,10.077-5.374c3.405-3.625,6.357-7.829,8.76-12.243c-2.386,0.37-4.872,0.731-7.46,1.083
			c0,0,12.792-7.022,13.431-25.388c0.372-10.694-6.604-13.183-14.01-13.183c-2.289,0-4.618,0.237-6.785,0.544
			c-1.252,0.525-2.564,1.142-3.936,1.854c0,0,0.269-0.504,0.772-1.354c-1.581,0.271-2.985,0.529-4.105,0.687
			c0,0,5.048-8.79,15.601-14.521c3.476-2.806,7.496-4.873,11.8-4.873c0.42,0,0.841,0.02,1.266,0.06
			c0.737,0.07,1.434,0.129,2.089,0.179c0.996-0.097,2.019-0.159,3.065-0.184c0.597-0.014,1.192-0.021,1.779-0.021
			c1.28,0,2.536,0.033,3.766,0.096c2.425-0.491,1.968-1.403,1.968-1.403S274.716,242.015,280.942,234.292 M320,190.5
			c-21.683,0-42.124,5.331-60.079,14.75c-7.787,4.084-15.104,8.938-21.855,14.46c-23.696,19.382-40.396,47-45.737,78.481
			c-1.202,7.092-1.828,14.375-1.828,21.81c0,1.881,0.04,3.759,0.12,5.621C193.56,394.538,250.36,449.5,320,449.5
			c28.051,0,54.016-8.916,75.22-24.073c4.065-2.906,7.954-6.04,11.65-9.386c21.025-19.03,35.777-44.876,40.77-74.044
			c0.948-5.544,1.544-11.203,1.765-16.964c0.063-1.669,0.096-3.349,0.096-5.033c0-51.79-30.397-96.477-74.327-117.193
			c-4.685-2.209-9.527-4.148-14.499-5.791C347.883,192.788,334.209,190.5,320,190.5"/>
		<path fill="#AFC6BF" d="M159.93,90.393c0,0,0.48,0.679,1.292,1.551c0.125,0.066,0.25,0.132,0.376,0.198L159.93,90.393"/>
		<path fill="#AFC6BF" d="M154.763,87.893c0.124,0.1,0.276,0.217,0.453,0.347L154.763,87.893 M204.43,66.56c0,0-2,22.333-8,23.333
			c-0.148,0.024-0.298,0.037-0.445,0.037c-5.832,0-11.222-18.703-11.222-18.703s4.667,19.167,0.167,20.667
			c-0.346,0.115-0.704,0.169-1.07,0.169c-4.392,0-9.93-7.669-9.93-7.669s3,5.5-2.5,10c-0.438,0.358-1.051,0.515-1.786,0.515
			c-2.098,0-5.191-1.274-8.046-2.766l1.387,1.454c-0.684-0.552-1.281-1.136-1.763-1.652c-2.528-1.348-4.823-2.833-6.006-3.704
			l9.865,7.555c0.222,1.821,0.289,6.04-3.151,9.098c-0.619,0.55-1.609,0.776-2.803,0.776c-4.615,0-12.279-3.38-13.364-4.443
			c1.363,1.8,12.823,8.855,13.167,13.667c0.178,2.489-3.462,3.428-7.303,3.681c0.368,0.104,0.858,0.252,1.415,0.45
			c-0.646-0.139-1.206-0.31-1.587-0.439c-0.764,0.046-1.531,0.066-2.277,0.066c-2.561,0-4.856-0.232-5.748-0.424
			c2.627,0.933,16.342,3.746,16,7.167c-0.5,5-19,9.5-19,9.5s7.953-1.515,14.652-1.515c4.188,0,7.886,0.591,8.848,2.515
			c2.5,5-15.5,14.667-15.5,14.667s16.089-5.363,23.402-5.363c1.431,0,2.525,0.206,3.098,0.696c3.5,3-0.5,11.5-0.5,11.5
			s4.26-8.519,7.666-8.519c0.466,0,0.914,0.158,1.334,0.519c3.5,3-1.667,29.5-1.667,29.5s8.585-28.096,12.765-28.096
			c0.139,0,0.273,0.031,0.402,0.096c3.796,1.897,3.961,22.937,3.833,24c0.139-1.112,0.4-23.008,5.018-23.008
			c0.05,0,0.099,0.002,0.149,0.008c3.298,0.33,5.29,4.792,6.265,7.792c-0.822-3.601-1.584-9.597,2.235-10.292
			c0.149-0.027,0.305-0.041,0.464-0.041c4.636,0,13.439,11.098,14.536,13.208c-1.329-2.798-11.233-18.05-7-20.167
			c0.758-0.379,1.505-0.54,2.226-0.54c2.762,0,5.146,2.359,6.378,3.849c-1.648-2.305-4.764-7.289-2.104-8.809c3.5-2,8.5-2.5,8.5-2.5
			l-7.094-2.902c-1.803-1.499-3.657-3.612-3.906-6.098c-0.5-5,17.333-9.5,17.333-9.5s-3.128,0.395-6.821,0.395
			c-4.618,0-10.123-0.617-11.512-3.395c-2.5-5,15.333-15.667,15.333-15.667s-12.801,6.77-18.622,6.77
			c-0.953,0-1.719-0.182-2.211-0.604c-3.5-3,1.5-14,1.5-14s-5.531,6.321-9.921,6.321c-0.549,0-1.079-0.099-1.579-0.321
			C203.43,93.393,204.43,66.56,204.43,66.56"/>
		<path fill="#99B7AE" d="M161.222,91.944c0.481,0.517,1.079,1.101,1.763,1.652l-1.387-1.454
			C161.472,92.076,161.347,92.01,161.222,91.944"/>
		<path fill="#AFC6BF" d="M210.194,159.685c0.361,1.585,0.735,2.708,0.735,2.708S210.697,161.233,210.194,159.685"/>
		<polyline fill="#AFC6BF" points="197.441,164.298 197.43,164.393 197.441,164.298 		"/>
		<path fill="#AFC6BF" d="M221.535,156.59c0.24,0.506,0.395,0.803,0.395,0.803S221.792,157.084,221.535,156.59"/>
		<path fill="#AFC6BF" d="M229.033,145.702c0.521,0.728,0.896,1.191,0.896,1.191S229.6,146.387,229.033,145.702"/>
		<path fill="#AFC6BF" d="M150.93,118.393c0,0,0.195,0.08,0.525,0.192c0.057-0.003,0.115-0.007,0.172-0.011
			C151.193,118.452,150.93,118.393,150.93,118.393"/>
		<path fill="#99B7AE" d="M151.627,118.574c-0.057,0.003-0.115,0.007-0.172,0.011c0.381,0.129,0.941,0.301,1.587,0.439
			C152.485,118.827,151.995,118.678,151.627,118.574"/>
		<path fill="#AFC6BF" d="M153.93,103.393c0,0,0.388,0.6,1.061,1.259C154.37,103.833,153.93,103.393,153.93,103.393"/>
		<ellipse fill="#FFFFFF" cx="193.43" cy="122.893" rx="20" ry="17.5"/>
		<path fill="#C5D6D2" d="M270.891,351.045l1.701,2.041c0.964-0.948,1.505-1.526,1.505-1.526S272.808,351.496,270.891,351.045
			 M236.699,269.039c-1.106,0.156-2.169,0.331-3.163,0.5c-0.504,0.849-0.772,1.354-0.772,1.354
			C234.135,270.181,235.447,269.564,236.699,269.039 M256.831,250.833c-4.304,0-8.324,2.066-11.8,4.873
			c4.179-2.27,9.22-4.059,15.154-4.634c-0.655-0.049-1.352-0.108-2.089-0.179C257.672,250.853,257.251,250.833,256.831,250.833
			 M280.942,234.292c-6.227,7.723-10.179,15.269-10.179,15.269s0.457,0.913-1.968,1.403c4.314,0.221,8.31,0.818,11.947,1.689
			c-1.312-0.955-2.638-1.984-3.979-3.092C276.764,249.56,277.004,242.117,280.942,234.292 M366.371,228.778
			c-6.849,0-17.26,4.758-28.307,8.223c7.351-1.731,12.699-4.108,12.699-4.108s-15.42,30.104-42.171,30.104
			c-2.818,0-5.763-0.334-8.828-1.073c2.264,2.084,3.766,4.24,4.418,6.249c3.772,11.617,10.971,27.939-52.659,37.81
			c-2.402,4.414-5.354,8.617-8.76,12.243c-3.571,3.801-6.942,5.374-10.077,5.374c-15.009,0-24.59-36.04-24.59-36.04
			s-11.333,8-14.666,34.667c-2.222,17.778,12.444,20.741,22.469,20.741c5.012,0,8.864-0.741,8.864-0.741l0,0
			c0,0,6.056,10.057,17.329,10.057c1.666,0,3.446-0.22,5.338-0.724c5.599-1.493,10.152-4.031,13.076-5.976
			c-1.756-1.702-3.319-3.888-4.41-6.691c-4.667-12,14-22,14-22s15.428-2.755,35.765-2.755c2.032,0,4.114,0.028,6.235,0.088
			c23.333,0.667,59.334,5.333,70,14c2.245,1.824,5.195,2.732,8.503,2.732c12.41,0,29.812-12.801,33.497-38.066
			c0.118-0.809,0.212-1.601,0.284-2.381c-4.142-6.892-12.445-12.658-24.796-12.658c-2.935,0-6.099,0.326-9.488,1.039
			c-13.7,2.884-14,23.333-14,23.333c-22.667-12.667-23.795-44.734,16.667-50c1.683-0.219,3.289-0.349,4.824-0.397
			c-0.529-0.184-0.824-0.27-0.824-0.27c3.333-8-9.333-20.667-9.333-20.667s-10-0.667-19.334-2
			C367.551,228.815,366.975,228.778,366.371,228.778 M314.481,218.724c-2.889,4.831-7.925,15.282,0.123,18.7
			c-4.19-5.137-1.174-15.198-1.174-15.198S315.306,220.164,314.481,218.724"/>
		<path fill="#80B162" d="M398.913,251.809c-0.437,0-0.877,0.007-1.325,0.021c4.843,1.683,29.304,11.562,26.793,38.683
			c2.229,3.709,3.251,7.744,3.049,11.381c-0.055,0.977-0.007,1.423,0.1,1.423c0.571,0,2.848-12.876,0.267-25.753
			C425.215,264.687,417.773,251.809,398.913,251.809"/>
		<path fill="#97B6AD" d="M397.588,251.83c-1.535,0.048-3.142,0.178-4.824,0.397c-40.462,5.266-39.334,37.333-16.667,50
			c0,0,0.3-20.45,14-23.333c3.39-0.713,6.554-1.039,9.488-1.039c12.351,0,20.654,5.767,24.796,12.658
			C426.892,263.392,402.431,253.513,397.588,251.83"/>
		<path fill="#80B162" d="M338.064,237.001c-4.207,0.99-9.069,1.769-13.959,1.769c-2.239,0-4.484-0.163-6.675-0.544
			c-1.084-0.188-2.021-0.46-2.826-0.802c1.436,1.761,3.72,2.943,7.262,2.943c0.694,0,1.436-0.045,2.23-0.141
			C328.721,239.671,333.448,238.449,338.064,237.001 M311.569,214.972c-3.206,0-8.461,1.082-16.806,5.254
			c-6.932,3.466-11.197,8.85-13.821,14.065c5.768-7.155,13.485-14.462,21.821-16.065c3.21-0.617,5.597-0.869,7.355-0.869
			c2.701,0,3.92,0.594,4.362,1.366c0.915-1.531,1.615-2.498,1.615-2.498S315.021,214.972,311.569,214.972"/>
		<path fill="#97B6AD" d="M310.119,217.358c-1.759,0-4.146,0.251-7.355,0.869c-8.336,1.603-16.054,8.91-21.821,16.065
			c-3.938,7.826-4.179,15.269-4.179,15.269c1.342,1.108,2.668,2.138,3.979,3.092c8.451,2.025,14.96,5.534,19.021,9.272
			c3.065,0.738,6.01,1.073,8.828,1.073c26.751,0,42.171-30.104,42.171-30.104s-5.349,2.377-12.699,4.108
			c-4.616,1.448-9.344,2.67-13.968,3.225c-0.795,0.095-1.536,0.141-2.23,0.141c-3.542,0-5.826-1.182-7.262-2.943
			c-8.048-3.418-3.012-13.869-0.123-18.7C314.039,217.952,312.82,217.358,310.119,217.358"/>
		<path fill="#80B162" d="M246.872,266.621c-2.825,0-6.198,0.75-10.173,2.418c2.167-0.307,4.496-0.544,6.785-0.544
			c7.406,0,14.382,2.489,14.01,13.183c-0.639,18.366-13.431,25.388-13.431,25.388c2.588-0.352,5.074-0.713,7.46-1.083
			C261.29,288.036,261.944,266.621,246.872,266.621 M245.031,255.706c-10.553,5.731-15.601,14.521-15.601,14.521
			c1.12-0.158,2.524-0.417,4.105-0.687C235.191,266.754,239.396,260.257,245.031,255.706 M265.03,250.867
			c-0.587,0-1.183,0.007-1.779,0.021c-1.047,0.024-2.069,0.087-3.065,0.184c1.83,0.137,3.348,0.195,4.604,0.195
			c1.835,0,3.114-0.123,4.006-0.303C267.566,250.9,266.311,250.867,265.03,250.867"/>
		<path fill="#97B6AD" d="M268.796,250.963c-0.892,0.18-2.171,0.303-4.006,0.303c-1.257,0-2.774-0.058-4.604-0.195
			c-5.935,0.575-10.976,2.364-15.154,4.634c-5.636,4.551-9.84,11.048-11.495,13.834c0.994-0.17,2.057-0.344,3.163-0.5
			c3.975-1.667,7.348-2.418,10.173-2.418c15.072,0,14.418,21.415,4.651,39.363c63.63-9.871,56.432-26.193,52.659-37.81
			c-0.652-2.009-2.154-4.165-4.418-6.249c-5.903-1.423-12.255-4.346-19.021-9.272C277.105,251.781,273.11,251.185,268.796,250.963"
			/>
		<path fill="#739D90" d="M280.743,252.652c6.767,4.927,13.118,7.85,19.021,9.272C295.703,258.186,289.194,254.677,280.743,252.652"
			/>
		<path fill="#80B162" d="M264.097,342.893c0,0-1.292,1.162-3.59,2.691c3.422,3.318,7.576,4.803,10.384,5.461L264.097,342.893
			 M224.764,342.227L224.764,342.227l-1.333,3.333c0,0,2,18.667,14,24.667c1.479,0.739,3.151,1.063,4.946,1.063
			c12.761,0,31.72-16.397,31.72-16.397l-1.505-1.807c-4.458,4.386-17.988,16.711-29.229,16.711c-0.883,0-1.749-0.075-2.599-0.237
			C226.764,366.893,224.764,342.227,224.764,342.227"/>
		<path fill="#97B6AD" d="M224.764,342.227L224.764,342.227L224.764,342.227c0,0,2,24.666,16,27.333
			c0.85,0.162,1.716,0.237,2.599,0.237c11.241,0,24.771-12.325,29.229-16.711l-1.701-2.041c-2.808-0.658-6.962-2.143-10.384-5.461
			c-2.924,1.944-7.478,4.482-13.076,5.976c-1.892,0.504-3.672,0.724-5.338,0.724C230.819,352.284,224.764,342.227,224.764,342.227"
			/>
		<ellipse cx="307.263" cy="327.155" rx="2.953" ry="6.695"/>
		<ellipse cx="358.534" cy="324.001" rx="2.954" ry="6.695"/>
		<path d="M256.431,331.393c0.129-0.956,0.471-1.813,0.876-2.585c0.404-0.772,0.895-1.456,1.439-2.058
			c1.075-1.21,2.31-2.124,3.611-2.858c2.618-1.455,5.406-2.303,8.355-2.986c5.906-1.327,12.428-2.069,20.973-2.769
			c2.911-0.167,7.643-0.574,17.674-0.369c8.132,0.188,19.033,1.121,30.777,3.181c5.875,1.012,11.961,2.272,18.07,3.622
			c6.113,1.341,12.24,2.783,18.287,3.988c6.042,1.197,11.994,2.197,17.756,2.423c2.857,0.157,5.694,0.024,8.367-0.242
			c1.352-0.219,2.646-0.324,3.91-0.657c0.63-0.146,1.246-0.291,1.851-0.432c0.603-0.158,1.188-0.371,1.761-0.552
			c4.613-1.496,7.986-3.793,10.113-5.449c1.024-0.881,1.822-1.569,2.345-2.049c0.485-0.506,0.74-0.772,0.74-0.772
			s0.213-0.223,0.62-0.649c0.404-0.428,1.026-1.048,1.686-1.92c0.68-0.865,1.561-1.892,2.389-3.219
			c0.422-0.657,0.919-1.336,1.355-2.105c0.425-0.775,0.875-1.595,1.348-2.458c1.764-3.501,3.401-7.906,4.327-12.972
			c0.94-5.058,1.192-10.763,0.343-16.682c-0.354-2.968-1.124-5.961-2.033-8.967c-1.026-2.979-2.254-5.969-3.908-8.821
			c-0.37-0.73-0.871-1.405-1.307-2.11c-0.449-0.699-0.894-1.401-1.427-2.058c-0.515-0.666-1.022-1.337-1.553-1.994l-1.729-1.88
			c-0.555-0.644-1.229-1.192-1.859-1.775c-0.641-0.574-1.266-1.163-1.982-1.659c-0.698-0.514-1.39-1.036-2.102-1.529l-2.245-1.329
			c-0.732-0.468-1.553-0.779-2.335-1.152c-0.793-0.355-1.572-0.737-2.403-0.979c-0.822-0.268-1.641-0.534-2.457-0.8
			c-0.832-0.196-1.667-0.365-2.498-0.539c-0.416-0.082-0.83-0.179-1.245-0.243l-1.248-0.129c-0.83-0.079-1.658-0.169-2.479-0.223
			c-0.816,0.006-1.629,0.012-2.437,0.019l-1.207,0.02c-0.397,0.021-0.786,0.079-1.178,0.117c-6.297,0.599-11.778,2.583-16.371,4.764
			c-1.684,0.865-3.319,1.623-4.774,2.546c-0.737,0.444-1.462,0.858-2.154,1.3c-0.684,0.471-1.348,0.929-1.995,1.375
			c-0.322,0.224-0.641,0.445-0.954,0.663c-0.304,0.243-0.604,0.482-0.899,0.718c-0.588,0.475-1.159,0.936-1.714,1.383
			c-1.071,0.971-2.076,1.893-2.971,2.828c-3.586,3.78-5.53,7.413-6.603,9.968c-1.051,2.63-1.639,5.293-1.858,7.85
			c-0.137,2.56,0.026,4.993,0.529,7.225c0.987,4.472,2.971,8.122,5.334,11.132c2.424,2.978,5.222,5.414,8.516,7.198
			c1.628,0.901,3.382,1.646,5.271,2.099c1.86,0.447,3.937,0.643,5.801,0.055c-1.912-0.366-3.372-1.371-4.645-2.429
			c-1.27-1.069-2.33-2.284-3.262-3.537c-1.885-2.475-3.242-5.145-4.334-7.827c-1.041-2.71-1.771-5.508-1.968-8.388
			c-0.112-1.442-0.019-2.895,0.151-4.379c0.257-1.475,0.65-2.975,1.275-4.522c0.677-1.507,1.813-3.707,4.3-6.334
			c2.453-2.61,6.463-5.586,12.046-8.299c3.714-1.766,7.949-3.234,12.333-3.646c0.273-0.028,0.55-0.077,0.823-0.091l0.818-0.002
			c0.548-0.008,1.098-0.016,1.65-0.024c0.541,0.052,1.085,0.105,1.632,0.158l0.822,0.072c0.27,0.042,0.533,0.114,0.801,0.167
			c0.535,0.111,1.072,0.223,1.611,0.335c0.52,0.172,1.041,0.345,1.564,0.519c0.536,0.136,1.026,0.401,1.532,0.626
			c0.497,0.245,1.032,0.413,1.498,0.733c3.928,2.143,7.274,5.69,9.675,9.871c1.216,2.083,2.138,4.346,2.934,6.611
			c0.684,2.308,1.307,4.615,1.572,6.932c0.676,4.609,0.476,9.076-0.244,12.954c-0.707,3.892-1.941,7.193-3.231,9.777
			c-0.346,0.633-0.674,1.235-0.984,1.804c-0.314,0.566-0.685,1.048-0.986,1.528c-0.59,0.974-1.236,1.7-1.719,2.328
			c-0.473,0.647-0.902,1.054-1.18,1.348c-0.277,0.293-0.424,0.447-0.424,0.447s-0.173,0.184-0.502,0.535
			c-0.354,0.307-0.875,0.76-1.546,1.343c-1.401,1.061-3.463,2.491-6.47,3.461c-0.379,0.116-0.752,0.263-1.158,0.369
			c-0.413,0.093-0.835,0.189-1.266,0.287c-0.84,0.241-1.815,0.294-2.77,0.465c-1.983,0.183-4.151,0.305-6.537,0.165
			c-4.741-0.182-10.186-1.072-15.943-2.225c-11.523-2.353-24.402-5.62-36.656-7.692c-12.249-2.154-23.851-3.151-32.498-3.329
			c-10.568-0.205-15.74,0.251-18.902,0.469c-9.342,0.858-16.826,2.812-23.309,6.498c-1.616,0.898-3.146,2.002-4.587,3.18
			c-1.428,1.229-2.765,2.582-3.902,4.146c-1.136,1.559-2.056,3.345-2.56,5.265C255.881,327.46,255.784,329.548,256.431,331.393z"/>
		<path d="M396.431,245.393c0.457-3.856-0.201-7.711-1.897-11.189c-1.701-3.487-4.668-6.447-8.285-8.382
			c-3.628-1.88-7.789-2.838-12.056-2.896c-4.288-0.084-8.75,0.587-13.427,1.919c-0.803,0.21-1.711,0.488-2.777,0.852
			c-0.537,0.177-1.117,0.369-1.748,0.578c-0.586,0.204-1.22,0.423-1.906,0.662c-2.712,0.946-6.273,2.198-11.07,3.711
			c-2.412,0.755-5.651,1.738-9.105,2.616c-3.434,0.866-7.155,1.632-10.104,1.741c-1.467,0.063-2.7-0.047-3.513-0.256
			c-0.806-0.225-1.217-0.471-1.586-0.76c-0.361-0.286-0.679-0.692-0.912-0.994c-0.115-0.175-0.205-0.311-0.266-0.403l-0.095-0.15
			c0,0-0.107-0.19-0.304-0.536c-0.194-0.38-0.483-0.936-0.827-1.764c-0.043-0.102-0.088-0.207-0.133-0.314l-0.065-0.156
			l-0.011-0.057l-0.079-0.21l0.016,0.006l0.005,0.007l-0.014,0l0.021-0.004l0.029-0.043l0.146-0.13
			c0.393-0.404,1.45-1.009,2.653-1.507c1.231-0.508,2.691-0.939,4.179-1.296c1.495-0.353,3.037-0.628,4.513-0.833
			c0.737-0.104,1.462-0.189,2.145-0.257l0.497-0.045l0.231-0.019l0.097-0.007l0.013-0.001l0.003,0
			c4.912-22.084,1.354-6.126,2.445-11.058l-0.029-0.016l-0.118-0.063c-0.484-0.25-0.857-0.428-1.251-0.611
			c-1.771-0.815-3.52-1.477-5.22-2.023c-6.376-2.036-11.641-2.467-15.721-2.358c-4.09,0.14-6.997,0.722-9.061,1.281
			c-5.148,1.336-9.362,3.775-12.678,6.483c-3.315,2.743-5.795,5.781-7.712,8.915c-0.487,0.779-0.891,1.596-1.318,2.387l-0.62,1.192
			c-0.191,0.403-0.357,0.818-0.533,1.226c-0.335,0.816-0.671,1.634-1.009,2.457c-0.297,0.833-0.554,1.684-0.821,2.529
			c-1.074,3.379-1.702,6.96-2.223,10.778c4.46-6.329,8.657-11.024,13.192-15.162c2.295-2.04,4.711-3.889,7.401-5.533
			c2.705-1.615,5.683-3.06,9.263-3.947c1.438-0.379,3.463-0.766,6.41-0.863c2.932-0.072,6.881,0.243,11.798,1.815
			c1.296,0.417,2.659,0.941,3.889,1.509c0.232,0.113,0.471,0.229,0.714,0.349l0.006,0.002l0.001,0
			c1.097-4.929-2.453,11.034,2.458-11.051l-0.014,0.001l-0.059,0.004l-0.184,0.013l-0.335,0.026c-0.215,0.02-0.432,0.039-0.65,0.059
			c-0.861,0.083-1.735,0.186-2.633,0.312c-1.794,0.25-3.674,0.584-5.61,1.044c-1.938,0.47-3.926,1.045-5.947,1.879
			c-2.021,0.875-4.092,1.879-6.104,3.722c-0.251,0.237-0.491,0.458-0.736,0.712c-0.257,0.288-0.507,0.58-0.747,0.875
			c-0.478,0.583-0.908,1.282-1.268,1.945c-0.702,1.367-1.11,2.806-1.219,4.205c-0.077,0.695-0.021,1.382,0.007,2.042
			c0.07,0.656,0.198,1.292,0.328,1.898c0.146,0.551,0.316,1.017,0.481,1.494l0.126,0.347l0.096,0.229
			c0.062,0.146,0.124,0.289,0.184,0.429c0.469,1.112,0.954,2.064,1.302,2.718c0.384,0.667,0.595,1.034,0.595,1.034
			s0.271,0.447,0.809,1.249c0.592,0.8,1.484,2.011,3.029,3.292c1.521,1.282,3.735,2.468,6.066,3.067
			c2.328,0.604,4.676,0.728,6.914,0.648c4.486-0.181,8.706-1.117,12.552-2.065c3.827-0.97,7.24-2.016,9.763-2.824
			c5.023-1.592,8.656-2.88,11.43-3.859c0.686-0.242,1.317-0.464,1.902-0.67c0.545-0.183,1.047-0.351,1.511-0.506
			c0.926-0.325,1.7-0.569,2.37-0.749c7.913-2.302,13.921-3.14,19.142-2.252c2.583,0.508,5.092,1.468,7.418,3.359
			C392.871,239.078,395.037,241.794,396.431,245.393z"/>
		<path d="M248.929,326.393c0.679,3.164,1.646,6.077,2.783,8.843c1.157,2.757,2.486,5.391,4.201,7.874
			c1.701,2.486,3.691,4.911,6.314,7.072c0.643,0.552,1.299,1.109,2.057,1.588c0.37,0.248,0.744,0.498,1.12,0.75l0.572,0.375
			l0.145,0.093l-0.104-0.042c-0.135-0.076-0.053-0.02-0.071-0.023c0.055,0.151,0.04,0.246-0.003,0.3
			c-0.125,0.113-0.282,0.131-0.271,0.112l-0.002-0.002c-0.008,0.006,0.037-0.042-0.11,0.11c-0.249,0.263-0.518,0.547-0.812,0.855
			c-0.621,0.591-1.33,1.298-2.283,2.031c-1.876,1.486-4.553,3.28-8.71,4.902c-0.826,0.312-1.709,0.573-2.593,0.881
			c-0.888,0.291-1.787,0.469-2.706,0.727c-1.802,0.325-3.676,0.641-5.382,0.53c-3.473-0.168-6.104-1.401-8.186-4.071
			c-2.082-2.688-3.383-6.688-4.023-10.605c-0.092-0.487-0.144-0.988-0.219-1.475l-0.085-0.737l-0.062-0.604
			c-0.024-0.283-0.061-0.569-0.071-0.848c-0.047-1.13-0.173-2.197-0.138-3.354c0.003-0.569,0.005-1.135,0.008-1.698
			c0.031-0.592,0.062-1.181,0.093-1.767c0.127-2.372,0.25-4.687,0.37-6.934l0.044-0.818l0.021-0.4
			c-0.087,0.005-0.218,0.089-0.328,0.132c-0.475,0.214-0.944,0.427-1.411,0.638c-0.976,0.441-1.935,0.875-2.877,1.302
			c-1.521,0.689-3.042,1.379-4.559,2.066c-0.734,0.303-1.474,0.63-2.202,0.913c-0.719,0.239-1.441,0.498-2.154,0.72l-1.626,0.435
			l-0.886,0.19c-0.586,0.107-1.168,0.209-1.735,0.272c-2.278,0.276-4.358,0.122-5.875-0.461c-0.779-0.271-1.419-0.646-1.986-1.133
			c-0.31-0.206-0.542-0.531-0.827-0.786l-0.366-0.485c-0.133-0.148-0.253-0.32-0.355-0.52c-0.919-1.452-1.588-3.426-1.964-5.58
			l-0.149-0.802l-0.093-0.84c-0.051-0.566-0.161-1.094-0.157-1.69c-0.044-1.163-0.088-2.312-0.132-3.448
			c0.057-1.131,0.113-2.248,0.168-3.349c0.076-1.099,0.282-2.169,0.404-3.231c0.687-4.224,1.956-8.08,3.502-11.45
			c0.192-0.421,0.383-0.839,0.571-1.251c0.195-0.367,0.389-0.729,0.579-1.087l-0.012,0.013l-0.01,0.01l-0.009-0.003l0.004-0.021
			v-0.002l-0.015-0.052c0.075,0.275,0.149,0.547,0.223,0.814c0.144,0.547,0.307,1.077,0.463,1.59
			c0.636,2.053,1.277,3.84,1.956,5.387c1.316,3.099,2.615,5.243,3.626,6.717c1.012,1.474,1.693,2.305,2.105,2.768
			c0.407,0.464,0.51,0.581,0.51,0.581s0.772,0.952,2.576,2.501c0.458,0.381,0.955,0.817,1.578,1.231
			c0.605,0.432,1.27,0.895,2.055,1.314c1.518,0.906,3.44,1.697,5.632,2.289c0.553,0.122,1.12,0.248,1.701,0.377
			c0.603,0.108,1.286,0.158,1.952,0.227c0.337,0.026,0.678,0.054,1.022,0.082c0.345-0.012,0.693-0.023,1.045-0.035
			c0.699-0.052,1.439-0.023,2.143-0.176c2.913-0.37,5.759-1.53,8.335-3.077c5.176-3.151,9.308-7.86,12.69-13.299
			c3.374-5.472,6.123-11.73,7.814-18.839c0.822-3.566,1.39-7.349,1.294-11.515c-0.118-2.113-0.276-4.274-1.031-6.655
			c-0.729-2.331-1.959-4.947-4.31-7.117c-0.302-0.262-0.609-0.518-0.923-0.768l-0.472-0.37c-0.157-0.119-0.269-0.176-0.405-0.266
			c-0.533-0.322-1.039-0.668-1.606-0.953c-1.118-0.587-2.306-1.093-3.551-1.463c-2.488-0.754-5.146-0.965-7.63-0.724
			c-2.5,0.229-4.811,0.9-6.934,1.754c-2.123,0.862-4.074,1.918-5.878,3.098c-1.811,1.177-3.49,2.465-5.079,3.846
			c-0.794,0.693-1.564,1.406-2.324,2.159c-0.382,0.38-0.752,0.758-1.151,1.192l-0.161,0.177l-0.057,0.063
			c-9.046-4.879,12.251,6.727,10.063,5.523l0.003-0.008l0.067-0.216l0.178-0.521c1.049-2.93,2.563-5.95,4.345-8.609h0.001
			c3.015-4.624,7.056-8.306,10.971-10.467c3.912-2.213,7.65-2.954,9.849-3.287c5.746-0.779,10.716,0.023,14.567,0.885
			c3.877,0.865,6.7,1.951,8.594,2.679c3.931,1.388,7.045,3.029,9.926,4.523c2.675,1.669,5.074,3.264,6.98,5.217
			c1.868,1.957,3.415,4.201,4.401,7.061c1.019,2.848,1.306,6.279,0.946,10.145c2.103-3.21,3.647-6.742,3.991-10.579
			c0.39-3.818-0.406-7.824-2.222-11.428c-1.841-3.614-4.646-6.617-7.947-9.351c-3.389-2.485-7.295-4.825-11.832-6.493
			c-2.24-0.881-5.482-2.15-10.199-3.228c-4.686-1.045-10.921-2.148-18.857-1.096c-1.522,0.235-3.588,0.591-6,1.307
			c-2.395,0.745-5.172,1.759-7.949,3.355c-5.616,3.088-11.151,8.257-15.038,14.235v0c-2.326,3.505-4.191,7.173-5.649,11.236
			l-0.27,0.798l-0.141,0.448l-0.046,0.159c-2.207-1.157,19.107,10.435,10.086,5.525l0.001-0.001l0.073-0.081
			c0.229-0.249,0.508-0.536,0.784-0.81c0.559-0.555,1.149-1.102,1.753-1.628c1.209-1.053,2.476-2.02,3.762-2.856
			c2.563-1.676,5.257-2.805,7.522-3.008c1.135-0.103,2.151-0.008,3.109,0.277c0.481,0.141,0.948,0.343,1.416,0.583
			c0.237,0.108,0.46,0.285,0.696,0.414l0.154,0.097l0.041,0.057l0.103,0.085c0.276,0.242,0.688,0.88,0.995,1.868
			c0.338,0.956,0.449,2.291,0.527,3.592c0.065,2.706-0.327,5.641-0.984,8.463c-1.334,5.675-3.656,10.979-6.336,15.311
			c-2.664,4.354-5.858,7.718-8.771,9.456c-1.45,0.867-2.794,1.4-3.953,1.522c-0.295,0.094-0.572,0.025-0.848,0.064l-0.407,0.033
			l-0.395-0.05c-0.266-0.038-0.502-0.026-0.779-0.075c-0.291-0.065-0.576-0.129-0.853-0.191c-2.174-0.564-3.638-1.607-4.622-2.427
			c-0.975-0.831-1.448-1.404-1.448-1.404s-0.061-0.069-0.303-0.346c-0.247-0.268-0.658-0.778-1.317-1.736
			c-0.656-0.958-1.553-2.407-2.546-4.746c-0.511-1.156-1.012-2.559-1.522-4.205c-0.126-0.413-0.258-0.838-0.375-1.288
			c-0.062-0.23-0.126-0.464-0.19-0.701c-0.165-0.617-0.25-1.079-0.381-1.639c-0.121-0.538-0.244-1.084-0.368-1.639
			c-0.103-0.574-0.206-1.155-0.311-1.746c-0.228-1.154-0.378-2.46-0.541-3.792c0.019,0.131-0.015-0.104-0.084-0.711
			c-0.044-0.658-0.113-1.706-0.208-3.122c-0.065-1.55-0.146-3.502-0.244-5.832c-0.051-1.205-0.104-2.507-0.163-3.903
			c-0.029-0.703-0.06-1.43-0.091-2.18l-0.006-0.139l-0.062,0.049l-0.132,0.124l-0.267,0.25c-0.179,0.168-0.36,0.339-0.544,0.512
			c-1.182,1.112-2.499,2.351-3.942,3.708c-0.804,0.755-1.643,1.544-2.516,2.364c-0.869,0.827-1.761,1.61-2.716,2.652
			c-0.475,0.497-0.957,1.001-1.447,1.514c-0.489,0.542-0.983,1.21-1.487,1.824c-0.503,0.629-1.014,1.268-1.532,1.916
			c-0.493,0.739-0.992,1.488-1.499,2.249c-0.506,0.762-1.02,1.535-1.539,2.318c-0.477,0.844-0.959,1.7-1.447,2.566
			c-0.279,0.521-0.561,1.048-0.846,1.582c-0.239,0.516-0.48,1.038-0.724,1.565c-1.942,4.222-3.562,9.104-4.437,14.484
			c-0.17,1.35-0.414,2.716-0.516,4.114c-0.07,1.4-0.141,2.82-0.213,4.258c0.053,1.436,0.105,2.89,0.158,4.36
			c0.005,0.724,0.137,1.506,0.211,2.267l0.134,1.151l0.212,1.18c0.566,3.132,1.549,6.513,3.611,9.805
			c1.981,3.282,5.493,6.299,9.389,7.65c1.93,0.707,3.906,1.107,5.811,1.252c1.903,0.139,3.749,0.067,5.53-0.141
			c0.893-0.102,1.762-0.25,2.627-0.412l1.28-0.274l0.523-0.131l-0.026,0.01l-0.017-0.018l-0.002-0.023l-0.002-0.017l-0.001-0.005
			l0.026,0.231l0.108,0.933c0.093,0.626,0.163,1.255,0.279,1.894c0.425,2.548,1.048,5.196,2.028,7.89
			c0.985,2.684,2.32,5.439,4.295,7.999c1.961,2.551,4.627,4.854,7.682,6.339c3.048,1.511,6.33,2.172,9.347,2.302
			c3.051,0.154,5.793-0.307,8.38-0.797c1.239-0.328,2.493-0.602,3.646-0.976c1.146-0.39,2.271-0.736,3.35-1.146
			c5.454-2.123,9.211-4.616,11.864-6.745c1.342-1.053,2.383-2.076,3.272-2.95c0.429-0.458,0.822-0.879,1.187-1.268
			c0.17-0.165,0.466-0.558,0.715-0.871c0.254-0.321,0.497-0.631,0.731-0.928c3.868-4.702,4.901-9.467,6.066-12.797
			c-1.722-0.476-3.393-0.864-5.033-1.36c-1.622-0.481-3.215-0.955-4.782-1.42c-0.212-0.071-0.336-0.077-0.65-0.224l-0.48-0.209
			l-0.431-0.194c-0.29-0.126-0.578-0.252-0.863-0.376c-0.586-0.218-1.138-0.53-1.692-0.831c-2.251-1.133-4.362-2.562-6.456-4.089
			c-2.11-1.52-4.14-3.241-6.221-5.125C253.123,330.934,251.003,328.86,248.929,326.393z"/>
		<path d="M319.93,391.393c1.223,2.423,2.381,3.831,4.876,4.596c1.354,0.406,5.496,1.482,9.485,1.662
			c0.496,0.024,0.988,0.048,1.467,0.072c0.483-0.005,0.955-0.009,1.408-0.013c0.902,0.015,1.742-0.089,2.451-0.139
			c0.709-0.041,1.293-0.146,1.699-0.213s0.636-0.104,0.636-0.104c0-0.001,0.919-0.115,2.324-0.501
			c0.72-0.158,1.508-0.418,2.356-0.713c0.861-0.264,1.76-0.67,2.69-1.046c1.835-0.829,3.693-1.857,5.175-2.897
			c1.471-1.057,2.608-2.03,3.131-2.571c0.999-0.958,1.544-1.966,1.818-3.04c0.265-1.071,0.276-2.262-0.018-3.594
			c-1.247,0.507-2.25,0.74-3.126,1.109c-0.878,0.356-1.605,0.824-2.423,1.554c-0.421,0.413-1.341,1.177-2.528,2.031
			c-1.203,0.839-2.732,1.688-4.262,2.387c-0.783,0.313-1.528,0.664-2.266,0.889c-0.728,0.257-1.393,0.482-1.948,0.6
			c-0.561,0.135-1.011,0.279-1.341,0.33c-0.33,0.053-0.516,0.082-0.516,0.082s-0.186,0.029-0.516,0.081
			c-0.329,0.053-0.8,0.14-1.393,0.166c-0.59,0.035-1.274,0.126-2.043,0.104c-0.382,0.003-0.779,0.005-1.187,0.008
			c-0.411-0.022-0.832-0.045-1.257-0.068c-3.416-0.156-7.131-1.114-8.347-1.435C324.018,390.118,322.511,390.601,319.93,391.393z"/>
		<path d="M256.929,365.893c0.506,6.178,1.296,11.353,2.722,16.668c0.745,2.651,1.615,5.349,2.853,8.196
			c1.243,2.849,2.721,5.873,4.962,9.138c0.406,0.549,0.877,1.185,1.44,1.945c0.29,0.397,0.584,0.762,0.899,1.146
			c0.318,0.392,0.662,0.815,1.035,1.274c1.547,1.831,3.553,4.318,6.68,7.391c1.055,1.118,2.343,2.211,3.662,3.418
			c1.327,1.201,2.877,2.331,4.426,3.586c3.268,2.299,6.928,4.708,11.058,6.589c1.027,0.478,2.064,0.96,3.108,1.444
			c1.08,0.395,2.168,0.792,3.26,1.19l1.643,0.594l0.825,0.295l0.845,0.225l3.385,0.893l1.693,0.442
			c0.563,0.15,1.142,0.209,1.71,0.316c1.143,0.191,2.28,0.381,3.413,0.57c0.565,0.093,1.13,0.186,1.693,0.278
			c0.562,0.095,1.128,0.101,1.688,0.154c1.122,0.084,2.235,0.167,3.337,0.249c8.807,0.482,16.795-0.312,22.423-1.383
			c1.413-0.257,2.692-0.489,3.817-0.693s2.097-0.367,2.875-0.594c1.565-0.401,2.434-0.623,2.434-0.623s0.727-0.186,2.05-0.522
			c0.66-0.172,1.47-0.382,2.412-0.626c0.928-0.309,1.986-0.661,3.159-1.051c1.172-0.392,2.458-0.822,3.843-1.285
			c1.353-0.567,2.802-1.175,4.331-1.815c0.764-0.323,1.547-0.654,2.349-0.993c0.777-0.401,1.572-0.812,2.383-1.23
			c0.809-0.421,1.633-0.851,2.471-1.287c0.419-0.219,0.841-0.439,1.267-0.662c0.415-0.243,0.82-0.512,1.236-0.77
			c6.732-3.946,13.589-9.585,18.908-16.229c5.378-6.603,9.146-14.046,11.424-20.455c0.453-1.395,0.885-2.723,1.295-3.986
			c0.431-1.26,0.646-2.499,0.953-3.65c0.267-1.16,0.58-2.246,0.759-3.288c0.177-1.043,0.342-2.023,0.497-2.943
			c0.146-0.92,0.315-1.777,0.411-2.58c0.08-0.805,0.154-1.55,0.223-2.238c0.13-1.377,0.257-2.523,0.321-3.459
			c0.053-1.893,0.075-3.685,0.068-5.392c0.008-1.71-0.205-3.3-0.331-4.845c-0.084-0.769-0.165-1.522-0.246-2.265
			c-0.102-0.737-0.242-1.454-0.37-2.164c-0.266-1.416-0.54-2.789-0.857-4.132c-1.38-5.344-3.237-10.266-5.938-15.842
			c-0.227,6.184-0.686,11.267-0.895,16.535c-0.082,1.316-0.16,2.644-0.201,4.001c-0.018,0.678-0.036,1.364-0.055,2.062
			c-0.036,0.693-0.073,1.397-0.11,2.115c-0.086,1.429-0.038,2.929-0.158,4.464c-0.106,1.537-0.189,3.146-0.247,4.847
			c-0.379,3.309-0.669,9.861-3.994,19.594c-2,5.594-5.252,12.004-9.873,17.688c-4.571,5.718-10.482,10.609-16.42,14.098
			c-0.364,0.229-0.718,0.468-1.083,0.683c-0.378,0.196-0.753,0.392-1.125,0.585c-0.744,0.388-1.476,0.77-2.193,1.144
			c-0.718,0.375-1.422,0.742-2.11,1.102c-0.72,0.304-1.424,0.6-2.109,0.889c-1.371,0.58-2.67,1.129-3.884,1.642
			c-1.256,0.42-2.424,0.811-3.487,1.166c-1.063,0.358-2.022,0.682-2.864,0.965c-0.864,0.224-1.606,0.416-2.213,0.573
			c-1.213,0.312-1.88,0.482-1.88,0.482s-0.797,0.204-2.234,0.571c-0.712,0.21-1.609,0.355-2.647,0.539
			c-1.037,0.187-2.218,0.397-3.521,0.632c-5.199,0.99-12.46,1.671-20.274,1.237c-0.975-0.072-1.96-0.146-2.953-0.22
			c-0.495-0.048-1.001-0.048-1.492-0.134l-1.479-0.252c-0.99-0.165-1.985-0.332-2.984-0.499c-0.496-0.095-1.007-0.14-1.493-0.273
			l-1.465-0.391l-2.934-0.772l-0.732-0.19l-0.708-0.258l-1.413-0.517c-0.94-0.341-1.877-0.68-2.808-1.018
			c-0.896-0.419-1.784-0.835-2.665-1.247c-3.548-1.605-6.683-3.688-9.512-5.659c-1.339-1.098-2.685-2.06-3.845-3.112
			c-1.154-1.06-2.283-1.998-3.221-2.995c-2.761-2.697-4.603-4.968-6.061-6.681c-0.362-0.442-0.696-0.85-1.005-1.227
			c-0.315-0.382-0.597-0.727-0.801-1.012c-0.445-0.591-0.818-1.084-1.14-1.511c-1.863-2.647-3.418-5.297-4.91-7.726
			c-1.497-2.438-2.861-4.758-4.28-6.986C263.164,375.329,260.264,371.103,256.929,365.893z"/>
		<path d="M339.43,329.393c2.391,2.698,4.206,5.049,6.076,7.431c0.926,1.195,1.857,2.407,2.784,3.714
			c0.927,1.302,1.847,2.721,2.548,4.271c0.2,0.518,0.513,1.219,0.636,2.131c0.099,0.914,0.088,1.947-0.811,3.163
			c-0.449,0.622-1.678,1.724-2.95,2.527c-0.64,0.396-1.221,0.766-1.68,1.001c-0.448,0.246-0.727,0.399-0.727,0.399
			s-0.244,0.116-0.644,0.307c-0.395,0.197-0.954,0.456-1.6,0.726c-1.275,0.56-2.89,1.146-4.055,1.533
			c-5.834,1.886-9.652,2.339-11.589,2.601c-3.954,0.453-7.02,0.667-9.886,0.629c-1.441-0.013-2.813-0.138-4.198-0.486
			c-1.362-0.362-2.796-0.988-3.906-2.445c0.271,1.802,1.443,3.391,2.812,4.483c1.38,1.106,2.946,1.878,4.57,2.39
			c3.272,1.043,6.854,1.312,11.234,0.854c2.158-0.271,6.304-0.748,12.693-2.808c1.283-0.418,3.064-1.074,4.503-1.718
			c0.723-0.309,1.36-0.61,1.815-0.843c0.457-0.225,0.736-0.362,0.736-0.362s0.331-0.177,0.863-0.461
			c0.535-0.27,1.259-0.713,2.049-1.199c1.576-0.985,3.369-2.492,4.306-3.776c1.007-1.313,1.568-2.738,1.815-4.007
			c0.271-1.284,0.166-2.364,0.072-3.261c-0.267-1.783-0.756-2.805-1.075-3.602c-1.058-2.267-2.351-3.908-3.636-5.274
			c-1.291-1.363-2.598-2.448-3.931-3.396C345.585,332.036,342.817,330.661,339.43,329.393z"/>
	</g>
</g>
</svg>
