<?xml version="1.0" encoding="utf-8"?>
<!-- Generator: Adobe Illustrator 16.0.0, SVG Export Plug-In . SVG Version: 6.00 Build 0)  -->
<!DOCTYPE svg PUBLIC "-//W3C//DTD SVG 1.1//EN" "http://www.w3.org/Graphics/SVG/1.1/DTD/svg11.dtd">
<svg version="1.1" xmlns="http://www.w3.org/2000/svg" xmlns:xlink="http://www.w3.org/1999/xlink" x="0px" y="0px" width="640px"
	 height="640px" viewBox="0 0 640 640" enable-background="new 0 0 640 640" xml:space="preserve">
<g id="couleurs">
</g>
<g id="traits">
	<g>
		<path fill="#D1E2A8" d="M195.44,265.174c-3.67-19.81-2.608-42.36,7.989-66.281c24.043-54.269,75.93-62.764,106.059-62.764
			c13.73,0,22.941,1.764,22.941,1.764s95,27,90,101c-1.512,22.366-6.312,40.44-12.274,54.771c2.782-1.083,4.274-1.771,4.274-1.771
			l0,0l0,0l-11.836,17.181c-3.858,6.732-7.824,12.241-11.466,16.644l-3.674,5.333l3.976-0.158l0,0l12-18l51,19
			c0,0,11.283-30.092,23.821-30.09c0.392,0,0.785,0.029,1.179,0.09c13,2,11,55,11,55s6,14,23,32s46,38,46,38
			s9.333,0.444,18.519,0.444c4.592,0,9.148-0.111,12.481-0.444c0.476-0.048,0.947-0.072,1.418-0.072
			c9.419,0.001,17.63,10.021,18.582,49.072c1,41-31,57-31,57s-27,12-37,18c-7.592,4.556-19.797,16.028-33.985,32.229
			c-7.964,10.539-15.919,20.675-20.015,24.771c-10,10-38,32.107-38,32.107h-7l0,0h-231l0,0h-8c0,0-7.938-3.369-19.753-9.938
			c-8.107-4.155-16.892-9.539-25.809-16.091c-22.747-15.854-48.528-38.741-63.438-68.079
			c-17.678-34.785-18.121-61.116-15.236-77.322c0.032-2.211,0.11-4.431,0.236-6.678C86.161,359.68,205.046,319.519,215.672,316.13
			c-9.993-13.469-19.761-29.71-20.242-42.237C195.318,271.009,195.331,268.088,195.44,265.174 M501.43,137.893L501.43,137.893
			c3.991-1.909,8.4-2.763,12.941-2.763c6.489,0,13.242,1.747,19.404,4.66c15.523,3.04,22.638,9.731,21.75,21.083
			c1.374,3.631,1.773,7.371,0.904,11.02c-2.164,9.089-16.13,15.93-31.275,20.767c-8.614,3.592-15.725,5.233-15.725,5.233
			l-16.98,2.567c-5.498,0.967-9.02,1.433-9.02,1.433s0.047-0.031,0.138-0.091l-60.138,9.091l-28-42
			C395.43,168.893,459.43,138.893,501.43,137.893L501.43,137.893 M640,0H0v640h640V0"/>
		<path d="M205.43,120.893c1.326-5.007,3.037-8.778,4.888-12.536c0.515-0.922,1.01-1.853,1.489-2.811
			c0.562-0.923,1.151-1.856,1.713-2.842c1.224-1.919,2.582-3.938,4.283-6.069c1.188-1.386,3.002-3.886,8.038-7.589
			c2.634-1.819,5.901-3.777,9.833-5.049c3.895-1.332,8.353-2.164,13.028-2.16c4.675,0.008,9.495,0.946,13.979,2.705
			c4.487,1.757,8.612,4.376,12.016,7.482c3.414,3.103,6.106,6.663,8.063,10.175c0.861,1.814,1.782,3.5,2.319,5.215
			c0.154,0.42,0.307,0.833,0.456,1.239c0.076,0.203,0.15,0.404,0.225,0.603c0.052,0.206,0.104,0.41,0.156,0.611
			c0.207,0.806,0.406,1.581,0.597,2.32c0.226,0.732,0.311,1.457,0.413,2.139c0.105,0.681,0.204,1.324,0.297,1.925
			c0.121,0.598,0.123,1.167,0.15,1.689c0.026,0.521,0.051,0.999,0.072,1.427c0.033,0.858,0.115,1.525,0.059,1.978
			c-0.023,0.453-0.036,0.691-0.036,0.691s-0.04,0.797-0.114,2.247c0.012,0.73-0.209,1.598-0.341,2.622
			c-0.077,0.511-0.16,1.058-0.248,1.638c-0.099,0.578-0.292,1.171-0.444,1.805c-0.161,0.632-0.331,1.295-0.508,1.986
			c-0.21,0.682-0.496,1.37-0.753,2.096c-0.132,0.362-0.266,0.73-0.402,1.104l-0.205,0.567l-0.268,0.551
			c-0.357,0.741-0.727,1.505-1.104,2.289c-1.672,3.043-3.78,6.313-6.668,9.202c-5.678,5.797-13.964,10.434-22.711,11.423
			c-4.334,0.542-8.706,0.469-12.727-0.333c-4.01-0.836-7.688-2.165-10.815-3.812c-0.926-0.472-1.744-1.041-2.561-1.512
			c-0.398-0.251-0.809-0.463-1.17-0.728c-0.358-0.269-0.707-0.531-1.046-0.786c-0.675-0.514-1.334-0.974-1.922-1.447
			c-0.56-0.509-1.086-0.988-1.579-1.437c-1.026-0.858-1.779-1.741-2.448-2.475c-0.667-0.735-1.253-1.323-1.63-1.885
			c-1.702-2.132-3.061-4.15-4.284-6.07c-0.562-0.986-1.15-1.918-1.713-2.842c-0.479-0.958-0.975-1.888-1.489-2.811
			C208.467,129.67,206.756,125.9,205.43,120.893c-1.173,5.017-1.345,9.596-0.55,14.323c0.249,1.167,0.53,2.354,0.847,3.575
			c0.4,1.185,0.878,2.386,1.383,3.638c1.108,2.451,2.567,4.995,4.582,7.57c0.455,0.671,1.14,1.39,1.936,2.276
			c0.797,0.884,1.706,1.937,2.924,2.979c0.592,0.538,1.224,1.111,1.896,1.721c0.703,0.572,1.486,1.133,2.298,1.748
			c0.408,0.304,0.827,0.617,1.259,0.938c0.435,0.315,0.922,0.579,1.4,0.882c0.976,0.574,1.965,1.244,3.076,1.815
			c3.755,1.984,8.18,3.597,13.004,4.59c4.838,0.959,10.062,1.063,15.269,0.401l1.952-0.299c0.652-0.098,1.306-0.19,1.942-0.377
			c1.279-0.331,2.566-0.648,3.842-1.003c1.243-0.455,2.486-0.91,3.727-1.364c1.229-0.482,2.39-1.114,3.578-1.667
			c4.662-2.406,8.809-5.553,12.233-9.03c3.452-3.473,5.998-7.385,7.989-11.049c0.453-0.943,0.896-1.861,1.324-2.751
			c0.105-0.223,0.211-0.445,0.315-0.665c0.084-0.228,0.168-0.455,0.251-0.679c0.165-0.45,0.327-0.892,0.487-1.327
			c0.309-0.873,0.643-1.703,0.893-2.522c0.215-0.83,0.42-1.626,0.616-2.385c0.183-0.762,0.403-1.477,0.523-2.17
			c0.107-0.696,0.208-1.352,0.303-1.965c0.162-1.229,0.4-2.275,0.401-3.146c0.087-1.736,0.136-2.689,0.136-2.689
			s0.014-0.285,0.04-0.827c0.058-0.542-0.022-1.34-0.062-2.368c-0.025-0.514-0.055-1.085-0.086-1.709
			c-0.035-0.624-0.046-1.304-0.181-2.024c-0.109-0.722-0.226-1.494-0.35-2.312c-0.125-0.817-0.236-1.686-0.495-2.568
			c-0.229-0.889-0.468-1.819-0.717-2.789c-0.062-0.242-0.127-0.486-0.191-0.733c-0.087-0.24-0.175-0.482-0.263-0.727
			c-0.178-0.488-0.359-0.985-0.543-1.491c-0.66-2.056-1.735-4.095-2.788-6.265c-2.339-4.223-5.563-8.499-9.656-12.223
			c-4.079-3.729-9.029-6.877-14.426-8.993c-5.391-2.121-11.198-3.241-16.792-3.253c-5.598-0.013-10.967,0.984-15.649,2.592
			c-4.723,1.547-8.657,3.885-11.811,6.081c-6.039,4.451-8.196,7.461-9.605,9.136c-2.015,2.575-3.474,5.119-4.582,7.569
			c-0.505,1.252-0.982,2.453-1.382,3.638c-0.317,1.22-0.598,2.408-0.848,3.575C204.085,111.297,204.257,115.875,205.43,120.893z"/>
		<path fill="#6AC2BF" d="M402.594,309.074l-11.466,16.644C394.77,321.315,398.735,315.806,402.594,309.074 M309.488,136.129
			c-30.129,0-82.016,8.495-106.059,62.764c-10.598,23.921-11.659,46.471-7.989,66.281c0.875-23.358,7.989-46.281,7.989-46.281
			s16,59,76,79c20.177,6.726,39.827,9.131,57.599,9.131c35.078,0,62.865-9.364,73.127-13.36
			c5.963-14.331,10.763-32.405,12.274-54.771c5-74-90-101-90-101S323.219,136.129,309.488,136.129"/>
		<path fill="#A5D7D5" d="M525.154,192.66c-11.887,3.796-24.498,6.356-32.705,7.8l16.98-2.567
			C509.43,197.893,516.54,196.252,525.154,192.66 M533.775,139.79c10.061,4.757,18.55,12.625,21.75,21.083
			C556.413,149.521,549.299,142.83,533.775,139.79 M501.43,137.893L501.43,137.893c-42,1-106,31-106,31l28,42l60.138-9.091
			c2.079-1.381,27.14-18.257,30.862-31.909C520.43,147.893,501.43,137.893,501.43,137.893"/>
		<path fill="#A5D7D5" d="M158.868,613.972c8.917,6.552,17.701,11.936,25.809,16.091
			C177.266,625.944,168.33,620.567,158.868,613.972 M581.43,432.893L581.43,432.893L581.43,432.893c-25,24-2,100-2,100l-31,12
			c0,0-13-7-13-57S581.43,432.893,581.43,432.893 M332.43,392.893L332.43,392.893L332.43,392.893c-19,32,71,89,71,89s-91-15-97-42
			S332.43,392.893,332.43,392.893 M478.251,301.803c-12.538-0.002-23.821,30.09-23.821,30.09l-51-19l-12,18
			c0,0,0.172-0.009,0.49-0.009c3.021,0,19.177,0.819,25.51,18.009c3.884,10.541-44.867,13.079-96.389,13.079
			c-41.342,0-84.468-1.634-103.611-2.079c-43-1,1-36,1-36l4.091,1.044c-2.221-2.734-4.54-5.697-6.849-8.807
			c-10.626,3.389-129.511,43.55-135.242,145.763c-0.126,2.247-0.204,4.467-0.236,6.678c2.173-12.214,6.236-18.678,6.236-18.678
			s24,95,169,129c42.09,9.869,80.88,13.771,115.317,13.771c86.046,0,144.971-24.345,160.683-40.771l0,0l0,0
			c0,0-11.503,16.035-22.985,31.229c14.188-16.201,26.394-27.674,33.985-32.229c10-6,37-18,37-18s32-16,31-57
			c-0.952-39.051-9.163-49.071-18.582-49.072c-0.471,0-0.942,0.024-1.418,0.072c-3.333,0.333-7.89,0.444-12.481,0.444
			c-9.186,0-18.519-0.444-18.519-0.444s-29-20-46-38s-23-32-23-32s2-53-11-55C479.036,301.833,478.643,301.803,478.251,301.803"/>
		<circle fill="#8ECFD0" cx="581.43" cy="330.893" r="48"/>
		<circle fill="#FFFFFF" cx="114.43" cy="247.893" r="34"/>
		<circle fill="#FFFFFF" cx="86.43" cy="117.893" r="55"/>
		<circle fill="#A5D7D5" cx="23.43" cy="337.893" r="50"/>
		<path fill="#8DC791" d="M391.128,325.718c-1.672,2.021-3.276,3.811-4.77,5.376l1.096-0.043L391.128,325.718 M414.43,291.893
			c0,0-1.492,0.688-4.274,1.771c-2.38,5.722-4.945,10.846-7.562,15.41L414.43,291.893 M195.44,265.174
			c-0.109,2.914-0.122,5.835-0.011,8.719c0.481,12.527,10.249,28.768,20.242,42.237c0.409-0.13,0.657-0.206,0.732-0.229
			C207.892,302.82,199.192,285.427,195.44,265.174"/>
		<path fill="#1FB2A5" d="M203.43,218.893c0,0-7.114,22.923-7.989,46.281c3.752,20.253,12.451,37.646,20.964,50.727
			c0.017-0.005,0.025-0.008,0.025-0.008l10.057,10.057l38.943,9.943l120.929-4.799c1.493-1.565,3.098-3.354,4.77-5.376
			l11.466-16.644c2.616-4.564,5.182-9.688,7.562-15.41c-10.262,3.996-38.049,13.36-73.127,13.36
			c-17.771,0-37.422-2.406-57.599-9.131C219.43,277.893,203.43,218.893,203.43,218.893"/>
		<path fill="#63BFB6" d="M216.43,315.893c0,0-0.009,0.002-0.025,0.008c-0.075,0.023-0.323,0.099-0.732,0.229
			c2.309,3.11,4.628,6.073,6.849,8.807l3.966,1.013L216.43,315.893"/>
		<path fill="#A9D19C" d="M492.449,200.46l-8.882,1.342c-0.091,0.06-0.138,0.091-0.138,0.091S486.951,201.427,492.449,200.46
			 M555.525,160.874c-0.146,1.878-0.513,3.882-1.096,6.02c-3.438,12.607-17.713,20.945-29.275,25.767
			c15.146-4.836,29.111-11.678,31.275-20.767C557.299,168.244,556.899,164.504,555.525,160.874 M514.371,135.13
			c-4.541,0-8.95,0.854-12.941,2.763l0,0c2.297-0.055,4.523-0.083,6.671-0.083c10.239,0,18.784,0.63,25.675,1.979
			C527.613,136.876,520.86,135.13,514.371,135.13"/>
		<path fill="#80C9C4" d="M508.101,137.811c-2.147,0-4.374,0.028-6.671,0.083c0,0,19,10,13,32
			c-3.723,13.652-28.783,30.528-30.862,31.909l8.882-1.342c8.207-1.444,20.818-4.004,32.705-7.8
			c11.562-4.822,25.837-13.159,29.275-25.767c0.583-2.138,0.949-4.142,1.096-6.02c-3.2-8.458-11.689-16.327-21.75-21.083
			C526.885,138.44,518.34,137.81,508.101,137.811"/>
		<path fill="#A9D19C" d="M391.43,330.893L391.43,330.893l-3.976,0.158l-0.229,0.333C389.91,331.077,391.43,330.893,391.43,330.893
			L391.43,330.893"/>
		<path fill="#80C9C4" d="M218.43,323.893c0,0-44,35-1,36c19.144,0.445,62.27,2.079,103.611,2.079
			c51.521,0,100.272-2.538,96.389-13.079c-6.333-17.189-22.489-18.009-25.51-18.009c-0.318,0-0.49,0.009-0.49,0.009l0,0
			c0,0-1.52,0.184-4.205,0.491l-3.795,5.509l-146,5c0,0-6.789-6.954-14.909-16.956L218.43,323.893"/>
		<path fill="#6BBB87" d="M387.454,331.051l-1.096,0.043c-0.141,0.147-0.28,0.293-0.419,0.437c0.453-0.052,0.883-0.101,1.285-0.146
			L387.454,331.051"/>
		<path fill="#00AC9A" d="M226.486,325.95l10.943,10.943c0,0,32,1,64,1c26.041,0,69.301-4.636,84.51-6.362
			c0.139-0.144,0.278-0.289,0.419-0.437l-120.929,4.799L226.486,325.95"/>
		<path fill="#3DB6A9" d="M222.521,324.937c8.12,10.002,14.909,16.956,14.909,16.956l146-5l3.795-5.509
			c-0.402,0.046-0.832,0.095-1.285,0.146c-15.209,1.727-58.469,6.362-84.51,6.362c-32,0-64-1-64-1l-10.943-10.943L222.521,324.937"
			/>
		<path fill="#A9D19C" d="M184.677,630.063C196.492,636.631,204.43,640,204.43,640h8
			C205.311,639.033,195.612,635.668,184.677,630.063 M508.444,583.123c-4.5,5.139-9.199,10.751-14.015,16.771
			c-20,25-51,40.107-51,40.107h7c0,0,28-22.107,38-32.107C492.525,603.797,500.48,593.662,508.444,583.123 M80.193,468.571
			c-2.885,16.206-2.441,42.537,15.236,77.322c14.91,29.338,40.691,52.225,63.438,68.079
			C120.268,585.609,79.215,535.384,80.193,468.571"/>
		<path fill="#80C9C4" d="M86.43,449.893c0,0-4.063,6.464-6.236,18.678c-0.979,66.813,40.074,117.038,78.675,145.401
			c9.462,6.595,18.397,11.972,25.809,16.091c10.936,5.605,20.634,8.97,27.753,9.938h231c0,0,31-15.107,51-40.107
			c4.815-6.02,9.515-11.632,14.015-16.771c11.482-15.194,22.985-31.229,22.985-31.229c-15.712,16.426-74.637,40.771-160.683,40.771
			c-34.438,0-73.228-3.901-115.317-13.771C110.43,544.893,86.43,449.893,86.43,449.893"/>
		<path fill="#80C9C4" d="M332.43,392.893c0,0-32,20-26,47s97,42,97,42S313.43,424.893,332.43,392.893"/>
		<path fill="#80C9C4" d="M581.43,432.893c0,0-46,5-46,55s13,57,13,57l31-12C579.43,532.893,556.43,456.893,581.43,432.893"/>
		<path d="M31.43,115.893c1.424-4.994,2.758-8.9,4.489-12.827c0.429-0.98,0.811-1.979,1.229-2.989
			c0.498-0.986,0.983-1.999,1.461-3.056c0.246-0.526,0.461-1.075,0.728-1.616c0.288-0.531,0.583-1.073,0.885-1.628
			c0.289-0.559,0.585-1.132,0.89-1.719c0.147-0.296,0.297-0.595,0.448-0.899c0.16-0.298,0.357-0.582,0.536-0.881
			c0.834-1.258,1.854-3.299,3.634-5.483c0.42-0.562,0.861-1.152,1.32-1.767c0.468-0.607,1.043-1.166,1.588-1.785
			c0.54-0.595,1.09-1.201,1.647-1.815c0.594-0.667,1.316-1.224,1.981-1.857c0.68-0.618,1.368-1.244,2.066-1.879
			c0.756-0.563,1.521-1.133,2.295-1.71c3.06-2.367,6.647-4.26,10.406-6.006c0.964-0.38,1.954-0.718,2.938-1.086
			c0.99-0.351,1.964-0.775,3.01-0.99c1.029-0.265,2.064-0.531,3.104-0.799l0.779-0.203c0.264-0.054,0.532-0.083,0.798-0.126
			l1.604-0.242c1.072-0.144,2.139-0.371,3.225-0.456c1.09-0.054,2.182-0.108,3.276-0.163l1.643-0.087l1.646,0.085l3.297,0.163
			c1.097,0.083,2.177,0.314,3.266,0.46c1.082,0.191,2.189,0.259,3.24,0.589c1.062,0.273,2.124,0.546,3.184,0.818l0.795,0.202
			c0.262,0.078,0.514,0.185,0.771,0.275l1.534,0.564c4.146,1.367,7.899,3.551,11.456,5.77c3.393,2.471,6.617,5.045,9.204,8.024
			c5.336,5.808,8.84,12.302,10.811,18.099c0.595,1.42,0.896,2.86,1.249,4.206c0.175,0.673,0.345,1.329,0.51,1.965
			c0.173,0.635,0.213,1.277,0.322,1.884c0.188,1.221,0.363,2.36,0.525,3.412c0.1,1.059,0.112,2.038,0.168,2.916
			c0.046,0.878,0.087,1.662,0.123,2.341c0.027,0.68-0.049,1.257-0.059,1.725c-0.048,0.935-0.073,1.43-0.073,1.43
			s-0.024,0.495-0.071,1.43c0.017,0.941-0.259,2.292-0.512,4.032c-0.464,3.478-1.74,8.427-4.349,13.98
			c-2.607,5.539-6.793,11.614-12.718,16.821c-0.363,0.332-0.729,0.666-1.097,1c-0.386,0.313-0.796,0.599-1.195,0.902
			c-0.804,0.601-1.615,1.208-2.433,1.82c-0.809,0.625-1.737,1.085-2.608,1.645l-1.333,0.812c-0.444,0.274-0.887,0.556-1.371,0.763
			c-0.946,0.455-1.898,0.913-2.856,1.373c-0.484,0.217-0.943,0.497-1.451,0.666l-1.509,0.548c-1.008,0.368-2.021,0.736-3.036,1.107
			c-1.048,0.268-2.1,0.536-3.154,0.806c-8.446,2.169-17.659,1.871-25.994-0.385l-1.57-0.4c-0.517-0.15-1.014-0.364-1.52-0.541
			c-1.009-0.368-2.013-0.735-3.011-1.1c-0.994-0.377-1.919-0.902-2.875-1.339l-1.417-0.68l-0.705-0.339l-0.665-0.407
			c-1.753-1.109-3.582-2.052-5.138-3.337c-0.806-0.601-1.604-1.196-2.395-1.786c-0.697-0.63-1.387-1.254-2.069-1.871
			c-5.46-4.98-8.727-10.167-10.232-12.762c-0.179-0.299-0.376-0.583-0.536-0.881c-0.151-0.303-0.301-0.603-0.448-0.898
			c-0.305-0.588-0.601-1.161-0.89-1.72c-0.302-0.556-0.597-1.098-0.885-1.628c-0.267-0.541-0.481-1.09-0.728-1.616
			c-0.478-1.058-0.964-2.07-1.461-3.056c-0.419-1.01-0.801-2.009-1.229-2.989C34.188,124.792,32.854,120.887,31.43,115.893
			c-1.072,5.002-1.636,9.524-1.066,14.205c0.139,1.17,0.274,2.37,0.494,3.587c0.3,1.192,0.633,2.417,1.008,3.688
			c0.193,0.632,0.368,1.289,0.607,1.936c0.272,0.633,0.551,1.281,0.837,1.944c0.298,0.659,0.603,1.334,0.915,2.027
			c0.161,0.344,0.324,0.693,0.488,1.047c0.178,0.347,0.394,0.679,0.595,1.025c1.698,3.003,5.441,8.981,11.718,14.713
			c0.371,0.337,0.745,0.677,1.121,1.019c0.419,0.373,0.827,0.764,1.263,1.127c0.907,0.68,1.824,1.368,2.749,2.062
			c1.8,1.463,3.889,2.574,5.915,3.838l0.768,0.464l0.81,0.395c0.542,0.262,1.085,0.524,1.63,0.788
			c1.1,0.506,2.171,1.097,3.313,1.536c1.15,0.422,2.307,0.846,3.468,1.271c0.584,0.203,1.158,0.442,1.753,0.616l1.808,0.469
			c9.618,2.604,20.167,2.919,29.907,0.435c1.214-0.314,2.425-0.627,3.631-0.938c1.171-0.424,2.338-0.847,3.5-1.268l1.735-0.639
			c0.582-0.2,1.115-0.512,1.673-0.762c1.102-0.531,2.197-1.06,3.287-1.586c0.555-0.244,1.065-0.564,1.578-0.877
			c0.513-0.312,1.024-0.622,1.535-0.931c1.004-0.642,2.062-1.188,2.997-1.9c0.94-0.703,1.873-1.4,2.798-2.091
			c0.459-0.35,0.928-0.683,1.37-1.044c0.424-0.383,0.846-0.765,1.265-1.145c6.81-5.988,11.614-12.977,14.612-19.355
			c3.002-6.394,4.449-12.101,4.993-16.097c0.293-2,0.588-3.558,0.582-4.637c0.055-1.073,0.084-1.641,0.084-1.641
			s0.028-0.568,0.082-1.642c0.012-0.536,0.091-1.199,0.063-1.979c-0.038-0.781-0.082-1.68-0.131-2.689
			c-0.062-1.008-0.084-2.13-0.198-3.347c-0.183-1.21-0.382-2.521-0.594-3.926c-0.125-0.699-0.183-1.435-0.375-2.167
			c-0.188-0.733-0.38-1.489-0.578-2.265c-0.404-1.55-0.767-3.203-1.436-4.843c-2.268-6.675-6.292-14.153-12.422-20.833
			c-2.982-3.416-6.669-6.399-10.583-9.226c-4.079-2.576-8.413-5.063-13.182-6.657l-1.77-0.646c-0.297-0.104-0.589-0.223-0.89-0.314
			l-0.914-0.238c-1.221-0.314-2.443-0.629-3.668-0.944c-1.214-0.367-2.483-0.466-3.729-0.684c-1.253-0.172-2.499-0.424-3.76-0.523
			L89.3,56.055l-1.891-0.089l-1.889,0.091c-1.257,0.064-2.513,0.128-3.764,0.192c-1.248,0.1-2.479,0.348-3.714,0.517l-1.844,0.284
			c-0.307,0.05-0.615,0.088-0.918,0.15l-0.9,0.229c-1.197,0.308-2.391,0.615-3.577,0.919c-1.2,0.26-2.327,0.733-3.469,1.138
			c-1.135,0.422-2.273,0.817-3.382,1.259c-4.339,1.993-8.457,4.196-11.982,6.909c-0.888,0.666-1.767,1.325-2.634,1.976
			c-0.805,0.728-1.599,1.446-2.382,2.155c-0.766,0.727-1.585,1.379-2.272,2.142c-0.643,0.706-1.274,1.401-1.897,2.085
			c-0.626,0.712-1.277,1.363-1.816,2.06c-0.528,0.707-1.035,1.385-1.52,2.031c-2.024,2.527-3.21,4.868-4.142,6.33
			c-0.201,0.347-0.417,0.678-0.595,1.025c-0.165,0.354-0.327,0.703-0.488,1.047c-0.312,0.692-0.617,1.368-0.915,2.027
			c-0.286,0.663-0.564,1.31-0.837,1.944c-0.239,0.646-0.414,1.303-0.607,1.935c-0.374,1.271-0.708,2.496-1.007,3.688
			c-0.221,1.217-0.356,2.417-0.495,3.587C29.794,106.368,30.357,110.891,31.43,115.893z"/>
		<path d="M77.43,246.893c1.278-5.006,3.146-8.697,5.285-12.228c2.184-3.499,4.657-6.947,8.594-10.548
			c0.335-0.303,0.722-0.653,1.186-1.072c0.475-0.405,1.081-0.81,1.764-1.334c1.372-1.04,3.328-2.19,6.095-3.462
			c2.127-0.786,4.646-1.717,7.557-2.058c1.434-0.298,2.973-0.252,4.541-0.368c1.569,0.106,3.2,0.089,4.821,0.418
			c3.246,0.524,6.577,1.5,9.579,3.142c3.016,1.604,5.747,3.7,8.017,6.046c4.593,4.715,6.932,10.431,7.872,14.618
			c0.432,2.116,0.684,3.861,0.694,5.081c0.032,0.608,0.058,1.08,0.074,1.401c0.026,0.32,0.014,0.489,0.015,0.489
			c0,0-0.03,0.564-0.086,1.591c-0.047,0.511-0.012,1.148-0.135,1.87c-0.11,0.723-0.237,1.548-0.377,2.461
			c-0.188,0.904-0.479,1.877-0.735,2.937c-0.334,1.037-0.752,2.13-1.192,3.279c-0.27,0.555-0.545,1.124-0.827,1.707
			c-0.141,0.292-0.283,0.586-0.428,0.884c-0.173,0.282-0.348,0.566-0.524,0.854c-0.356,0.573-0.698,1.171-1.077,1.757
			c-0.421,0.56-0.848,1.128-1.28,1.704c-0.403,0.6-0.928,1.114-1.42,1.665c-0.507,0.536-0.968,1.131-1.554,1.61
			c-0.557,0.507-1.119,1.019-1.685,1.534c-0.613,0.457-1.23,0.917-1.851,1.379c-2.544,1.748-5.346,3.243-8.302,4.178
			c-5.899,1.882-12.148,1.896-16.972,0.624c-3.939-0.987-6.966-2.409-9.135-3.847c-2.21-1.38-3.676-2.637-4.635-3.536
			c-3.938-3.601-6.41-7.05-8.594-10.549C80.575,255.589,78.708,251.898,77.43,246.893c-1.225,5.016-1.221,9.708-0.008,14.407
			c1.245,4.671,3.703,9.53,8.582,14.087c1.189,1.132,3.012,2.715,5.772,4.453c0.699,0.42,1.433,0.889,2.238,1.342
			c0.834,0.403,1.717,0.83,2.652,1.282c0.926,0.474,1.987,0.775,3.062,1.195c1.071,0.44,2.262,0.698,3.495,1.023
			c6.062,1.585,13.838,1.598,21.257-0.785c3.708-1.181,7.229-3.043,10.405-5.244c0.774-0.581,1.545-1.16,2.311-1.734
			c0.709-0.644,1.412-1.282,2.11-1.916c0.722-0.61,1.312-1.34,1.942-2.014c0.617-0.688,1.257-1.343,1.772-2.086
			c0.539-0.723,1.07-1.437,1.593-2.138c0.479-0.732,0.912-1.478,1.354-2.198c0.218-0.362,0.435-0.72,0.647-1.075
			c0.183-0.372,0.363-0.74,0.542-1.104c0.35-0.731,0.692-1.446,1.026-2.143c0.562-1.437,1.079-2.812,1.491-4.113
			c0.333-1.326,0.684-2.55,0.914-3.683c0.174-1.144,0.331-2.176,0.469-3.082c0.143-0.905,0.117-1.695,0.17-2.334
			c0.061-1.281,0.095-1.986,0.095-1.986c-0.001,0,0.013-0.21-0.014-0.61c-0.02-0.4-0.048-0.989-0.084-1.748
			c-0.024-1.518-0.314-3.707-0.862-6.356c-0.168-0.657-0.344-1.344-0.527-2.06c-0.098-0.356-0.175-0.727-0.298-1.09
			c-0.13-0.361-0.263-0.729-0.398-1.102c-0.274-0.747-0.558-1.518-0.849-2.312c-0.365-0.763-0.74-1.548-1.125-2.352
			c-1.624-3.161-3.756-6.496-6.633-9.409c-2.832-2.941-6.249-5.567-10.03-7.576c-3.766-2.048-7.942-3.301-12.015-3.954
			c-2.037-0.394-4.069-0.407-6.033-0.513c-1.963,0.115-3.879,0.099-5.681,0.452c-3.643,0.449-6.817,1.589-9.473,2.605
			c-3.478,1.58-5.912,3.05-7.63,4.347c-0.855,0.653-1.603,1.175-2.193,1.684c-0.577,0.526-1.059,0.966-1.476,1.346
			c-4.878,4.557-7.336,9.416-8.581,14.086C76.209,237.184,76.205,241.877,77.43,246.893z"/>
		<path d="M320.43,49.893c1.326-5.007,3.037-8.778,4.888-12.536c0.515-0.922,1.01-1.853,1.489-2.811
			c0.562-0.923,1.151-1.856,1.713-2.842c1.224-1.919,2.582-3.938,4.283-6.069c1.188-1.386,3.002-3.886,8.038-7.589
			c2.634-1.819,5.901-3.777,9.833-5.049c3.895-1.332,8.353-2.164,13.028-2.16c4.675,0.008,9.495,0.946,13.979,2.705
			c4.487,1.757,8.612,4.376,12.016,7.482c3.414,3.103,6.106,6.663,8.063,10.175c0.861,1.814,1.782,3.5,2.319,5.215
			c0.154,0.42,0.307,0.833,0.456,1.239c0.076,0.203,0.15,0.404,0.225,0.603c0.052,0.206,0.104,0.41,0.156,0.611
			c0.207,0.806,0.406,1.581,0.597,2.32c0.226,0.732,0.31,1.457,0.413,2.139c0.105,0.681,0.204,1.324,0.297,1.925
			c0.121,0.598,0.123,1.167,0.15,1.689c0.026,0.521,0.051,0.999,0.072,1.427c0.033,0.858,0.115,1.525,0.059,1.978
			c-0.023,0.453-0.036,0.691-0.036,0.691s-0.04,0.797-0.114,2.247c0.012,0.73-0.209,1.598-0.342,2.622
			c-0.076,0.511-0.159,1.058-0.247,1.638c-0.099,0.578-0.292,1.171-0.444,1.805c-0.162,0.632-0.331,1.295-0.508,1.986
			c-0.21,0.682-0.496,1.37-0.752,2.096c-0.133,0.362-0.267,0.73-0.403,1.104l-0.205,0.567l-0.268,0.551
			c-0.358,0.741-0.727,1.505-1.104,2.289c-1.672,3.043-3.78,6.313-6.668,9.202c-5.678,5.797-13.964,10.434-22.711,11.423
			c-4.334,0.542-8.706,0.469-12.727-0.333c-4.01-0.836-7.688-2.165-10.815-3.812c-0.926-0.472-1.744-1.041-2.561-1.512
			c-0.398-0.251-0.809-0.463-1.17-0.728c-0.358-0.269-0.707-0.531-1.046-0.786c-0.675-0.514-1.334-0.974-1.922-1.447
			c-0.56-0.509-1.086-0.988-1.579-1.437c-1.026-0.858-1.779-1.741-2.448-2.475c-0.667-0.735-1.254-1.323-1.63-1.885
			c-1.702-2.132-3.061-4.15-4.284-6.07c-0.562-0.986-1.15-1.918-1.713-2.842c-0.479-0.958-0.975-1.888-1.489-2.811
			C323.467,58.67,321.756,54.9,320.43,49.893c-1.173,5.017-1.345,9.596-0.55,14.323c0.249,1.167,0.53,2.354,0.847,3.575
			c0.4,1.185,0.878,2.386,1.383,3.638c1.108,2.451,2.567,4.995,4.582,7.57c0.455,0.671,1.141,1.39,1.936,2.276
			c0.797,0.884,1.706,1.937,2.924,2.979c0.592,0.538,1.224,1.111,1.896,1.721c0.703,0.572,1.486,1.133,2.298,1.748
			c0.408,0.304,0.827,0.617,1.259,0.938c0.435,0.315,0.922,0.579,1.4,0.882c0.976,0.574,1.965,1.244,3.076,1.815
			c3.755,1.984,8.18,3.597,13.004,4.59c4.838,0.959,10.062,1.063,15.269,0.401l1.952-0.299c0.652-0.098,1.306-0.19,1.942-0.377
			c1.279-0.331,2.566-0.647,3.842-1.003c1.243-0.455,2.486-0.91,3.727-1.364c1.229-0.482,2.39-1.114,3.578-1.667
			c4.662-2.406,8.809-5.553,12.233-9.03c3.452-3.473,5.998-7.385,7.989-11.049c0.453-0.943,0.896-1.861,1.324-2.751
			c0.105-0.223,0.211-0.445,0.315-0.665c0.084-0.228,0.168-0.455,0.251-0.679c0.165-0.45,0.327-0.892,0.487-1.327
			c0.309-0.873,0.643-1.703,0.893-2.522c0.215-0.83,0.42-1.626,0.616-2.385c0.183-0.762,0.402-1.477,0.523-2.17
			c0.107-0.696,0.208-1.352,0.303-1.965c0.162-1.229,0.4-2.275,0.4-3.146c0.088-1.736,0.137-2.689,0.137-2.689
			s0.014-0.285,0.04-0.827c0.058-0.542-0.022-1.34-0.062-2.368c-0.025-0.514-0.055-1.085-0.086-1.709
			c-0.035-0.624-0.046-1.304-0.181-2.024c-0.109-0.722-0.226-1.494-0.35-2.312c-0.125-0.817-0.236-1.686-0.495-2.568
			c-0.229-0.889-0.468-1.819-0.717-2.789c-0.062-0.242-0.127-0.486-0.191-0.733c-0.087-0.24-0.175-0.482-0.263-0.727
			c-0.178-0.488-0.359-0.985-0.543-1.491c-0.66-2.056-1.735-4.095-2.788-6.265c-2.339-4.223-5.563-8.499-9.656-12.223
			c-4.079-3.729-9.029-6.877-14.426-8.993c-5.391-2.121-11.198-3.241-16.792-3.253c-5.598-0.013-10.967,0.984-15.649,2.592
			c-4.723,1.547-8.657,3.885-11.811,6.081c-6.039,4.451-8.196,7.461-9.605,9.136c-2.015,2.575-3.474,5.119-4.582,7.569
			c-0.505,1.252-0.982,2.453-1.382,3.638c-0.317,1.22-0.598,2.408-0.848,3.575C319.085,40.297,319.257,44.875,320.43,49.893z"/>
		<path d="M530.43,329.893c0.367-1.229,0.72-2.408,1.062-3.554c0.176-0.562,0.304-1.116,0.505-1.651
			c0.208-0.531,0.414-1.056,0.618-1.575c0.388-1.022,0.769-2.026,1.148-3.028c0.46-0.973,0.897-1.935,1.315-2.906
			c1.82-3.825,3.632-7.783,6.715-12.382c0.355-0.662,0.961-1.38,1.613-2.262c0.675-0.863,1.358-1.927,2.345-2.917
			c0.964-1.003,1.899-2.226,3.165-3.27c0.511-0.465,1.031-0.938,1.559-1.417c0.539-0.537,1.169-0.981,1.797-1.446
			c1.253-0.93,2.503-1.94,3.945-2.732c5.564-3.446,12.419-6.006,19.76-6.707c7.343-0.667,15.024,0.441,21.886,3.208
			c6.873,2.776,12.768,7.296,17.187,12.296c4.443,5.018,7.344,10.571,8.983,15.507c0.511,1.205,0.726,2.441,1.044,3.579
			c0.148,0.572,0.293,1.128,0.434,1.669c0.146,0.539,0.18,1.085,0.273,1.601c0.159,1.037,0.309,2.005,0.446,2.898
			c0.123,0.896,0.104,1.73,0.16,2.476c0.061,1.493,0.189,2.66,0.094,3.455c-0.041,0.794-0.063,1.215-0.063,1.215
			c0.001,0-0.035,1.004-0.156,2.824c-0.304,1.798-0.561,4.442-1.5,7.598c-0.102,0.397-0.205,0.806-0.312,1.222
			c-0.148,0.404-0.301,0.816-0.457,1.237c-0.308,0.844-0.629,1.723-0.962,2.633c-0.35,0.904-0.843,1.784-1.275,2.725
			c-0.224,0.467-0.451,0.94-0.682,1.422c-0.229,0.481-0.548,0.923-0.822,1.397c-2.125,3.837-5.229,7.647-9.02,11.08
			c-3.799,3.428-8.393,6.403-13.479,8.48c-1.295,0.455-2.577,0.971-3.891,1.396c-1.339,0.344-2.681,0.688-4.022,1.033l-4.107,0.638
			c-0.68,0.142-1.379,0.11-2.067,0.161l-2.068,0.105c-5.513,0.119-10.934-0.74-15.821-2.361c-4.92-1.567-9.216-4.052-12.773-6.695
			c-3.436-2.469-5.767-5.014-7.567-7.021c-0.477-0.482-0.854-0.989-1.199-1.466c-0.354-0.47-0.681-0.906-0.983-1.309
			c-0.604-0.805-1.134-1.458-1.46-2.061c-3.084-4.6-4.896-8.559-6.716-12.383c-0.418-0.972-0.855-1.934-1.315-2.905
			c-0.38-1.002-0.762-2.007-1.149-3.028c-0.203-0.521-0.409-1.045-0.617-1.575c-0.201-0.536-0.329-1.09-0.505-1.652
			C531.149,332.301,530.797,331.123,530.43,329.893c-0.24,1.272-0.471,2.494-0.695,3.68c-0.097,0.602-0.232,1.204-0.284,1.795
			c-0.036,0.595-0.072,1.183-0.108,1.766c-0.054,1.172-0.127,2.347-0.107,3.515c0.086,1.154,0.195,2.317,0.332,3.501
			c0.691,4.668,2.143,9.676,5.689,15.097c0.383,0.703,0.987,1.478,1.688,2.424c0.352,0.472,0.732,0.982,1.144,1.534
			c0.405,0.557,0.849,1.146,1.397,1.718c2.093,2.359,4.824,5.326,8.834,8.229c4.16,3.096,9.197,5.992,14.959,7.843
			c5.729,1.905,12.082,2.91,18.519,2.764l2.416-0.122c0.806-0.06,1.619-0.039,2.417-0.195c1.602-0.246,3.211-0.473,4.809-0.751
			c1.572-0.405,3.145-0.81,4.713-1.213c1.541-0.494,3.046-1.09,4.559-1.635c5.96-2.435,11.334-5.92,15.772-9.93
			c4.433-4.016,8.04-8.483,10.536-12.968c0.32-0.555,0.684-1.076,0.955-1.639c0.271-0.562,0.539-1.115,0.803-1.661
			c0.51-1.1,1.072-2.137,1.483-3.193c0.391-1.066,0.768-2.095,1.13-3.082c0.179-0.494,0.354-0.979,0.525-1.452
			c0.127-0.487,0.25-0.964,0.371-1.43c1.088-3.697,1.405-6.787,1.74-8.894c0.15-2.124,0.188-3.297,0.188-3.297
			s0.024-0.491,0.07-1.418c0.099-0.927-0.027-2.29-0.101-4.033c-0.062-0.87-0.054-1.843-0.192-2.89
			c-0.158-1.046-0.329-2.179-0.513-3.393c-0.108-0.604-0.158-1.239-0.324-1.872c-0.161-0.634-0.328-1.286-0.498-1.957
			c-0.367-1.334-0.64-2.775-1.221-4.191c-1.921-5.783-5.31-12.285-10.496-18.157c-5.158-5.855-12.053-11.134-20.104-14.394
			c-8.04-3.257-17.039-4.554-25.609-3.766c-8.591,0.814-16.642,3.812-23.15,7.852c-1.679,0.94-3.152,2.107-4.614,3.2
			c-0.731,0.546-1.462,1.074-2.099,1.694c-0.617,0.561-1.226,1.114-1.823,1.657c-1.466,1.236-2.575,2.648-3.691,3.832
			c-1.138,1.169-1.949,2.404-2.73,3.42c-0.757,1.034-1.444,1.888-1.862,2.66c-3.547,5.42-4.998,10.428-5.689,15.096
			c-0.137,1.183-0.245,2.346-0.332,3.5c-0.02,1.168,0.054,2.344,0.107,3.516c0.036,0.582,0.072,1.17,0.108,1.765
			c0.052,0.592,0.188,1.194,0.284,1.796C529.959,327.399,530.189,328.621,530.43,329.893z"/>
		<path d="M0,379.429c4.059,3.16,8.058,5.389,12.616,6.724c1.142,0.329,2.313,0.643,3.539,0.846
			c1.222,0.254,2.493,0.376,3.822,0.499c1.329,0.091,2.715,0.043,4.173,0.029c1.464,0.031,2.977-0.204,4.577-0.443
			c0.542-0.081,1.169-0.176,1.92-0.289c0.752-0.103,1.597-0.377,2.615-0.617c0.508-0.13,1.054-0.27,1.646-0.421
			c0.588-0.161,1.234-0.288,1.89-0.555c1.322-0.494,2.858-1.003,4.571-1.709c4.157-1.809,9.515-4.856,14.407-9.277
			c4.916-4.378,9.247-10.118,12.095-15.974c0.704-1.469,1.434-2.887,1.908-4.357c0.265-0.724,0.523-1.436,0.778-2.133
			c0.126-0.349,0.251-0.694,0.375-1.036c0.108-0.347,0.187-0.698,0.279-1.041c0.352-1.375,0.687-2.685,1-3.912
			c0.234-1.242,0.384-2.415,0.554-3.479c0.397-2.127,0.371-3.884,0.455-5.091c0.058-1.208,0.09-1.879,0.09-1.879
			s0.007-0.141,0.02-0.408c-0.013-0.268-0.03-0.663-0.054-1.174c-0.054-1.021-0.131-2.501-0.228-4.339
			c-0.529-3.63-1.232-8.771-3.489-14.09c-2.129-5.337-5.449-10.871-9.562-15.484c-4.102-4.614-8.85-8.405-13.233-10.795
			c-1.037-0.681-2.121-1.152-3.129-1.645c-1.015-0.475-1.959-0.972-2.892-1.354c-1.899-0.678-3.566-1.357-5.086-1.801
			c-1.536-0.392-2.869-0.732-4.012-1.024c-1.144-0.285-2.131-0.355-2.917-0.496c-1.601-0.239-3.114-0.474-4.578-0.443
			c-1.458-0.014-2.844-0.062-4.173,0.029c-1.329,0.123-2.601,0.245-3.823,0.5c-1.226,0.203-2.397,0.517-3.538,0.845
			c-4.559,1.335-8.558,3.563-12.616,6.723c5.092-0.887,9.231-1.099,13.477-1.064c1.062,0.015,2.123,0.007,3.214,0.067
			c1.087,0.009,2.199,0.108,3.349,0.161c1.149,0.085,2.335,0.262,3.579,0.355c1.25,0.05,2.531,0.316,3.893,0.532
			c0.669,0.129,1.512,0.182,2.483,0.436c0.972,0.252,2.104,0.546,3.41,0.885c1.293,0.38,2.704,0.976,4.324,1.541
			c0.793,0.326,1.592,0.758,2.457,1.161c0.856,0.42,1.784,0.811,2.662,1.401c3.736,2.027,7.772,5.274,11.272,9.2
			c3.508,3.93,6.339,8.639,8.161,13.176c1.943,4.519,2.515,8.899,2.996,11.989c0.083,1.569,0.15,2.834,0.197,3.705
			c0.023,0.436,0.041,0.773,0.054,1.002c-0.013,0.229-0.019,0.349-0.019,0.349s-0.031,0.573-0.086,1.604
			c-0.079,1.029-0.04,2.534-0.397,4.342c-0.149,0.906-0.271,1.907-0.47,2.966c-0.271,1.043-0.559,2.156-0.861,3.326
			c-0.079,0.292-0.143,0.592-0.234,0.887c-0.107,0.29-0.217,0.583-0.326,0.88c-0.218,0.593-0.44,1.197-0.666,1.812
			c-0.395,1.255-1.032,2.456-1.631,3.705c-2.431,4.98-6.126,9.869-10.316,13.599c-4.172,3.766-8.729,6.362-12.26,7.918
			c-1.458,0.599-2.766,1.026-3.887,1.459c-0.556,0.235-1.107,0.336-1.608,0.473c-0.502,0.13-0.968,0.25-1.398,0.361
			c-0.866,0.206-1.581,0.456-2.223,0.542c-0.64,0.099-1.173,0.182-1.635,0.253c-1.361,0.217-2.643,0.482-3.893,0.532
			c-1.244,0.094-2.43,0.271-3.579,0.355c-1.148,0.053-2.262,0.151-3.348,0.16c-1.092,0.062-2.153,0.053-3.215,0.068
			C9.232,380.529,5.093,380.317,0,379.429z"/>
		<path d="M490.429,138.226c-5.046,1.117-8.045,2.199-10.303,5.867c-1.221,1.99-4.743,8.05-7.839,13.712
			c-1.55,2.831-3.004,5.553-4.051,7.589c-1.062,2.021-1.714,3.36-1.714,3.36s-0.168,0.331-0.467,0.918
			c-0.293,0.593-0.737,1.417-1.233,2.473c-1.012,2.095-2.378,4.904-3.657,8.135c-0.312,0.833-0.655,1.581-0.944,2.5
			c-0.288,0.902-0.589,1.83-0.846,2.702c-0.373,1.571-0.735,3.098-1.068,4.498c-0.646,2.805-1.178,5.106-1.443,6.255
			c-0.445,2.139-0.367,3.883,0.287,5.689c0.652,1.801,1.775,3.575,3.278,5.636c2.184-1.444,3.878-2.613,5.135-3.927
			c1.254-1.31,2.202-2.803,2.716-4.829c0.27-1.102,0.81-3.309,1.468-6c0.32-1.347,0.669-2.815,1.028-4.327
			c0.195-0.62,0.393-1.249,0.591-1.878c0.184-0.62,0.511-1.343,0.754-2.004c1.053-2.701,2.326-5.382,3.256-7.335
			c0.451-0.98,0.879-1.787,1.151-2.348c0.279-0.561,0.437-0.877,0.437-0.877s0.627-1.262,1.668-3.21
			c1.019-1.951,2.448-4.587,3.97-7.342c3.042-5.512,6.508-11.476,7.623-13.48C492.293,146.301,491.775,143.216,490.429,138.226z"/>
		<path d="M409.096,196.894c4.736,1.423,7.554,2.07,10.869,0.266c0.902-0.476,2.662-1.515,4.865-2.671
			c1.096-0.588,2.29-1.229,3.52-1.888c1.242-0.626,2.521-1.27,3.771-1.899c0.625-0.314,1.243-0.625,1.846-0.929
			c0.61-0.28,1.204-0.554,1.775-0.816c1.143-0.527,2.19-1.011,3.081-1.422c0.889-0.423,1.625-0.743,2.144-0.94
			c0.516-0.209,0.806-0.328,0.806-0.328s1.166-0.463,2.973-1.18c1.765-0.774,4.365-1.544,7.007-2.461
			c1.329-0.449,2.688-0.909,4.009-1.355c1.32-0.452,2.601-0.901,3.79-1.201c2.37-0.661,4.312-1.214,5.278-1.508
			c1.789-0.584,3.044-1.347,4.182-2.614c0.567-0.628,1.103-1.367,1.653-2.222c0.544-0.872,1.125-1.803,1.767-2.832
			c-0.91-0.785-1.846-1.494-2.701-2.036c-0.856-0.546-1.684-0.985-2.518-1.306c-1.661-0.634-3.389-0.845-5.306-0.321
			c-1.052,0.266-3.147,0.833-5.699,1.539c-1.29,0.324-2.638,0.794-4.029,1.271c-1.394,0.475-2.825,0.963-4.227,1.44
			c-2.798,0.985-5.477,1.801-7.435,2.666c-1.963,0.798-3.229,1.312-3.229,1.312s-0.317,0.126-0.881,0.35
			c-0.57,0.214-1.369,0.552-2.319,0.995c-0.956,0.433-2.083,0.943-3.31,1.499c-0.613,0.278-1.251,0.568-1.905,0.865
			c-0.642,0.318-1.298,0.644-1.962,0.974c-1.326,0.664-2.683,1.342-4.001,2.002c-1.296,0.696-2.554,1.372-3.709,1.992
			c-2.316,1.229-4.155,2.341-5.079,2.886C410.737,189.074,409.814,192.013,409.096,196.894z"/>
		<path d="M105.188,88.814c-0.812-2.458-2.011-4.63-3.506-6.561c-1.499-1.928-3.383-3.598-5.74-4.83
			c-2.355-1.204-5.245-1.897-8.319-1.663c-3.079,0.206-6.211,1.318-9.158,3.099c-0.498,0.314-1.059,0.702-1.734,1.158
			c-0.67,0.468-1.425,1.094-2.296,1.854c-1.698,1.538-3.935,4.016-5.403,8.135c-0.863,2.45-1.225,5.46-1.003,8.521
			c0.194,3.079,0.935,6.196,1.922,9.226c1.955,6.06,4.978,11.91,6.908,17.057c0.466,1.272,0.874,2.503,1.109,3.588
			c0.105,0.531,0.201,1.062,0.205,1.411c0.034,0.189,0.01,0.402,0.002,0.608c-0.002,0.204-0.009,0.41-0.055,0.627
			c-0.204,1.707-1.048,3.454-1.871,4.822c-0.843,1.387-1.731,2.442-2.345,3.159c-0.322,0.349-0.572,0.621-0.742,0.805
			c-0.179,0.177-0.272,0.27-0.272,0.27c0.001,0-0.304,0.323-0.902,0.862c-0.592,0.544-1.488,1.301-2.659,2.12
			c-1.167,0.809-2.653,1.657-4.243,2.202c-0.78,0.253-1.599,0.448-2.268,0.458c-0.677,0.008-1.117-0.125-1.379-0.295l-0.204-0.158
			c-0.057-0.093-0.124-0.168-0.208-0.24c-0.061-0.126-0.132-0.243-0.218-0.355l-0.169-0.386c-0.041-0.094-0.024-0.055-0.027-0.062
			l0.001,0.002l0.002,0.006l-0.001,0.012l-0.01,0.007c0.009,0.003-0.062-0.001,0.111,0.003c1.021,0,2.288,0.161,3.548,0.374
			c5.123,0.907,10.438,2.412,14.938,3.375c4.585,1.021,8.483,1.646,11.806,1.749c0.418,0.008,0.822,0.016,1.213,0.023
			c0.403-0.014,0.793-0.028,1.169-0.041c0.756-0.026,1.354-0.118,1.962-0.167c1.185-0.091,2.184-0.279,2.994-0.414
			c3.277-0.591,6.246-1.619,8.808-3.26c2.541-1.614,4.691-4.011,5.617-6.837c0.953-2.824,0.583-5.676-0.354-8
			c-0.976-2.349-2.521-4.29-4.269-6.164c0.679,2.498,1.1,4.77,1.029,6.815c-0.101,2.042-0.66,3.719-1.6,4.941
			c-0.935,1.229-2.235,2.156-3.999,2.959c-1.761,0.793-3.952,1.42-6.571,1.862c-0.652,0.099-1.442,0.25-2.438,0.317
			c-0.48,0.036-1.054,0.12-1.574,0.13c-0.263,0.008-0.534,0.018-0.815,0.027c-0.295-0.007-0.6-0.014-0.915-0.022
			c-2.548-0.081-6.009-0.607-10.365-1.586c-2.148-0.476-4.53-1.058-7.09-1.676c-2.571-0.609-5.279-1.28-8.257-1.78
			c-1.495-0.244-3.03-0.468-4.828-0.477c-0.082-0.01-0.287,0.012-0.45,0.022l-0.51,0.038l-1.02,0.075l-1.004,0.227
			c-0.332,0.081-0.681,0.129-0.973,0.287l-0.913,0.398c-0.294,0.146-0.541,0.361-0.813,0.538c-0.281,0.169-0.514,0.394-0.735,0.633
			c-0.222,0.235-0.476,0.444-0.635,0.73c-0.785,1.054-1.077,2.354-1.141,3.644l0.05,0.991l0.024,0.494l0.122,0.495l0.245,0.986
			c0.084,0.318,0.154,0.69,0.262,0.906c0.201,0.498,0.409,0.995,0.643,1.472c0.271,0.459,0.554,0.911,0.846,1.35
			c0.35,0.432,0.724,0.852,1.103,1.252c0.434,0.369,0.875,0.735,1.338,1.053c1.935,1.256,4.094,1.6,5.839,1.555
			c1.774-0.048,3.251-0.44,4.581-0.871c2.622-0.911,4.606-2.104,6.18-3.185c1.562-1.093,2.716-2.08,3.486-2.788
			c0.395-0.344,0.674-0.638,0.871-0.828c0.195-0.192,0.298-0.293,0.298-0.293s0.122-0.121,0.354-0.352
			c0.223-0.24,0.551-0.594,0.973-1.049c0.812-0.942,1.98-2.316,3.175-4.265c1.157-1.961,2.489-4.453,2.961-7.868
			c0.073-0.416,0.104-0.858,0.116-1.312c0.02-0.451,0.045-0.902-0.004-1.381c-0.046-0.996-0.204-1.813-0.37-2.648
			c-0.357-1.641-0.867-3.147-1.409-4.64c-1.101-2.964-2.39-5.787-3.597-8.589c-1.198-2.789-2.35-5.541-3.19-8.171
			c-0.858-2.628-1.426-5.139-1.559-7.328c-0.156-2.196,0.093-4.049,0.593-5.477c0.86-2.376,2.125-3.861,3.277-4.897
			c0.59-0.506,1.089-0.941,1.569-1.277c0.487-0.333,0.895-0.61,1.247-0.85c4.364-2.671,7.786-3.288,11.428-2.702
			c1.811,0.33,3.672,0.964,5.547,1.958C101.399,85.753,103.331,87.035,105.188,88.814z"/>
		<path d="M60.43,112.894c1.691,2.427,2.827,3.732,4.737,3.717c2.068-0.016,12.415-0.487,12.415-0.487s10.353-0.341,12.416-0.487
			c1.906-0.135,2.936-1.525,4.432-4.077c-1.691-2.427-2.826-3.732-4.737-3.718c-2.068,0.016-12.415,0.487-12.415,0.487
			s-10.353,0.34-12.416,0.487C62.956,108.952,61.926,110.341,60.43,112.894z"/>
		<path d="M253.096,94.226c-5.173-0.059-9.625,0.626-14.109,2.236c-2.237,0.826-4.488,1.918-6.756,3.489
			c-2.255,1.575-4.557,3.641-6.564,6.538c-0.666,0.985-1.509,2.332-2.424,4.459c-0.881,2.124-1.79,5.144-1.816,9.197
			c0.036,0.761,0.018,1.806,0.15,2.896c0.148,1.085,0.273,2.268,0.547,3.294c0.229,1.045,0.46,1.989,0.694,2.64
			c0.212,0.663,0.345,1.075,0.345,1.075s0.11,0.346,0.291,0.914c0.227,0.562,0.541,1.344,0.895,2.221
			c0.345,0.877,0.913,1.819,1.385,2.742c0.528,0.909,1.157,1.755,1.639,2.467c1.719,2.201,3.732,3.917,5.752,5.131
			c1.042,0.544,2.022,1.084,3.012,1.4c0.971,0.396,1.906,0.61,2.784,0.816c3.528,0.746,6.047,0.499,7.729,0.378
			c3.407-0.35,6.238-1.207,8.718-2.202c2.479-1.007,4.612-2.182,6.568-3.47c3.885-2.611,7.151-5.612,10.496-9.554
			c-4.783,1.907-8.837,3.116-12.956,4.386c-2.065,0.615-4.156,1.217-6.384,1.774c-2.225,0.549-4.598,1.063-7.161,1.299
			c-1.25,0.082-3.118,0.227-5.346-0.268c-0.549-0.137-1.144-0.259-1.713-0.509c-0.607-0.177-1.161-0.523-1.783-0.823
			c-1.171-0.727-2.359-1.72-3.478-3.13c-0.307-0.495-0.727-1.035-1.099-1.666c-0.327-0.673-0.746-1.299-1.009-1.97
			c-0.275-0.66-0.522-1.249-0.699-1.673c-0.146-0.446-0.236-0.718-0.236-0.718s-0.101-0.329-0.262-0.856
			c-0.188-0.526-0.349-1.254-0.515-2.049c-0.215-0.796-0.279-1.656-0.396-2.454c-0.101-0.798-0.073-1.522-0.123-2.068
			c0.021-2.83,0.621-4.797,1.208-6.236c0.617-1.433,1.184-2.37,1.646-3.067c1.39-2.049,2.98-3.737,4.597-5.245
			c1.623-1.506,3.274-2.834,4.958-4.106C245.071,98.999,248.523,96.585,253.096,94.226z"/>
		<path d="M217.763,125.561c2.356,1.591,3.799,2.367,5.285,1.672c1.61-0.752,9.495-4.869,9.495-4.869s7.943-4,9.494-4.869
			c1.432-0.802,1.644-2.426,1.726-5.268c-2.355-1.592-3.799-2.368-5.285-1.673c-1.61,0.752-9.495,4.869-9.495,4.869
			s-7.943,4-9.494,4.869C218.058,121.094,217.845,122.718,217.763,125.561z"/>
		<path d="M223.096,138.227c2.311,1.646,3.729,2.455,5.214,1.798c1.608-0.711,9.494-4.625,9.494-4.625s7.942-3.797,9.495-4.625
			c1.433-0.765,1.669-2.38,1.797-5.214c-2.31-1.646-3.729-2.455-5.214-1.799c-1.609,0.711-9.494,4.625-9.494,4.625
			s-7.943,3.797-9.495,4.625C223.461,133.778,223.224,135.393,223.096,138.227z"/>
		<path d="M133.763,235.56c-0.37-2.559-0.979-4.697-1.949-6.827c-1.001-2.106-2.348-4.287-4.922-6.435
			c-0.45-0.349-1.04-0.813-1.994-1.385c-0.958-0.551-2.306-1.256-4.339-1.629c-1.564-0.284-3.496-0.233-5.408,0.332
			c-0.477,0.143-0.966,0.286-1.426,0.497c-0.471,0.188-0.947,0.393-1.419,0.669c-0.236,0.131-0.475,0.263-0.715,0.396l-0.688,0.486
			c-0.475,0.307-0.888,0.721-1.317,1.117c-1.696,1.649-2.734,3.953-3.209,6.154c-0.453,2.222-0.462,4.392-0.323,6.4
			c0.312,4.018,1.13,7.468,1.687,9.954c0.585,2.463,0.949,3.998,0.949,3.998s0.291,1.269,0.769,3.347
			c0.223,1.033,0.485,2.266,0.694,3.621c0.21,1.351,0.385,2.845,0.328,4.292c0.005,0.199-0.024,0.336-0.048,0.475l-0.061,0.431
			c-0.119,0.277-0.14,0.578-0.312,0.854c-0.226,0.58-0.683,1.117-1.144,1.649c-1.004,1.036-2.387,1.877-3.855,2.47
			c-2.964,1.206-6.248,1.362-8.745,0.875c-1.978-0.381-3.438-1.083-4.474-1.764c-0.541-0.316-0.928-0.695-1.296-0.976
			c-0.341-0.31-0.597-0.6-0.824-0.816c-1.677-1.907-2.591-3.8-3.381-5.719c-0.764-1.936-1.393-3.933-1.91-6.466
			c-0.725,2.468-1.075,4.701-0.879,7.108c0.225,2.374,0.999,5.06,3.273,7.689c0.3,0.303,0.65,0.696,1.115,1.121
			c0.489,0.394,1.03,0.899,1.754,1.336c1.401,0.929,3.357,1.859,5.887,2.346c3.211,0.617,7.192,0.427,10.949-1.09
			c1.869-0.762,3.705-1.838,5.218-3.396c0.725-0.813,1.43-1.675,1.875-2.729c0.271-0.489,0.39-1.068,0.565-1.597
			c0.087-0.538,0.205-1.166,0.206-1.623c0.069-1.914-0.149-3.589-0.377-5.077c-0.233-1.487-0.511-2.774-0.743-3.847
			c-0.491-2.121-0.791-3.415-0.791-3.415s-0.358-1.524-0.935-3.97c-0.545-2.429-1.315-5.775-1.584-9.354
			c-0.125-1.782-0.094-3.62,0.252-5.306c0.375-1.669,1.068-3.148,2.146-4.196c1.059-1.047,2.499-1.762,3.873-2.168
			c1.358-0.399,2.611-0.426,3.655-0.242c1.354,0.245,2.317,0.731,3.028,1.14c0.711,0.422,1.175,0.782,1.53,1.05
			c2.058,1.676,3.523,3.356,4.962,4.949C130.833,231.908,132.243,233.482,133.763,235.56z"/>
		<path d="M86.43,269.56c3.968-3.299,6.523-5.64,10.094-10.453c0.603-0.817,1.582-2.147,3.619-4.911
			c1.973-2.693,6.646-9.072,6.646-9.072s3.925-5.331,6.101-8.287c2.706-3.698,4.381-5.987,5.256-7.182
			c3.523-4.849,4.991-7.988,6.95-12.762c-3.967,3.299-6.522,5.64-10.094,10.454c-0.879,1.193-2.561,3.477-5.278,7.166
			c-2.168,2.961-6.078,8.302-6.078,8.302s-4.687,6.371-6.665,9.06c-2.026,2.771-3.002,4.104-3.602,4.924
			C89.857,261.647,88.389,264.787,86.43,269.56z"/>
		<path d="M93.096,271.56c3.966-3.301,6.52-5.644,10.088-10.458c0.603-0.818,1.581-2.148,3.616-4.913
			c1.666-2.277,5.613-7.672,5.613-7.672s3.315-4.507,5.154-7.006c2.704-3.699,4.378-5.989,5.252-7.185
			c3.521-4.851,4.987-7.991,6.943-12.766c-3.966,3.301-6.52,5.644-10.088,10.459c-0.878,1.193-2.559,3.478-5.274,7.169
			c-1.83,2.504-5.133,7.021-5.133,7.021s-3.959,5.386-5.63,7.66c-2.025,2.772-3,4.106-3.599,4.926
			C96.52,263.646,95.053,266.786,93.096,271.56z"/>
		<path d="M553.763,308.894c4.957-1.392,9.12-2.171,13.331-2.928c2.104-0.357,4.232-0.699,6.45-0.893
			c2.198-0.168,4.557-0.286,6.767,0.17c0.186,0.037,0.387,0.077,0.605,0.121c0.203,0.063,0.423,0.132,0.662,0.208
			c0.249,0.06,0.49,0.161,0.741,0.282c0.259,0.11,0.545,0.219,0.802,0.399c1.076,0.662,2.375,1.613,3.355,4.024
			c0.541,1.279,1.039,3.145,0.892,5.014c-0.073,1.889-0.931,3.884-2.109,5.65c-1.214,1.758-2.746,3.229-3.917,4.24
			c-0.594,0.503-1.086,0.905-1.447,1.168c-0.353,0.271-0.548,0.42-0.548,0.42s-0.534,0.37-1.437,0.995
			c-0.922,0.608-2.253,1.438-3.87,2.316c-0.81,0.437-1.687,0.89-2.613,1.334c-0.257,0.122-0.516,0.245-0.777,0.368
			c-0.517,0.229-1.037,0.459-1.561,0.69c-1.02,0.47-2.138,0.885-3.233,1.322c-2.284,0.826-4.875,1.619-7.419,2.44
			c-0.634,0.202-1.265,0.404-1.893,0.605l-0.928,0.297l-0.229,0.073l-0.114,0.037l0.073,0.052l0.354,0.195
			c0.971,0.54,1.93,1.073,2.87,1.596c2.126,1.182,4.151,2.308,4.677,2.6c9.845,5.462,15.938,8.842,19.12,10.607
			c10.505,5.775,17.102,7.902,27.063,10.594c-7.539-7.046-12.825-11.529-23.271-17.41c-1.995-1.115-5.816-3.251-11.989-6.701
			l0.021,0.009l-0.031,0.017l-0.012,0.003l-0.021,0.01c0.239-0.116,0.477-0.23,0.712-0.345c1.039-0.501,2.027-1.016,2.946-1.517
			c1.836-1.004,3.38-1.975,4.463-2.698c1.072-0.751,1.706-1.195,1.706-1.195s0.239-0.181,0.67-0.506
			c0.435-0.316,1.049-0.808,1.794-1.436c1.478-1.271,3.49-3.143,5.301-5.736c1.775-2.588,3.314-6.041,3.488-9.534
			c0.021-0.431,0.044-0.858,0.065-1.28c-0.023-0.419-0.046-0.833-0.069-1.242c-0.021-0.824-0.188-1.584-0.318-2.322
			c-0.109-0.75-0.355-1.396-0.533-2.035c-0.17-0.636-0.418-1.212-0.646-1.742c-0.373-0.994-0.921-1.896-1.407-2.734
			c-0.254-0.416-0.569-0.795-0.843-1.169c-0.279-0.373-0.549-0.731-0.872-1.039c-0.312-0.314-0.612-0.616-0.901-0.908
			c-0.294-0.288-0.626-0.514-0.923-0.754c-0.307-0.229-0.591-0.469-0.889-0.657c-0.304-0.18-0.596-0.352-0.876-0.519
			c-0.559-0.349-1.101-0.578-1.604-0.791c-0.502-0.226-0.966-0.405-1.399-0.522c-0.434-0.128-0.831-0.246-1.198-0.354
			c-0.366-0.073-0.702-0.14-1.014-0.203c-1.84-0.348-3.544-0.393-5.103-0.286c-1.573,0.08-2.993,0.35-4.337,0.646
			c-2.675,0.626-4.959,1.55-7.072,2.599C561.068,302.68,557.506,305.328,553.763,308.894z"/>
		<path d="M549.763,310.227c3.249,1.371,5.326,1.984,8.117,0.917c3.022-1.155,18.015-7.303,18.015-7.303s15.041-6.028,18.015-7.304
			c2.746-1.178,3.81-3.064,5.187-6.311c-3.249-1.372-5.325-1.984-8.117-0.918c-3.022,1.155-18.015,7.303-18.015,7.303
			s-15.041,6.027-18.015,7.304C552.203,305.094,551.14,306.98,549.763,310.227z"/>
		<path d="M553.096,322.227c3.148,1.629,5.184,2.407,8.082,1.566c3.139-0.91,18.746-5.843,18.746-5.843s15.645-4.809,18.745-5.843
			c2.863-0.955,4.096-2.752,5.761-5.88c-3.147-1.629-5.184-2.407-8.082-1.567c-3.14,0.91-18.746,5.843-18.746,5.843
			s-15.645,4.808-18.745,5.843C555.994,317.302,554.761,319.098,553.096,322.227z"/>
		<path d="M197.097,238.227c0.84,2.65,1.463,4.11,2.912,4.394c1.57,0.307,9.495,1.46,9.495,1.46s7.904,1.282,9.494,1.461
			c1.468,0.165,2.501-1.041,4.099-3.315c-0.84-2.65-1.463-4.11-2.912-4.395c-1.57-0.308-9.495-1.46-9.495-1.46
			s-7.904-1.283-9.494-1.461C199.728,234.747,198.694,235.952,197.097,238.227z"/>
		<path d="M325.096,140.893c-2.666,0.693-4.14,1.228-4.461,2.601c-0.348,1.487-1.704,9.008-1.704,9.008s-1.484,7.497-1.704,9.008
			c-0.203,1.396,0.974,2.431,3.203,4.051c2.667-0.693,4.14-1.228,4.462-2.601c0.348-1.487,1.704-9.008,1.704-9.008
			s1.485-7.496,1.704-9.008C328.502,143.548,327.326,142.513,325.096,140.893z"/>
		<path d="M294.43,254.893c1.266-1.566,2.491-2.365,3.481-3.052c1.011-0.676,1.812-1.233,2.714-2.011
			c0.484-0.417,1.56-1.209,3.102-1.537c1.544-0.32,3.494-0.058,4.982,0.917c1.529,0.943,2.459,2.48,2.835,3.653
			c0.169,0.6,0.258,1.106,0.285,1.466c0.021,0.36,0.034,0.563,0.034,0.563s-0.013,0.203-0.034,0.563
			c-0.027,0.359-0.116,0.866-0.285,1.466c-0.376,1.173-1.306,2.709-2.835,3.653c-1.488,0.976-3.438,1.238-4.982,0.917
			c-1.542-0.327-2.617-1.119-3.102-1.537c-0.902-0.778-1.703-1.335-2.714-2.011C296.921,257.258,295.695,256.459,294.43,254.893
			c-1.238,1.576-1.872,3.407-1.785,5.292c0.093,1.878,0.917,3.877,2.813,5.615c1.002,0.924,3.314,2.68,6.685,3.386
			c1.672,0.339,3.537,0.404,5.42,0.082c1.883-0.317,3.754-1.039,5.367-2.075c1.618-1.03,2.976-2.362,3.982-3.768
			c1.013-1.406,1.677-2.872,2.091-4.159c0.384-1.298,0.548-2.403,0.606-3.171c0.035-0.77,0.055-1.203,0.055-1.203
			s-0.02-0.434-0.055-1.203c-0.059-0.768-0.223-1.873-0.606-3.171c-0.414-1.287-1.078-2.753-2.091-4.159
			c-1.007-1.406-2.364-2.738-3.982-3.768c-1.613-1.036-3.484-1.757-5.367-2.075c-1.883-0.323-3.749-0.258-5.42,0.082
			c-3.37,0.707-5.683,2.462-6.685,3.387c-1.896,1.738-2.721,3.736-2.813,5.614C292.558,251.485,293.191,253.317,294.43,254.893z"/>
		<path d="M302.43,243.466l4.667-49.423c0,0-13.333,7.604-16.667,3.042s18.666-24.331,25.333-25.852
			c6.667-1.521,16.667,29.653,14,34.215s-12.666-9.124-12.666-9.124l-7.334,47.902"/>
		<path d="M317.667,256.651l61.209,31.57c0,0,0.07-14.906,5.145-16.076c5.074-1.169,10.609,26.286,8.789,32.837
			c-1.82,6.551-30.724,3.135-33.089-1.051s12.856-7.69,12.856-7.69l-58.814-33.349"/>
		<path d="M358.705,49.893c0.312-0.345,0.582-0.604,0.818-0.821c0.29-0.205,0.527-0.37,0.725-0.53
			c0.253-0.135,0.438-0.278,0.621-0.427c0.233-0.108,0.354-0.316,0.589-0.454c0.212-0.188,0.688-0.526,1.364-0.691
			c0.687-0.132,1.544-0.017,2.204,0.412c0.677,0.415,1.088,1.099,1.236,1.619c0.112,0.255,0.112,0.487,0.129,0.645
			c0.021,0.158,0.034,0.247,0.034,0.247s-0.013,0.089-0.034,0.247c-0.017,0.158-0.017,0.39-0.129,0.646
			c-0.148,0.521-0.56,1.204-1.236,1.619c-0.66,0.429-1.518,0.543-2.204,0.411c-0.676-0.164-1.152-0.503-1.364-0.69
			c-0.234-0.137-0.355-0.345-0.589-0.454c-0.183-0.149-0.368-0.291-0.622-0.426c-0.196-0.16-0.434-0.325-0.724-0.53
			C359.287,50.497,359.018,50.238,358.705,49.893c-1.066,1.384-1.205,3.266,0.464,4.82c0.443,0.414,1.465,1.177,2.952,1.51
			c1.469,0.312,3.342,0.053,4.774-0.887c1.455-0.905,2.343-2.374,2.671-3.512c0.207-0.567,0.24-1.058,0.271-1.399
			c0.028-0.34,0.044-0.532,0.044-0.532s-0.016-0.191-0.044-0.531c-0.03-0.341-0.063-0.832-0.271-1.399
			c-0.327-1.138-1.216-2.606-2.671-3.512c-1.432-0.94-3.306-1.2-4.774-0.888c-1.486,0.333-2.509,1.097-2.951,1.51
			C357.501,46.626,357.639,48.508,358.705,49.893z"/>
		<path d="M362.248,44.832l2.067-21.888c0,0-5.905,3.367-7.382,1.347c-1.477-2.02,8.267-10.775,11.22-11.449
			c2.952-0.674,7.381,13.133,6.2,15.153c-1.182,2.021-5.609-4.041-5.609-4.041l-3.248,21.215"/>
		<path d="M368.943,50.645l21.622,11.206c0,0,0.562-6.333,2.491-7.012c1.93-0.679,3,10.782,2.087,13.629
			c-0.912,2.847-11.535,2.436-12.265,0.744s5.057-3.729,5.057-3.729l-20.668-12.048"/>
		<path d="M19.273,336.795c0.107-0.453,0.218-0.811,0.319-1.114c0.155-0.319,0.284-0.579,0.378-0.814
			c0.157-0.24,0.251-0.455,0.339-0.673c0.151-0.208,0.157-0.448,0.296-0.682c0.095-0.268,0.35-0.794,0.862-1.265
			c0.536-0.447,1.343-0.761,2.128-0.704c0.793,0.037,1.483,0.438,1.865,0.821c0.221,0.169,0.333,0.372,0.424,0.503
			c0.095,0.128,0.148,0.199,0.148,0.199s0.032,0.084,0.09,0.233c0.062,0.146,0.173,0.35,0.199,0.627
			c0.121,0.528,0.091,1.325-0.301,2.016c-0.371,0.694-1.066,1.209-1.731,1.424c-0.671,0.183-1.252,0.116-1.528,0.054
			c-0.271-0.007-0.478-0.13-0.734-0.112c-0.231-0.043-0.463-0.078-0.75-0.074c-0.25-0.046-0.538-0.075-0.891-0.114
			C20.075,337.043,19.714,336.947,19.273,336.795c-0.265,1.727,0.522,3.441,2.733,3.997c0.588,0.147,1.852,0.324,3.314-0.103
			c1.438-0.437,2.953-1.568,3.753-3.084c0.836-1.495,0.905-3.21,0.643-4.365c-0.094-0.596-0.301-1.042-0.439-1.354
			c-0.14-0.312-0.218-0.487-0.218-0.487s-0.106-0.16-0.295-0.444c-0.191-0.284-0.457-0.698-0.913-1.095
			c-0.836-0.839-2.323-1.695-4.034-1.785c-1.708-0.132-3.475,0.545-4.61,1.528c-1.141,1.01-1.667,2.171-1.855,2.748
			C16.641,334.517,17.671,336.098,19.273,336.795z"/>
		<path d="M19.932,330.654l-8.763-20.165c0,0-3.544,5.802-5.812,4.745c-2.27-1.056,2.034-13.428,4.294-15.443
			c2.259-2.016,12.807,7.934,12.748,10.272c-0.06,2.34-6.863-0.828-6.863-0.828l7.402,20.146"/>
		<path d="M28.602,332.509l24.345-0.631c0,0-2.566-5.817-1.205-7.344s7.835,7.992,8.41,10.927c0.576,2.934-8.924,7.704-10.38,6.575
			c-1.456-1.13,2.627-5.707,2.627-5.707l-23.917-0.567"/>
		<path d="M212.43,640c-8.658-5.577-15.435-10.683-22.73-15.614c-7.257-4.991-14.974-9.879-24.757-16.13
			c-1.649-1.07-3.822-2.468-6.907-4.597c-3.086-2.127-7.105-4.964-12.283-9.084c-8.05-6.412-18.416-15.643-27.735-27.134
			c-4.697-5.708-9.063-11.999-12.919-18.539c-3.84-6.55-7.056-13.405-9.605-20.162c-5.091-13.542-7.171-26.702-7.728-36.28
			c-0.212-2.393-0.193-4.577-0.281-6.488c-0.037-1.915,0.011-3.57,0.006-4.923c-0.014-1.352,0.081-2.405,0.098-3.118
			c0.031-0.714,0.048-1.09,0.048-1.09s0.015-0.314,0.042-0.914c0.024-0.601,0.057-1.486,0.167-2.629
			c0.095-1.143,0.21-2.542,0.345-4.171c0.214-1.637,0.458-3.503,0.729-5.57c0.941-8.289,3.167-19.692,7.211-31.957
			c4.044-12.253,10.097-25.308,17.838-36.803c7.701-11.521,16.794-21.544,25.094-29.098c1.6-1.491,3.225-2.805,4.714-4.114
			c1.479-1.322,2.978-2.47,4.381-3.575c2.769-2.258,5.375-4.09,7.648-5.742c2.273-1.655,4.354-2.946,6.077-4.134
			c1.741-1.164,3.258-2.039,4.456-2.805c9.801-6.046,17.661-10.544,25.107-15.137c3.767-2.307,7.433-4.552,11.223-6.873
			c3.846-2.317,7.848-4.739,12.431-7.091c-5.168-0.071-9.964,0.28-14.57,0.839c-4.609,0.573-9.049,1.39-13.514,2.571
			c-8.923,2.366-18.105,5.925-28.783,12.361c-1.308,0.814-2.951,1.753-4.848,3.004c-1.88,1.275-4.135,2.669-6.613,4.459
			c-2.48,1.787-5.312,3.776-8.34,6.23c-1.531,1.203-3.161,2.455-4.784,3.896c-1.633,1.427-3.402,2.863-5.157,4.493
			c-9.092,8.254-19.11,19.283-27.603,32.012c-8.538,12.696-15.218,27.127-19.636,40.582c-4.426,13.469-6.811,25.903-7.827,34.865
			c-0.286,2.241-0.545,4.264-0.771,6.037c-0.146,1.797-0.272,3.342-0.375,4.603c-0.116,1.26-0.152,2.241-0.18,2.906
			c-0.029,0.664-0.045,1.013-0.045,1.013s-0.019,0.415-0.055,1.205c-0.021,0.792-0.122,1.953-0.113,3.457
			c-0.001,1.503-0.053,3.34-0.016,5.472c0.089,2.132,0.074,4.56,0.301,7.236c0.606,10.688,2.919,25.518,8.633,40.756
			c2.854,7.601,6.461,15.294,10.736,22.6c4.289,7.295,9.135,14.267,14.296,20.546c10.259,12.645,21.492,22.613,30.162,29.491
			c5.575,4.423,9.88,7.445,13.185,9.705c3.304,2.262,5.628,3.736,7.396,4.857c10.486,6.555,19.402,10.475,28.145,13.271
			C193.481,637.421,202.123,639.128,212.43,640z"/>
		<path d="M81.764,456.893c-2.131,1.442-4.223,2.451-6.222,3.238c-2.006,0.77-3.943,1.283-5.816,1.494
			c-1.878,0.203-3.654,0.087-5.385-0.436c-0.868-0.261-1.725-0.663-2.612-1.146c-0.874-0.529-1.775-1.162-2.69-1.971
			c-0.316-0.26-0.651-0.631-1.075-1.027c-0.397-0.43-0.891-0.956-1.393-1.588c-1.026-1.252-2.207-3.008-2.934-5.524
			c-0.369-1.371-0.529-2.895-0.354-4.527c0.191-1.629,0.741-3.36,1.64-5.065c0.929-1.687,2.202-3.359,3.783-4.741
			c0.785-0.687,1.633-1.324,2.512-1.818c0.871-0.49,1.783-0.852,2.525-0.991c0.188-0.043,0.336-0.032,0.505-0.068
			c0.123,0.018,0.274-0.006,0.36,0.014l-0.044-0.018l-0.009-0.012l-0.003,0.001c0.01,0.051,0.028,0.288,0.026,0.469
			c0.009,0.812-0.198,1.931-0.512,3.034c-0.326,1.118-0.757,2.269-1.273,3.402c-2.076,4.55-5.208,8.824-8.727,12.031
			c-3.517,3.229-7.526,5.3-11.122,5.644c-1.798,0.189-3.492-0.011-5.042-0.47c-0.812-0.227-1.42-0.575-2.073-0.833
			c-0.567-0.396-1.175-0.678-1.636-1.139c-1.98-1.632-3.084-3.748-3.678-5.285c-0.312-0.764-0.49-1.405-0.646-1.816
			c-0.114-0.438-0.175-0.668-0.175-0.668s-0.049-0.193-0.143-0.562c-0.109-0.362-0.219-0.922-0.342-1.653
			c-0.27-1.448-0.53-3.628-0.476-6.391c0.035-2.755,0.39-6.101,1.315-9.682c0.449-1.791,1.049-3.641,1.846-5.431
			c0.783-1.789,1.754-3.562,2.93-5.001c1.163-1.449,2.553-2.442,3.627-2.671c0.271,0.022,0.53-0.115,0.806-0.027
			c0.137,0.025,0.27-0.004,0.416,0.033c0.147,0.057,0.296,0.104,0.448,0.142l0.232,0.059l0.241,0.127
			c0.163,0.081,0.328,0.157,0.497,0.227c0.126,0.101,0.248,0.197,0.381,0.283l0.195,0.13l0.14,0.162
			c0.436,0.377,0.678,0.865,0.864,1.523c0.213,0.631,0.229,1.491,0.157,2.393c-0.188,1.84-0.877,3.905-1.873,5.84
			c-2.021,3.89-5.097,7.366-8.417,9.723c-3.326,2.386-6.939,3.517-9.789,3.11c-1.622-0.192-2.916-0.783-4.155-1.553
			c-1.281-0.776-2.225-1.668-2.991-2.507c-1.511-1.704-2.241-3.29-2.693-4.4c-0.915-2.257-1.365-4.539-1.676-6.729
			c-0.304-2.194-0.461-4.315-0.541-6.431c-0.13-4.233-0.181-8.451,0.401-13.563c-2.925,4.267-4.854,8.315-6.087,12.905
			c-0.601,2.303-0.979,4.769-0.992,7.524c0.002,2.746,0.343,5.827,1.638,9.155c0.644,1.617,1.725,4.054,4.11,6.763
			c1.196,1.328,2.712,2.728,4.62,3.903c1.9,1.212,4.473,2.396,7.425,2.729c2.645,0.334,5.436,0.021,8.021-0.809
			c2.598-0.823,5.024-2.109,7.248-3.684c4.432-3.178,8.176-7.414,10.867-12.55c1.313-2.588,2.366-5.441,2.704-8.708
			c0.132-1.64,0.121-3.393-0.413-5.217c-0.112-0.452-0.246-0.9-0.46-1.348c-0.202-0.444-0.378-0.896-0.629-1.319
			c-0.267-0.419-0.545-0.832-0.831-1.237c-0.278-0.41-0.654-0.736-0.99-1.098l-0.526-0.518c-0.182-0.16-0.378-0.29-0.568-0.434
			c-0.385-0.278-0.775-0.554-1.17-0.811l-1.207-0.596l-0.608-0.283c-0.213-0.083-0.445-0.146-0.668-0.216
			c-0.451-0.137-0.905-0.264-1.358-0.381c-0.461-0.102-0.962-0.122-1.442-0.169c-0.969-0.134-1.941,0.052-2.899,0.17
			c-1.838,0.44-3.547,1.218-4.817,2.219c-1.355,0.961-2.38,2.072-3.307,3.18c-1.811,2.238-3.037,4.561-4.034,6.822
			c-1,2.264-1.712,4.487-2.249,6.623c-1.096,4.27-1.505,8.188-1.548,11.5c-0.062,3.311,0.257,6.012,0.602,7.872
			c0.159,0.931,0.306,1.65,0.446,2.139c0.125,0.487,0.189,0.742,0.189,0.742s0.081,0.305,0.235,0.885
			c0.206,0.575,0.45,1.431,0.889,2.515c0.238,0.538,0.503,1.137,0.793,1.791c0.359,0.637,0.749,1.329,1.168,2.072
			c0.982,1.424,2.165,3.066,3.954,4.495c0.834,0.772,1.889,1.363,2.943,2.021c1.121,0.516,2.312,1.093,3.514,1.432
			c2.439,0.734,5.248,1.067,8.104,0.763c2.857-0.292,5.709-1.2,8.33-2.54c2.629-1.338,5.05-3.088,7.251-5.086
			c4.39-4.026,8.007-8.953,10.607-14.599c0.646-1.418,1.21-2.899,1.668-4.472c0.439-1.589,0.811-3.236,0.818-5.215
			c-0.004-0.515-0.023-0.974-0.11-1.611c-0.096-0.674-0.271-1.361-0.516-2.002c-0.514-1.268-1.321-2.448-2.476-3.182
			c-0.584-0.353-1.156-0.723-1.816-0.924c-0.33-0.11-0.612-0.271-0.987-0.332c-0.345-0.075-0.757-0.145-1.026-0.181
			c-0.59-0.075-1.126-0.057-1.681-0.054c-0.506,0.053-1.041,0.092-1.515,0.188c-3.814,0.798-6.478,2.646-8.805,4.646
			c-2.305,2.026-4.119,4.391-5.498,6.904c-1.345,2.532-2.219,5.24-2.524,7.906c-0.296,2.669-0.024,5.247,0.587,7.477
			c1.189,4.104,3.004,6.637,4.404,8.368c0.709,0.88,1.339,1.55,1.901,2.143c0.598,0.567,1.067,1.057,1.535,1.443
			c1.344,1.163,2.802,2.125,4.311,2.874c1.538,0.713,3.108,1.225,4.676,1.45c3.146,0.457,6.053-0.116,8.437-1.157
			c2.398-1.054,4.355-2.536,6.058-4.248C79.076,461.143,80.55,459.178,81.764,456.893z"/>
		<path d="M401.097,312.894c4.688,2.143,8.849,4.302,12.852,6.365c3.957,2.047,7.786,4.027,11.722,6.063
			c7.785,4.025,15.988,7.903,26.1,13.192c1.708,0.902,3.945,2.101,7.09,3.978c3.154,1.863,7.203,4.444,12.257,8.345
			c2.568,2.063,5.327,4.341,7.969,7.008c1.378,1.288,2.625,2.744,3.978,4.185c1.25,1.532,2.507,2.979,3.906,4.838
			c5.507,7.093,11.324,15.113,17.752,23.415c6.444,8.277,13.501,16.914,22.044,24.621c4.271,3.839,8.931,7.418,14.001,10.423
			c5.061,3.008,10.541,5.412,16.155,6.969c5.612,1.57,11.319,2.283,16.754,2.32c5.437,0.024,10.632-0.506,15.412-1.466l0.9-0.16
			l0.15-0.035l0.277-0.065l0.274-0.065l0.123-0.029l-0.002-0.002l-0.023-0.027l-0.039-0.041l-0.01-0.011l0.072,0.082l0.182,0.203
			c0.231,0.307,0.461,0.612,0.689,0.914c1.838,2.457,3.245,5.313,4.416,7.967c0.504,1.399,1.062,2.68,1.469,3.978
			c0.396,1.306,0.771,2.537,1.121,3.689c0.281,1.191,0.544,2.301,0.786,3.322c0.118,0.513,0.248,0.995,0.343,1.469
			c0.083,0.479,0.161,0.936,0.235,1.367c0.303,1.727,0.537,3.068,0.696,3.979c0.106,0.93,0.162,1.419,0.162,1.419
			s0.056,0.49,0.166,1.462c0.086,0.979,0.333,2.409,0.445,4.363c0.058,0.977,0.123,2.072,0.194,3.287
			c0.058,1.217,0.198,2.538,0.176,4.01c-0.007,2.918,0.162,6.376-0.122,10.114c-0.334,7.51-1.479,16.9-5.598,26.342
			c-2.074,4.679-5.174,9.139-9.224,12.644c-0.51,0.425-1.05,0.798-1.572,1.215c-0.531,0.392-1.091,0.705-1.633,1.076
			c-0.545,0.275-1.113,0.632-1.614,0.833c-0.212,0.098-0.139,0.07-0.148,0.072c-0.012,0.001,0.049-0.006-0.077,0.008
			c-4.141,0.456-8.088,1.217-12.18,2.217c-5.853,1.442-12.431,3.589-19.127,6.681c-6.69,3.087-13.466,7.185-19.59,12.181
			c-3.065,2.49-5.927,5.243-8.566,8.112c-0.647,0.729-1.318,1.434-1.935,2.179c-0.613,0.748-1.223,1.493-1.829,2.233
			c-0.608,0.738-1.148,1.523-1.718,2.276l-0.838,1.136l-0.736,1.037c-3.82,5.429-7.449,10.421-10.658,14.65
			c-10.842,14.343-18.42,22.2-22.387,26.246c-8.102,8.111-14.552,14.103-20.985,19.603c-3.228,2.737-6.468,5.338-10.049,7.848
			c-3.584,2.502-7.513,4.922-12.209,7.072c5.149,0.304,10.048-0.072,14.721-0.96c4.678-0.893,9.139-2.295,13.506-4.192
			c8.729-3.818,17.123-9.563,26.041-18.331c4.367-4.353,12.6-12.887,23.883-27.799c3.343-4.396,7.088-9.546,10.987-15.087
			l0.727-1.021l0.675-0.909c0.46-0.603,0.886-1.237,1.377-1.828c0.486-0.595,0.976-1.192,1.468-1.793
			c0.493-0.6,1.038-1.162,1.557-1.751c2.126-2.307,4.428-4.535,6.926-6.563c4.985-4.066,10.59-7.482,16.234-10.091
			c5.643-2.612,11.285-4.465,16.284-5.702c3.454-0.854,6.94-1.511,10.084-1.855c0.782-0.099,1.775-0.066,2.605-0.436
			c0.852-0.281,1.767-0.641,2.37-0.929c1.163-0.502,2.129-1.075,3.153-1.63c0.938-0.604,1.904-1.185,2.781-1.824
			c0.856-0.654,1.73-1.289,2.539-1.965c6.384-5.495,10.62-11.954,13.394-18.138c1.297-3.116,2.553-6.127,3.321-9.07
			c0.215-0.733,0.429-1.459,0.64-2.177c0.104-0.358,0.209-0.716,0.312-1.07c0.088-0.356,0.152-0.711,0.229-1.063
			c0.291-1.411,0.574-2.791,0.853-4.139c0.137-0.674,0.271-1.341,0.405-1.999c0.083-0.656,0.165-1.306,0.246-1.947
			c0.158-1.282,0.312-2.532,0.464-3.751c0.372-2.443,0.368-4.726,0.503-6.892c0.307-4.361,0.125-8.05,0.123-11.277
			c0.018-1.604-0.132-3.101-0.198-4.454c-0.083-1.356-0.157-2.58-0.225-3.67c-0.132-2.18-0.406-3.842-0.509-4.946
			c-0.128-1.106-0.192-1.665-0.192-1.665s-0.065-0.557-0.188-1.615c-0.184-1.062-0.453-2.627-0.8-4.641
			c-0.088-0.503-0.181-1.034-0.278-1.593c-0.111-0.559-0.263-1.145-0.402-1.757c-0.29-1.224-0.604-2.553-0.942-3.979
			c-0.409-1.425-0.887-2.946-1.377-4.558c-0.507-1.61-1.214-3.299-1.872-5.073c-1.546-3.525-3.394-7.37-6.296-11.29
			c-0.372-0.487-0.747-0.979-1.125-1.475l-0.316-0.367l-0.445-0.492l-1.07-1.163c-1.45-1.5-2.978-2.815-4.664-3.903l-1.262-0.838
			c-0.104-0.108-0.222-0.062-0.338-0.042l-0.349,0.058l-0.698,0.117c-0.934,0.156-1.873,0.313-2.819,0.473
			c-1.653,0.277-3.329,0.56-5.025,0.845c-7.876,1.521-16.555,1.79-24.982-0.592c-8.442-2.313-16.554-7.337-23.86-13.959
			c-7.332-6.604-13.925-14.587-20.131-22.58c-6.205-8.012-12.052-16.071-17.744-23.399c-1.345-1.79-2.992-3.735-4.507-5.562
			c-1.617-1.739-3.147-3.49-4.771-5.018c-3.158-3.17-6.362-5.817-9.342-8.194c-5.822-4.486-10.387-7.364-13.909-9.433
			c-3.519-2.083-5.996-3.388-7.888-4.363c-11.196-5.713-20.624-8.525-29.68-10.214c-4.538-0.825-9.006-1.327-13.631-1.586
			C411.046,312.627,406.254,312.59,401.097,312.894z"/>
		<path d="M542.43,548.892c-2.997-1.309-5.248-2.509-7.563-3.335c-1.146-0.386-2.308-0.772-3.539-0.972
			c-1.235-0.262-2.553-0.405-4.03-0.481c-0.799-0.06-1.998-0.149-3.485-0.261c-0.739-0.092-1.55-0.192-2.418-0.3
			c-0.434-0.054-0.882-0.108-1.343-0.165c-0.456-0.085-0.924-0.173-1.402-0.263c-3.863-0.584-8.271-1.9-12.351-3.452
			c-1.005-0.427-1.998-0.85-2.968-1.261l-0.723-0.305c-0.229-0.121-0.457-0.241-0.684-0.36c-0.451-0.24-0.896-0.476-1.33-0.707
			c-0.873-0.459-1.709-0.898-2.498-1.313c-0.748-0.484-1.451-0.938-2.097-1.355c-0.646-0.418-1.234-0.799-1.754-1.135
			c-0.526-0.325-0.972-0.625-1.307-0.916c-0.692-0.548-1.082-0.857-1.082-0.857s-0.389-0.31-1.079-0.86
			c-0.674-0.57-1.734-1.278-2.81-2.396c-0.558-0.534-1.165-1.115-1.812-1.734c-0.645-0.621-1.365-1.251-1.972-2.017
			c-1.257-1.493-2.756-3.02-3.914-4.812c-0.312-0.434-0.625-0.871-0.939-1.309c-0.323-0.433-0.638-0.872-0.883-1.346
			c-0.536-0.924-1.071-1.847-1.6-2.756c-0.504-0.92-0.874-1.878-1.311-2.778c-0.198-0.457-0.443-0.892-0.597-1.347
			c-0.158-0.454-0.312-0.9-0.464-1.337c-0.685-1.724-1.021-3.365-1.385-4.721c-0.286-1.369-0.432-2.489-0.584-3.228
			c-0.303-2.748-0.943-4.885-1.728-7.077c-0.807-2.204-1.998-4.417-3.018-7.512c-2.579,2.051-4.363,4.345-5.546,6.891
			c-1.217,2.567-1.644,5.49-1.321,9.136c0.156,0.975,0.335,2.454,0.7,4.256c0.442,1.783,0.906,3.936,1.77,6.18
			c0.199,0.566,0.402,1.146,0.61,1.736c0.206,0.591,0.504,1.15,0.759,1.741c0.55,1.16,1.053,2.393,1.69,3.563
			c0.669,1.152,1.348,2.32,2.027,3.491c0.324,0.598,0.712,1.146,1.107,1.686c0.391,0.545,0.78,1.088,1.167,1.627
			c1.481,2.228,3.263,4.076,4.814,5.879c0.759,0.924,1.601,1.671,2.367,2.408c0.771,0.731,1.496,1.419,2.161,2.05
			c1.292,1.305,2.548,2.165,3.355,2.837c0.826,0.651,1.291,1.019,1.291,1.019s0.465,0.368,1.288,1.021
			c0.401,0.343,0.929,0.706,1.554,1.104c0.619,0.406,1.32,0.866,2.09,1.371c0.773,0.5,1.605,1.061,2.511,1.624
			c0.941,0.504,1.939,1.038,2.98,1.596c0.521,0.277,1.054,0.56,1.595,0.848c0.271,0.142,0.544,0.285,0.819,0.43
			c0.285,0.123,0.573,0.247,0.862,0.372c1.157,0.496,2.345,1.005,3.545,1.52c4.863,1.879,10.119,3.424,14.67,4.114
			c0.565,0.103,1.119,0.203,1.658,0.301c0.542,0.065,1.069,0.13,1.58,0.192c1.021,0.119,1.976,0.23,2.846,0.331
			c1.744,0.136,3.154,0.193,4.092,0.245c1.734,0.042,3.287-0.101,4.71-0.363c1.426-0.326,2.722-0.702,3.953-1.311
			C537.917,552.969,540.158,551.253,542.43,548.892z"/>
		<path d="M430.43,396.892c-8.849-5.338-16.707-9.214-25.351-12.312c-4.329-1.537-8.876-2.845-13.909-3.902
			c-5.036-1.04-10.561-1.843-16.881-2.149c-2.143-0.098-4.963-0.212-9.123-0.107c-2.079,0.05-4.499,0.176-7.347,0.454
			c-2.849,0.288-6.132,0.738-9.942,1.629c-2.163,0.511-5.085,1.32-8.223,2.619c-3.135,1.271-6.476,3.15-9.315,5.388
			c-2.861,2.214-5.114,4.839-6.516,6.873c-0.671,1.038-1.237,1.873-1.55,2.49c-0.327,0.609-0.51,0.948-0.51,0.948
			s-0.038,0.07-0.111,0.205c-0.077,0.16-0.168,0.277-0.33,0.655c-0.298,0.691-0.78,1.684-1.123,2.993
			c-0.772,2.581-1.045,6.361-0.304,9.802c0.687,3.478,2.039,6.754,3.553,9.535c1.511,2.803,3.162,5.211,4.581,7.134
			c3.043,4.093,6.023,7.37,8.755,10.231c2.738,2.849,5.253,5.235,7.496,7.305c4.497,4.117,7.913,6.948,10.266,8.879
			c9.548,7.765,17.707,12.818,25.817,16.937c8.127,4.084,16.238,7.222,26.066,10.396c-7.184-7.397-13.03-13.646-19.488-19.764
			c-6.428-6.143-13.481-12.143-22.461-19.599c-2.209-1.85-5.429-4.55-9.578-8.372c-2.064-1.915-4.365-4.11-6.798-6.65
			c-2.421-2.539-5.016-5.424-7.438-8.692c-1.116-1.528-2.369-3.381-3.382-5.249c-1.039-1.868-1.726-3.729-2.006-5.094
			c-0.301-1.401-0.133-2.125-0.036-2.569c0.032-0.233,0.146-0.379,0.169-0.505l0.123-0.246l0.056-0.104
			c0,0.001,0.349-0.693,1.04-1.708c0.713-1.001,1.816-2.296,3.394-3.497c1.563-1.206,3.549-2.361,5.657-3.205
			c2.089-0.863,4.219-1.471,5.839-1.876c5.781-1.332,10.52-1.562,14.083-1.695c3.59-0.104,6.107-0.021,8.021,0.048
			c11.321,0.483,20.423,1.31,29.208,1.688C411.626,396.258,420.14,396.325,430.43,396.892z"/>
		<path d="M506.43,414.893c0.431-5.065,0.083-8.318-3.092-11.33c-0.867-0.813-2.635-2.405-5.006-4.219
			c-2.373-1.81-5.344-3.856-8.9-5.414c-1.797-0.761-3.782-1.4-5.994-1.619c-2.199-0.233-4.652,0.091-6.657,1.022
			c-2,0.875-3.29,2.175-4.11,3.085c-0.413,0.457-0.65,0.887-0.841,1.154c-0.177,0.277-0.271,0.425-0.271,0.425
			s-0.104,0.142-0.254,0.433c-0.143,0.295-0.349,0.734-0.585,1.308c-0.263,0.564-0.412,1.298-0.601,2.054
			c-0.105,0.402-0.123,0.758-0.177,1.17c-0.036,0.396-0.104,0.854-0.101,1.258c-0.056,1.7,0.174,3.447,0.55,5.192
			c0.391,1.726,0.957,3.412,1.593,5.063c2.589,6.531,6.473,12.327,7.791,14.276c2.469,3.535,5.588,4.379,10.653,4.809
			c0.848-5.003,1.217-7.943-0.889-11.256c-0.564-0.897-1.719-2.683-2.985-4.884c-1.271-2.195-2.647-4.822-3.616-7.262
			c-0.471-1.212-0.861-2.377-1.087-3.357c-0.211-0.965-0.301-1.76-0.286-2.226c-0.013-0.139,0.026-0.191,0.024-0.284l0.021-0.203
			l0.009-0.101l0.009,0.005l0.002,0.023c-0.045,0.026,0.097-0.065,0.657-0.009c0.552,0.052,1.47,0.295,2.493,0.739
			c2.078,0.911,4.471,2.48,6.412,3.973c1.96,1.485,3.531,2.864,4.32,3.543C498.425,414.794,501.355,414.883,506.43,414.893z"/>
		<path d="M456.511,331.905c6.357-2.16,10.002-3.564,12.48-7.997c0.682-1.181,2.004-3.607,3.751-6.285
			c0.869-1.335,1.844-2.746,2.862-4.019c0.253-0.305,0.509-0.611,0.765-0.919l0.761-0.837l0.185-0.182l0.078-0.076l-0.011,0.009
			l-0.039,0.033l-0.009,0.003l-0.035-0.03l0.009-0.006c0.116,0.303,0.182,0.473,0.182,0.473s0.032,0.07,0.083,0.232
			c0.05,0.164,0.123,0.406,0.217,0.715c0.198,0.599,0.447,1.555,0.729,2.749c0.561,2.4,1.149,5.903,1.591,9.687
			c0.89,7.583,1.201,16.176,1.341,19.015c0.261,5.266,2.98,8.181,7.91,12.742c5.036-4.459,7.712-7.672,7.684-13.202
			c-0.017-3.002-0.327-11.986-1.345-20.404c-0.509-4.213-1.207-8.299-1.958-11.42c-0.38-1.564-0.732-2.866-1.045-3.81
			c-0.149-0.466-0.266-0.831-0.345-1.078c-0.091-0.255-0.14-0.391-0.14-0.391s-0.05-0.137-0.145-0.396
			c-0.052-0.138-0.115-0.309-0.189-0.511c-0.113-0.288-0.244-0.619-0.391-0.991c-0.301-0.739-0.787-1.596-1.283-2.609
			c-0.135-0.246-0.244-0.525-0.411-0.767c-0.166-0.241-0.338-0.49-0.515-0.745c-0.363-0.5-0.703-1.076-1.137-1.587
			c-0.463-0.477-0.946-0.975-1.448-1.492c-0.542-0.457-1.169-0.83-1.78-1.271c-0.314-0.208-0.658-0.382-0.997-0.571l-0.519-0.275
			l-0.263-0.135c-0.112,0.024-0.192-0.052-0.291-0.073c-0.757-0.256-1.507-0.618-2.35-0.692c-3.313-0.582-7.026,0.252-10.305,2.482
			c-0.833,0.516-1.589,1.208-2.392,1.807c-0.396,0.328-0.783,0.694-1.161,1.056l-0.832,0.823l-1.292,1.413
			c-0.392,0.469-0.782,0.936-1.17,1.4c-1.484,1.854-2.715,3.652-3.787,5.309c-2.139,3.311-3.584,6.052-4.304,7.435
			C452.682,321.629,453.725,325.782,456.511,331.905z"/>
		<path d="M593.096,424.225c-3.71-0.778-7.073-0.56-10.016,0.403c-1.525,0.463-2.854,1.225-4.242,2.157
			c-1.269,1.011-2.631,2.186-3.751,3.771c-0.629,0.846-1.6,2.104-2.591,3.778c-0.495,0.836-1.119,1.719-1.629,2.732
			c-0.521,1.008-1.078,2.084-1.661,3.21c-2.14,4.57-4.139,10.154-5.286,15.59c-0.376,1.35-0.51,2.7-0.754,4.011
			c-0.21,1.312-0.446,2.592-0.607,3.821c-0.219,2.457-0.42,4.713-0.592,6.629c-0.093,3.779-0.152,6.218-0.152,6.218
			s-0.004,0.152-0.013,0.44c-0.013,0.287-0.021,0.71,0.003,1.25c0.029,1.079,0.073,2.631,0.126,4.516
			c0.131,3.77,0.604,8.854,1.38,14.133c0.885,5.256,1.986,10.722,3.32,15.245c0.583,2.284,1.309,4.308,1.827,6.027
			c0.576,1.703,1.083,3.063,1.413,3.972c0.63,1.67,1.409,3.082,2.258,4.327c0.901,1.23,1.868,2.292,3.011,3.224
			c2.264,1.854,5.075,3.292,8.622,4.547c0.82-3.66,1.61-6.493,1.837-9.198c0.111-1.342,0.129-2.667-0.062-3.996
			c-0.143-1.355-0.495-2.724-0.997-4.22c-0.271-0.812-0.68-2.029-1.185-3.538c-0.438-1.532-1.08-3.324-1.586-5.353
			c-1.179-4.012-2.145-8.845-2.949-13.476c-0.691-4.647-1.136-9.106-1.267-12.401c-0.057-1.647-0.104-3.003-0.137-3.946
			c-0.025-0.472-0.021-0.84-0.01-1.091c0.006-0.25,0.01-0.383,0.01-0.383s0.064-2.121,0.164-5.408
			c0.152-1.604,0.33-3.493,0.525-5.55c0.14-1.016,0.346-2.055,0.52-3.131c0.207-1.065,0.304-2.198,0.62-3.264
			c0.938-4.393,2.53-8.717,4.13-12.206c0.436-0.85,0.852-1.661,1.241-2.423c0.372-0.774,0.84-1.407,1.197-2.036
			c0.714-1.262,1.41-2.175,1.843-2.809c0.767-1.205,1.49-2.207,1.959-3.368c0.561-1.053,0.902-2.252,1.268-3.427
			C591.584,430.566,591.906,427.763,593.096,424.225z"/>
		<path d="M607.177,459.893c-1.012-1.973-2.475-3.498-4.613-4.296c-1.071-0.382-2.351-0.551-3.749-0.302
			c-1.393,0.239-2.874,0.936-4.102,2.033c-0.655,0.592-1.559,1.551-2.348,2.81c-0.781,1.254-1.467,2.773-2.005,4.418
			c-1.073,3.29-1.54,7.062-1.736,10.578c-0.217,3.521-0.075,6.946,0.214,9.484c0.131,1.268,0.312,2.316,0.443,3.045
			c0.141,0.729,0.22,1.14,0.22,1.14s0.095,0.411,0.263,1.141c0.174,0.729,0.456,1.779,0.891,3.049
			c0.452,1.269,1.054,2.761,1.976,4.347c0.927,1.576,2.141,3.284,4.11,4.76l0.789,0.528l0.888,0.477
			c0.325,0.143,0.658,0.276,0.997,0.401c0.398,0.114,0.796,0.228,1.208,0.297c1.667,0.284,3.418-0.013,4.844-0.862
			c0.706-0.433,1.343-0.972,1.868-1.599l0.377-0.483l0.179-0.244l0.109-0.187c0.143-0.25,0.284-0.498,0.425-0.745
			c0.132-0.244,0.287-0.502,0.389-0.734c0.096-0.231,0.191-0.46,0.286-0.687c0.186-0.454,0.378-0.909,0.491-1.321
			c1.056-3.368,1.269-5.915,1.427-7.215c0.233-2.38,0.001-4.239-0.562-5.975c-0.569-1.731-1.455-3.351-2.687-5.19
			c-2.272,3.782-3.566,6.17-4.048,10.339c-0.148,1.098-0.417,3.428-1.151,5.717c-0.079,0.305-0.195,0.543-0.3,0.803l-0.157,0.394
			c-0.053,0.127-0.117,0.201-0.172,0.308l-0.163,0.305l-0.038,0.078l0.001-0.002l0.007-0.006l0.018-0.001l-0.019-0.006l-0.176-0.071
			l-0.224-0.119l-0.255-0.172c-0.724-0.526-1.509-1.487-2.095-2.513c-0.603-1.023-1.054-2.11-1.395-3.057
			c-0.331-0.957-0.56-1.779-0.699-2.36c-0.139-0.583-0.216-0.911-0.216-0.911s-0.062-0.336-0.174-0.932
			c-0.104-0.598-0.253-1.462-0.357-2.537c-0.234-2.142-0.354-5.114-0.152-8.267c0.176-3.15,0.619-6.358,1.393-8.711
			c0.382-1.172,0.821-2.117,1.226-2.787c0.413-0.66,0.778-1.028,1.006-1.265c0.436-0.407,0.761-0.679,1.144-0.971
			c0.381-0.285,0.838-0.573,1.424-0.843C603.367,460.454,604.986,459.937,607.177,459.893z"/>
		<polygon points="229.43,328.893 218.43,345.893 399.43,346.893 392.43,326.893 		"/>
		<path fill="#FFFFFF" d="M348.43,144.893c0,0,71-63,106-69s83,4,93,6s92.57,16,92.57,16v155c0,0-64.57,9-110.57,9s-148,7-145-26
			s56-26,56-26s131-11,115-49s-76-21-76-21l-83,27L348.43,144.893z"/>
		<path d="M422.431,214.893c-0.31-5.151-1.187-9.945-2.442-14.501c-1.242-4.574-2.97-8.861-5.108-13.083
			c-2.126-4.237-4.773-8.335-8.013-12.477c-3.248-4.134-7.105-8.311-11.871-12.476c-1.63-1.39-3.748-3.251-6.99-5.739
			c-3.247-2.477-7.549-5.688-13.728-9.456c-8.614-5.231-20.78-11.454-35.029-15.536c-7.107-2.045-14.706-3.596-22.464-4.208
			c-1.939-0.147-3.877-0.3-5.827-0.312c-0.97-0.016-1.951-0.064-2.906-0.05c-0.952,0.024-1.902,0.048-2.85,0.072
			c-0.947,0.025-1.893,0.05-2.834,0.075c-0.94,0.051-1.876,0.136-2.809,0.203c-1.864,0.146-3.718,0.255-5.535,0.524
			c-14.628,1.644-27.465,6.122-36.274,10.199c-2.237,0.964-4.171,2.026-5.9,2.9c-1.74,0.854-3.156,1.745-4.349,2.412
			c-2.385,1.336-3.639,2.19-3.639,2.189c0,0-1.068,0.684-3.012,1.928c-0.974,0.619-2.104,1.47-3.452,2.412
			c-0.666,0.482-1.397,0.974-2.139,1.542c-0.735,0.576-1.514,1.186-2.332,1.827c-3.295,2.535-7.001,5.853-10.953,9.742
			c-3.901,3.944-7.933,8.576-11.792,13.783c-7.737,10.402-14.361,23.379-18.398,36.743c-2.064,6.667-3.396,13.436-4.214,19.909
			c-0.474,3.233-0.627,6.413-0.849,9.47c-0.069,3.064-0.21,6.016-0.069,8.826c0.239,9.79,1.565,17.653,2.888,23.777
			c1.44,6.108,2.839,10.516,3.91,13.494c0.566,1.498,1.117,2.956,1.654,4.376c0.604,1.394,1.228,2.737,1.835,4.047
			c0.309,0.652,0.613,1.297,0.915,1.934c0.338,0.62,0.671,1.232,1.001,1.838c0.676,1.2,1.337,2.375,1.985,3.526
			c0.705,1.119,1.424,2.198,2.131,3.256c0.715,1.053,1.393,2.1,2.173,3.062c1.532,1.939,2.971,3.844,4.624,5.543
			c6.4,6.924,13.625,12.344,22.702,17.23c-5.735-8.594-9.525-16.036-13.272-23.721c-0.987-1.888-1.803-3.899-2.766-5.87
			c-0.496-0.977-0.901-2.02-1.359-3.05c-0.46-1.026-0.928-2.069-1.405-3.132c-0.441-1.076-0.891-2.172-1.351-3.293
			c-0.238-0.555-0.479-1.115-0.722-1.683c-0.219-0.578-0.438-1.162-0.662-1.753c-0.459-1.175-0.928-2.377-1.41-3.612
			c-0.438-1.25-0.886-2.532-1.346-3.849c-0.91-2.603-2.099-6.448-3.344-11.766c-1.13-5.338-2.276-12.181-2.479-20.727
			c-0.128-2.453,0.012-5.03,0.063-7.705c0.204-2.665,0.324-5.44,0.745-8.254c0.715-5.639,1.863-11.53,3.661-17.331
			c3.511-11.625,9.255-22.934,15.99-32.011c3.36-4.542,6.868-8.588,10.265-12.036c3.447-3.392,6.668-6.3,9.542-8.511
			c0.712-0.561,1.39-1.095,2.029-1.6c0.646-0.498,1.284-0.924,1.864-1.345c1.176-0.822,2.156-1.572,3.006-2.111
			c1.693-1.087,2.624-1.685,2.624-1.685c0,0,1.093-0.746,3.176-1.902c1.042-0.577,2.272-1.361,3.794-2.096
			c1.51-0.755,3.192-1.687,5.146-2.517c7.683-3.537,18.852-7.422,31.601-8.833c1.583-0.239,3.2-0.323,4.826-0.45
			c0.813-0.058,1.629-0.134,2.45-0.178c0.821-0.02,1.646-0.039,2.474-0.059c0.827-0.021,1.657-0.042,2.488-0.063
			c0.828-0.013,1.634,0.035,2.454,0.047c1.634,0.006,3.278,0.144,4.924,0.268c6.585,0.519,13.187,1.864,19.428,3.663
			c12.521,3.584,23.471,9.154,31.212,13.831c5.556,3.376,9.425,6.256,12.346,8.465c2.918,2.22,4.82,3.874,6.293,5.101
			c4.3,3.681,7.968,7.127,11.348,10.367c3.37,3.247,6.471,6.289,9.397,9.378c2.939,3.08,5.823,6.144,8.611,9.544
			C416.915,206.807,419.739,210.484,422.431,214.893z"/>
		<path d="M384.389,333.894c3.11,0.494,5.707,0.714,7.965,0.368c2.201-0.403,4.153-1.302,5.902-3.146
			c1.929-1.961,7.349-8.241,11.506-14.596c4.222-6.309,7.29-12.5,7.29-12.501c0,0,0.76-1.548,1.937-3.947
			c1.105-2.432,2.589-5.74,3.873-9.312c0.704-1.763,1.26-3.624,1.848-5.417c0.612-1.786,1.051-3.566,1.494-5.188
			c0.214-0.813,0.418-1.589,0.61-2.317c0.158-0.736,0.307-1.423,0.441-2.05c0.259-1.255,0.469-2.268,0.607-2.942
			c0.418-2.51,0.029-4.609-0.956-6.626c-1.073-2.028-2.771-3.99-5.012-6.205c-2.719,1.731-4.818,3.083-6.317,4.562
			c-1.586,1.464-2.543,3.053-3.015,5.216c-0.138,0.584-0.344,1.46-0.6,2.547c-0.123,0.544-0.258,1.141-0.401,1.781
			c-0.172,0.632-0.354,1.306-0.547,2.012c-0.393,1.409-0.767,2.961-1.304,4.513c-0.512,1.56-0.98,3.184-1.593,4.718
			c-1.1,3.115-2.376,6.001-3.316,8.13c-1.007,2.099-1.656,3.454-1.656,3.454s-2.732,5.366-6.434,10.846
			c-3.648,5.52-8.368,10.991-9.961,12.786c-1.44,1.686-2.187,3.368-2.423,5.521C384.033,328.195,384.174,330.676,384.389,333.894z"
			/>
		<path d="M343.764,140.894c9.821-3.162,17.985-5.877,26.27-9.323c8.287-3.435,16.677-7.625,27.033-13.521
			c3.512-1.984,9.201-5.294,21.128-11.825c4.688-2.524,10.991-5.939,17.831-9.287c3.418-1.729,6.966-3.323,10.459-4.853
			c1.732-0.65,3.388-1.385,5.152-1.974c1.797-0.556,3.573-1.104,5.312-1.642c0.869-0.269,1.729-0.535,2.577-0.797
			c0.869-0.204,1.727-0.405,2.57-0.603c1.685-0.399,3.313-0.784,4.867-1.152c1.54-0.413,3.061-0.621,4.471-0.863
			c1.412-0.238,2.729-0.459,3.933-0.662c1.204-0.201,2.294-0.384,3.253-0.544c0.972-0.102,1.81-0.189,2.495-0.261
			c1.371-0.144,2.131-0.224,2.131-0.224s0.637-0.065,1.795-0.183c1.162-0.098,2.83-0.338,4.932-0.46
			c2.106-0.092,4.623-0.202,7.434-0.324c0.702-0.031,1.424-0.063,2.161-0.096c0.369-0.017,0.742-0.034,1.119-0.05
			c0.379,0.004,0.762,0.008,1.148,0.012c1.547,0.017,3.152,0.034,4.804,0.051c1.651,0.016,3.347,0.033,5.072,0.049
			c0.432,0.004,0.865,0.008,1.3,0.012l1.313,0.079c0.878,0.054,1.763,0.107,2.65,0.162c1.776,0.107,3.568,0.215,5.361,0.324
			c1.792,0.133,3.587,0.155,5.366,0.389c3.561,0.381,7.065,0.756,10.399,1.113c0.835,0.09,1.658,0.179,2.469,0.266
			c0.824,0.109,1.635,0.216,2.431,0.321c1.593,0.21,3.127,0.413,4.588,0.605c9.035,1.209,16.32,2.248,22.061,3.155
			c5.754,0.856,9.958,1.588,12.847,2.073c5.858,0.93,11.056,1.807,15.939,2.374c4.875,0.605,9.378,1.124,13.832,1.391
			c4.432,0.352,8.776,0.602,13.326,0.707c4.526,0.195,9.229,0.354,14.407,0.457c-4.492-2.498-8.665-4.799-12.78-6.861
			c-4.136-1.972-8.189-3.814-12.428-5.467c-4.254-1.567-8.667-3.098-13.523-4.409c-4.861-1.272-10.138-2.552-16.109-3.563
			c-2.949-0.526-7.249-1.298-13.103-2.187c-5.85-0.942-13.253-2.009-22.385-3.238c-1.476-0.197-3.025-0.404-4.634-0.618
			c-0.805-0.107-1.623-0.216-2.456-0.327c-0.849-0.093-1.712-0.187-2.586-0.281c-3.5-0.373-7.18-0.764-10.918-1.162
			c-1.862-0.239-3.773-0.269-5.665-0.405c-1.896-0.111-3.792-0.223-5.671-0.333c-0.939-0.055-1.874-0.109-2.804-0.163
			c-0.465-0.026-0.928-0.052-1.389-0.079c-0.464-0.004-0.927-0.008-1.387-0.012c-1.841-0.015-3.649-0.03-5.41-0.044
			c-1.761-0.013-3.474-0.025-5.123-0.038c-0.413-0.003-0.821-0.005-1.226-0.008c-0.405,0.019-0.807,0.037-1.204,0.055
			c-0.794,0.037-1.569,0.073-2.326,0.107c-3.024,0.143-5.733,0.27-8,0.377c-2.267,0.141-4.093,0.401-5.352,0.513
			c-1.259,0.133-1.95,0.206-1.95,0.206s-0.827,0.085-2.318,0.238c-0.745,0.077-1.656,0.171-2.713,0.28
			c-1.054,0.17-2.253,0.365-3.576,0.58c-1.324,0.219-2.772,0.458-4.325,0.715c-1.552,0.264-3.214,0.495-4.938,0.942
			c-1.728,0.403-3.539,0.826-5.414,1.264c-0.938,0.22-1.891,0.444-2.856,0.671c-0.955,0.29-1.923,0.584-2.9,0.881
			c-1.955,0.602-3.953,1.217-5.973,1.839c-2.022,0.672-4.078,1.552-6.128,2.333c-3.919,1.701-7.771,3.438-11.332,5.235
			c-7.206,3.525-13.621,7.012-18.41,9.618c-12.154,6.677-17.875,10.04-21.414,12.085c-10.416,6.07-18.154,11.512-25.136,17.224
			C357.164,127.478,350.961,133.497,343.764,140.894z"/>
		<path d="M393.096,170.894c10.129-1.926,18.567-3.349,27.236-5.395c8.678-2.009,17.582-4.615,28.783-8.259
			c3.033-0.985,7.593-2.441,13.272-4.092c2.842-0.817,5.961-1.698,9.312-2.566c1.482-0.375,2.99-0.757,4.521-1.145
			c1.636-0.388,3.296-0.797,4.982-1.166c3.37-0.764,6.839-1.474,10.387-2.099c7.091-1.27,14.523-2.208,22.012-2.42
			c7.448-0.199,15.077,0.39,21.554,2.653c3.249,1.102,6.034,2.725,8.298,4.696c2.229,2.006,3.876,4.464,5.012,7.38
			c2.223,6.094,1.287,10.477-3.243,15.164c-2.186,2.29-5.166,4.332-8.325,6.145c-3.185,1.812-6.635,3.382-10.163,4.77
			c-7.079,2.767-14.438,4.863-21.613,6.585c-14.388,3.42-28.062,5.442-39.694,6.964c-11.649,1.495-21.318,2.426-28.059,3.068
			c-6.758,0.615-10.565,0.962-10.565,0.962s-2.278,0.2-6.424,0.563c-2.088,0.19-4.646,0.424-7.623,0.696
			c-1.512,0.156-3.129,0.322-4.847,0.499c-1.751,0.201-3.585,0.413-5.75,0.777c-0.519,0.082-1.143,0.209-1.764,0.34
			c-0.612,0.138-1.607,0.39-2.079,0.579c-1.168,0.433-2.356,0.775-3.566,1.342c-1.208,0.59-2.447,1.083-3.668,1.892
			c-0.61,0.382-1.226,0.767-1.848,1.156c-0.595,0.468-1.194,0.94-1.801,1.417c-0.299,0.245-0.603,0.48-0.896,0.74l-0.85,0.851
			c-0.555,0.586-1.148,1.133-1.662,1.786c-0.509,0.659-1.014,1.332-1.51,2.017c-0.493,0.687-0.878,1.465-1.308,2.213
			c-1.606,3.052-2.638,6.531-2.894,9.996c-0.25,3.461,0.122,6.876,0.896,10.136c0.451,1.585,0.892,3.213,1.523,4.718
			c0.3,0.765,0.581,1.554,0.947,2.274c0.363,0.756,0.729,1.516,1.096,2.279c0.091,0.201,0.3,0.535,0.467,0.822
			c0.181,0.292,0.349,0.593,0.554,0.868c0.407,0.55,0.828,1.119,1.283,1.592l0.653,0.691l0.636,0.586
			c0.435,0.406,0.847,0.726,1.268,1.054c1.676,1.281,3.278,2.188,4.851,2.984c3.142,1.569,6.178,2.648,9.229,3.606
			c6.09,1.879,12.209,3.178,18.428,4.289c6.214,1.099,12.513,1.973,18.861,2.707c12.696,1.459,25.592,2.375,38.316,2.894
			c6.363,0.256,12.682,0.407,18.917,0.438c6.216,0.013,12.429-0.012,18.396-0.369c2.982-0.159,5.927-0.316,8.826-0.471
			c2.902-0.147,5.757-0.301,8.521-0.541c5.549-0.43,10.894-0.845,15.983-1.24c9.164-0.841,16.581-1.523,22.448-2.062
			c5.854-0.602,10.16-1.045,13.115-1.349c23.898-2.566,37.157-6.747,56.474-14.018c-20.468-2.628-34.241-3.819-58.043-1.505
			c-2.94,0.287-7.226,0.704-13.05,1.272c-5.821,0.525-13.181,1.189-22.271,2.009c-5.02,0.387-10.291,0.793-15.763,1.215
			c-2.744,0.238-5.511,0.385-8.318,0.526c-2.811,0.15-5.664,0.302-8.555,0.457c-5.776,0.347-11.639,0.366-17.686,0.357
			c-6.031-0.03-12.176-0.174-18.364-0.421c-12.375-0.5-24.941-1.39-37.149-2.787c-6.102-0.702-12.114-1.536-17.924-2.56
			c-5.797-1.026-11.434-2.243-16.507-3.81c-2.519-0.781-4.92-1.668-6.849-2.639c-0.957-0.477-1.799-0.985-2.335-1.4
			c-0.128-0.101-0.271-0.201-0.336-0.276l-0.134-0.113l-0.053-0.067c-0.054-0.062,0.037,0.067-0.053-0.081
			c-0.225-0.47-0.447-0.937-0.669-1.402c-0.26-0.484-0.414-0.974-0.605-1.456c-0.423-0.966-0.644-1.914-0.936-2.844
			c-0.426-1.85-0.587-3.582-0.491-5.113c0.11-1.53,0.546-2.795,1.114-3.919c0.544-1.14,1.413-2.068,2.42-2.926
			c0.265-0.205,0.522-0.415,0.772-0.631c0.303-0.182,0.603-0.363,0.899-0.542c0.541-0.406,1.278-0.652,1.898-0.982
			c0.637-0.319,1.397-0.507,2.061-0.777c0.443-0.17,0.401-0.125,0.719-0.211c0.318-0.064,0.622-0.133,1.028-0.196
			c1.529-0.26,3.236-0.469,4.83-0.651c1.633-0.169,3.171-0.329,4.608-0.478c2.927-0.27,5.443-0.502,7.497-0.692
			c4.141-0.368,6.416-0.569,6.416-0.569s3.837-0.346,10.648-0.958c6.821-0.644,16.641-1.579,28.594-3.102
			c11.951-1.557,26.041-3.612,41.35-7.235c7.651-1.834,15.61-4.072,23.707-7.228c4.046-1.591,8.128-3.427,12.179-5.725
			c4.033-2.327,8.103-5.015,11.794-8.81c1.859-1.839,3.57-4.055,5.042-6.502c1.5-2.434,2.583-5.301,3.238-8.229
			c0.688-2.951,0.722-6.003,0.418-8.876l-0.296-2.142l-0.475-2.046l-0.249-1.02l-0.316-0.966l-0.652-1.925
			c-1.906-5.039-5.112-9.87-9.217-13.519c-4.113-3.633-8.854-6.201-13.543-7.809c-4.704-1.646-9.385-2.547-13.929-3.056
			c-4.549-0.502-8.975-0.605-13.276-0.493c-8.6,0.248-16.722,1.299-24.353,2.663c-3.819,0.675-7.517,1.435-11.088,2.246
			c-1.79,0.394-3.539,0.825-5.267,1.236c-1.609,0.409-3.194,0.812-4.754,1.209c-3.517,0.917-6.772,1.844-9.733,2.705
			c-5.916,1.738-10.633,3.271-13.763,4.322c-11.557,3.889-20.237,7.918-28.118,12.435
			C408.254,159.405,401.156,164.434,393.096,170.894z"/>
	</g>
</g>
</svg>
