<?xml version="1.0" encoding="utf-8"?>
<!-- Generator: Adobe Illustrator 16.0.0, SVG Export Plug-In . SVG Version: 6.00 Build 0)  -->
<!DOCTYPE svg PUBLIC "-//W3C//DTD SVG 1.1//EN" "http://www.w3.org/Graphics/SVG/1.1/DTD/svg11.dtd">
<svg version="1.1" xmlns="http://www.w3.org/2000/svg" xmlns:xlink="http://www.w3.org/1999/xlink" x="0px" y="0px" width="640px"
	 height="640px" viewBox="0 0 640 640" enable-background="new 0 0 640 640" xml:space="preserve">
<g id="couleurs">
</g>
<g id="traits">
	<g>
		<path fill="#D1E2A8" d="M181.775,410.747l-12.017,7.314l-14.394,14.908l-1.814,3.992
			C161.257,426.166,172.123,417.259,181.775,410.747 M384.004,256.252c-0.071,0.61-0.329,1.218-0.634,1.751l1.785-1.36
			L384.004,256.252 M203.048,225.457c-6.844,0-13.24,2.399-13.24,2.399l5.253,13.657c6.335-4.111,13.544-8.37,21.326-12.245
			c-1.973-0.92-3.856-1.763-5.503-2.441C208.437,225.819,205.709,225.457,203.048,225.457 M346.6,223.743L346.6,223.743
			c-2.057,1.542-16.965,12.852-14.908,12.852l0,0C331.691,236.594,346.086,227.341,346.6,223.743L346.6,223.743 M492.971,157.192
			c3.253-10.716,16.402-43.795,55.144-45.517c0.802-0.036,1.604-0.053,2.392-0.053c44.61,0,65.023,56.086,65.023,56.086
			l17.771,43.043l-28.549-15.294l24.471,33.646l-34.328-0.736l-9.768-42.153l-1.778,27.384c1.313,6.085,2.23,12.711,2.807,19.91
			c3.085,38.555-9.253,54.492-9.253,54.492c4.112-11.31,1.027-38.555-7.711-38.555c-8.739,0-6.684,12.851-6.684,12.851
			s-0.304,0.38-1,0.38c-1.114,0-3.231-0.974-6.711-6.035c-5.654-8.225-17.993-21.077-17.993-21.077l3.6,35.986
			c0,0-16.45,6.168-41.64,11.309c-11.451,2.337-21.731,2.974-29.541,2.974c-7.472,0-12.683-0.583-14.486-0.82
			c0.12,0.5,0.229,0.823,0.326,0.926c0.17,0.17,0.293,0.292,0.293,0.292s-0.082-0.082-0.288-0.288
			c-0.002-0.001-0.003-0.003-0.005-0.005c-0.388-0.388-1.023-1.023-1.023-1.023s0.238,0.038,0.697,0.098
			c-1.162-4.841-3.268-26.315-3.268-26.315l-6.683,27.76c-2.379,0-18.233-3.369-28.413-8.623c-4.432,4.66-7.533,7.599-8.054,7.599
			c-0.012,0-0.022-0.002-0.031-0.005c-0.053-0.018-0.152-0.026-0.296-0.026c-4.03,0-42.443,6.745-44.429,7.737
			c-2.057,1.028,6.683,29.815,9.253,42.154c2.57,12.337,16.451,71.455,16.451,71.455s-23.647,9.768-29.303,10.282
			c-0.258,0.023-0.499,0.035-0.729,0.035c-4.799,0-3.596-5.131-8.01-14.944c-4.627-10.28-11.824-37.527-11.824-37.527
			s5.654-7.196,7.197-11.309c1.542-4.112-1.029-10.796-4.628-29.302c-3.599-18.507-10.28-38.042-10.28-38.042l31.872-12.853
			l11.359-8.654c-12.411,7.723-40.063,23.04-75.619,31.274c-18.32,6.456-37.238,8.589-54.23,8.589
			c-33.071,0-58.863-8.075-58.863-8.075s-2.57,20.049-0.515,34.958c2.057,14.907,11.31,37.526,5.141,38.554
			c-0.129,0.021-0.26,0.032-0.392,0.032c-6.202,0-16.059-23.165-16.059-23.165s-14.394,5.655-11.823,13.366
			c0.25,0.749,0.655,1.625,1.183,2.596c0.236-0.018,0.359-0.026,0.359-0.026l15.423,20.049c0,0,0.037,0.41,0.127,1.035
			c2.638,3.072,4.499,5.135,4.499,5.135s0.024,0.077,0.062,0.216c0.199-0.202,0.407-0.444,0.623-0.729
			c0.726-0.958,1.789-1.355,3.057-1.354c6.22,0.001,17.336,9.579,17.336,9.579l-5.994,3.648c2.676-1.283,5.031-2.045,6.853-2.045
			c0.792,0,1.482,0.144,2.055,0.452c8.911,4.799,13.537,18.508,13.537,18.508s4.884,20.439,12.153,26.932
			c1.565,0.83,3.333,1.468,5.325,1.855l0,0c10.11-2.057,14.224-7.54,14.224-7.54l9.423-25.36c0,0,15.502-11.593,20.529-11.593
			c0.44,0,0.8,0.089,1.062,0.282l0,0c0,0,21.591,13.881,31.872,25.704c10.282,11.823,8.227,26.731,8.227,26.731H198.033
			l-1.028,119.265h-7.322l-0.253,1.583l-46.437-1.583h-28.625l-0.813,3.238l-0.315-3.238H95.733l14.106-34.931L94.039,376.031
			c-12.334-3.63-10.129-30.968-10.129-30.968S71.058,246.876,70.543,244.82c0,0-7.71-6.683-1.027-31.873
			c3.41-12.852,10.031-16.068,17.679-16.068c7.342,0,15.631,2.965,22.933,3.217c0.253,0.009,0.517,0.013,0.793,0.013
			c15.982,0,69.635-14.408,69.635-14.408s3.726-0.771,9.766-0.771c6.04,0,14.395,0.771,23.648,3.856
			c12.374,4.125,25.437,18.82,32.735,28.107c26.358-9.55,54.303-18.026,60.277-18.026c0.979,0,1.367,0.227,1.062,0.715
			c-2.57,4.112-12.853,15.936-12.853,15.936s16.635,0.979,29.316,2.092c0.758-1.317,1.504-4.364,0.589-11.383
			c-1.542-11.823,4.666-22,4.666-22c7.334,17.333,23.284,23.918,53.85,27.692c2.191,0.271,4.322,0.396,6.388,0.396
			c25.721,0,41.43-19.422,41.43-19.422s4.427-1.181,9.92-1.443c1.034-1.371,2.141-2.753,3.325-4.148
			c4.237-4.991,8.61-9.282,13.078-12.937c3.321-3.781,10.758-9.405,27.345-14.805C487.855,158.662,490.473,157.875,492.971,157.192
			 M45.298,52.316c0,0,57.974-26.189,96.241-26.188c2.594,0,5.099,0.121,7.487,0.377c37.627,4.048,40.678,38.969,45.763,60.73
			c5.084,21.763-9.153,27.835-9.153,27.835l-10.678-31.884c0,0-3.051,3.543-23.897,7.086c-4.225,0.863-8.56,1.57-12.932,2.146
			c-2.044,0.314-4.353,0.573-6.773,0.788c-10.711,1.087-21.431,1.463-31.128,1.463c-21.616,0-38.15-1.866-38.15-1.866l-2.541-0.506
			c-2.173-0.895-3.988-1.309-5.495-1.308c-18.942,0.007,11.597,65.582,11.597,65.582s-5.085-1.518-10.679-5.567
			c-2.237-1.62-4.312-2.105-5.995-2.105c-2.526,0-4.174,1.093-4.174,1.093s-8.136-10.629-17.289-33.403
			c-9.151-22.773-5.592-44.03-5.592-44.03s-5.122,2.804-8.823,2.804c-1.514,0-2.791-0.469-3.381-1.792
			c-2.033-4.555,16.779-11.64,16.779-11.64S7.672,52.822,9.197,48.267c0.45-1.346,1.833-1.941,3.756-1.941
			c4.582,0.001,12.228,3.379,17.6,8.014c-3.052-5.061,11.695-17.207,11.695-17.207L45.298,52.316 M434.232,44.679
			c0.415-2.948,0.232-6.491-1.098-10.628c-3.312-10.301,6.016-24.024,19.877-24.025c5.509,0,11.731,2.167,18.164,7.575
			c22.619,19.021,4.112,27.246-11.31,33.414c-6.045,2.418-10.353,4.758-13.356,6.708c8.436,2.066,17.518,3.605,27.314,4.259
			c39.157,2.613,21.148,50.72,17.93,65.359c-2.001,9.104-10.225,13.151-16.933,13.151c-4.078,0-7.596-1.497-8.812-4.265
			c-2.43-5.524-9.433-6.201-12.72-6.201c-1.067,0-1.743,0.071-1.743,0.071s-5.566,14.983-20.049,15.506
			c-0.142,0.005-0.277,0.007-0.414,0.007c-12.097,0-4.208-20.001-2.05-24.994c-1.845,2.486-10.494,8.636-50.995,13.519
			c-3.153,0.38-6.2,0.559-9.143,0.559c-45.599,0-65.953-42.905-65.953-42.905c-25.574-56.368-4.271-70.475,23.463-70.475
			c23.454,0,51.507,10.092,59.684,13.249c12.245,4.727,26.851,12.449,44.741,18.55c0.181-0.245,0.364-0.509,0.549-0.79l-0.282-0.098
			C431.097,52.227,433.057,49.94,434.232,44.679 M640,0H0v640.108h640V0"/>
		<path fill="#ED6F87" d="M114.368,573.31h-1.129l0.315,3.238L114.368,573.31 M155.377,369.086
			c-13.123,2.045-45.53,6.93-58.101,7.335c-0.128,0.004-0.254,0.006-0.379,0.006c-1.03,0-1.981-0.138-2.858-0.396l15.801,162.349
			l0.287-0.711c0,0,24.161-57.405,36.499-88.249c1.754-4.385,4.132-8.545,6.925-12.458l1.814-3.992l14.394-14.908l12.017-7.314
			c3.104-2.095,6.086-3.942,8.793-5.525c3.064-2.056,6.022-3.833,8.668-5.103l5.994-3.648c0,0-11.116-9.578-17.336-9.579
			c-1.268-0.001-2.331,0.396-3.057,1.354c-0.216,0.285-0.424,0.527-0.623,0.729c0.298,1.095,1.449,5.981-1.686,5.981
			c-0.136,0-0.28-0.01-0.433-0.028C178.958,394.536,165.938,385.159,155.377,369.086 M164.104,362.541c0,0-0.123,0.009-0.359,0.026
			c3.205,5.89,10.937,15.267,15.909,21.058c-0.09-0.625-0.127-1.035-0.127-1.035L164.104,362.541"/>
		<path fill="#FFFFFF" d="M190.32,184.93c-6.04,0-9.766,0.771-9.766,0.771s-53.652,14.408-69.635,14.408
			c-0.276,0-0.54-0.004-0.793-0.013c-7.302-0.251-15.591-3.217-22.933-3.217c-7.647,0-14.269,3.217-17.679,16.068
			c-6.683,25.189,1.027,31.873,1.027,31.873c0.515,2.056,13.367,100.243,13.367,100.243s-2.205,27.338,10.129,30.968
			c0.877,0.259,1.828,0.396,2.858,0.396c0.125,0,0.251-0.002,0.379-0.006c12.57-0.405,44.978-5.29,58.101-7.335
			c-3.276-4.987-6.316-10.617-8.751-16.826c-10.281-26.218-5.141-63.745-5.141-63.745s-4.625,0.889-7.91,0.889
			c-2.301,0-3.944-0.436-2.886-1.917c2.571-3.599,10.796-9.768,10.796-9.768l8.738-5.141c0,0,0-24.19,5.323-24.191
			c0.108,0,0.219,0.01,0.332,0.03c5.655,1.028,12.852,12.852,12.852,12.852s10.392-9.411,26.33-19.757l-5.253-13.657
			c0,0,6.396-2.399,13.24-2.399c2.661,0,5.389,0.362,7.836,1.37c1.646,0.678,3.53,1.521,5.503,2.441
			c4.346-2.164,8.87-4.208,13.52-6.04c5.361-2.112,11.04-4.249,16.798-6.335c-7.299-9.287-20.361-23.982-32.735-28.107
			C204.715,185.702,196.36,184.931,190.32,184.93"/>
		<path fill="#ED6F87" d="M133.261,199.067l28.273,19.535c0,0,12.337-12.337,19.534-27.246s-3.084-18.507-3.084-18.507
			S149.196,197.011,133.261,199.067z"/>
		<path fill="#ED6F87" d="M131.203,200.096l-7.196,28.273c0,0-34.443-8.225-44.724-19.02c-10.281-10.795,1.028-23.648,1.028-23.648
			S97.276,206.265,131.203,200.096z"/>
		<path fill="#F4A6BA" d="M310.27,82.663c-4.739,0-11.773-14.307-11.174-19.77c0.286-2.616,0.86-14.301,7.628-14.301
			c2.462,0,5.743,1.545,10.128,5.635c14.631,13.645,24.053,35.738,29.659,35.738c0.693,0,1.328-0.338,1.907-1.072
			c4.153-5.261,4.62-22.153,9.805-22.153c1.384,0,3.104,1.203,5.321,4.153c8.397,11.173,11.77,24.896,16.8,24.896
			c1.272,0,2.65-0.877,4.244-2.896c5.818-7.373,19.146-18.009,26.01-18.009c2.445,0,4.068,1.349,4.241,4.676
			c0.621,11.967-4.627,17.388,2.001,17.388c0.388,0,0.814-0.019,1.287-0.055c8.549-0.667,5.918,0.667,13.811-5.333
			c5.182-3.94,12.918-8.744,19.108-8.744c3.235,0,6.048,1.312,7.854,4.744c5.262,10,16.198,0,25.647,12
			c3.144,3.991-2.424,23.967-6.985,23.967c-0.787,0-1.543-0.594-2.221-1.967c-3.745-7.591-18.798-16.945-25.704-16.946
			c-1.585,0-2.74,0.493-3.231,1.613c-1.821,4.154-14.99,10.544-25.976,10.544c-4.884,0-9.335-1.262-12.168-4.544
			c-2.945-3.413-5.286-4.573-7.473-4.574c-4.646-0.001-8.599,5.24-16.201,5.24c-9.938,0-15.719-16.855-21.499-16.856
			c-0.723,0-1.444,0.263-2.176,0.856c-5.262,4.267-7.155,13.227-12.754,13.227c-1.399,0-3.03-0.56-5.003-1.893
			c-9.194-6.214-24.676-26.333-30.463-26.333c-0.421,0-0.79,0.106-1.103,0.333C311.179,82.525,310.735,82.663,310.27,82.663
			 M326.405,21.316c-27.733,0-49.037,14.106-23.463,70.475c0,0,20.354,42.905,65.953,42.905c2.942,0,5.989-0.178,9.143-0.559
			c40.501-4.883,49.15-11.033,50.995-13.519c-2.158,4.992-10.047,24.994,2.05,24.994c0.137,0,0.272-0.002,0.414-0.007
			c14.482-0.523,20.049-15.506,20.049-15.506s0.676-0.071,1.743-0.071c3.287,0,10.29,0.677,12.72,6.201
			c1.217,2.768,4.734,4.265,8.812,4.265c6.708,0,14.932-4.048,16.933-13.151c3.219-14.639,21.228-62.746-17.93-65.359
			c-9.797-0.654-18.879-2.193-27.314-4.259c-4.658,3.026-6.178,5.116-6.178,5.116l-11.825-7.197c0,0,1.083-0.843,2.323-2.527
			c-17.891-6.101-32.496-13.823-44.741-18.55C377.912,31.409,349.859,21.316,326.405,21.316"/>
		<path fill="#F4A6BA" d="M453.012,10.026c-13.861,0.001-23.188,13.725-19.877,24.025c1.33,4.137,1.513,7.68,1.098,10.628
			c0.504-2.253,0.864-5.053,0.864-8.453c0-8.355,3.261-14.537,6.043-14.537c0.991,0,1.923,0.785,2.623,2.537
			c2.19,5.475-0.115,13.2,2.684,13.2c0.608,0,1.459-0.366,2.65-1.2c4.1-2.871,8.2-5.236,10.129-5.236
			c1.207,0,1.563,0.927,0.537,3.236c-1.143,2.571-0.327,2.938,0.927,2.938c0.251,0,0.52-0.015,0.793-0.029s0.553-0.029,0.825-0.029
			c1.269,0,2.389,0.32,2.122,2.453c-0.667,5.333-4,9.333-4,9.333l-14,8.667l-15.051-5.235c-0.185,0.281-0.368,0.545-0.549,0.79
			c-1.24,1.685-2.323,2.527-2.323,2.527l11.825,7.197c0,0,1.52-2.09,6.178-5.116c3.004-1.95,7.312-4.29,13.356-6.708
			c15.422-6.168,33.929-14.394,11.31-33.414C464.743,12.192,458.521,10.026,453.012,10.026"/>
		<path fill="#FFFFFF" d="M357.395,290.058l16.449,60.661l70.942,0.514v-29.816l-13.88-47.808
			C430.906,273.607,354.824,279.262,357.395,290.058z"/>
		<path fill="#ED6F87" d="M485.398,452.504l-60.146,6.682l-4.112-6.682l-86.879,1.027l-7.71-78.139c0,0,16.964-13.88,18.506-17.992
			c1.543-4.112,1.543-7.711,1.543-7.711h102.813l25.189,1.542L485.398,452.504z"/>
		<path fill="#FFFFFF" d="M442.73,317.303c0,0-3.599,84.307-4.113,85.85c-0.514,1.542-0.514,15.422,14.395,17.992
			s15.422-4.626,17.479-13.88c2.057-9.253,3.598-32.899,3.598-32.899l0.515-23.134C474.603,351.232,443.758,332.726,442.73,317.303z
			"/>
		<path fill="#FFFFFF" d="M329.763,184.227c0,0-6.208,10.177-4.666,22c0.915,7.019,0.169,10.066-0.589,11.383
			c5.703,0.5,10.605,1.028,12.838,1.507c7.197,1.542,11.31,3.084,9.254,4.626l0,0c-0.514,3.599-14.908,12.852-14.908,12.852
			c2.056,0,48.836,15.422,51.406,17.479c0.789,0.631,0.997,1.407,0.906,2.179l1.151,0.391l-1.785,1.36
			c-0.567,0.993-1.3,1.725-1.3,1.725s-2.511,1.826-7.147,4.711l-11.359,8.654l-31.872,12.853c0,0,6.682,19.534,10.28,38.042
			c3.599,18.506,6.17,25.189,4.628,29.302c-1.543,4.112-7.197,11.309-7.197,11.309s7.197,27.247,11.824,37.527
			c4.414,9.813,3.211,14.944,8.01,14.944c0.229,0,0.471-0.012,0.729-0.035c5.655-0.515,29.303-10.282,29.303-10.282
			s-13.881-59.118-16.451-71.455c-2.57-12.339-11.31-41.126-9.253-42.154c1.985-0.993,40.398-7.737,44.429-7.737
			c0.144,0,0.243,0.008,0.296,0.026c0.009,0.003,0.02,0.005,0.031,0.005c0.521,0,3.622-2.939,8.054-7.599
			c-5.22-2.694-8.947-5.884-8.6-9.37c0.476-4.761,3.084-16.45,6.169-23.647c2.802-6.54,9.714-7.252,12.591-7.252
			c0.801,0,1.289,0.055,1.289,0.055s-5.652-20.775,13.527-46.173c-5.493,0.263-9.92,1.443-9.92,1.443s-15.709,19.422-41.43,19.422
			c-2.065,0-4.196-0.125-6.388-0.396C353.047,208.145,337.097,201.56,329.763,184.227"/>
		<path fill="#ED6F87" d="M566.622,323.129c0,0,73.378,23.99,73.378,55.521c0,31.529,0,194.66,0,194.66H499.449l4.113-159.705
			L566.622,323.129z"/>
		<path fill="#ED6F87" d="M462.265,344.548c0,0,16.964,61.175,19.535,94.589c2.569,33.415-1.029,96.132-5.142,110.012
			c0,0-14.908,1.542-25.189,4.626c-10.281,3.085-18.506,7.196-19.533,11.31c0,0,6.168,0,17.992,1.028
			c11.822,1.028,34.956,1.028,34.956,1.028s6.683-3.085,11.823-4.113c5.141-1.027,9.768-3.598,9.768-3.598
			s7.711-29.302,10.795-59.119c3.085-29.814,0.515-44.208,0.515-44.208s-15.422-2.571-18.507-21.077
			c-3.084-18.507-6.168-51.922-6.168-51.922l-2.057-22.619L462.265,344.548z"/>
		<path fill="#FFFFFF" d="M481.8,489.002l36.498,4.112l-8.738,66.229l-32.388,9.34l-45.236-3.6c0,0,1.541-11.31,12.851-11.823
			s28.274-5.141,28.274-5.141S481.8,538.868,481.8,489.002z"/>
		<path fill="#FFFFFF" d="M546.059,522.931l-10.796,33.415c0,0-12.338-0.515-26.731,3.084c-14.395,3.598-34.443,8.738-32.901,13.88
			c1.542,5.141,5.655,3.599,9.254,3.085s9.253-2.571,9.253-2.571s-10.795,4.113-4.112,6.169c6.683,2.057,14.394-5.654,14.394-5.654
			s-1.542,8.224,3.599,8.739c5.142,0.514,10.281-7.196,10.281-7.196s1.543,6.681,6.684,6.168c5.141-0.514,6.683-6.684,6.683-6.684
			s23.646,0.516,28.788-1.027c5.141-1.542,18.506-47.809,18.506-47.809L546.059,522.931z"/>
		<path fill="#ED6F87" d="M487.454,358.428c0,0,7.196,50.894,7.71,60.146c0.515,9.254,2.571,30.331,18.508,36.499
			c15.936,6.168,40.611,4.112,40.611,4.112l-11.31,64.259l35.984,3.085c0,0,13.366-58.091,14.907-98.701
			c1.543-40.612,1.029-70.428-11.309-84.308c-12.337-13.88-16.964-16.965-16.964-16.965s-17.992,28.274-43.696,32.386
			C496.193,363.055,487.454,358.428,487.454,358.428z"/>
		<path fill="#F4A6BA" d="M252.071,301.786c-15.253,0-28.642-0.893-28.642-0.893s-7-8-3-15s-2-11-11-12s-4-11,1-18s-9-11-9-11l56-29
			c0,0,28.3,6.351,22,20c-5.433,11.771,4.055,22.357,16.142,22.357c1.263,0,2.554-0.115,3.858-0.357
			c1.958-0.362,3.749-0.531,5.395-0.53c21.043,0.003,17.605,27.53,17.605,27.53s-16,9-35,14
			C278.793,301.166,264.785,301.786,252.071,301.786 M306.981,198.867c-5.975,0-33.919,8.476-60.277,18.026
			c-5.758,2.086-11.437,4.223-16.798,6.335c-4.649,1.832-9.174,3.876-13.52,6.04c-7.782,3.875-14.991,8.134-21.326,12.245
			c-15.938,10.346-26.33,19.757-26.33,19.757s-7.196-11.824-12.852-12.852c-0.113-0.021-0.224-0.03-0.332-0.03
			c-5.323,0-5.323,24.191-5.323,24.191l-8.738,5.141c0,0-8.225,6.169-10.796,9.768c-1.059,1.482,0.585,1.917,2.886,1.917
			c3.285,0,7.91-0.889,7.91-0.889s-5.141,37.527,5.141,63.745c2.435,6.209,5.475,11.839,8.751,16.826
			c10.561,16.072,23.581,25.449,26.72,25.842c0.152,0.019,0.297,0.028,0.433,0.028c3.135,0,1.983-4.887,1.686-5.981
			c-0.037-0.139-0.062-0.216-0.062-0.216s-1.861-2.062-4.499-5.135c-4.973-5.791-12.704-15.168-15.909-21.058
			c-0.527-0.971-0.933-1.847-1.183-2.596c-2.57-7.711,11.823-13.366,11.823-13.366s9.856,23.165,16.059,23.165
			c0.132,0,0.263-0.011,0.392-0.032c6.169-1.027-3.084-23.646-5.141-38.554c-2.056-14.909,0.515-34.958,0.515-34.958
			s25.792,8.075,58.863,8.075c16.992,0,35.91-2.133,54.23-8.589c35.556-8.234,63.208-23.551,75.619-31.274
			c4.637-2.885,7.147-4.711,7.147-4.711s0.732-0.732,1.3-1.725c0.305-0.533,0.562-1.141,0.634-1.751
			c0.091-0.772-0.117-1.548-0.906-2.179c-2.57-2.056-49.351-17.479-51.406-17.479l0,0c-2.057,0,12.852-11.309,14.908-12.852l0,0
			c2.056-1.542-2.057-3.084-9.254-4.626c-2.232-0.479-7.135-1.006-12.838-1.507c-12.682-1.113-29.316-2.092-29.316-2.092
			s10.282-11.824,12.853-15.936C308.349,199.094,307.961,198.867,306.981,198.867"/>
		<path fill="#F4A6BA" d="M233.834,443.965c1.373,1.226,2.83,1.954,4.355,1.954c0.321,0,0.644-0.032,0.97-0.099
			C237.167,445.433,235.399,444.795,233.834,443.965 M284.396,401.61c3.256,2.4,7.369,11.311,7.369,11.311l-20.563,38.385h-50.721
			c0,0-8.911-16.452-26.731-17.822c-3.034-0.233-6.147-0.308-9.194-0.308c-2.682,0-5.312,0.058-7.791,0.115
			s-4.809,0.115-6.889,0.115c-7.368,0-11.612-0.722-8.341-4.721c0,0,15.548-14.417,29.033-23.464
			c-2.707,1.583-5.688,3.431-8.793,5.525c-9.652,6.513-20.519,15.419-28.225,26.215c-2.793,3.913-5.171,8.073-6.925,12.458
			c-12.338,30.844-36.499,88.249-36.499,88.249l-0.287,0.711L95.733,573.31h17.506h1.129h28.625l-41.563-1.417l35-96
			c0,0-9.429,63.422,14,69c21,5,43,5,43,5l-3.747,23.417h7.322l1.028-119.265h126.462c0,0,2.056-14.908-8.227-26.731
			C305.987,415.491,284.396,401.61,284.396,401.61"/>
		<path fill="#CEBE93" d="M206.089,398.074c-1.821,0-4.177,0.762-6.853,2.045l-4.68,2.849c5.176-2.825,8.716-4.363,9.131-4.441
			c0.305-0.057,0.611-0.085,0.92-0.085c8.016,0,17.073,18.593,17.073,18.593s-0.82,20.057,12.153,26.932
			c-7.27-6.492-12.153-26.932-12.153-26.932s-4.626-13.709-13.537-18.508C207.571,398.217,206.881,398.074,206.089,398.074"/>
		<path fill="#EB5D79" d="M199.236,400.119c-2.646,1.27-5.604,3.047-8.668,5.103c1.411-0.824,2.746-1.576,3.988-2.254
			L199.236,400.119"/>
		<path fill="#CEBE93" d="M283.335,401.328c-5.027,0-20.529,11.593-20.529,11.593l-9.423,25.36c0,0-4.113,5.483-14.224,7.54l0,0l0,0
			c0.87,0.169,1.709,0.25,2.521,0.25c16.456,0,21.126-33.15,21.126-33.15l21.591-11.311l0,0l0,0
			C284.135,401.417,283.775,401.328,283.335,401.328"/>
		<path fill="#F08AA2" d="M204.607,398.441c-0.309,0-0.615,0.028-0.92,0.085c-0.415,0.078-3.955,1.616-9.131,4.441
			c-1.242,0.678-2.577,1.43-3.988,2.254c-13.485,9.047-29.033,23.464-29.033,23.464c-3.271,3.999,0.973,4.721,8.341,4.721
			c2.08,0,4.409-0.058,6.889-0.115s5.109-0.115,7.791-0.115c3.047,0,6.16,0.074,9.194,0.308c17.82,1.37,26.731,17.822,26.731,17.822
			h50.721l20.563-38.385c0,0-4.113-8.91-7.369-11.311l0,0l-21.591,11.311c0,0-4.67,33.15-21.126,33.15
			c-0.812,0-1.65-0.081-2.521-0.25l0,0c-0.326,0.066-0.648,0.099-0.97,0.099c-1.525,0-2.982-0.729-4.355-1.954
			c-12.974-6.875-12.153-26.932-12.153-26.932S212.623,398.441,204.607,398.441"/>
		<path d="M316.346,111.161c-2.254,4.815-3.721,9.099-4.747,13.704c-0.998,4.613-1.534,9.597-1.277,15.96
			c0.117,2.152,0.201,5.672,1.318,12.927c1.227,7.67,3.851,18.07,9.598,28.154c2.835,5.038,6.558,9.875,10.891,14.057
			c4.335,4.177,9.235,7.736,14.283,10.436c1.248,0.701,2.553,1.24,3.804,1.853c0.629,0.296,1.255,0.59,1.876,0.882
			c0.624,0.282,1.269,0.49,1.895,0.735c1.259,0.469,2.497,0.931,3.71,1.383c1.216,0.438,2.444,0.725,3.625,1.081
			c1.185,0.331,2.34,0.679,3.467,0.969c1.128,0.245,2.225,0.483,3.286,0.713c2.109,0.504,4.131,0.782,5.965,1.081
			c1.827,0.335,3.524,0.445,5.001,0.609c0.74,0.072,1.429,0.139,2.063,0.201c0.641,0.027,1.226,0.051,1.753,0.073
			c1.053,0.042,1.872,0.075,2.428,0.097c0.555,0.027,0.849,0.022,0.849,0.022c0,0,0.983-0.021,2.773-0.06
			c0.895-0.014,1.99-0.031,3.269-0.17c1.276-0.137,2.737-0.178,4.344-0.476c0.804-0.127,1.647-0.26,2.527-0.399
			c0.879-0.146,1.781-0.391,2.724-0.596c0.942-0.211,1.918-0.43,2.902-0.756c0.985-0.314,2.018-0.584,3.046-0.965
			c4.142-1.435,8.559-3.596,12.771-6.54c4.207-2.949,8.194-6.667,11.627-10.906c3.422-4.25,6.319-8.981,8.611-13.855
			c1.152-2.421,2.173-4.925,3.058-7.286l0.32-0.839l0.15-0.387l0.088-0.205l0.01-0.023l0.004-0.012
			c0.044,0.017,0.013-0.003-0.296-0.161c-0.168-0.088-0.576-0.298-0.545-0.288l0.105,0.043l0.207,0.09l0.405,0.194l0.166,0.085
			l0.006-0.003l0.025-0.04l0.116-0.138l0.182-0.193l0.18-0.2l0.269-0.236l0.531-0.477c0.424-0.332,0.845-0.663,1.263-0.991
			c1.769-1.328,3.699-2.62,5.562-3.907c1.867-1.295,3.692-2.555,5.415-3.875c1.966-1.511,3.739-2.94,5.268-4.467
			c0.776-0.714,1.467-1.541,2.129-2.262c0.613-0.801,1.277-1.592,1.707-2.279c1.875-2.799,2.924-5.095,3.562-6.731
			c1.265-3.298,1.923-6.699,1.271-10.186c-0.331-1.723-1.07-3.45-2.203-4.829c-1.124-1.389-2.576-2.352-3.987-2.913
			c-1.419-0.57-2.816-0.812-4.134-0.846c-1.327-0.068-2.585,0.089-3.821,0.286c-2.461,0.463-4.805,1.303-7.221,2.395
			c2.646,0.165,5.03,0.484,7.164,1.001c2.103,0.541,4.026,1.292,5.214,2.34c1.204,1.066,1.551,2.054,1.63,3.632
			c0.056,1.585-0.396,3.757-1.372,6.173c-0.479,1.191-1.291,2.961-2.783,5.174c-1.304,2.024-3.716,4.359-7.302,7.077
			c-1.551,1.189-3.292,2.391-5.119,3.657c-1.835,1.269-3.784,2.565-5.845,4.108c-0.516,0.388-1.049,0.823-1.576,1.24l-0.827,0.737
			l-0.413,0.373l-0.446,0.471l-0.441,0.482c-0.146,0.16-0.287,0.307-0.465,0.575c-0.314,0.465-0.688,1.007-0.891,1.453l-0.281,0.646
			l-0.188,0.479l-0.346,0.905c-0.867,2.311-1.765,4.505-2.805,6.699c-2.055,4.375-4.619,8.544-7.589,12.242
			c-2.983,3.685-6.392,6.857-9.96,9.368c-3.576,2.503-7.308,4.337-10.848,5.565c-0.877,0.328-1.767,0.554-2.609,0.828
			c-0.84,0.286-1.685,0.471-2.499,0.653c-0.815,0.176-1.59,0.395-2.355,0.521c-0.767,0.121-1.502,0.237-2.202,0.348
			c-1.393,0.269-2.693,0.296-3.812,0.421c-1.121,0.129-2.098,0.142-2.896,0.154c-1.593,0.038-2.468,0.059-2.468,0.059
			s-0.262,0.004-0.762-0.022c-0.5-0.021-1.236-0.052-2.185-0.092c-0.474-0.019-1-0.041-1.576-0.064
			c-0.577-0.058-1.203-0.121-1.876-0.188c-1.345-0.153-2.878-0.246-4.562-0.562c-1.686-0.279-3.535-0.528-5.498-1.003
			c-0.984-0.214-2.001-0.435-3.048-0.663c-1.028-0.268-2.065-0.586-3.141-0.886c-1.064-0.324-2.186-0.58-3.275-0.976
			c-1.085-0.407-2.191-0.822-3.317-1.244c-0.56-0.219-1.143-0.402-1.695-0.655c-0.549-0.26-1.103-0.523-1.659-0.787
			c-1.104-0.546-2.271-1.019-3.366-1.639c-4.445-2.384-8.699-5.492-12.47-9.122c-3.766-3.637-7.013-7.84-9.513-12.292
			c-5.07-8.892-7.508-18.346-8.645-25.432c-1.041-6.701-1.14-10.003-1.268-12.011c-0.3-5.948-0.502-10.636-0.864-15.146
			C317.137,120.78,316.61,116.45,316.346,111.161z"/>
		<path fill="#F4A6BA" d="M552.736,168.18c-0.035,0-0.07,0.001-0.105,0.004c0.391,0.223,0.777,0.448,1.16,0.676
			c-0.268-0.365-0.501-0.586-0.693-0.634C552.975,168.195,552.854,168.18,552.736,168.18 M520.429,150.808c0,0,7.333-28,12-28.667
			c0.052-0.007,0.102-0.011,0.149-0.011c2.131,0,1.51,7.013,0.55,14.027s-2.259,14.027-1.482,14.027
			c0.034,0,0.073-0.014,0.117-0.043c1.971-1.313,16.89-23.347,20.514-23.347c0.054,0,0.104,0.004,0.152,0.014
			c3.334,0.667-9.332,24-6.666,24.667c0.06,0.015,0.127,0.022,0.201,0.022c3.283,0,21.132-14.022,21.132-14.022l0,0l0,0
			c0,0-9.334,18.667-6.667,20c0.207,0.104,0.483,0.151,0.815,0.151c1.734,0,5.023-1.285,8.271-2.57
			c3.247-1.285,6.452-2.57,8.021-2.57c0.435,0,0.743,0.099,0.893,0.323c1.334,2-6.666,12-5.333,14
			c0.063,0.095,0.028,0.141-0.098,0.141c-1.192,0-10.532-4.07-21.236-8.141c-10.703-4.07-22.771-8.141-29.418-8.141
			C521.643,150.667,521.002,150.713,520.429,150.808 M550.506,111.623c-0.787,0-1.59,0.018-2.392,0.053
			c-38.741,1.722-51.891,34.801-55.144,45.517c9.879-2.702,17.881-3.791,25.212-3.791c10.085,0,18.899,2.062,29.582,4.825
			c38.666,10,35.333,48,35.333,48l-12-24c0,0-0.301,0.421-0.739,1.226c6.198,8.092,10.379,18.051,12.99,30.148l1.778-27.384
			l9.768,42.153l34.328,0.736l-24.471-33.646l28.549,15.294l-17.771-43.043C615.529,167.709,595.116,111.623,550.506,111.623"/>
		<path fill="#F4A6BA" d="M455.062,285.94c0.002,0.001,0.003,0.003,0.005,0.005c0.206,0.206,0.288,0.288,0.288,0.288
			S455.232,286.111,455.062,285.94 M454.039,284.917c0,0,0.636,0.636,1.023,1.023c-0.097-0.103-0.206-0.425-0.326-0.926
			C454.277,284.955,454.039,284.917,454.039,284.917 M472.391,241.252c-10.846,0-23.046-0.678-36.628-2.359
			c0,0,3.292-24.143,6.392-24.143c0.317,0,0.632,0.252,0.941,0.809c3.08,5.545,7.301,19.63,8.448,19.63
			c0.095,0,0.168-0.095,0.219-0.297c0.63-2.521,2.452-18.16,6.032-18.16c0.205,0,0.417,0.052,0.634,0.16
			c3.778,1.89,3.987,12.109,6.811,12.109c0.165,0,0.339-0.035,0.523-0.109c3.334-1.333,11.332-9.333,14.666-10.667
			c0.133-0.053,0.252-0.079,0.356-0.079c2.514,0-2.862,14.745,0.978,14.745c4,0,14.666-16,19.333-16s-0.666,13.333,2.667,14
			c0.071,0.014,0.146,0.021,0.227,0.021c1.794,0,5.776-3.51,9.606-7.021c3.829-3.51,7.506-7.021,8.69-7.021
			c0.053,0,0.1,0.007,0.143,0.021c2,0.667,2.666,12.667,6,12.667s10.667,0,10.667,0S517.441,241.252,472.391,241.252
			 M514.431,164.893c-4.667,0-16,7.333-22.666,11.333c-0.803,0.481-1.344,0.692-1.689,0.692c-1.233,0,0.017-2.678,0.808-5.357
			s1.122-5.357-1.946-5.357c-0.159,0-0.327,0.007-0.506,0.022c-8,0.667-33.333,12.667-33.333,12.667s0.236-1.775,2.655-4.528
			c-4.468,3.655-8.841,7.945-13.078,12.937c-1.185,1.395-2.291,2.777-3.325,4.148c-19.18,25.398-13.527,46.173-13.527,46.173
			s-0.488-0.055-1.289-0.055c-2.877,0-9.789,0.712-12.591,7.252c-3.085,7.197-5.693,18.886-6.169,23.647
			c-0.348,3.485,3.38,6.675,8.6,9.37c10.18,5.254,26.034,8.623,28.413,8.623l6.683-27.76c0,0,2.105,21.474,3.268,26.315
			c1.804,0.236,7.015,0.82,14.486,0.82c7.81,0,18.09-0.637,29.541-2.974c25.189-5.141,41.64-11.309,41.64-11.309l-3.6-35.986
			c0,0,12.339,12.853,17.993,21.077c3.479,5.061,5.597,6.035,6.711,6.035c0.696,0,1-0.38,1-0.38s-2.056-12.851,6.684-12.851
			c8.738,0,11.823,27.246,7.711,38.555c0,0,12.338-15.937,9.253-54.492c-0.576-7.198-1.493-13.825-2.807-19.91
			c-2.611-12.097-6.792-22.056-12.99-30.148c-1.022,1.877-2.795,5.843-3.261,11.441c-0.07,0.841-0.251,1.218-0.521,1.218
			c-2.115,0-9.721-23.076-12.786-27.251c-0.383-0.228-0.77-0.453-1.16-0.676c-2.36,0.187-3.613,6.604-4.866,15.375
			c-0.203,1.421-0.684,2.022-1.353,2.022c-3.73,0-13.314-18.689-13.314-18.689s-4.667,5.333-9.333,14.667
			c-0.71,1.421-1.312,2.022-1.839,2.022C518.99,183.582,518.387,164.893,514.431,164.893"/>
		<path d="M431.42,281.319c-0.431,5.299-0.306,9.826,0.341,14.498c0.675,4.67,1.911,9.525,4.357,15.398
			c0.858,1.975,2.156,5.245,5.692,11.662c2.036,3.555,4.531,7.682,7.791,11.875c3.242,4.195,7.162,8.511,11.786,12.43
			c4.612,3.925,9.94,7.42,15.665,10.083c5.746,2.625,11.843,4.35,17.751,5.32c1.482,0.208,2.948,0.441,4.396,0.615
			c1.452,0.091,2.885,0.182,4.294,0.271c0.704,0.032,1.404,0.11,2.094,0.103c0.69-0.01,1.375-0.021,2.052-0.03
			c1.354-0.022,2.68-0.044,3.976-0.065c5.188-0.375,9.896-0.979,13.759-2.047c0.967-0.255,1.901-0.439,2.761-0.722
			c0.857-0.285,1.667-0.555,2.424-0.806c0.754-0.261,1.468-0.471,2.104-0.725c0.632-0.267,1.209-0.51,1.729-0.729
			c1.038-0.44,1.845-0.783,2.393-1.017c0.53-0.27,0.81-0.411,0.81-0.411s0.747-0.387,2.122-1.099
			c0.344-0.179,0.727-0.378,1.146-0.596c0.415-0.229,0.846-0.514,1.321-0.802c0.935-0.601,2.052-1.22,3.203-2.041
			c4.652-3.189,10.757-8.481,16.037-15.878c5.362-7.331,9.878-16.593,12.941-26.396c1.554-4.9,2.773-9.928,3.642-14.955
			c0.212-1.26,0.41-2.516,0.574-3.784c0.084-0.633,0.158-1.269,0.226-1.919l0.049-0.499l0.012-0.145l0.006-0.072
			c0.661-0.801-5.768,6.823-3.032,3.594l0.027-0.007l0.219-0.055l0.438-0.109l0.781-0.213l1.724-0.475
			c0.465-0.335,0.818-0.843,1.226-1.264l0.561-0.694l0.262-0.328l0.16-0.217c0.208-0.281,0.412-0.562,0.603-0.848
			c0.772-1.141,1.47-2.305,2.057-3.523c1.221-2.451,1.992-5.095,2.32-7.278c0.199-1.085,0.214-2.067,0.273-2.835
			c-0.011-0.775-0.019-1.35-0.022-1.663c-0.139-2.724-0.551-4.97-0.993-7.016c-0.448-2.033-0.973-3.807-1.498-5.366
			c-1.063-3.114-2.165-5.357-3.056-6.882c-0.903-1.539-1.909-2.975-3.199-4.253c-1.28-1.263-2.825-2.421-4.766-3.05
			c-0.945-0.331-1.989-0.473-2.987-0.475c-1.01,0.03-1.957,0.177-2.88,0.519c-1.864,0.643-3.271,1.956-4.165,3.231
			c-1.733,2.633-2.09,5.196-2.215,7.674c-0.082,2.489,0.188,4.972,0.771,7.565c0.695-2.552,1.561-4.794,2.533-6.773
			c0.958-1.955,2.139-3.713,3.357-4.612c0.615-0.421,1.128-0.59,1.582-0.568c0.495,0.009,0.927,0.113,1.377,0.394
			c0.938,0.492,2.381,2.069,3.636,4.34c0.634,1.108,1.499,2.872,2.38,5.472c0.434,1.3,0.878,2.807,1.252,4.524
			c0.37,1.701,0.711,3.67,0.805,5.654c0.003,0.199,0.008,0.563,0.016,1.056c-0.054,0.494-0.042,1.116-0.183,1.828
			c-0.216,1.42-0.723,3.21-1.591,4.954v0c-0.413,0.864-0.922,1.706-1.469,2.517c-0.136,0.206-0.279,0.401-0.424,0.596l-0.103,0.141
			l-0.015,0.02l0.002-0.002l0.012-0.007h0.001c0.003-0.001,0.02-0.005-0.083,0.021l-0.438,0.109l-0.219,0.055l-0.027,0.007
			c2.713-3.229-3.729,4.405-3.064,3.627l-0.004,0.041l-0.007,0.081l-0.039,0.402c-0.057,0.55-0.123,1.117-0.199,1.688
			c-0.146,1.142-0.329,2.301-0.523,3.461c-0.802,4.648-1.938,9.346-3.378,13.888c-2.837,9.104-6.985,17.565-11.769,24.108
			c-4.716,6.615-10.036,11.203-14.066,13.983c-0.998,0.716-1.97,1.245-2.776,1.771c-0.412,0.25-0.783,0.501-1.143,0.699
			c-0.364,0.188-0.697,0.36-0.995,0.514c-1.19,0.62-1.838,0.956-1.838,0.956s-0.241,0.123-0.7,0.358
			c-0.477,0.2-1.179,0.495-2.081,0.875c-0.451,0.191-0.952,0.403-1.5,0.636c-0.554,0.222-1.179,0.398-1.837,0.625
			c-0.66,0.22-1.366,0.455-2.114,0.704s-1.575,0.402-2.423,0.626c-3.38,0.944-7.565,1.461-12.216,1.805
			c-1.174,0.017-2.376,0.034-3.603,0.052c-0.613,0.01-1.233,0.02-1.859,0.029c-0.625,0.009-1.249-0.067-1.883-0.098
			c-1.265-0.079-2.551-0.16-3.854-0.241c-1.292-0.159-2.594-0.372-3.915-0.556c-5.252-0.87-10.613-2.389-15.66-4.693
			c-5.025-2.346-9.716-5.421-13.822-8.915c-4.114-3.488-7.65-7.371-10.605-11.188c-2.97-3.812-5.273-7.619-7.164-10.904
			c-3.287-5.945-4.523-9.011-5.344-10.852c-2.348-5.48-4.174-9.804-6.088-13.906C435.523,290.054,433.515,286.182,431.42,281.319z"
			/>
		<path fill="#ED6F87" d="M372.982,195.64c0,0-4.457-9.253-0.344-10.966c4.111-1.713,5.483,0,5.483,0s0.685-6.169,6.512-7.197
			c5.826-1.028,12.679-1.028,12.679-1.028S392.516,194.269,372.982,195.64z"/>
		<path fill="#ED6F87" d="M373.752,195.298c0,0,11.65,4.455,18.848,0.342c7.197-4.112,4.112-19.191,4.112-19.191
			S390.543,192.213,373.752,195.298z"/>
		<polygon fill="#F4A6BA" points="363.563,415.491 369.732,432.969 367.162,451.475 406.746,453.018 390.809,422.687 
			386.183,406.751 		"/>
		<path fill="#F4A6BA" d="M445.301,417.034l-4.113,16.449l-16.964,16.964v18.507c0,0,12.337,1.028,21.077,2.057
			c8.738,1.027,16.449-1.542,17.992-2.057c1.542-0.515,2.57,1.543,2.057-12.851c-0.515-14.396-3.085-21.592-3.085-21.592
			l2.057-15.423C464.321,419.088,450.441,420.117,445.301,417.034z"/>
		<path fill="#F4A6BA" d="M141.539,26.128c-38.268-0.001-96.241,26.188-96.241,26.188l-3.05-15.183c0,0-14.747,12.146-11.695,17.207
			c-5.372-4.635-13.018-8.013-17.6-8.014c-1.923,0-3.306,0.595-3.756,1.941c-1.525,4.555,17.287,13.665,17.287,13.665
			S7.672,69.017,9.705,73.572c0.59,1.322,1.867,1.792,3.381,1.792c3.701,0,8.823-2.804,8.823-2.804s-3.56,21.256,5.592,44.03
			c9.153,22.774,17.289,33.403,17.289,33.403s1.647-1.093,4.174-1.093c1.684,0,3.758,0.485,5.995,2.105
			c5.594,4.049,10.679,5.567,10.679,5.567S35.099,90.996,54.041,90.989c1.507,0,3.322,0.414,5.495,1.308l2.541,0.506
			c0,0,16.534,1.866,38.15,1.866c9.697,0,20.417-0.375,31.128-1.463c-11.53,1.021-25.592,1.021-25.592,1.021s-8-7.333-11.333-8.667
			s0.667-6,4-12.667s-8-4-15.333-5.333s-1.334-12,4.666-18.667s-3.333-9.333-3.333-9.333l35.333-8.667c0,0,0.757-0.126,1.67-0.126
			c2.054,0,4.895,0.639,1.664,4.793s0.248,4.793,6.676,4.793c2.857,0,6.298-0.126,9.99-0.126c12,0,0.667,9.333-6,17.333
			s4.667,12,15.334,14.667s3.333,16.667-6.667,19.333c-1.214,0.324-2.674,0.608-4.302,0.858c4.372-0.576,8.707-1.283,12.932-2.146
			c20.847-3.542,23.897-7.086,23.897-7.086l10.678,31.884c0,0,14.237-6.073,9.153-27.835c-5.085-21.762-8.136-56.682-45.763-60.73
			C146.638,26.249,144.133,26.128,141.539,26.128"/>
		<path d="M66.26,156.57c-1.627-2.099-3.274-3.937-5.02-5.604c-1.752-1.662-3.592-3.164-5.833-4.435
			c-1.124-0.632-2.357-1.206-3.849-1.605c-1.478-0.361-3.31-0.697-5.623,0.11c-1.155,0.38-2.223,1.154-3.099,2.093
			c-0.819,0.966-1.417,2.058-1.735,3.061l-0.249,0.772c-0.069,0.273-0.116,0.578-0.167,0.871c-0.043,0.298-0.086,0.597-0.13,0.898
			c0,0.299,0.001,0.6,0.001,0.903c-0.01,0.621,0.079,1.201,0.199,1.781c0.094,0.605,0.286,1.125,0.474,1.669
			c1.064,2.9,3.678,6.609,9.858,10.965c2.858,2.01,6.236,4.01,9.736,5.82c1.749,0.907,3.528,1.77,5.288,2.576
			c0.88,0.405,1.756,0.792,2.625,1.166l0.163,0.07l0.014,0.006l-0.003-0.001l-0.005-0.002l-0.005-0.007l0.164,0.331l0.435,0.826
			c0.302,0.537,0.599,1.081,0.922,1.602c0.63,1.058,1.319,2.073,2.034,3.076c1.438,1.996,3.048,3.883,4.8,5.639
			c3.494,3.517,7.572,6.498,11.931,8.714c4.347,2.242,8.934,3.768,13.402,4.639c4.471,0.904,8.813,1.164,12.811,1.111
			c8.021-0.082,14.665-1.459,19.259-2.578c2.302-0.565,4.093-1.112,5.335-1.442c1.229-0.358,1.875-0.582,1.875-0.582
			s0.899-0.287,2.535-0.809c0.821-0.246,1.812-0.611,2.969-1.025c1.153-0.424,2.482-0.856,3.922-1.459
			c5.765-2.291,13.813-5.819,21.798-11.854c3.971-3.019,7.864-6.722,11.173-11.091c3.264-4.393,5.915-9.445,7.495-14.716
			c0.821-2.624,1.406-5.289,1.769-7.92c0.396-2.63,0.565-5.228,0.599-7.742c0.083-5.037-0.419-9.731-1.065-13.913
			c-0.73-4.856-1.72-8.603-2.391-11.61c-0.648-3.011-1.299-5.186-1.723-6.683c-0.429-1.515-0.855-2.941-1.283-4.295
			c-0.464-1.345-0.964-2.607-1.446-3.819c-0.491-1.209-0.97-2.367-1.484-3.476c-0.544-1.1-1.095-2.159-1.656-3.192
			c-2.252-4.122-4.851-7.84-8.35-11.838c1.212,5.156,1.903,9.455,2.839,13.904c0.231,1.112,0.485,2.228,0.769,3.365
			c0.254,1.149,0.51,2.329,0.813,3.542c0.296,1.215,0.646,2.462,0.998,3.776c0.317,1.326,0.672,2.707,1.068,4.161
			c0.392,1.438,1.005,3.521,1.615,6.413c0.634,2.88,1.588,6.525,2.252,10.995c1.217,7.701,1.702,17.129-1.042,25.952
			c-1.318,4.41-3.505,8.565-6.234,12.26c-2.779,3.667-6.106,6.86-9.602,9.522c-7.022,5.33-14.462,8.646-19.85,10.784
			c-1.338,0.565-2.596,0.973-3.679,1.374c-1.087,0.39-2.017,0.736-2.797,0.97c-1.549,0.496-2.4,0.768-2.4,0.768
			s-0.619,0.214-1.769,0.547c-1.153,0.302-2.826,0.813-4.953,1.333c-4.246,1.033-10.348,2.271-17.444,2.33
			c-7.065,0.134-15.194-1.093-22.434-4.876c-3.627-1.844-6.996-4.313-9.896-7.232c-1.453-1.456-2.79-3.024-3.977-4.673
			c-0.588-0.827-1.158-1.663-1.665-2.519c-0.266-0.424-0.498-0.856-0.74-1.282l-0.336-0.641l-0.204-0.42l-0.346-0.742
			c-0.171-0.406-0.344-0.815-0.518-1.227l-0.131-0.309c-0.051-0.095-0.058-0.233-0.188-0.247l-0.623-0.25
			c-0.771-0.317-1.549-0.638-2.335-0.961c-0.803-0.345-1.622-0.707-2.445-1.085c-1.646-0.754-3.313-1.562-4.939-2.403
			c-3.253-1.679-6.33-3.507-8.802-5.239c-2.667-1.887-4.351-3.459-5.371-4.658c-1.034-1.204-1.41-1.998-1.615-2.506
			c-0.061-0.184-0.157-0.373-0.161-0.515c-0.041-0.154-0.084-0.301-0.07-0.416l-0.031-0.185l0.026-0.166l-0.001-0.176l0.06-0.231
			c0.19-0.653,0.098-0.525,0.169-0.685c0.066-0.172,0.797-0.358,1.646-0.319c0.856,0.02,1.842,0.169,2.837,0.393
			c2.003,0.443,4.075,1.099,6.223,1.854C61.598,154.614,63.846,155.481,66.26,156.57z"/>
		<path d="M122.293,141.663c0.053,2.172,0.397,3.569,1.956,4.769c0.851,0.636,3.468,2.538,6.571,3.521
			c1.535,0.501,3.218,0.696,4.518,0.567c0.647-0.06,1.187-0.171,1.556-0.28c0.372-0.092,0.574-0.178,0.574-0.178
			s0.204-0.078,0.566-0.215c0.341-0.16,0.886-0.408,1.36-0.759c1.062-0.63,2.271-1.797,3.247-3.153
			c1.963-2.765,2.602-6.121,2.77-7.187c0.289-2.007-0.48-3.288-2.041-4.796c-1.515,1.549-2.406,2.361-2.699,3.97
			c-0.152,0.852-0.737,3.501-1.997,5.236c-0.624,0.852-1.309,1.541-1.914,1.89c-0.559,0.409-0.863,0.448-0.879,0.471
			c0,0-0.339,0.137-0.959,0.196c-0.619,0.056-1.573-0.028-2.64-0.378c-2.147-0.666-4.467-2.271-5.199-2.793
			C125.698,141.561,124.458,141.601,122.293,141.663z"/>
		<path fill="#FFFFFF" d="M74.959,202.215c0,0-73.337,53.789-69.633,75.936c3.703,22.147,50.694,59.536,50.694,59.536l8.218-22.352
			c0,0-28.233-20.265-26.21-38.143c2.021-17.879,34.789-24.004,34.789-24.004L74.959,202.215z"/>
		<path fill="#F4A6BA" d="M64.238,315.335c0,0,13.504,0.598,17.103,3.682c3.599,3.085,4.111,17.308,2.569,26.046
			c-0.705,3.993-5.382,4.443-10.596,3.462c-6.197-1.167-13.154-4.357-15.107-6.032c-3.599-3.085-2.187-4.806-2.187-4.806
			L64.238,315.335z"/>
		<path fill="#F4A6BA" d="M71.402,355.001c3.511,2.634,5.14,1.372,8.224-0.685c3.085-2.057,4.456-6.17,4.456-6.17l0.343-7.197
			C84.425,340.95,67.288,351.917,71.402,355.001z"/>
		<path fill="#F08AA2" d="M257.43,215.893l-56,29c0,0,14,4,9,11s-10,17-1,18s15,5,11,12s3,15,3,15s13.389,0.893,28.642,0.893
			c12.714,0,26.722-0.62,35.358-2.893c19-5,35-14,35-14s3.438-27.527-17.605-27.53c-1.646,0-3.437,0.168-5.395,0.53
			c-1.305,0.242-2.596,0.357-3.858,0.357c-12.087,0-21.574-10.586-16.142-22.357C285.729,222.244,257.43,215.893,257.43,215.893"/>
		<path fill="#CEBE93" d="M492.971,157.192c-2.498,0.683-5.115,1.469-7.873,2.367c-16.587,5.4-24.023,11.024-27.345,14.805
			c11.269-9.219,23.147-14.4,35.052-16.618C492.857,157.569,492.912,157.385,492.971,157.192"/>
		<path fill="#F08AA2" d="M518.183,153.401c-7.331,0-15.333,1.089-25.212,3.791c-0.059,0.192-0.113,0.377-0.166,0.554
			c4.804-0.895,9.613-1.308,14.385-1.308c10.897,0,21.61,2.151,31.672,5.615c5.059,1.742,9.638,3.778,13.77,6.13
			c0.035-0.002,0.07-0.004,0.105-0.004c0.118,0,0.238,0.015,0.361,0.046c0.192,0.048,0.426,0.269,0.693,0.634
			c6.664,3.97,12.132,8.803,16.567,14.592c0.438-0.805,0.739-1.226,0.739-1.226l12,24c0,0,3.333-38-35.333-48
			C537.082,155.463,528.268,153.401,518.183,153.401"/>
		<path fill="#F08AA2" d="M553.791,168.86c3.065,4.175,10.671,27.251,12.786,27.251c0.27,0,0.45-0.377,0.521-1.218
			c0.466-5.598,2.238-9.564,3.261-11.441C565.923,177.663,560.455,172.83,553.791,168.86 M507.189,156.439
			c-4.771,0-9.581,0.413-14.385,1.308c-11.904,2.218-23.783,7.399-35.052,16.618c-2.419,2.753-2.655,4.528-2.655,4.528
			s25.333-12,33.333-12.667c0.179-0.015,0.347-0.022,0.506-0.022c3.068,0,2.737,2.679,1.946,5.357s-2.041,5.357-0.808,5.357
			c0.346,0,0.887-0.211,1.689-0.692c6.666-4,17.999-11.333,22.666-11.333c3.956,0,4.56,18.689,7.495,18.689
			c0.527,0,1.129-0.602,1.839-2.022c4.666-9.333,9.333-14.667,9.333-14.667s9.584,18.689,13.314,18.689
			c0.669,0,1.149-0.602,1.353-2.022c1.253-8.771,2.506-15.188,4.866-15.375c-4.132-2.352-8.711-4.388-13.77-6.13
			C528.8,158.59,518.087,156.439,507.189,156.439"/>
		<path fill="#F08AA2" d="M532.578,122.13c-0.048,0-0.098,0.003-0.149,0.011c-4.667,0.667-12,28.667-12,28.667
			c0.573-0.095,1.214-0.141,1.915-0.141c6.647,0,18.715,4.071,29.418,8.141c10.704,4.07,20.044,8.141,21.236,8.141
			c0.126,0,0.161-0.045,0.098-0.141c-1.333-2,6.667-12,5.333-14c-0.149-0.224-0.458-0.323-0.893-0.323
			c-1.569,0-4.774,1.285-8.021,2.57c-3.247,1.285-6.536,2.57-8.271,2.57c-0.332,0-0.608-0.047-0.815-0.151
			c-2.667-1.333,6.667-20,6.667-20s-17.849,14.022-21.132,14.022c-0.074,0-0.142-0.007-0.201-0.022c-2.666-0.667,10-24,6.666-24.667
			c-0.049-0.01-0.099-0.014-0.152-0.014c-3.624,0-18.543,22.034-20.514,23.347c-0.044,0.029-0.083,0.043-0.117,0.043
			c-0.776,0,0.522-7.013,1.482-14.027S534.709,122.13,532.578,122.13"/>
		<path fill="#F08AA2" d="M442.154,214.75c-3.1,0-6.392,24.143-6.392,24.143c13.582,1.682,25.782,2.359,36.628,2.359
			c45.051,0,66.705-11.693,66.705-11.693s-7.333,0-10.667,0s-4-12-6-12.667c-0.043-0.014-0.09-0.021-0.143-0.021
			c-1.185,0-4.861,3.511-8.69,7.021c-3.83,3.511-7.812,7.021-9.606,7.021c-0.08,0-0.155-0.007-0.227-0.021
			c-3.333-0.667,2-14-2.667-14s-15.333,16-19.333,16c-3.84,0,1.536-14.745-0.978-14.745c-0.104,0-0.224,0.025-0.356,0.079
			c-3.334,1.333-11.332,9.333-14.666,10.667c-0.185,0.074-0.358,0.109-0.523,0.109c-2.823,0-3.032-10.219-6.811-12.109
			c-0.217-0.108-0.429-0.16-0.634-0.16c-3.58,0-5.402,15.639-6.032,18.16c-0.051,0.202-0.124,0.297-0.219,0.297
			c-1.147,0-5.368-14.085-8.448-19.63C442.786,215.002,442.472,214.75,442.154,214.75"/>
		<path fill="#F08AA2" d="M306.724,48.592c-6.768,0-7.342,11.685-7.628,14.301c-0.6,5.463,6.435,19.77,11.174,19.77
			c0.466,0,0.909-0.138,1.321-0.437c0.312-0.226,0.682-0.333,1.103-0.333c5.787,0,21.269,20.119,30.463,26.333
			c1.973,1.333,3.604,1.893,5.003,1.893c5.599,0,7.492-8.96,12.754-13.227c0.731-0.593,1.453-0.856,2.176-0.856
			c5.78,0.001,11.562,16.856,21.499,16.856c7.603,0,11.555-5.241,16.201-5.24c2.187,0,4.527,1.161,7.473,4.574
			c2.833,3.283,7.284,4.544,12.168,4.544c10.985,0,24.154-6.391,25.976-10.544c0.491-1.12,1.646-1.613,3.231-1.613
			c6.906,0.001,21.959,9.355,25.704,16.946c0.678,1.374,1.434,1.967,2.221,1.967c4.562,0,10.129-19.977,6.985-23.967
			c-9.449-12-20.386-2-25.647-12c-1.806-3.433-4.618-4.744-7.854-4.744c-6.19,0-13.927,4.804-19.108,8.744
			c-7.893,6-5.262,4.667-13.811,5.333c-0.473,0.037-0.899,0.055-1.287,0.055c-6.628,0-1.38-5.421-2.001-17.388
			c-0.173-3.328-1.796-4.676-4.241-4.676c-6.863,0-20.191,10.636-26.01,18.009c-1.594,2.019-2.972,2.896-4.244,2.896
			c-5.03,0-8.402-13.723-16.8-24.896c-2.218-2.951-3.938-4.153-5.321-4.153c-5.185,0-5.651,16.892-9.805,22.153
			c-0.579,0.734-1.214,1.072-1.907,1.072c-5.606,0-15.028-22.093-29.659-35.738C312.467,50.137,309.186,48.592,306.724,48.592"/>
		<path fill="#CEBE93" d="M138.129,92.419c-2.252,0.296-4.51,0.558-6.773,0.788C133.776,92.992,136.085,92.733,138.129,92.419"/>
		<path fill="#F08AA2" d="M121.434,30.768c-0.913,0-1.67,0.126-1.67,0.126l-35.333,8.667c0,0,9.333,2.666,3.333,9.333
			s-11.999,17.334-4.666,18.667s18.666-1.334,15.333,5.333s-7.333,11.334-4,12.667s11.333,8.667,11.333,8.667s14.062,0,25.592-1.021
			c2.264-0.23,4.521-0.491,6.773-0.788c1.628-0.25,3.088-0.535,4.302-0.858c10-2.667,17.334-16.667,6.667-19.333
			s-22.001-6.667-15.334-14.667s18-17.333,6-17.333c-3.692,0-7.133,0.126-9.99,0.126c-6.428,0-9.906-0.639-6.676-4.793
			S123.487,30.768,121.434,30.768"/>
		<path fill="#CEBE93" d="M434.232,44.679c-1.176,5.261-3.136,7.547-3.136,7.547l0.282,0.098
			C432.565,50.516,433.771,47.968,434.232,44.679"/>
		<path fill="#F08AA2" d="M441.14,21.69c-2.782,0-6.043,6.181-6.043,14.537c0,3.399-0.36,6.199-0.864,8.453
			c-0.462,3.289-1.667,5.836-2.854,7.646l15.051,5.235l14-8.667c0,0,3.333-4,4-9.333c0.267-2.133-0.854-2.453-2.122-2.453
			c-0.272,0-0.552,0.015-0.825,0.029s-0.542,0.029-0.793,0.029c-1.254,0-2.069-0.368-0.927-2.938c1.026-2.31,0.67-3.236-0.537-3.236
			c-1.929,0-6.029,2.366-10.129,5.236c-1.191,0.834-2.042,1.2-2.65,1.2c-2.799,0-0.493-7.725-2.684-13.2
			C443.062,22.475,442.131,21.69,441.14,21.69"/>
		<polyline fill="#CEBE93" points="189.683,573.31 142.993,573.31 189.43,574.893 189.683,573.31 		"/>
		<path fill="#F08AA2" d="M136.43,475.893l-35,96l41.563,1.417h46.689l3.747-23.417c0,0-22,0-43-5
			C127.001,539.315,136.43,475.893,136.43,475.893"/>
		<path d="M169.072,329.985c1.075,7.891,2.322,14.476,4.409,21.225c0.528,1.688,1.11,3.385,1.78,5.114l0.126,0.325
			c0.053,0.129,0.06,0.168,0.158,0.385l0.528,1.149c0.353,0.778,0.738,1.551,1.121,2.346c0.787,1.564,1.628,3.165,2.537,4.708
			c0.909,1.532,1.878,3.021,2.886,4.344c1.007,1.31,2.045,2.407,3.065,3.245c1.022,0.836,2.019,1.412,3.002,1.776
			c0.99,0.344,1.955,0.555,3.111,0.462c0.431-0.065,0.983-0.039,1.613-0.246l0.242-0.07l0.109-0.073l0.125-0.039
			c0.169-0.054,0.34-0.108,0.514-0.163c0.333-0.129,0.693-0.277,1.007-0.461c0.668-0.365,1.202-0.771,1.677-1.226
			c0.46-0.453,0.88-0.896,1.224-1.449c0.715-1.066,1.311-2.396,1.592-4.472c0.297-2.047,0.079-4.995-0.558-8.396
			c-0.177-0.861-0.308-1.704-0.527-2.608c-0.12-0.524-0.24-1.051-0.361-1.579c-0.212-0.962-0.466-1.938-0.706-2.914
			c-0.233-0.92-0.466-1.843-0.699-2.769c-1.017-3.938-2.043-7.854-2.967-11.818c-0.919-3.959-1.732-7.957-2.312-11.974
			c-0.521-4.019-0.92-8.196-1.086-12.353c-0.072-1.044-0.032-2.081-0.056-3.125c-0.003-1.042-0.039-2.094,0.02-3.128l0.06-1.695
			l-0.002,0.024l-0.023,0.017l-0.023-0.009l-0.046-0.014l-0.021-0.006c0.005,0.002-0.055-0.018,0.056,0.019l0.443,0.145l1.776,0.576
			c9.459,2.759,19.01,3.901,28.525,4.396c9.514,0.457,19.005,0.293,28.34-0.453l3.503-0.243l3.479-0.352
			c2.317-0.235,4.629-0.469,6.935-0.703c4.641-0.584,9.245-1.232,13.766-2.063c18.11-3.234,35.15-8.171,50.721-13.511
			c15.574-5.359,29.66-11.205,41.845-16.927c3.045-1.437,5.97-2.878,8.774-4.315c0.7-0.367,1.394-0.731,2.08-1.091
			c0.343-0.182,0.684-0.363,1.023-0.543c0.394-0.217,0.786-0.433,1.176-0.647c1.293-0.712,2.561-1.425,3.75-2.175
			c1.195-0.74,2.469-1.443,3.413-2.237c0.508-0.386,1.014-0.769,1.516-1.15c0.12-0.096,0.263-0.189,0.364-0.287l0.233-0.299
			l0.465-0.596c0.306-0.395,0.61-0.787,0.912-1.177c0.174-0.193,0.196-0.375,0.282-0.562l0.218-0.554
			c0.214-0.753,0.326-1.38,0.29-2.32c-0.079-0.997-0.268-1.628-0.572-2.333c-0.576-1.354-1.785-2.673-3.569-3.794
			c-1.769-1.12-3.882-2.06-5.935-2.901c-3.919-1.58-4.762-1.837-6.583-2.5c-1.657-0.588-3.29-1.146-4.903-1.686
			c-3.227-1.079-6.371-2.081-9.43-3.034c-6.116-1.902-11.89-3.606-17.248-5.155c-5.358-1.548-10.301-2.935-14.757-4.165
			c-1.115-0.306-2.199-0.604-3.251-0.892c-0.527-0.143-1.046-0.284-1.557-0.423c-0.256-0.069-0.511-0.138-0.763-0.206l-0.189-0.051
			l-0.097-0.026l-0.048-0.013l-0.024-0.007c-0.113-10.38,0.124,14.135,0.116,11.606l0.396-0.116
			c2.024-0.599,3.866-1.177,5.577-1.729c1.708-0.552,3.269-1.078,4.679-1.568c0.964-0.343,1.876-0.668,2.734-0.975
			c1.209-0.444,2.339-0.869,3.374-1.28c4.166-1.637,6.771-2.96,8.017-3.671c0.632-0.357,0.969-0.562,1.025-0.604
			c0.057-0.042-0.117,0.087-0.64,0.38c-1,0.585-3.362,1.875-7.781,3.644l0.001,0c3.66-1.469,7.101-3.064,9.47-4.712
			c2.403-1.657,3.509-3.25,4.08-4.693c0.282-0.738,0.451-1.44,0.497-2.3c0.027-0.428,0.003-0.933-0.086-1.505
			c-0.084-0.581-0.256-1.042-0.391-1.414c-0.296-0.727-0.608-1.261-1.021-1.787c-0.223-0.253-0.41-0.517-0.654-0.754
			c-0.314-0.228-0.625-0.453-0.932-0.675c-0.3-0.223-0.717-0.438-1.063-0.652l-0.54-0.32c-0.094-0.051-0.168-0.109-0.277-0.155
			l-0.383-0.121c-0.509-0.16-1.011-0.318-1.507-0.474l-0.739-0.232c-0.301-0.053-0.6-0.105-0.896-0.157
			c-0.594-0.104-1.18-0.207-1.757-0.307c-0.288-0.051-0.575-0.101-0.859-0.151c-0.312-0.033-0.622-0.066-0.93-0.099
			c-1.239-0.124-2.417-0.266-3.602-0.363c-2.406-0.16-4.649-0.314-6.771-0.388c-1.205-0.042-2.311-0.081-3.312-0.116
			c-7.125-0.157-8.307-0.158-0.921-0.024c-9.844-0.223-17.32-0.114-23.075-0.036c-5.748,0.093-9.752,0.203-12.545,0.286
			c-0.699,0.022-1.322,0.042-1.877,0.059c-0.14,0.005-0.274,0.009-0.405,0.014l-0.195,0.007l-0.097,0.003l-0.024,0.001h-0.012
			l-0.007,0c-3.174-9.848,4.316,13.416,3.548,11.018l0.046-0.031c0.216-0.146,0.417-0.281,0.604-0.408
			c0.722-0.498,1.24-0.855,1.61-1.111c0.733-0.514,0.881-0.618,0.881-0.618s0.081-0.058,1.738-1.24
			c0.824-0.597,2.041-1.474,3.812-2.817c1.77-1.353,4.102-3.136,7.118-5.734l0.001,0c0.21-0.185,0.642-0.564,1.29-1.134
			c0.322-0.294,0.698-0.639,1.129-1.031c0.214-0.203,0.441-0.418,0.682-0.646c0.12-0.115,0.244-0.233,0.371-0.354l0.192-0.185
			l0.313-0.319c1.812-1.808,4.148-4.313,5.693-7.199c0.701-1.435,1.286-2.957,1.349-4.465c0.059-0.762,0.031-1.538-0.182-2.319
			c-0.096-0.397-0.211-0.812-0.342-1.234l-0.229-0.647l-0.34-0.608c-0.943-1.637-2.237-2.669-4.086-3.432
			c-1.828-0.765-4.377-1.045-7.223-0.899c-1.411,0.079-2.938,0.218-4.393,0.439c-0.881,0.118-1.149,0.169-1.59,0.239
			c-0.415,0.072-0.834,0.145-1.258,0.218c-1.686,0.305-3.396,0.668-5.153,1.076c-7.015,1.639-14.758,3.979-23.324,6.982
			c-8.559,3.014-17.923,6.691-28.001,11.275c-2.519,1.149-5.081,2.358-7.683,3.635c-2.622,1.274-5.16,2.654-7.826,4.019
			c-2.649,1.375-5.352,2.778-8.106,4.209c-2.767,1.41-5.495,3.015-8.324,4.558c-2.812,1.574-5.7,3.135-8.596,4.801
			c-2.881,1.694-5.812,3.419-8.793,5.173c-2.999,1.723-5.966,3.621-9.013,5.494c-1.521,0.943-3.053,1.893-4.598,2.852
			c-1.526,0.99-3.066,1.987-4.618,2.993c-3.114,1.986-6.232,4.098-9.398,6.242l-0.258,0.174l0.025-0.018l0.016-0.01l0.006-0.004
			l0.011-0.008l0.016,0.014l0.004,0.006l0.002,0.003l0.005,0.004l-0.035-0.059l-0.198-0.355l-0.836-1.426
			c-0.089-0.16-0.432-0.686-0.676-1.069c-0.257-0.415-0.535-0.817-0.819-1.217c-1.118-1.605-2.367-3.095-3.717-4.26
			c-1.35-1.178-2.788-1.957-4.27-2.367c-0.742-0.215-1.507-0.321-2.309-0.313c-0.793-0.008-1.639,0.108-2.41,0.373
			c-0.793,0.21-1.494,0.582-2.135,1.012c-0.315,0.224-0.637,0.44-0.928,0.703c-0.304,0.241-0.598,0.502-0.859,0.823
			c-1.104,1.184-1.974,2.807-2.683,4.607c-0.654,1.83-1.155,3.92-1.505,5.722c-0.686,3.775-1.023,7.482-1.245,11.305
			c-0.044,0.954-0.087,1.915-0.131,2.883l-0.005,0.125v-0.004v-0.008l0.012-0.011c-0.41,0.211-0.823,0.423-1.239,0.638
			c-3.229,1.635-6.938,3.161-10.981,5.341c-0.511,0.282-1.023,0.569-1.55,0.886c-0.197,0.107-0.668,0.417-1.073,0.678
			c-0.41,0.255-0.825,0.537-1.247,0.856c-1.686,1.213-3.181,2.639-4.238,4.223c-1.02,1.596-1.669,3.324-1.765,5.17
			c-0.075,0.92,0.085,1.847,0.219,2.768c0.149,0.451,0.318,0.854,0.465,1.256c0.081,0.196,0.14,0.401,0.24,0.591
			c0.115,0.184,0.22,0.371,0.345,0.552c1.15,1.776,3.42,3.177,5.755,4.364c0.588,0.299,1.183,0.588,1.784,0.865l1.163,0.53
			l1.938,0.834l0.756,0.314l-0.006-0.003l-0.013-0.005l-0.008-0.02l-0.002,0.014l-0.072,0.69l-0.079,0.978
			c-0.116,1.299-0.197,2.568-0.251,3.803c-0.079,1.237-0.1,2.438-0.123,3.601c-0.037,1.164-0.043,2.287-0.021,3.364
			c0.037,6.432,0.658,12.893,1.153,16.321c1.386,10.501,4.183,20.866,8.207,30.666c0.452,1.242,1.085,2.427,1.619,3.64
			c0.565,1.203,1.099,2.417,1.692,3.605l1.903,3.513l0.957,1.748l1.064,1.696c2.726,4.574,6.035,8.821,9.652,12.744
			c3.644,3.91,7.736,7.417,12.291,10.305c1.117,0.745,2.326,1.387,3.505,2.052l1.144,0.568c0.571,0.286,1.146,0.565,1.75,0.815
			c0.588,0.26,1.184,0.511,1.82,0.74c0.308,0.117,0.618,0.233,0.977,0.347l0.518,0.168l0.38,0.108l0.096,0.025
			c15.126-11.719,4.192-3.256,7.568-5.874v-0.013v-0.024v-0.1c0-1.06-0.001-2.1-0.002-3.118c-0.001-1.427-0.002-2.822-0.003-4.183
			c0-0.486,0-0.971-0.001-1.451v-0.718c-0.008-0.236,0.06-0.501-0.183-0.638c-0.679-0.668-1.347-1.326-2.006-1.975
			c-0.528-0.534-1.048-1.061-1.561-1.578c-0.297-0.309-0.589-0.612-0.876-0.91c-0.569-0.604-1.118-1.186-1.645-1.744
			c-2.089-2.249-3.758-4.163-4.942-5.556c-2.869-3.372-5.337-6.396-7.455-9.186c-2.108-2.771-3.894-5.401-4.94-7.636
			c-0.488-1.099-0.745-1.962-0.789-2.462c-0.006-0.261-0.016-0.604,0.259-0.975c0.109-0.336,0.964-0.944,1.562-1.457
			c1.298-1.026,2.645-2.061,4.128-2.897c0.744-0.421,1.519-0.781,2.349-1.015c0.41-0.099,0.847-0.188,1.276-0.152
			c0.423,0.032,0.898,0.133,1.233,0.504c-0.119-0.497-0.55-0.895-1-1.175c-0.463-0.293-0.978-0.446-1.492-0.575
			c-1.027-0.223-2.067-0.26-3.061-0.212c-1.999,0.096-3.863,0.49-5.67,0.943c-0.924,0.289-1.653,0.352-2.916,1.033
			c-1.146,0.566-2.253,1.577-3.058,2.802c-0.397,0.604-0.652,1.266-0.94,1.938c-0.178,0.634-0.354,1.312-0.461,1.961
			c-0.059,0.609-0.125,1.259-0.132,1.867c0.018,0.577,0.043,1.17,0.088,1.756c0.248,2.253,0.843,4.25,1.56,6.191
			c0.72,1.945,1.617,3.767,2.625,5.594c2.028,3.638,4.549,7.199,7.63,10.898c1.272,1.527,3.06,3.601,5.287,6.018
			c0.562,0.6,1.148,1.226,1.756,1.875c0.308,0.321,0.621,0.649,0.94,0.982l0.242,0.249l0.104,0.108v-0.001l-0.003-0.001l-0.01-0.013
			v-0.004l-0.001-0.002v0.284c-0.001,0.497-0.001,1.001-0.001,1.51c-0.001,1.019-0.002,2.059-0.003,3.118v0.1v0.024v0.013
			c3.376-2.611-7.557,5.862,7.568-5.852v-0.002l-0.003-0.001l-0.242-0.082c-0.152-0.045-0.344-0.118-0.54-0.194
			c-0.379-0.134-0.782-0.307-1.195-0.49c-0.409-0.166-0.826-0.372-1.246-0.585l-0.839-0.414c-0.892-0.514-1.804-0.981-2.679-1.575
			c-3.547-2.248-6.895-5.093-9.918-8.345c-3.005-3.271-5.826-6.849-8.184-10.825l-0.923-1.462l-0.833-1.531l-1.668-3.071
			c-0.522-1.047-0.992-2.13-1.493-3.193c-0.474-1.08-1.039-2.111-1.441-3.232c-3.599-8.778-6.133-18.11-7.387-27.626
			c-0.45-3.102-1.012-8.968-1.048-14.789c-0.022-0.976-0.017-1.99,0.018-3.038c0.021-1.049,0.038-2.133,0.109-3.238
			c0.048-1.109,0.119-2.242,0.223-3.389l0.069-0.866c0.044-0.388,0.088-0.777,0.132-1.168c0.163-1.244,0.267-2.469,0.515-3.771
			c0.22-1.29,0.44-2.588,0.663-3.894l0.084-0.488l0.042-0.243l0.021-0.122l-0.088-0.057l-0.925-0.335l-1.861-0.676
			c-1.245-0.453-2.495-0.9-3.722-1.378l-1.838-0.728l-1.067-0.438l-1.696-0.729l-0.641-0.288l0.006,0.003l0.023,0.013l-0.005,0.037
			l-0.016,0.013l0.036-0.023l0.247-0.147c0.362-0.219,0.751-0.436,1.142-0.652c3.204-1.743,6.904-3.289,10.615-5.153
			c0.472-0.243,0.941-0.485,1.41-0.726c0.746-0.423,1.637-0.883,2.422-1.392c0.818-0.492,1.593-1.015,2.375-1.528l1.178-0.774
			l0.292-0.192l0.135-0.102v-0.179l0.002-0.715c0.004-0.953,0.007-1.902,0.011-2.847c0.021-0.896,0.042-1.787,0.062-2.676
			c0.04-0.885,0.08-1.762,0.119-2.633c0.195-3.468,0.518-6.816,1.057-9.77c0.04-0.211,0.021-0.111,0.023-0.127l-0.006,0.015
			l-0.025,0.009l-0.021-0.023l0.757,1.285l0.479,0.872l0.682,1.304c0.442,0.878,0.871,1.769,1.284,2.682
			c0.811,1.842,1.602,3.769,2.403,5.655l0.596,1.412l0.295,0.7l0.079,0.151l0.146-0.105l0.29-0.21l2.354-1.697
			c1.574-1.122,3.143-2.24,4.705-3.353l2.34-1.667l1.181-0.833l0.937-0.641c3.073-2.083,6.101-4.135,9.149-6.079
			c1.515-0.982,3.018-1.958,4.509-2.925c1.513-0.938,3.013-1.869,4.501-2.792c2.983-1.834,5.885-3.693,8.826-5.382
			c2.922-1.72,5.794-3.411,8.616-5.073c2.839-1.635,5.67-3.165,8.427-4.709c2.774-1.513,5.448-3.089,8.16-4.471
			c2.7-1.403,5.349-2.778,7.944-4.127c2.593-1.329,5.145-2.715,7.624-3.92c2.488-1.222,4.946-2.383,7.367-3.489
			c9.692-4.413,18.764-7.979,26.994-10.879c8.229-2.891,15.648-5.125,22.05-6.621c1.598-0.371,3.131-0.696,4.583-0.959
			c0.604-0.102,1.196-0.202,1.775-0.3l0.027-0.005l-0.006-0.002l0.004-0.004l-0.042,0.044c-0.397,0.377-0.755,0.718-1.072,1.021
			c-0.368,0.336-0.689,0.631-0.966,0.883c-0.567,0.5-0.945,0.833-1.13,0.995c-2.68,2.309-4.866,3.986-6.513,5.244
			c-1.656,1.255-2.805,2.084-3.58,2.646c-1.561,1.113-1.637,1.168-1.637,1.168s-0.139,0.097-0.827,0.58
			c-0.344,0.237-0.825,0.569-1.495,1.031c-0.162,0.109-0.336,0.227-0.521,0.353l-0.03,0.02c-0.774-2.395,6.722,20.868,3.552,11.021
			l0.005,0l0.012,0l0.021,0l0.089-0.003l0.187-0.006c0.127-0.004,0.258-0.009,0.393-0.013c0.544-0.017,1.154-0.037,1.84-0.058
			c2.747-0.081,6.704-0.189,12.372-0.281c5.663-0.078,13.064-0.182,22.583,0.035c-7.161-0.128-6-0.127,0.886,0.027
			c0.748,0.024,1.574,0.051,2.475,0.081h-0.01h-0.007l0.005-0.009h-0.009l0.006-0.003l0.002-0.001
			c-0.355,0.125-0.734,0.258-1.135,0.398c-1.326,0.46-2.806,0.958-4.431,1.482c-1.621,0.523-3.401,1.081-5.28,1.637l-0.339,0.099
			c-0.034-2.524,0.205,21.996,0.116,11.619l0.022,0.006l0.045,0.012l0.09,0.024l0.185,0.049c0.247,0.067,0.496,0.134,0.747,0.203
			c0.504,0.137,1.017,0.276,1.536,0.418c1.041,0.286,2.113,0.58,3.217,0.883c4.414,1.219,9.314,2.596,14.617,4.128
			c5.301,1.534,11.008,3.219,17.009,5.087c2.999,0.935,6.072,1.915,9.188,2.958c1.558,0.521,3.126,1.058,4.694,1.615
			c1.396,0.488,3.823,1.403,3.122,1.141l-0.015-0.027l0.016-0.011c-0.569,0.306-1.145,0.615-1.726,0.928
			c-0.646,0.338-1.298,0.679-1.956,1.024c-2.659,1.36-5.462,2.741-8.397,4.124c-11.755,5.515-25.504,11.218-40.627,16.415
			c-15.118,5.182-31.639,9.951-48.906,13.027c-4.312,0.793-8.672,1.403-13.056,1.957c-2.22,0.224-4.445,0.449-6.675,0.675
			l-3.349,0.339l-3.354,0.231c-8.952,0.719-17.961,0.86-26.839,0.436c-8.855-0.446-17.665-1.56-25.666-3.901l-1.461-0.477
			l-0.364-0.118l-0.769-0.272c-0.569-0.191-1.125-0.404-1.654-0.659c-1.075-0.477-2.153-0.978-3.224-1.434l-2.335,0.949
			c-2.325,0.942-4.642,1.881-6.95,2.816c-0.214,1.021-0.301,2.134-0.426,3.219l-0.356,3.262c-0.068,0.543-0.114,1.086-0.134,1.628
			l-0.082,1.543l-0.062,1.774c-0.062,1.185-0.027,2.351-0.023,3.519c0.024,1.165-0.013,2.337,0.063,3.488
			c0.188,4.636,0.615,9.134,1.204,13.64c0.648,4.494,1.535,8.818,2.507,12.997c0.974,4.174,2.035,8.213,3.037,12.093l0.042,0.162
			v-0.001l-0.001-0.004l-0.002-0.01l-0.001-0.005v-0.007l0.042,0.02c0.024,0.069,0.057,0.448-0.219,0.52
			c-0.067,0.019-0.153,0.019-0.261-0.007l-0.178-0.061l-0.104-0.051l-0.149-0.214l-0.182-0.272
			c-0.978-1.462-1.928-2.885-2.866-4.287C177.641,341.754,173.712,336.442,169.072,329.985z"/>
		<path d="M282.294,330.83c2.43-0.083,3.837-0.183,5.136-1.478c0.693-0.691,2.82-2.841,4.888-4.272
			c1.022-0.717,2.011-1.229,2.611-1.407c0.616-0.194,0.806-0.154,0.816-0.172l0.311,0.059l0.097,0.073l0.079,0.069l0.178,0.236
			c0.117,0.176,0.289,0.325,0.391,0.526c0.109,0.195,0.221,0.396,0.334,0.601c0.847,1.687,0.53,4.329,0.352,5.169
			c-0.296,1.587,0.363,2.72,1.347,4.942c2.332-0.701,3.751-1.65,4.256-3.838c0.138-0.591,0.351-1.812,0.361-3.382
			c0.012-1.56-0.267-3.531-1.101-5.304c-0.221-0.432-0.463-0.851-0.697-1.257c-0.233-0.407-0.546-0.746-0.81-1.097
			c-0.143-0.175-0.257-0.331-0.418-0.507c-0.195-0.192-0.393-0.376-0.587-0.548c-0.394-0.337-0.854-0.619-1.272-0.829
			c-0.87-0.413-1.648-0.549-2.145-0.59c-0.499-0.034-0.779-0.034-0.779-0.034s-0.261,0.019-0.725,0.051
			c-0.447,0.051-1.072,0.163-1.729,0.378c-1.346,0.412-2.803,1.211-4.143,2.136c-2.678,1.854-4.969,4.219-5.721,5.026
			C281.956,326.877,281.912,328.422,282.294,330.83z"/>
		<ellipse transform="matrix(0.9724 -0.2334 0.2334 0.9724 -66.542 69.2233)" cx="259.208" cy="315.761" rx="3.038" ry="6.884"/>
		<ellipse transform="matrix(0.9724 -0.2333 0.2333 0.9724 -56.6405 118.747)" cx="473.566" cy="298.766" rx="2.476" ry="5.613"/>
		<ellipse transform="matrix(0.9724 -0.2335 0.2335 0.9724 -24.5828 86.4788)" cx="352.947" cy="147.064" rx="2.241" ry="4.017"/>
		<ellipse transform="matrix(0.9724 -0.2335 0.2335 0.9724 -25.3189 27.9747)" cx="105.5" cy="120.929" rx="2.033" ry="6.177"/>
		<ellipse transform="matrix(0.9724 -0.2334 0.2334 0.9724 -22.1214 35.9972)" cx="141.024" cy="111.459" rx="2.032" ry="6.177"/>
		<ellipse transform="matrix(0.9723 -0.2336 0.2336 0.9723 -24.5263 92.3122)" cx="377.521" cy="149.717" rx="2.241" ry="4.016"/>
		<ellipse transform="matrix(0.9724 -0.2334 0.2334 0.9724 -55.4314 126.0752)" cx="504.925" cy="297.223" rx="2.476" ry="5.612"/>
		<ellipse transform="matrix(0.9724 -0.2333 0.2333 0.9724 -62.1972 79.0233)" cx="302.903" cy="302.396" rx="3.036" ry="6.884"/>
		<path fill="#ED6EA7" d="M242.309,345.486c3.138-1.805,8.699,10.242,21.692,14.83c13.001,4.587,26.081,0.8,26.428,3.953
			c0.35,3.156-16.916,17.983-30.219,13.432C243.23,371.897,239.169,347.289,242.309,345.486z"/>
		<path fill="#FFFFFF" d="M244.466,345.949c0,0,3.17,11.837,17.914,17.784c14.741,5.946,25.898-1.142,25.898-1.142
			s-15.286,0.531-23.954-2.977C254.547,355.657,244.466,345.949,244.466,345.949z"/>
		<path fill="#FFFFFF" d="M246.433,365.577c0,0,4.178,5.396,14.187,8.972c10.006,3.575,16.161,1.181,16.161,1.181
			s-7.501,6.619-18.239,2.001C248.004,373.201,246.433,365.577,246.433,365.577z"/>
		<path d="M332.205,289.03c1.187,5.162,1.887,9.471,2.825,13.898c0.903,4.434,2.026,8.989,3.345,14.775
			c0.417,1.958,1.248,5.157,1.942,11.84c0.358,3.748,0.495,8.153-0.03,12.852c-0.484,4.701-1.746,9.665-4.041,14.308
			c-2.372,4.623-5.783,9.107-9.745,13.152c-3.964,4.051-8.378,7.74-12.811,11.039c-8.887,6.598-17.803,11.66-24.336,15.161
			c-3.271,1.755-5.977,3.089-7.844,4.018c-1.879,0.91-2.92,1.415-2.92,1.415s-0.94,0.438-4.235,1.973
			c-1.651,0.76-3.906,1.764-6.949,3.059c-0.762,0.318-1.572,0.657-2.435,1.018c-0.432,0.176-0.876,0.356-1.334,0.543
			c-0.675,0.266-1.37,0.54-2.084,0.822c-0.5,0.19-1.008,0.384-1.521,0.58c-0.258,0.098-0.518,0.195-0.779,0.294l-0.393,0.148
			l-0.159,0.105l-0.035,0.21c-0.19,1.119-0.365,2.28-0.596,3.445c-0.075,0.382-0.151,0.769-0.229,1.16
			c-0.061,0.287-0.121,0.578-0.184,0.872c-0.132,0.589-0.268,1.191-0.406,1.811c-0.536,2.252-1.511,6.269-3.297,11.028
			c-0.894,2.367-2.019,4.922-3.468,7.293c-1.403,2.365-3.363,4.517-5.11,5.156c-0.217,0.096-0.429,0.107-0.637,0.192
			c-0.225,0.021-0.398,0.042-0.659,0.075c-0.729-0.028-1.504,0.031-2.205-0.049c-1.44-0.095-2.723-0.43-3.875-0.893
			c-1.102-0.538-2.072-1.267-2.966-2.232c-0.869-1.007-1.647-2.256-2.34-3.627c-1.366-2.782-2.365-6.013-3.266-9.14
			c-0.447-1.569-0.86-3.138-1.262-4.66c-0.467-1.644-0.914-3.248-1.473-4.753c-1.681-4.803-3.735-8.456-5.543-11.191
			c-1.807-2.75-3.422-4.57-4.523-5.808c-4.568-4.945-9.203-7.7-13.751-9.452c-2.289-0.866-4.592-1.466-6.984-1.856
			c-2.394-0.372-4.889-0.58-7.547-0.418c2.407,1.095,4.438,2.358,6.34,3.593c1.894,1.253,3.642,2.518,5.366,3.845
			c3.43,2.677,6.862,5.516,10.629,9.67c0.908,1.044,2.248,2.564,3.749,4.868c1.503,2.293,3.225,5.346,4.654,9.449
			c0.479,1.284,0.855,2.662,1.265,4.086c0.411,1.562,0.835,3.173,1.309,4.839c0.968,3.325,2.015,6.858,3.797,10.513
			c0.92,1.821,2.031,3.675,3.54,5.406c1.546,1.714,3.502,3.215,5.68,4.229c2.19,0.933,4.453,1.437,6.583,1.582
			c1.076,0.106,2.086,0.047,3.123,0.065c0.618-0.044,1.322-0.122,1.964-0.232c0.63-0.169,1.288-0.312,1.877-0.55
			c2.407-0.926,4.225-2.411,5.659-3.896c1.44-1.502,2.544-3.062,3.473-4.588c1.859-3.059,3.121-5.999,4.132-8.667
			c1.994-5.342,3.012-9.618,3.59-12.054c0.149-0.667,0.295-1.316,0.438-1.95c0.109-0.531,0.217-1.05,0.321-1.555l-0.003,0.003
			c0.773-0.312,1.504-0.608,2.192-0.887c0.891-0.373,1.728-0.723,2.515-1.053c3.137-1.336,5.452-2.369,7.149-3.151
			c3.387-1.58,4.354-2.031,4.354-2.031s1.072-0.518,3.005-1.452c1.924-0.953,4.708-2.322,8.085-4.129
			c6.749-3.61,15.966-8.817,25.367-15.781c4.691-3.487,9.423-7.423,13.79-11.882c4.357-4.454,8.301-9.538,11.182-15.163
			c2.816-5.681,4.288-11.627,4.847-17.04c0.602-5.428,0.43-10.357,0.03-14.495c-0.776-7.365-1.689-10.78-2.158-12.891
			c-1.483-6.217-3.4-10.853-5.639-15.008C338.281,296.749,335.685,293.047,332.205,289.03z"/>
		<path d="M200.604,400.581c-5.228,0.954-9.999,2.197-14.558,3.64c-4.554,1.459-8.89,3.167-13.202,5.298
			c-4.304,2.146-8.598,4.698-12.955,8.049c-4.332,3.374-8.82,7.471-12.965,13.243c-0.718,0.954-1.471,2.158-2.378,3.581
			c-0.422,0.747-0.879,1.555-1.377,2.434c-0.451,0.845-0.894,1.726-1.365,2.679c-1.864,3.794-4.052,8.655-6.852,15.236
			c-4.063,9.452-10.441,25.411-15.691,39.057c-5.264,13.64-9.461,24.951-9.461,24.951s-3.581,9.44-8.014,21.569
			c-2.216,6.069-4.646,12.798-6.929,19.423c-0.451,1.337-0.9,2.669-1.348,3.992c-0.541,1.627-1.07,3.25-1.536,4.841l-0.335,1.187
			c-0.119,0.398-0.224,0.79-0.272,1.157l-0.196,1.12c-0.02,0.18-0.094,0.388-0.068,0.544l0.096,0.457l0.191,0.911
			c0.068,0.288,0.15,0.545,0.225,0.818c0.144,0.513,0.287,1.021,0.43,1.527c0.137,0.484,0.272,0.967,0.407,1.444l0.084,0.197
			l0.191,0.132l0.312,0.234l0.578,0.438c0.824,0.624,1.637,1.238,2.434,1.842c0.357,0.393,1.039,0.514,1.639,0.695l0.453,0.131
			c0.157,0.038,0.345,0.044,0.515,0.067c0.348,0.039,0.693,0.078,1.038,0.116c0.674,0.094,1.407,0.107,2.106,0.151
			c0.7,0.043,1.402,0.071,2.102,0.09c1.178,0.031,2.342,0.062,3.492,0.093c0.938,0.017,1.864,0.033,2.779,0.05
			c1.136,0.013,2.243,0.025,3.323,0.038c2.15,0.013,4.191,0.024,6.125,0.036c3.855,0,7.285-0.001,10.314-0.001
			c6.049-0.039,10.498-0.067,13.552-0.087c24.69-0.283,38.651-3.233,59.172-8.634c-20.657-4.845-34.655-7.441-59.263-7.406
			c-3.038,0.003-7.466,0.008-13.484,0.014c-3.004-0.006-6.404-0.013-10.228-0.021c-2.964-0.028-6.255-0.061-9.893-0.096l0.058,0.01
			l-0.012,0.035l-0.007,0.018l-0.003,0.009l0.309-0.906c2.216-6.455,4.613-13.141,6.792-19.158
			c4.365-12.042,7.89-21.446,7.89-21.446s4.219-11.229,9.479-24.763c5.245-13.537,11.589-29.346,15.503-38.574
			c2.718-6.415,4.817-11.095,6.457-14.46c0.409-0.835,0.789-1.597,1.136-2.253c0.337-0.603,0.646-1.157,0.933-1.67
			c0.649-1.011,1.156-1.869,1.693-2.586c2.997-4.288,6.41-7.959,9.69-11.341c3.304-3.38,6.56-6.466,9.789-9.508
			c3.241-3.033,6.474-6.019,9.902-9.098C192.84,407.062,196.444,403.864,200.604,400.581z"/>
		<path d="M285.938,403.154c0.006,3.048-0.007,5.397,0.365,7.313c0.371,1.91,1.136,3.305,2.566,4.479
			c1.59,1.216,6.33,4.927,10.325,8.592c1.022,0.898,1.893,1.857,2.769,2.697c0.844,0.858,1.679,1.618,2.29,2.308
			c1.199,1.389,1.973,2.285,1.973,2.285s0.19,0.226,0.53,0.627c0.327,0.422,0.855,0.927,1.398,1.721
			c1.095,1.574,2.579,3.707,4.134,5.941c0.394,0.54,0.781,1.139,1.165,1.757c0.386,0.607,0.771,1.214,1.151,1.812
			c0.763,1.195,1.504,2.355,2.184,3.42c1.363,2.139,2.481,3.894,3.041,4.77c2.113,3.233,5.617,3.64,11.689,3.856
			c2.758-5.415,3.941-8.79,1.986-12.237c-0.525-0.936-1.623-2.782-3.057-5.011c-0.71-1.114-1.483-2.328-2.279-3.578
			c-0.399-0.625-0.805-1.258-1.211-1.892c-0.396-0.632-0.812-1.269-1.278-1.907c-1.801-2.536-3.521-4.958-4.79-6.745
			c-0.632-0.893-1.318-1.582-1.72-2.082c-0.426-0.493-0.665-0.771-0.665-0.771s-0.949-1.119-2.422-2.854
			c-0.746-0.852-1.688-1.741-2.685-2.768c-1.013-0.995-2.068-2.147-3.229-3.184c-4.578-4.254-9.875-8.384-11.731-9.63
			C295.071,399.712,291.445,400.617,285.938,403.154z"/>
		<path d="M153.309,435.541c4.513,2.728,7.149,4.265,11.219,3.601c2.189-0.387,8.829-1.397,14.818-1.499
			c1.503-0.069,2.936,0.028,4.279,0.025c1.317,0.093,2.526,0.178,3.553,0.25c2,0.277,3.291,0.456,3.291,0.456
			s0.08,0.012,0.232,0.034c0.146,0.035,0.359,0.086,0.634,0.151c0.548,0.127,1.336,0.31,2.294,0.531
			c0.934,0.26,1.972,0.656,3.142,1.02c1.162,0.512,2.473,0.993,3.719,1.673c2.542,1.261,5.073,2.851,7.075,4.403
			c2.007,1.543,3.563,2.934,4.309,3.657c1.416,1.298,2.796,2.047,4.515,2.521c1.719,0.491,3.737,0.673,6.32,1.168
			c0.654-2.571,0.814-4.809,0.48-6.795c-0.349-1.993-1.217-3.802-2.924-5.514c-0.903-0.947-2.833-2.727-5.366-4.68
			c-2.524-1.965-5.744-3.99-9.002-5.592c-1.605-0.853-3.266-1.478-4.785-2.118c-1.612-0.526-3.1-1.052-4.361-1.392
			c-1.264-0.284-2.304-0.519-3.027-0.682c-0.361-0.08-0.645-0.143-0.837-0.185c-0.191-0.028-0.293-0.044-0.293-0.044
			s-1.62-0.237-4.131-0.604c-1.245-0.098-2.715-0.234-4.309-0.332c-1.577-0.016-3.305-0.124-5.034-0.057
			c-6.962,0.095-14.312,1.235-16.723,1.763C157.941,428.221,155.773,430.859,153.309,435.541z"/>
		<path d="M267.948,449.934c4.451,0.825,7.155,0.907,9.129-1.271c1.076-1.18,4.147-4.846,6.806-8.351
			c2.676-3.488,4.962-6.799,4.962-6.799s0.592-0.812,1.468-2.108c0.44-0.646,0.959-1.407,1.523-2.236
			c0.544-0.85,1.132-1.769,1.733-2.709c2.384-3.785,4.729-8.168,5.375-9.733c0.604-1.438,0.671-2.734,0.152-4.202
			c-0.511-1.458-1.501-2.993-2.875-4.745c-2.25,0.475-3.976,0.81-5.265,1.33c-1.278,0.52-2.266,1.212-2.845,2.382
			c-0.618,1.267-2.674,5.11-4.819,8.569c-0.543,0.863-1.073,1.706-1.564,2.485c-0.514,0.771-0.986,1.479-1.388,2.079
			c-0.796,1.206-1.339,1.972-1.339,1.972s-2.169,3.055-4.712,6.331c-2.524,3.289-5.439,6.769-6.38,7.944
			C266.174,443.058,266.726,445.576,267.948,449.934z"/>
		<path d="M158.45,523.959c0.266,0.976,0.622,1.866,1.052,2.647c0.216,0.39,0.449,0.754,0.7,1.088
			c0.126,0.167,0.256,0.327,0.391,0.479c0.109,0.143,0.217,0.282,0.322,0.419c0.844,1.054,1.774,1.642,2.994,1.746
			c1.342,0.129,5.243,0.262,8.84,0.386c3.583,0.097,6.84,0.185,6.84,0.185s13.012,0.486,15.611,0.452
			c2.401-0.029,3.818-2.071,5.918-5.86c-1.902-3.893-3.203-6.009-5.593-6.166c-2.589-0.166-15.561-0.45-15.562-0.45
			c0,0-3.237-0.123-6.799-0.259c-3.546-0.147-7.437-0.28-8.686-0.304c-1.174-0.009-2.118,0.489-3.052,1.458
			c-0.112,0.121-0.243,0.251-0.341,0.385c-0.087,0.138-0.175,0.278-0.266,0.422c-0.197,0.31-0.403,0.632-0.62,0.972
			C159.741,522.261,159.182,523.071,158.45,523.959z"/>
		<rect x="190.322" y="451.023" fill="#FFFFFF" width="239.677" height="148.619"/>
		<rect x="190.322" y="604.797" fill="#F4A6BA" width="239.901" height="20.812"/>
		<path d="M485.177,314.321c-1.662,1.311-2.544,2.423-2.457,4.352c0.031,0.525,0.109,1.576,0.41,2.903
			c0.312,1.311,0.844,2.984,2.13,4.466c0.635,0.729,1.483,1.351,2.349,1.714c0.835,0.372,1.766,0.514,2.298,0.53
			c0.549,0.022,0.999,0.041,1.313,0.054c0.324-0.021,0.508-0.033,0.508-0.033s0.183-0.014,0.509-0.036
			c0.322-0.008,0.795-0.079,1.373-0.211c1.14-0.225,2.752-0.824,4.07-1.902c1.34-1.048,2.338-2.4,3.013-3.524
			c0.687-1.133,1.099-2.062,1.308-2.523c0.732-1.713,0.295-2.927-0.561-4.854c-1.983,0.751-3.111,1.387-3.812,2.844
			c-0.377,0.781-1.506,3.167-2.947,4.256c-0.7,0.578-1.478,0.86-2.117,0.995c-0.617,0.173-1.105,0.123-1.092,0.149
			c0,0-0.111,0.009-0.308,0.023c-0.209-0.011-0.509-0.027-0.874-0.046c-0.378-0.017-0.527-0.062-0.766-0.16
			c-0.213-0.094-0.415-0.232-0.632-0.479c-0.44-0.482-0.841-1.447-1.042-2.361c-0.212-0.915-0.29-1.75-0.331-2.163
			C487.386,316.773,486.576,315.901,485.177,314.321z"/>
		<path d="M495.679,339.922c0.657,1.121,1.459,1.928,2.36,2.529c0.912,0.57,1.977,0.957,3.337,1.016
			c1.472,0.131,5.913-0.035,9.686-1.184c1.899-0.519,3.64-1.186,4.915-1.689c1.248-0.555,2.054-0.913,2.054-0.913
			s0.202-0.09,0.56-0.248c0.346-0.178,0.843-0.433,1.447-0.743c0.609-0.335,1.304-0.622,2.104-1.142
			c0.394-0.243,0.805-0.496,1.226-0.755c0.399-0.296,0.808-0.599,1.222-0.905c1.627-1.266,3.138-2.835,4.232-4.302
			c1.084-1.475,1.792-2.8,2.114-3.472c0.6-1.242,0.798-2.341,0.719-3.417c-0.078-1.068-0.405-2.141-1.017-3.282
			c-0.909,0.904-1.697,1.513-2.341,2.189c-0.641,0.672-1.157,1.382-1.662,2.352c-0.271,0.526-0.843,1.57-1.697,2.731
			c-0.866,1.15-2.048,2.379-3.328,3.383c-0.326,0.244-0.648,0.485-0.963,0.722c-0.336,0.207-0.663,0.409-0.979,0.604
			c-0.592,0.402-1.315,0.714-1.843,1.008c-0.55,0.287-1.002,0.523-1.317,0.688c-0.322,0.145-0.504,0.226-0.504,0.226
			s-0.728,0.319-1.856,0.814c-1.145,0.443-2.699,1.033-4.362,1.481c-3.324,0.998-7.018,1.111-8.204,1.047
			c-1.113-0.012-1.97,0.067-2.866,0.326C497.822,339.207,496.922,339.619,495.679,339.922z"/>
		<path d="M358.672,159.999c-2.432,0.752-3.953,1.528-5.242,3.753c-0.342,0.611-1.021,1.83-1.688,3.482
			c-0.331,0.829-0.662,1.765-0.896,2.835c-0.224,1.069-0.385,2.294-0.118,3.706c0.151,0.703,0.415,1.452,0.881,2.107
			c0.437,0.673,1.047,1.179,1.631,1.559c0.991,0.602,1.791,0.878,2.497,1.133c0.697,0.239,1.262,0.387,1.655,0.487
			c0.394,0.095,0.615,0.149,0.615,0.149s3.507,0.857,7.437,0.762c1.966-0.025,4.054-0.268,5.855-0.781
			c1.802-0.48,3.3-1.311,4.005-1.868c1.321-0.977,2.057-2.403,2.094-3.706c0.049-1.315-0.519-2.457-1.418-3.338
			c-0.62,1.125-1.326,1.736-1.893,2.112c-0.589,0.376-0.989,0.585-1.626,1.048c-0.333,0.246-1.162,0.731-2.469,1.084
			c-1.284,0.366-2.983,0.583-4.635,0.605c-1.652,0.04-3.251-0.109-4.405-0.273c-1.157-0.167-1.877-0.338-1.877-0.338
			s-0.738-0.154-1.767-0.504c-0.491-0.172-1.112-0.42-1.516-0.677c-0.184-0.157-0.224-0.151-0.319-0.526
			c-0.074-0.373-0.046-1.027,0.109-1.71c0.149-0.688,0.396-1.409,0.659-2.068c0.529-1.326,1.121-2.419,1.405-2.962
			C358.73,164.063,358.739,162.539,358.672,159.999z"/>
		<path d="M100.188,160.684c-0.476,1.224-0.7,2.347-0.653,3.44c0.033,1.105,0.373,2.199,1.108,3.423
			c0.212,0.324,0.549,0.8,0.966,1.39c0.466,0.557,0.985,1.255,1.679,1.921c1.304,1.411,3.223,2.732,5.177,3.691
			c0.501,0.216,0.996,0.431,1.479,0.64c0.485,0.201,0.985,0.305,1.452,0.451c0.472,0.127,0.921,0.277,1.351,0.363
			c0.432,0.066,0.837,0.128,1.209,0.185c0.745,0.101,1.36,0.228,1.783,0.208c0.425,0.011,0.664,0.017,0.664,0.017
			s0.238,0.006,0.663,0.018c0.416-0.005,1.055,0.064,1.751-0.008c0.709-0.052,1.543-0.09,2.453-0.177
			c0.911-0.143,1.899-0.228,2.905-0.448c2.02-0.376,4.105-1.066,5.825-1.816c1.703-0.813,3.04-1.651,3.655-2.16
			c1.175-0.87,1.872-1.876,2.273-2.945c0.392-1.063,0.512-2.269,0.244-3.567c-1.132,0.645-2.077,0.903-2.919,1.262
			c-0.846,0.343-1.565,0.762-2.456,1.378c-0.453,0.363-1.474,0.979-2.801,1.619c-1.364,0.582-3.054,1.158-4.768,1.479
			c-0.845,0.191-1.711,0.262-2.49,0.393c-0.794,0.078-1.533,0.113-2.155,0.164c-0.637,0.072-1.099,0.002-1.447,0.011
			c-0.34-0.007-0.531-0.011-0.531-0.011s-0.192-0.004-0.532-0.013c-0.348,0.022-0.812-0.095-1.391-0.173
			c-0.288-0.043-0.602-0.089-0.936-0.139c-0.329-0.067-0.659-0.189-1.015-0.284c-0.348-0.113-0.731-0.182-1.088-0.336
			c-0.355-0.156-0.721-0.316-1.089-0.478c-1.431-0.72-2.843-1.66-3.821-2.731c-0.524-0.492-0.919-1.034-1.283-1.449
			c-0.326-0.454-0.59-0.82-0.765-1.064c-0.598-0.94-1.21-1.603-1.919-2.234C102.042,162.074,101.201,161.515,100.188,160.684z"/>
	</g>
</g>
</svg>
